%TF.GenerationSoftware,KiCad,Pcbnew,8.0.7*%
%TF.CreationDate,2025-02-06T19:44:27+13:00*%
%TF.ProjectId,Housens-L,486f7573-656e-4732-9d4c-2e6b69636164,001*%
%TF.SameCoordinates,Original*%
%TF.FileFunction,Legend,Bot*%
%TF.FilePolarity,Positive*%
%FSLAX46Y46*%
G04 Gerber Fmt 4.6, Leading zero omitted, Abs format (unit mm)*
G04 Created by KiCad (PCBNEW 8.0.7) date 2025-02-06 19:44:27*
%MOMM*%
%LPD*%
G01*
G04 APERTURE LIST*
%ADD10C,0.000000*%
%ADD11C,0.100000*%
%ADD12C,0.200000*%
%ADD13C,0.480000*%
%ADD14C,0.500000*%
%ADD15C,0.150000*%
%ADD16C,0.120000*%
G04 APERTURE END LIST*
D10*
G36*
X80135416Y-169200000D02*
G01*
X80135416Y-170522918D01*
X78812498Y-170522918D01*
X78812498Y-169200000D01*
X78812498Y-167877086D01*
X80135416Y-167877086D01*
X80135416Y-169200000D01*
G37*
G36*
X82781248Y-146710420D02*
G01*
X81458330Y-146710420D01*
X81458330Y-145387503D01*
X82781248Y-145387503D01*
X82781248Y-146710420D01*
G37*
G36*
X64260416Y-173168750D02*
G01*
X62937499Y-173168750D01*
X62937499Y-171845836D01*
X64260416Y-171845836D01*
X64260416Y-173168750D01*
G37*
G36*
X85427080Y-179783336D02*
G01*
X86749998Y-179783336D01*
X86749998Y-178460418D01*
X88072916Y-178460418D01*
X88072916Y-179783336D01*
X88072916Y-181106250D01*
X86749998Y-181106250D01*
X85427080Y-181106250D01*
X84104166Y-181106250D01*
X84104166Y-179783336D01*
X84104166Y-178460418D01*
X85427080Y-178460418D01*
X85427080Y-179783336D01*
G37*
G36*
X84104166Y-148033336D02*
G01*
X85427080Y-148033336D01*
X85427080Y-149356253D01*
X84104166Y-149356253D01*
X84104166Y-150679169D01*
X82781248Y-150679169D01*
X82781248Y-149356253D01*
X82781248Y-148033336D01*
X82781248Y-146710420D01*
X84104166Y-146710420D01*
X84104166Y-148033336D01*
G37*
G36*
X96010416Y-170522918D02*
G01*
X94687498Y-170522918D01*
X94687498Y-169200000D01*
X96010416Y-169200000D01*
X96010416Y-170522918D01*
G37*
G36*
X62937499Y-171845836D02*
G01*
X61614583Y-171845836D01*
X61614583Y-173168750D01*
X62937499Y-173168750D01*
X62937499Y-174491668D01*
X61614583Y-174491668D01*
X60291666Y-174491668D01*
X60291666Y-173168750D01*
X60291666Y-171845836D01*
X60291666Y-170522918D01*
X61614583Y-170522918D01*
X62937499Y-170522918D01*
X62937499Y-171845836D01*
G37*
G36*
X60291666Y-145387503D02*
G01*
X60291666Y-146710420D01*
X60291666Y-148033336D01*
X58968750Y-148033336D01*
X57645833Y-148033336D01*
X56322916Y-148033336D01*
X56322916Y-146710420D01*
X56322916Y-145387503D01*
X56322916Y-144064586D01*
X57645833Y-144064586D01*
X58968750Y-144064586D01*
X60291666Y-144064586D01*
X60291666Y-145387503D01*
G37*
G36*
X60291666Y-159939586D02*
G01*
X61614583Y-159939586D01*
X62937499Y-159939586D01*
X62937499Y-161262502D01*
X61614583Y-161262502D01*
X60291666Y-161262502D01*
X58968750Y-161262502D01*
X58968750Y-159939586D01*
X58968750Y-158616668D01*
X60291666Y-158616668D01*
X60291666Y-159939586D01*
G37*
G36*
X66906250Y-163908336D02*
G01*
X65583332Y-163908336D01*
X65583332Y-162585418D01*
X66906250Y-162585418D01*
X66906250Y-163908336D01*
G37*
G36*
X60291666Y-179783336D02*
G01*
X58968750Y-179783336D01*
X57645833Y-179783336D01*
X56322916Y-179783336D01*
X56322916Y-178460418D01*
X57645833Y-178460418D01*
X58968750Y-178460418D01*
X60291666Y-178460418D01*
X60291666Y-179783336D01*
G37*
G36*
X64260416Y-179783336D02*
G01*
X62937499Y-179783336D01*
X61614583Y-179783336D01*
X61614583Y-178460418D01*
X62937499Y-178460418D01*
X64260416Y-178460418D01*
X64260416Y-179783336D01*
G37*
G36*
X82781248Y-142741670D02*
G01*
X81458330Y-142741670D01*
X80135416Y-142741670D01*
X78812498Y-142741670D01*
X78812498Y-141418753D01*
X80135416Y-141418753D01*
X81458330Y-141418753D01*
X82781248Y-141418753D01*
X82781248Y-142741670D01*
G37*
G36*
X56322916Y-163908336D02*
G01*
X57645833Y-163908336D01*
X58968750Y-163908336D01*
X58968750Y-162585418D01*
X60291666Y-162585418D01*
X61614583Y-162585418D01*
X62937499Y-162585418D01*
X62937499Y-163908336D01*
X61614583Y-163908336D01*
X61614583Y-165231252D01*
X60291666Y-165231252D01*
X60291666Y-163908336D01*
X58968750Y-163908336D01*
X58968750Y-165231252D01*
X57645833Y-165231252D01*
X57645833Y-166554168D01*
X56322916Y-166554168D01*
X55000000Y-166554168D01*
X55000000Y-165231252D01*
X55000000Y-163908336D01*
X55000000Y-162585418D01*
X56322916Y-162585418D01*
X56322916Y-163908336D01*
G37*
G36*
X94687498Y-182429168D02*
G01*
X93364580Y-182429168D01*
X93364580Y-181106250D01*
X94687498Y-181106250D01*
X94687498Y-182429168D01*
G37*
G36*
X88072916Y-142741670D02*
G01*
X88072916Y-144064586D01*
X89395830Y-144064586D01*
X89395830Y-145387503D01*
X89395830Y-146710420D01*
X88072916Y-146710420D01*
X88072916Y-148033336D01*
X86749998Y-148033336D01*
X86749998Y-146710420D01*
X85427080Y-146710420D01*
X85427080Y-145387503D01*
X86749998Y-145387503D01*
X86749998Y-144064586D01*
X86749998Y-142741670D01*
X85427080Y-142741670D01*
X85427080Y-141418753D01*
X86749998Y-141418753D01*
X88072916Y-141418753D01*
X88072916Y-142741670D01*
G37*
G36*
X60291666Y-185075000D02*
G01*
X60291666Y-186397918D01*
X60291666Y-187720832D01*
X58968750Y-187720832D01*
X57645833Y-187720832D01*
X56322916Y-187720832D01*
X56322916Y-186397918D01*
X56322916Y-185075000D01*
X56322916Y-183752086D01*
X57645833Y-183752086D01*
X58968750Y-183752086D01*
X60291666Y-183752086D01*
X60291666Y-185075000D01*
G37*
G36*
X73520832Y-185075000D02*
G01*
X72197916Y-185075000D01*
X72197916Y-183752086D01*
X73520832Y-183752086D01*
X73520832Y-185075000D01*
G37*
G36*
X94687498Y-174491668D02*
G01*
X93364580Y-174491668D01*
X93364580Y-173168750D01*
X94687498Y-173168750D01*
X94687498Y-174491668D01*
G37*
G36*
X69552082Y-167877086D02*
G01*
X69552082Y-169200000D01*
X70874998Y-169200000D01*
X70874998Y-167877086D01*
X72197916Y-167877086D01*
X72197916Y-166554168D01*
X73520832Y-166554168D01*
X73520832Y-167877086D01*
X74843748Y-167877086D01*
X74843748Y-166554168D01*
X76166666Y-166554168D01*
X77489582Y-166554168D01*
X78812498Y-166554168D01*
X78812498Y-167877086D01*
X77489582Y-167877086D01*
X77489582Y-169200000D01*
X76166666Y-169200000D01*
X74843748Y-169200000D01*
X73520832Y-169200000D01*
X73520832Y-170522918D01*
X73520832Y-171845836D01*
X74843748Y-171845836D01*
X74843748Y-170522918D01*
X76166666Y-170522918D01*
X77489582Y-170522918D01*
X78812498Y-170522918D01*
X78812498Y-171845836D01*
X80135416Y-171845836D01*
X80135416Y-170522918D01*
X81458330Y-170522918D01*
X81458330Y-171845836D01*
X81458330Y-173168750D01*
X81458330Y-174491668D01*
X82781248Y-174491668D01*
X82781248Y-173168750D01*
X82781248Y-171845836D01*
X82781248Y-170522918D01*
X84104166Y-170522918D01*
X84104166Y-171845836D01*
X84104166Y-173168750D01*
X84104166Y-174491668D01*
X85427080Y-174491668D01*
X85427080Y-175814586D01*
X84104166Y-175814586D01*
X82781248Y-175814586D01*
X82781248Y-177137500D01*
X84104166Y-177137500D01*
X84104166Y-178460418D01*
X82781248Y-178460418D01*
X82781248Y-179783336D01*
X82781248Y-181106250D01*
X82781248Y-182429168D01*
X81458330Y-182429168D01*
X81458330Y-181106250D01*
X81458330Y-179783336D01*
X81458330Y-178460418D01*
X80135416Y-178460418D01*
X80135416Y-179783336D01*
X78812498Y-179783336D01*
X77489582Y-179783336D01*
X77489582Y-178460418D01*
X77489582Y-177137500D01*
X76166666Y-177137500D01*
X76166666Y-175814586D01*
X74843748Y-175814586D01*
X74843748Y-174491668D01*
X76166666Y-174491668D01*
X77489582Y-174491668D01*
X77489582Y-175814586D01*
X78812498Y-175814586D01*
X80135416Y-175814586D01*
X80135416Y-177137500D01*
X81458330Y-177137500D01*
X81458330Y-175814586D01*
X80135416Y-175814586D01*
X80135416Y-174491668D01*
X78812498Y-174491668D01*
X78812498Y-173168750D01*
X77489582Y-173168750D01*
X77489582Y-171845836D01*
X76166666Y-171845836D01*
X74843748Y-171845836D01*
X74843748Y-173168750D01*
X73520832Y-173168750D01*
X72197916Y-173168750D01*
X70874998Y-173168750D01*
X70874998Y-174491668D01*
X69552082Y-174491668D01*
X68229166Y-174491668D01*
X68229166Y-173168750D01*
X66906250Y-173168750D01*
X66906250Y-171845836D01*
X66906250Y-170522918D01*
X65583332Y-170522918D01*
X65583332Y-169200000D01*
X68229166Y-169200000D01*
X68229166Y-170522918D01*
X69552082Y-170522918D01*
X70874998Y-170522918D01*
X70874998Y-171845836D01*
X72197916Y-171845836D01*
X72197916Y-170522918D01*
X70874998Y-170522918D01*
X69552082Y-170522918D01*
X69552082Y-169200000D01*
X68229166Y-169200000D01*
X65583332Y-169200000D01*
X64260416Y-169200000D01*
X64260416Y-167877086D01*
X65583332Y-167877086D01*
X66906250Y-167877086D01*
X68229166Y-167877086D01*
X68229166Y-166554168D01*
X69552082Y-166554168D01*
X69552082Y-167877086D01*
G37*
G36*
X90718748Y-148033336D02*
G01*
X89395830Y-148033336D01*
X89395830Y-146710420D01*
X90718748Y-146710420D01*
X90718748Y-148033336D01*
G37*
G36*
X61614583Y-167877086D02*
G01*
X62937499Y-167877086D01*
X62937499Y-169200000D01*
X61614583Y-169200000D01*
X60291666Y-169200000D01*
X60291666Y-167877086D01*
X60291666Y-166554168D01*
X61614583Y-166554168D01*
X61614583Y-167877086D01*
G37*
G36*
X99979162Y-145387503D02*
G01*
X99979162Y-146710420D01*
X99979162Y-148033336D01*
X98656248Y-148033336D01*
X97333330Y-148033336D01*
X96010416Y-148033336D01*
X96010416Y-146710420D01*
X96010416Y-145387503D01*
X96010416Y-144064586D01*
X97333330Y-144064586D01*
X98656248Y-144064586D01*
X99979162Y-144064586D01*
X99979162Y-145387503D01*
G37*
G36*
X65583332Y-159939586D02*
G01*
X65583332Y-161262502D01*
X64260416Y-161262502D01*
X64260416Y-159939586D01*
X64260416Y-158616668D01*
X65583332Y-158616668D01*
X65583332Y-159939586D01*
G37*
G36*
X99979162Y-163908336D02*
G01*
X98656248Y-163908336D01*
X97333330Y-163908336D01*
X97333330Y-162585418D01*
X98656248Y-162585418D01*
X99979162Y-162585418D01*
X99979162Y-163908336D01*
G37*
G36*
X93364580Y-190366668D02*
G01*
X92041666Y-190366668D01*
X92041666Y-189043750D01*
X93364580Y-189043750D01*
X93364580Y-190366668D01*
G37*
G36*
X74843748Y-178460418D02*
G01*
X73520832Y-178460418D01*
X73520832Y-177137500D01*
X74843748Y-177137500D01*
X74843748Y-178460418D01*
G37*
G36*
X65583332Y-181106250D02*
G01*
X66906250Y-181106250D01*
X68229166Y-181106250D01*
X68229166Y-182429168D01*
X68229166Y-183752086D01*
X66906250Y-183752086D01*
X66906250Y-185075000D01*
X65583332Y-185075000D01*
X65583332Y-183752086D01*
X65583332Y-182429168D01*
X64260416Y-182429168D01*
X64260416Y-181106250D01*
X64260416Y-179783336D01*
X65583332Y-179783336D01*
X65583332Y-181106250D01*
G37*
G36*
X80135416Y-165231252D02*
G01*
X78812498Y-165231252D01*
X78812498Y-163908336D01*
X80135416Y-163908336D01*
X80135416Y-165231252D01*
G37*
G36*
X62937499Y-155970836D02*
G01*
X61614583Y-155970836D01*
X61614583Y-154647920D01*
X62937499Y-154647920D01*
X62937499Y-155970836D01*
G37*
G36*
X70874998Y-185075000D02*
G01*
X69552082Y-185075000D01*
X69552082Y-186397918D01*
X70874998Y-186397918D01*
X72197916Y-186397918D01*
X73520832Y-186397918D01*
X73520832Y-187720832D01*
X74843748Y-187720832D01*
X76166666Y-187720832D01*
X76166666Y-186397918D01*
X77489582Y-186397918D01*
X77489582Y-187720832D01*
X81458330Y-187720832D01*
X81458330Y-186397918D01*
X82781248Y-186397918D01*
X82781248Y-187720832D01*
X82781248Y-189043750D01*
X81458330Y-189043750D01*
X80135416Y-189043750D01*
X78812498Y-189043750D01*
X78812498Y-190366668D01*
X77489582Y-190366668D01*
X77489582Y-189043750D01*
X76166666Y-189043750D01*
X74843748Y-189043750D01*
X74843748Y-190366668D01*
X73520832Y-190366668D01*
X73520832Y-189043750D01*
X72197916Y-189043750D01*
X72197916Y-187720832D01*
X70874998Y-187720832D01*
X69552082Y-187720832D01*
X69552082Y-189043750D01*
X70874998Y-189043750D01*
X70874998Y-190366668D01*
X69552082Y-190366668D01*
X68229166Y-190366668D01*
X66906250Y-190366668D01*
X66906250Y-189043750D01*
X66906250Y-187720832D01*
X66906250Y-186397918D01*
X68229166Y-186397918D01*
X68229166Y-185075000D01*
X68229166Y-183752086D01*
X69552082Y-183752086D01*
X70874998Y-183752086D01*
X70874998Y-185075000D01*
G37*
G36*
X58968750Y-171845836D02*
G01*
X58968750Y-173168750D01*
X57645833Y-173168750D01*
X56322916Y-173168750D01*
X56322916Y-171845836D01*
X56322916Y-170522918D01*
X57645833Y-170522918D01*
X58968750Y-170522918D01*
X58968750Y-171845836D01*
G37*
G36*
X101302080Y-154647920D02*
G01*
X99979162Y-154647920D01*
X99979162Y-153325002D01*
X101302080Y-153325002D01*
X101302080Y-154647920D01*
G37*
G36*
X80135416Y-161262502D02*
G01*
X81458330Y-161262502D01*
X82781248Y-161262502D01*
X84104166Y-161262502D01*
X84104166Y-162585418D01*
X85427080Y-162585418D01*
X85427080Y-163908336D01*
X85427080Y-165231252D01*
X84104166Y-165231252D01*
X84104166Y-166554168D01*
X82781248Y-166554168D01*
X82781248Y-165231252D01*
X82781248Y-163908336D01*
X81458330Y-163908336D01*
X80135416Y-163908336D01*
X80135416Y-162585418D01*
X78812498Y-162585418D01*
X78812498Y-163908336D01*
X77489582Y-163908336D01*
X77489582Y-165231252D01*
X76166666Y-165231252D01*
X74843748Y-165231252D01*
X74843748Y-163908336D01*
X76166666Y-163908336D01*
X76166666Y-162585418D01*
X77489582Y-162585418D01*
X77489582Y-161262502D01*
X78812498Y-161262502D01*
X78812498Y-159939586D01*
X80135416Y-159939586D01*
X80135416Y-161262502D01*
G37*
G36*
X57645833Y-162585418D02*
G01*
X56322916Y-162585418D01*
X56322916Y-161262502D01*
X57645833Y-161262502D01*
X57645833Y-162585418D01*
G37*
G36*
X65583332Y-165231252D02*
G01*
X64260416Y-165231252D01*
X62937499Y-165231252D01*
X62937499Y-163908336D01*
X64260416Y-163908336D01*
X65583332Y-163908336D01*
X65583332Y-165231252D01*
G37*
G36*
X93364580Y-155970836D02*
G01*
X92041666Y-155970836D01*
X92041666Y-157293752D01*
X90718748Y-157293752D01*
X90718748Y-155970836D01*
X90718748Y-154647920D01*
X92041666Y-154647920D01*
X93364580Y-154647920D01*
X93364580Y-155970836D01*
G37*
G36*
X77489582Y-142741670D02*
G01*
X78812498Y-142741670D01*
X78812498Y-144064586D01*
X78812498Y-145387503D01*
X78812498Y-146710420D01*
X80135416Y-146710420D01*
X81458330Y-146710420D01*
X81458330Y-148033336D01*
X81458330Y-149356253D01*
X81458330Y-150679169D01*
X82781248Y-150679169D01*
X82781248Y-152002086D01*
X84104166Y-152002086D01*
X84104166Y-153325002D01*
X84104166Y-154647920D01*
X84104166Y-155970836D01*
X82781248Y-155970836D01*
X82781248Y-154647920D01*
X81458330Y-154647920D01*
X81458330Y-155970836D01*
X82781248Y-155970836D01*
X82781248Y-157293752D01*
X82781248Y-158616668D01*
X81458330Y-158616668D01*
X80135416Y-158616668D01*
X78812498Y-158616668D01*
X77489582Y-158616668D01*
X76166666Y-158616668D01*
X74843748Y-158616668D01*
X74843748Y-157293752D01*
X76166666Y-157293752D01*
X76166666Y-155970836D01*
X77489582Y-155970836D01*
X77489582Y-157293752D01*
X78812498Y-157293752D01*
X78812498Y-155970836D01*
X77489582Y-155970836D01*
X76166666Y-155970836D01*
X74843748Y-155970836D01*
X74843748Y-154647920D01*
X76166666Y-154647920D01*
X76166666Y-153325002D01*
X77489582Y-153325002D01*
X77489582Y-154647920D01*
X78812498Y-154647920D01*
X80135416Y-154647920D01*
X81458330Y-154647920D01*
X81458330Y-153325002D01*
X81458330Y-152002086D01*
X80135416Y-152002086D01*
X78812498Y-152002086D01*
X78812498Y-150679169D01*
X80135416Y-150679169D01*
X80135416Y-149356253D01*
X80135416Y-148033336D01*
X78812498Y-148033336D01*
X77489582Y-148033336D01*
X76166666Y-148033336D01*
X74843748Y-148033336D01*
X74843748Y-146710420D01*
X76166666Y-146710420D01*
X77489582Y-146710420D01*
X77489582Y-145387503D01*
X76166666Y-145387503D01*
X74843748Y-145387503D01*
X74843748Y-144064586D01*
X76166666Y-144064586D01*
X76166666Y-142741670D01*
X74843748Y-142741670D01*
X74843748Y-141418753D01*
X76166666Y-141418753D01*
X77489582Y-141418753D01*
X77489582Y-142741670D01*
G37*
G36*
X80135416Y-185075000D02*
G01*
X81458330Y-185075000D01*
X81458330Y-186397918D01*
X80135416Y-186397918D01*
X78812498Y-186397918D01*
X78812498Y-185075000D01*
X78812498Y-183752086D01*
X80135416Y-183752086D01*
X80135416Y-185075000D01*
G37*
G36*
X66906250Y-142741670D02*
G01*
X66906250Y-144064586D01*
X66906250Y-145387503D01*
X65583332Y-145387503D01*
X65583332Y-144064586D01*
X65583332Y-142741670D01*
X65583332Y-141418753D01*
X66906250Y-141418753D01*
X66906250Y-142741670D01*
G37*
G36*
X102624998Y-165231252D02*
G01*
X102624998Y-166554168D01*
X101302080Y-166554168D01*
X101302080Y-167877086D01*
X101302080Y-169200000D01*
X101302080Y-170522918D01*
X99979162Y-170522918D01*
X99979162Y-169200000D01*
X99979162Y-167877086D01*
X99979162Y-166554168D01*
X99979162Y-165231252D01*
X101302080Y-165231252D01*
X101302080Y-163908336D01*
X102624998Y-163908336D01*
X102624998Y-165231252D01*
G37*
G36*
X73520832Y-150679169D02*
G01*
X72197916Y-150679169D01*
X72197916Y-149356253D01*
X73520832Y-149356253D01*
X73520832Y-150679169D01*
G37*
D11*
X69500000Y-84000000D02*
X74500000Y-84000000D01*
X74500000Y-89000000D01*
X69500000Y-89000000D01*
X69500000Y-84000000D01*
G36*
X69500000Y-84000000D02*
G01*
X74500000Y-84000000D01*
X74500000Y-89000000D01*
X69500000Y-89000000D01*
X69500000Y-84000000D01*
G37*
D10*
G36*
X85427080Y-159939586D02*
G01*
X85427080Y-161262502D01*
X84104166Y-161262502D01*
X84104166Y-159939586D01*
X84104166Y-158616668D01*
X85427080Y-158616668D01*
X85427080Y-159939586D01*
G37*
G36*
X86749998Y-177137500D02*
G01*
X86749998Y-178460418D01*
X85427080Y-178460418D01*
X85427080Y-177137500D01*
X85427080Y-175814586D01*
X86749998Y-175814586D01*
X86749998Y-177137500D01*
G37*
G36*
X86749998Y-166554168D02*
G01*
X86749998Y-167877086D01*
X86749998Y-169200000D01*
X85427080Y-169200000D01*
X84104166Y-169200000D01*
X82781248Y-169200000D01*
X82781248Y-167877086D01*
X84104166Y-167877086D01*
X84104166Y-166554168D01*
X85427080Y-166554168D01*
X85427080Y-165231252D01*
X86749998Y-165231252D01*
X86749998Y-166554168D01*
G37*
G36*
X78812498Y-150679169D02*
G01*
X77489582Y-150679169D01*
X77489582Y-149356253D01*
X78812498Y-149356253D01*
X78812498Y-150679169D01*
G37*
G36*
X102624998Y-142741670D02*
G01*
X102624998Y-144064586D01*
X102624998Y-145387503D01*
X102624998Y-146710420D01*
X102624998Y-148033336D01*
X102624998Y-149356253D01*
X102624998Y-150679169D01*
X101302080Y-150679169D01*
X99979162Y-150679169D01*
X98656248Y-150679169D01*
X97333330Y-150679169D01*
X96010416Y-150679169D01*
X94687498Y-150679169D01*
X93364580Y-150679169D01*
X93364580Y-149356253D01*
X93364580Y-148033336D01*
X93364580Y-146710420D01*
X93364580Y-145387503D01*
X94687498Y-145387503D01*
X94687498Y-146710420D01*
X94687498Y-148033336D01*
X94687498Y-149356253D01*
X96010416Y-149356253D01*
X97333330Y-149356253D01*
X98656248Y-149356253D01*
X99979162Y-149356253D01*
X101302080Y-149356253D01*
X101302080Y-148033336D01*
X101302080Y-146710420D01*
X101302080Y-145387503D01*
X101302080Y-144064586D01*
X101302080Y-142741670D01*
X99979162Y-142741670D01*
X98656248Y-142741670D01*
X97333330Y-142741670D01*
X96010416Y-142741670D01*
X94687498Y-142741670D01*
X94687498Y-144064586D01*
X94687498Y-145387503D01*
X93364580Y-145387503D01*
X93364580Y-144064586D01*
X93364580Y-142741670D01*
X93364580Y-141418753D01*
X94687498Y-141418753D01*
X96010416Y-141418753D01*
X97333330Y-141418753D01*
X98656248Y-141418753D01*
X99979162Y-141418753D01*
X101302080Y-141418753D01*
X102624998Y-141418753D01*
X102624998Y-142741670D01*
G37*
G36*
X86749998Y-150679169D02*
G01*
X85427080Y-150679169D01*
X85427080Y-149356253D01*
X86749998Y-149356253D01*
X86749998Y-150679169D01*
G37*
G36*
X65583332Y-186397918D02*
G01*
X65583332Y-187720832D01*
X64260416Y-187720832D01*
X64260416Y-186397918D01*
X64260416Y-185075000D01*
X65583332Y-185075000D01*
X65583332Y-186397918D01*
G37*
G36*
X55000000Y-178460418D02*
G01*
X53677083Y-178460418D01*
X53677083Y-177137500D01*
X55000000Y-177137500D01*
X55000000Y-178460418D01*
G37*
G36*
X86749998Y-183752086D02*
G01*
X85427080Y-183752086D01*
X84104166Y-183752086D01*
X84104166Y-182429168D01*
X85427080Y-182429168D01*
X86749998Y-182429168D01*
X86749998Y-183752086D01*
G37*
G36*
X62937499Y-142741670D02*
G01*
X62937499Y-144064586D01*
X62937499Y-145387503D01*
X62937499Y-146710420D01*
X62937499Y-148033336D01*
X62937499Y-149356253D01*
X62937499Y-150679169D01*
X61614583Y-150679169D01*
X60291666Y-150679169D01*
X58968750Y-150679169D01*
X57645833Y-150679169D01*
X56322916Y-150679169D01*
X55000000Y-150679169D01*
X53677083Y-150679169D01*
X53677083Y-149356253D01*
X53677083Y-148033336D01*
X53677083Y-146710420D01*
X53677083Y-145387503D01*
X55000000Y-145387503D01*
X55000000Y-146710420D01*
X55000000Y-148033336D01*
X55000000Y-149356253D01*
X56322916Y-149356253D01*
X57645833Y-149356253D01*
X58968750Y-149356253D01*
X60291666Y-149356253D01*
X61614583Y-149356253D01*
X61614583Y-148033336D01*
X61614583Y-146710420D01*
X61614583Y-145387503D01*
X61614583Y-144064586D01*
X61614583Y-142741670D01*
X60291666Y-142741670D01*
X58968750Y-142741670D01*
X57645833Y-142741670D01*
X56322916Y-142741670D01*
X55000000Y-142741670D01*
X55000000Y-144064586D01*
X55000000Y-145387503D01*
X53677083Y-145387503D01*
X53677083Y-144064586D01*
X53677083Y-142741670D01*
X53677083Y-141418753D01*
X55000000Y-141418753D01*
X56322916Y-141418753D01*
X57645833Y-141418753D01*
X58968750Y-141418753D01*
X60291666Y-141418753D01*
X61614583Y-141418753D01*
X62937499Y-141418753D01*
X62937499Y-142741670D01*
G37*
G36*
X89395830Y-149356253D02*
G01*
X89395830Y-150679169D01*
X90718748Y-150679169D01*
X90718748Y-149356253D01*
X92041666Y-149356253D01*
X92041666Y-150679169D01*
X92041666Y-152002086D01*
X90718748Y-152002086D01*
X90718748Y-153325002D01*
X90718748Y-154647920D01*
X89395830Y-154647920D01*
X89395830Y-153325002D01*
X88072916Y-153325002D01*
X88072916Y-154647920D01*
X88072916Y-155970836D01*
X89395830Y-155970836D01*
X89395830Y-157293752D01*
X90718748Y-157293752D01*
X90718748Y-158616668D01*
X92041666Y-158616668D01*
X92041666Y-159939586D01*
X93364580Y-159939586D01*
X93364580Y-158616668D01*
X92041666Y-158616668D01*
X92041666Y-157293752D01*
X93364580Y-157293752D01*
X94687498Y-157293752D01*
X94687498Y-158616668D01*
X96010416Y-158616668D01*
X96010416Y-157293752D01*
X96010416Y-155970836D01*
X97333330Y-155970836D01*
X97333330Y-157293752D01*
X98656248Y-157293752D01*
X99979162Y-157293752D01*
X99979162Y-158616668D01*
X101302080Y-158616668D01*
X101302080Y-157293752D01*
X99979162Y-157293752D01*
X98656248Y-157293752D01*
X98656248Y-155970836D01*
X97333330Y-155970836D01*
X97333330Y-154647920D01*
X96010416Y-154647920D01*
X94687498Y-154647920D01*
X93364580Y-154647920D01*
X93364580Y-153325002D01*
X92041666Y-153325002D01*
X92041666Y-152002086D01*
X93364580Y-152002086D01*
X94687498Y-152002086D01*
X94687498Y-153325002D01*
X96010416Y-153325002D01*
X96010416Y-152002086D01*
X97333330Y-152002086D01*
X97333330Y-153325002D01*
X98656248Y-153325002D01*
X98656248Y-154647920D01*
X99979162Y-154647920D01*
X99979162Y-155970836D01*
X101302080Y-155970836D01*
X102624998Y-155970836D01*
X102624998Y-157293752D01*
X102624998Y-158616668D01*
X102624998Y-159939586D01*
X101302080Y-159939586D01*
X101302080Y-161262502D01*
X99979162Y-161262502D01*
X98656248Y-161262502D01*
X98656248Y-159939586D01*
X98656248Y-158616668D01*
X97333330Y-158616668D01*
X97333330Y-159939586D01*
X97333330Y-161262502D01*
X97333330Y-162585418D01*
X96010416Y-162585418D01*
X94687498Y-162585418D01*
X94687498Y-161262502D01*
X96010416Y-161262502D01*
X96010416Y-159939586D01*
X94687498Y-159939586D01*
X94687498Y-161262502D01*
X93364580Y-161262502D01*
X92041666Y-161262502D01*
X90718748Y-161262502D01*
X90718748Y-162585418D01*
X90718748Y-163908336D01*
X90718748Y-165231252D01*
X93364580Y-165231252D01*
X93364580Y-163908336D01*
X94687498Y-163908336D01*
X96010416Y-163908336D01*
X96010416Y-165231252D01*
X94687498Y-165231252D01*
X94687498Y-166554168D01*
X93364580Y-166554168D01*
X93364580Y-167877086D01*
X92041666Y-167877086D01*
X92041666Y-169200000D01*
X90718748Y-169200000D01*
X89395830Y-169200000D01*
X89395830Y-170522918D01*
X89395830Y-171845836D01*
X90718748Y-171845836D01*
X92041666Y-171845836D01*
X92041666Y-170522918D01*
X93364580Y-170522918D01*
X93364580Y-171845836D01*
X93364580Y-173168750D01*
X92041666Y-173168750D01*
X90718748Y-173168750D01*
X89395830Y-173168750D01*
X88072916Y-173168750D01*
X86749998Y-173168750D01*
X85427080Y-173168750D01*
X85427080Y-171845836D01*
X85427080Y-170522918D01*
X86749998Y-170522918D01*
X86749998Y-171845836D01*
X88072916Y-171845836D01*
X88072916Y-170522918D01*
X88072916Y-169200000D01*
X88072916Y-167877086D01*
X89395830Y-167877086D01*
X89395830Y-166554168D01*
X88072916Y-166554168D01*
X88072916Y-165231252D01*
X86749998Y-165231252D01*
X86749998Y-163908336D01*
X86749998Y-162585418D01*
X88072916Y-162585418D01*
X88072916Y-163908336D01*
X89395830Y-163908336D01*
X89395830Y-162585418D01*
X88072916Y-162585418D01*
X88072916Y-161262502D01*
X88072916Y-159939586D01*
X89395830Y-159939586D01*
X89395830Y-161262502D01*
X90718748Y-161262502D01*
X90718748Y-159939586D01*
X89395830Y-159939586D01*
X88072916Y-159939586D01*
X86749998Y-159939586D01*
X86749998Y-158616668D01*
X86749998Y-157293752D01*
X86749998Y-155970836D01*
X86749998Y-154647920D01*
X86749998Y-153325002D01*
X85427080Y-153325002D01*
X85427080Y-152002086D01*
X86749998Y-152002086D01*
X86749998Y-150679169D01*
X88072916Y-150679169D01*
X88072916Y-149356253D01*
X88072916Y-148033336D01*
X89395830Y-148033336D01*
X89395830Y-149356253D01*
G37*
G36*
X76166666Y-150679169D02*
G01*
X77489582Y-150679169D01*
X77489582Y-152002086D01*
X76166666Y-152002086D01*
X74843748Y-152002086D01*
X74843748Y-150679169D01*
X74843748Y-149356253D01*
X76166666Y-149356253D01*
X76166666Y-150679169D01*
G37*
G36*
X76166666Y-181106250D02*
G01*
X74843748Y-181106250D01*
X73520832Y-181106250D01*
X72197916Y-181106250D01*
X72197916Y-182429168D01*
X70874998Y-182429168D01*
X69552082Y-182429168D01*
X69552082Y-181106250D01*
X70874998Y-181106250D01*
X70874998Y-179783336D01*
X72197916Y-179783336D01*
X73520832Y-179783336D01*
X74843748Y-179783336D01*
X76166666Y-179783336D01*
X76166666Y-181106250D01*
G37*
G36*
X66906250Y-174491668D02*
G01*
X66906250Y-175814586D01*
X65583332Y-175814586D01*
X65583332Y-177137500D01*
X64260416Y-177137500D01*
X62937499Y-177137500D01*
X61614583Y-177137500D01*
X60291666Y-177137500D01*
X58968750Y-177137500D01*
X57645833Y-177137500D01*
X57645833Y-175814586D01*
X56322916Y-175814586D01*
X56322916Y-177137500D01*
X55000000Y-177137500D01*
X55000000Y-175814586D01*
X55000000Y-174491668D01*
X56322916Y-174491668D01*
X57645833Y-174491668D01*
X58968750Y-174491668D01*
X58968750Y-175814586D01*
X60291666Y-175814586D01*
X61614583Y-175814586D01*
X62937499Y-175814586D01*
X64260416Y-175814586D01*
X64260416Y-174491668D01*
X65583332Y-174491668D01*
X65583332Y-173168750D01*
X66906250Y-173168750D01*
X66906250Y-174491668D01*
G37*
G36*
X74843748Y-149356253D02*
G01*
X73520832Y-149356253D01*
X73520832Y-148033336D01*
X74843748Y-148033336D01*
X74843748Y-149356253D01*
G37*
G36*
X73520832Y-142741670D02*
G01*
X73520832Y-144064586D01*
X73520832Y-145387503D01*
X72197916Y-145387503D01*
X72197916Y-146710420D01*
X70874998Y-146710420D01*
X70874998Y-148033336D01*
X72197916Y-148033336D01*
X72197916Y-149356253D01*
X70874998Y-149356253D01*
X70874998Y-150679169D01*
X72197916Y-150679169D01*
X72197916Y-152002086D01*
X73520832Y-152002086D01*
X74843748Y-152002086D01*
X74843748Y-153325002D01*
X74843748Y-154647920D01*
X73520832Y-154647920D01*
X72197916Y-154647920D01*
X72197916Y-153325002D01*
X70874998Y-153325002D01*
X69552082Y-153325002D01*
X69552082Y-154647920D01*
X70874998Y-154647920D01*
X70874998Y-155970836D01*
X70874998Y-157293752D01*
X72197916Y-157293752D01*
X72197916Y-158616668D01*
X72197916Y-159939586D01*
X73520832Y-159939586D01*
X73520832Y-158616668D01*
X74843748Y-158616668D01*
X74843748Y-159939586D01*
X76166666Y-159939586D01*
X77489582Y-159939586D01*
X77489582Y-161262502D01*
X76166666Y-161262502D01*
X76166666Y-162585418D01*
X74843748Y-162585418D01*
X74843748Y-161262502D01*
X73520832Y-161262502D01*
X73520832Y-162585418D01*
X73520832Y-163908336D01*
X72197916Y-163908336D01*
X70874998Y-163908336D01*
X69552082Y-163908336D01*
X69552082Y-165231252D01*
X68229166Y-165231252D01*
X68229166Y-166554168D01*
X66906250Y-166554168D01*
X66906250Y-165231252D01*
X66906250Y-163908336D01*
X68229166Y-163908336D01*
X68229166Y-162585418D01*
X68229166Y-161262502D01*
X66906250Y-161262502D01*
X66906250Y-159939586D01*
X66906250Y-158616668D01*
X68229166Y-158616668D01*
X68229166Y-159939586D01*
X69552082Y-159939586D01*
X70874998Y-159939586D01*
X70874998Y-161262502D01*
X72197916Y-161262502D01*
X72197916Y-159939586D01*
X70874998Y-159939586D01*
X69552082Y-159939586D01*
X69552082Y-158616668D01*
X68229166Y-158616668D01*
X66906250Y-158616668D01*
X65583332Y-158616668D01*
X65583332Y-157293752D01*
X66906250Y-157293752D01*
X66906250Y-155970836D01*
X68229166Y-155970836D01*
X68229166Y-157293752D01*
X69552082Y-157293752D01*
X69552082Y-155970836D01*
X68229166Y-155970836D01*
X66906250Y-155970836D01*
X65583332Y-155970836D01*
X65583332Y-154647920D01*
X66906250Y-154647920D01*
X66906250Y-153325002D01*
X65583332Y-153325002D01*
X65583332Y-154647920D01*
X64260416Y-154647920D01*
X62937499Y-154647920D01*
X62937499Y-153325002D01*
X61614583Y-153325002D01*
X61614583Y-152002086D01*
X62937499Y-152002086D01*
X64260416Y-152002086D01*
X64260416Y-150679169D01*
X64260416Y-149356253D01*
X65583332Y-149356253D01*
X65583332Y-150679169D01*
X66906250Y-150679169D01*
X66906250Y-152002086D01*
X68229166Y-152002086D01*
X68229166Y-153325002D01*
X69552082Y-153325002D01*
X69552082Y-152002086D01*
X69552082Y-150679169D01*
X69552082Y-149356253D01*
X68229166Y-149356253D01*
X68229166Y-150679169D01*
X66906250Y-150679169D01*
X66906250Y-149356253D01*
X65583332Y-149356253D01*
X65583332Y-148033336D01*
X64260416Y-148033336D01*
X64260416Y-146710420D01*
X65583332Y-146710420D01*
X66906250Y-146710420D01*
X66906250Y-148033336D01*
X68229166Y-148033336D01*
X69552082Y-148033336D01*
X69552082Y-146710420D01*
X69552082Y-145387503D01*
X69552082Y-144064586D01*
X69552082Y-142741670D01*
X70874998Y-142741670D01*
X70874998Y-144064586D01*
X72197916Y-144064586D01*
X72197916Y-142741670D01*
X70874998Y-142741670D01*
X70874998Y-141418753D01*
X72197916Y-141418753D01*
X73520832Y-141418753D01*
X73520832Y-142741670D01*
G37*
G36*
X98656248Y-166554168D02*
G01*
X98656248Y-167877086D01*
X98656248Y-169200000D01*
X98656248Y-170522918D01*
X99979162Y-170522918D01*
X99979162Y-171845836D01*
X99979162Y-173168750D01*
X101302080Y-173168750D01*
X101302080Y-174491668D01*
X99979162Y-174491668D01*
X99979162Y-175814586D01*
X101302080Y-175814586D01*
X101302080Y-177137500D01*
X102624998Y-177137500D01*
X102624998Y-178460418D01*
X101302080Y-178460418D01*
X101302080Y-179783336D01*
X102624998Y-179783336D01*
X102624998Y-181106250D01*
X102624998Y-182429168D01*
X101302080Y-182429168D01*
X99979162Y-182429168D01*
X99979162Y-181106250D01*
X98656248Y-181106250D01*
X98656248Y-182429168D01*
X98656248Y-183752086D01*
X98656248Y-185075000D01*
X97333330Y-185075000D01*
X97333330Y-186397918D01*
X98656248Y-186397918D01*
X98656248Y-187720832D01*
X99979162Y-187720832D01*
X99979162Y-189043750D01*
X101302080Y-189043750D01*
X102624998Y-189043750D01*
X102624998Y-190366668D01*
X101302080Y-190366668D01*
X99979162Y-190366668D01*
X98656248Y-190366668D01*
X97333330Y-190366668D01*
X97333330Y-189043750D01*
X96010416Y-189043750D01*
X96010416Y-187720832D01*
X94687498Y-187720832D01*
X93364580Y-187720832D01*
X93364580Y-186397918D01*
X93364580Y-185075000D01*
X94687498Y-185075000D01*
X94687498Y-186397918D01*
X96010416Y-186397918D01*
X96010416Y-185075000D01*
X94687498Y-185075000D01*
X93364580Y-185075000D01*
X92041666Y-185075000D01*
X92041666Y-186397918D01*
X92041666Y-187720832D01*
X90718748Y-187720832D01*
X89395830Y-187720832D01*
X89395830Y-189043750D01*
X89395830Y-190366668D01*
X88072916Y-190366668D01*
X86749998Y-190366668D01*
X85427080Y-190366668D01*
X84104166Y-190366668D01*
X82781248Y-190366668D01*
X82781248Y-189043750D01*
X84104166Y-189043750D01*
X84104166Y-187720832D01*
X85427080Y-187720832D01*
X86749998Y-187720832D01*
X86749998Y-186397918D01*
X88072916Y-186397918D01*
X89395830Y-186397918D01*
X90718748Y-186397918D01*
X90718748Y-185075000D01*
X90718748Y-183752086D01*
X89395830Y-183752086D01*
X89395830Y-185075000D01*
X88072916Y-185075000D01*
X88072916Y-183752086D01*
X88072916Y-182429168D01*
X89395830Y-182429168D01*
X92041666Y-182429168D01*
X92041666Y-183752086D01*
X93364580Y-183752086D01*
X94687498Y-183752086D01*
X96010416Y-183752086D01*
X96010416Y-182429168D01*
X96010416Y-181106250D01*
X96010416Y-179783336D01*
X97333330Y-179783336D01*
X98656248Y-179783336D01*
X99979162Y-179783336D01*
X99979162Y-178460418D01*
X99979162Y-177137500D01*
X98656248Y-177137500D01*
X97333330Y-177137500D01*
X97333330Y-178460418D01*
X97333330Y-179783336D01*
X96010416Y-179783336D01*
X94687498Y-179783336D01*
X93364580Y-179783336D01*
X92041666Y-179783336D01*
X92041666Y-181106250D01*
X92041666Y-182429168D01*
X89395830Y-182429168D01*
X89395830Y-181106250D01*
X90718748Y-181106250D01*
X90718748Y-179783336D01*
X89395830Y-179783336D01*
X89395830Y-178460418D01*
X90718748Y-178460418D01*
X90718748Y-177137500D01*
X89395830Y-177137500D01*
X89395830Y-178460418D01*
X88072916Y-178460418D01*
X88072916Y-177137500D01*
X88072916Y-175814586D01*
X89395830Y-175814586D01*
X90718748Y-175814586D01*
X90718748Y-174491668D01*
X92041666Y-174491668D01*
X92041666Y-175814586D01*
X92041666Y-177137500D01*
X93364580Y-177137500D01*
X93364580Y-178460418D01*
X94687498Y-178460418D01*
X94687498Y-177137500D01*
X94687498Y-175814586D01*
X96010416Y-175814586D01*
X96010416Y-177137500D01*
X97333330Y-177137500D01*
X97333330Y-175814586D01*
X96010416Y-175814586D01*
X96010416Y-174491668D01*
X97333330Y-174491668D01*
X97333330Y-173168750D01*
X97333330Y-171845836D01*
X96010416Y-171845836D01*
X96010416Y-170522918D01*
X97333330Y-170522918D01*
X97333330Y-169200000D01*
X96010416Y-169200000D01*
X96010416Y-167877086D01*
X96010416Y-166554168D01*
X96010416Y-165231252D01*
X97333330Y-165231252D01*
X98656248Y-165231252D01*
X98656248Y-166554168D01*
G37*
G36*
X62937499Y-166554168D02*
G01*
X61614583Y-166554168D01*
X61614583Y-165231252D01*
X62937499Y-165231252D01*
X62937499Y-166554168D01*
G37*
G36*
X102624998Y-175814586D02*
G01*
X101302080Y-175814586D01*
X101302080Y-174491668D01*
X102624998Y-174491668D01*
X102624998Y-175814586D01*
G37*
G36*
X84104166Y-185075000D02*
G01*
X84104166Y-186397918D01*
X82781248Y-186397918D01*
X82781248Y-185075000D01*
X82781248Y-183752086D01*
X84104166Y-183752086D01*
X84104166Y-185075000D01*
G37*
G36*
X102624998Y-162585418D02*
G01*
X101302080Y-162585418D01*
X101302080Y-161262502D01*
X102624998Y-161262502D01*
X102624998Y-162585418D01*
G37*
G36*
X80135416Y-182429168D02*
G01*
X78812498Y-182429168D01*
X78812498Y-183752086D01*
X77489582Y-183752086D01*
X77489582Y-185075000D01*
X76166666Y-185075000D01*
X74843748Y-185075000D01*
X74843748Y-183752086D01*
X74843748Y-182429168D01*
X76166666Y-182429168D01*
X77489582Y-182429168D01*
X77489582Y-181106250D01*
X78812498Y-181106250D01*
X80135416Y-181106250D01*
X80135416Y-182429168D01*
G37*
G36*
X58968750Y-153325002D02*
G01*
X58968750Y-154647920D01*
X58968750Y-155970836D01*
X60291666Y-155970836D01*
X60291666Y-157293752D01*
X58968750Y-157293752D01*
X58968750Y-158616668D01*
X57645833Y-158616668D01*
X57645833Y-159939586D01*
X56322916Y-159939586D01*
X55000000Y-159939586D01*
X55000000Y-161262502D01*
X55000000Y-162585418D01*
X53677083Y-162585418D01*
X53677083Y-161262502D01*
X53677083Y-159939586D01*
X53677083Y-158616668D01*
X55000000Y-158616668D01*
X55000000Y-157293752D01*
X56322916Y-157293752D01*
X57645833Y-157293752D01*
X57645833Y-155970836D01*
X57645833Y-154647920D01*
X56322916Y-154647920D01*
X56322916Y-155970836D01*
X56322916Y-157293752D01*
X55000000Y-157293752D01*
X53677083Y-157293752D01*
X53677083Y-155970836D01*
X55000000Y-155970836D01*
X55000000Y-154647920D01*
X56322916Y-154647920D01*
X56322916Y-153325002D01*
X56322916Y-152002086D01*
X57645833Y-152002086D01*
X58968750Y-152002086D01*
X58968750Y-153325002D01*
G37*
G36*
X62937499Y-182429168D02*
G01*
X62937499Y-183752086D01*
X62937499Y-185075000D01*
X62937499Y-186397918D01*
X62937499Y-187720832D01*
X62937499Y-189043750D01*
X62937499Y-190366668D01*
X61614583Y-190366668D01*
X60291666Y-190366668D01*
X58968750Y-190366668D01*
X57645833Y-190366668D01*
X56322916Y-190366668D01*
X55000000Y-190366668D01*
X53677083Y-190366668D01*
X53677083Y-189043750D01*
X53677083Y-187720832D01*
X53677083Y-186397918D01*
X53677083Y-185075000D01*
X55000000Y-185075000D01*
X55000000Y-186397918D01*
X55000000Y-187720832D01*
X55000000Y-189043750D01*
X61614583Y-189043750D01*
X61614583Y-187720832D01*
X61614583Y-186397918D01*
X61614583Y-185075000D01*
X61614583Y-183752086D01*
X61614583Y-182429168D01*
X60291666Y-182429168D01*
X58968750Y-182429168D01*
X57645833Y-182429168D01*
X56322916Y-182429168D01*
X55000000Y-182429168D01*
X55000000Y-183752086D01*
X55000000Y-185075000D01*
X53677083Y-185075000D01*
X53677083Y-183752086D01*
X53677083Y-182429168D01*
X53677083Y-181106250D01*
X55000000Y-181106250D01*
X56322916Y-181106250D01*
X57645833Y-181106250D01*
X58968750Y-181106250D01*
X60291666Y-181106250D01*
X61614583Y-181106250D01*
X62937499Y-181106250D01*
X62937499Y-182429168D01*
G37*
G36*
X101302080Y-187720832D02*
G01*
X99979162Y-187720832D01*
X99979162Y-186397918D01*
X101302080Y-186397918D01*
X101302080Y-187720832D01*
G37*
G36*
X81458330Y-167877086D02*
G01*
X80135416Y-167877086D01*
X80135416Y-166554168D01*
X81458330Y-166554168D01*
X81458330Y-167877086D01*
G37*
G36*
X74843748Y-157293752D02*
G01*
X73520832Y-157293752D01*
X73520832Y-155970836D01*
X74843748Y-155970836D01*
X74843748Y-157293752D01*
G37*
G36*
X73520832Y-175814586D02*
G01*
X73520832Y-177137500D01*
X72197916Y-177137500D01*
X70874998Y-177137500D01*
X70874998Y-178460418D01*
X69552082Y-178460418D01*
X69552082Y-177137500D01*
X68229166Y-177137500D01*
X68229166Y-178460418D01*
X68229166Y-179783336D01*
X66906250Y-179783336D01*
X66906250Y-178460418D01*
X65583332Y-178460418D01*
X65583332Y-177137500D01*
X66906250Y-177137500D01*
X66906250Y-175814586D01*
X68229166Y-175814586D01*
X69552082Y-175814586D01*
X70874998Y-175814586D01*
X70874998Y-174491668D01*
X72197916Y-174491668D01*
X73520832Y-174491668D01*
X73520832Y-175814586D01*
G37*
G36*
X64260416Y-157293752D02*
G01*
X62937499Y-157293752D01*
X62937499Y-155970836D01*
X64260416Y-155970836D01*
X64260416Y-157293752D01*
G37*
G36*
X92041666Y-144064586D02*
G01*
X90718748Y-144064586D01*
X90718748Y-142741670D01*
X92041666Y-142741670D01*
X92041666Y-144064586D01*
G37*
G36*
X69552082Y-181106250D02*
G01*
X68229166Y-181106250D01*
X68229166Y-179783336D01*
X69552082Y-179783336D01*
X69552082Y-181106250D01*
G37*
G36*
X102624998Y-185075000D02*
G01*
X101302080Y-185075000D01*
X101302080Y-183752086D01*
X102624998Y-183752086D01*
X102624998Y-185075000D01*
G37*
G36*
X84104166Y-145387503D02*
G01*
X82781248Y-145387503D01*
X82781248Y-144064586D01*
X84104166Y-144064586D01*
X84104166Y-145387503D01*
G37*
G36*
X102624998Y-173168750D02*
G01*
X101302080Y-173168750D01*
X101302080Y-171845836D01*
X102624998Y-171845836D01*
X102624998Y-173168750D01*
G37*
G36*
X55000000Y-173168750D02*
G01*
X53677083Y-173168750D01*
X53677083Y-171845836D01*
X55000000Y-171845836D01*
X55000000Y-173168750D01*
G37*
G36*
X55000000Y-169200000D02*
G01*
X55000000Y-170522918D01*
X53677083Y-170522918D01*
X53677083Y-169200000D01*
X53677083Y-167877086D01*
X55000000Y-167877086D01*
X55000000Y-169200000D01*
G37*
G36*
X62937499Y-158616668D02*
G01*
X61614583Y-158616668D01*
X60291666Y-158616668D01*
X60291666Y-157293752D01*
X61614583Y-157293752D01*
X62937499Y-157293752D01*
X62937499Y-158616668D01*
G37*
D12*
X63806028Y-103349999D02*
X62306028Y-103349999D01*
X101835712Y-91448885D02*
X101764284Y-91377457D01*
X101764284Y-91377457D02*
X101621427Y-91306028D01*
X101621427Y-91306028D02*
X101264284Y-91306028D01*
X101264284Y-91306028D02*
X101121427Y-91377457D01*
X101121427Y-91377457D02*
X101049998Y-91448885D01*
X101049998Y-91448885D02*
X100978569Y-91591742D01*
X100978569Y-91591742D02*
X100978569Y-91734600D01*
X100978569Y-91734600D02*
X101049998Y-91948885D01*
X101049998Y-91948885D02*
X101907141Y-92806028D01*
X101907141Y-92806028D02*
X100978569Y-92806028D01*
X100049998Y-91306028D02*
X99907141Y-91306028D01*
X99907141Y-91306028D02*
X99764284Y-91377457D01*
X99764284Y-91377457D02*
X99692856Y-91448885D01*
X99692856Y-91448885D02*
X99621427Y-91591742D01*
X99621427Y-91591742D02*
X99549998Y-91877457D01*
X99549998Y-91877457D02*
X99549998Y-92234600D01*
X99549998Y-92234600D02*
X99621427Y-92520314D01*
X99621427Y-92520314D02*
X99692856Y-92663171D01*
X99692856Y-92663171D02*
X99764284Y-92734600D01*
X99764284Y-92734600D02*
X99907141Y-92806028D01*
X99907141Y-92806028D02*
X100049998Y-92806028D01*
X100049998Y-92806028D02*
X100192856Y-92734600D01*
X100192856Y-92734600D02*
X100264284Y-92663171D01*
X100264284Y-92663171D02*
X100335713Y-92520314D01*
X100335713Y-92520314D02*
X100407141Y-92234600D01*
X100407141Y-92234600D02*
X100407141Y-91877457D01*
X100407141Y-91877457D02*
X100335713Y-91591742D01*
X100335713Y-91591742D02*
X100264284Y-91448885D01*
X100264284Y-91448885D02*
X100192856Y-91377457D01*
X100192856Y-91377457D02*
X100049998Y-91306028D01*
X98978570Y-91448885D02*
X98907142Y-91377457D01*
X98907142Y-91377457D02*
X98764285Y-91306028D01*
X98764285Y-91306028D02*
X98407142Y-91306028D01*
X98407142Y-91306028D02*
X98264285Y-91377457D01*
X98264285Y-91377457D02*
X98192856Y-91448885D01*
X98192856Y-91448885D02*
X98121427Y-91591742D01*
X98121427Y-91591742D02*
X98121427Y-91734600D01*
X98121427Y-91734600D02*
X98192856Y-91948885D01*
X98192856Y-91948885D02*
X99049999Y-92806028D01*
X99049999Y-92806028D02*
X98121427Y-92806028D01*
X96764285Y-91306028D02*
X97478571Y-91306028D01*
X97478571Y-91306028D02*
X97549999Y-92020314D01*
X97549999Y-92020314D02*
X97478571Y-91948885D01*
X97478571Y-91948885D02*
X97335714Y-91877457D01*
X97335714Y-91877457D02*
X96978571Y-91877457D01*
X96978571Y-91877457D02*
X96835714Y-91948885D01*
X96835714Y-91948885D02*
X96764285Y-92020314D01*
X96764285Y-92020314D02*
X96692856Y-92163171D01*
X96692856Y-92163171D02*
X96692856Y-92520314D01*
X96692856Y-92520314D02*
X96764285Y-92663171D01*
X96764285Y-92663171D02*
X96835714Y-92734600D01*
X96835714Y-92734600D02*
X96978571Y-92806028D01*
X96978571Y-92806028D02*
X97335714Y-92806028D01*
X97335714Y-92806028D02*
X97478571Y-92734600D01*
X97478571Y-92734600D02*
X97549999Y-92663171D01*
X96050000Y-92234600D02*
X94907143Y-92234600D01*
X93907142Y-91306028D02*
X93764285Y-91306028D01*
X93764285Y-91306028D02*
X93621428Y-91377457D01*
X93621428Y-91377457D02*
X93550000Y-91448885D01*
X93550000Y-91448885D02*
X93478571Y-91591742D01*
X93478571Y-91591742D02*
X93407142Y-91877457D01*
X93407142Y-91877457D02*
X93407142Y-92234600D01*
X93407142Y-92234600D02*
X93478571Y-92520314D01*
X93478571Y-92520314D02*
X93550000Y-92663171D01*
X93550000Y-92663171D02*
X93621428Y-92734600D01*
X93621428Y-92734600D02*
X93764285Y-92806028D01*
X93764285Y-92806028D02*
X93907142Y-92806028D01*
X93907142Y-92806028D02*
X94050000Y-92734600D01*
X94050000Y-92734600D02*
X94121428Y-92663171D01*
X94121428Y-92663171D02*
X94192857Y-92520314D01*
X94192857Y-92520314D02*
X94264285Y-92234600D01*
X94264285Y-92234600D02*
X94264285Y-91877457D01*
X94264285Y-91877457D02*
X94192857Y-91591742D01*
X94192857Y-91591742D02*
X94121428Y-91448885D01*
X94121428Y-91448885D02*
X94050000Y-91377457D01*
X94050000Y-91377457D02*
X93907142Y-91306028D01*
X92835714Y-91448885D02*
X92764286Y-91377457D01*
X92764286Y-91377457D02*
X92621429Y-91306028D01*
X92621429Y-91306028D02*
X92264286Y-91306028D01*
X92264286Y-91306028D02*
X92121429Y-91377457D01*
X92121429Y-91377457D02*
X92050000Y-91448885D01*
X92050000Y-91448885D02*
X91978571Y-91591742D01*
X91978571Y-91591742D02*
X91978571Y-91734600D01*
X91978571Y-91734600D02*
X92050000Y-91948885D01*
X92050000Y-91948885D02*
X92907143Y-92806028D01*
X92907143Y-92806028D02*
X91978571Y-92806028D01*
X91335715Y-92234600D02*
X90192858Y-92234600D01*
X89192857Y-91306028D02*
X89050000Y-91306028D01*
X89050000Y-91306028D02*
X88907143Y-91377457D01*
X88907143Y-91377457D02*
X88835715Y-91448885D01*
X88835715Y-91448885D02*
X88764286Y-91591742D01*
X88764286Y-91591742D02*
X88692857Y-91877457D01*
X88692857Y-91877457D02*
X88692857Y-92234600D01*
X88692857Y-92234600D02*
X88764286Y-92520314D01*
X88764286Y-92520314D02*
X88835715Y-92663171D01*
X88835715Y-92663171D02*
X88907143Y-92734600D01*
X88907143Y-92734600D02*
X89050000Y-92806028D01*
X89050000Y-92806028D02*
X89192857Y-92806028D01*
X89192857Y-92806028D02*
X89335715Y-92734600D01*
X89335715Y-92734600D02*
X89407143Y-92663171D01*
X89407143Y-92663171D02*
X89478572Y-92520314D01*
X89478572Y-92520314D02*
X89550000Y-92234600D01*
X89550000Y-92234600D02*
X89550000Y-91877457D01*
X89550000Y-91877457D02*
X89478572Y-91591742D01*
X89478572Y-91591742D02*
X89407143Y-91448885D01*
X89407143Y-91448885D02*
X89335715Y-91377457D01*
X89335715Y-91377457D02*
X89192857Y-91306028D01*
X87407144Y-91306028D02*
X87692858Y-91306028D01*
X87692858Y-91306028D02*
X87835715Y-91377457D01*
X87835715Y-91377457D02*
X87907144Y-91448885D01*
X87907144Y-91448885D02*
X88050001Y-91663171D01*
X88050001Y-91663171D02*
X88121429Y-91948885D01*
X88121429Y-91948885D02*
X88121429Y-92520314D01*
X88121429Y-92520314D02*
X88050001Y-92663171D01*
X88050001Y-92663171D02*
X87978572Y-92734600D01*
X87978572Y-92734600D02*
X87835715Y-92806028D01*
X87835715Y-92806028D02*
X87550001Y-92806028D01*
X87550001Y-92806028D02*
X87407144Y-92734600D01*
X87407144Y-92734600D02*
X87335715Y-92663171D01*
X87335715Y-92663171D02*
X87264286Y-92520314D01*
X87264286Y-92520314D02*
X87264286Y-92163171D01*
X87264286Y-92163171D02*
X87335715Y-92020314D01*
X87335715Y-92020314D02*
X87407144Y-91948885D01*
X87407144Y-91948885D02*
X87550001Y-91877457D01*
X87550001Y-91877457D02*
X87835715Y-91877457D01*
X87835715Y-91877457D02*
X87978572Y-91948885D01*
X87978572Y-91948885D02*
X88050001Y-92020314D01*
X88050001Y-92020314D02*
X88121429Y-92163171D01*
D13*
X100207142Y-89481325D02*
X100207142Y-87081325D01*
X100207142Y-88224182D02*
X98835713Y-88224182D01*
X98835713Y-89481325D02*
X98835713Y-87081325D01*
X97692856Y-89481325D02*
X97692856Y-87081325D01*
X97692856Y-87081325D02*
X96778570Y-87081325D01*
X96778570Y-87081325D02*
X96549999Y-87195611D01*
X96549999Y-87195611D02*
X96435713Y-87309897D01*
X96435713Y-87309897D02*
X96321427Y-87538468D01*
X96321427Y-87538468D02*
X96321427Y-87881325D01*
X96321427Y-87881325D02*
X96435713Y-88109897D01*
X96435713Y-88109897D02*
X96549999Y-88224182D01*
X96549999Y-88224182D02*
X96778570Y-88338468D01*
X96778570Y-88338468D02*
X97692856Y-88338468D01*
X95635713Y-87081325D02*
X94264285Y-87081325D01*
X94949999Y-89481325D02*
X94949999Y-87081325D01*
X93464285Y-88567040D02*
X91635714Y-88567040D01*
X89349999Y-89481325D02*
X90492856Y-89481325D01*
X90492856Y-89481325D02*
X90492856Y-87081325D01*
D14*
G36*
X92877945Y-83780909D02*
G01*
X92928571Y-83882159D01*
X92928571Y-83975334D01*
X92301802Y-83849980D01*
X92336338Y-83780909D01*
X92437588Y-83730285D01*
X92776696Y-83730285D01*
X92877945Y-83780909D01*
G37*
G36*
X99087622Y-83800033D02*
G01*
X99144536Y-83856947D01*
X99214286Y-83996445D01*
X99214286Y-84564125D01*
X99144537Y-84703623D01*
X99087623Y-84760536D01*
X98948126Y-84830285D01*
X98723303Y-84830285D01*
X98583803Y-84760535D01*
X98526894Y-84703626D01*
X98457143Y-84564124D01*
X98457143Y-83996445D01*
X98526892Y-83856946D01*
X98583803Y-83800034D01*
X98723303Y-83730285D01*
X98948125Y-83730285D01*
X99087622Y-83800033D01*
G37*
G36*
X102380953Y-85596952D02*
G01*
X87404760Y-85596952D01*
X87404760Y-84623142D01*
X87671427Y-84623142D01*
X87671427Y-84737428D01*
X87676231Y-84786201D01*
X87679668Y-84794499D01*
X87680305Y-84803459D01*
X87697820Y-84849231D01*
X87812106Y-85077803D01*
X87817240Y-85085959D01*
X87818523Y-85089807D01*
X87822679Y-85094599D01*
X87838215Y-85119279D01*
X87861895Y-85139817D01*
X87882434Y-85163498D01*
X87907113Y-85179033D01*
X87911906Y-85183190D01*
X87915753Y-85184472D01*
X87923910Y-85189607D01*
X88152481Y-85303892D01*
X88198253Y-85321407D01*
X88207212Y-85322043D01*
X88215511Y-85325481D01*
X88264284Y-85330285D01*
X88721427Y-85330285D01*
X88770200Y-85325481D01*
X88778498Y-85322043D01*
X88787457Y-85321407D01*
X88833230Y-85303892D01*
X89061802Y-85189607D01*
X89103277Y-85163498D01*
X89167189Y-85089808D01*
X89198036Y-84997270D01*
X89191121Y-84899970D01*
X89147498Y-84812722D01*
X89073807Y-84748810D01*
X88981269Y-84717963D01*
X88883969Y-84724878D01*
X88838197Y-84742393D01*
X88662411Y-84830285D01*
X88323301Y-84830285D01*
X88222052Y-84779661D01*
X88172364Y-84680285D01*
X88222051Y-84580910D01*
X88323301Y-84530285D01*
X88607142Y-84530285D01*
X88655915Y-84525481D01*
X88664213Y-84522043D01*
X88673173Y-84521407D01*
X88718945Y-84503892D01*
X88947516Y-84389607D01*
X88955669Y-84384474D01*
X88959520Y-84383191D01*
X88964315Y-84379031D01*
X88988992Y-84363498D01*
X89009528Y-84339818D01*
X89033211Y-84319279D01*
X89048746Y-84294599D01*
X89052903Y-84289807D01*
X89054185Y-84285959D01*
X89059320Y-84277803D01*
X89173606Y-84049232D01*
X89191121Y-84003459D01*
X89191757Y-83994499D01*
X89195195Y-83986201D01*
X89199999Y-83937428D01*
X89199999Y-83823142D01*
X89728571Y-83823142D01*
X89728571Y-85080285D01*
X89733375Y-85129058D01*
X89770704Y-85219178D01*
X89839678Y-85288152D01*
X89929798Y-85325481D01*
X90027344Y-85325481D01*
X90117464Y-85288152D01*
X90186438Y-85219178D01*
X90223767Y-85129058D01*
X90228571Y-85080285D01*
X90228571Y-83882158D01*
X90279195Y-83780909D01*
X90380445Y-83730285D01*
X90605267Y-83730285D01*
X90744764Y-83800033D01*
X90757142Y-83812411D01*
X90757142Y-85080285D01*
X90761946Y-85129058D01*
X90799275Y-85219178D01*
X90868249Y-85288152D01*
X90958369Y-85325481D01*
X91055915Y-85325481D01*
X91146035Y-85288152D01*
X91215009Y-85219178D01*
X91252338Y-85129058D01*
X91257142Y-85080285D01*
X91257142Y-83823142D01*
X91785714Y-83823142D01*
X91785714Y-84051714D01*
X91790518Y-84100487D01*
X91799891Y-84123116D01*
X91804645Y-84147144D01*
X91818374Y-84167738D01*
X91827847Y-84190607D01*
X91845166Y-84207926D01*
X91858752Y-84228305D01*
X91879317Y-84242077D01*
X91896821Y-84259581D01*
X91919450Y-84268954D01*
X91939801Y-84282583D01*
X91986685Y-84296859D01*
X92928571Y-84485235D01*
X92928571Y-84678411D01*
X92877946Y-84779660D01*
X92776697Y-84830285D01*
X92437588Y-84830285D01*
X92261802Y-84742393D01*
X92216029Y-84724878D01*
X92118729Y-84717963D01*
X92026191Y-84748810D01*
X91952500Y-84812722D01*
X91908877Y-84899970D01*
X91901962Y-84997270D01*
X91932809Y-85089808D01*
X91996721Y-85163499D01*
X92038196Y-85189607D01*
X92266769Y-85303892D01*
X92312541Y-85321407D01*
X92321499Y-85322043D01*
X92329798Y-85325481D01*
X92378571Y-85330285D01*
X92835714Y-85330285D01*
X92884487Y-85325481D01*
X92892785Y-85322043D01*
X92901745Y-85321407D01*
X92947517Y-85303892D01*
X93176088Y-85189607D01*
X93184241Y-85184474D01*
X93188092Y-85183191D01*
X93192887Y-85179031D01*
X93217564Y-85163498D01*
X93238100Y-85139818D01*
X93261783Y-85119279D01*
X93277318Y-85094599D01*
X93281475Y-85089807D01*
X93282757Y-85085959D01*
X93287892Y-85077803D01*
X93402178Y-84849232D01*
X93419693Y-84803459D01*
X93420329Y-84794499D01*
X93423767Y-84786201D01*
X93428571Y-84737428D01*
X93428571Y-84623142D01*
X93842856Y-84623142D01*
X93842856Y-84737428D01*
X93847660Y-84786201D01*
X93851097Y-84794499D01*
X93851734Y-84803459D01*
X93869249Y-84849231D01*
X93983535Y-85077803D01*
X93988669Y-85085959D01*
X93989952Y-85089807D01*
X93994108Y-85094599D01*
X94009644Y-85119279D01*
X94033324Y-85139817D01*
X94053863Y-85163498D01*
X94078542Y-85179033D01*
X94083335Y-85183190D01*
X94087182Y-85184472D01*
X94095339Y-85189607D01*
X94323910Y-85303892D01*
X94369682Y-85321407D01*
X94378641Y-85322043D01*
X94386940Y-85325481D01*
X94435713Y-85330285D01*
X94892856Y-85330285D01*
X94941629Y-85325481D01*
X94949927Y-85322043D01*
X94958886Y-85321407D01*
X95004659Y-85303892D01*
X95233231Y-85189607D01*
X95274706Y-85163498D01*
X95338618Y-85089808D01*
X95369465Y-84997270D01*
X95362550Y-84899970D01*
X95318927Y-84812722D01*
X95245236Y-84748810D01*
X95152698Y-84717963D01*
X95055398Y-84724878D01*
X95009626Y-84742393D01*
X94833840Y-84830285D01*
X94494730Y-84830285D01*
X94393481Y-84779661D01*
X94343793Y-84680285D01*
X94393480Y-84580910D01*
X94494730Y-84530285D01*
X94778571Y-84530285D01*
X94827344Y-84525481D01*
X94835642Y-84522043D01*
X94844602Y-84521407D01*
X94890374Y-84503892D01*
X95118945Y-84389607D01*
X95127098Y-84384474D01*
X95130949Y-84383191D01*
X95135744Y-84379031D01*
X95160421Y-84363498D01*
X95180957Y-84339818D01*
X95204640Y-84319279D01*
X95220175Y-84294599D01*
X95224332Y-84289807D01*
X95225614Y-84285959D01*
X95230749Y-84277803D01*
X95345035Y-84049232D01*
X95362550Y-84003459D01*
X95363186Y-83994499D01*
X95366624Y-83986201D01*
X95371428Y-83937428D01*
X95371428Y-83823142D01*
X95366624Y-83774369D01*
X95363186Y-83766070D01*
X95362550Y-83757110D01*
X95345034Y-83711338D01*
X95230749Y-83482767D01*
X95229186Y-83480285D01*
X95900000Y-83480285D01*
X95900000Y-85080285D01*
X95904804Y-85129058D01*
X95942133Y-85219178D01*
X96011107Y-85288152D01*
X96101227Y-85325481D01*
X96198773Y-85325481D01*
X96288893Y-85288152D01*
X96309120Y-85267924D01*
X96381055Y-85303892D01*
X96426827Y-85321407D01*
X96435785Y-85322043D01*
X96444084Y-85325481D01*
X96492857Y-85330285D01*
X96835714Y-85330285D01*
X96884487Y-85325481D01*
X96892785Y-85322043D01*
X96901745Y-85321407D01*
X96947517Y-85303892D01*
X97176088Y-85189607D01*
X97184241Y-85184474D01*
X97188092Y-85183191D01*
X97192887Y-85179031D01*
X97217564Y-85163498D01*
X97238100Y-85139818D01*
X97261783Y-85119279D01*
X97277318Y-85094599D01*
X97281475Y-85089807D01*
X97282757Y-85085959D01*
X97287892Y-85077803D01*
X97402178Y-84849232D01*
X97419693Y-84803459D01*
X97420329Y-84794499D01*
X97423767Y-84786201D01*
X97428571Y-84737428D01*
X97428571Y-83937428D01*
X97957143Y-83937428D01*
X97957143Y-84623142D01*
X97961947Y-84671915D01*
X97965384Y-84680213D01*
X97966021Y-84689173D01*
X97983536Y-84734945D01*
X98097822Y-84963517D01*
X98111035Y-84984506D01*
X98113561Y-84990605D01*
X98119196Y-84997472D01*
X98123931Y-85004993D01*
X98128918Y-85009318D01*
X98144652Y-85028490D01*
X98258936Y-85142776D01*
X98278111Y-85158512D01*
X98282436Y-85163499D01*
X98289954Y-85168231D01*
X98296821Y-85173867D01*
X98302919Y-85176393D01*
X98323911Y-85189607D01*
X98552484Y-85303892D01*
X98598256Y-85321407D01*
X98607214Y-85322043D01*
X98615513Y-85325481D01*
X98664286Y-85330285D01*
X99007143Y-85330285D01*
X99055916Y-85325481D01*
X99064214Y-85322043D01*
X99073174Y-85321407D01*
X99118946Y-85303892D01*
X99347517Y-85189607D01*
X99368509Y-85176392D01*
X99374606Y-85173867D01*
X99381472Y-85168232D01*
X99388993Y-85163498D01*
X99393318Y-85158511D01*
X99412491Y-85142777D01*
X99526777Y-85028491D01*
X99542512Y-85009316D01*
X99547498Y-85004993D01*
X99552229Y-84997476D01*
X99557868Y-84990606D01*
X99560394Y-84984505D01*
X99573607Y-84963517D01*
X99687893Y-84734946D01*
X99705408Y-84689173D01*
X99706044Y-84680213D01*
X99709482Y-84671915D01*
X99714286Y-84623142D01*
X99714286Y-83937428D01*
X99709482Y-83888655D01*
X99706044Y-83880356D01*
X99705408Y-83871396D01*
X99687892Y-83825624D01*
X99573607Y-83597053D01*
X99560394Y-83576064D01*
X99557868Y-83569965D01*
X99552230Y-83563095D01*
X99547498Y-83555578D01*
X99542512Y-83551254D01*
X99526777Y-83532080D01*
X99412491Y-83417794D01*
X99393318Y-83402060D01*
X99388993Y-83397073D01*
X99381472Y-83392338D01*
X99374606Y-83386704D01*
X99368509Y-83384178D01*
X99347517Y-83370964D01*
X99118947Y-83256678D01*
X99073175Y-83239163D01*
X99064214Y-83238526D01*
X99055916Y-83235089D01*
X99007143Y-83230285D01*
X98664286Y-83230285D01*
X98615513Y-83235089D01*
X98607214Y-83238526D01*
X98598255Y-83239163D01*
X98552482Y-83256678D01*
X98323911Y-83370964D01*
X98302920Y-83384177D01*
X98296821Y-83386704D01*
X98289952Y-83392340D01*
X98282435Y-83397073D01*
X98278110Y-83402058D01*
X98258936Y-83417795D01*
X98144652Y-83532081D01*
X98128919Y-83551251D01*
X98123931Y-83555578D01*
X98119196Y-83563098D01*
X98113561Y-83569966D01*
X98111035Y-83576064D01*
X98097822Y-83597054D01*
X97983536Y-83825624D01*
X97966021Y-83871396D01*
X97965384Y-83880356D01*
X97961947Y-83888655D01*
X97957143Y-83937428D01*
X97428571Y-83937428D01*
X97428571Y-83480285D01*
X97423767Y-83431512D01*
X97386438Y-83341392D01*
X97317464Y-83272418D01*
X97227344Y-83235089D01*
X97129798Y-83235089D01*
X97039678Y-83272418D01*
X96970704Y-83341392D01*
X96933375Y-83431512D01*
X96928571Y-83480285D01*
X96928571Y-84678411D01*
X96877946Y-84779660D01*
X96776697Y-84830285D01*
X96551874Y-84830285D01*
X96412374Y-84760535D01*
X96400000Y-84748161D01*
X96400000Y-83480285D01*
X96395196Y-83431512D01*
X96357867Y-83341392D01*
X96288893Y-83272418D01*
X96198773Y-83235089D01*
X96101227Y-83235089D01*
X96011107Y-83272418D01*
X95942133Y-83341392D01*
X95904804Y-83431512D01*
X95900000Y-83480285D01*
X95229186Y-83480285D01*
X95225615Y-83474612D01*
X95224333Y-83470764D01*
X95220174Y-83465969D01*
X95204640Y-83441292D01*
X95180959Y-83420753D01*
X95160421Y-83397073D01*
X95135744Y-83381539D01*
X95130949Y-83377380D01*
X95127098Y-83376096D01*
X95118945Y-83370964D01*
X94890375Y-83256678D01*
X94844603Y-83239163D01*
X94835642Y-83238526D01*
X94827344Y-83235089D01*
X94778571Y-83230285D01*
X94435713Y-83230285D01*
X94386940Y-83235089D01*
X94378641Y-83238526D01*
X94369681Y-83239163D01*
X94323909Y-83256679D01*
X94095338Y-83370964D01*
X94053863Y-83397073D01*
X93989951Y-83470764D01*
X93959105Y-83563303D01*
X93966020Y-83660603D01*
X94009644Y-83747850D01*
X94083335Y-83811762D01*
X94175874Y-83842608D01*
X94273174Y-83835693D01*
X94318946Y-83818178D01*
X94494730Y-83730285D01*
X94719553Y-83730285D01*
X94820802Y-83780909D01*
X94870490Y-83880285D01*
X94820803Y-83979660D01*
X94719554Y-84030285D01*
X94435713Y-84030285D01*
X94386940Y-84035089D01*
X94378641Y-84038526D01*
X94369681Y-84039163D01*
X94323909Y-84056679D01*
X94095338Y-84170964D01*
X94087183Y-84176097D01*
X94083335Y-84177380D01*
X94078540Y-84181538D01*
X94053863Y-84197073D01*
X94033324Y-84220753D01*
X94009644Y-84241292D01*
X93994110Y-84265968D01*
X93989951Y-84270764D01*
X93988667Y-84274614D01*
X93983535Y-84282768D01*
X93869249Y-84511338D01*
X93851734Y-84557110D01*
X93851097Y-84566070D01*
X93847660Y-84574369D01*
X93842856Y-84623142D01*
X93428571Y-84623142D01*
X93428571Y-83823142D01*
X93423767Y-83774369D01*
X93420329Y-83766070D01*
X93419693Y-83757110D01*
X93402177Y-83711338D01*
X93287892Y-83482767D01*
X93282758Y-83474612D01*
X93281476Y-83470764D01*
X93277317Y-83465969D01*
X93261783Y-83441292D01*
X93238102Y-83420753D01*
X93217564Y-83397073D01*
X93192887Y-83381539D01*
X93188092Y-83377380D01*
X93184241Y-83376096D01*
X93176088Y-83370964D01*
X92947518Y-83256678D01*
X92901746Y-83239163D01*
X92892785Y-83238526D01*
X92884487Y-83235089D01*
X92835714Y-83230285D01*
X92378571Y-83230285D01*
X92329798Y-83235089D01*
X92321499Y-83238526D01*
X92312540Y-83239163D01*
X92266767Y-83256678D01*
X92038196Y-83370964D01*
X92030039Y-83376098D01*
X92026192Y-83377381D01*
X92021399Y-83381537D01*
X91996720Y-83397073D01*
X91976180Y-83420755D01*
X91952501Y-83441292D01*
X91936967Y-83465968D01*
X91932808Y-83470764D01*
X91931524Y-83474614D01*
X91926392Y-83482768D01*
X91812107Y-83711339D01*
X91794592Y-83757111D01*
X91793955Y-83766070D01*
X91790518Y-83774369D01*
X91785714Y-83823142D01*
X91257142Y-83823142D01*
X91257142Y-83480285D01*
X91252338Y-83431512D01*
X91215009Y-83341392D01*
X91146035Y-83272418D01*
X91055915Y-83235089D01*
X90958369Y-83235089D01*
X90868249Y-83272418D01*
X90848022Y-83292644D01*
X90776089Y-83256678D01*
X90730317Y-83239163D01*
X90721356Y-83238526D01*
X90713058Y-83235089D01*
X90664285Y-83230285D01*
X90321428Y-83230285D01*
X90272655Y-83235089D01*
X90264356Y-83238526D01*
X90255397Y-83239163D01*
X90209624Y-83256678D01*
X89981053Y-83370964D01*
X89972896Y-83376098D01*
X89969049Y-83377381D01*
X89964256Y-83381537D01*
X89939577Y-83397073D01*
X89919037Y-83420755D01*
X89895358Y-83441292D01*
X89879824Y-83465968D01*
X89875665Y-83470764D01*
X89874381Y-83474614D01*
X89869249Y-83482768D01*
X89754964Y-83711339D01*
X89737449Y-83757111D01*
X89736812Y-83766070D01*
X89733375Y-83774369D01*
X89728571Y-83823142D01*
X89199999Y-83823142D01*
X89195195Y-83774369D01*
X89191757Y-83766070D01*
X89191121Y-83757110D01*
X89173605Y-83711338D01*
X89059320Y-83482767D01*
X89054186Y-83474612D01*
X89052904Y-83470764D01*
X89048745Y-83465969D01*
X89033211Y-83441292D01*
X89009530Y-83420753D01*
X88988992Y-83397073D01*
X88964315Y-83381539D01*
X88959520Y-83377380D01*
X88955669Y-83376096D01*
X88947516Y-83370964D01*
X88718946Y-83256678D01*
X88673174Y-83239163D01*
X88664213Y-83238526D01*
X88655915Y-83235089D01*
X88607142Y-83230285D01*
X88264284Y-83230285D01*
X88215511Y-83235089D01*
X88207212Y-83238526D01*
X88198252Y-83239163D01*
X88152480Y-83256679D01*
X87923909Y-83370964D01*
X87882434Y-83397073D01*
X87818522Y-83470764D01*
X87787676Y-83563303D01*
X87794591Y-83660603D01*
X87838215Y-83747850D01*
X87911906Y-83811762D01*
X88004445Y-83842608D01*
X88101745Y-83835693D01*
X88147517Y-83818178D01*
X88323301Y-83730285D01*
X88548124Y-83730285D01*
X88649373Y-83780909D01*
X88699061Y-83880285D01*
X88649374Y-83979660D01*
X88548125Y-84030285D01*
X88264284Y-84030285D01*
X88215511Y-84035089D01*
X88207212Y-84038526D01*
X88198252Y-84039163D01*
X88152480Y-84056679D01*
X87923909Y-84170964D01*
X87915754Y-84176097D01*
X87911906Y-84177380D01*
X87907111Y-84181538D01*
X87882434Y-84197073D01*
X87861895Y-84220753D01*
X87838215Y-84241292D01*
X87822681Y-84265968D01*
X87818522Y-84270764D01*
X87817238Y-84274614D01*
X87812106Y-84282768D01*
X87697820Y-84511338D01*
X87680305Y-84557110D01*
X87679668Y-84566070D01*
X87676231Y-84574369D01*
X87671427Y-84623142D01*
X87404760Y-84623142D01*
X87404760Y-82680285D01*
X100242857Y-82680285D01*
X100242857Y-85080285D01*
X100247661Y-85129058D01*
X100284990Y-85219178D01*
X100353964Y-85288152D01*
X100444084Y-85325481D01*
X100541630Y-85325481D01*
X100631750Y-85288152D01*
X100700724Y-85219178D01*
X100738053Y-85129058D01*
X100742857Y-85080285D01*
X100742857Y-84073142D01*
X101614286Y-84073142D01*
X101614286Y-85080285D01*
X101619090Y-85129058D01*
X101656419Y-85219178D01*
X101725393Y-85288152D01*
X101815513Y-85325481D01*
X101913059Y-85325481D01*
X102003179Y-85288152D01*
X102072153Y-85219178D01*
X102109482Y-85129058D01*
X102114286Y-85080285D01*
X102114286Y-82680285D01*
X102109482Y-82631512D01*
X102072153Y-82541392D01*
X102003179Y-82472418D01*
X101913059Y-82435089D01*
X101815513Y-82435089D01*
X101725393Y-82472418D01*
X101656419Y-82541392D01*
X101619090Y-82631512D01*
X101614286Y-82680285D01*
X101614286Y-83573142D01*
X100742857Y-83573142D01*
X100742857Y-82680285D01*
X100738053Y-82631512D01*
X100700724Y-82541392D01*
X100631750Y-82472418D01*
X100541630Y-82435089D01*
X100444084Y-82435089D01*
X100353964Y-82472418D01*
X100284990Y-82541392D01*
X100247661Y-82631512D01*
X100242857Y-82680285D01*
X87404760Y-82680285D01*
X87404760Y-82168422D01*
X102380953Y-82168422D01*
X102380953Y-85596952D01*
G37*
D12*
X101968422Y-123778876D02*
X101968422Y-124750305D01*
X101968422Y-124750305D02*
X102025564Y-124864591D01*
X102025564Y-124864591D02*
X102082707Y-124921734D01*
X102082707Y-124921734D02*
X102196993Y-124978876D01*
X102196993Y-124978876D02*
X102368422Y-124978876D01*
X102368422Y-124978876D02*
X102482707Y-124921734D01*
X101968422Y-124521734D02*
X102082707Y-124578876D01*
X102082707Y-124578876D02*
X102311279Y-124578876D01*
X102311279Y-124578876D02*
X102425564Y-124521734D01*
X102425564Y-124521734D02*
X102482707Y-124464591D01*
X102482707Y-124464591D02*
X102539850Y-124350305D01*
X102539850Y-124350305D02*
X102539850Y-124007448D01*
X102539850Y-124007448D02*
X102482707Y-123893162D01*
X102482707Y-123893162D02*
X102425564Y-123836019D01*
X102425564Y-123836019D02*
X102311279Y-123778876D01*
X102311279Y-123778876D02*
X102082707Y-123778876D01*
X102082707Y-123778876D02*
X101968422Y-123836019D01*
X101396993Y-124578876D02*
X101396993Y-123778876D01*
X101396993Y-123378876D02*
X101454136Y-123436019D01*
X101454136Y-123436019D02*
X101396993Y-123493162D01*
X101396993Y-123493162D02*
X101339850Y-123436019D01*
X101339850Y-123436019D02*
X101396993Y-123378876D01*
X101396993Y-123378876D02*
X101396993Y-123493162D01*
X100996993Y-123778876D02*
X100539850Y-123778876D01*
X100825564Y-123378876D02*
X100825564Y-124407448D01*
X100825564Y-124407448D02*
X100768421Y-124521734D01*
X100768421Y-124521734D02*
X100654136Y-124578876D01*
X100654136Y-124578876D02*
X100539850Y-124578876D01*
X100139850Y-124578876D02*
X100139850Y-123378876D01*
X99625565Y-124578876D02*
X99625565Y-123950305D01*
X99625565Y-123950305D02*
X99682707Y-123836019D01*
X99682707Y-123836019D02*
X99796993Y-123778876D01*
X99796993Y-123778876D02*
X99968422Y-123778876D01*
X99968422Y-123778876D02*
X100082707Y-123836019D01*
X100082707Y-123836019D02*
X100139850Y-123893162D01*
X98539851Y-123778876D02*
X98539851Y-124578876D01*
X99054136Y-123778876D02*
X99054136Y-124407448D01*
X99054136Y-124407448D02*
X98996993Y-124521734D01*
X98996993Y-124521734D02*
X98882708Y-124578876D01*
X98882708Y-124578876D02*
X98711279Y-124578876D01*
X98711279Y-124578876D02*
X98596993Y-124521734D01*
X98596993Y-124521734D02*
X98539851Y-124464591D01*
X97968422Y-124578876D02*
X97968422Y-123378876D01*
X97968422Y-123836019D02*
X97854137Y-123778876D01*
X97854137Y-123778876D02*
X97625565Y-123778876D01*
X97625565Y-123778876D02*
X97511279Y-123836019D01*
X97511279Y-123836019D02*
X97454137Y-123893162D01*
X97454137Y-123893162D02*
X97396994Y-124007448D01*
X97396994Y-124007448D02*
X97396994Y-124350305D01*
X97396994Y-124350305D02*
X97454137Y-124464591D01*
X97454137Y-124464591D02*
X97511279Y-124521734D01*
X97511279Y-124521734D02*
X97625565Y-124578876D01*
X97625565Y-124578876D02*
X97854137Y-124578876D01*
X97854137Y-124578876D02*
X97968422Y-124521734D01*
X96882708Y-124464591D02*
X96825565Y-124521734D01*
X96825565Y-124521734D02*
X96882708Y-124578876D01*
X96882708Y-124578876D02*
X96939851Y-124521734D01*
X96939851Y-124521734D02*
X96882708Y-124464591D01*
X96882708Y-124464591D02*
X96882708Y-124578876D01*
X96882708Y-123836019D02*
X96825565Y-123893162D01*
X96825565Y-123893162D02*
X96882708Y-123950305D01*
X96882708Y-123950305D02*
X96939851Y-123893162D01*
X96939851Y-123893162D02*
X96882708Y-123836019D01*
X96882708Y-123836019D02*
X96882708Y-123950305D01*
X102482707Y-125710809D02*
X102482707Y-126910809D01*
X102482707Y-125767952D02*
X102368422Y-125710809D01*
X102368422Y-125710809D02*
X102139850Y-125710809D01*
X102139850Y-125710809D02*
X102025564Y-125767952D01*
X102025564Y-125767952D02*
X101968422Y-125825095D01*
X101968422Y-125825095D02*
X101911279Y-125939381D01*
X101911279Y-125939381D02*
X101911279Y-126282238D01*
X101911279Y-126282238D02*
X101968422Y-126396524D01*
X101968422Y-126396524D02*
X102025564Y-126453667D01*
X102025564Y-126453667D02*
X102139850Y-126510809D01*
X102139850Y-126510809D02*
X102368422Y-126510809D01*
X102368422Y-126510809D02*
X102482707Y-126453667D01*
X100882708Y-126510809D02*
X100882708Y-125882238D01*
X100882708Y-125882238D02*
X100939850Y-125767952D01*
X100939850Y-125767952D02*
X101054136Y-125710809D01*
X101054136Y-125710809D02*
X101282708Y-125710809D01*
X101282708Y-125710809D02*
X101396993Y-125767952D01*
X100882708Y-126453667D02*
X100996993Y-126510809D01*
X100996993Y-126510809D02*
X101282708Y-126510809D01*
X101282708Y-126510809D02*
X101396993Y-126453667D01*
X101396993Y-126453667D02*
X101454136Y-126339381D01*
X101454136Y-126339381D02*
X101454136Y-126225095D01*
X101454136Y-126225095D02*
X101396993Y-126110809D01*
X101396993Y-126110809D02*
X101282708Y-126053667D01*
X101282708Y-126053667D02*
X100996993Y-126053667D01*
X100996993Y-126053667D02*
X100882708Y-125996524D01*
X100368422Y-126453667D02*
X100254136Y-126510809D01*
X100254136Y-126510809D02*
X100025565Y-126510809D01*
X100025565Y-126510809D02*
X99911279Y-126453667D01*
X99911279Y-126453667D02*
X99854136Y-126339381D01*
X99854136Y-126339381D02*
X99854136Y-126282238D01*
X99854136Y-126282238D02*
X99911279Y-126167952D01*
X99911279Y-126167952D02*
X100025565Y-126110809D01*
X100025565Y-126110809D02*
X100196994Y-126110809D01*
X100196994Y-126110809D02*
X100311279Y-126053667D01*
X100311279Y-126053667D02*
X100368422Y-125939381D01*
X100368422Y-125939381D02*
X100368422Y-125882238D01*
X100368422Y-125882238D02*
X100311279Y-125767952D01*
X100311279Y-125767952D02*
X100196994Y-125710809D01*
X100196994Y-125710809D02*
X100025565Y-125710809D01*
X100025565Y-125710809D02*
X99911279Y-125767952D01*
X99396993Y-126453667D02*
X99282707Y-126510809D01*
X99282707Y-126510809D02*
X99054136Y-126510809D01*
X99054136Y-126510809D02*
X98939850Y-126453667D01*
X98939850Y-126453667D02*
X98882707Y-126339381D01*
X98882707Y-126339381D02*
X98882707Y-126282238D01*
X98882707Y-126282238D02*
X98939850Y-126167952D01*
X98939850Y-126167952D02*
X99054136Y-126110809D01*
X99054136Y-126110809D02*
X99225565Y-126110809D01*
X99225565Y-126110809D02*
X99339850Y-126053667D01*
X99339850Y-126053667D02*
X99396993Y-125939381D01*
X99396993Y-125939381D02*
X99396993Y-125882238D01*
X99396993Y-125882238D02*
X99339850Y-125767952D01*
X99339850Y-125767952D02*
X99225565Y-125710809D01*
X99225565Y-125710809D02*
X99054136Y-125710809D01*
X99054136Y-125710809D02*
X98939850Y-125767952D01*
X97854136Y-126453667D02*
X97968421Y-126510809D01*
X97968421Y-126510809D02*
X98196993Y-126510809D01*
X98196993Y-126510809D02*
X98311278Y-126453667D01*
X98311278Y-126453667D02*
X98368421Y-126396524D01*
X98368421Y-126396524D02*
X98425564Y-126282238D01*
X98425564Y-126282238D02*
X98425564Y-125939381D01*
X98425564Y-125939381D02*
X98368421Y-125825095D01*
X98368421Y-125825095D02*
X98311278Y-125767952D01*
X98311278Y-125767952D02*
X98196993Y-125710809D01*
X98196993Y-125710809D02*
X97968421Y-125710809D01*
X97968421Y-125710809D02*
X97854136Y-125767952D01*
X97168422Y-126510809D02*
X97282707Y-126453667D01*
X97282707Y-126453667D02*
X97339850Y-126396524D01*
X97339850Y-126396524D02*
X97396993Y-126282238D01*
X97396993Y-126282238D02*
X97396993Y-125939381D01*
X97396993Y-125939381D02*
X97339850Y-125825095D01*
X97339850Y-125825095D02*
X97282707Y-125767952D01*
X97282707Y-125767952D02*
X97168422Y-125710809D01*
X97168422Y-125710809D02*
X96996993Y-125710809D01*
X96996993Y-125710809D02*
X96882707Y-125767952D01*
X96882707Y-125767952D02*
X96825565Y-125825095D01*
X96825565Y-125825095D02*
X96768422Y-125939381D01*
X96768422Y-125939381D02*
X96768422Y-126282238D01*
X96768422Y-126282238D02*
X96825565Y-126396524D01*
X96825565Y-126396524D02*
X96882707Y-126453667D01*
X96882707Y-126453667D02*
X96996993Y-126510809D01*
X96996993Y-126510809D02*
X97168422Y-126510809D01*
X95739851Y-126510809D02*
X95739851Y-125310809D01*
X95739851Y-126453667D02*
X95854136Y-126510809D01*
X95854136Y-126510809D02*
X96082708Y-126510809D01*
X96082708Y-126510809D02*
X96196993Y-126453667D01*
X96196993Y-126453667D02*
X96254136Y-126396524D01*
X96254136Y-126396524D02*
X96311279Y-126282238D01*
X96311279Y-126282238D02*
X96311279Y-125939381D01*
X96311279Y-125939381D02*
X96254136Y-125825095D01*
X96254136Y-125825095D02*
X96196993Y-125767952D01*
X96196993Y-125767952D02*
X96082708Y-125710809D01*
X96082708Y-125710809D02*
X95854136Y-125710809D01*
X95854136Y-125710809D02*
X95739851Y-125767952D01*
X94311279Y-125253667D02*
X95339851Y-126796524D01*
X102482707Y-128442742D02*
X102482707Y-127242742D01*
X102482707Y-127814171D02*
X101796993Y-127814171D01*
X101796993Y-128442742D02*
X101796993Y-127242742D01*
X101054136Y-128442742D02*
X101168421Y-128385600D01*
X101168421Y-128385600D02*
X101225564Y-128328457D01*
X101225564Y-128328457D02*
X101282707Y-128214171D01*
X101282707Y-128214171D02*
X101282707Y-127871314D01*
X101282707Y-127871314D02*
X101225564Y-127757028D01*
X101225564Y-127757028D02*
X101168421Y-127699885D01*
X101168421Y-127699885D02*
X101054136Y-127642742D01*
X101054136Y-127642742D02*
X100882707Y-127642742D01*
X100882707Y-127642742D02*
X100768421Y-127699885D01*
X100768421Y-127699885D02*
X100711279Y-127757028D01*
X100711279Y-127757028D02*
X100654136Y-127871314D01*
X100654136Y-127871314D02*
X100654136Y-128214171D01*
X100654136Y-128214171D02*
X100711279Y-128328457D01*
X100711279Y-128328457D02*
X100768421Y-128385600D01*
X100768421Y-128385600D02*
X100882707Y-128442742D01*
X100882707Y-128442742D02*
X101054136Y-128442742D01*
X99625565Y-127642742D02*
X99625565Y-128442742D01*
X100139850Y-127642742D02*
X100139850Y-128271314D01*
X100139850Y-128271314D02*
X100082707Y-128385600D01*
X100082707Y-128385600D02*
X99968422Y-128442742D01*
X99968422Y-128442742D02*
X99796993Y-128442742D01*
X99796993Y-128442742D02*
X99682707Y-128385600D01*
X99682707Y-128385600D02*
X99625565Y-128328457D01*
X99111279Y-128385600D02*
X98996993Y-128442742D01*
X98996993Y-128442742D02*
X98768422Y-128442742D01*
X98768422Y-128442742D02*
X98654136Y-128385600D01*
X98654136Y-128385600D02*
X98596993Y-128271314D01*
X98596993Y-128271314D02*
X98596993Y-128214171D01*
X98596993Y-128214171D02*
X98654136Y-128099885D01*
X98654136Y-128099885D02*
X98768422Y-128042742D01*
X98768422Y-128042742D02*
X98939851Y-128042742D01*
X98939851Y-128042742D02*
X99054136Y-127985600D01*
X99054136Y-127985600D02*
X99111279Y-127871314D01*
X99111279Y-127871314D02*
X99111279Y-127814171D01*
X99111279Y-127814171D02*
X99054136Y-127699885D01*
X99054136Y-127699885D02*
X98939851Y-127642742D01*
X98939851Y-127642742D02*
X98768422Y-127642742D01*
X98768422Y-127642742D02*
X98654136Y-127699885D01*
X97625564Y-128385600D02*
X97739850Y-128442742D01*
X97739850Y-128442742D02*
X97968422Y-128442742D01*
X97968422Y-128442742D02*
X98082707Y-128385600D01*
X98082707Y-128385600D02*
X98139850Y-128271314D01*
X98139850Y-128271314D02*
X98139850Y-127814171D01*
X98139850Y-127814171D02*
X98082707Y-127699885D01*
X98082707Y-127699885D02*
X97968422Y-127642742D01*
X97968422Y-127642742D02*
X97739850Y-127642742D01*
X97739850Y-127642742D02*
X97625564Y-127699885D01*
X97625564Y-127699885D02*
X97568422Y-127814171D01*
X97568422Y-127814171D02*
X97568422Y-127928457D01*
X97568422Y-127928457D02*
X98139850Y-128042742D01*
X97054136Y-127642742D02*
X97054136Y-128442742D01*
X97054136Y-127757028D02*
X96996993Y-127699885D01*
X96996993Y-127699885D02*
X96882708Y-127642742D01*
X96882708Y-127642742D02*
X96711279Y-127642742D01*
X96711279Y-127642742D02*
X96596993Y-127699885D01*
X96596993Y-127699885D02*
X96539851Y-127814171D01*
X96539851Y-127814171D02*
X96539851Y-128442742D01*
X96025565Y-128385600D02*
X95911279Y-128442742D01*
X95911279Y-128442742D02*
X95682708Y-128442742D01*
X95682708Y-128442742D02*
X95568422Y-128385600D01*
X95568422Y-128385600D02*
X95511279Y-128271314D01*
X95511279Y-128271314D02*
X95511279Y-128214171D01*
X95511279Y-128214171D02*
X95568422Y-128099885D01*
X95568422Y-128099885D02*
X95682708Y-128042742D01*
X95682708Y-128042742D02*
X95854137Y-128042742D01*
X95854137Y-128042742D02*
X95968422Y-127985600D01*
X95968422Y-127985600D02*
X96025565Y-127871314D01*
X96025565Y-127871314D02*
X96025565Y-127814171D01*
X96025565Y-127814171D02*
X95968422Y-127699885D01*
X95968422Y-127699885D02*
X95854137Y-127642742D01*
X95854137Y-127642742D02*
X95682708Y-127642742D01*
X95682708Y-127642742D02*
X95568422Y-127699885D01*
X63020314Y-97178571D02*
X63091742Y-97392857D01*
X63091742Y-97392857D02*
X63163171Y-97464286D01*
X63163171Y-97464286D02*
X63306028Y-97535714D01*
X63306028Y-97535714D02*
X63520314Y-97535714D01*
X63520314Y-97535714D02*
X63663171Y-97464286D01*
X63663171Y-97464286D02*
X63734600Y-97392857D01*
X63734600Y-97392857D02*
X63806028Y-97250000D01*
X63806028Y-97250000D02*
X63806028Y-96678571D01*
X63806028Y-96678571D02*
X62306028Y-96678571D01*
X62306028Y-96678571D02*
X62306028Y-97178571D01*
X62306028Y-97178571D02*
X62377457Y-97321429D01*
X62377457Y-97321429D02*
X62448885Y-97392857D01*
X62448885Y-97392857D02*
X62591742Y-97464286D01*
X62591742Y-97464286D02*
X62734600Y-97464286D01*
X62734600Y-97464286D02*
X62877457Y-97392857D01*
X62877457Y-97392857D02*
X62948885Y-97321429D01*
X62948885Y-97321429D02*
X63020314Y-97178571D01*
X63020314Y-97178571D02*
X63020314Y-96678571D01*
X63806028Y-98892857D02*
X63806028Y-98178571D01*
X63806028Y-98178571D02*
X62306028Y-98178571D01*
X63020314Y-99392857D02*
X63020314Y-99892857D01*
X63806028Y-100107143D02*
X63806028Y-99392857D01*
X63806028Y-99392857D02*
X62306028Y-99392857D01*
X62306028Y-99392857D02*
X62306028Y-100107143D01*
X63091742Y-103321429D02*
X63806028Y-103321429D01*
X62306028Y-102821429D02*
X63091742Y-103321429D01*
X63091742Y-103321429D02*
X62306028Y-103821429D01*
X62306028Y-106392857D02*
X62306028Y-107250000D01*
X63806028Y-106821428D02*
X62306028Y-106821428D01*
X63806028Y-107749999D02*
X62306028Y-107749999D01*
X63806028Y-108392857D02*
X63020314Y-108392857D01*
X63020314Y-108392857D02*
X62877457Y-108321428D01*
X62877457Y-108321428D02*
X62806028Y-108178571D01*
X62806028Y-108178571D02*
X62806028Y-107964285D01*
X62806028Y-107964285D02*
X62877457Y-107821428D01*
X62877457Y-107821428D02*
X62948885Y-107749999D01*
X63806028Y-109107142D02*
X62806028Y-109107142D01*
X63091742Y-109107142D02*
X62948885Y-109178571D01*
X62948885Y-109178571D02*
X62877457Y-109250000D01*
X62877457Y-109250000D02*
X62806028Y-109392857D01*
X62806028Y-109392857D02*
X62806028Y-109535714D01*
X63734600Y-110607142D02*
X63806028Y-110464285D01*
X63806028Y-110464285D02*
X63806028Y-110178571D01*
X63806028Y-110178571D02*
X63734600Y-110035713D01*
X63734600Y-110035713D02*
X63591742Y-109964285D01*
X63591742Y-109964285D02*
X63020314Y-109964285D01*
X63020314Y-109964285D02*
X62877457Y-110035713D01*
X62877457Y-110035713D02*
X62806028Y-110178571D01*
X62806028Y-110178571D02*
X62806028Y-110464285D01*
X62806028Y-110464285D02*
X62877457Y-110607142D01*
X62877457Y-110607142D02*
X63020314Y-110678571D01*
X63020314Y-110678571D02*
X63163171Y-110678571D01*
X63163171Y-110678571D02*
X63306028Y-109964285D01*
X63806028Y-111964285D02*
X63020314Y-111964285D01*
X63020314Y-111964285D02*
X62877457Y-111892856D01*
X62877457Y-111892856D02*
X62806028Y-111749999D01*
X62806028Y-111749999D02*
X62806028Y-111464285D01*
X62806028Y-111464285D02*
X62877457Y-111321427D01*
X63734600Y-111964285D02*
X63806028Y-111821427D01*
X63806028Y-111821427D02*
X63806028Y-111464285D01*
X63806028Y-111464285D02*
X63734600Y-111321427D01*
X63734600Y-111321427D02*
X63591742Y-111249999D01*
X63591742Y-111249999D02*
X63448885Y-111249999D01*
X63448885Y-111249999D02*
X63306028Y-111321427D01*
X63306028Y-111321427D02*
X63234600Y-111464285D01*
X63234600Y-111464285D02*
X63234600Y-111821427D01*
X63234600Y-111821427D02*
X63163171Y-111964285D01*
X63806028Y-113321428D02*
X62306028Y-113321428D01*
X63734600Y-113321428D02*
X63806028Y-113178570D01*
X63806028Y-113178570D02*
X63806028Y-112892856D01*
X63806028Y-112892856D02*
X63734600Y-112749999D01*
X63734600Y-112749999D02*
X63663171Y-112678570D01*
X63663171Y-112678570D02*
X63520314Y-112607142D01*
X63520314Y-112607142D02*
X63091742Y-112607142D01*
X63091742Y-112607142D02*
X62948885Y-112678570D01*
X62948885Y-112678570D02*
X62877457Y-112749999D01*
X62877457Y-112749999D02*
X62806028Y-112892856D01*
X62806028Y-112892856D02*
X62806028Y-113178570D01*
X62806028Y-113178570D02*
X62877457Y-113321428D01*
D15*
X85293072Y-99737722D02*
X84956354Y-100074440D01*
X85899163Y-99603035D02*
X85293072Y-99737722D01*
X85293072Y-99737722D02*
X85427759Y-99131631D01*
X85158385Y-98996944D02*
X85158385Y-98929600D01*
X85158385Y-98929600D02*
X85124713Y-98828585D01*
X85124713Y-98828585D02*
X84956354Y-98660226D01*
X84956354Y-98660226D02*
X84855339Y-98626554D01*
X84855339Y-98626554D02*
X84787996Y-98626554D01*
X84787996Y-98626554D02*
X84686980Y-98660226D01*
X84686980Y-98660226D02*
X84619637Y-98727570D01*
X84619637Y-98727570D02*
X84552293Y-98862257D01*
X84552293Y-98862257D02*
X84552293Y-99670379D01*
X84552293Y-99670379D02*
X84114561Y-99232646D01*
X90731009Y-118014285D02*
X90778628Y-118157142D01*
X90778628Y-118157142D02*
X90826247Y-118204761D01*
X90826247Y-118204761D02*
X90921485Y-118252380D01*
X90921485Y-118252380D02*
X91064342Y-118252380D01*
X91064342Y-118252380D02*
X91159580Y-118204761D01*
X91159580Y-118204761D02*
X91207200Y-118157142D01*
X91207200Y-118157142D02*
X91254819Y-118061904D01*
X91254819Y-118061904D02*
X91254819Y-117680952D01*
X91254819Y-117680952D02*
X90254819Y-117680952D01*
X90254819Y-117680952D02*
X90254819Y-118014285D01*
X90254819Y-118014285D02*
X90302438Y-118109523D01*
X90302438Y-118109523D02*
X90350057Y-118157142D01*
X90350057Y-118157142D02*
X90445295Y-118204761D01*
X90445295Y-118204761D02*
X90540533Y-118204761D01*
X90540533Y-118204761D02*
X90635771Y-118157142D01*
X90635771Y-118157142D02*
X90683390Y-118109523D01*
X90683390Y-118109523D02*
X90731009Y-118014285D01*
X90731009Y-118014285D02*
X90731009Y-117680952D01*
X90254819Y-118538095D02*
X90254819Y-119109523D01*
X91254819Y-118823809D02*
X90254819Y-118823809D01*
X91254819Y-119966666D02*
X91254819Y-119395238D01*
X91254819Y-119680952D02*
X90254819Y-119680952D01*
X90254819Y-119680952D02*
X90397676Y-119585714D01*
X90397676Y-119585714D02*
X90492914Y-119490476D01*
X90492914Y-119490476D02*
X90540533Y-119395238D01*
X75833332Y-93407200D02*
X75690475Y-93454819D01*
X75690475Y-93454819D02*
X75452380Y-93454819D01*
X75452380Y-93454819D02*
X75357142Y-93407200D01*
X75357142Y-93407200D02*
X75309523Y-93359580D01*
X75309523Y-93359580D02*
X75261904Y-93264342D01*
X75261904Y-93264342D02*
X75261904Y-93169104D01*
X75261904Y-93169104D02*
X75309523Y-93073866D01*
X75309523Y-93073866D02*
X75357142Y-93026247D01*
X75357142Y-93026247D02*
X75452380Y-92978628D01*
X75452380Y-92978628D02*
X75642856Y-92931009D01*
X75642856Y-92931009D02*
X75738094Y-92883390D01*
X75738094Y-92883390D02*
X75785713Y-92835771D01*
X75785713Y-92835771D02*
X75833332Y-92740533D01*
X75833332Y-92740533D02*
X75833332Y-92645295D01*
X75833332Y-92645295D02*
X75785713Y-92550057D01*
X75785713Y-92550057D02*
X75738094Y-92502438D01*
X75738094Y-92502438D02*
X75642856Y-92454819D01*
X75642856Y-92454819D02*
X75404761Y-92454819D01*
X75404761Y-92454819D02*
X75261904Y-92502438D01*
X74928570Y-92454819D02*
X74690475Y-93454819D01*
X74690475Y-93454819D02*
X74499999Y-92740533D01*
X74499999Y-92740533D02*
X74309523Y-93454819D01*
X74309523Y-93454819D02*
X74071428Y-92454819D01*
X73166666Y-93454819D02*
X73738094Y-93454819D01*
X73452380Y-93454819D02*
X73452380Y-92454819D01*
X73452380Y-92454819D02*
X73547618Y-92597676D01*
X73547618Y-92597676D02*
X73642856Y-92692914D01*
X73642856Y-92692914D02*
X73738094Y-92740533D01*
X75952381Y-104654819D02*
X76285714Y-104178628D01*
X76523809Y-104654819D02*
X76523809Y-103654819D01*
X76523809Y-103654819D02*
X76142857Y-103654819D01*
X76142857Y-103654819D02*
X76047619Y-103702438D01*
X76047619Y-103702438D02*
X76000000Y-103750057D01*
X76000000Y-103750057D02*
X75952381Y-103845295D01*
X75952381Y-103845295D02*
X75952381Y-103988152D01*
X75952381Y-103988152D02*
X76000000Y-104083390D01*
X76000000Y-104083390D02*
X76047619Y-104131009D01*
X76047619Y-104131009D02*
X76142857Y-104178628D01*
X76142857Y-104178628D02*
X76523809Y-104178628D01*
X75523809Y-104131009D02*
X75190476Y-104131009D01*
X75047619Y-104654819D02*
X75523809Y-104654819D01*
X75523809Y-104654819D02*
X75523809Y-103654819D01*
X75523809Y-103654819D02*
X75047619Y-103654819D01*
X74666666Y-104607200D02*
X74523809Y-104654819D01*
X74523809Y-104654819D02*
X74285714Y-104654819D01*
X74285714Y-104654819D02*
X74190476Y-104607200D01*
X74190476Y-104607200D02*
X74142857Y-104559580D01*
X74142857Y-104559580D02*
X74095238Y-104464342D01*
X74095238Y-104464342D02*
X74095238Y-104369104D01*
X74095238Y-104369104D02*
X74142857Y-104273866D01*
X74142857Y-104273866D02*
X74190476Y-104226247D01*
X74190476Y-104226247D02*
X74285714Y-104178628D01*
X74285714Y-104178628D02*
X74476190Y-104131009D01*
X74476190Y-104131009D02*
X74571428Y-104083390D01*
X74571428Y-104083390D02*
X74619047Y-104035771D01*
X74619047Y-104035771D02*
X74666666Y-103940533D01*
X74666666Y-103940533D02*
X74666666Y-103845295D01*
X74666666Y-103845295D02*
X74619047Y-103750057D01*
X74619047Y-103750057D02*
X74571428Y-103702438D01*
X74571428Y-103702438D02*
X74476190Y-103654819D01*
X74476190Y-103654819D02*
X74238095Y-103654819D01*
X74238095Y-103654819D02*
X74095238Y-103702438D01*
X73666666Y-104131009D02*
X73333333Y-104131009D01*
X73190476Y-104654819D02*
X73666666Y-104654819D01*
X73666666Y-104654819D02*
X73666666Y-103654819D01*
X73666666Y-103654819D02*
X73190476Y-103654819D01*
X72904761Y-103654819D02*
X72333333Y-103654819D01*
X72619047Y-104654819D02*
X72619047Y-103654819D01*
D16*
%TO.C,Y2*%
X78308581Y-90916693D02*
X86016045Y-98624157D01*
X80712744Y-88512530D02*
X78308581Y-90916693D01*
X86016045Y-98624157D02*
X88420208Y-96219994D01*
X87310051Y-99310051D02*
X86793863Y-97846339D01*
X87805025Y-99805025D02*
X87310051Y-99310051D01*
X88420208Y-96219994D02*
X80712744Y-88512530D01*
X89106102Y-97513999D02*
X87642391Y-96997811D01*
X89601076Y-98008974D02*
X89106102Y-97513999D01*
%TO.C,BT1*%
X88650000Y-113150000D02*
X93450000Y-120000000D01*
X93450000Y-98450000D02*
X88650000Y-105250000D01*
X96750000Y-96200000D02*
X96750000Y-98450000D01*
X96750000Y-119950000D02*
X96750000Y-122200000D01*
X96750000Y-122200000D02*
X102250000Y-122200000D01*
X102250000Y-96200000D02*
X96750000Y-96200000D01*
X102250000Y-98450000D02*
X102250000Y-96200000D01*
X102250000Y-122200000D02*
X102250000Y-119950000D01*
X109000000Y-105350000D02*
G75*
G02*
X109001464Y-113046385I-9500000J-3850000D01*
G01*
%TO.C,SW1*%
X71000000Y-96300000D02*
X71000000Y-100800000D01*
X73500000Y-102050000D02*
X75000000Y-102050000D01*
X75000000Y-95050000D02*
X73500000Y-95050000D01*
X77500000Y-100800000D02*
X77500000Y-96300000D01*
%TD*%
M02*
