%TF.GenerationSoftware,KiCad,Pcbnew,8.0.7*%
%TF.CreationDate,2025-02-06T19:44:26+13:00*%
%TF.ProjectId,Housens-L,486f7573-656e-4732-9d4c-2e6b69636164,001*%
%TF.SameCoordinates,Original*%
%TF.FileFunction,Paste,Top*%
%TF.FilePolarity,Positive*%
%FSLAX46Y46*%
G04 Gerber Fmt 4.6, Leading zero omitted, Abs format (unit mm)*
G04 Created by KiCad (PCBNEW 8.0.7) date 2025-02-06 19:44:26*
%MOMM*%
%LPD*%
G01*
G04 APERTURE LIST*
G04 Aperture macros list*
%AMRoundRect*
0 Rectangle with rounded corners*
0 $1 Rounding radius*
0 $2 $3 $4 $5 $6 $7 $8 $9 X,Y pos of 4 corners*
0 Add a 4 corners polygon primitive as box body*
4,1,4,$2,$3,$4,$5,$6,$7,$8,$9,$2,$3,0*
0 Add four circle primitives for the rounded corners*
1,1,$1+$1,$2,$3*
1,1,$1+$1,$4,$5*
1,1,$1+$1,$6,$7*
1,1,$1+$1,$8,$9*
0 Add four rect primitives between the rounded corners*
20,1,$1+$1,$2,$3,$4,$5,0*
20,1,$1+$1,$4,$5,$6,$7,0*
20,1,$1+$1,$6,$7,$8,$9,0*
20,1,$1+$1,$8,$9,$2,$3,0*%
G04 Aperture macros list end*
%ADD10RoundRect,0.200000X-0.200000X-0.275000X0.200000X-0.275000X0.200000X0.275000X-0.200000X0.275000X0*%
%ADD11RoundRect,0.200000X-0.275000X0.200000X-0.275000X-0.200000X0.275000X-0.200000X0.275000X0.200000X0*%
%ADD12RoundRect,0.225000X-0.250000X0.225000X-0.250000X-0.225000X0.250000X-0.225000X0.250000X0.225000X0*%
%ADD13RoundRect,0.225000X0.225000X0.250000X-0.225000X0.250000X-0.225000X-0.250000X0.225000X-0.250000X0*%
%ADD14RoundRect,0.225000X0.250000X-0.225000X0.250000X0.225000X-0.250000X0.225000X-0.250000X-0.225000X0*%
%ADD15R,0.300000X0.720000*%
%ADD16R,0.900000X0.800000*%
%ADD17RoundRect,0.250000X-0.292217X0.292217X-0.292217X-0.292217X0.292217X-0.292217X0.292217X0.292217X0*%
%ADD18RoundRect,0.062500X-0.062500X0.375000X-0.062500X-0.375000X0.062500X-0.375000X0.062500X0.375000X0*%
%ADD19RoundRect,0.062500X-0.375000X0.062500X-0.375000X-0.062500X0.375000X-0.062500X0.375000X0.062500X0*%
%ADD20RoundRect,0.200000X0.200000X0.275000X-0.200000X0.275000X-0.200000X-0.275000X0.200000X-0.275000X0*%
%ADD21R,0.350000X0.500000*%
%ADD22RoundRect,0.225000X-0.225000X-0.250000X0.225000X-0.250000X0.225000X0.250000X-0.225000X0.250000X0*%
%ADD23RoundRect,0.150000X0.512500X0.150000X-0.512500X0.150000X-0.512500X-0.150000X0.512500X-0.150000X0*%
%ADD24R,2.400000X0.740000*%
%ADD25RoundRect,0.200000X0.275000X-0.200000X0.275000X0.200000X-0.275000X0.200000X-0.275000X-0.200000X0*%
%ADD26R,3.200000X1.000000*%
%ADD27R,1.000000X3.200000*%
G04 APERTURE END LIST*
D10*
%TO.C,R7*%
X92525000Y-123500000D03*
X94175000Y-123500000D03*
%TD*%
D11*
%TO.C,R2*%
X70500000Y-85400000D03*
X70500000Y-87050000D03*
%TD*%
D12*
%TO.C,C8*%
X89525000Y-110075000D03*
X89525000Y-111625000D03*
%TD*%
D13*
%TO.C,C16*%
X78950000Y-113706250D03*
X77400000Y-113706250D03*
%TD*%
%TO.C,C15*%
X78950000Y-115416250D03*
X77400000Y-115416250D03*
%TD*%
D14*
%TO.C,C1*%
X107500000Y-117275000D03*
X107500000Y-115725000D03*
%TD*%
D15*
%TO.C,U3*%
X76750000Y-87280000D03*
X76250000Y-87280000D03*
X75750000Y-87280000D03*
X75250000Y-87280000D03*
X75250000Y-89000000D03*
X75750000Y-89000000D03*
X76250000Y-89000000D03*
X76750000Y-89000000D03*
%TD*%
D14*
%TO.C,C6*%
X82262500Y-115625000D03*
X82262500Y-114075000D03*
%TD*%
D16*
%TO.C,Y1*%
X82937500Y-110600000D03*
X81537500Y-110600000D03*
X81537500Y-111700000D03*
X82937500Y-111700000D03*
%TD*%
D11*
%TO.C,R3*%
X72200000Y-85400000D03*
X72200000Y-87050000D03*
%TD*%
D14*
%TO.C,C4*%
X76900000Y-83475000D03*
X76900000Y-81925000D03*
%TD*%
D17*
%TO.C,U4*%
X86912500Y-103087500D03*
X85637500Y-103087500D03*
X84362500Y-103087500D03*
X83087500Y-103087500D03*
X86912500Y-104362500D03*
X85637500Y-104362500D03*
X84362500Y-104362500D03*
X83087500Y-104362500D03*
X86912500Y-105637500D03*
X85637500Y-105637500D03*
X84362500Y-105637500D03*
X83087500Y-105637500D03*
X86912500Y-106912500D03*
X85637500Y-106912500D03*
X84362500Y-106912500D03*
X83087500Y-106912500D03*
D18*
X87750000Y-101562500D03*
X87250000Y-101562500D03*
X86750000Y-101562500D03*
X86250000Y-101562500D03*
X85750000Y-101562500D03*
X85250000Y-101562500D03*
X84750000Y-101562500D03*
X84250000Y-101562500D03*
X83750000Y-101562500D03*
X83250000Y-101562500D03*
X82750000Y-101562500D03*
X82250000Y-101562500D03*
D19*
X81562500Y-102250000D03*
X81562500Y-102750000D03*
X81562500Y-103250000D03*
X81562500Y-103750000D03*
X81562500Y-104250000D03*
X81562500Y-104750000D03*
X81562500Y-105250000D03*
X81562500Y-105750000D03*
X81562500Y-106250000D03*
X81562500Y-106750000D03*
X81562500Y-107250000D03*
X81562500Y-107750000D03*
D18*
X82250000Y-108437500D03*
X82750000Y-108437500D03*
X83250000Y-108437500D03*
X83750000Y-108437500D03*
X84250000Y-108437500D03*
X84750000Y-108437500D03*
X85250000Y-108437500D03*
X85750000Y-108437500D03*
X86250000Y-108437500D03*
X86750000Y-108437500D03*
X87250000Y-108437500D03*
X87750000Y-108437500D03*
D19*
X88437500Y-107750000D03*
X88437500Y-107250000D03*
X88437500Y-106750000D03*
X88437500Y-106250000D03*
X88437500Y-105750000D03*
X88437500Y-105250000D03*
X88437500Y-104750000D03*
X88437500Y-104250000D03*
X88437500Y-103750000D03*
X88437500Y-103250000D03*
X88437500Y-102750000D03*
X88437500Y-102250000D03*
%TD*%
D20*
%TO.C,R6*%
X98300000Y-127325000D03*
X96650000Y-127325000D03*
%TD*%
D21*
%TO.C,U2*%
X86000000Y-87050000D03*
X85350000Y-87050000D03*
X84700000Y-87050000D03*
X84050000Y-87050000D03*
X84050000Y-85000000D03*
X84700000Y-85000000D03*
X85350000Y-85000000D03*
X86000000Y-85000000D03*
%TD*%
D14*
%TO.C,C11*%
X83237500Y-99250000D03*
X83237500Y-97700000D03*
%TD*%
D22*
%TO.C,C2*%
X103025000Y-115350000D03*
X104575000Y-115350000D03*
%TD*%
D23*
%TO.C,U1*%
X105400000Y-119250000D03*
X105400000Y-118300000D03*
X105400000Y-117350000D03*
X103125000Y-117350000D03*
X103125000Y-119250000D03*
%TD*%
D13*
%TO.C,C9*%
X91475000Y-100000000D03*
X89925000Y-100000000D03*
%TD*%
D14*
%TO.C,C12*%
X84937500Y-99250000D03*
X84937500Y-97700000D03*
%TD*%
D13*
%TO.C,C10*%
X78950000Y-110293750D03*
X77400000Y-110293750D03*
%TD*%
D24*
%TO.C,J1*%
X105600000Y-98200000D03*
X101700000Y-98200000D03*
X105600000Y-96930000D03*
X101700000Y-96930000D03*
X105600000Y-95660000D03*
X101700000Y-95660000D03*
X105600000Y-94390000D03*
X101700000Y-94390000D03*
X105600000Y-93120000D03*
X101700000Y-93120000D03*
%TD*%
D10*
%TO.C,R5*%
X80475000Y-122000000D03*
X82125000Y-122000000D03*
%TD*%
D14*
%TO.C,C14*%
X95800000Y-121350000D03*
X95800000Y-119800000D03*
%TD*%
D23*
%TO.C,Q1*%
X98700000Y-125425000D03*
X98700000Y-124475000D03*
X98700000Y-123525000D03*
X96425000Y-123525000D03*
X96425000Y-124475000D03*
X96425000Y-125425000D03*
%TD*%
D25*
%TO.C,R4*%
X84190000Y-83490000D03*
X84190000Y-81840000D03*
%TD*%
D12*
%TO.C,C13*%
X87725000Y-110075000D03*
X87725000Y-111625000D03*
%TD*%
D26*
%TO.C,L1*%
X99400000Y-119450000D03*
X99400000Y-117250000D03*
%TD*%
D20*
%TO.C,R9*%
X79000000Y-118000000D03*
X77350000Y-118000000D03*
%TD*%
%TO.C,R8*%
X94175000Y-125350000D03*
X92525000Y-125350000D03*
%TD*%
D13*
%TO.C,C7*%
X78950000Y-111993750D03*
X77400000Y-111993750D03*
%TD*%
D11*
%TO.C,R1*%
X68800000Y-85405000D03*
X68800000Y-87055000D03*
%TD*%
D14*
%TO.C,C5*%
X75175000Y-83475000D03*
X75175000Y-81925000D03*
%TD*%
D27*
%TO.C,L2*%
X84662500Y-115750000D03*
X86862500Y-115750000D03*
%TD*%
D14*
%TO.C,C3*%
X85900000Y-83445000D03*
X85900000Y-81895000D03*
%TD*%
M02*
