%TF.GenerationSoftware,KiCad,Pcbnew,8.0.7*%
%TF.CreationDate,2025-02-08T02:54:50+13:00*%
%TF.ProjectId,Housens-L,486f7573-656e-4732-9d4c-2e6b69636164,002*%
%TF.SameCoordinates,Original*%
%TF.FileFunction,Copper,L3,Inr*%
%TF.FilePolarity,Positive*%
%FSLAX46Y46*%
G04 Gerber Fmt 4.6, Leading zero omitted, Abs format (unit mm)*
G04 Created by KiCad (PCBNEW 8.0.7) date 2025-02-08 02:54:50*
%MOMM*%
%LPD*%
G01*
G04 APERTURE LIST*
%TA.AperFunction,ComponentPad*%
%ADD10C,5.600000*%
%TD*%
%TA.AperFunction,HeatsinkPad*%
%ADD11C,0.500000*%
%TD*%
%TA.AperFunction,ComponentPad*%
%ADD12C,0.700000*%
%TD*%
%TA.AperFunction,ComponentPad*%
%ADD13O,0.900000X2.400000*%
%TD*%
%TA.AperFunction,ComponentPad*%
%ADD14O,0.900000X1.700000*%
%TD*%
%TA.AperFunction,ComponentPad*%
%ADD15C,2.000000*%
%TD*%
%TA.AperFunction,ComponentPad*%
%ADD16C,1.000000*%
%TD*%
%TA.AperFunction,ViaPad*%
%ADD17C,0.400000*%
%TD*%
%TA.AperFunction,ViaPad*%
%ADD18C,0.450000*%
%TD*%
%TA.AperFunction,ViaPad*%
%ADD19C,0.500000*%
%TD*%
G04 APERTURE END LIST*
D10*
%TO.N,GND*%
%TO.C,H2*%
X106000000Y-84000000D03*
%TD*%
D11*
%TO.N,GND*%
%TO.C,U4*%
X87550000Y-102450000D03*
X86275000Y-102450000D03*
X85000000Y-102450000D03*
X83725000Y-102450000D03*
X82450000Y-102450000D03*
X87550000Y-103725000D03*
X86275000Y-103725000D03*
X85000000Y-103725000D03*
X83725000Y-103725000D03*
X82450000Y-103725000D03*
X87550000Y-105000000D03*
X86275000Y-105000000D03*
X85000000Y-105000000D03*
X83725000Y-105000000D03*
X82450000Y-105000000D03*
X87550000Y-106275000D03*
X86275000Y-106275000D03*
X85000000Y-106275000D03*
X83725000Y-106275000D03*
X82450000Y-106275000D03*
X87550000Y-107550000D03*
X86275000Y-107550000D03*
X85000000Y-107550000D03*
X83725000Y-107550000D03*
X82450000Y-107550000D03*
%TD*%
D10*
%TO.N,+BATT*%
%TO.C,H3*%
X106000000Y-126000000D03*
%TD*%
D12*
%TO.N,GND*%
%TO.C,J2*%
X82050000Y-124100000D03*
%TO.N,Net-(J2-VBUS-PadA4)*%
X82900000Y-124100000D03*
%TO.N,unconnected-(J2-CC1-PadA5)*%
X83750000Y-124100000D03*
%TO.N,/USB_D_P*%
X84600000Y-124100000D03*
%TO.N,/USB_D_N*%
X85450000Y-124100000D03*
%TO.N,N/C*%
X86300000Y-124100000D03*
%TO.N,Net-(J2-VBUS-PadA4)*%
X87150000Y-124100000D03*
%TO.N,GND*%
X88000000Y-124100000D03*
X88000000Y-125450000D03*
%TO.N,Net-(J2-VBUS-PadA4)*%
X87150000Y-125450000D03*
%TO.N,unconnected-(J2-CC2-PadB5)*%
X86300000Y-125450000D03*
%TO.N,/USB_D_P*%
X85450000Y-125450000D03*
%TO.N,/USB_D_N*%
X84600000Y-125450000D03*
%TO.N,N/C*%
X83750000Y-125450000D03*
%TO.N,Net-(J2-VBUS-PadA4)*%
X82900000Y-125450000D03*
%TO.N,GND*%
X82050000Y-125450000D03*
D13*
X80700000Y-125080000D03*
D14*
X80700000Y-128460000D03*
D13*
X89350000Y-125080000D03*
D14*
X89350000Y-128460000D03*
%TD*%
D15*
%TO.N,GND*%
%TO.C,SW2*%
X76250000Y-126250000D03*
X69750000Y-126250000D03*
%TO.N,/USER_BTN*%
X76250000Y-121750000D03*
X69750000Y-121750000D03*
%TD*%
D16*
%TO.N,Net-(U4-PC14)*%
%TO.C,Y2*%
X88300000Y-100300000D03*
%TO.N,Net-(U4-PC15)*%
X90096051Y-98503949D03*
%TD*%
D15*
%TO.N,GND*%
%TO.C,SW1*%
X72000000Y-95300000D03*
X72000000Y-101800000D03*
%TO.N,Net-(U4-NRST)*%
X76500000Y-95300000D03*
X76500000Y-101800000D03*
%TD*%
D17*
%TO.N,*%
X103797152Y-100180680D03*
D18*
%TO.N,GND*%
X72650000Y-107000000D03*
D19*
X68975000Y-115975000D03*
D17*
X81500000Y-87200000D03*
D19*
X74975000Y-91975000D03*
X68975000Y-118975000D03*
D17*
X104786658Y-88368329D03*
D18*
X66700000Y-96177778D03*
D19*
X101975000Y-85975000D03*
D17*
X79900000Y-118000000D03*
D19*
X86975000Y-127975000D03*
D18*
X79874997Y-104800000D03*
D19*
X77975000Y-97975000D03*
D18*
X71808333Y-107000000D03*
D17*
X106000000Y-115900000D03*
X100400000Y-109650000D03*
D19*
X68975000Y-109975000D03*
X89975000Y-121975000D03*
X77975000Y-103975000D03*
X71975000Y-82975000D03*
X68975000Y-100975000D03*
D18*
X78502778Y-107000000D03*
D17*
X84100000Y-97100000D03*
X106800000Y-115000000D03*
D19*
X68975000Y-82975000D03*
D17*
X85750000Y-110500000D03*
D19*
X107975000Y-100975000D03*
X81000000Y-83000000D03*
X68975000Y-112975000D03*
D17*
X80300000Y-87200000D03*
D18*
X66738889Y-105500000D03*
D19*
X68975000Y-88975000D03*
X68975000Y-91975000D03*
D18*
X66700000Y-94497222D03*
X76850000Y-107000000D03*
X66750000Y-107850000D03*
X66700000Y-99538889D03*
D19*
X92975000Y-88975000D03*
D18*
X74301389Y-105500000D03*
X66700000Y-103740278D03*
D19*
X78000000Y-83000000D03*
D18*
X75141667Y-105500000D03*
X73488889Y-107000000D03*
D17*
X86850000Y-87450000D03*
D18*
X66700000Y-102059722D03*
D17*
X73000000Y-90900000D03*
X77400000Y-109200000D03*
D18*
X76009722Y-107000000D03*
D19*
X98975000Y-91975000D03*
X71975000Y-91975000D03*
X74975000Y-103975000D03*
D18*
X66700000Y-102900000D03*
D19*
X68975000Y-97975000D03*
X68975000Y-103975000D03*
X83975000Y-94975000D03*
D17*
X83112500Y-113225000D03*
D19*
X71975000Y-103975000D03*
D18*
X66700000Y-97018056D03*
D17*
X84600000Y-96550000D03*
X77400000Y-116500000D03*
D19*
X92975000Y-91975000D03*
X92975000Y-85975000D03*
X77975000Y-124975000D03*
D18*
X79343056Y-107000000D03*
X70940278Y-105500000D03*
D19*
X74975000Y-112975000D03*
D18*
X67579167Y-105500000D03*
D19*
X98975000Y-82975000D03*
D17*
X96500000Y-83900000D03*
D18*
X70969444Y-107000000D03*
D17*
X77400000Y-111150000D03*
D19*
X71975000Y-127975000D03*
X68975000Y-94975000D03*
D18*
X70129167Y-107000000D03*
D19*
X80975000Y-88975000D03*
X71975000Y-118975000D03*
D17*
X88119930Y-117419930D03*
X104800000Y-97711446D03*
D19*
X83975000Y-127975000D03*
X104975000Y-91975000D03*
D18*
X77662500Y-105500000D03*
X66700000Y-95337500D03*
X80183334Y-107000000D03*
X68419445Y-105500000D03*
D19*
X89975000Y-82975000D03*
X77975000Y-88975000D03*
D17*
X73890791Y-91470816D03*
D19*
X71975000Y-97975000D03*
X75000000Y-83000000D03*
D18*
X79100000Y-104800000D03*
D19*
X107975000Y-103975000D03*
X86975000Y-121975000D03*
X101975000Y-91975000D03*
D17*
X77400000Y-112850000D03*
D18*
X72620834Y-105500000D03*
D17*
X89500000Y-113650000D03*
D19*
X71975000Y-115975000D03*
D18*
X66700000Y-101219445D03*
D17*
X87075000Y-111625000D03*
D18*
X66700000Y-104580556D03*
D17*
X98975000Y-85975000D03*
D19*
X71975000Y-109975000D03*
D18*
X71780556Y-105500000D03*
D19*
X92975000Y-82975000D03*
D17*
X92000000Y-87850000D03*
D18*
X68448611Y-107000000D03*
D19*
X74975000Y-118975000D03*
D18*
X70100000Y-105500000D03*
X66750000Y-108690278D03*
D17*
X77400000Y-114550000D03*
D19*
X107975000Y-91975000D03*
D18*
X66700000Y-98698611D03*
D19*
X92975000Y-94975000D03*
X107975000Y-94975000D03*
D18*
X66700000Y-100379167D03*
D17*
X104500000Y-118300000D03*
D19*
X107975000Y-97975000D03*
D17*
X88100000Y-112450000D03*
D18*
X69259723Y-105500000D03*
X67608333Y-107000000D03*
D19*
X74975000Y-115975000D03*
X71975000Y-124975000D03*
X101975000Y-82975000D03*
D18*
X66700000Y-97858333D03*
D17*
X80368008Y-104104095D03*
X83593199Y-96550000D03*
X96500000Y-87700000D03*
D18*
X77662500Y-107000000D03*
X76822223Y-105500000D03*
D19*
X71975000Y-112975000D03*
X89975000Y-85975000D03*
D18*
X69288889Y-107000000D03*
D19*
X74975000Y-97975000D03*
D17*
X98600000Y-90000000D03*
D18*
X75981945Y-105500000D03*
D19*
X68975000Y-127975000D03*
X90100000Y-91200000D03*
D17*
X84700000Y-120200000D03*
D19*
X107975000Y-88975000D03*
X86900000Y-88975000D03*
D18*
X66750000Y-107000000D03*
D19*
X80975000Y-91975000D03*
D17*
X104300000Y-117000000D03*
D19*
X101975000Y-88975000D03*
D17*
X92900000Y-96592894D03*
D18*
X74329167Y-107000000D03*
X73461112Y-105500000D03*
D17*
X92200000Y-111625000D03*
X89300000Y-100100000D03*
D19*
X74975000Y-127975000D03*
X77975000Y-127975000D03*
D17*
X88507332Y-91390325D03*
X96500000Y-85500000D03*
D19*
X77975000Y-85975000D03*
X68974152Y-85971317D03*
D18*
X78350000Y-105050000D03*
D19*
X74975000Y-109975000D03*
D18*
X75169444Y-107000000D03*
D19*
X90100000Y-94900000D03*
X89975000Y-88975000D03*
D17*
X101950000Y-105100000D03*
X89487503Y-118000000D03*
%TD*%
%TA.AperFunction,Conductor*%
%TO.N,GND*%
G36*
X106003032Y-80500648D02*
G01*
X106336929Y-80517052D01*
X106349037Y-80518245D01*
X106452146Y-80533539D01*
X106676699Y-80566849D01*
X106688617Y-80569219D01*
X107009951Y-80649709D01*
X107021588Y-80653240D01*
X107092806Y-80678722D01*
X107333467Y-80764832D01*
X107344688Y-80769479D01*
X107644163Y-80911120D01*
X107654871Y-80916844D01*
X107938988Y-81087137D01*
X107949106Y-81093897D01*
X108215170Y-81291224D01*
X108224576Y-81298944D01*
X108470013Y-81521395D01*
X108478604Y-81529986D01*
X108665755Y-81736475D01*
X108701055Y-81775423D01*
X108708775Y-81784829D01*
X108906102Y-82050893D01*
X108912862Y-82061011D01*
X109041776Y-82276092D01*
X109083148Y-82345116D01*
X109088885Y-82355848D01*
X109230514Y-82655297D01*
X109235170Y-82666540D01*
X109346759Y-82978411D01*
X109350292Y-82990055D01*
X109430777Y-83311369D01*
X109433151Y-83323305D01*
X109481754Y-83650962D01*
X109482947Y-83663071D01*
X109499351Y-83996966D01*
X109499500Y-84003051D01*
X109499500Y-125996948D01*
X109499351Y-126003033D01*
X109482947Y-126336928D01*
X109481754Y-126349037D01*
X109433151Y-126676694D01*
X109430777Y-126688630D01*
X109350292Y-127009944D01*
X109346759Y-127021588D01*
X109235170Y-127333459D01*
X109230514Y-127344702D01*
X109088885Y-127644151D01*
X109083148Y-127654883D01*
X108912862Y-127938988D01*
X108906102Y-127949106D01*
X108708775Y-128215170D01*
X108701055Y-128224576D01*
X108478611Y-128470006D01*
X108470006Y-128478611D01*
X108224576Y-128701055D01*
X108215170Y-128708775D01*
X107949106Y-128906102D01*
X107938988Y-128912862D01*
X107654883Y-129083148D01*
X107644151Y-129088885D01*
X107344702Y-129230514D01*
X107333459Y-129235170D01*
X107021588Y-129346759D01*
X107009944Y-129350292D01*
X106688630Y-129430777D01*
X106676694Y-129433151D01*
X106349037Y-129481754D01*
X106336928Y-129482947D01*
X106021989Y-129498419D01*
X106003031Y-129499351D01*
X105996949Y-129499500D01*
X90297243Y-129499500D01*
X90230204Y-129479815D01*
X90184449Y-129427011D01*
X90174505Y-129357853D01*
X90190485Y-129316159D01*
X90189006Y-129315369D01*
X90191880Y-129309991D01*
X90263491Y-129137105D01*
X90263493Y-129137097D01*
X90299999Y-128953571D01*
X90300000Y-128953569D01*
X90300000Y-128710000D01*
X89650000Y-128710000D01*
X89650000Y-128210000D01*
X90300000Y-128210000D01*
X90300000Y-127966430D01*
X90299999Y-127966428D01*
X90263493Y-127782902D01*
X90263491Y-127782894D01*
X90191880Y-127610008D01*
X90191875Y-127609999D01*
X90087913Y-127454410D01*
X90087910Y-127454406D01*
X89955593Y-127322089D01*
X89955589Y-127322086D01*
X89800000Y-127218124D01*
X89799991Y-127218119D01*
X89627103Y-127146507D01*
X89627100Y-127146506D01*
X89600000Y-127141115D01*
X89600000Y-127893011D01*
X89590060Y-127875795D01*
X89534205Y-127819940D01*
X89465796Y-127780444D01*
X89389496Y-127760000D01*
X89310504Y-127760000D01*
X89234204Y-127780444D01*
X89165795Y-127819940D01*
X89109940Y-127875795D01*
X89100000Y-127893011D01*
X89100000Y-127141116D01*
X89099999Y-127141115D01*
X89072899Y-127146506D01*
X89072896Y-127146507D01*
X88900008Y-127218119D01*
X88899999Y-127218124D01*
X88744410Y-127322086D01*
X88744406Y-127322089D01*
X88612089Y-127454406D01*
X88612086Y-127454410D01*
X88508124Y-127609999D01*
X88508119Y-127610008D01*
X88436508Y-127782894D01*
X88436506Y-127782902D01*
X88400000Y-127966428D01*
X88400000Y-128210000D01*
X89050000Y-128210000D01*
X89050000Y-128710000D01*
X88400000Y-128710000D01*
X88400000Y-128953571D01*
X88436506Y-129137097D01*
X88436508Y-129137105D01*
X88508119Y-129309991D01*
X88510994Y-129315369D01*
X88508940Y-129316466D01*
X88526737Y-129373263D01*
X88508265Y-129440647D01*
X88456295Y-129487347D01*
X88402757Y-129499500D01*
X81647243Y-129499500D01*
X81580204Y-129479815D01*
X81534449Y-129427011D01*
X81524505Y-129357853D01*
X81540485Y-129316159D01*
X81539006Y-129315369D01*
X81541880Y-129309991D01*
X81613491Y-129137105D01*
X81613493Y-129137097D01*
X81649999Y-128953571D01*
X81650000Y-128953569D01*
X81650000Y-128710000D01*
X81000000Y-128710000D01*
X81000000Y-128210000D01*
X81650000Y-128210000D01*
X81650000Y-127966430D01*
X81649999Y-127966428D01*
X81613493Y-127782902D01*
X81613491Y-127782894D01*
X81541880Y-127610008D01*
X81541875Y-127609999D01*
X81437913Y-127454410D01*
X81437910Y-127454406D01*
X81305593Y-127322089D01*
X81305589Y-127322086D01*
X81150000Y-127218124D01*
X81149991Y-127218119D01*
X80977103Y-127146507D01*
X80977100Y-127146506D01*
X80950000Y-127141115D01*
X80950000Y-127893011D01*
X80940060Y-127875795D01*
X80884205Y-127819940D01*
X80815796Y-127780444D01*
X80739496Y-127760000D01*
X80660504Y-127760000D01*
X80584204Y-127780444D01*
X80515795Y-127819940D01*
X80459940Y-127875795D01*
X80450000Y-127893011D01*
X80450000Y-127141116D01*
X80449999Y-127141115D01*
X80422899Y-127146506D01*
X80422896Y-127146507D01*
X80250008Y-127218119D01*
X80249999Y-127218124D01*
X80094410Y-127322086D01*
X80094406Y-127322089D01*
X79962089Y-127454406D01*
X79962086Y-127454410D01*
X79858124Y-127609999D01*
X79858119Y-127610008D01*
X79786508Y-127782894D01*
X79786506Y-127782902D01*
X79750000Y-127966428D01*
X79750000Y-128210000D01*
X80400000Y-128210000D01*
X80400000Y-128710000D01*
X79750000Y-128710000D01*
X79750000Y-128953571D01*
X79786506Y-129137097D01*
X79786508Y-129137105D01*
X79858119Y-129309991D01*
X79860994Y-129315369D01*
X79858940Y-129316466D01*
X79876737Y-129373263D01*
X79858265Y-129440647D01*
X79806295Y-129487347D01*
X79752757Y-129499500D01*
X66374000Y-129499500D01*
X66306961Y-129479815D01*
X66261206Y-129427011D01*
X66250000Y-129375500D01*
X66250000Y-126249994D01*
X68244859Y-126249994D01*
X68244859Y-126250005D01*
X68265385Y-126497729D01*
X68265387Y-126497738D01*
X68326412Y-126738717D01*
X68426267Y-126966367D01*
X68526562Y-127119881D01*
X69226212Y-126420233D01*
X69237482Y-126462292D01*
X69309890Y-126587708D01*
X69412292Y-126690110D01*
X69537708Y-126762518D01*
X69579766Y-126773787D01*
X68879943Y-127473609D01*
X68926768Y-127510055D01*
X68926771Y-127510057D01*
X69145385Y-127628364D01*
X69145396Y-127628369D01*
X69380506Y-127709083D01*
X69625707Y-127750000D01*
X69874293Y-127750000D01*
X70119493Y-127709083D01*
X70354603Y-127628369D01*
X70354614Y-127628364D01*
X70573230Y-127510056D01*
X70573236Y-127510051D01*
X70620055Y-127473610D01*
X70620056Y-127473609D01*
X69920233Y-126773787D01*
X69962292Y-126762518D01*
X70087708Y-126690110D01*
X70190110Y-126587708D01*
X70262518Y-126462292D01*
X70273787Y-126420233D01*
X70973435Y-127119882D01*
X71073733Y-126966364D01*
X71173587Y-126738717D01*
X71234612Y-126497738D01*
X71234614Y-126497729D01*
X71255141Y-126250005D01*
X71255141Y-126249994D01*
X74744859Y-126249994D01*
X74744859Y-126250005D01*
X74765385Y-126497729D01*
X74765387Y-126497738D01*
X74826412Y-126738717D01*
X74926267Y-126966367D01*
X75026562Y-127119881D01*
X75726212Y-126420233D01*
X75737482Y-126462292D01*
X75809890Y-126587708D01*
X75912292Y-126690110D01*
X76037708Y-126762518D01*
X76079766Y-126773787D01*
X75379943Y-127473609D01*
X75426768Y-127510055D01*
X75426771Y-127510057D01*
X75645385Y-127628364D01*
X75645396Y-127628369D01*
X75880506Y-127709083D01*
X76125707Y-127750000D01*
X76374293Y-127750000D01*
X76619493Y-127709083D01*
X76854603Y-127628369D01*
X76854614Y-127628364D01*
X77073230Y-127510056D01*
X77073236Y-127510051D01*
X77120055Y-127473610D01*
X77120056Y-127473609D01*
X76420233Y-126773787D01*
X76462292Y-126762518D01*
X76587708Y-126690110D01*
X76690110Y-126587708D01*
X76762518Y-126462292D01*
X76773787Y-126420233D01*
X77473435Y-127119882D01*
X77573733Y-126966364D01*
X77673587Y-126738717D01*
X77734612Y-126497738D01*
X77734614Y-126497729D01*
X77755141Y-126250005D01*
X77755141Y-126249994D01*
X77734614Y-126002270D01*
X77734612Y-126002261D01*
X77673587Y-125761282D01*
X77573732Y-125533632D01*
X77473435Y-125380116D01*
X76773787Y-126079765D01*
X76762518Y-126037708D01*
X76690110Y-125912292D01*
X76587708Y-125809890D01*
X76462292Y-125737482D01*
X76420233Y-125726212D01*
X77120055Y-125026389D01*
X77120055Y-125026388D01*
X77073236Y-124989947D01*
X77073231Y-124989944D01*
X76854614Y-124871635D01*
X76854603Y-124871630D01*
X76619493Y-124790916D01*
X76374293Y-124750000D01*
X76125707Y-124750000D01*
X75880506Y-124790916D01*
X75645396Y-124871630D01*
X75645385Y-124871635D01*
X75426770Y-124989943D01*
X75379943Y-125026389D01*
X76079766Y-125726212D01*
X76037708Y-125737482D01*
X75912292Y-125809890D01*
X75809890Y-125912292D01*
X75737482Y-126037708D01*
X75726212Y-126079766D01*
X75026563Y-125380117D01*
X74926267Y-125533633D01*
X74926265Y-125533637D01*
X74826412Y-125761282D01*
X74765387Y-126002261D01*
X74765385Y-126002270D01*
X74744859Y-126249994D01*
X71255141Y-126249994D01*
X71234614Y-126002270D01*
X71234612Y-126002261D01*
X71173587Y-125761282D01*
X71073732Y-125533632D01*
X70973435Y-125380116D01*
X70273787Y-126079765D01*
X70262518Y-126037708D01*
X70190110Y-125912292D01*
X70087708Y-125809890D01*
X69962292Y-125737482D01*
X69920233Y-125726212D01*
X70620055Y-125026389D01*
X70620055Y-125026388D01*
X70573236Y-124989947D01*
X70573231Y-124989944D01*
X70354614Y-124871635D01*
X70354603Y-124871630D01*
X70119493Y-124790916D01*
X69874293Y-124750000D01*
X69625707Y-124750000D01*
X69380506Y-124790916D01*
X69145396Y-124871630D01*
X69145385Y-124871635D01*
X68926770Y-124989943D01*
X68879943Y-125026389D01*
X69579766Y-125726212D01*
X69537708Y-125737482D01*
X69412292Y-125809890D01*
X69309890Y-125912292D01*
X69237482Y-126037708D01*
X69226212Y-126079766D01*
X68526563Y-125380117D01*
X68426267Y-125533633D01*
X68426265Y-125533637D01*
X68326412Y-125761282D01*
X68265387Y-126002261D01*
X68265385Y-126002270D01*
X68244859Y-126249994D01*
X66250000Y-126249994D01*
X66250000Y-124236428D01*
X79750000Y-124236428D01*
X79750000Y-124830000D01*
X80400000Y-124830000D01*
X80400000Y-125330000D01*
X79750000Y-125330000D01*
X79750000Y-125923571D01*
X79786506Y-126107097D01*
X79786508Y-126107105D01*
X79858119Y-126279991D01*
X79858124Y-126280000D01*
X79962086Y-126435589D01*
X79962089Y-126435593D01*
X80094406Y-126567910D01*
X80094410Y-126567913D01*
X80249999Y-126671875D01*
X80250012Y-126671882D01*
X80422889Y-126743489D01*
X80422896Y-126743491D01*
X80450000Y-126748882D01*
X80450000Y-125996988D01*
X80459940Y-126014205D01*
X80515795Y-126070060D01*
X80584204Y-126109556D01*
X80660504Y-126130000D01*
X80739496Y-126130000D01*
X80815796Y-126109556D01*
X80884205Y-126070060D01*
X80940060Y-126014205D01*
X80950000Y-125996988D01*
X80950000Y-126748881D01*
X80977103Y-126743491D01*
X80977110Y-126743489D01*
X81149987Y-126671882D01*
X81150000Y-126671875D01*
X81305589Y-126567913D01*
X81305593Y-126567910D01*
X81437910Y-126435593D01*
X81437913Y-126435589D01*
X81541875Y-126280000D01*
X81541880Y-126279991D01*
X81613491Y-126107105D01*
X81613493Y-126107097D01*
X81649999Y-125923571D01*
X81650000Y-125923569D01*
X81650000Y-125449999D01*
X82344750Y-125449999D01*
X82344750Y-125450000D01*
X82363670Y-125593708D01*
X82363671Y-125593712D01*
X82419137Y-125727622D01*
X82419138Y-125727624D01*
X82419139Y-125727625D01*
X82507379Y-125842621D01*
X82622375Y-125930861D01*
X82756291Y-125986330D01*
X82877297Y-126002261D01*
X82899999Y-126005250D01*
X82900000Y-126005250D01*
X82900001Y-126005250D01*
X82916839Y-126003033D01*
X83043709Y-125986330D01*
X83177625Y-125930861D01*
X83249513Y-125875698D01*
X83314682Y-125850504D01*
X83383127Y-125864542D01*
X83400487Y-125875699D01*
X83472373Y-125930860D01*
X83472374Y-125930860D01*
X83472375Y-125930861D01*
X83606291Y-125986330D01*
X83727297Y-126002261D01*
X83749999Y-126005250D01*
X83750000Y-126005250D01*
X83750001Y-126005250D01*
X83766839Y-126003033D01*
X83893709Y-125986330D01*
X84027625Y-125930861D01*
X84099513Y-125875698D01*
X84164682Y-125850504D01*
X84233127Y-125864542D01*
X84250487Y-125875699D01*
X84322373Y-125930860D01*
X84322374Y-125930860D01*
X84322375Y-125930861D01*
X84456291Y-125986330D01*
X84577297Y-126002261D01*
X84599999Y-126005250D01*
X84600000Y-126005250D01*
X84600001Y-126005250D01*
X84616839Y-126003033D01*
X84743709Y-125986330D01*
X84877625Y-125930861D01*
X84949513Y-125875698D01*
X85014682Y-125850504D01*
X85083127Y-125864542D01*
X85100487Y-125875699D01*
X85172373Y-125930860D01*
X85172374Y-125930860D01*
X85172375Y-125930861D01*
X85306291Y-125986330D01*
X85427297Y-126002261D01*
X85449999Y-126005250D01*
X85450000Y-126005250D01*
X85450001Y-126005250D01*
X85466839Y-126003033D01*
X85593709Y-125986330D01*
X85727625Y-125930861D01*
X85799513Y-125875698D01*
X85864682Y-125850504D01*
X85933127Y-125864542D01*
X85950487Y-125875699D01*
X86022373Y-125930860D01*
X86022374Y-125930860D01*
X86022375Y-125930861D01*
X86156291Y-125986330D01*
X86277297Y-126002261D01*
X86299999Y-126005250D01*
X86300000Y-126005250D01*
X86300001Y-126005250D01*
X86316839Y-126003033D01*
X86443709Y-125986330D01*
X86577625Y-125930861D01*
X86649513Y-125875698D01*
X86714682Y-125850504D01*
X86783127Y-125864542D01*
X86800487Y-125875699D01*
X86872373Y-125930860D01*
X86872374Y-125930860D01*
X86872375Y-125930861D01*
X87006291Y-125986330D01*
X87127297Y-126002261D01*
X87149999Y-126005250D01*
X87150000Y-126005250D01*
X87150001Y-126005250D01*
X87166839Y-126003033D01*
X87293709Y-125986330D01*
X87427625Y-125930861D01*
X87542621Y-125842621D01*
X87630861Y-125727625D01*
X87686330Y-125593709D01*
X87705250Y-125450000D01*
X87686330Y-125306291D01*
X87630861Y-125172375D01*
X87542621Y-125057379D01*
X87427625Y-124969139D01*
X87427624Y-124969138D01*
X87427622Y-124969137D01*
X87293712Y-124913671D01*
X87293710Y-124913670D01*
X87293709Y-124913670D01*
X87174221Y-124897938D01*
X87150283Y-124887348D01*
X87128697Y-124897519D01*
X87125777Y-124897939D01*
X87006291Y-124913670D01*
X87006287Y-124913671D01*
X86872376Y-124969138D01*
X86872374Y-124969139D01*
X86800486Y-125024301D01*
X86735317Y-125049495D01*
X86666872Y-125035456D01*
X86649514Y-125024301D01*
X86577625Y-124969139D01*
X86577623Y-124969138D01*
X86443712Y-124913671D01*
X86443710Y-124913670D01*
X86443709Y-124913670D01*
X86324221Y-124897938D01*
X86300283Y-124887348D01*
X86278697Y-124897519D01*
X86275777Y-124897939D01*
X86156291Y-124913670D01*
X86156287Y-124913671D01*
X86022376Y-124969138D01*
X86022374Y-124969139D01*
X85950486Y-125024301D01*
X85885317Y-125049495D01*
X85816872Y-125035456D01*
X85799514Y-125024301D01*
X85727625Y-124969139D01*
X85727623Y-124969138D01*
X85593712Y-124913671D01*
X85593710Y-124913670D01*
X85593709Y-124913670D01*
X85474221Y-124897938D01*
X85450283Y-124887348D01*
X85428697Y-124897519D01*
X85425777Y-124897939D01*
X85306291Y-124913670D01*
X85306287Y-124913671D01*
X85172376Y-124969138D01*
X85172374Y-124969139D01*
X85100486Y-125024301D01*
X85035317Y-125049495D01*
X84966872Y-125035456D01*
X84949514Y-125024301D01*
X84877625Y-124969139D01*
X84877623Y-124969138D01*
X84743712Y-124913671D01*
X84743710Y-124913670D01*
X84743709Y-124913670D01*
X84624221Y-124897938D01*
X84600283Y-124887348D01*
X84578697Y-124897519D01*
X84575777Y-124897939D01*
X84456291Y-124913670D01*
X84456287Y-124913671D01*
X84322376Y-124969138D01*
X84322374Y-124969139D01*
X84250486Y-125024301D01*
X84185317Y-125049495D01*
X84116872Y-125035456D01*
X84099514Y-125024301D01*
X84027625Y-124969139D01*
X84027623Y-124969138D01*
X83893712Y-124913671D01*
X83893710Y-124913670D01*
X83893709Y-124913670D01*
X83774221Y-124897938D01*
X83750283Y-124887348D01*
X83728697Y-124897519D01*
X83725777Y-124897939D01*
X83606291Y-124913670D01*
X83606287Y-124913671D01*
X83472376Y-124969138D01*
X83472374Y-124969139D01*
X83400486Y-125024301D01*
X83335317Y-125049495D01*
X83266872Y-125035456D01*
X83249514Y-125024301D01*
X83177625Y-124969139D01*
X83177623Y-124969138D01*
X83043712Y-124913671D01*
X83043710Y-124913670D01*
X83043709Y-124913670D01*
X82924221Y-124897938D01*
X82900283Y-124887348D01*
X82878697Y-124897519D01*
X82875777Y-124897939D01*
X82756291Y-124913670D01*
X82756287Y-124913671D01*
X82622377Y-124969137D01*
X82507379Y-125057379D01*
X82419137Y-125172377D01*
X82363671Y-125306287D01*
X82363670Y-125306291D01*
X82344750Y-125449999D01*
X81650000Y-125449999D01*
X81650000Y-125330000D01*
X81000000Y-125330000D01*
X81000000Y-124830000D01*
X81650000Y-124830000D01*
X81650000Y-124236430D01*
X81649999Y-124236428D01*
X81622861Y-124100000D01*
X82344750Y-124100000D01*
X82362711Y-124236428D01*
X82363670Y-124243708D01*
X82363671Y-124243712D01*
X82419137Y-124377622D01*
X82419138Y-124377624D01*
X82419139Y-124377625D01*
X82507379Y-124492621D01*
X82622375Y-124580861D01*
X82756291Y-124636330D01*
X82867167Y-124650927D01*
X82875777Y-124652061D01*
X82899715Y-124662651D01*
X82921302Y-124652481D01*
X82924222Y-124652061D01*
X82931491Y-124651104D01*
X83043709Y-124636330D01*
X83177625Y-124580861D01*
X83249513Y-124525698D01*
X83314682Y-124500504D01*
X83383127Y-124514542D01*
X83400487Y-124525699D01*
X83472373Y-124580860D01*
X83472374Y-124580860D01*
X83472375Y-124580861D01*
X83606291Y-124636330D01*
X83717167Y-124650927D01*
X83725777Y-124652061D01*
X83749715Y-124662651D01*
X83771302Y-124652481D01*
X83774222Y-124652061D01*
X83781491Y-124651104D01*
X83893709Y-124636330D01*
X84027625Y-124580861D01*
X84099513Y-124525698D01*
X84164682Y-124500504D01*
X84233127Y-124514542D01*
X84250487Y-124525699D01*
X84322373Y-124580860D01*
X84322374Y-124580860D01*
X84322375Y-124580861D01*
X84456291Y-124636330D01*
X84567167Y-124650927D01*
X84575777Y-124652061D01*
X84599715Y-124662651D01*
X84621302Y-124652481D01*
X84624222Y-124652061D01*
X84631491Y-124651104D01*
X84743709Y-124636330D01*
X84877625Y-124580861D01*
X84949513Y-124525698D01*
X85014682Y-124500504D01*
X85083127Y-124514542D01*
X85100487Y-124525699D01*
X85172373Y-124580860D01*
X85172374Y-124580860D01*
X85172375Y-124580861D01*
X85306291Y-124636330D01*
X85417167Y-124650927D01*
X85425777Y-124652061D01*
X85449715Y-124662651D01*
X85471302Y-124652481D01*
X85474222Y-124652061D01*
X85481491Y-124651104D01*
X85593709Y-124636330D01*
X85727625Y-124580861D01*
X85799513Y-124525698D01*
X85864682Y-124500504D01*
X85933127Y-124514542D01*
X85950487Y-124525699D01*
X86022373Y-124580860D01*
X86022374Y-124580860D01*
X86022375Y-124580861D01*
X86156291Y-124636330D01*
X86267167Y-124650927D01*
X86275777Y-124652061D01*
X86299715Y-124662651D01*
X86321302Y-124652481D01*
X86324222Y-124652061D01*
X86331491Y-124651104D01*
X86443709Y-124636330D01*
X86577625Y-124580861D01*
X86649513Y-124525698D01*
X86714682Y-124500504D01*
X86783127Y-124514542D01*
X86800487Y-124525699D01*
X86872373Y-124580860D01*
X86872374Y-124580860D01*
X86872375Y-124580861D01*
X87006291Y-124636330D01*
X87117167Y-124650927D01*
X87125777Y-124652061D01*
X87149715Y-124662651D01*
X87171302Y-124652481D01*
X87174222Y-124652061D01*
X87181491Y-124651104D01*
X87293709Y-124636330D01*
X87427625Y-124580861D01*
X87542621Y-124492621D01*
X87630861Y-124377625D01*
X87686330Y-124243709D01*
X87687289Y-124236428D01*
X88400000Y-124236428D01*
X88400000Y-124830000D01*
X89050000Y-124830000D01*
X89050000Y-125330000D01*
X88400000Y-125330000D01*
X88400000Y-125923571D01*
X88436506Y-126107097D01*
X88436508Y-126107105D01*
X88508119Y-126279991D01*
X88508124Y-126280000D01*
X88612086Y-126435589D01*
X88612089Y-126435593D01*
X88744406Y-126567910D01*
X88744410Y-126567913D01*
X88899999Y-126671875D01*
X88900012Y-126671882D01*
X89072889Y-126743489D01*
X89072896Y-126743491D01*
X89100000Y-126748882D01*
X89100000Y-125996988D01*
X89109940Y-126014205D01*
X89165795Y-126070060D01*
X89234204Y-126109556D01*
X89310504Y-126130000D01*
X89389496Y-126130000D01*
X89465796Y-126109556D01*
X89534205Y-126070060D01*
X89590060Y-126014205D01*
X89600000Y-125996988D01*
X89600000Y-126748881D01*
X89627103Y-126743491D01*
X89627110Y-126743489D01*
X89799987Y-126671882D01*
X89800000Y-126671875D01*
X89955589Y-126567913D01*
X89955593Y-126567910D01*
X90087910Y-126435593D01*
X90087913Y-126435589D01*
X90191875Y-126280000D01*
X90191880Y-126279991D01*
X90263491Y-126107105D01*
X90263493Y-126107097D01*
X90284797Y-125999996D01*
X102994415Y-125999996D01*
X102994415Y-126000003D01*
X103014738Y-126348927D01*
X103014739Y-126348938D01*
X103075428Y-126693127D01*
X103075430Y-126693134D01*
X103175674Y-127027972D01*
X103314107Y-127348895D01*
X103314113Y-127348908D01*
X103488870Y-127651597D01*
X103697584Y-127931949D01*
X103697589Y-127931955D01*
X103821463Y-128063253D01*
X103937442Y-128186183D01*
X104113903Y-128334251D01*
X104205186Y-128410847D01*
X104205194Y-128410853D01*
X104497203Y-128602911D01*
X104497207Y-128602913D01*
X104809549Y-128759777D01*
X105137989Y-128879319D01*
X105478086Y-128959923D01*
X105825241Y-129000500D01*
X105825248Y-129000500D01*
X106174752Y-129000500D01*
X106174759Y-129000500D01*
X106521914Y-128959923D01*
X106862011Y-128879319D01*
X107190451Y-128759777D01*
X107502793Y-128602913D01*
X107698004Y-128474520D01*
X107794805Y-128410853D01*
X107794805Y-128410852D01*
X107794811Y-128410849D01*
X108062558Y-128186183D01*
X108302412Y-127931953D01*
X108511130Y-127651596D01*
X108685889Y-127348904D01*
X108824326Y-127027971D01*
X108924569Y-126693136D01*
X108927469Y-126676694D01*
X108985260Y-126348938D01*
X108985259Y-126348938D01*
X108985262Y-126348927D01*
X109005279Y-126005250D01*
X109005585Y-126000003D01*
X109005585Y-125999996D01*
X109001133Y-125923569D01*
X108985262Y-125651073D01*
X108964555Y-125533637D01*
X108924571Y-125306872D01*
X108924569Y-125306865D01*
X108884306Y-125172377D01*
X108824326Y-124972029D01*
X108685889Y-124651096D01*
X108511130Y-124348404D01*
X108511129Y-124348402D01*
X108302415Y-124068050D01*
X108302410Y-124068044D01*
X108125006Y-123880008D01*
X108062558Y-123813817D01*
X107896289Y-123674301D01*
X107794813Y-123589152D01*
X107794805Y-123589146D01*
X107502796Y-123397088D01*
X107190458Y-123240226D01*
X107190452Y-123240223D01*
X106862012Y-123120681D01*
X106862009Y-123120680D01*
X106521915Y-123040077D01*
X106478519Y-123035004D01*
X106174759Y-122999500D01*
X105825241Y-122999500D01*
X105521480Y-123035004D01*
X105478085Y-123040077D01*
X105478083Y-123040077D01*
X105137990Y-123120680D01*
X105137987Y-123120681D01*
X104809547Y-123240223D01*
X104809541Y-123240226D01*
X104497203Y-123397088D01*
X104205194Y-123589146D01*
X104205186Y-123589152D01*
X103937442Y-123813817D01*
X103937440Y-123813819D01*
X103697589Y-124068044D01*
X103697584Y-124068050D01*
X103488870Y-124348402D01*
X103314113Y-124651091D01*
X103314107Y-124651104D01*
X103175674Y-124972027D01*
X103075430Y-125306865D01*
X103075428Y-125306872D01*
X103014739Y-125651061D01*
X103014738Y-125651072D01*
X102994415Y-125999996D01*
X90284797Y-125999996D01*
X90299999Y-125923571D01*
X90300000Y-125923569D01*
X90300000Y-125330000D01*
X89650000Y-125330000D01*
X89650000Y-124830000D01*
X90300000Y-124830000D01*
X90300000Y-124236430D01*
X90299999Y-124236428D01*
X90263493Y-124052902D01*
X90263491Y-124052894D01*
X90191880Y-123880008D01*
X90191875Y-123879999D01*
X90087913Y-123724410D01*
X90087910Y-123724406D01*
X89955593Y-123592089D01*
X89955589Y-123592086D01*
X89800000Y-123488124D01*
X89799991Y-123488119D01*
X89627103Y-123416507D01*
X89627100Y-123416506D01*
X89600000Y-123411115D01*
X89600000Y-124163011D01*
X89590060Y-124145795D01*
X89534205Y-124089940D01*
X89465796Y-124050444D01*
X89389496Y-124030000D01*
X89310504Y-124030000D01*
X89234204Y-124050444D01*
X89165795Y-124089940D01*
X89109940Y-124145795D01*
X89100000Y-124163011D01*
X89100000Y-123411116D01*
X89099999Y-123411115D01*
X89072899Y-123416506D01*
X89072896Y-123416507D01*
X88900008Y-123488119D01*
X88899999Y-123488124D01*
X88744410Y-123592086D01*
X88744406Y-123592089D01*
X88612089Y-123724406D01*
X88612086Y-123724410D01*
X88508124Y-123879999D01*
X88508119Y-123880008D01*
X88436508Y-124052894D01*
X88436506Y-124052902D01*
X88400000Y-124236428D01*
X87687289Y-124236428D01*
X87705250Y-124100000D01*
X87686330Y-123956291D01*
X87630861Y-123822375D01*
X87542621Y-123707379D01*
X87427625Y-123619139D01*
X87427624Y-123619138D01*
X87427622Y-123619137D01*
X87293712Y-123563671D01*
X87293710Y-123563670D01*
X87293709Y-123563670D01*
X87221854Y-123554210D01*
X87150001Y-123544750D01*
X87149999Y-123544750D01*
X87006291Y-123563670D01*
X87006287Y-123563671D01*
X86872376Y-123619138D01*
X86872374Y-123619139D01*
X86800486Y-123674301D01*
X86735317Y-123699495D01*
X86666872Y-123685456D01*
X86649514Y-123674301D01*
X86577625Y-123619139D01*
X86577623Y-123619138D01*
X86443712Y-123563671D01*
X86443710Y-123563670D01*
X86443709Y-123563670D01*
X86371854Y-123554210D01*
X86300001Y-123544750D01*
X86299999Y-123544750D01*
X86156291Y-123563670D01*
X86156287Y-123563671D01*
X86022376Y-123619138D01*
X86022374Y-123619139D01*
X85950486Y-123674301D01*
X85885317Y-123699495D01*
X85816872Y-123685456D01*
X85799514Y-123674301D01*
X85727625Y-123619139D01*
X85727623Y-123619138D01*
X85593712Y-123563671D01*
X85593710Y-123563670D01*
X85593709Y-123563670D01*
X85521854Y-123554210D01*
X85450001Y-123544750D01*
X85449999Y-123544750D01*
X85306291Y-123563670D01*
X85306287Y-123563671D01*
X85172376Y-123619138D01*
X85172374Y-123619139D01*
X85100486Y-123674301D01*
X85035317Y-123699495D01*
X84966872Y-123685456D01*
X84949514Y-123674301D01*
X84877625Y-123619139D01*
X84877623Y-123619138D01*
X84743712Y-123563671D01*
X84743710Y-123563670D01*
X84743709Y-123563670D01*
X84671854Y-123554210D01*
X84600001Y-123544750D01*
X84599999Y-123544750D01*
X84456291Y-123563670D01*
X84456287Y-123563671D01*
X84322376Y-123619138D01*
X84322374Y-123619139D01*
X84250486Y-123674301D01*
X84185317Y-123699495D01*
X84116872Y-123685456D01*
X84099514Y-123674301D01*
X84027625Y-123619139D01*
X84027623Y-123619138D01*
X83893712Y-123563671D01*
X83893710Y-123563670D01*
X83893709Y-123563670D01*
X83821854Y-123554210D01*
X83750001Y-123544750D01*
X83749999Y-123544750D01*
X83606291Y-123563670D01*
X83606287Y-123563671D01*
X83472376Y-123619138D01*
X83472374Y-123619139D01*
X83400486Y-123674301D01*
X83335317Y-123699495D01*
X83266872Y-123685456D01*
X83249514Y-123674301D01*
X83177625Y-123619139D01*
X83177623Y-123619138D01*
X83043712Y-123563671D01*
X83043710Y-123563670D01*
X83043709Y-123563670D01*
X82971854Y-123554210D01*
X82900001Y-123544750D01*
X82899999Y-123544750D01*
X82756291Y-123563670D01*
X82756287Y-123563671D01*
X82622377Y-123619137D01*
X82507379Y-123707379D01*
X82419137Y-123822377D01*
X82363671Y-123956287D01*
X82363670Y-123956291D01*
X82344750Y-124100000D01*
X81622861Y-124100000D01*
X81613493Y-124052902D01*
X81613491Y-124052894D01*
X81541880Y-123880008D01*
X81541875Y-123879999D01*
X81437913Y-123724410D01*
X81437910Y-123724406D01*
X81305593Y-123592089D01*
X81305589Y-123592086D01*
X81150000Y-123488124D01*
X81149991Y-123488119D01*
X80977103Y-123416507D01*
X80977100Y-123416506D01*
X80950000Y-123411115D01*
X80950000Y-124163011D01*
X80940060Y-124145795D01*
X80884205Y-124089940D01*
X80815796Y-124050444D01*
X80739496Y-124030000D01*
X80660504Y-124030000D01*
X80584204Y-124050444D01*
X80515795Y-124089940D01*
X80459940Y-124145795D01*
X80450000Y-124163011D01*
X80450000Y-123411116D01*
X80449999Y-123411115D01*
X80422899Y-123416506D01*
X80422896Y-123416507D01*
X80250008Y-123488119D01*
X80249999Y-123488124D01*
X80094410Y-123592086D01*
X80094406Y-123592089D01*
X79962089Y-123724406D01*
X79962086Y-123724410D01*
X79858124Y-123879999D01*
X79858119Y-123880008D01*
X79786508Y-124052894D01*
X79786506Y-124052902D01*
X79750000Y-124236428D01*
X66250000Y-124236428D01*
X66250000Y-121749999D01*
X68544357Y-121749999D01*
X68544357Y-121750000D01*
X68564884Y-121971535D01*
X68564885Y-121971537D01*
X68625769Y-122185523D01*
X68625775Y-122185538D01*
X68724938Y-122384683D01*
X68724943Y-122384691D01*
X68859020Y-122562238D01*
X69023437Y-122712123D01*
X69023439Y-122712125D01*
X69212595Y-122829245D01*
X69212596Y-122829245D01*
X69212599Y-122829247D01*
X69420060Y-122909618D01*
X69638757Y-122950500D01*
X69638759Y-122950500D01*
X69861241Y-122950500D01*
X69861243Y-122950500D01*
X70079940Y-122909618D01*
X70287401Y-122829247D01*
X70476562Y-122712124D01*
X70640981Y-122562236D01*
X70775058Y-122384689D01*
X70874229Y-122185528D01*
X70935115Y-121971536D01*
X70955643Y-121750000D01*
X70955643Y-121749999D01*
X75044357Y-121749999D01*
X75044357Y-121750000D01*
X75064884Y-121971535D01*
X75064885Y-121971537D01*
X75125769Y-122185523D01*
X75125775Y-122185538D01*
X75224938Y-122384683D01*
X75224943Y-122384691D01*
X75359020Y-122562238D01*
X75523437Y-122712123D01*
X75523439Y-122712125D01*
X75712595Y-122829245D01*
X75712596Y-122829245D01*
X75712599Y-122829247D01*
X75920060Y-122909618D01*
X76138757Y-122950500D01*
X76138759Y-122950500D01*
X76361241Y-122950500D01*
X76361243Y-122950500D01*
X76579940Y-122909618D01*
X76787401Y-122829247D01*
X76976562Y-122712124D01*
X77140981Y-122562236D01*
X77275058Y-122384689D01*
X77374229Y-122185528D01*
X77435115Y-121971536D01*
X77455643Y-121750000D01*
X77435115Y-121528464D01*
X77398563Y-121399997D01*
X84595131Y-121399997D01*
X84595131Y-121400002D01*
X84612498Y-121509658D01*
X84662904Y-121608585D01*
X84662909Y-121608592D01*
X84741407Y-121687090D01*
X84741410Y-121687092D01*
X84741413Y-121687095D01*
X84831576Y-121733035D01*
X84840341Y-121737501D01*
X84949998Y-121754869D01*
X84950000Y-121754869D01*
X84950002Y-121754869D01*
X85024081Y-121743136D01*
X85093374Y-121752091D01*
X85146826Y-121797087D01*
X85153958Y-121809304D01*
X85165503Y-121831962D01*
X85165505Y-121831965D01*
X85165508Y-121831969D01*
X85244006Y-121910467D01*
X85244009Y-121910469D01*
X85244012Y-121910472D01*
X85342938Y-121960877D01*
X85342940Y-121960878D01*
X85452597Y-121978246D01*
X85452599Y-121978246D01*
X85452601Y-121978246D01*
X85562257Y-121960878D01*
X85562258Y-121960877D01*
X85562260Y-121960877D01*
X85661186Y-121910472D01*
X85739694Y-121831964D01*
X85790099Y-121733038D01*
X85790099Y-121733036D01*
X85790100Y-121733035D01*
X85807468Y-121623379D01*
X85807468Y-121623374D01*
X85790100Y-121513718D01*
X85788031Y-121509658D01*
X85739694Y-121414790D01*
X85739691Y-121414787D01*
X85739689Y-121414784D01*
X85661191Y-121336286D01*
X85661187Y-121336283D01*
X85661186Y-121336282D01*
X85618389Y-121314476D01*
X85562257Y-121285875D01*
X85452601Y-121268508D01*
X85452597Y-121268508D01*
X85378518Y-121280241D01*
X85309225Y-121271286D01*
X85255773Y-121226290D01*
X85248640Y-121214072D01*
X85237095Y-121191413D01*
X85237093Y-121191411D01*
X85237090Y-121191407D01*
X85158592Y-121112909D01*
X85158588Y-121112906D01*
X85158587Y-121112905D01*
X85154743Y-121110946D01*
X85059658Y-121062498D01*
X84950002Y-121045131D01*
X84949998Y-121045131D01*
X84840341Y-121062498D01*
X84741414Y-121112904D01*
X84741407Y-121112909D01*
X84662909Y-121191407D01*
X84662904Y-121191414D01*
X84612498Y-121290341D01*
X84595131Y-121399997D01*
X77398563Y-121399997D01*
X77374229Y-121314472D01*
X77373171Y-121312347D01*
X77275061Y-121115316D01*
X77275056Y-121115308D01*
X77140979Y-120937761D01*
X76976562Y-120787876D01*
X76976560Y-120787874D01*
X76787404Y-120670754D01*
X76787398Y-120670752D01*
X76579940Y-120590382D01*
X76361243Y-120549500D01*
X76138757Y-120549500D01*
X75920060Y-120590382D01*
X75788864Y-120641207D01*
X75712601Y-120670752D01*
X75712595Y-120670754D01*
X75523439Y-120787874D01*
X75523437Y-120787876D01*
X75359020Y-120937761D01*
X75224943Y-121115308D01*
X75224938Y-121115316D01*
X75125775Y-121314461D01*
X75125769Y-121314476D01*
X75064885Y-121528462D01*
X75064884Y-121528464D01*
X75044357Y-121749999D01*
X70955643Y-121749999D01*
X70935115Y-121528464D01*
X70874229Y-121314472D01*
X70873171Y-121312347D01*
X70775061Y-121115316D01*
X70775056Y-121115308D01*
X70640979Y-120937761D01*
X70476562Y-120787876D01*
X70476560Y-120787874D01*
X70287404Y-120670754D01*
X70287398Y-120670752D01*
X70079940Y-120590382D01*
X69861243Y-120549500D01*
X69638757Y-120549500D01*
X69420060Y-120590382D01*
X69288864Y-120641207D01*
X69212601Y-120670752D01*
X69212595Y-120670754D01*
X69023439Y-120787874D01*
X69023437Y-120787876D01*
X68859020Y-120937761D01*
X68724943Y-121115308D01*
X68724938Y-121115316D01*
X68625775Y-121314461D01*
X68625769Y-121314476D01*
X68564885Y-121528462D01*
X68564884Y-121528464D01*
X68544357Y-121749999D01*
X66250000Y-121749999D01*
X66250000Y-118599997D01*
X80045131Y-118599997D01*
X80045131Y-118600002D01*
X80062498Y-118709658D01*
X80112904Y-118808585D01*
X80112909Y-118808592D01*
X80191407Y-118887090D01*
X80191410Y-118887092D01*
X80191413Y-118887095D01*
X80290339Y-118937500D01*
X80290341Y-118937501D01*
X80399998Y-118954869D01*
X80400000Y-118954869D01*
X80400002Y-118954869D01*
X80509658Y-118937501D01*
X80509659Y-118937500D01*
X80509661Y-118937500D01*
X80608587Y-118887095D01*
X80687095Y-118808587D01*
X80737500Y-118709661D01*
X80737500Y-118709659D01*
X80737501Y-118709658D01*
X80754869Y-118600002D01*
X80754869Y-118599997D01*
X80737501Y-118490341D01*
X80735845Y-118487090D01*
X80687095Y-118391413D01*
X80687092Y-118391410D01*
X80687090Y-118391407D01*
X80608592Y-118312909D01*
X80608588Y-118312906D01*
X80608587Y-118312905D01*
X80583263Y-118300002D01*
X80509658Y-118262498D01*
X80400002Y-118245131D01*
X80399998Y-118245131D01*
X80290341Y-118262498D01*
X80191414Y-118312904D01*
X80191407Y-118312909D01*
X80112909Y-118391407D01*
X80112904Y-118391414D01*
X80062498Y-118490341D01*
X80045131Y-118599997D01*
X66250000Y-118599997D01*
X66250000Y-118199997D01*
X87745131Y-118199997D01*
X87745131Y-118200002D01*
X87762498Y-118309658D01*
X87812904Y-118408585D01*
X87812909Y-118408592D01*
X87891407Y-118487090D01*
X87891410Y-118487092D01*
X87891413Y-118487095D01*
X87961569Y-118522841D01*
X87990341Y-118537501D01*
X88099998Y-118554869D01*
X88100000Y-118554869D01*
X88100002Y-118554869D01*
X88209657Y-118537501D01*
X88209658Y-118537500D01*
X88209661Y-118537500D01*
X88283186Y-118500037D01*
X88351851Y-118487141D01*
X88416592Y-118513417D01*
X88427150Y-118522832D01*
X88491413Y-118587095D01*
X88516741Y-118600000D01*
X88590341Y-118637501D01*
X88699998Y-118654869D01*
X88700000Y-118654869D01*
X88700002Y-118654869D01*
X88809658Y-118637501D01*
X88809659Y-118637500D01*
X88809661Y-118637500D01*
X88908587Y-118587095D01*
X88987095Y-118508587D01*
X89037500Y-118409661D01*
X89037500Y-118409659D01*
X89037501Y-118409658D01*
X89054869Y-118300002D01*
X89054869Y-118299997D01*
X89037501Y-118190341D01*
X89037500Y-118190339D01*
X88987095Y-118091413D01*
X88987092Y-118091410D01*
X88987090Y-118091407D01*
X88908592Y-118012909D01*
X88908588Y-118012906D01*
X88908587Y-118012905D01*
X88883185Y-117999962D01*
X88809658Y-117962498D01*
X88700002Y-117945131D01*
X88699998Y-117945131D01*
X88590341Y-117962498D01*
X88516812Y-117999962D01*
X88448143Y-118012857D01*
X88383403Y-117986579D01*
X88372847Y-117977165D01*
X88308587Y-117912905D01*
X88304743Y-117910946D01*
X88209658Y-117862498D01*
X88100002Y-117845131D01*
X88099998Y-117845131D01*
X87990341Y-117862498D01*
X87891414Y-117912904D01*
X87891407Y-117912909D01*
X87812909Y-117991407D01*
X87812904Y-117991414D01*
X87762498Y-118090341D01*
X87745131Y-118199997D01*
X66250000Y-118199997D01*
X66250000Y-113799997D01*
X83345131Y-113799997D01*
X83345131Y-113800002D01*
X83362498Y-113909658D01*
X83412904Y-114008585D01*
X83412909Y-114008592D01*
X83491407Y-114087090D01*
X83491410Y-114087092D01*
X83491413Y-114087095D01*
X83590339Y-114137500D01*
X83590341Y-114137501D01*
X83699998Y-114154869D01*
X83700000Y-114154869D01*
X83700002Y-114154869D01*
X83809658Y-114137501D01*
X83809659Y-114137500D01*
X83809661Y-114137500D01*
X83908587Y-114087095D01*
X83987095Y-114008587D01*
X84037500Y-113909661D01*
X84037500Y-113909659D01*
X84037501Y-113909658D01*
X84054869Y-113800002D01*
X84054869Y-113799997D01*
X84037501Y-113690341D01*
X84037500Y-113690339D01*
X83987095Y-113591413D01*
X83987092Y-113591410D01*
X83987090Y-113591407D01*
X83908592Y-113512909D01*
X83908588Y-113512906D01*
X83908587Y-113512905D01*
X83904743Y-113510946D01*
X83809658Y-113462498D01*
X83700002Y-113445131D01*
X83699998Y-113445131D01*
X83590341Y-113462498D01*
X83491414Y-113512904D01*
X83491407Y-113512909D01*
X83412909Y-113591407D01*
X83412904Y-113591414D01*
X83362498Y-113690341D01*
X83345131Y-113799997D01*
X66250000Y-113799997D01*
X66250000Y-112999997D01*
X87945128Y-112999997D01*
X87945128Y-113000002D01*
X87962495Y-113109658D01*
X88012901Y-113208585D01*
X88012906Y-113208592D01*
X88091404Y-113287090D01*
X88091407Y-113287092D01*
X88091410Y-113287095D01*
X88190336Y-113337500D01*
X88190338Y-113337501D01*
X88299995Y-113354869D01*
X88299997Y-113354869D01*
X88299999Y-113354869D01*
X88409655Y-113337501D01*
X88409656Y-113337500D01*
X88409658Y-113337500D01*
X88508584Y-113287095D01*
X88562318Y-113233360D01*
X88623639Y-113199877D01*
X88693331Y-113204861D01*
X88737679Y-113233362D01*
X88791407Y-113287090D01*
X88791410Y-113287092D01*
X88791413Y-113287095D01*
X88890339Y-113337500D01*
X88890341Y-113337501D01*
X88999998Y-113354869D01*
X89000000Y-113354869D01*
X89000002Y-113354869D01*
X89109658Y-113337501D01*
X89109659Y-113337500D01*
X89109661Y-113337500D01*
X89208587Y-113287095D01*
X89287095Y-113208587D01*
X89337500Y-113109661D01*
X89337500Y-113109659D01*
X89337501Y-113109658D01*
X89354869Y-113000002D01*
X89354869Y-112999997D01*
X89337501Y-112890341D01*
X89288992Y-112795137D01*
X89287095Y-112791413D01*
X89287092Y-112791410D01*
X89287090Y-112791407D01*
X89208592Y-112712909D01*
X89208588Y-112712906D01*
X89208587Y-112712905D01*
X89204743Y-112710946D01*
X89109658Y-112662498D01*
X89000002Y-112645131D01*
X88999998Y-112645131D01*
X88890341Y-112662498D01*
X88791414Y-112712904D01*
X88791410Y-112712906D01*
X88737679Y-112766638D01*
X88676355Y-112800122D01*
X88606663Y-112795137D01*
X88562317Y-112766637D01*
X88508589Y-112712909D01*
X88508585Y-112712906D01*
X88508584Y-112712905D01*
X88504740Y-112710946D01*
X88409655Y-112662498D01*
X88299999Y-112645131D01*
X88299995Y-112645131D01*
X88190338Y-112662498D01*
X88091411Y-112712904D01*
X88091404Y-112712909D01*
X88012906Y-112791407D01*
X88012901Y-112791414D01*
X87962495Y-112890341D01*
X87945128Y-112999997D01*
X66250000Y-112999997D01*
X66250000Y-108800000D01*
X66400000Y-108800000D01*
X66400000Y-107999997D01*
X80045131Y-107999997D01*
X80045131Y-108000002D01*
X80062498Y-108109658D01*
X80112904Y-108208585D01*
X80112909Y-108208592D01*
X80191407Y-108287090D01*
X80191410Y-108287092D01*
X80191413Y-108287095D01*
X80233590Y-108308585D01*
X80290341Y-108337501D01*
X80399998Y-108354869D01*
X80400000Y-108354869D01*
X80400002Y-108354869D01*
X80509658Y-108337501D01*
X80509659Y-108337500D01*
X80509661Y-108337500D01*
X80608587Y-108287095D01*
X80665415Y-108230267D01*
X82123284Y-108230267D01*
X82282053Y-108285823D01*
X82282058Y-108285824D01*
X82449996Y-108304746D01*
X82450004Y-108304746D01*
X82617938Y-108285824D01*
X82617943Y-108285823D01*
X82776713Y-108230267D01*
X82776714Y-108230267D01*
X83398284Y-108230267D01*
X83557053Y-108285823D01*
X83557058Y-108285824D01*
X83724996Y-108304746D01*
X83725004Y-108304746D01*
X83892938Y-108285824D01*
X83892943Y-108285823D01*
X84051713Y-108230267D01*
X84051714Y-108230267D01*
X84673284Y-108230267D01*
X84832053Y-108285823D01*
X84832058Y-108285824D01*
X84999996Y-108304746D01*
X85000004Y-108304746D01*
X85167938Y-108285824D01*
X85167943Y-108285823D01*
X85326713Y-108230267D01*
X85326714Y-108230267D01*
X85948284Y-108230267D01*
X86107053Y-108285823D01*
X86107058Y-108285824D01*
X86274996Y-108304746D01*
X86275004Y-108304746D01*
X86442938Y-108285824D01*
X86442943Y-108285823D01*
X86601713Y-108230267D01*
X86601714Y-108230267D01*
X87223284Y-108230267D01*
X87382053Y-108285823D01*
X87382058Y-108285824D01*
X87549996Y-108304746D01*
X87550004Y-108304746D01*
X87717938Y-108285824D01*
X87717943Y-108285823D01*
X87876713Y-108230267D01*
X87876714Y-108230267D01*
X87550001Y-107903554D01*
X87550000Y-107903554D01*
X87223284Y-108230267D01*
X86601714Y-108230267D01*
X86275001Y-107903554D01*
X86275000Y-107903554D01*
X85948284Y-108230267D01*
X85326714Y-108230267D01*
X85000001Y-107903554D01*
X85000000Y-107903554D01*
X84673284Y-108230267D01*
X84051714Y-108230267D01*
X83725001Y-107903554D01*
X83725000Y-107903554D01*
X83398284Y-108230267D01*
X82776714Y-108230267D01*
X82450001Y-107903554D01*
X82450000Y-107903554D01*
X82123284Y-108230267D01*
X80665415Y-108230267D01*
X80687095Y-108208587D01*
X80737500Y-108109661D01*
X80737500Y-108109659D01*
X80737501Y-108109658D01*
X80754869Y-108000002D01*
X80754869Y-107999999D01*
X80749238Y-107964450D01*
X80758192Y-107895157D01*
X80803187Y-107841704D01*
X80815400Y-107834575D01*
X80908587Y-107787095D01*
X80987095Y-107708587D01*
X81037500Y-107609661D01*
X81037500Y-107609659D01*
X81037501Y-107609658D01*
X81046951Y-107549996D01*
X81695254Y-107549996D01*
X81695254Y-107550003D01*
X81714176Y-107717944D01*
X81769731Y-107876713D01*
X82096446Y-107550000D01*
X82066609Y-107520163D01*
X82300000Y-107520163D01*
X82300000Y-107579837D01*
X82322836Y-107634968D01*
X82365032Y-107677164D01*
X82420163Y-107700000D01*
X82479837Y-107700000D01*
X82534968Y-107677164D01*
X82577164Y-107634968D01*
X82600000Y-107579837D01*
X82600000Y-107550000D01*
X82803554Y-107550000D01*
X83087500Y-107833946D01*
X83371446Y-107550000D01*
X83341609Y-107520163D01*
X83575000Y-107520163D01*
X83575000Y-107579837D01*
X83597836Y-107634968D01*
X83640032Y-107677164D01*
X83695163Y-107700000D01*
X83754837Y-107700000D01*
X83809968Y-107677164D01*
X83852164Y-107634968D01*
X83875000Y-107579837D01*
X83875000Y-107550000D01*
X84078554Y-107550000D01*
X84362500Y-107833946D01*
X84646446Y-107550000D01*
X84616609Y-107520163D01*
X84850000Y-107520163D01*
X84850000Y-107579837D01*
X84872836Y-107634968D01*
X84915032Y-107677164D01*
X84970163Y-107700000D01*
X85029837Y-107700000D01*
X85084968Y-107677164D01*
X85127164Y-107634968D01*
X85150000Y-107579837D01*
X85150000Y-107550000D01*
X85353554Y-107550000D01*
X85637500Y-107833946D01*
X85921446Y-107550000D01*
X85891609Y-107520163D01*
X86125000Y-107520163D01*
X86125000Y-107579837D01*
X86147836Y-107634968D01*
X86190032Y-107677164D01*
X86245163Y-107700000D01*
X86304837Y-107700000D01*
X86359968Y-107677164D01*
X86402164Y-107634968D01*
X86425000Y-107579837D01*
X86425000Y-107550000D01*
X86628554Y-107550000D01*
X86912500Y-107833946D01*
X87196446Y-107550000D01*
X87166609Y-107520163D01*
X87400000Y-107520163D01*
X87400000Y-107579837D01*
X87422836Y-107634968D01*
X87465032Y-107677164D01*
X87520163Y-107700000D01*
X87579837Y-107700000D01*
X87634968Y-107677164D01*
X87677164Y-107634968D01*
X87700000Y-107579837D01*
X87700000Y-107549999D01*
X87903554Y-107549999D01*
X87903554Y-107550001D01*
X88230267Y-107876714D01*
X88230267Y-107876713D01*
X88285823Y-107717943D01*
X88285824Y-107717938D01*
X88304746Y-107550003D01*
X88304746Y-107549996D01*
X88285824Y-107382058D01*
X88285823Y-107382053D01*
X88239614Y-107249997D01*
X88707631Y-107249997D01*
X88707631Y-107250002D01*
X88724998Y-107359658D01*
X88775404Y-107458585D01*
X88775409Y-107458592D01*
X88853907Y-107537090D01*
X88853910Y-107537092D01*
X88853913Y-107537095D01*
X88952839Y-107587500D01*
X88952840Y-107587500D01*
X88952842Y-107587501D01*
X88962125Y-107590518D01*
X88960907Y-107594263D01*
X89006652Y-107615931D01*
X89043603Y-107675230D01*
X89042628Y-107745093D01*
X89004038Y-107803339D01*
X88997033Y-107808822D01*
X88991409Y-107812907D01*
X88912909Y-107891407D01*
X88912904Y-107891414D01*
X88862498Y-107990341D01*
X88845131Y-108099997D01*
X88845131Y-108100002D01*
X88862498Y-108209658D01*
X88912904Y-108308585D01*
X88912909Y-108308592D01*
X88991407Y-108387090D01*
X88991410Y-108387092D01*
X88991413Y-108387095D01*
X89022093Y-108402727D01*
X89090341Y-108437501D01*
X89199998Y-108454869D01*
X89200000Y-108454869D01*
X89200002Y-108454869D01*
X89309658Y-108437501D01*
X89309659Y-108437500D01*
X89309661Y-108437500D01*
X89408587Y-108387095D01*
X89487095Y-108308587D01*
X89537500Y-108209661D01*
X89537500Y-108209659D01*
X89537501Y-108209658D01*
X89554869Y-108100002D01*
X89554869Y-108099997D01*
X89537501Y-107990341D01*
X89524309Y-107964450D01*
X89487095Y-107891413D01*
X89487092Y-107891410D01*
X89487090Y-107891407D01*
X89408592Y-107812909D01*
X89408588Y-107812906D01*
X89408587Y-107812905D01*
X89383253Y-107799997D01*
X90345131Y-107799997D01*
X90345131Y-107800002D01*
X90362498Y-107909658D01*
X90412904Y-108008585D01*
X90412909Y-108008592D01*
X90491407Y-108087090D01*
X90491410Y-108087092D01*
X90491413Y-108087095D01*
X90535696Y-108109658D01*
X90590341Y-108137501D01*
X90699998Y-108154869D01*
X90700000Y-108154869D01*
X90700002Y-108154869D01*
X90809658Y-108137501D01*
X90809659Y-108137500D01*
X90809661Y-108137500D01*
X90908587Y-108087095D01*
X90987095Y-108008587D01*
X91037500Y-107909661D01*
X91037500Y-107909659D01*
X91037501Y-107909658D01*
X91054869Y-107800002D01*
X91054869Y-107799997D01*
X91037501Y-107690341D01*
X91029802Y-107675230D01*
X90987095Y-107591413D01*
X90987092Y-107591410D01*
X90987090Y-107591407D01*
X90908592Y-107512909D01*
X90908588Y-107512906D01*
X90908587Y-107512905D01*
X90883263Y-107500002D01*
X90809658Y-107462498D01*
X90700002Y-107445131D01*
X90699998Y-107445131D01*
X90590341Y-107462498D01*
X90491414Y-107512904D01*
X90491407Y-107512909D01*
X90412909Y-107591407D01*
X90412904Y-107591414D01*
X90362498Y-107690341D01*
X90345131Y-107799997D01*
X89383253Y-107799997D01*
X89309661Y-107762500D01*
X89309660Y-107762499D01*
X89309657Y-107762498D01*
X89300375Y-107759482D01*
X89301580Y-107755771D01*
X89255629Y-107733874D01*
X89218818Y-107674488D01*
X89219957Y-107604627D01*
X89258685Y-107546473D01*
X89265474Y-107541171D01*
X89271076Y-107537100D01*
X89271087Y-107537095D01*
X89349595Y-107458587D01*
X89400000Y-107359661D01*
X89400000Y-107359659D01*
X89400001Y-107359658D01*
X89417369Y-107250002D01*
X89417369Y-107249997D01*
X89400001Y-107140341D01*
X89373077Y-107087500D01*
X89349595Y-107041413D01*
X89349592Y-107041410D01*
X89349590Y-107041407D01*
X89271092Y-106962909D01*
X89271088Y-106962906D01*
X89271087Y-106962905D01*
X89262612Y-106958587D01*
X89172158Y-106912498D01*
X89062502Y-106895131D01*
X89062498Y-106895131D01*
X88952841Y-106912498D01*
X88853914Y-106962904D01*
X88853907Y-106962909D01*
X88775409Y-107041407D01*
X88775404Y-107041414D01*
X88724998Y-107140341D01*
X88707631Y-107249997D01*
X88239614Y-107249997D01*
X88230267Y-107223285D01*
X88230267Y-107223284D01*
X87903554Y-107549999D01*
X87700000Y-107549999D01*
X87700000Y-107520163D01*
X87677164Y-107465032D01*
X87634968Y-107422836D01*
X87579837Y-107400000D01*
X87520163Y-107400000D01*
X87465032Y-107422836D01*
X87422836Y-107465032D01*
X87400000Y-107520163D01*
X87166609Y-107520163D01*
X86912500Y-107266054D01*
X86628554Y-107550000D01*
X86425000Y-107550000D01*
X86425000Y-107520163D01*
X86402164Y-107465032D01*
X86359968Y-107422836D01*
X86304837Y-107400000D01*
X86245163Y-107400000D01*
X86190032Y-107422836D01*
X86147836Y-107465032D01*
X86125000Y-107520163D01*
X85891609Y-107520163D01*
X85637500Y-107266054D01*
X85353554Y-107550000D01*
X85150000Y-107550000D01*
X85150000Y-107520163D01*
X85127164Y-107465032D01*
X85084968Y-107422836D01*
X85029837Y-107400000D01*
X84970163Y-107400000D01*
X84915032Y-107422836D01*
X84872836Y-107465032D01*
X84850000Y-107520163D01*
X84616609Y-107520163D01*
X84362500Y-107266054D01*
X84078554Y-107550000D01*
X83875000Y-107550000D01*
X83875000Y-107520163D01*
X83852164Y-107465032D01*
X83809968Y-107422836D01*
X83754837Y-107400000D01*
X83695163Y-107400000D01*
X83640032Y-107422836D01*
X83597836Y-107465032D01*
X83575000Y-107520163D01*
X83341609Y-107520163D01*
X83087500Y-107266054D01*
X82803554Y-107550000D01*
X82600000Y-107550000D01*
X82600000Y-107520163D01*
X82577164Y-107465032D01*
X82534968Y-107422836D01*
X82479837Y-107400000D01*
X82420163Y-107400000D01*
X82365032Y-107422836D01*
X82322836Y-107465032D01*
X82300000Y-107520163D01*
X82066609Y-107520163D01*
X81769731Y-107223285D01*
X81714176Y-107382055D01*
X81695254Y-107549996D01*
X81046951Y-107549996D01*
X81054869Y-107500002D01*
X81054869Y-107499997D01*
X81037501Y-107390341D01*
X81021867Y-107359658D01*
X80987095Y-107291413D01*
X80987092Y-107291410D01*
X80987090Y-107291407D01*
X80908592Y-107212909D01*
X80908588Y-107212906D01*
X80908587Y-107212905D01*
X80876284Y-107196446D01*
X80809658Y-107162498D01*
X80700002Y-107145131D01*
X80699998Y-107145131D01*
X80590341Y-107162498D01*
X80491414Y-107212904D01*
X80491407Y-107212909D01*
X80412909Y-107291407D01*
X80412904Y-107291414D01*
X80362498Y-107390341D01*
X80345131Y-107499997D01*
X80345131Y-107500003D01*
X80350761Y-107535551D01*
X80341806Y-107604844D01*
X80296810Y-107658296D01*
X80284585Y-107665431D01*
X80191413Y-107712905D01*
X80191412Y-107712906D01*
X80191407Y-107712909D01*
X80112909Y-107791407D01*
X80112904Y-107791414D01*
X80062498Y-107890341D01*
X80045131Y-107999997D01*
X66400000Y-107999997D01*
X66400000Y-107900000D01*
X66250000Y-107900000D01*
X66250000Y-106912500D01*
X82166054Y-106912500D01*
X82450000Y-107196446D01*
X82733946Y-106912500D01*
X83441054Y-106912500D01*
X83725000Y-107196446D01*
X84008946Y-106912500D01*
X84716054Y-106912500D01*
X85000000Y-107196446D01*
X85283946Y-106912500D01*
X85991054Y-106912500D01*
X86275000Y-107196446D01*
X86558946Y-106912500D01*
X87266054Y-106912500D01*
X87550000Y-107196446D01*
X87833946Y-106912500D01*
X87671443Y-106749997D01*
X89632631Y-106749997D01*
X89632631Y-106750002D01*
X89649998Y-106859658D01*
X89700404Y-106958585D01*
X89700409Y-106958592D01*
X89778907Y-107037090D01*
X89778910Y-107037092D01*
X89778913Y-107037095D01*
X89787390Y-107041414D01*
X89877841Y-107087501D01*
X89987498Y-107104869D01*
X89987500Y-107104869D01*
X89987502Y-107104869D01*
X90097158Y-107087501D01*
X90097159Y-107087500D01*
X90097161Y-107087500D01*
X90196087Y-107037095D01*
X90274595Y-106958587D01*
X90325000Y-106859661D01*
X90325000Y-106859659D01*
X90325001Y-106859658D01*
X90342369Y-106750002D01*
X90342369Y-106749997D01*
X90325001Y-106640341D01*
X90318995Y-106628554D01*
X90274595Y-106541413D01*
X90274592Y-106541410D01*
X90274590Y-106541407D01*
X90196092Y-106462909D01*
X90196088Y-106462906D01*
X90196087Y-106462905D01*
X90156909Y-106442943D01*
X90097158Y-106412498D01*
X89987502Y-106395131D01*
X89987498Y-106395131D01*
X89877841Y-106412498D01*
X89778914Y-106462904D01*
X89778907Y-106462909D01*
X89700409Y-106541407D01*
X89700404Y-106541414D01*
X89649998Y-106640341D01*
X89632631Y-106749997D01*
X87671443Y-106749997D01*
X87550000Y-106628554D01*
X87266054Y-106912500D01*
X86558946Y-106912500D01*
X86275000Y-106628554D01*
X85991054Y-106912500D01*
X85283946Y-106912500D01*
X85000000Y-106628554D01*
X84716054Y-106912500D01*
X84008946Y-106912500D01*
X83725000Y-106628554D01*
X83441054Y-106912500D01*
X82733946Y-106912500D01*
X82450000Y-106628554D01*
X82166054Y-106912500D01*
X66250000Y-106912500D01*
X66250000Y-106274996D01*
X81695254Y-106274996D01*
X81695254Y-106275003D01*
X81714176Y-106442944D01*
X81769731Y-106601713D01*
X82096446Y-106275000D01*
X82066609Y-106245163D01*
X82300000Y-106245163D01*
X82300000Y-106304837D01*
X82322836Y-106359968D01*
X82365032Y-106402164D01*
X82420163Y-106425000D01*
X82479837Y-106425000D01*
X82534968Y-106402164D01*
X82577164Y-106359968D01*
X82600000Y-106304837D01*
X82600000Y-106275000D01*
X82803554Y-106275000D01*
X83087500Y-106558946D01*
X83371446Y-106275000D01*
X83341609Y-106245163D01*
X83575000Y-106245163D01*
X83575000Y-106304837D01*
X83597836Y-106359968D01*
X83640032Y-106402164D01*
X83695163Y-106425000D01*
X83754837Y-106425000D01*
X83809968Y-106402164D01*
X83852164Y-106359968D01*
X83875000Y-106304837D01*
X83875000Y-106275000D01*
X84078554Y-106275000D01*
X84362500Y-106558946D01*
X84646446Y-106275000D01*
X84616609Y-106245163D01*
X84850000Y-106245163D01*
X84850000Y-106304837D01*
X84872836Y-106359968D01*
X84915032Y-106402164D01*
X84970163Y-106425000D01*
X85029837Y-106425000D01*
X85084968Y-106402164D01*
X85127164Y-106359968D01*
X85150000Y-106304837D01*
X85150000Y-106275000D01*
X85353554Y-106275000D01*
X85637500Y-106558946D01*
X85921446Y-106275000D01*
X85891609Y-106245163D01*
X86125000Y-106245163D01*
X86125000Y-106304837D01*
X86147836Y-106359968D01*
X86190032Y-106402164D01*
X86245163Y-106425000D01*
X86304837Y-106425000D01*
X86359968Y-106402164D01*
X86402164Y-106359968D01*
X86425000Y-106304837D01*
X86425000Y-106275000D01*
X86628554Y-106275000D01*
X86912500Y-106558946D01*
X87196446Y-106275000D01*
X87166609Y-106245163D01*
X87400000Y-106245163D01*
X87400000Y-106304837D01*
X87422836Y-106359968D01*
X87465032Y-106402164D01*
X87520163Y-106425000D01*
X87579837Y-106425000D01*
X87634968Y-106402164D01*
X87677164Y-106359968D01*
X87700000Y-106304837D01*
X87700000Y-106274999D01*
X87903554Y-106274999D01*
X87903554Y-106275001D01*
X88230267Y-106601714D01*
X88230267Y-106601713D01*
X88285823Y-106442943D01*
X88285824Y-106442938D01*
X88304746Y-106275003D01*
X88304746Y-106274996D01*
X88285824Y-106107058D01*
X88285823Y-106107053D01*
X88230267Y-105948285D01*
X88230267Y-105948284D01*
X87903554Y-106274999D01*
X87700000Y-106274999D01*
X87700000Y-106245163D01*
X87677164Y-106190032D01*
X87634968Y-106147836D01*
X87579837Y-106125000D01*
X87520163Y-106125000D01*
X87465032Y-106147836D01*
X87422836Y-106190032D01*
X87400000Y-106245163D01*
X87166609Y-106245163D01*
X86912500Y-105991054D01*
X86628554Y-106275000D01*
X86425000Y-106275000D01*
X86425000Y-106245163D01*
X86402164Y-106190032D01*
X86359968Y-106147836D01*
X86304837Y-106125000D01*
X86245163Y-106125000D01*
X86190032Y-106147836D01*
X86147836Y-106190032D01*
X86125000Y-106245163D01*
X85891609Y-106245163D01*
X85637500Y-105991054D01*
X85353554Y-106275000D01*
X85150000Y-106275000D01*
X85150000Y-106245163D01*
X85127164Y-106190032D01*
X85084968Y-106147836D01*
X85029837Y-106125000D01*
X84970163Y-106125000D01*
X84915032Y-106147836D01*
X84872836Y-106190032D01*
X84850000Y-106245163D01*
X84616609Y-106245163D01*
X84362500Y-105991054D01*
X84078554Y-106275000D01*
X83875000Y-106275000D01*
X83875000Y-106245163D01*
X83852164Y-106190032D01*
X83809968Y-106147836D01*
X83754837Y-106125000D01*
X83695163Y-106125000D01*
X83640032Y-106147836D01*
X83597836Y-106190032D01*
X83575000Y-106245163D01*
X83341609Y-106245163D01*
X83087500Y-105991054D01*
X82803554Y-106275000D01*
X82600000Y-106275000D01*
X82600000Y-106245163D01*
X82577164Y-106190032D01*
X82534968Y-106147836D01*
X82479837Y-106125000D01*
X82420163Y-106125000D01*
X82365032Y-106147836D01*
X82322836Y-106190032D01*
X82300000Y-106245163D01*
X82066609Y-106245163D01*
X81769731Y-105948285D01*
X81714176Y-106107055D01*
X81695254Y-106274996D01*
X66250000Y-106274996D01*
X66250000Y-105637500D01*
X82166054Y-105637500D01*
X82450000Y-105921446D01*
X82733946Y-105637500D01*
X83441054Y-105637500D01*
X83725000Y-105921446D01*
X84008946Y-105637500D01*
X84716054Y-105637500D01*
X85000000Y-105921446D01*
X85283946Y-105637500D01*
X85991054Y-105637500D01*
X86275000Y-105921446D01*
X86558946Y-105637500D01*
X87266054Y-105637500D01*
X87550000Y-105921446D01*
X87721449Y-105749997D01*
X89645131Y-105749997D01*
X89645131Y-105750002D01*
X89662498Y-105859658D01*
X89712904Y-105958585D01*
X89712909Y-105958592D01*
X89791407Y-106037090D01*
X89791410Y-106037092D01*
X89791413Y-106037095D01*
X89890339Y-106087500D01*
X89890341Y-106087501D01*
X89999998Y-106104869D01*
X90000000Y-106104869D01*
X90000002Y-106104869D01*
X90109658Y-106087501D01*
X90109659Y-106087500D01*
X90109661Y-106087500D01*
X90208587Y-106037095D01*
X90287095Y-105958587D01*
X90337500Y-105859661D01*
X90337500Y-105859659D01*
X90337501Y-105859658D01*
X90354869Y-105750002D01*
X90354869Y-105749997D01*
X90337501Y-105640341D01*
X90310577Y-105587500D01*
X90287095Y-105541413D01*
X90287092Y-105541410D01*
X90287090Y-105541407D01*
X90208592Y-105462909D01*
X90208588Y-105462906D01*
X90208587Y-105462905D01*
X90200112Y-105458587D01*
X90109658Y-105412498D01*
X90000002Y-105395131D01*
X89999998Y-105395131D01*
X89890341Y-105412498D01*
X89791414Y-105462904D01*
X89791407Y-105462909D01*
X89712909Y-105541407D01*
X89712904Y-105541414D01*
X89662498Y-105640341D01*
X89645131Y-105749997D01*
X87721449Y-105749997D01*
X87833946Y-105637500D01*
X87550000Y-105353554D01*
X87266054Y-105637500D01*
X86558946Y-105637500D01*
X86275000Y-105353554D01*
X85991054Y-105637500D01*
X85283946Y-105637500D01*
X85000000Y-105353554D01*
X84716054Y-105637500D01*
X84008946Y-105637500D01*
X83725000Y-105353554D01*
X83441054Y-105637500D01*
X82733946Y-105637500D01*
X82450000Y-105353554D01*
X82166054Y-105637500D01*
X66250000Y-105637500D01*
X66250000Y-104799997D01*
X80145131Y-104799997D01*
X80145131Y-104800002D01*
X80162498Y-104909658D01*
X80212904Y-105008585D01*
X80212909Y-105008592D01*
X80291407Y-105087090D01*
X80291410Y-105087092D01*
X80291413Y-105087095D01*
X80390339Y-105137500D01*
X80390341Y-105137501D01*
X80499998Y-105154869D01*
X80500000Y-105154869D01*
X80500002Y-105154869D01*
X80609658Y-105137501D01*
X80609659Y-105137500D01*
X80609661Y-105137500D01*
X80708587Y-105087095D01*
X80787095Y-105008587D01*
X80791472Y-104999996D01*
X81695254Y-104999996D01*
X81695254Y-105000003D01*
X81714176Y-105167944D01*
X81769731Y-105326713D01*
X82096446Y-105000000D01*
X82066609Y-104970163D01*
X82300000Y-104970163D01*
X82300000Y-105029837D01*
X82322836Y-105084968D01*
X82365032Y-105127164D01*
X82420163Y-105150000D01*
X82479837Y-105150000D01*
X82534968Y-105127164D01*
X82577164Y-105084968D01*
X82600000Y-105029837D01*
X82600000Y-105000000D01*
X82803554Y-105000000D01*
X83087500Y-105283946D01*
X83371446Y-105000000D01*
X83341609Y-104970163D01*
X83575000Y-104970163D01*
X83575000Y-105029837D01*
X83597836Y-105084968D01*
X83640032Y-105127164D01*
X83695163Y-105150000D01*
X83754837Y-105150000D01*
X83809968Y-105127164D01*
X83852164Y-105084968D01*
X83875000Y-105029837D01*
X83875000Y-105000000D01*
X84078554Y-105000000D01*
X84362500Y-105283946D01*
X84646446Y-105000000D01*
X84616609Y-104970163D01*
X84850000Y-104970163D01*
X84850000Y-105029837D01*
X84872836Y-105084968D01*
X84915032Y-105127164D01*
X84970163Y-105150000D01*
X85029837Y-105150000D01*
X85084968Y-105127164D01*
X85127164Y-105084968D01*
X85150000Y-105029837D01*
X85150000Y-105000000D01*
X85353554Y-105000000D01*
X85637500Y-105283946D01*
X85921446Y-105000000D01*
X85891609Y-104970163D01*
X86125000Y-104970163D01*
X86125000Y-105029837D01*
X86147836Y-105084968D01*
X86190032Y-105127164D01*
X86245163Y-105150000D01*
X86304837Y-105150000D01*
X86359968Y-105127164D01*
X86402164Y-105084968D01*
X86425000Y-105029837D01*
X86425000Y-105000000D01*
X86628554Y-105000000D01*
X86912500Y-105283946D01*
X87196446Y-105000000D01*
X87166609Y-104970163D01*
X87400000Y-104970163D01*
X87400000Y-105029837D01*
X87422836Y-105084968D01*
X87465032Y-105127164D01*
X87520163Y-105150000D01*
X87579837Y-105150000D01*
X87634968Y-105127164D01*
X87677164Y-105084968D01*
X87700000Y-105029837D01*
X87700000Y-104999999D01*
X87903554Y-104999999D01*
X87903554Y-105000001D01*
X88230267Y-105326714D01*
X88230267Y-105326713D01*
X88257111Y-105249997D01*
X88695131Y-105249997D01*
X88695131Y-105250002D01*
X88712498Y-105359658D01*
X88762904Y-105458585D01*
X88762909Y-105458592D01*
X88841407Y-105537090D01*
X88841410Y-105537092D01*
X88841413Y-105537095D01*
X88849890Y-105541414D01*
X88940341Y-105587501D01*
X89049998Y-105604869D01*
X89050000Y-105604869D01*
X89050002Y-105604869D01*
X89159658Y-105587501D01*
X89159659Y-105587500D01*
X89159661Y-105587500D01*
X89258587Y-105537095D01*
X89337095Y-105458587D01*
X89387500Y-105359661D01*
X89387500Y-105359659D01*
X89387501Y-105359658D01*
X89404869Y-105250002D01*
X89404869Y-105249999D01*
X89392846Y-105174094D01*
X89401800Y-105104801D01*
X89446796Y-105051348D01*
X89513547Y-105030708D01*
X89571613Y-105044210D01*
X89630721Y-105074327D01*
X89740378Y-105091695D01*
X89740380Y-105091695D01*
X89740382Y-105091695D01*
X89850038Y-105074327D01*
X89850039Y-105074326D01*
X89850041Y-105074326D01*
X89948967Y-105023921D01*
X90027475Y-104945413D01*
X90077880Y-104846487D01*
X90077880Y-104846485D01*
X90077881Y-104846484D01*
X90095249Y-104736828D01*
X90095249Y-104736823D01*
X90077881Y-104627167D01*
X90059664Y-104591414D01*
X90027475Y-104528239D01*
X90027472Y-104528236D01*
X90027470Y-104528233D01*
X89959113Y-104459876D01*
X89925628Y-104398553D01*
X89930612Y-104328861D01*
X89959113Y-104284514D01*
X90040514Y-104203112D01*
X90040519Y-104203107D01*
X90090924Y-104104181D01*
X90090924Y-104104179D01*
X90090925Y-104104178D01*
X90108293Y-103994522D01*
X90108293Y-103994517D01*
X90090925Y-103884861D01*
X90052765Y-103809968D01*
X90040519Y-103785933D01*
X90040516Y-103785930D01*
X90040514Y-103785927D01*
X89962016Y-103707429D01*
X89962012Y-103707426D01*
X89962011Y-103707425D01*
X89958167Y-103705466D01*
X89863082Y-103657018D01*
X89753426Y-103639651D01*
X89753422Y-103639651D01*
X89643765Y-103657018D01*
X89544838Y-103707424D01*
X89544831Y-103707429D01*
X89466333Y-103785927D01*
X89466328Y-103785934D01*
X89415922Y-103884861D01*
X89398555Y-103994517D01*
X89398555Y-103994522D01*
X89415922Y-104104178D01*
X89466328Y-104203105D01*
X89466333Y-104203112D01*
X89534691Y-104271470D01*
X89568176Y-104332793D01*
X89563192Y-104402485D01*
X89534691Y-104446832D01*
X89453289Y-104528233D01*
X89453284Y-104528240D01*
X89402878Y-104627167D01*
X89385511Y-104736823D01*
X89385511Y-104736828D01*
X89397533Y-104812732D01*
X89388578Y-104882026D01*
X89343582Y-104935478D01*
X89276831Y-104956117D01*
X89218766Y-104942615D01*
X89159658Y-104912498D01*
X89050002Y-104895131D01*
X89049998Y-104895131D01*
X88940341Y-104912498D01*
X88841414Y-104962904D01*
X88841407Y-104962909D01*
X88762909Y-105041407D01*
X88762904Y-105041414D01*
X88712498Y-105140341D01*
X88695131Y-105249997D01*
X88257111Y-105249997D01*
X88285823Y-105167943D01*
X88285824Y-105167938D01*
X88304746Y-105000003D01*
X88304746Y-104999996D01*
X88285824Y-104832058D01*
X88285823Y-104832053D01*
X88230267Y-104673285D01*
X88230267Y-104673284D01*
X87903554Y-104999999D01*
X87700000Y-104999999D01*
X87700000Y-104970163D01*
X87677164Y-104915032D01*
X87634968Y-104872836D01*
X87579837Y-104850000D01*
X87520163Y-104850000D01*
X87465032Y-104872836D01*
X87422836Y-104915032D01*
X87400000Y-104970163D01*
X87166609Y-104970163D01*
X86912500Y-104716054D01*
X86628554Y-105000000D01*
X86425000Y-105000000D01*
X86425000Y-104970163D01*
X86402164Y-104915032D01*
X86359968Y-104872836D01*
X86304837Y-104850000D01*
X86245163Y-104850000D01*
X86190032Y-104872836D01*
X86147836Y-104915032D01*
X86125000Y-104970163D01*
X85891609Y-104970163D01*
X85637500Y-104716054D01*
X85353554Y-105000000D01*
X85150000Y-105000000D01*
X85150000Y-104970163D01*
X85127164Y-104915032D01*
X85084968Y-104872836D01*
X85029837Y-104850000D01*
X84970163Y-104850000D01*
X84915032Y-104872836D01*
X84872836Y-104915032D01*
X84850000Y-104970163D01*
X84616609Y-104970163D01*
X84362500Y-104716054D01*
X84078554Y-105000000D01*
X83875000Y-105000000D01*
X83875000Y-104970163D01*
X83852164Y-104915032D01*
X83809968Y-104872836D01*
X83754837Y-104850000D01*
X83695163Y-104850000D01*
X83640032Y-104872836D01*
X83597836Y-104915032D01*
X83575000Y-104970163D01*
X83341609Y-104970163D01*
X83087500Y-104716054D01*
X82803554Y-105000000D01*
X82600000Y-105000000D01*
X82600000Y-104970163D01*
X82577164Y-104915032D01*
X82534968Y-104872836D01*
X82479837Y-104850000D01*
X82420163Y-104850000D01*
X82365032Y-104872836D01*
X82322836Y-104915032D01*
X82300000Y-104970163D01*
X82066609Y-104970163D01*
X81769731Y-104673285D01*
X81714176Y-104832055D01*
X81695254Y-104999996D01*
X80791472Y-104999996D01*
X80837500Y-104909661D01*
X80837500Y-104909659D01*
X80837501Y-104909658D01*
X80854869Y-104800002D01*
X80854869Y-104799999D01*
X80846445Y-104746817D01*
X80855399Y-104677524D01*
X80900394Y-104624071D01*
X80949520Y-104604945D01*
X81059658Y-104587501D01*
X81059659Y-104587500D01*
X81059661Y-104587500D01*
X81158587Y-104537095D01*
X81237095Y-104458587D01*
X81286053Y-104362500D01*
X82166054Y-104362500D01*
X82450000Y-104646446D01*
X82733946Y-104362500D01*
X83441054Y-104362500D01*
X83725000Y-104646446D01*
X84008946Y-104362500D01*
X84716054Y-104362500D01*
X85000000Y-104646446D01*
X85283946Y-104362500D01*
X85991054Y-104362500D01*
X86275000Y-104646446D01*
X86558946Y-104362500D01*
X87266054Y-104362500D01*
X87550000Y-104646446D01*
X87833946Y-104362500D01*
X87550000Y-104078554D01*
X87266054Y-104362500D01*
X86558946Y-104362500D01*
X86275000Y-104078554D01*
X85991054Y-104362500D01*
X85283946Y-104362500D01*
X85000000Y-104078554D01*
X84716054Y-104362500D01*
X84008946Y-104362500D01*
X83725000Y-104078554D01*
X83441054Y-104362500D01*
X82733946Y-104362500D01*
X82450000Y-104078554D01*
X82166054Y-104362500D01*
X81286053Y-104362500D01*
X81287500Y-104359661D01*
X81287500Y-104359659D01*
X81287501Y-104359658D01*
X81304869Y-104250002D01*
X81304869Y-104249997D01*
X81287501Y-104140341D01*
X81287500Y-104140339D01*
X81237095Y-104041413D01*
X81237092Y-104041410D01*
X81237090Y-104041407D01*
X81158592Y-103962909D01*
X81158588Y-103962906D01*
X81158587Y-103962905D01*
X81154743Y-103960946D01*
X81059658Y-103912498D01*
X80950002Y-103895131D01*
X80949998Y-103895131D01*
X80840341Y-103912498D01*
X80741414Y-103962904D01*
X80741407Y-103962909D01*
X80662909Y-104041407D01*
X80662904Y-104041414D01*
X80612498Y-104140341D01*
X80595131Y-104249997D01*
X80595131Y-104250002D01*
X80603554Y-104303183D01*
X80594599Y-104372477D01*
X80549603Y-104425929D01*
X80500480Y-104445054D01*
X80390341Y-104462499D01*
X80291414Y-104512904D01*
X80291407Y-104512909D01*
X80212909Y-104591407D01*
X80212904Y-104591414D01*
X80162498Y-104690341D01*
X80145131Y-104799997D01*
X66250000Y-104799997D01*
X66250000Y-103399997D01*
X80045131Y-103399997D01*
X80045131Y-103400002D01*
X80062498Y-103509658D01*
X80112904Y-103608585D01*
X80112909Y-103608592D01*
X80191407Y-103687090D01*
X80191410Y-103687092D01*
X80191413Y-103687095D01*
X80265806Y-103725000D01*
X80290341Y-103737501D01*
X80399998Y-103754869D01*
X80400000Y-103754869D01*
X80400002Y-103754869D01*
X80509658Y-103737501D01*
X80509659Y-103737500D01*
X80509661Y-103737500D01*
X80534202Y-103724996D01*
X81695254Y-103724996D01*
X81695254Y-103725003D01*
X81714176Y-103892944D01*
X81769731Y-104051713D01*
X82096446Y-103725000D01*
X82066609Y-103695163D01*
X82300000Y-103695163D01*
X82300000Y-103754837D01*
X82322836Y-103809968D01*
X82365032Y-103852164D01*
X82420163Y-103875000D01*
X82479837Y-103875000D01*
X82534968Y-103852164D01*
X82577164Y-103809968D01*
X82600000Y-103754837D01*
X82600000Y-103725000D01*
X82803554Y-103725000D01*
X83087500Y-104008946D01*
X83371446Y-103725000D01*
X83341609Y-103695163D01*
X83575000Y-103695163D01*
X83575000Y-103754837D01*
X83597836Y-103809968D01*
X83640032Y-103852164D01*
X83695163Y-103875000D01*
X83754837Y-103875000D01*
X83809968Y-103852164D01*
X83852164Y-103809968D01*
X83875000Y-103754837D01*
X83875000Y-103725000D01*
X84078554Y-103725000D01*
X84362500Y-104008946D01*
X84646446Y-103725000D01*
X84616609Y-103695163D01*
X84850000Y-103695163D01*
X84850000Y-103754837D01*
X84872836Y-103809968D01*
X84915032Y-103852164D01*
X84970163Y-103875000D01*
X85029837Y-103875000D01*
X85084968Y-103852164D01*
X85127164Y-103809968D01*
X85150000Y-103754837D01*
X85150000Y-103725000D01*
X85353554Y-103725000D01*
X85637500Y-104008946D01*
X85921446Y-103725000D01*
X85891609Y-103695163D01*
X86125000Y-103695163D01*
X86125000Y-103754837D01*
X86147836Y-103809968D01*
X86190032Y-103852164D01*
X86245163Y-103875000D01*
X86304837Y-103875000D01*
X86359968Y-103852164D01*
X86402164Y-103809968D01*
X86425000Y-103754837D01*
X86425000Y-103725000D01*
X86628554Y-103725000D01*
X86912500Y-104008946D01*
X87196446Y-103725000D01*
X87166609Y-103695163D01*
X87400000Y-103695163D01*
X87400000Y-103754837D01*
X87422836Y-103809968D01*
X87465032Y-103852164D01*
X87520163Y-103875000D01*
X87579837Y-103875000D01*
X87634968Y-103852164D01*
X87677164Y-103809968D01*
X87700000Y-103754837D01*
X87700000Y-103724999D01*
X87903554Y-103724999D01*
X87903554Y-103725001D01*
X88230267Y-104051714D01*
X88230267Y-104051713D01*
X88285823Y-103892943D01*
X88285824Y-103892938D01*
X88304746Y-103725003D01*
X88304746Y-103724996D01*
X88285824Y-103557058D01*
X88285823Y-103557053D01*
X88230267Y-103398285D01*
X88230267Y-103398284D01*
X87903554Y-103724999D01*
X87700000Y-103724999D01*
X87700000Y-103695163D01*
X87677164Y-103640032D01*
X87634968Y-103597836D01*
X87579837Y-103575000D01*
X87520163Y-103575000D01*
X87465032Y-103597836D01*
X87422836Y-103640032D01*
X87400000Y-103695163D01*
X87166609Y-103695163D01*
X86912500Y-103441054D01*
X86628554Y-103725000D01*
X86425000Y-103725000D01*
X86425000Y-103695163D01*
X86402164Y-103640032D01*
X86359968Y-103597836D01*
X86304837Y-103575000D01*
X86245163Y-103575000D01*
X86190032Y-103597836D01*
X86147836Y-103640032D01*
X86125000Y-103695163D01*
X85891609Y-103695163D01*
X85637500Y-103441054D01*
X85353554Y-103725000D01*
X85150000Y-103725000D01*
X85150000Y-103695163D01*
X85127164Y-103640032D01*
X85084968Y-103597836D01*
X85029837Y-103575000D01*
X84970163Y-103575000D01*
X84915032Y-103597836D01*
X84872836Y-103640032D01*
X84850000Y-103695163D01*
X84616609Y-103695163D01*
X84362500Y-103441054D01*
X84078554Y-103725000D01*
X83875000Y-103725000D01*
X83875000Y-103695163D01*
X83852164Y-103640032D01*
X83809968Y-103597836D01*
X83754837Y-103575000D01*
X83695163Y-103575000D01*
X83640032Y-103597836D01*
X83597836Y-103640032D01*
X83575000Y-103695163D01*
X83341609Y-103695163D01*
X83087500Y-103441054D01*
X82803554Y-103725000D01*
X82600000Y-103725000D01*
X82600000Y-103695163D01*
X82577164Y-103640032D01*
X82534968Y-103597836D01*
X82479837Y-103575000D01*
X82420163Y-103575000D01*
X82365032Y-103597836D01*
X82322836Y-103640032D01*
X82300000Y-103695163D01*
X82066609Y-103695163D01*
X81769731Y-103398285D01*
X81714176Y-103557055D01*
X81695254Y-103724996D01*
X80534202Y-103724996D01*
X80608587Y-103687095D01*
X80687095Y-103608587D01*
X80737500Y-103509661D01*
X80737500Y-103509659D01*
X80737501Y-103509658D01*
X80754869Y-103400002D01*
X80754869Y-103399997D01*
X80737501Y-103290341D01*
X80710368Y-103237090D01*
X80687095Y-103191413D01*
X80687092Y-103191410D01*
X80687090Y-103191407D01*
X80608592Y-103112909D01*
X80608588Y-103112906D01*
X80608587Y-103112905D01*
X80558727Y-103087500D01*
X82166054Y-103087500D01*
X82450000Y-103371446D01*
X82733946Y-103087500D01*
X83441054Y-103087500D01*
X83725000Y-103371446D01*
X84008946Y-103087500D01*
X84716054Y-103087500D01*
X85000000Y-103371446D01*
X85283946Y-103087500D01*
X85991054Y-103087500D01*
X86275000Y-103371446D01*
X86558946Y-103087500D01*
X87266054Y-103087500D01*
X87550000Y-103371446D01*
X87833946Y-103087500D01*
X87550000Y-102803554D01*
X87266054Y-103087500D01*
X86558946Y-103087500D01*
X86275000Y-102803554D01*
X85991054Y-103087500D01*
X85283946Y-103087500D01*
X85000000Y-102803554D01*
X84716054Y-103087500D01*
X84008946Y-103087500D01*
X83725000Y-102803554D01*
X83441054Y-103087500D01*
X82733946Y-103087500D01*
X82450000Y-102803554D01*
X82166054Y-103087500D01*
X80558727Y-103087500D01*
X80509658Y-103062498D01*
X80400002Y-103045131D01*
X80399998Y-103045131D01*
X80290341Y-103062498D01*
X80191414Y-103112904D01*
X80191407Y-103112909D01*
X80112909Y-103191407D01*
X80112904Y-103191414D01*
X80062498Y-103290341D01*
X80045131Y-103399997D01*
X66250000Y-103399997D01*
X66250000Y-101799994D01*
X70494859Y-101799994D01*
X70494859Y-101800005D01*
X70515385Y-102047729D01*
X70515387Y-102047738D01*
X70576412Y-102288717D01*
X70676267Y-102516367D01*
X70776562Y-102669881D01*
X71476212Y-101970233D01*
X71487482Y-102012292D01*
X71559890Y-102137708D01*
X71662292Y-102240110D01*
X71787708Y-102312518D01*
X71829766Y-102323787D01*
X71129943Y-103023609D01*
X71176768Y-103060055D01*
X71176771Y-103060057D01*
X71395385Y-103178364D01*
X71395396Y-103178369D01*
X71630506Y-103259083D01*
X71875707Y-103300000D01*
X72124293Y-103300000D01*
X72369493Y-103259083D01*
X72604603Y-103178369D01*
X72604614Y-103178364D01*
X72823230Y-103060056D01*
X72823236Y-103060051D01*
X72870055Y-103023610D01*
X72870056Y-103023609D01*
X72170233Y-102323787D01*
X72212292Y-102312518D01*
X72337708Y-102240110D01*
X72440110Y-102137708D01*
X72512518Y-102012292D01*
X72523787Y-101970233D01*
X73223435Y-102669882D01*
X73323733Y-102516364D01*
X73423587Y-102288717D01*
X73484612Y-102047738D01*
X73484614Y-102047729D01*
X73505141Y-101800005D01*
X73505141Y-101799999D01*
X75294357Y-101799999D01*
X75294357Y-101800000D01*
X75314884Y-102021535D01*
X75314885Y-102021537D01*
X75375769Y-102235523D01*
X75375775Y-102235538D01*
X75474938Y-102434683D01*
X75474943Y-102434691D01*
X75609020Y-102612238D01*
X75773437Y-102762123D01*
X75773439Y-102762125D01*
X75962595Y-102879245D01*
X75962596Y-102879245D01*
X75962599Y-102879247D01*
X76170060Y-102959618D01*
X76388757Y-103000500D01*
X76388759Y-103000500D01*
X76611241Y-103000500D01*
X76611243Y-103000500D01*
X76829940Y-102959618D01*
X77037401Y-102879247D01*
X77226562Y-102762124D01*
X77384726Y-102617938D01*
X77390979Y-102612238D01*
X77391818Y-102611128D01*
X77513499Y-102449996D01*
X81695254Y-102449996D01*
X81695254Y-102450003D01*
X81714176Y-102617944D01*
X81769731Y-102776713D01*
X82096446Y-102450000D01*
X82066609Y-102420163D01*
X82300000Y-102420163D01*
X82300000Y-102479837D01*
X82322836Y-102534968D01*
X82365032Y-102577164D01*
X82420163Y-102600000D01*
X82479837Y-102600000D01*
X82534968Y-102577164D01*
X82577164Y-102534968D01*
X82600000Y-102479837D01*
X82600000Y-102450000D01*
X82803554Y-102450000D01*
X83087500Y-102733946D01*
X83371446Y-102450000D01*
X83341609Y-102420163D01*
X83575000Y-102420163D01*
X83575000Y-102479837D01*
X83597836Y-102534968D01*
X83640032Y-102577164D01*
X83695163Y-102600000D01*
X83754837Y-102600000D01*
X83809968Y-102577164D01*
X83852164Y-102534968D01*
X83875000Y-102479837D01*
X83875000Y-102450000D01*
X84078554Y-102450000D01*
X84362500Y-102733946D01*
X84646446Y-102450000D01*
X84616609Y-102420163D01*
X84850000Y-102420163D01*
X84850000Y-102479837D01*
X84872836Y-102534968D01*
X84915032Y-102577164D01*
X84970163Y-102600000D01*
X85029837Y-102600000D01*
X85084968Y-102577164D01*
X85127164Y-102534968D01*
X85150000Y-102479837D01*
X85150000Y-102450000D01*
X85353554Y-102450000D01*
X85637500Y-102733946D01*
X85921446Y-102450000D01*
X85891609Y-102420163D01*
X86125000Y-102420163D01*
X86125000Y-102479837D01*
X86147836Y-102534968D01*
X86190032Y-102577164D01*
X86245163Y-102600000D01*
X86304837Y-102600000D01*
X86359968Y-102577164D01*
X86402164Y-102534968D01*
X86425000Y-102479837D01*
X86425000Y-102450000D01*
X86628554Y-102450000D01*
X86912500Y-102733946D01*
X87196446Y-102450000D01*
X87166609Y-102420163D01*
X87400000Y-102420163D01*
X87400000Y-102479837D01*
X87422836Y-102534968D01*
X87465032Y-102577164D01*
X87520163Y-102600000D01*
X87579837Y-102600000D01*
X87634968Y-102577164D01*
X87677164Y-102534968D01*
X87700000Y-102479837D01*
X87700000Y-102420163D01*
X87677164Y-102365032D01*
X87634968Y-102322836D01*
X87579837Y-102300000D01*
X87520163Y-102300000D01*
X87465032Y-102322836D01*
X87422836Y-102365032D01*
X87400000Y-102420163D01*
X87166609Y-102420163D01*
X86912500Y-102166054D01*
X86628554Y-102450000D01*
X86425000Y-102450000D01*
X86425000Y-102420163D01*
X86402164Y-102365032D01*
X86359968Y-102322836D01*
X86304837Y-102300000D01*
X86245163Y-102300000D01*
X86190032Y-102322836D01*
X86147836Y-102365032D01*
X86125000Y-102420163D01*
X85891609Y-102420163D01*
X85637500Y-102166054D01*
X85353554Y-102450000D01*
X85150000Y-102450000D01*
X85150000Y-102420163D01*
X85127164Y-102365032D01*
X85084968Y-102322836D01*
X85029837Y-102300000D01*
X84970163Y-102300000D01*
X84915032Y-102322836D01*
X84872836Y-102365032D01*
X84850000Y-102420163D01*
X84616609Y-102420163D01*
X84362500Y-102166054D01*
X84078554Y-102450000D01*
X83875000Y-102450000D01*
X83875000Y-102420163D01*
X83852164Y-102365032D01*
X83809968Y-102322836D01*
X83754837Y-102300000D01*
X83695163Y-102300000D01*
X83640032Y-102322836D01*
X83597836Y-102365032D01*
X83575000Y-102420163D01*
X83341609Y-102420163D01*
X83087500Y-102166054D01*
X82803554Y-102450000D01*
X82600000Y-102450000D01*
X82600000Y-102420163D01*
X82577164Y-102365032D01*
X82534968Y-102322836D01*
X82479837Y-102300000D01*
X82420163Y-102300000D01*
X82365032Y-102322836D01*
X82322836Y-102365032D01*
X82300000Y-102420163D01*
X82066609Y-102420163D01*
X81769731Y-102123285D01*
X81714176Y-102282055D01*
X81695254Y-102449996D01*
X77513499Y-102449996D01*
X77525058Y-102434689D01*
X77624229Y-102235528D01*
X77685115Y-102021536D01*
X77705643Y-101800000D01*
X77705642Y-101799994D01*
X77702838Y-101769731D01*
X82123285Y-101769731D01*
X82450000Y-102096446D01*
X82450001Y-102096446D01*
X82776713Y-101769731D01*
X83398285Y-101769731D01*
X83725000Y-102096446D01*
X83725001Y-102096446D01*
X84051713Y-101769731D01*
X84673285Y-101769731D01*
X85000000Y-102096446D01*
X85000001Y-102096446D01*
X85326714Y-101769731D01*
X85948285Y-101769731D01*
X86275000Y-102096446D01*
X86275001Y-102096446D01*
X86601713Y-101769731D01*
X87223285Y-101769731D01*
X87726777Y-102273223D01*
X88230267Y-102776714D01*
X88230267Y-102776713D01*
X88285823Y-102617943D01*
X88285824Y-102617938D01*
X88304746Y-102450003D01*
X88304746Y-102449996D01*
X88285824Y-102282058D01*
X88285822Y-102282050D01*
X88230003Y-102122528D01*
X88200931Y-102076260D01*
X88906962Y-102076260D01*
X88906962Y-102076265D01*
X88924329Y-102185921D01*
X88974735Y-102284848D01*
X88974740Y-102284855D01*
X89053238Y-102363353D01*
X89053241Y-102363355D01*
X89053244Y-102363358D01*
X89130130Y-102402533D01*
X89152172Y-102413764D01*
X89261829Y-102431132D01*
X89261831Y-102431132D01*
X89261833Y-102431132D01*
X89325437Y-102421058D01*
X89394730Y-102430012D01*
X89448182Y-102475009D01*
X89462763Y-102505205D01*
X89465033Y-102512191D01*
X89515440Y-102611121D01*
X89515445Y-102611128D01*
X89593943Y-102689626D01*
X89593946Y-102689628D01*
X89593949Y-102689631D01*
X89645462Y-102715878D01*
X89696257Y-102763851D01*
X89713053Y-102831672D01*
X89711640Y-102845759D01*
X89695131Y-102949996D01*
X89695131Y-102950002D01*
X89712498Y-103059658D01*
X89762904Y-103158585D01*
X89762909Y-103158592D01*
X89841407Y-103237090D01*
X89841410Y-103237092D01*
X89841413Y-103237095D01*
X89940339Y-103287500D01*
X89940341Y-103287501D01*
X90049998Y-103304869D01*
X90050000Y-103304869D01*
X90050002Y-103304869D01*
X90159658Y-103287501D01*
X90159659Y-103287500D01*
X90159661Y-103287500D01*
X90258587Y-103237095D01*
X90337095Y-103158587D01*
X90387500Y-103059661D01*
X90387500Y-103059659D01*
X90387501Y-103059658D01*
X90404869Y-102950002D01*
X90404869Y-102949997D01*
X90387501Y-102840341D01*
X90368757Y-102803554D01*
X90337095Y-102741413D01*
X90337092Y-102741410D01*
X90337090Y-102741407D01*
X90258592Y-102662909D01*
X90258588Y-102662906D01*
X90258587Y-102662905D01*
X90207071Y-102636656D01*
X90156277Y-102588683D01*
X90139482Y-102520863D01*
X90140895Y-102506775D01*
X90157405Y-102402537D01*
X90157405Y-102402533D01*
X90140037Y-102292877D01*
X90113151Y-102240110D01*
X90089631Y-102193949D01*
X90089628Y-102193946D01*
X90089626Y-102193943D01*
X90011128Y-102115445D01*
X90011124Y-102115442D01*
X90011123Y-102115441D01*
X89973843Y-102096446D01*
X89912194Y-102065034D01*
X89802538Y-102047667D01*
X89802537Y-102047667D01*
X89802536Y-102047667D01*
X89793108Y-102049160D01*
X89738927Y-102057741D01*
X89669634Y-102048785D01*
X89616183Y-102003788D01*
X89601601Y-101973588D01*
X89599331Y-101966602D01*
X89562781Y-101894869D01*
X89548926Y-101867676D01*
X89548922Y-101867672D01*
X89548921Y-101867670D01*
X89540056Y-101858805D01*
X89506571Y-101797482D01*
X89511555Y-101727790D01*
X89540059Y-101683440D01*
X89551004Y-101672496D01*
X89601409Y-101573570D01*
X89601409Y-101573568D01*
X89601410Y-101573567D01*
X89618778Y-101463911D01*
X89618778Y-101463906D01*
X89601410Y-101354250D01*
X89601409Y-101354248D01*
X89551004Y-101255322D01*
X89551001Y-101255319D01*
X89550999Y-101255316D01*
X89472501Y-101176818D01*
X89472497Y-101176815D01*
X89472496Y-101176814D01*
X89434692Y-101157552D01*
X89373567Y-101126407D01*
X89263911Y-101109040D01*
X89263907Y-101109040D01*
X89154250Y-101126407D01*
X89055323Y-101176813D01*
X89055316Y-101176818D01*
X88976818Y-101255316D01*
X88976813Y-101255323D01*
X88926407Y-101354250D01*
X88909040Y-101463906D01*
X88909040Y-101463911D01*
X88926407Y-101573567D01*
X88965179Y-101649661D01*
X88976814Y-101672496D01*
X88976816Y-101672498D01*
X88976817Y-101672499D01*
X88985680Y-101681362D01*
X89019167Y-101742684D01*
X89014185Y-101812376D01*
X88985686Y-101856725D01*
X88974738Y-101867672D01*
X88974735Y-101867677D01*
X88924329Y-101966604D01*
X88906962Y-102076260D01*
X88200931Y-102076260D01*
X88191831Y-102061777D01*
X88172831Y-101994540D01*
X88193199Y-101927705D01*
X88246467Y-101882491D01*
X88258512Y-101877872D01*
X88259646Y-101877502D01*
X88259661Y-101877500D01*
X88358587Y-101827095D01*
X88437095Y-101748587D01*
X88487500Y-101649661D01*
X88487500Y-101649659D01*
X88487501Y-101649658D01*
X88504869Y-101540002D01*
X88504869Y-101539997D01*
X88487501Y-101430341D01*
X88487500Y-101430339D01*
X88437095Y-101331413D01*
X88437092Y-101331410D01*
X88437090Y-101331407D01*
X88358592Y-101252909D01*
X88358588Y-101252906D01*
X88358587Y-101252905D01*
X88323415Y-101234984D01*
X88272620Y-101187011D01*
X88255824Y-101119190D01*
X88278361Y-101053055D01*
X88333076Y-101009603D01*
X88379710Y-101000500D01*
X88385056Y-101000500D01*
X88550225Y-100959790D01*
X88629692Y-100918081D01*
X88700849Y-100880736D01*
X88700850Y-100880734D01*
X88700852Y-100880734D01*
X88828183Y-100767929D01*
X88924818Y-100627930D01*
X88985140Y-100468872D01*
X89005645Y-100300000D01*
X88985140Y-100131128D01*
X88965200Y-100078550D01*
X96273684Y-100078550D01*
X96273684Y-100078555D01*
X96291051Y-100188211D01*
X96341457Y-100287138D01*
X96341462Y-100287145D01*
X96419960Y-100365643D01*
X96419963Y-100365645D01*
X96419966Y-100365648D01*
X96471544Y-100391928D01*
X96518894Y-100416054D01*
X96628551Y-100433422D01*
X96628553Y-100433422D01*
X96628555Y-100433422D01*
X96738211Y-100416054D01*
X96738212Y-100416053D01*
X96738214Y-100416053D01*
X96837140Y-100365648D01*
X96915648Y-100287140D01*
X96966053Y-100188214D01*
X96966053Y-100188212D01*
X96966054Y-100188211D01*
X96983422Y-100078555D01*
X96983422Y-100078550D01*
X96970980Y-99999997D01*
X102870131Y-99999997D01*
X102870131Y-100000002D01*
X102887498Y-100109658D01*
X102937904Y-100208585D01*
X102937909Y-100208592D01*
X103016407Y-100287090D01*
X103016410Y-100287092D01*
X103016413Y-100287095D01*
X103060274Y-100309443D01*
X103115341Y-100337501D01*
X103224998Y-100354869D01*
X103225000Y-100354869D01*
X103225002Y-100354869D01*
X103331645Y-100337978D01*
X103400938Y-100346932D01*
X103454390Y-100391928D01*
X103461522Y-100404147D01*
X103469102Y-100419022D01*
X103469104Y-100419024D01*
X103469106Y-100419027D01*
X103558804Y-100508725D01*
X103558806Y-100508726D01*
X103558810Y-100508730D01*
X103671848Y-100566326D01*
X103671849Y-100566326D01*
X103671851Y-100566327D01*
X103797149Y-100586172D01*
X103797152Y-100586172D01*
X103797155Y-100586172D01*
X103922452Y-100566327D01*
X103922453Y-100566327D01*
X103922454Y-100566326D01*
X103922456Y-100566326D01*
X104035494Y-100508730D01*
X104125202Y-100419022D01*
X104182798Y-100305984D01*
X104182798Y-100305982D01*
X104182799Y-100305981D01*
X104182799Y-100305980D01*
X104202644Y-100180683D01*
X104202644Y-100180676D01*
X104182799Y-100055379D01*
X104182799Y-100055378D01*
X104160744Y-100012093D01*
X104125202Y-99942338D01*
X104125198Y-99942334D01*
X104125197Y-99942332D01*
X104035499Y-99852634D01*
X104035496Y-99852632D01*
X104035494Y-99852630D01*
X103922456Y-99795034D01*
X103922455Y-99795033D01*
X103922452Y-99795032D01*
X103797155Y-99775188D01*
X103797149Y-99775188D01*
X103671851Y-99795032D01*
X103671847Y-99795034D01*
X103648688Y-99806834D01*
X103580018Y-99819730D01*
X103515278Y-99793453D01*
X103504713Y-99784030D01*
X103433592Y-99712909D01*
X103433588Y-99712906D01*
X103433587Y-99712905D01*
X103429743Y-99710946D01*
X103334658Y-99662498D01*
X103225002Y-99645131D01*
X103224998Y-99645131D01*
X103115341Y-99662498D01*
X103016414Y-99712904D01*
X103016407Y-99712909D01*
X102937909Y-99791407D01*
X102937904Y-99791414D01*
X102887498Y-99890341D01*
X102870131Y-99999997D01*
X96970980Y-99999997D01*
X96966054Y-99968894D01*
X96952523Y-99942338D01*
X96915648Y-99869966D01*
X96915645Y-99869963D01*
X96915643Y-99869960D01*
X96837145Y-99791462D01*
X96837141Y-99791459D01*
X96837140Y-99791458D01*
X96805208Y-99775188D01*
X96738211Y-99741051D01*
X96628555Y-99723684D01*
X96628551Y-99723684D01*
X96518894Y-99741051D01*
X96419967Y-99791457D01*
X96419960Y-99791462D01*
X96341462Y-99869960D01*
X96341457Y-99869967D01*
X96291051Y-99968894D01*
X96273684Y-100078550D01*
X88965200Y-100078550D01*
X88924818Y-99972070D01*
X88922624Y-99968892D01*
X88868403Y-99890339D01*
X88828183Y-99832071D01*
X88700852Y-99719266D01*
X88700849Y-99719263D01*
X88550226Y-99640210D01*
X88385056Y-99599500D01*
X88214944Y-99599500D01*
X88049773Y-99640210D01*
X87899150Y-99719263D01*
X87771816Y-99832072D01*
X87675182Y-99972068D01*
X87614860Y-100131125D01*
X87614859Y-100131130D01*
X87594355Y-100300000D01*
X87614859Y-100468869D01*
X87614860Y-100468874D01*
X87675182Y-100627931D01*
X87716017Y-100687090D01*
X87771817Y-100767929D01*
X87850769Y-100837874D01*
X87899150Y-100880736D01*
X88049774Y-100959790D01*
X88056790Y-100962451D01*
X88056340Y-100963636D01*
X88110086Y-100994928D01*
X88141875Y-101057147D01*
X88134980Y-101126676D01*
X88091589Y-101181439D01*
X88049342Y-101198613D01*
X88049625Y-101199482D01*
X88040342Y-101202498D01*
X87941414Y-101252904D01*
X87941407Y-101252909D01*
X87862909Y-101331407D01*
X87862904Y-101331414D01*
X87812498Y-101430341D01*
X87795131Y-101539997D01*
X87795131Y-101540000D01*
X87797046Y-101552094D01*
X87799145Y-101565345D01*
X87790189Y-101634638D01*
X87745191Y-101688090D01*
X87678440Y-101708728D01*
X87662788Y-101707961D01*
X87550004Y-101695254D01*
X87549996Y-101695254D01*
X87382055Y-101714176D01*
X87223285Y-101769731D01*
X86601713Y-101769731D01*
X86442944Y-101714176D01*
X86275004Y-101695254D01*
X86274996Y-101695254D01*
X86107055Y-101714176D01*
X85948285Y-101769731D01*
X85326714Y-101769731D01*
X85167944Y-101714176D01*
X85000004Y-101695254D01*
X84999996Y-101695254D01*
X84832055Y-101714176D01*
X84673285Y-101769731D01*
X84051713Y-101769731D01*
X83892944Y-101714176D01*
X83725004Y-101695254D01*
X83724996Y-101695254D01*
X83557055Y-101714176D01*
X83398285Y-101769731D01*
X82776713Y-101769731D01*
X82617944Y-101714176D01*
X82450004Y-101695254D01*
X82449996Y-101695254D01*
X82282055Y-101714176D01*
X82123285Y-101769731D01*
X77702838Y-101769731D01*
X77685115Y-101578464D01*
X77685114Y-101578462D01*
X77684052Y-101574731D01*
X77624702Y-101366136D01*
X80145131Y-101366136D01*
X80145131Y-101366141D01*
X80162498Y-101475797D01*
X80212904Y-101574724D01*
X80212909Y-101574731D01*
X80291407Y-101653229D01*
X80291410Y-101653231D01*
X80291413Y-101653234D01*
X80390339Y-101703639D01*
X80390341Y-101703640D01*
X80499998Y-101721008D01*
X80500000Y-101721008D01*
X80500002Y-101721008D01*
X80609658Y-101703640D01*
X80609659Y-101703639D01*
X80609661Y-101703639D01*
X80708587Y-101653234D01*
X80787095Y-101574726D01*
X80837500Y-101475800D01*
X80837500Y-101475798D01*
X80837501Y-101475797D01*
X80854869Y-101366141D01*
X80854869Y-101366136D01*
X80837501Y-101256480D01*
X80837500Y-101256478D01*
X80787095Y-101157552D01*
X80787092Y-101157549D01*
X80787090Y-101157546D01*
X80708592Y-101079048D01*
X80708588Y-101079045D01*
X80708587Y-101079044D01*
X80704743Y-101077085D01*
X80609658Y-101028637D01*
X80500002Y-101011270D01*
X80499998Y-101011270D01*
X80390341Y-101028637D01*
X80291414Y-101079043D01*
X80291407Y-101079048D01*
X80212909Y-101157546D01*
X80212904Y-101157553D01*
X80162498Y-101256480D01*
X80145131Y-101366136D01*
X77624702Y-101366136D01*
X77624229Y-101364472D01*
X77624224Y-101364461D01*
X77525061Y-101165316D01*
X77525056Y-101165308D01*
X77390979Y-100987761D01*
X77226562Y-100837876D01*
X77226560Y-100837874D01*
X77037404Y-100720754D01*
X77037398Y-100720752D01*
X76829940Y-100640382D01*
X76611243Y-100599500D01*
X76388757Y-100599500D01*
X76170060Y-100640382D01*
X76049493Y-100687090D01*
X75962601Y-100720752D01*
X75962595Y-100720754D01*
X75773439Y-100837874D01*
X75773437Y-100837876D01*
X75609020Y-100987761D01*
X75474943Y-101165308D01*
X75474938Y-101165316D01*
X75375775Y-101364461D01*
X75375769Y-101364476D01*
X75314885Y-101578462D01*
X75314884Y-101578464D01*
X75294357Y-101799999D01*
X73505141Y-101799999D01*
X73505141Y-101799994D01*
X73484614Y-101552270D01*
X73484612Y-101552261D01*
X73423587Y-101311282D01*
X73323732Y-101083632D01*
X73223435Y-100930116D01*
X72523787Y-101629765D01*
X72512518Y-101587708D01*
X72440110Y-101462292D01*
X72337708Y-101359890D01*
X72212292Y-101287482D01*
X72170233Y-101276212D01*
X72870055Y-100576389D01*
X72870055Y-100576388D01*
X72823236Y-100539947D01*
X72823231Y-100539944D01*
X72604614Y-100421635D01*
X72604603Y-100421630D01*
X72541589Y-100399997D01*
X84045131Y-100399997D01*
X84045131Y-100400002D01*
X84062498Y-100509658D01*
X84112904Y-100608585D01*
X84112909Y-100608592D01*
X84191407Y-100687090D01*
X84191410Y-100687092D01*
X84191413Y-100687095D01*
X84257469Y-100720752D01*
X84290341Y-100737501D01*
X84399998Y-100754869D01*
X84400000Y-100754869D01*
X84400002Y-100754869D01*
X84509658Y-100737501D01*
X84509659Y-100737500D01*
X84509661Y-100737500D01*
X84608587Y-100687095D01*
X84687095Y-100608587D01*
X84737500Y-100509661D01*
X84737500Y-100509659D01*
X84737501Y-100509658D01*
X84754869Y-100400002D01*
X84754869Y-100399997D01*
X84737501Y-100290341D01*
X84735845Y-100287090D01*
X84702005Y-100220676D01*
X85465810Y-100220676D01*
X85465810Y-100220681D01*
X85483177Y-100330337D01*
X85533583Y-100429264D01*
X85533588Y-100429271D01*
X85612086Y-100507769D01*
X85612089Y-100507771D01*
X85612092Y-100507774D01*
X85704100Y-100554654D01*
X85711020Y-100558180D01*
X85820677Y-100575548D01*
X85820679Y-100575548D01*
X85820681Y-100575548D01*
X85930337Y-100558180D01*
X85930338Y-100558179D01*
X85930340Y-100558179D01*
X86029266Y-100507774D01*
X86043261Y-100493779D01*
X86104583Y-100460292D01*
X86174275Y-100465275D01*
X86200893Y-100485182D01*
X86203829Y-100481141D01*
X86211725Y-100486877D01*
X86211728Y-100486880D01*
X86256433Y-100509658D01*
X86310656Y-100537286D01*
X86420313Y-100554654D01*
X86420315Y-100554654D01*
X86420317Y-100554654D01*
X86529973Y-100537286D01*
X86529974Y-100537285D01*
X86529976Y-100537285D01*
X86628902Y-100486880D01*
X86707410Y-100408372D01*
X86757815Y-100309446D01*
X86757815Y-100309444D01*
X86757816Y-100309443D01*
X86775184Y-100199787D01*
X86775184Y-100199782D01*
X86757816Y-100090126D01*
X86743739Y-100062498D01*
X86707410Y-99991198D01*
X86707407Y-99991195D01*
X86707405Y-99991192D01*
X86628907Y-99912694D01*
X86628903Y-99912691D01*
X86628902Y-99912690D01*
X86625058Y-99910731D01*
X86529973Y-99862283D01*
X86420317Y-99844916D01*
X86420313Y-99844916D01*
X86310656Y-99862283D01*
X86211729Y-99912689D01*
X86211722Y-99912694D01*
X86197731Y-99926686D01*
X86136408Y-99960171D01*
X86066716Y-99955187D01*
X86038714Y-99937190D01*
X86037165Y-99939323D01*
X86029267Y-99933585D01*
X86029266Y-99933584D01*
X85988257Y-99912689D01*
X85930337Y-99883177D01*
X85820681Y-99865810D01*
X85820677Y-99865810D01*
X85711020Y-99883177D01*
X85612093Y-99933583D01*
X85612086Y-99933588D01*
X85533588Y-100012086D01*
X85533583Y-100012093D01*
X85483177Y-100111020D01*
X85465810Y-100220676D01*
X84702005Y-100220676D01*
X84687095Y-100191413D01*
X84687092Y-100191410D01*
X84687090Y-100191407D01*
X84608592Y-100112909D01*
X84608588Y-100112906D01*
X84608587Y-100112905D01*
X84602214Y-100109658D01*
X84509658Y-100062498D01*
X84400002Y-100045131D01*
X84399998Y-100045131D01*
X84290341Y-100062498D01*
X84191414Y-100112904D01*
X84191407Y-100112909D01*
X84112909Y-100191407D01*
X84112904Y-100191414D01*
X84062498Y-100290341D01*
X84045131Y-100399997D01*
X72541589Y-100399997D01*
X72369493Y-100340916D01*
X72124293Y-100300000D01*
X71875707Y-100300000D01*
X71630506Y-100340916D01*
X71395396Y-100421630D01*
X71395385Y-100421635D01*
X71176770Y-100539943D01*
X71129943Y-100576389D01*
X71829766Y-101276212D01*
X71787708Y-101287482D01*
X71662292Y-101359890D01*
X71559890Y-101462292D01*
X71487482Y-101587708D01*
X71476212Y-101629765D01*
X70776563Y-100930117D01*
X70676267Y-101083633D01*
X70676265Y-101083637D01*
X70576412Y-101311282D01*
X70515387Y-101552261D01*
X70515385Y-101552270D01*
X70494859Y-101799994D01*
X66250000Y-101799994D01*
X66250000Y-98503949D01*
X89390406Y-98503949D01*
X89410910Y-98672818D01*
X89410911Y-98672823D01*
X89471233Y-98831880D01*
X89518252Y-98899997D01*
X89567868Y-98971878D01*
X89673556Y-99065509D01*
X89695201Y-99084685D01*
X89845824Y-99163738D01*
X89845826Y-99163739D01*
X90010995Y-99204449D01*
X90181107Y-99204449D01*
X90346276Y-99163739D01*
X90451349Y-99108592D01*
X90496900Y-99084685D01*
X90496901Y-99084683D01*
X90496903Y-99084683D01*
X90592494Y-98999997D01*
X96045131Y-98999997D01*
X96045131Y-99000002D01*
X96062498Y-99109658D01*
X96112904Y-99208585D01*
X96112909Y-99208592D01*
X96191407Y-99287090D01*
X96191410Y-99287092D01*
X96191413Y-99287095D01*
X96290339Y-99337500D01*
X96290341Y-99337501D01*
X96399998Y-99354869D01*
X96400000Y-99354869D01*
X96400002Y-99354869D01*
X96509658Y-99337501D01*
X96509659Y-99337500D01*
X96509661Y-99337500D01*
X96608587Y-99287095D01*
X96687095Y-99208587D01*
X96737500Y-99109661D01*
X96737500Y-99109659D01*
X96737501Y-99109658D01*
X96754869Y-99000002D01*
X96754869Y-98999997D01*
X96739030Y-98899997D01*
X103945131Y-98899997D01*
X103945131Y-98900002D01*
X103962498Y-99009658D01*
X104012904Y-99108585D01*
X104012909Y-99108592D01*
X104091407Y-99187090D01*
X104091410Y-99187092D01*
X104091413Y-99187095D01*
X104133590Y-99208585D01*
X104190341Y-99237501D01*
X104299998Y-99254869D01*
X104300000Y-99254869D01*
X104300002Y-99254869D01*
X104409658Y-99237501D01*
X104409659Y-99237500D01*
X104409661Y-99237500D01*
X104508587Y-99187095D01*
X104587095Y-99108587D01*
X104637500Y-99009661D01*
X104637500Y-99009659D01*
X104637501Y-99009658D01*
X104654869Y-98900002D01*
X104654869Y-98899997D01*
X104637501Y-98790341D01*
X104637500Y-98790339D01*
X104587095Y-98691413D01*
X104587092Y-98691410D01*
X104587090Y-98691407D01*
X104508592Y-98612909D01*
X104508588Y-98612906D01*
X104508587Y-98612905D01*
X104504743Y-98610946D01*
X104409658Y-98562498D01*
X104300002Y-98545131D01*
X104299998Y-98545131D01*
X104190341Y-98562498D01*
X104091414Y-98612904D01*
X104091407Y-98612909D01*
X104012909Y-98691407D01*
X104012904Y-98691414D01*
X103962498Y-98790341D01*
X103945131Y-98899997D01*
X96739030Y-98899997D01*
X96737501Y-98890341D01*
X96707713Y-98831879D01*
X96687095Y-98791413D01*
X96687092Y-98791410D01*
X96687090Y-98791407D01*
X96608592Y-98712909D01*
X96608588Y-98712906D01*
X96608587Y-98712905D01*
X96604743Y-98710946D01*
X96509658Y-98662498D01*
X96400002Y-98645131D01*
X96399998Y-98645131D01*
X96290341Y-98662498D01*
X96191414Y-98712904D01*
X96191407Y-98712909D01*
X96112909Y-98791407D01*
X96112904Y-98791414D01*
X96062498Y-98890341D01*
X96045131Y-98999997D01*
X90592494Y-98999997D01*
X90624234Y-98971878D01*
X90720869Y-98831879D01*
X90781191Y-98672821D01*
X90801696Y-98503949D01*
X90781191Y-98335077D01*
X90720869Y-98176019D01*
X90624234Y-98036020D01*
X90496903Y-97923215D01*
X90496900Y-97923212D01*
X90346277Y-97844159D01*
X90181107Y-97803449D01*
X90010995Y-97803449D01*
X89845824Y-97844159D01*
X89695201Y-97923212D01*
X89567867Y-98036021D01*
X89471233Y-98176017D01*
X89410911Y-98335074D01*
X89410910Y-98335079D01*
X89390406Y-98503949D01*
X66250000Y-98503949D01*
X66250000Y-97737105D01*
X96615131Y-97737105D01*
X96615131Y-97737110D01*
X96632498Y-97846766D01*
X96682904Y-97945693D01*
X96682909Y-97945700D01*
X96761407Y-98024198D01*
X96761410Y-98024200D01*
X96761413Y-98024203D01*
X96860339Y-98074608D01*
X96860341Y-98074609D01*
X96969998Y-98091977D01*
X96970000Y-98091977D01*
X96970002Y-98091977D01*
X97079658Y-98074609D01*
X97079659Y-98074608D01*
X97079661Y-98074608D01*
X97178587Y-98024203D01*
X97257095Y-97945695D01*
X97307500Y-97846769D01*
X97307500Y-97846767D01*
X97307501Y-97846766D01*
X97324869Y-97737110D01*
X97324869Y-97737105D01*
X97307501Y-97627449D01*
X97307500Y-97627447D01*
X97257095Y-97528521D01*
X97257092Y-97528518D01*
X97257090Y-97528515D01*
X97178592Y-97450017D01*
X97178588Y-97450014D01*
X97178587Y-97450013D01*
X97174743Y-97448054D01*
X97079658Y-97399606D01*
X96970002Y-97382239D01*
X96969998Y-97382239D01*
X96860341Y-97399606D01*
X96761414Y-97450012D01*
X96761407Y-97450017D01*
X96682909Y-97528515D01*
X96682904Y-97528522D01*
X96632498Y-97627449D01*
X96615131Y-97737105D01*
X66250000Y-97737105D01*
X66250000Y-95299994D01*
X70494859Y-95299994D01*
X70494859Y-95300005D01*
X70515385Y-95547729D01*
X70515387Y-95547738D01*
X70576412Y-95788717D01*
X70676267Y-96016367D01*
X70776562Y-96169881D01*
X71476212Y-95470233D01*
X71487482Y-95512292D01*
X71559890Y-95637708D01*
X71662292Y-95740110D01*
X71787708Y-95812518D01*
X71829766Y-95823787D01*
X71129943Y-96523609D01*
X71176768Y-96560055D01*
X71176771Y-96560057D01*
X71395385Y-96678364D01*
X71395396Y-96678369D01*
X71630506Y-96759083D01*
X71875707Y-96800000D01*
X72124293Y-96800000D01*
X72369493Y-96759083D01*
X72604603Y-96678369D01*
X72604614Y-96678364D01*
X72823230Y-96560056D01*
X72823236Y-96560051D01*
X72870055Y-96523610D01*
X72870056Y-96523609D01*
X72170233Y-95823787D01*
X72212292Y-95812518D01*
X72337708Y-95740110D01*
X72440110Y-95637708D01*
X72512518Y-95512292D01*
X72523787Y-95470233D01*
X73223435Y-96169882D01*
X73323733Y-96016364D01*
X73423587Y-95788717D01*
X73484612Y-95547738D01*
X73484614Y-95547729D01*
X73505141Y-95300005D01*
X73505141Y-95299999D01*
X75294357Y-95299999D01*
X75294357Y-95300000D01*
X75314884Y-95521535D01*
X75314885Y-95521537D01*
X75375769Y-95735523D01*
X75375775Y-95735538D01*
X75474938Y-95934683D01*
X75474943Y-95934691D01*
X75609020Y-96112238D01*
X75773437Y-96262123D01*
X75773439Y-96262125D01*
X75962595Y-96379245D01*
X75962596Y-96379245D01*
X75962599Y-96379247D01*
X76170060Y-96459618D01*
X76388757Y-96500500D01*
X76388759Y-96500500D01*
X76611241Y-96500500D01*
X76611243Y-96500500D01*
X76829940Y-96459618D01*
X76915574Y-96426443D01*
X96511577Y-96426443D01*
X96511577Y-96426448D01*
X96528944Y-96536104D01*
X96579350Y-96635031D01*
X96579355Y-96635038D01*
X96657853Y-96713536D01*
X96657856Y-96713538D01*
X96657859Y-96713541D01*
X96747241Y-96759083D01*
X96756787Y-96763947D01*
X96866444Y-96781315D01*
X96866446Y-96781315D01*
X96866448Y-96781315D01*
X96976104Y-96763947D01*
X96976105Y-96763946D01*
X96976107Y-96763946D01*
X97075033Y-96713541D01*
X97153541Y-96635033D01*
X97203946Y-96536107D01*
X97203946Y-96536105D01*
X97203947Y-96536104D01*
X97221315Y-96426448D01*
X97221315Y-96426443D01*
X97203947Y-96316787D01*
X97203946Y-96316785D01*
X97153541Y-96217859D01*
X97153538Y-96217856D01*
X97153536Y-96217853D01*
X97075038Y-96139355D01*
X97075034Y-96139352D01*
X97075033Y-96139351D01*
X97071189Y-96137392D01*
X96976104Y-96088944D01*
X96866448Y-96071577D01*
X96866444Y-96071577D01*
X96756787Y-96088944D01*
X96657860Y-96139350D01*
X96657853Y-96139355D01*
X96579355Y-96217853D01*
X96579350Y-96217860D01*
X96528944Y-96316787D01*
X96511577Y-96426443D01*
X76915574Y-96426443D01*
X77037401Y-96379247D01*
X77226562Y-96262124D01*
X77390981Y-96112236D01*
X77525058Y-95934689D01*
X77624229Y-95735528D01*
X77685115Y-95521536D01*
X77705643Y-95300000D01*
X77705642Y-95299994D01*
X77685115Y-95078464D01*
X77685114Y-95078462D01*
X77677659Y-95052261D01*
X77624229Y-94864472D01*
X77624224Y-94864461D01*
X77525061Y-94665316D01*
X77525056Y-94665308D01*
X77503221Y-94636394D01*
X84774420Y-94636394D01*
X84774420Y-94636399D01*
X84791787Y-94746055D01*
X84842193Y-94844982D01*
X84842198Y-94844989D01*
X84920696Y-94923487D01*
X84920699Y-94923489D01*
X84920702Y-94923492D01*
X84996852Y-94962292D01*
X85019630Y-94973898D01*
X85129287Y-94991266D01*
X85129289Y-94991266D01*
X85129291Y-94991266D01*
X85184464Y-94982527D01*
X85238950Y-94973897D01*
X85310243Y-94937571D01*
X85378910Y-94924675D01*
X85443650Y-94950951D01*
X85483908Y-95008057D01*
X85486900Y-95077863D01*
X85484467Y-95086375D01*
X85483177Y-95090342D01*
X85465810Y-95199997D01*
X85465810Y-95200002D01*
X85483177Y-95309658D01*
X85533583Y-95408585D01*
X85533588Y-95408592D01*
X85612086Y-95487090D01*
X85612089Y-95487092D01*
X85612092Y-95487095D01*
X85679685Y-95521535D01*
X85711020Y-95537501D01*
X85820677Y-95554869D01*
X85820679Y-95554869D01*
X85820681Y-95554869D01*
X85939979Y-95535974D01*
X85940431Y-95538833D01*
X85994689Y-95537269D01*
X86054532Y-95573333D01*
X86085377Y-95636026D01*
X86082214Y-95680363D01*
X86084341Y-95680700D01*
X86065446Y-95799997D01*
X86065446Y-95800002D01*
X86082813Y-95909658D01*
X86133219Y-96008585D01*
X86133224Y-96008592D01*
X86211722Y-96087090D01*
X86211725Y-96087092D01*
X86211728Y-96087095D01*
X86310654Y-96137500D01*
X86310656Y-96137501D01*
X86420313Y-96154869D01*
X86420315Y-96154869D01*
X86420317Y-96154869D01*
X86529973Y-96137501D01*
X86529974Y-96137500D01*
X86529976Y-96137500D01*
X86628902Y-96087095D01*
X86707410Y-96008587D01*
X86757815Y-95909661D01*
X86757815Y-95909659D01*
X86757816Y-95909658D01*
X86775184Y-95800002D01*
X86775184Y-95799997D01*
X86757816Y-95690341D01*
X86724261Y-95624486D01*
X86707410Y-95591413D01*
X86707407Y-95591410D01*
X86707405Y-95591407D01*
X86628907Y-95512909D01*
X86628903Y-95512906D01*
X86628902Y-95512905D01*
X86578237Y-95487090D01*
X86529973Y-95462498D01*
X86420317Y-95445131D01*
X86420313Y-95445131D01*
X86301015Y-95464026D01*
X86300562Y-95461171D01*
X86246266Y-95462720D01*
X86186435Y-95426637D01*
X86155609Y-95363935D01*
X86157510Y-95337393D01*
X92080527Y-95337393D01*
X92080527Y-95337398D01*
X92097894Y-95447054D01*
X92148300Y-95545981D01*
X92148305Y-95545988D01*
X92226803Y-95624486D01*
X92226806Y-95624488D01*
X92226809Y-95624491D01*
X92283849Y-95653554D01*
X92325737Y-95674897D01*
X92435394Y-95692265D01*
X92435396Y-95692265D01*
X92435398Y-95692265D01*
X92545054Y-95674897D01*
X92545055Y-95674896D01*
X92545057Y-95674896D01*
X92643983Y-95624491D01*
X92722491Y-95545983D01*
X92772896Y-95447057D01*
X92772896Y-95447055D01*
X92772897Y-95447054D01*
X92790265Y-95337398D01*
X92790265Y-95337393D01*
X92772897Y-95227737D01*
X92753669Y-95190000D01*
X92753667Y-95189997D01*
X98445131Y-95189997D01*
X98445131Y-95190002D01*
X98462498Y-95299658D01*
X98512904Y-95398585D01*
X98512909Y-95398592D01*
X98591407Y-95477090D01*
X98591410Y-95477092D01*
X98591413Y-95477095D01*
X98678632Y-95521535D01*
X98690341Y-95527501D01*
X98799998Y-95544869D01*
X98800000Y-95544869D01*
X98800002Y-95544869D01*
X98909658Y-95527501D01*
X98909659Y-95527500D01*
X98909661Y-95527500D01*
X99008587Y-95477095D01*
X99087095Y-95398587D01*
X99137500Y-95299661D01*
X99137500Y-95299659D01*
X99137501Y-95299658D01*
X99154869Y-95190002D01*
X99154869Y-95189997D01*
X99137501Y-95080341D01*
X99123198Y-95052270D01*
X99087095Y-94981413D01*
X99087092Y-94981410D01*
X99087090Y-94981407D01*
X99008592Y-94902909D01*
X99008588Y-94902906D01*
X99008587Y-94902905D01*
X99004743Y-94900946D01*
X98909658Y-94852498D01*
X98800002Y-94835131D01*
X98799998Y-94835131D01*
X98690341Y-94852498D01*
X98591414Y-94902904D01*
X98591407Y-94902909D01*
X98512909Y-94981407D01*
X98512904Y-94981414D01*
X98462498Y-95080341D01*
X98445131Y-95189997D01*
X92753667Y-95189997D01*
X92722491Y-95128809D01*
X92722488Y-95128806D01*
X92722486Y-95128803D01*
X92643988Y-95050305D01*
X92643984Y-95050302D01*
X92643983Y-95050301D01*
X92640139Y-95048342D01*
X92545054Y-94999894D01*
X92435398Y-94982527D01*
X92435394Y-94982527D01*
X92325737Y-94999894D01*
X92226810Y-95050300D01*
X92226803Y-95050305D01*
X92148305Y-95128803D01*
X92148300Y-95128810D01*
X92097894Y-95227737D01*
X92080527Y-95337393D01*
X86157510Y-95337393D01*
X86158782Y-95319637D01*
X86156653Y-95319300D01*
X86175548Y-95200002D01*
X86175548Y-95199997D01*
X86158180Y-95090341D01*
X86112095Y-94999894D01*
X86107774Y-94991413D01*
X86107771Y-94991410D01*
X86107769Y-94991407D01*
X86029271Y-94912909D01*
X86029267Y-94912906D01*
X86029266Y-94912905D01*
X86009638Y-94902904D01*
X85930337Y-94862498D01*
X85820681Y-94845131D01*
X85820677Y-94845131D01*
X85711020Y-94862498D01*
X85639725Y-94898825D01*
X85571055Y-94911721D01*
X85506315Y-94885444D01*
X85466059Y-94828337D01*
X85463067Y-94758532D01*
X85465504Y-94750010D01*
X85466785Y-94746064D01*
X85466789Y-94746058D01*
X85479578Y-94665316D01*
X85484158Y-94636399D01*
X85484158Y-94636394D01*
X85478393Y-94599997D01*
X93445131Y-94599997D01*
X93445131Y-94600002D01*
X93462498Y-94709658D01*
X93512904Y-94808585D01*
X93512909Y-94808592D01*
X93591407Y-94887090D01*
X93591410Y-94887092D01*
X93591413Y-94887095D01*
X93690339Y-94937500D01*
X93690341Y-94937501D01*
X93799998Y-94954869D01*
X93800000Y-94954869D01*
X93800002Y-94954869D01*
X93909658Y-94937501D01*
X93909659Y-94937500D01*
X93909661Y-94937500D01*
X94008587Y-94887095D01*
X94087095Y-94808587D01*
X94137500Y-94709661D01*
X94137500Y-94709659D01*
X94137501Y-94709658D01*
X94154869Y-94600002D01*
X94154869Y-94599997D01*
X94137501Y-94490341D01*
X94136186Y-94487761D01*
X94087095Y-94391413D01*
X94087092Y-94391410D01*
X94087090Y-94391407D01*
X94008592Y-94312909D01*
X94008588Y-94312906D01*
X94008587Y-94312905D01*
X93933937Y-94274869D01*
X93909658Y-94262498D01*
X93800002Y-94245131D01*
X93799998Y-94245131D01*
X93690341Y-94262498D01*
X93591414Y-94312904D01*
X93591407Y-94312909D01*
X93512909Y-94391407D01*
X93512904Y-94391414D01*
X93462498Y-94490341D01*
X93445131Y-94599997D01*
X85478393Y-94599997D01*
X85466790Y-94526738D01*
X85417559Y-94430117D01*
X85416384Y-94427810D01*
X85416381Y-94427807D01*
X85416379Y-94427804D01*
X85337881Y-94349306D01*
X85337877Y-94349303D01*
X85337876Y-94349302D01*
X85315447Y-94337874D01*
X85238947Y-94298895D01*
X85129291Y-94281528D01*
X85129287Y-94281528D01*
X85019630Y-94298895D01*
X84920703Y-94349301D01*
X84920696Y-94349306D01*
X84842198Y-94427804D01*
X84842193Y-94427811D01*
X84791787Y-94526738D01*
X84774420Y-94636394D01*
X77503221Y-94636394D01*
X77390979Y-94487761D01*
X77226562Y-94337876D01*
X77226560Y-94337874D01*
X77037404Y-94220754D01*
X77037398Y-94220752D01*
X76829940Y-94140382D01*
X76611243Y-94099500D01*
X76388757Y-94099500D01*
X76170060Y-94140382D01*
X76038864Y-94191207D01*
X75962601Y-94220752D01*
X75962595Y-94220754D01*
X75773439Y-94337874D01*
X75773437Y-94337876D01*
X75609020Y-94487761D01*
X75474943Y-94665308D01*
X75474938Y-94665316D01*
X75375775Y-94864461D01*
X75375769Y-94864476D01*
X75314885Y-95078462D01*
X75314884Y-95078464D01*
X75294357Y-95299999D01*
X73505141Y-95299999D01*
X73505141Y-95299994D01*
X73484614Y-95052270D01*
X73484612Y-95052261D01*
X73423587Y-94811282D01*
X73323732Y-94583632D01*
X73223435Y-94430116D01*
X72523787Y-95129765D01*
X72512518Y-95087708D01*
X72440110Y-94962292D01*
X72337708Y-94859890D01*
X72212292Y-94787482D01*
X72170233Y-94776212D01*
X72870055Y-94076389D01*
X72870055Y-94076388D01*
X72823236Y-94039947D01*
X72823231Y-94039944D01*
X72604614Y-93921635D01*
X72604603Y-93921630D01*
X72599846Y-93919997D01*
X98310916Y-93919997D01*
X98310916Y-93920002D01*
X98328283Y-94029658D01*
X98378689Y-94128585D01*
X98378694Y-94128592D01*
X98457192Y-94207090D01*
X98457195Y-94207092D01*
X98457198Y-94207095D01*
X98556124Y-94257500D01*
X98556126Y-94257501D01*
X98665783Y-94274869D01*
X98665785Y-94274869D01*
X98665787Y-94274869D01*
X98775443Y-94257501D01*
X98775444Y-94257500D01*
X98775446Y-94257500D01*
X98874372Y-94207095D01*
X98952880Y-94128587D01*
X99003285Y-94029661D01*
X99003285Y-94029659D01*
X99003286Y-94029658D01*
X99020654Y-93920002D01*
X99020654Y-93919997D01*
X99003286Y-93810341D01*
X98998017Y-93800000D01*
X98952880Y-93711413D01*
X98952877Y-93711410D01*
X98952875Y-93711407D01*
X98874377Y-93632909D01*
X98874373Y-93632906D01*
X98874372Y-93632905D01*
X98870528Y-93630946D01*
X98775443Y-93582498D01*
X98665787Y-93565131D01*
X98665783Y-93565131D01*
X98556126Y-93582498D01*
X98457199Y-93632904D01*
X98457192Y-93632909D01*
X98378694Y-93711407D01*
X98378689Y-93711414D01*
X98328283Y-93810341D01*
X98310916Y-93919997D01*
X72599846Y-93919997D01*
X72369493Y-93840916D01*
X72124293Y-93800000D01*
X71875707Y-93800000D01*
X71630506Y-93840916D01*
X71395396Y-93921630D01*
X71395385Y-93921635D01*
X71176770Y-94039943D01*
X71129943Y-94076389D01*
X71829766Y-94776212D01*
X71787708Y-94787482D01*
X71662292Y-94859890D01*
X71559890Y-94962292D01*
X71487482Y-95087708D01*
X71476212Y-95129765D01*
X70776563Y-94430117D01*
X70676267Y-94583633D01*
X70676265Y-94583637D01*
X70576412Y-94811282D01*
X70515387Y-95052261D01*
X70515385Y-95052270D01*
X70494859Y-95299994D01*
X66250000Y-95299994D01*
X66250000Y-91422914D01*
X74195131Y-91422914D01*
X74195131Y-91422919D01*
X74212498Y-91532575D01*
X74262904Y-91631502D01*
X74262909Y-91631509D01*
X74341407Y-91710007D01*
X74341410Y-91710009D01*
X74341413Y-91710012D01*
X74440339Y-91760417D01*
X74440341Y-91760418D01*
X74549998Y-91777786D01*
X74550000Y-91777786D01*
X74550002Y-91777786D01*
X74659658Y-91760418D01*
X74659659Y-91760417D01*
X74659661Y-91760417D01*
X74758587Y-91710012D01*
X74774049Y-91694550D01*
X92033742Y-91694550D01*
X92033742Y-91694555D01*
X92051109Y-91804211D01*
X92101515Y-91903138D01*
X92101520Y-91903145D01*
X92180018Y-91981643D01*
X92180021Y-91981645D01*
X92180024Y-91981648D01*
X92278950Y-92032053D01*
X92278952Y-92032054D01*
X92388609Y-92049422D01*
X92388611Y-92049422D01*
X92388613Y-92049422D01*
X92498269Y-92032054D01*
X92498270Y-92032053D01*
X92498272Y-92032053D01*
X92597198Y-91981648D01*
X92675706Y-91903140D01*
X92726111Y-91804214D01*
X92726111Y-91804212D01*
X92726112Y-91804211D01*
X92743480Y-91694555D01*
X92743480Y-91694550D01*
X92726112Y-91584894D01*
X92699454Y-91532575D01*
X92675706Y-91485966D01*
X92675703Y-91485963D01*
X92675701Y-91485960D01*
X92597203Y-91407462D01*
X92597199Y-91407459D01*
X92597198Y-91407458D01*
X92593354Y-91405499D01*
X92498269Y-91357051D01*
X92388613Y-91339684D01*
X92388609Y-91339684D01*
X92278952Y-91357051D01*
X92180025Y-91407457D01*
X92180018Y-91407462D01*
X92101520Y-91485960D01*
X92101515Y-91485967D01*
X92051109Y-91584894D01*
X92033742Y-91694550D01*
X74774049Y-91694550D01*
X74837095Y-91631504D01*
X74887500Y-91532578D01*
X74887500Y-91532576D01*
X74887501Y-91532575D01*
X74904869Y-91422919D01*
X74904869Y-91422914D01*
X74887501Y-91313258D01*
X74860577Y-91260417D01*
X74837095Y-91214330D01*
X74837092Y-91214327D01*
X74837090Y-91214324D01*
X74758592Y-91135826D01*
X74758588Y-91135823D01*
X74758587Y-91135822D01*
X74750112Y-91131504D01*
X74659658Y-91085415D01*
X74550002Y-91068048D01*
X74549998Y-91068048D01*
X74440341Y-91085415D01*
X74341414Y-91135821D01*
X74341407Y-91135826D01*
X74262909Y-91214324D01*
X74262904Y-91214331D01*
X74212498Y-91313258D01*
X74195131Y-91422914D01*
X66250000Y-91422914D01*
X66250000Y-90922914D01*
X73245131Y-90922914D01*
X73245131Y-90922919D01*
X73262498Y-91032575D01*
X73312904Y-91131502D01*
X73312909Y-91131509D01*
X73391407Y-91210007D01*
X73391410Y-91210009D01*
X73391413Y-91210012D01*
X73399890Y-91214331D01*
X73490341Y-91260418D01*
X73599998Y-91277786D01*
X73600000Y-91277786D01*
X73600002Y-91277786D01*
X73709658Y-91260418D01*
X73709659Y-91260417D01*
X73709661Y-91260417D01*
X73808587Y-91210012D01*
X73887095Y-91131504D01*
X73937500Y-91032578D01*
X73937500Y-91032576D01*
X73937501Y-91032575D01*
X73954869Y-90922919D01*
X73954869Y-90922914D01*
X73937501Y-90813258D01*
X73930744Y-90799997D01*
X88045131Y-90799997D01*
X88045131Y-90800002D01*
X88062498Y-90909658D01*
X88112904Y-91008585D01*
X88112909Y-91008592D01*
X88191407Y-91087090D01*
X88191410Y-91087092D01*
X88191413Y-91087095D01*
X88278567Y-91131502D01*
X88290341Y-91137501D01*
X88399998Y-91154869D01*
X88400000Y-91154869D01*
X88400002Y-91154869D01*
X88509658Y-91137501D01*
X88509659Y-91137500D01*
X88509661Y-91137500D01*
X88608587Y-91087095D01*
X88687095Y-91008587D01*
X88737500Y-90909661D01*
X88737500Y-90909659D01*
X88737501Y-90909658D01*
X88754869Y-90800002D01*
X88754869Y-90799997D01*
X88737501Y-90690341D01*
X88721324Y-90658592D01*
X88687095Y-90591413D01*
X88687092Y-90591410D01*
X88687090Y-90591407D01*
X88678148Y-90582465D01*
X100584200Y-90582465D01*
X100584200Y-90719534D01*
X100610937Y-90853949D01*
X100610940Y-90853961D01*
X100663386Y-90980578D01*
X100663393Y-90980591D01*
X100739536Y-91094546D01*
X100739539Y-91094550D01*
X100836449Y-91191460D01*
X100836453Y-91191463D01*
X100950408Y-91267606D01*
X100950421Y-91267613D01*
X101060614Y-91313256D01*
X101077043Y-91320061D01*
X101211465Y-91346799D01*
X101211469Y-91346800D01*
X101211470Y-91346800D01*
X101348531Y-91346800D01*
X101348532Y-91346799D01*
X101482957Y-91320061D01*
X101609585Y-91267610D01*
X101723547Y-91191463D01*
X101820463Y-91094547D01*
X101896610Y-90980585D01*
X101949061Y-90853957D01*
X101975800Y-90719530D01*
X101975800Y-90582470D01*
X101949061Y-90448043D01*
X101910467Y-90354869D01*
X101896613Y-90321421D01*
X101896606Y-90321408D01*
X101820463Y-90207453D01*
X101820460Y-90207449D01*
X101723550Y-90110539D01*
X101723546Y-90110536D01*
X101609591Y-90034393D01*
X101609578Y-90034386D01*
X101482961Y-89981940D01*
X101482949Y-89981937D01*
X101348534Y-89955200D01*
X101348530Y-89955200D01*
X101211470Y-89955200D01*
X101211465Y-89955200D01*
X101077050Y-89981937D01*
X101077038Y-89981940D01*
X100950421Y-90034386D01*
X100950408Y-90034393D01*
X100836453Y-90110536D01*
X100836449Y-90110539D01*
X100739539Y-90207449D01*
X100739536Y-90207453D01*
X100663393Y-90321408D01*
X100663386Y-90321421D01*
X100610940Y-90448038D01*
X100610937Y-90448050D01*
X100584200Y-90582465D01*
X88678148Y-90582465D01*
X88608592Y-90512909D01*
X88608588Y-90512906D01*
X88608587Y-90512905D01*
X88604743Y-90510946D01*
X88509658Y-90462498D01*
X88400002Y-90445131D01*
X88399998Y-90445131D01*
X88290341Y-90462498D01*
X88191414Y-90512904D01*
X88191407Y-90512909D01*
X88112909Y-90591407D01*
X88112904Y-90591414D01*
X88062498Y-90690341D01*
X88045131Y-90799997D01*
X73930744Y-90799997D01*
X73898694Y-90737095D01*
X73887095Y-90714330D01*
X73887092Y-90714327D01*
X73887090Y-90714324D01*
X73808592Y-90635826D01*
X73808588Y-90635823D01*
X73808587Y-90635822D01*
X73804743Y-90633863D01*
X73709658Y-90585415D01*
X73600002Y-90568048D01*
X73599998Y-90568048D01*
X73490341Y-90585415D01*
X73391414Y-90635821D01*
X73391407Y-90635826D01*
X73312909Y-90714324D01*
X73312904Y-90714331D01*
X73262498Y-90813258D01*
X73245131Y-90922914D01*
X66250000Y-90922914D01*
X66250000Y-90449997D01*
X72245131Y-90449997D01*
X72245131Y-90450002D01*
X72262498Y-90559658D01*
X72312904Y-90658585D01*
X72312909Y-90658592D01*
X72391407Y-90737090D01*
X72391410Y-90737092D01*
X72391413Y-90737095D01*
X72490339Y-90787500D01*
X72490341Y-90787501D01*
X72599998Y-90804869D01*
X72600000Y-90804869D01*
X72600002Y-90804869D01*
X72709658Y-90787501D01*
X72709659Y-90787500D01*
X72709661Y-90787500D01*
X72808587Y-90737095D01*
X72887095Y-90658587D01*
X72937500Y-90559661D01*
X72937500Y-90559659D01*
X72937501Y-90559658D01*
X72954869Y-90450002D01*
X72954869Y-90449997D01*
X72937501Y-90340341D01*
X72919016Y-90304062D01*
X72887095Y-90241413D01*
X72887092Y-90241410D01*
X72887090Y-90241407D01*
X72808592Y-90162909D01*
X72808588Y-90162906D01*
X72808587Y-90162905D01*
X72804743Y-90160946D01*
X72709658Y-90112498D01*
X72600002Y-90095131D01*
X72599998Y-90095131D01*
X72490341Y-90112498D01*
X72391414Y-90162904D01*
X72391407Y-90162909D01*
X72312909Y-90241407D01*
X72312904Y-90241414D01*
X72262498Y-90340341D01*
X72245131Y-90449997D01*
X66250000Y-90449997D01*
X66250000Y-89999997D01*
X88945131Y-89999997D01*
X88945131Y-90000002D01*
X88962498Y-90109658D01*
X89012904Y-90208585D01*
X89012909Y-90208592D01*
X89091407Y-90287090D01*
X89091410Y-90287092D01*
X89091413Y-90287095D01*
X89190339Y-90337500D01*
X89190341Y-90337501D01*
X89299998Y-90354869D01*
X89300000Y-90354869D01*
X89300002Y-90354869D01*
X89409658Y-90337501D01*
X89409659Y-90337500D01*
X89409661Y-90337500D01*
X89508587Y-90287095D01*
X89587095Y-90208587D01*
X89637500Y-90109661D01*
X89637500Y-90109659D01*
X89637501Y-90109658D01*
X89654869Y-90000002D01*
X89654869Y-89999997D01*
X89641010Y-89912497D01*
X92607631Y-89912497D01*
X92607631Y-89912502D01*
X92624998Y-90022158D01*
X92675404Y-90121085D01*
X92675409Y-90121092D01*
X92753907Y-90199590D01*
X92753910Y-90199592D01*
X92753913Y-90199595D01*
X92835974Y-90241407D01*
X92852841Y-90250001D01*
X92962498Y-90267369D01*
X92962500Y-90267369D01*
X92962502Y-90267369D01*
X93072158Y-90250001D01*
X93072159Y-90250000D01*
X93072161Y-90250000D01*
X93171087Y-90199595D01*
X93249595Y-90121087D01*
X93300000Y-90022161D01*
X93300000Y-90022159D01*
X93300001Y-90022158D01*
X93317369Y-89912502D01*
X93317369Y-89912497D01*
X93300001Y-89802841D01*
X93294175Y-89791407D01*
X93249595Y-89703913D01*
X93249592Y-89703910D01*
X93249590Y-89703907D01*
X93171092Y-89625409D01*
X93171088Y-89625406D01*
X93171087Y-89625405D01*
X93167243Y-89623446D01*
X93072158Y-89574998D01*
X93018280Y-89566465D01*
X105664200Y-89566465D01*
X105664200Y-89703534D01*
X105690937Y-89837949D01*
X105690940Y-89837961D01*
X105743386Y-89964578D01*
X105743393Y-89964591D01*
X105819536Y-90078546D01*
X105819539Y-90078550D01*
X105916449Y-90175460D01*
X105916453Y-90175463D01*
X106030408Y-90251606D01*
X106030421Y-90251613D01*
X106116071Y-90287090D01*
X106157043Y-90304061D01*
X106291465Y-90330799D01*
X106291469Y-90330800D01*
X106291470Y-90330800D01*
X106428531Y-90330800D01*
X106428532Y-90330799D01*
X106562957Y-90304061D01*
X106689585Y-90251610D01*
X106803547Y-90175463D01*
X106900463Y-90078547D01*
X106976610Y-89964585D01*
X107029061Y-89837957D01*
X107055800Y-89703530D01*
X107055800Y-89566470D01*
X107029061Y-89432043D01*
X107029059Y-89432038D01*
X106976613Y-89305421D01*
X106976606Y-89305408D01*
X106900463Y-89191453D01*
X106900460Y-89191449D01*
X106803550Y-89094539D01*
X106803546Y-89094536D01*
X106689591Y-89018393D01*
X106689578Y-89018386D01*
X106562961Y-88965940D01*
X106562949Y-88965937D01*
X106428534Y-88939200D01*
X106428530Y-88939200D01*
X106291470Y-88939200D01*
X106291465Y-88939200D01*
X106157050Y-88965937D01*
X106157038Y-88965940D01*
X106030421Y-89018386D01*
X106030408Y-89018393D01*
X105916453Y-89094536D01*
X105916449Y-89094539D01*
X105819539Y-89191449D01*
X105819536Y-89191453D01*
X105743393Y-89305408D01*
X105743386Y-89305421D01*
X105690940Y-89432038D01*
X105690937Y-89432050D01*
X105664200Y-89566465D01*
X93018280Y-89566465D01*
X92962502Y-89557631D01*
X92962498Y-89557631D01*
X92852841Y-89574998D01*
X92753914Y-89625404D01*
X92753907Y-89625409D01*
X92675409Y-89703907D01*
X92675404Y-89703914D01*
X92624998Y-89802841D01*
X92607631Y-89912497D01*
X89641010Y-89912497D01*
X89637501Y-89890341D01*
X89610806Y-89837949D01*
X89587095Y-89791413D01*
X89587092Y-89791410D01*
X89587090Y-89791407D01*
X89508592Y-89712909D01*
X89508588Y-89712906D01*
X89508587Y-89712905D01*
X89490195Y-89703534D01*
X89409658Y-89662498D01*
X89300002Y-89645131D01*
X89299998Y-89645131D01*
X89190341Y-89662498D01*
X89091414Y-89712904D01*
X89091407Y-89712909D01*
X89012909Y-89791407D01*
X89012904Y-89791414D01*
X88962498Y-89890341D01*
X88945131Y-89999997D01*
X66250000Y-89999997D01*
X66250000Y-88861088D01*
X78284040Y-88861088D01*
X78284040Y-88861093D01*
X78301407Y-88970749D01*
X78351813Y-89069676D01*
X78351818Y-89069683D01*
X78430316Y-89148181D01*
X78430319Y-89148183D01*
X78430322Y-89148186D01*
X78515231Y-89191449D01*
X78529250Y-89198592D01*
X78638907Y-89215960D01*
X78638909Y-89215960D01*
X78638911Y-89215960D01*
X78748567Y-89198592D01*
X78748568Y-89198591D01*
X78748570Y-89198591D01*
X78847496Y-89148186D01*
X78926004Y-89069678D01*
X78976409Y-88970752D01*
X78976409Y-88970750D01*
X78976410Y-88970749D01*
X78993778Y-88861093D01*
X78993778Y-88861088D01*
X78976410Y-88751432D01*
X78976409Y-88751430D01*
X78926004Y-88652504D01*
X78926001Y-88652501D01*
X78925999Y-88652498D01*
X78847501Y-88574000D01*
X78847497Y-88573997D01*
X78847496Y-88573996D01*
X78843652Y-88572037D01*
X78748567Y-88523589D01*
X78638911Y-88506222D01*
X78638907Y-88506222D01*
X78529250Y-88523589D01*
X78430323Y-88573995D01*
X78430316Y-88574000D01*
X78351818Y-88652498D01*
X78351813Y-88652505D01*
X78301407Y-88751432D01*
X78284040Y-88861088D01*
X66250000Y-88861088D01*
X66250000Y-88324994D01*
X86545131Y-88324994D01*
X86545131Y-88324999D01*
X86562498Y-88434655D01*
X86612904Y-88533582D01*
X86612909Y-88533589D01*
X86691407Y-88612087D01*
X86691410Y-88612089D01*
X86691413Y-88612092D01*
X86790339Y-88662497D01*
X86790341Y-88662498D01*
X86899998Y-88679866D01*
X86900000Y-88679866D01*
X86900002Y-88679866D01*
X87009658Y-88662498D01*
X87009659Y-88662497D01*
X87009661Y-88662497D01*
X87108587Y-88612092D01*
X87170214Y-88550465D01*
X100584200Y-88550465D01*
X100584200Y-88687534D01*
X100610937Y-88821949D01*
X100610940Y-88821961D01*
X100663386Y-88948578D01*
X100663393Y-88948591D01*
X100739536Y-89062546D01*
X100739539Y-89062550D01*
X100836449Y-89159460D01*
X100836453Y-89159463D01*
X100950408Y-89235606D01*
X100950421Y-89235613D01*
X101077038Y-89288059D01*
X101077043Y-89288061D01*
X101211465Y-89314799D01*
X101211469Y-89314800D01*
X101211470Y-89314800D01*
X101348531Y-89314800D01*
X101348532Y-89314799D01*
X101482957Y-89288061D01*
X101609585Y-89235610D01*
X101723547Y-89159463D01*
X101820463Y-89062547D01*
X101896610Y-88948585D01*
X101949061Y-88821957D01*
X101975800Y-88687530D01*
X101975800Y-88550470D01*
X101949061Y-88416043D01*
X101949059Y-88416038D01*
X101896613Y-88289421D01*
X101896606Y-88289408D01*
X101820463Y-88175453D01*
X101820460Y-88175449D01*
X101745008Y-88099997D01*
X103895131Y-88099997D01*
X103895131Y-88100002D01*
X103912498Y-88209658D01*
X103962904Y-88308585D01*
X103962909Y-88308592D01*
X104041407Y-88387090D01*
X104041410Y-88387092D01*
X104041413Y-88387095D01*
X104098227Y-88416043D01*
X104140341Y-88437501D01*
X104249998Y-88454869D01*
X104250000Y-88454869D01*
X104250002Y-88454869D01*
X104359658Y-88437501D01*
X104359659Y-88437500D01*
X104359661Y-88437500D01*
X104458587Y-88387095D01*
X104537095Y-88308587D01*
X104587500Y-88209661D01*
X104587500Y-88209659D01*
X104587501Y-88209658D01*
X104604869Y-88100002D01*
X104604869Y-88099997D01*
X104587501Y-87990341D01*
X104545848Y-87908592D01*
X104537095Y-87891413D01*
X104537092Y-87891410D01*
X104537090Y-87891407D01*
X104458592Y-87812909D01*
X104458588Y-87812906D01*
X104458587Y-87812905D01*
X104407922Y-87787090D01*
X104359658Y-87762498D01*
X104250002Y-87745131D01*
X104249998Y-87745131D01*
X104140341Y-87762498D01*
X104041414Y-87812904D01*
X104041407Y-87812909D01*
X103962909Y-87891407D01*
X103962904Y-87891414D01*
X103912498Y-87990341D01*
X103895131Y-88099997D01*
X101745008Y-88099997D01*
X101723550Y-88078539D01*
X101723546Y-88078536D01*
X101609591Y-88002393D01*
X101609578Y-88002386D01*
X101482961Y-87949940D01*
X101482949Y-87949937D01*
X101348534Y-87923200D01*
X101348530Y-87923200D01*
X101211470Y-87923200D01*
X101211465Y-87923200D01*
X101077050Y-87949937D01*
X101077038Y-87949940D01*
X100950421Y-88002386D01*
X100950408Y-88002393D01*
X100836453Y-88078536D01*
X100836449Y-88078539D01*
X100739539Y-88175449D01*
X100739536Y-88175453D01*
X100663393Y-88289408D01*
X100663386Y-88289421D01*
X100610940Y-88416038D01*
X100610937Y-88416050D01*
X100584200Y-88550465D01*
X87170214Y-88550465D01*
X87187095Y-88533584D01*
X87237500Y-88434658D01*
X87237500Y-88434656D01*
X87237501Y-88434655D01*
X87254869Y-88324999D01*
X87254869Y-88324994D01*
X87237501Y-88215338D01*
X87217179Y-88175453D01*
X87187095Y-88116410D01*
X87187092Y-88116407D01*
X87187090Y-88116404D01*
X87108592Y-88037906D01*
X87108588Y-88037903D01*
X87108587Y-88037902D01*
X87104743Y-88035943D01*
X87009658Y-87987495D01*
X86900002Y-87970128D01*
X86899998Y-87970128D01*
X86790341Y-87987495D01*
X86691414Y-88037901D01*
X86691407Y-88037906D01*
X86612909Y-88116404D01*
X86612904Y-88116411D01*
X86562498Y-88215338D01*
X86545131Y-88324994D01*
X66250000Y-88324994D01*
X66250000Y-87499997D01*
X91145131Y-87499997D01*
X91145131Y-87500002D01*
X91162498Y-87609658D01*
X91212904Y-87708585D01*
X91212909Y-87708592D01*
X91291407Y-87787090D01*
X91291410Y-87787092D01*
X91291413Y-87787095D01*
X91390339Y-87837500D01*
X91390341Y-87837501D01*
X91499998Y-87854869D01*
X91500000Y-87854869D01*
X91500002Y-87854869D01*
X91609658Y-87837501D01*
X91609659Y-87837500D01*
X91609661Y-87837500D01*
X91708587Y-87787095D01*
X91787095Y-87708587D01*
X91791472Y-87699997D01*
X95345131Y-87699997D01*
X95345131Y-87700002D01*
X95362498Y-87809658D01*
X95412904Y-87908585D01*
X95412909Y-87908592D01*
X95491407Y-87987090D01*
X95491410Y-87987092D01*
X95491413Y-87987095D01*
X95590339Y-88037500D01*
X95590341Y-88037501D01*
X95699998Y-88054869D01*
X95700000Y-88054869D01*
X95700002Y-88054869D01*
X95809658Y-88037501D01*
X95809659Y-88037500D01*
X95809661Y-88037500D01*
X95908587Y-87987095D01*
X95987095Y-87908587D01*
X96037500Y-87809661D01*
X96037500Y-87809659D01*
X96037501Y-87809658D01*
X96054869Y-87700002D01*
X96054869Y-87699997D01*
X96037501Y-87590341D01*
X95991470Y-87500000D01*
X95987095Y-87491413D01*
X95987092Y-87491410D01*
X95987090Y-87491407D01*
X95908592Y-87412909D01*
X95908588Y-87412906D01*
X95908587Y-87412905D01*
X95904743Y-87410946D01*
X95809658Y-87362498D01*
X95700002Y-87345131D01*
X95699998Y-87345131D01*
X95590341Y-87362498D01*
X95491414Y-87412904D01*
X95491407Y-87412909D01*
X95412909Y-87491407D01*
X95412904Y-87491414D01*
X95362498Y-87590341D01*
X95345131Y-87699997D01*
X91791472Y-87699997D01*
X91837500Y-87609661D01*
X91837500Y-87609659D01*
X91837501Y-87609658D01*
X91854869Y-87500002D01*
X91854869Y-87499997D01*
X91837501Y-87390341D01*
X91823314Y-87362498D01*
X91787095Y-87291413D01*
X91787092Y-87291410D01*
X91787090Y-87291407D01*
X91708592Y-87212909D01*
X91708588Y-87212906D01*
X91708587Y-87212905D01*
X91704743Y-87210946D01*
X91609658Y-87162498D01*
X91500002Y-87145131D01*
X91499998Y-87145131D01*
X91390341Y-87162498D01*
X91291414Y-87212904D01*
X91291407Y-87212909D01*
X91212909Y-87291407D01*
X91212904Y-87291414D01*
X91162498Y-87390341D01*
X91145131Y-87499997D01*
X66250000Y-87499997D01*
X66250000Y-85799997D01*
X88945131Y-85799997D01*
X88945131Y-85800002D01*
X88962498Y-85909658D01*
X89012904Y-86008585D01*
X89012909Y-86008592D01*
X89091407Y-86087090D01*
X89091410Y-86087092D01*
X89091413Y-86087095D01*
X89190339Y-86137500D01*
X89190341Y-86137501D01*
X89299998Y-86154869D01*
X89300000Y-86154869D01*
X89300002Y-86154869D01*
X89409658Y-86137501D01*
X89409659Y-86137500D01*
X89409661Y-86137500D01*
X89508587Y-86087095D01*
X89587095Y-86008587D01*
X89637500Y-85909661D01*
X89637500Y-85909659D01*
X89637501Y-85909658D01*
X89654869Y-85800002D01*
X89654869Y-85799997D01*
X89637501Y-85690341D01*
X89637500Y-85690339D01*
X89587095Y-85591413D01*
X89587092Y-85591410D01*
X89587090Y-85591407D01*
X89508592Y-85512909D01*
X89508588Y-85512906D01*
X89508587Y-85512905D01*
X89483263Y-85500002D01*
X89483253Y-85499997D01*
X99245131Y-85499997D01*
X99245131Y-85500002D01*
X99262498Y-85609658D01*
X99312904Y-85708585D01*
X99312909Y-85708592D01*
X99391407Y-85787090D01*
X99391410Y-85787092D01*
X99391413Y-85787095D01*
X99416741Y-85800000D01*
X99490341Y-85837501D01*
X99599998Y-85854869D01*
X99600000Y-85854869D01*
X99600002Y-85854869D01*
X99709658Y-85837501D01*
X99709659Y-85837500D01*
X99709661Y-85837500D01*
X99808587Y-85787095D01*
X99887095Y-85708587D01*
X99937500Y-85609661D01*
X99937500Y-85609659D01*
X99937501Y-85609658D01*
X99954869Y-85500002D01*
X99954869Y-85499997D01*
X99937501Y-85390341D01*
X99937500Y-85390339D01*
X99887095Y-85291413D01*
X99887092Y-85291410D01*
X99887090Y-85291407D01*
X99808592Y-85212909D01*
X99808588Y-85212906D01*
X99808587Y-85212905D01*
X99804743Y-85210946D01*
X99709658Y-85162498D01*
X99600002Y-85145131D01*
X99599998Y-85145131D01*
X99490341Y-85162498D01*
X99391414Y-85212904D01*
X99391407Y-85212909D01*
X99312909Y-85291407D01*
X99312904Y-85291414D01*
X99262498Y-85390341D01*
X99245131Y-85499997D01*
X89483253Y-85499997D01*
X89409658Y-85462498D01*
X89300002Y-85445131D01*
X89299998Y-85445131D01*
X89190341Y-85462498D01*
X89091414Y-85512904D01*
X89091407Y-85512909D01*
X89012909Y-85591407D01*
X89012904Y-85591414D01*
X88962498Y-85690341D01*
X88945131Y-85799997D01*
X66250000Y-85799997D01*
X66250000Y-80624500D01*
X66269685Y-80557461D01*
X66322489Y-80511706D01*
X66374000Y-80500500D01*
X105934108Y-80500500D01*
X105996949Y-80500500D01*
X106003032Y-80500648D01*
G37*
%TD.AperFunction*%
%TD*%
%TA.AperFunction,Conductor*%
%TO.N,GND*%
G36*
X66400000Y-108800000D02*
G01*
X65940325Y-108800000D01*
X65873286Y-108780315D01*
X65827531Y-108727511D01*
X65817587Y-108658353D01*
X65841948Y-108600515D01*
X65845473Y-108595919D01*
X65845480Y-108595913D01*
X65898207Y-108504587D01*
X65925500Y-108402727D01*
X65925500Y-108297273D01*
X65898207Y-108195413D01*
X65845480Y-108104087D01*
X65845476Y-108104083D01*
X65841948Y-108099485D01*
X65816755Y-108034316D01*
X65830794Y-107965871D01*
X65879608Y-107915882D01*
X65940325Y-107900000D01*
X66250000Y-107900000D01*
X66400000Y-107900000D01*
X66400000Y-108800000D01*
G37*
%TD.AperFunction*%
%TD*%
M02*
