M48
; DRILL file {KiCad 8.0.7} date 2025-01-28T02:45:25+1300
; FORMAT={-:-/ absolute / inch / decimal}
; #@! TF.CreationDate,2025-01-28T02:45:25+13:00
; #@! TF.GenerationSoftware,Kicad,Pcbnew,8.0.7
; #@! TF.FileFunction,Plated,1,4,PTH
FMAT,2
INCH
; #@! TA.AperFunction,Plated,PTH,ViaDrill
T1C0.0118
; #@! TA.AperFunction,Plated,PTH,ComponentDrill
T2C0.0118
; #@! TA.AperFunction,Plated,PTH,ComponentDrill
T3C0.0157
; #@! TA.AperFunction,Plated,PTH,ComponentDrill
T4C0.0197
; #@! TA.AperFunction,Plated,PTH,ComponentDrill
T5C0.0236
; #@! TA.AperFunction,Plated,PTH,ComponentDrill
T6C0.0433
; #@! TA.AperFunction,Plated,PTH,ComponentDrill
T7C0.1260
%
G90
G05
T1
X2.626Y-3.7204
X2.626Y-3.7534
X2.626Y-3.7865
X2.626Y-3.8196
X2.626Y-3.8527
X2.626Y-3.8858
X2.626Y-3.9189
X2.626Y-3.9519
X2.626Y-3.985
X2.626Y-4.0181
X2.626Y-4.0512
X2.626Y-4.0843
X2.626Y-4.1173
X2.626Y-4.248
X2.626Y-4.2811
X2.6275Y-4.1535
X2.6275Y-4.2126
X2.6606Y-4.1535
X2.6606Y-4.2126
X2.6937Y-4.1535
X2.6937Y-4.2126
X2.7156Y-3.2667
X2.7156Y-3.503
X2.7156Y-3.6211
X2.7156Y-3.7392
X2.7156Y-3.8573
X2.7156Y-3.9754
X2.7156Y-4.0935
X2.7156Y-4.3297
X2.7156Y-4.4478
X2.7156Y-4.5659
X2.7156Y-4.6841
X2.7156Y-5.0384
X2.7268Y-4.1535
X2.7268Y-4.2126
X2.7598Y-4.1535
X2.7598Y-4.2126
X2.7929Y-4.1535
X2.7929Y-4.2126
X2.826Y-4.1535
X2.826Y-4.2126
X2.8337Y-3.2667
X2.8337Y-3.6211
X2.8337Y-3.8573
X2.8337Y-4.0935
X2.8337Y-4.3297
X2.8337Y-4.4478
X2.8337Y-4.5659
X2.8337Y-4.6841
X2.8337Y-4.9203
X2.8337Y-5.0384
X2.8591Y-4.1535
X2.8591Y-4.2126
X2.8922Y-4.1535
X2.8922Y-4.2126
X2.9253Y-4.1535
X2.9253Y-4.2126
X2.9518Y-3.6211
X2.9518Y-3.8573
X2.9518Y-4.0935
X2.9518Y-4.3297
X2.9518Y-4.4478
X2.9518Y-4.5659
X2.9518Y-4.6841
X2.9518Y-5.0384
X2.9583Y-4.1535
X2.9583Y-4.2126
X2.9626Y-3.4055
X2.9626Y-3.5453
X2.9783Y-3.563
X2.9914Y-4.1535
X2.9914Y-4.2126
X2.9921Y-3.2254
X3.002Y-3.4055
X3.002Y-3.5639
X3.0038Y-3.5907
X3.0217Y-3.6086
X3.0245Y-4.1535
X3.0245Y-4.2126
X3.0472Y-4.2992
X3.0472Y-4.376
X3.0472Y-4.4429
X3.0472Y-4.5098
X3.0472Y-4.5866
X3.0576Y-4.1535
X3.0576Y-4.2126
X3.0699Y-3.3848
X3.0699Y-3.503
X3.0699Y-3.8573
X3.0699Y-4.0935
X3.0699Y-4.9203
X3.0699Y-5.0384
X3.0907Y-4.1535
X3.0907Y-4.2126
X3.1237Y-4.1535
X3.1237Y-4.2126
X3.1457Y-4.6457
X3.1568Y-4.1535
X3.1568Y-4.2126
X3.1641Y-4.0986
X3.1654Y-4.0709
X3.1654Y-4.252
X3.1654Y-4.6693
X3.1693Y-4.126
X3.1746Y-3.9987
X3.1772Y-4.2323
X3.187Y-4.1043
X3.188Y-3.3848
X3.188Y-3.503
X3.188Y-3.6211
X3.2283Y-3.9626
X3.248Y-3.9528
X3.2677Y-3.9626
X3.2721Y-4.4577
X3.2911Y-3.8012
X3.2953Y-4.4803
X3.3061Y-3.7392
X3.3061Y-5.0384
X3.311Y-3.8228
X3.3228Y-3.9528
X3.3307Y-3.8012
X3.3346Y-4.7323
X3.3445Y-4.7795
X3.3476Y-3.222
X3.3602Y-3.372
X3.3643Y-4.7883
X3.3754Y-3.946
X3.376Y-4.3504
X3.3858Y-3.4035
X3.4134Y-3.9291
X3.4242Y-3.503
X3.4242Y-3.6211
X3.4242Y-3.7392
X3.4242Y-4.8022
X3.4242Y-5.0384
X3.4281Y-4.3947
X3.4685Y-4.4272
X3.4685Y-4.6535
X3.4693Y-4.6228
X3.4764Y-4.4488
X3.4776Y-3.9976
X3.4921Y-4.6575
X3.5039Y-4.0453
X3.5039Y-4.4488
X3.5059Y-4.1437
X3.5064Y-4.2224
X3.5098Y-3.9154
X3.5118Y-4.2559
X3.5148Y-4.0875
X3.5207Y-4.1211
X3.5231Y-4.6457
X3.5236Y-4.4744
X3.5276Y-4.0236
X3.5423Y-3.2667
X3.5423Y-3.3848
X3.5423Y-3.503
X3.5423Y-3.6211
X3.5423Y-3.7392
X3.5423Y-4.8022
X3.5428Y-4.2028
X3.5433Y-4.1634
X3.5472Y-4.2677
X3.5492Y-4.3947
X3.566Y-4.6883
X3.5925Y-4.687
X3.6083Y-4.6693
X3.6181Y-4.6417
X3.6201Y-4.7126
X3.6476Y-4.6654
X3.6604Y-3.2667
X3.6604Y-3.3848
X3.6604Y-3.503
X3.6604Y-3.6211
X3.6604Y-3.7392
X3.6732Y-4.6535
X3.7343Y-4.935
X3.7461Y-3.7773
X3.752Y-3.8425
X3.752Y-3.8858
X3.7598Y-4.9006
X3.7717Y-4.685
X3.7736Y-3.8091
X3.7785Y-3.2667
X3.7785Y-3.3848
X3.7785Y-3.503
X3.7785Y-3.6211
X3.7953Y-3.8976
X3.8967Y-3.2667
X3.8967Y-3.3848
X3.8967Y-3.503
X3.8967Y-3.6211
X4.0148Y-3.2667
X4.0148Y-3.3848
X4.0148Y-3.503
X4.0148Y-3.6211
X4.0913Y-3.8161
X4.0929Y-3.7661
X4.0937Y-3.6661
X4.1063Y-4.6063
X4.1142Y-4.6575
X4.1329Y-3.503
X4.1329Y-3.6211
X4.1732Y-4.563
X4.2047Y-4.5276
X4.251Y-3.503
X4.251Y-3.6211
X4.251Y-3.7392
X4.251Y-3.8573
X4.251Y-3.9754
X4.251Y-4.0935
T2
X3.2461Y-4.0335
X3.2461Y-4.0837
X3.2461Y-4.1339
X3.2461Y-4.1841
X3.2461Y-4.2343
X3.2963Y-4.0335
X3.2963Y-4.0837
X3.2963Y-4.1339
X3.2963Y-4.1841
X3.2963Y-4.2343
X3.3465Y-4.0335
X3.3465Y-4.0837
X3.3465Y-4.1339
X3.3465Y-4.1841
X3.3465Y-4.2343
X3.3967Y-4.0335
X3.3967Y-4.0837
X3.3967Y-4.1339
X3.3967Y-4.1841
X3.3967Y-4.2343
X3.4469Y-4.0335
X3.4469Y-4.0837
X3.4469Y-4.1339
X3.4469Y-4.1841
X3.4469Y-4.2343
T3
X2.5797Y-4.2657
X3.2303Y-4.8858
X3.2303Y-4.939
X3.2638Y-4.8858
X3.2638Y-4.939
X3.2972Y-4.8858
X3.2972Y-4.939
X3.3307Y-4.8858
X3.3307Y-4.939
X3.3642Y-4.8858
X3.3642Y-4.939
X3.3976Y-4.8858
X3.3976Y-4.939
X3.4311Y-4.8858
X3.4311Y-4.939
X3.4646Y-4.8858
X3.4646Y-4.939
T4
X3.4764Y-3.9488
X3.5471Y-3.8781
T6
X2.7461Y-4.7933
X2.7461Y-4.9705
X2.8346Y-3.752
X2.8346Y-4.0079
X3.002Y-4.7933
X3.002Y-4.9705
X3.0118Y-3.752
X3.0118Y-4.0079
T7
X4.1732Y-3.3071
X4.1732Y-4.9606
T5
G00X3.1772Y-4.8949
M15
G01X3.1772Y-4.9539
M16
G05
G00X3.1772Y-5.0417
M15
G01X3.1772Y-5.0732
M16
G05
G00X3.5177Y-4.8949
M15
G01X3.5177Y-4.9539
M16
G05
G00X3.5177Y-5.0417
M15
G01X3.5177Y-5.0732
M16
G05
M30
