%TF.GenerationSoftware,KiCad,Pcbnew,8.0.7*%
%TF.CreationDate,2025-02-06T19:44:27+13:00*%
%TF.ProjectId,Housens-L,486f7573-656e-4732-9d4c-2e6b69636164,001*%
%TF.SameCoordinates,Original*%
%TF.FileFunction,Legend,Top*%
%TF.FilePolarity,Positive*%
%FSLAX46Y46*%
G04 Gerber Fmt 4.6, Leading zero omitted, Abs format (unit mm)*
G04 Created by KiCad (PCBNEW 8.0.7) date 2025-02-06 19:44:27*
%MOMM*%
%LPD*%
G01*
G04 APERTURE LIST*
%ADD10C,0.150000*%
%ADD11C,0.120000*%
%ADD12C,0.200000*%
%ADD13C,0.100000*%
G04 APERTURE END LIST*
D10*
X92533333Y-122524819D02*
X92200000Y-122048628D01*
X91961905Y-122524819D02*
X91961905Y-121524819D01*
X91961905Y-121524819D02*
X92342857Y-121524819D01*
X92342857Y-121524819D02*
X92438095Y-121572438D01*
X92438095Y-121572438D02*
X92485714Y-121620057D01*
X92485714Y-121620057D02*
X92533333Y-121715295D01*
X92533333Y-121715295D02*
X92533333Y-121858152D01*
X92533333Y-121858152D02*
X92485714Y-121953390D01*
X92485714Y-121953390D02*
X92438095Y-122001009D01*
X92438095Y-122001009D02*
X92342857Y-122048628D01*
X92342857Y-122048628D02*
X91961905Y-122048628D01*
X92866667Y-121524819D02*
X93533333Y-121524819D01*
X93533333Y-121524819D02*
X93104762Y-122524819D01*
X71004819Y-83916666D02*
X70528628Y-84249999D01*
X71004819Y-84488094D02*
X70004819Y-84488094D01*
X70004819Y-84488094D02*
X70004819Y-84107142D01*
X70004819Y-84107142D02*
X70052438Y-84011904D01*
X70052438Y-84011904D02*
X70100057Y-83964285D01*
X70100057Y-83964285D02*
X70195295Y-83916666D01*
X70195295Y-83916666D02*
X70338152Y-83916666D01*
X70338152Y-83916666D02*
X70433390Y-83964285D01*
X70433390Y-83964285D02*
X70481009Y-84011904D01*
X70481009Y-84011904D02*
X70528628Y-84107142D01*
X70528628Y-84107142D02*
X70528628Y-84488094D01*
X70100057Y-83535713D02*
X70052438Y-83488094D01*
X70052438Y-83488094D02*
X70004819Y-83392856D01*
X70004819Y-83392856D02*
X70004819Y-83154761D01*
X70004819Y-83154761D02*
X70052438Y-83059523D01*
X70052438Y-83059523D02*
X70100057Y-83011904D01*
X70100057Y-83011904D02*
X70195295Y-82964285D01*
X70195295Y-82964285D02*
X70290533Y-82964285D01*
X70290533Y-82964285D02*
X70433390Y-83011904D01*
X70433390Y-83011904D02*
X71004819Y-83583332D01*
X71004819Y-83583332D02*
X71004819Y-82964285D01*
X91359580Y-111016666D02*
X91407200Y-111064285D01*
X91407200Y-111064285D02*
X91454819Y-111207142D01*
X91454819Y-111207142D02*
X91454819Y-111302380D01*
X91454819Y-111302380D02*
X91407200Y-111445237D01*
X91407200Y-111445237D02*
X91311961Y-111540475D01*
X91311961Y-111540475D02*
X91216723Y-111588094D01*
X91216723Y-111588094D02*
X91026247Y-111635713D01*
X91026247Y-111635713D02*
X90883390Y-111635713D01*
X90883390Y-111635713D02*
X90692914Y-111588094D01*
X90692914Y-111588094D02*
X90597676Y-111540475D01*
X90597676Y-111540475D02*
X90502438Y-111445237D01*
X90502438Y-111445237D02*
X90454819Y-111302380D01*
X90454819Y-111302380D02*
X90454819Y-111207142D01*
X90454819Y-111207142D02*
X90502438Y-111064285D01*
X90502438Y-111064285D02*
X90550057Y-111016666D01*
X90883390Y-110445237D02*
X90835771Y-110540475D01*
X90835771Y-110540475D02*
X90788152Y-110588094D01*
X90788152Y-110588094D02*
X90692914Y-110635713D01*
X90692914Y-110635713D02*
X90645295Y-110635713D01*
X90645295Y-110635713D02*
X90550057Y-110588094D01*
X90550057Y-110588094D02*
X90502438Y-110540475D01*
X90502438Y-110540475D02*
X90454819Y-110445237D01*
X90454819Y-110445237D02*
X90454819Y-110254761D01*
X90454819Y-110254761D02*
X90502438Y-110159523D01*
X90502438Y-110159523D02*
X90550057Y-110111904D01*
X90550057Y-110111904D02*
X90645295Y-110064285D01*
X90645295Y-110064285D02*
X90692914Y-110064285D01*
X90692914Y-110064285D02*
X90788152Y-110111904D01*
X90788152Y-110111904D02*
X90835771Y-110159523D01*
X90835771Y-110159523D02*
X90883390Y-110254761D01*
X90883390Y-110254761D02*
X90883390Y-110445237D01*
X90883390Y-110445237D02*
X90931009Y-110540475D01*
X90931009Y-110540475D02*
X90978628Y-110588094D01*
X90978628Y-110588094D02*
X91073866Y-110635713D01*
X91073866Y-110635713D02*
X91264342Y-110635713D01*
X91264342Y-110635713D02*
X91359580Y-110588094D01*
X91359580Y-110588094D02*
X91407200Y-110540475D01*
X91407200Y-110540475D02*
X91454819Y-110445237D01*
X91454819Y-110445237D02*
X91454819Y-110254761D01*
X91454819Y-110254761D02*
X91407200Y-110159523D01*
X91407200Y-110159523D02*
X91359580Y-110111904D01*
X91359580Y-110111904D02*
X91264342Y-110064285D01*
X91264342Y-110064285D02*
X91073866Y-110064285D01*
X91073866Y-110064285D02*
X90978628Y-110111904D01*
X90978628Y-110111904D02*
X90931009Y-110159523D01*
X90931009Y-110159523D02*
X90883390Y-110254761D01*
X74507142Y-114065830D02*
X74459523Y-114113450D01*
X74459523Y-114113450D02*
X74316666Y-114161069D01*
X74316666Y-114161069D02*
X74221428Y-114161069D01*
X74221428Y-114161069D02*
X74078571Y-114113450D01*
X74078571Y-114113450D02*
X73983333Y-114018211D01*
X73983333Y-114018211D02*
X73935714Y-113922973D01*
X73935714Y-113922973D02*
X73888095Y-113732497D01*
X73888095Y-113732497D02*
X73888095Y-113589640D01*
X73888095Y-113589640D02*
X73935714Y-113399164D01*
X73935714Y-113399164D02*
X73983333Y-113303926D01*
X73983333Y-113303926D02*
X74078571Y-113208688D01*
X74078571Y-113208688D02*
X74221428Y-113161069D01*
X74221428Y-113161069D02*
X74316666Y-113161069D01*
X74316666Y-113161069D02*
X74459523Y-113208688D01*
X74459523Y-113208688D02*
X74507142Y-113256307D01*
X75459523Y-114161069D02*
X74888095Y-114161069D01*
X75173809Y-114161069D02*
X75173809Y-113161069D01*
X75173809Y-113161069D02*
X75078571Y-113303926D01*
X75078571Y-113303926D02*
X74983333Y-113399164D01*
X74983333Y-113399164D02*
X74888095Y-113446783D01*
X76316666Y-113161069D02*
X76126190Y-113161069D01*
X76126190Y-113161069D02*
X76030952Y-113208688D01*
X76030952Y-113208688D02*
X75983333Y-113256307D01*
X75983333Y-113256307D02*
X75888095Y-113399164D01*
X75888095Y-113399164D02*
X75840476Y-113589640D01*
X75840476Y-113589640D02*
X75840476Y-113970592D01*
X75840476Y-113970592D02*
X75888095Y-114065830D01*
X75888095Y-114065830D02*
X75935714Y-114113450D01*
X75935714Y-114113450D02*
X76030952Y-114161069D01*
X76030952Y-114161069D02*
X76221428Y-114161069D01*
X76221428Y-114161069D02*
X76316666Y-114113450D01*
X76316666Y-114113450D02*
X76364285Y-114065830D01*
X76364285Y-114065830D02*
X76411904Y-113970592D01*
X76411904Y-113970592D02*
X76411904Y-113732497D01*
X76411904Y-113732497D02*
X76364285Y-113637259D01*
X76364285Y-113637259D02*
X76316666Y-113589640D01*
X76316666Y-113589640D02*
X76221428Y-113542021D01*
X76221428Y-113542021D02*
X76030952Y-113542021D01*
X76030952Y-113542021D02*
X75935714Y-113589640D01*
X75935714Y-113589640D02*
X75888095Y-113637259D01*
X75888095Y-113637259D02*
X75840476Y-113732497D01*
X74507142Y-115609580D02*
X74459523Y-115657200D01*
X74459523Y-115657200D02*
X74316666Y-115704819D01*
X74316666Y-115704819D02*
X74221428Y-115704819D01*
X74221428Y-115704819D02*
X74078571Y-115657200D01*
X74078571Y-115657200D02*
X73983333Y-115561961D01*
X73983333Y-115561961D02*
X73935714Y-115466723D01*
X73935714Y-115466723D02*
X73888095Y-115276247D01*
X73888095Y-115276247D02*
X73888095Y-115133390D01*
X73888095Y-115133390D02*
X73935714Y-114942914D01*
X73935714Y-114942914D02*
X73983333Y-114847676D01*
X73983333Y-114847676D02*
X74078571Y-114752438D01*
X74078571Y-114752438D02*
X74221428Y-114704819D01*
X74221428Y-114704819D02*
X74316666Y-114704819D01*
X74316666Y-114704819D02*
X74459523Y-114752438D01*
X74459523Y-114752438D02*
X74507142Y-114800057D01*
X75459523Y-115704819D02*
X74888095Y-115704819D01*
X75173809Y-115704819D02*
X75173809Y-114704819D01*
X75173809Y-114704819D02*
X75078571Y-114847676D01*
X75078571Y-114847676D02*
X74983333Y-114942914D01*
X74983333Y-114942914D02*
X74888095Y-114990533D01*
X76364285Y-114704819D02*
X75888095Y-114704819D01*
X75888095Y-114704819D02*
X75840476Y-115181009D01*
X75840476Y-115181009D02*
X75888095Y-115133390D01*
X75888095Y-115133390D02*
X75983333Y-115085771D01*
X75983333Y-115085771D02*
X76221428Y-115085771D01*
X76221428Y-115085771D02*
X76316666Y-115133390D01*
X76316666Y-115133390D02*
X76364285Y-115181009D01*
X76364285Y-115181009D02*
X76411904Y-115276247D01*
X76411904Y-115276247D02*
X76411904Y-115514342D01*
X76411904Y-115514342D02*
X76364285Y-115609580D01*
X76364285Y-115609580D02*
X76316666Y-115657200D01*
X76316666Y-115657200D02*
X76221428Y-115704819D01*
X76221428Y-115704819D02*
X75983333Y-115704819D01*
X75983333Y-115704819D02*
X75888095Y-115657200D01*
X75888095Y-115657200D02*
X75840476Y-115609580D01*
X107333333Y-114609580D02*
X107285714Y-114657200D01*
X107285714Y-114657200D02*
X107142857Y-114704819D01*
X107142857Y-114704819D02*
X107047619Y-114704819D01*
X107047619Y-114704819D02*
X106904762Y-114657200D01*
X106904762Y-114657200D02*
X106809524Y-114561961D01*
X106809524Y-114561961D02*
X106761905Y-114466723D01*
X106761905Y-114466723D02*
X106714286Y-114276247D01*
X106714286Y-114276247D02*
X106714286Y-114133390D01*
X106714286Y-114133390D02*
X106761905Y-113942914D01*
X106761905Y-113942914D02*
X106809524Y-113847676D01*
X106809524Y-113847676D02*
X106904762Y-113752438D01*
X106904762Y-113752438D02*
X107047619Y-113704819D01*
X107047619Y-113704819D02*
X107142857Y-113704819D01*
X107142857Y-113704819D02*
X107285714Y-113752438D01*
X107285714Y-113752438D02*
X107333333Y-113800057D01*
X108285714Y-114704819D02*
X107714286Y-114704819D01*
X108000000Y-114704819D02*
X108000000Y-113704819D01*
X108000000Y-113704819D02*
X107904762Y-113847676D01*
X107904762Y-113847676D02*
X107809524Y-113942914D01*
X107809524Y-113942914D02*
X107714286Y-113990533D01*
X78438095Y-87554819D02*
X78438095Y-88364342D01*
X78438095Y-88364342D02*
X78485714Y-88459580D01*
X78485714Y-88459580D02*
X78533333Y-88507200D01*
X78533333Y-88507200D02*
X78628571Y-88554819D01*
X78628571Y-88554819D02*
X78819047Y-88554819D01*
X78819047Y-88554819D02*
X78914285Y-88507200D01*
X78914285Y-88507200D02*
X78961904Y-88459580D01*
X78961904Y-88459580D02*
X79009523Y-88364342D01*
X79009523Y-88364342D02*
X79009523Y-87554819D01*
X79390476Y-87554819D02*
X80009523Y-87554819D01*
X80009523Y-87554819D02*
X79676190Y-87935771D01*
X79676190Y-87935771D02*
X79819047Y-87935771D01*
X79819047Y-87935771D02*
X79914285Y-87983390D01*
X79914285Y-87983390D02*
X79961904Y-88031009D01*
X79961904Y-88031009D02*
X80009523Y-88126247D01*
X80009523Y-88126247D02*
X80009523Y-88364342D01*
X80009523Y-88364342D02*
X79961904Y-88459580D01*
X79961904Y-88459580D02*
X79914285Y-88507200D01*
X79914285Y-88507200D02*
X79819047Y-88554819D01*
X79819047Y-88554819D02*
X79533333Y-88554819D01*
X79533333Y-88554819D02*
X79438095Y-88507200D01*
X79438095Y-88507200D02*
X79390476Y-88459580D01*
X82622080Y-117616666D02*
X82669700Y-117664285D01*
X82669700Y-117664285D02*
X82717319Y-117807142D01*
X82717319Y-117807142D02*
X82717319Y-117902380D01*
X82717319Y-117902380D02*
X82669700Y-118045237D01*
X82669700Y-118045237D02*
X82574461Y-118140475D01*
X82574461Y-118140475D02*
X82479223Y-118188094D01*
X82479223Y-118188094D02*
X82288747Y-118235713D01*
X82288747Y-118235713D02*
X82145890Y-118235713D01*
X82145890Y-118235713D02*
X81955414Y-118188094D01*
X81955414Y-118188094D02*
X81860176Y-118140475D01*
X81860176Y-118140475D02*
X81764938Y-118045237D01*
X81764938Y-118045237D02*
X81717319Y-117902380D01*
X81717319Y-117902380D02*
X81717319Y-117807142D01*
X81717319Y-117807142D02*
X81764938Y-117664285D01*
X81764938Y-117664285D02*
X81812557Y-117616666D01*
X81717319Y-116759523D02*
X81717319Y-116949999D01*
X81717319Y-116949999D02*
X81764938Y-117045237D01*
X81764938Y-117045237D02*
X81812557Y-117092856D01*
X81812557Y-117092856D02*
X81955414Y-117188094D01*
X81955414Y-117188094D02*
X82145890Y-117235713D01*
X82145890Y-117235713D02*
X82526842Y-117235713D01*
X82526842Y-117235713D02*
X82622080Y-117188094D01*
X82622080Y-117188094D02*
X82669700Y-117140475D01*
X82669700Y-117140475D02*
X82717319Y-117045237D01*
X82717319Y-117045237D02*
X82717319Y-116854761D01*
X82717319Y-116854761D02*
X82669700Y-116759523D01*
X82669700Y-116759523D02*
X82622080Y-116711904D01*
X82622080Y-116711904D02*
X82526842Y-116664285D01*
X82526842Y-116664285D02*
X82288747Y-116664285D01*
X82288747Y-116664285D02*
X82193509Y-116711904D01*
X82193509Y-116711904D02*
X82145890Y-116759523D01*
X82145890Y-116759523D02*
X82098271Y-116854761D01*
X82098271Y-116854761D02*
X82098271Y-117045237D01*
X82098271Y-117045237D02*
X82145890Y-117140475D01*
X82145890Y-117140475D02*
X82193509Y-117188094D01*
X82193509Y-117188094D02*
X82288747Y-117235713D01*
X80223809Y-113178628D02*
X80223809Y-113654819D01*
X79890476Y-112654819D02*
X80223809Y-113178628D01*
X80223809Y-113178628D02*
X80557142Y-112654819D01*
X81414285Y-113654819D02*
X80842857Y-113654819D01*
X81128571Y-113654819D02*
X81128571Y-112654819D01*
X81128571Y-112654819D02*
X81033333Y-112797676D01*
X81033333Y-112797676D02*
X80938095Y-112892914D01*
X80938095Y-112892914D02*
X80842857Y-112940533D01*
X72704819Y-83966666D02*
X72228628Y-84299999D01*
X72704819Y-84538094D02*
X71704819Y-84538094D01*
X71704819Y-84538094D02*
X71704819Y-84157142D01*
X71704819Y-84157142D02*
X71752438Y-84061904D01*
X71752438Y-84061904D02*
X71800057Y-84014285D01*
X71800057Y-84014285D02*
X71895295Y-83966666D01*
X71895295Y-83966666D02*
X72038152Y-83966666D01*
X72038152Y-83966666D02*
X72133390Y-84014285D01*
X72133390Y-84014285D02*
X72181009Y-84061904D01*
X72181009Y-84061904D02*
X72228628Y-84157142D01*
X72228628Y-84157142D02*
X72228628Y-84538094D01*
X71704819Y-83633332D02*
X71704819Y-83014285D01*
X71704819Y-83014285D02*
X72085771Y-83347618D01*
X72085771Y-83347618D02*
X72085771Y-83204761D01*
X72085771Y-83204761D02*
X72133390Y-83109523D01*
X72133390Y-83109523D02*
X72181009Y-83061904D01*
X72181009Y-83061904D02*
X72276247Y-83014285D01*
X72276247Y-83014285D02*
X72514342Y-83014285D01*
X72514342Y-83014285D02*
X72609580Y-83061904D01*
X72609580Y-83061904D02*
X72657200Y-83109523D01*
X72657200Y-83109523D02*
X72704819Y-83204761D01*
X72704819Y-83204761D02*
X72704819Y-83490475D01*
X72704819Y-83490475D02*
X72657200Y-83585713D01*
X72657200Y-83585713D02*
X72609580Y-83633332D01*
X78759580Y-82866666D02*
X78807200Y-82914285D01*
X78807200Y-82914285D02*
X78854819Y-83057142D01*
X78854819Y-83057142D02*
X78854819Y-83152380D01*
X78854819Y-83152380D02*
X78807200Y-83295237D01*
X78807200Y-83295237D02*
X78711961Y-83390475D01*
X78711961Y-83390475D02*
X78616723Y-83438094D01*
X78616723Y-83438094D02*
X78426247Y-83485713D01*
X78426247Y-83485713D02*
X78283390Y-83485713D01*
X78283390Y-83485713D02*
X78092914Y-83438094D01*
X78092914Y-83438094D02*
X77997676Y-83390475D01*
X77997676Y-83390475D02*
X77902438Y-83295237D01*
X77902438Y-83295237D02*
X77854819Y-83152380D01*
X77854819Y-83152380D02*
X77854819Y-83057142D01*
X77854819Y-83057142D02*
X77902438Y-82914285D01*
X77902438Y-82914285D02*
X77950057Y-82866666D01*
X78188152Y-82009523D02*
X78854819Y-82009523D01*
X77807200Y-82247618D02*
X78521485Y-82485713D01*
X78521485Y-82485713D02*
X78521485Y-81866666D01*
X89338095Y-108054819D02*
X89338095Y-108864342D01*
X89338095Y-108864342D02*
X89385714Y-108959580D01*
X89385714Y-108959580D02*
X89433333Y-109007200D01*
X89433333Y-109007200D02*
X89528571Y-109054819D01*
X89528571Y-109054819D02*
X89719047Y-109054819D01*
X89719047Y-109054819D02*
X89814285Y-109007200D01*
X89814285Y-109007200D02*
X89861904Y-108959580D01*
X89861904Y-108959580D02*
X89909523Y-108864342D01*
X89909523Y-108864342D02*
X89909523Y-108054819D01*
X90814285Y-108388152D02*
X90814285Y-109054819D01*
X90576190Y-108007200D02*
X90338095Y-108721485D01*
X90338095Y-108721485D02*
X90957142Y-108721485D01*
X97333333Y-129204819D02*
X97000000Y-128728628D01*
X96761905Y-129204819D02*
X96761905Y-128204819D01*
X96761905Y-128204819D02*
X97142857Y-128204819D01*
X97142857Y-128204819D02*
X97238095Y-128252438D01*
X97238095Y-128252438D02*
X97285714Y-128300057D01*
X97285714Y-128300057D02*
X97333333Y-128395295D01*
X97333333Y-128395295D02*
X97333333Y-128538152D01*
X97333333Y-128538152D02*
X97285714Y-128633390D01*
X97285714Y-128633390D02*
X97238095Y-128681009D01*
X97238095Y-128681009D02*
X97142857Y-128728628D01*
X97142857Y-128728628D02*
X96761905Y-128728628D01*
X98190476Y-128204819D02*
X98000000Y-128204819D01*
X98000000Y-128204819D02*
X97904762Y-128252438D01*
X97904762Y-128252438D02*
X97857143Y-128300057D01*
X97857143Y-128300057D02*
X97761905Y-128442914D01*
X97761905Y-128442914D02*
X97714286Y-128633390D01*
X97714286Y-128633390D02*
X97714286Y-129014342D01*
X97714286Y-129014342D02*
X97761905Y-129109580D01*
X97761905Y-129109580D02*
X97809524Y-129157200D01*
X97809524Y-129157200D02*
X97904762Y-129204819D01*
X97904762Y-129204819D02*
X98095238Y-129204819D01*
X98095238Y-129204819D02*
X98190476Y-129157200D01*
X98190476Y-129157200D02*
X98238095Y-129109580D01*
X98238095Y-129109580D02*
X98285714Y-129014342D01*
X98285714Y-129014342D02*
X98285714Y-128776247D01*
X98285714Y-128776247D02*
X98238095Y-128681009D01*
X98238095Y-128681009D02*
X98190476Y-128633390D01*
X98190476Y-128633390D02*
X98095238Y-128585771D01*
X98095238Y-128585771D02*
X97904762Y-128585771D01*
X97904762Y-128585771D02*
X97809524Y-128633390D01*
X97809524Y-128633390D02*
X97761905Y-128681009D01*
X97761905Y-128681009D02*
X97714286Y-128776247D01*
X81738095Y-85454819D02*
X81738095Y-86264342D01*
X81738095Y-86264342D02*
X81785714Y-86359580D01*
X81785714Y-86359580D02*
X81833333Y-86407200D01*
X81833333Y-86407200D02*
X81928571Y-86454819D01*
X81928571Y-86454819D02*
X82119047Y-86454819D01*
X82119047Y-86454819D02*
X82214285Y-86407200D01*
X82214285Y-86407200D02*
X82261904Y-86359580D01*
X82261904Y-86359580D02*
X82309523Y-86264342D01*
X82309523Y-86264342D02*
X82309523Y-85454819D01*
X82738095Y-85550057D02*
X82785714Y-85502438D01*
X82785714Y-85502438D02*
X82880952Y-85454819D01*
X82880952Y-85454819D02*
X83119047Y-85454819D01*
X83119047Y-85454819D02*
X83214285Y-85502438D01*
X83214285Y-85502438D02*
X83261904Y-85550057D01*
X83261904Y-85550057D02*
X83309523Y-85645295D01*
X83309523Y-85645295D02*
X83309523Y-85740533D01*
X83309523Y-85740533D02*
X83261904Y-85883390D01*
X83261904Y-85883390D02*
X82690476Y-86454819D01*
X82690476Y-86454819D02*
X83309523Y-86454819D01*
X83597080Y-95567857D02*
X83644700Y-95615476D01*
X83644700Y-95615476D02*
X83692319Y-95758333D01*
X83692319Y-95758333D02*
X83692319Y-95853571D01*
X83692319Y-95853571D02*
X83644700Y-95996428D01*
X83644700Y-95996428D02*
X83549461Y-96091666D01*
X83549461Y-96091666D02*
X83454223Y-96139285D01*
X83454223Y-96139285D02*
X83263747Y-96186904D01*
X83263747Y-96186904D02*
X83120890Y-96186904D01*
X83120890Y-96186904D02*
X82930414Y-96139285D01*
X82930414Y-96139285D02*
X82835176Y-96091666D01*
X82835176Y-96091666D02*
X82739938Y-95996428D01*
X82739938Y-95996428D02*
X82692319Y-95853571D01*
X82692319Y-95853571D02*
X82692319Y-95758333D01*
X82692319Y-95758333D02*
X82739938Y-95615476D01*
X82739938Y-95615476D02*
X82787557Y-95567857D01*
X83692319Y-94615476D02*
X83692319Y-95186904D01*
X83692319Y-94901190D02*
X82692319Y-94901190D01*
X82692319Y-94901190D02*
X82835176Y-94996428D01*
X82835176Y-94996428D02*
X82930414Y-95091666D01*
X82930414Y-95091666D02*
X82978033Y-95186904D01*
X83692319Y-93663095D02*
X83692319Y-94234523D01*
X83692319Y-93948809D02*
X82692319Y-93948809D01*
X82692319Y-93948809D02*
X82835176Y-94044047D01*
X82835176Y-94044047D02*
X82930414Y-94139285D01*
X82930414Y-94139285D02*
X82978033Y-94234523D01*
X103633333Y-114109580D02*
X103585714Y-114157200D01*
X103585714Y-114157200D02*
X103442857Y-114204819D01*
X103442857Y-114204819D02*
X103347619Y-114204819D01*
X103347619Y-114204819D02*
X103204762Y-114157200D01*
X103204762Y-114157200D02*
X103109524Y-114061961D01*
X103109524Y-114061961D02*
X103061905Y-113966723D01*
X103061905Y-113966723D02*
X103014286Y-113776247D01*
X103014286Y-113776247D02*
X103014286Y-113633390D01*
X103014286Y-113633390D02*
X103061905Y-113442914D01*
X103061905Y-113442914D02*
X103109524Y-113347676D01*
X103109524Y-113347676D02*
X103204762Y-113252438D01*
X103204762Y-113252438D02*
X103347619Y-113204819D01*
X103347619Y-113204819D02*
X103442857Y-113204819D01*
X103442857Y-113204819D02*
X103585714Y-113252438D01*
X103585714Y-113252438D02*
X103633333Y-113300057D01*
X104014286Y-113300057D02*
X104061905Y-113252438D01*
X104061905Y-113252438D02*
X104157143Y-113204819D01*
X104157143Y-113204819D02*
X104395238Y-113204819D01*
X104395238Y-113204819D02*
X104490476Y-113252438D01*
X104490476Y-113252438D02*
X104538095Y-113300057D01*
X104538095Y-113300057D02*
X104585714Y-113395295D01*
X104585714Y-113395295D02*
X104585714Y-113490533D01*
X104585714Y-113490533D02*
X104538095Y-113633390D01*
X104538095Y-113633390D02*
X103966667Y-114204819D01*
X103966667Y-114204819D02*
X104585714Y-114204819D01*
X103500595Y-120154819D02*
X103500595Y-120964342D01*
X103500595Y-120964342D02*
X103548214Y-121059580D01*
X103548214Y-121059580D02*
X103595833Y-121107200D01*
X103595833Y-121107200D02*
X103691071Y-121154819D01*
X103691071Y-121154819D02*
X103881547Y-121154819D01*
X103881547Y-121154819D02*
X103976785Y-121107200D01*
X103976785Y-121107200D02*
X104024404Y-121059580D01*
X104024404Y-121059580D02*
X104072023Y-120964342D01*
X104072023Y-120964342D02*
X104072023Y-120154819D01*
X105072023Y-121154819D02*
X104500595Y-121154819D01*
X104786309Y-121154819D02*
X104786309Y-120154819D01*
X104786309Y-120154819D02*
X104691071Y-120297676D01*
X104691071Y-120297676D02*
X104595833Y-120392914D01*
X104595833Y-120392914D02*
X104500595Y-120440533D01*
X93033333Y-100359580D02*
X92985714Y-100407200D01*
X92985714Y-100407200D02*
X92842857Y-100454819D01*
X92842857Y-100454819D02*
X92747619Y-100454819D01*
X92747619Y-100454819D02*
X92604762Y-100407200D01*
X92604762Y-100407200D02*
X92509524Y-100311961D01*
X92509524Y-100311961D02*
X92461905Y-100216723D01*
X92461905Y-100216723D02*
X92414286Y-100026247D01*
X92414286Y-100026247D02*
X92414286Y-99883390D01*
X92414286Y-99883390D02*
X92461905Y-99692914D01*
X92461905Y-99692914D02*
X92509524Y-99597676D01*
X92509524Y-99597676D02*
X92604762Y-99502438D01*
X92604762Y-99502438D02*
X92747619Y-99454819D01*
X92747619Y-99454819D02*
X92842857Y-99454819D01*
X92842857Y-99454819D02*
X92985714Y-99502438D01*
X92985714Y-99502438D02*
X93033333Y-99550057D01*
X93509524Y-100454819D02*
X93700000Y-100454819D01*
X93700000Y-100454819D02*
X93795238Y-100407200D01*
X93795238Y-100407200D02*
X93842857Y-100359580D01*
X93842857Y-100359580D02*
X93938095Y-100216723D01*
X93938095Y-100216723D02*
X93985714Y-100026247D01*
X93985714Y-100026247D02*
X93985714Y-99645295D01*
X93985714Y-99645295D02*
X93938095Y-99550057D01*
X93938095Y-99550057D02*
X93890476Y-99502438D01*
X93890476Y-99502438D02*
X93795238Y-99454819D01*
X93795238Y-99454819D02*
X93604762Y-99454819D01*
X93604762Y-99454819D02*
X93509524Y-99502438D01*
X93509524Y-99502438D02*
X93461905Y-99550057D01*
X93461905Y-99550057D02*
X93414286Y-99645295D01*
X93414286Y-99645295D02*
X93414286Y-99883390D01*
X93414286Y-99883390D02*
X93461905Y-99978628D01*
X93461905Y-99978628D02*
X93509524Y-100026247D01*
X93509524Y-100026247D02*
X93604762Y-100073866D01*
X93604762Y-100073866D02*
X93795238Y-100073866D01*
X93795238Y-100073866D02*
X93890476Y-100026247D01*
X93890476Y-100026247D02*
X93938095Y-99978628D01*
X93938095Y-99978628D02*
X93985714Y-99883390D01*
X85297080Y-95567857D02*
X85344700Y-95615476D01*
X85344700Y-95615476D02*
X85392319Y-95758333D01*
X85392319Y-95758333D02*
X85392319Y-95853571D01*
X85392319Y-95853571D02*
X85344700Y-95996428D01*
X85344700Y-95996428D02*
X85249461Y-96091666D01*
X85249461Y-96091666D02*
X85154223Y-96139285D01*
X85154223Y-96139285D02*
X84963747Y-96186904D01*
X84963747Y-96186904D02*
X84820890Y-96186904D01*
X84820890Y-96186904D02*
X84630414Y-96139285D01*
X84630414Y-96139285D02*
X84535176Y-96091666D01*
X84535176Y-96091666D02*
X84439938Y-95996428D01*
X84439938Y-95996428D02*
X84392319Y-95853571D01*
X84392319Y-95853571D02*
X84392319Y-95758333D01*
X84392319Y-95758333D02*
X84439938Y-95615476D01*
X84439938Y-95615476D02*
X84487557Y-95567857D01*
X85392319Y-94615476D02*
X85392319Y-95186904D01*
X85392319Y-94901190D02*
X84392319Y-94901190D01*
X84392319Y-94901190D02*
X84535176Y-94996428D01*
X84535176Y-94996428D02*
X84630414Y-95091666D01*
X84630414Y-95091666D02*
X84678033Y-95186904D01*
X84487557Y-94234523D02*
X84439938Y-94186904D01*
X84439938Y-94186904D02*
X84392319Y-94091666D01*
X84392319Y-94091666D02*
X84392319Y-93853571D01*
X84392319Y-93853571D02*
X84439938Y-93758333D01*
X84439938Y-93758333D02*
X84487557Y-93710714D01*
X84487557Y-93710714D02*
X84582795Y-93663095D01*
X84582795Y-93663095D02*
X84678033Y-93663095D01*
X84678033Y-93663095D02*
X84820890Y-93710714D01*
X84820890Y-93710714D02*
X85392319Y-94282142D01*
X85392319Y-94282142D02*
X85392319Y-93663095D01*
X74532142Y-110653330D02*
X74484523Y-110700950D01*
X74484523Y-110700950D02*
X74341666Y-110748569D01*
X74341666Y-110748569D02*
X74246428Y-110748569D01*
X74246428Y-110748569D02*
X74103571Y-110700950D01*
X74103571Y-110700950D02*
X74008333Y-110605711D01*
X74008333Y-110605711D02*
X73960714Y-110510473D01*
X73960714Y-110510473D02*
X73913095Y-110319997D01*
X73913095Y-110319997D02*
X73913095Y-110177140D01*
X73913095Y-110177140D02*
X73960714Y-109986664D01*
X73960714Y-109986664D02*
X74008333Y-109891426D01*
X74008333Y-109891426D02*
X74103571Y-109796188D01*
X74103571Y-109796188D02*
X74246428Y-109748569D01*
X74246428Y-109748569D02*
X74341666Y-109748569D01*
X74341666Y-109748569D02*
X74484523Y-109796188D01*
X74484523Y-109796188D02*
X74532142Y-109843807D01*
X75484523Y-110748569D02*
X74913095Y-110748569D01*
X75198809Y-110748569D02*
X75198809Y-109748569D01*
X75198809Y-109748569D02*
X75103571Y-109891426D01*
X75103571Y-109891426D02*
X75008333Y-109986664D01*
X75008333Y-109986664D02*
X74913095Y-110034283D01*
X76103571Y-109748569D02*
X76198809Y-109748569D01*
X76198809Y-109748569D02*
X76294047Y-109796188D01*
X76294047Y-109796188D02*
X76341666Y-109843807D01*
X76341666Y-109843807D02*
X76389285Y-109939045D01*
X76389285Y-109939045D02*
X76436904Y-110129521D01*
X76436904Y-110129521D02*
X76436904Y-110367616D01*
X76436904Y-110367616D02*
X76389285Y-110558092D01*
X76389285Y-110558092D02*
X76341666Y-110653330D01*
X76341666Y-110653330D02*
X76294047Y-110700950D01*
X76294047Y-110700950D02*
X76198809Y-110748569D01*
X76198809Y-110748569D02*
X76103571Y-110748569D01*
X76103571Y-110748569D02*
X76008333Y-110700950D01*
X76008333Y-110700950D02*
X75960714Y-110653330D01*
X75960714Y-110653330D02*
X75913095Y-110558092D01*
X75913095Y-110558092D02*
X75865476Y-110367616D01*
X75865476Y-110367616D02*
X75865476Y-110129521D01*
X75865476Y-110129521D02*
X75913095Y-109939045D01*
X75913095Y-109939045D02*
X75960714Y-109843807D01*
X75960714Y-109843807D02*
X76008333Y-109796188D01*
X76008333Y-109796188D02*
X76103571Y-109748569D01*
X94138095Y-110656819D02*
X94709523Y-110656819D01*
X94423809Y-111656819D02*
X94423809Y-110656819D01*
X95042857Y-111656819D02*
X95042857Y-110656819D01*
X95042857Y-110656819D02*
X95423809Y-110656819D01*
X95423809Y-110656819D02*
X95519047Y-110704438D01*
X95519047Y-110704438D02*
X95566666Y-110752057D01*
X95566666Y-110752057D02*
X95614285Y-110847295D01*
X95614285Y-110847295D02*
X95614285Y-110990152D01*
X95614285Y-110990152D02*
X95566666Y-111085390D01*
X95566666Y-111085390D02*
X95519047Y-111133009D01*
X95519047Y-111133009D02*
X95423809Y-111180628D01*
X95423809Y-111180628D02*
X95042857Y-111180628D01*
X96566666Y-111656819D02*
X95995238Y-111656819D01*
X96280952Y-111656819D02*
X96280952Y-110656819D01*
X96280952Y-110656819D02*
X96185714Y-110799676D01*
X96185714Y-110799676D02*
X96090476Y-110894914D01*
X96090476Y-110894914D02*
X95995238Y-110942533D01*
X103316666Y-99704819D02*
X103316666Y-100419104D01*
X103316666Y-100419104D02*
X103269047Y-100561961D01*
X103269047Y-100561961D02*
X103173809Y-100657200D01*
X103173809Y-100657200D02*
X103030952Y-100704819D01*
X103030952Y-100704819D02*
X102935714Y-100704819D01*
X104316666Y-100704819D02*
X103745238Y-100704819D01*
X104030952Y-100704819D02*
X104030952Y-99704819D01*
X104030952Y-99704819D02*
X103935714Y-99847676D01*
X103935714Y-99847676D02*
X103840476Y-99942914D01*
X103840476Y-99942914D02*
X103745238Y-99990533D01*
X100411904Y-90504819D02*
X100411904Y-91219104D01*
X100411904Y-91219104D02*
X100364285Y-91361961D01*
X100364285Y-91361961D02*
X100269047Y-91457200D01*
X100269047Y-91457200D02*
X100126190Y-91504819D01*
X100126190Y-91504819D02*
X100030952Y-91504819D01*
X100745238Y-90504819D02*
X101316666Y-90504819D01*
X101030952Y-91504819D02*
X101030952Y-90504819D01*
X101602381Y-91219104D02*
X102078571Y-91219104D01*
X101507143Y-91504819D02*
X101840476Y-90504819D01*
X101840476Y-90504819D02*
X102173809Y-91504819D01*
X103030952Y-90552438D02*
X102935714Y-90504819D01*
X102935714Y-90504819D02*
X102792857Y-90504819D01*
X102792857Y-90504819D02*
X102650000Y-90552438D01*
X102650000Y-90552438D02*
X102554762Y-90647676D01*
X102554762Y-90647676D02*
X102507143Y-90742914D01*
X102507143Y-90742914D02*
X102459524Y-90933390D01*
X102459524Y-90933390D02*
X102459524Y-91076247D01*
X102459524Y-91076247D02*
X102507143Y-91266723D01*
X102507143Y-91266723D02*
X102554762Y-91361961D01*
X102554762Y-91361961D02*
X102650000Y-91457200D01*
X102650000Y-91457200D02*
X102792857Y-91504819D01*
X102792857Y-91504819D02*
X102888095Y-91504819D01*
X102888095Y-91504819D02*
X103030952Y-91457200D01*
X103030952Y-91457200D02*
X103078571Y-91409580D01*
X103078571Y-91409580D02*
X103078571Y-91076247D01*
X103078571Y-91076247D02*
X102888095Y-91076247D01*
X104221428Y-90457200D02*
X103364286Y-91742914D01*
X104507143Y-91457200D02*
X104650000Y-91504819D01*
X104650000Y-91504819D02*
X104888095Y-91504819D01*
X104888095Y-91504819D02*
X104983333Y-91457200D01*
X104983333Y-91457200D02*
X105030952Y-91409580D01*
X105030952Y-91409580D02*
X105078571Y-91314342D01*
X105078571Y-91314342D02*
X105078571Y-91219104D01*
X105078571Y-91219104D02*
X105030952Y-91123866D01*
X105030952Y-91123866D02*
X104983333Y-91076247D01*
X104983333Y-91076247D02*
X104888095Y-91028628D01*
X104888095Y-91028628D02*
X104697619Y-90981009D01*
X104697619Y-90981009D02*
X104602381Y-90933390D01*
X104602381Y-90933390D02*
X104554762Y-90885771D01*
X104554762Y-90885771D02*
X104507143Y-90790533D01*
X104507143Y-90790533D02*
X104507143Y-90695295D01*
X104507143Y-90695295D02*
X104554762Y-90600057D01*
X104554762Y-90600057D02*
X104602381Y-90552438D01*
X104602381Y-90552438D02*
X104697619Y-90504819D01*
X104697619Y-90504819D02*
X104935714Y-90504819D01*
X104935714Y-90504819D02*
X105078571Y-90552438D01*
X105411905Y-90504819D02*
X105650000Y-91504819D01*
X105650000Y-91504819D02*
X105840476Y-90790533D01*
X105840476Y-90790533D02*
X106030952Y-91504819D01*
X106030952Y-91504819D02*
X106269048Y-90504819D01*
X106650000Y-91504819D02*
X106650000Y-90504819D01*
X106650000Y-90504819D02*
X106888095Y-90504819D01*
X106888095Y-90504819D02*
X107030952Y-90552438D01*
X107030952Y-90552438D02*
X107126190Y-90647676D01*
X107126190Y-90647676D02*
X107173809Y-90742914D01*
X107173809Y-90742914D02*
X107221428Y-90933390D01*
X107221428Y-90933390D02*
X107221428Y-91076247D01*
X107221428Y-91076247D02*
X107173809Y-91266723D01*
X107173809Y-91266723D02*
X107126190Y-91361961D01*
X107126190Y-91361961D02*
X107030952Y-91457200D01*
X107030952Y-91457200D02*
X106888095Y-91504819D01*
X106888095Y-91504819D02*
X106650000Y-91504819D01*
X78558333Y-122479819D02*
X78225000Y-122003628D01*
X77986905Y-122479819D02*
X77986905Y-121479819D01*
X77986905Y-121479819D02*
X78367857Y-121479819D01*
X78367857Y-121479819D02*
X78463095Y-121527438D01*
X78463095Y-121527438D02*
X78510714Y-121575057D01*
X78510714Y-121575057D02*
X78558333Y-121670295D01*
X78558333Y-121670295D02*
X78558333Y-121813152D01*
X78558333Y-121813152D02*
X78510714Y-121908390D01*
X78510714Y-121908390D02*
X78463095Y-121956009D01*
X78463095Y-121956009D02*
X78367857Y-122003628D01*
X78367857Y-122003628D02*
X77986905Y-122003628D01*
X79463095Y-121479819D02*
X78986905Y-121479819D01*
X78986905Y-121479819D02*
X78939286Y-121956009D01*
X78939286Y-121956009D02*
X78986905Y-121908390D01*
X78986905Y-121908390D02*
X79082143Y-121860771D01*
X79082143Y-121860771D02*
X79320238Y-121860771D01*
X79320238Y-121860771D02*
X79415476Y-121908390D01*
X79415476Y-121908390D02*
X79463095Y-121956009D01*
X79463095Y-121956009D02*
X79510714Y-122051247D01*
X79510714Y-122051247D02*
X79510714Y-122289342D01*
X79510714Y-122289342D02*
X79463095Y-122384580D01*
X79463095Y-122384580D02*
X79415476Y-122432200D01*
X79415476Y-122432200D02*
X79320238Y-122479819D01*
X79320238Y-122479819D02*
X79082143Y-122479819D01*
X79082143Y-122479819D02*
X78986905Y-122432200D01*
X78986905Y-122432200D02*
X78939286Y-122384580D01*
X94759580Y-121242857D02*
X94807200Y-121290476D01*
X94807200Y-121290476D02*
X94854819Y-121433333D01*
X94854819Y-121433333D02*
X94854819Y-121528571D01*
X94854819Y-121528571D02*
X94807200Y-121671428D01*
X94807200Y-121671428D02*
X94711961Y-121766666D01*
X94711961Y-121766666D02*
X94616723Y-121814285D01*
X94616723Y-121814285D02*
X94426247Y-121861904D01*
X94426247Y-121861904D02*
X94283390Y-121861904D01*
X94283390Y-121861904D02*
X94092914Y-121814285D01*
X94092914Y-121814285D02*
X93997676Y-121766666D01*
X93997676Y-121766666D02*
X93902438Y-121671428D01*
X93902438Y-121671428D02*
X93854819Y-121528571D01*
X93854819Y-121528571D02*
X93854819Y-121433333D01*
X93854819Y-121433333D02*
X93902438Y-121290476D01*
X93902438Y-121290476D02*
X93950057Y-121242857D01*
X94854819Y-120290476D02*
X94854819Y-120861904D01*
X94854819Y-120576190D02*
X93854819Y-120576190D01*
X93854819Y-120576190D02*
X93997676Y-120671428D01*
X93997676Y-120671428D02*
X94092914Y-120766666D01*
X94092914Y-120766666D02*
X94140533Y-120861904D01*
X94188152Y-119433333D02*
X94854819Y-119433333D01*
X93807200Y-119671428D02*
X94521485Y-119909523D01*
X94521485Y-119909523D02*
X94521485Y-119290476D01*
X100604761Y-126275057D02*
X100509523Y-126227438D01*
X100509523Y-126227438D02*
X100414285Y-126132200D01*
X100414285Y-126132200D02*
X100271428Y-125989342D01*
X100271428Y-125989342D02*
X100176190Y-125941723D01*
X100176190Y-125941723D02*
X100080952Y-125941723D01*
X100128571Y-126179819D02*
X100033333Y-126132200D01*
X100033333Y-126132200D02*
X99938095Y-126036961D01*
X99938095Y-126036961D02*
X99890476Y-125846485D01*
X99890476Y-125846485D02*
X99890476Y-125513152D01*
X99890476Y-125513152D02*
X99938095Y-125322676D01*
X99938095Y-125322676D02*
X100033333Y-125227438D01*
X100033333Y-125227438D02*
X100128571Y-125179819D01*
X100128571Y-125179819D02*
X100319047Y-125179819D01*
X100319047Y-125179819D02*
X100414285Y-125227438D01*
X100414285Y-125227438D02*
X100509523Y-125322676D01*
X100509523Y-125322676D02*
X100557142Y-125513152D01*
X100557142Y-125513152D02*
X100557142Y-125846485D01*
X100557142Y-125846485D02*
X100509523Y-126036961D01*
X100509523Y-126036961D02*
X100414285Y-126132200D01*
X100414285Y-126132200D02*
X100319047Y-126179819D01*
X100319047Y-126179819D02*
X100128571Y-126179819D01*
X101509523Y-126179819D02*
X100938095Y-126179819D01*
X101223809Y-126179819D02*
X101223809Y-125179819D01*
X101223809Y-125179819D02*
X101128571Y-125322676D01*
X101128571Y-125322676D02*
X101033333Y-125417914D01*
X101033333Y-125417914D02*
X100938095Y-125465533D01*
X83214819Y-82831666D02*
X82738628Y-83164999D01*
X83214819Y-83403094D02*
X82214819Y-83403094D01*
X82214819Y-83403094D02*
X82214819Y-83022142D01*
X82214819Y-83022142D02*
X82262438Y-82926904D01*
X82262438Y-82926904D02*
X82310057Y-82879285D01*
X82310057Y-82879285D02*
X82405295Y-82831666D01*
X82405295Y-82831666D02*
X82548152Y-82831666D01*
X82548152Y-82831666D02*
X82643390Y-82879285D01*
X82643390Y-82879285D02*
X82691009Y-82926904D01*
X82691009Y-82926904D02*
X82738628Y-83022142D01*
X82738628Y-83022142D02*
X82738628Y-83403094D01*
X82548152Y-81974523D02*
X83214819Y-81974523D01*
X82167200Y-82212618D02*
X82881485Y-82450713D01*
X82881485Y-82450713D02*
X82881485Y-81831666D01*
X86409580Y-111692857D02*
X86457200Y-111740476D01*
X86457200Y-111740476D02*
X86504819Y-111883333D01*
X86504819Y-111883333D02*
X86504819Y-111978571D01*
X86504819Y-111978571D02*
X86457200Y-112121428D01*
X86457200Y-112121428D02*
X86361961Y-112216666D01*
X86361961Y-112216666D02*
X86266723Y-112264285D01*
X86266723Y-112264285D02*
X86076247Y-112311904D01*
X86076247Y-112311904D02*
X85933390Y-112311904D01*
X85933390Y-112311904D02*
X85742914Y-112264285D01*
X85742914Y-112264285D02*
X85647676Y-112216666D01*
X85647676Y-112216666D02*
X85552438Y-112121428D01*
X85552438Y-112121428D02*
X85504819Y-111978571D01*
X85504819Y-111978571D02*
X85504819Y-111883333D01*
X85504819Y-111883333D02*
X85552438Y-111740476D01*
X85552438Y-111740476D02*
X85600057Y-111692857D01*
X86504819Y-110740476D02*
X86504819Y-111311904D01*
X86504819Y-111026190D02*
X85504819Y-111026190D01*
X85504819Y-111026190D02*
X85647676Y-111121428D01*
X85647676Y-111121428D02*
X85742914Y-111216666D01*
X85742914Y-111216666D02*
X85790533Y-111311904D01*
X85504819Y-110407142D02*
X85504819Y-109788095D01*
X85504819Y-109788095D02*
X85885771Y-110121428D01*
X85885771Y-110121428D02*
X85885771Y-109978571D01*
X85885771Y-109978571D02*
X85933390Y-109883333D01*
X85933390Y-109883333D02*
X85981009Y-109835714D01*
X85981009Y-109835714D02*
X86076247Y-109788095D01*
X86076247Y-109788095D02*
X86314342Y-109788095D01*
X86314342Y-109788095D02*
X86409580Y-109835714D01*
X86409580Y-109835714D02*
X86457200Y-109883333D01*
X86457200Y-109883333D02*
X86504819Y-109978571D01*
X86504819Y-109978571D02*
X86504819Y-110264285D01*
X86504819Y-110264285D02*
X86457200Y-110359523D01*
X86457200Y-110359523D02*
X86409580Y-110407142D01*
X99233333Y-121804819D02*
X98757143Y-121804819D01*
X98757143Y-121804819D02*
X98757143Y-120804819D01*
X100090476Y-121804819D02*
X99519048Y-121804819D01*
X99804762Y-121804819D02*
X99804762Y-120804819D01*
X99804762Y-120804819D02*
X99709524Y-120947676D01*
X99709524Y-120947676D02*
X99614286Y-121042914D01*
X99614286Y-121042914D02*
X99519048Y-121090533D01*
X75433333Y-118454819D02*
X75100000Y-117978628D01*
X74861905Y-118454819D02*
X74861905Y-117454819D01*
X74861905Y-117454819D02*
X75242857Y-117454819D01*
X75242857Y-117454819D02*
X75338095Y-117502438D01*
X75338095Y-117502438D02*
X75385714Y-117550057D01*
X75385714Y-117550057D02*
X75433333Y-117645295D01*
X75433333Y-117645295D02*
X75433333Y-117788152D01*
X75433333Y-117788152D02*
X75385714Y-117883390D01*
X75385714Y-117883390D02*
X75338095Y-117931009D01*
X75338095Y-117931009D02*
X75242857Y-117978628D01*
X75242857Y-117978628D02*
X74861905Y-117978628D01*
X75909524Y-118454819D02*
X76100000Y-118454819D01*
X76100000Y-118454819D02*
X76195238Y-118407200D01*
X76195238Y-118407200D02*
X76242857Y-118359580D01*
X76242857Y-118359580D02*
X76338095Y-118216723D01*
X76338095Y-118216723D02*
X76385714Y-118026247D01*
X76385714Y-118026247D02*
X76385714Y-117645295D01*
X76385714Y-117645295D02*
X76338095Y-117550057D01*
X76338095Y-117550057D02*
X76290476Y-117502438D01*
X76290476Y-117502438D02*
X76195238Y-117454819D01*
X76195238Y-117454819D02*
X76004762Y-117454819D01*
X76004762Y-117454819D02*
X75909524Y-117502438D01*
X75909524Y-117502438D02*
X75861905Y-117550057D01*
X75861905Y-117550057D02*
X75814286Y-117645295D01*
X75814286Y-117645295D02*
X75814286Y-117883390D01*
X75814286Y-117883390D02*
X75861905Y-117978628D01*
X75861905Y-117978628D02*
X75909524Y-118026247D01*
X75909524Y-118026247D02*
X76004762Y-118073866D01*
X76004762Y-118073866D02*
X76195238Y-118073866D01*
X76195238Y-118073866D02*
X76290476Y-118026247D01*
X76290476Y-118026247D02*
X76338095Y-117978628D01*
X76338095Y-117978628D02*
X76385714Y-117883390D01*
X93183333Y-127234819D02*
X92850000Y-126758628D01*
X92611905Y-127234819D02*
X92611905Y-126234819D01*
X92611905Y-126234819D02*
X92992857Y-126234819D01*
X92992857Y-126234819D02*
X93088095Y-126282438D01*
X93088095Y-126282438D02*
X93135714Y-126330057D01*
X93135714Y-126330057D02*
X93183333Y-126425295D01*
X93183333Y-126425295D02*
X93183333Y-126568152D01*
X93183333Y-126568152D02*
X93135714Y-126663390D01*
X93135714Y-126663390D02*
X93088095Y-126711009D01*
X93088095Y-126711009D02*
X92992857Y-126758628D01*
X92992857Y-126758628D02*
X92611905Y-126758628D01*
X93754762Y-126663390D02*
X93659524Y-126615771D01*
X93659524Y-126615771D02*
X93611905Y-126568152D01*
X93611905Y-126568152D02*
X93564286Y-126472914D01*
X93564286Y-126472914D02*
X93564286Y-126425295D01*
X93564286Y-126425295D02*
X93611905Y-126330057D01*
X93611905Y-126330057D02*
X93659524Y-126282438D01*
X93659524Y-126282438D02*
X93754762Y-126234819D01*
X93754762Y-126234819D02*
X93945238Y-126234819D01*
X93945238Y-126234819D02*
X94040476Y-126282438D01*
X94040476Y-126282438D02*
X94088095Y-126330057D01*
X94088095Y-126330057D02*
X94135714Y-126425295D01*
X94135714Y-126425295D02*
X94135714Y-126472914D01*
X94135714Y-126472914D02*
X94088095Y-126568152D01*
X94088095Y-126568152D02*
X94040476Y-126615771D01*
X94040476Y-126615771D02*
X93945238Y-126663390D01*
X93945238Y-126663390D02*
X93754762Y-126663390D01*
X93754762Y-126663390D02*
X93659524Y-126711009D01*
X93659524Y-126711009D02*
X93611905Y-126758628D01*
X93611905Y-126758628D02*
X93564286Y-126853866D01*
X93564286Y-126853866D02*
X93564286Y-127044342D01*
X93564286Y-127044342D02*
X93611905Y-127139580D01*
X93611905Y-127139580D02*
X93659524Y-127187200D01*
X93659524Y-127187200D02*
X93754762Y-127234819D01*
X93754762Y-127234819D02*
X93945238Y-127234819D01*
X93945238Y-127234819D02*
X94040476Y-127187200D01*
X94040476Y-127187200D02*
X94088095Y-127139580D01*
X94088095Y-127139580D02*
X94135714Y-127044342D01*
X94135714Y-127044342D02*
X94135714Y-126853866D01*
X94135714Y-126853866D02*
X94088095Y-126758628D01*
X94088095Y-126758628D02*
X94040476Y-126711009D01*
X94040476Y-126711009D02*
X93945238Y-126663390D01*
X75408333Y-112353330D02*
X75360714Y-112400950D01*
X75360714Y-112400950D02*
X75217857Y-112448569D01*
X75217857Y-112448569D02*
X75122619Y-112448569D01*
X75122619Y-112448569D02*
X74979762Y-112400950D01*
X74979762Y-112400950D02*
X74884524Y-112305711D01*
X74884524Y-112305711D02*
X74836905Y-112210473D01*
X74836905Y-112210473D02*
X74789286Y-112019997D01*
X74789286Y-112019997D02*
X74789286Y-111877140D01*
X74789286Y-111877140D02*
X74836905Y-111686664D01*
X74836905Y-111686664D02*
X74884524Y-111591426D01*
X74884524Y-111591426D02*
X74979762Y-111496188D01*
X74979762Y-111496188D02*
X75122619Y-111448569D01*
X75122619Y-111448569D02*
X75217857Y-111448569D01*
X75217857Y-111448569D02*
X75360714Y-111496188D01*
X75360714Y-111496188D02*
X75408333Y-111543807D01*
X75741667Y-111448569D02*
X76408333Y-111448569D01*
X76408333Y-111448569D02*
X75979762Y-112448569D01*
X84691666Y-121754819D02*
X84691666Y-122469104D01*
X84691666Y-122469104D02*
X84644047Y-122611961D01*
X84644047Y-122611961D02*
X84548809Y-122707200D01*
X84548809Y-122707200D02*
X84405952Y-122754819D01*
X84405952Y-122754819D02*
X84310714Y-122754819D01*
X85120238Y-121850057D02*
X85167857Y-121802438D01*
X85167857Y-121802438D02*
X85263095Y-121754819D01*
X85263095Y-121754819D02*
X85501190Y-121754819D01*
X85501190Y-121754819D02*
X85596428Y-121802438D01*
X85596428Y-121802438D02*
X85644047Y-121850057D01*
X85644047Y-121850057D02*
X85691666Y-121945295D01*
X85691666Y-121945295D02*
X85691666Y-122040533D01*
X85691666Y-122040533D02*
X85644047Y-122183390D01*
X85644047Y-122183390D02*
X85072619Y-122754819D01*
X85072619Y-122754819D02*
X85691666Y-122754819D01*
X69254819Y-83921666D02*
X68778628Y-84254999D01*
X69254819Y-84493094D02*
X68254819Y-84493094D01*
X68254819Y-84493094D02*
X68254819Y-84112142D01*
X68254819Y-84112142D02*
X68302438Y-84016904D01*
X68302438Y-84016904D02*
X68350057Y-83969285D01*
X68350057Y-83969285D02*
X68445295Y-83921666D01*
X68445295Y-83921666D02*
X68588152Y-83921666D01*
X68588152Y-83921666D02*
X68683390Y-83969285D01*
X68683390Y-83969285D02*
X68731009Y-84016904D01*
X68731009Y-84016904D02*
X68778628Y-84112142D01*
X68778628Y-84112142D02*
X68778628Y-84493094D01*
X69254819Y-82969285D02*
X69254819Y-83540713D01*
X69254819Y-83254999D02*
X68254819Y-83254999D01*
X68254819Y-83254999D02*
X68397676Y-83350237D01*
X68397676Y-83350237D02*
X68492914Y-83445475D01*
X68492914Y-83445475D02*
X68540533Y-83540713D01*
X74104580Y-82866666D02*
X74152200Y-82914285D01*
X74152200Y-82914285D02*
X74199819Y-83057142D01*
X74199819Y-83057142D02*
X74199819Y-83152380D01*
X74199819Y-83152380D02*
X74152200Y-83295237D01*
X74152200Y-83295237D02*
X74056961Y-83390475D01*
X74056961Y-83390475D02*
X73961723Y-83438094D01*
X73961723Y-83438094D02*
X73771247Y-83485713D01*
X73771247Y-83485713D02*
X73628390Y-83485713D01*
X73628390Y-83485713D02*
X73437914Y-83438094D01*
X73437914Y-83438094D02*
X73342676Y-83390475D01*
X73342676Y-83390475D02*
X73247438Y-83295237D01*
X73247438Y-83295237D02*
X73199819Y-83152380D01*
X73199819Y-83152380D02*
X73199819Y-83057142D01*
X73199819Y-83057142D02*
X73247438Y-82914285D01*
X73247438Y-82914285D02*
X73295057Y-82866666D01*
X73199819Y-81961904D02*
X73199819Y-82438094D01*
X73199819Y-82438094D02*
X73676009Y-82485713D01*
X73676009Y-82485713D02*
X73628390Y-82438094D01*
X73628390Y-82438094D02*
X73580771Y-82342856D01*
X73580771Y-82342856D02*
X73580771Y-82104761D01*
X73580771Y-82104761D02*
X73628390Y-82009523D01*
X73628390Y-82009523D02*
X73676009Y-81961904D01*
X73676009Y-81961904D02*
X73771247Y-81914285D01*
X73771247Y-81914285D02*
X74009342Y-81914285D01*
X74009342Y-81914285D02*
X74104580Y-81961904D01*
X74104580Y-81961904D02*
X74152200Y-82009523D01*
X74152200Y-82009523D02*
X74199819Y-82104761D01*
X74199819Y-82104761D02*
X74199819Y-82342856D01*
X74199819Y-82342856D02*
X74152200Y-82438094D01*
X74152200Y-82438094D02*
X74104580Y-82485713D01*
X71666667Y-128657200D02*
X71809524Y-128704819D01*
X71809524Y-128704819D02*
X72047619Y-128704819D01*
X72047619Y-128704819D02*
X72142857Y-128657200D01*
X72142857Y-128657200D02*
X72190476Y-128609580D01*
X72190476Y-128609580D02*
X72238095Y-128514342D01*
X72238095Y-128514342D02*
X72238095Y-128419104D01*
X72238095Y-128419104D02*
X72190476Y-128323866D01*
X72190476Y-128323866D02*
X72142857Y-128276247D01*
X72142857Y-128276247D02*
X72047619Y-128228628D01*
X72047619Y-128228628D02*
X71857143Y-128181009D01*
X71857143Y-128181009D02*
X71761905Y-128133390D01*
X71761905Y-128133390D02*
X71714286Y-128085771D01*
X71714286Y-128085771D02*
X71666667Y-127990533D01*
X71666667Y-127990533D02*
X71666667Y-127895295D01*
X71666667Y-127895295D02*
X71714286Y-127800057D01*
X71714286Y-127800057D02*
X71761905Y-127752438D01*
X71761905Y-127752438D02*
X71857143Y-127704819D01*
X71857143Y-127704819D02*
X72095238Y-127704819D01*
X72095238Y-127704819D02*
X72238095Y-127752438D01*
X72571429Y-127704819D02*
X72809524Y-128704819D01*
X72809524Y-128704819D02*
X73000000Y-127990533D01*
X73000000Y-127990533D02*
X73190476Y-128704819D01*
X73190476Y-128704819D02*
X73428572Y-127704819D01*
X73761905Y-127800057D02*
X73809524Y-127752438D01*
X73809524Y-127752438D02*
X73904762Y-127704819D01*
X73904762Y-127704819D02*
X74142857Y-127704819D01*
X74142857Y-127704819D02*
X74238095Y-127752438D01*
X74238095Y-127752438D02*
X74285714Y-127800057D01*
X74285714Y-127800057D02*
X74333333Y-127895295D01*
X74333333Y-127895295D02*
X74333333Y-127990533D01*
X74333333Y-127990533D02*
X74285714Y-128133390D01*
X74285714Y-128133390D02*
X73714286Y-128704819D01*
X73714286Y-128704819D02*
X74333333Y-128704819D01*
X71135714Y-119004819D02*
X71135714Y-119814342D01*
X71135714Y-119814342D02*
X71183333Y-119909580D01*
X71183333Y-119909580D02*
X71230952Y-119957200D01*
X71230952Y-119957200D02*
X71326190Y-120004819D01*
X71326190Y-120004819D02*
X71516666Y-120004819D01*
X71516666Y-120004819D02*
X71611904Y-119957200D01*
X71611904Y-119957200D02*
X71659523Y-119909580D01*
X71659523Y-119909580D02*
X71707142Y-119814342D01*
X71707142Y-119814342D02*
X71707142Y-119004819D01*
X72135714Y-119957200D02*
X72278571Y-120004819D01*
X72278571Y-120004819D02*
X72516666Y-120004819D01*
X72516666Y-120004819D02*
X72611904Y-119957200D01*
X72611904Y-119957200D02*
X72659523Y-119909580D01*
X72659523Y-119909580D02*
X72707142Y-119814342D01*
X72707142Y-119814342D02*
X72707142Y-119719104D01*
X72707142Y-119719104D02*
X72659523Y-119623866D01*
X72659523Y-119623866D02*
X72611904Y-119576247D01*
X72611904Y-119576247D02*
X72516666Y-119528628D01*
X72516666Y-119528628D02*
X72326190Y-119481009D01*
X72326190Y-119481009D02*
X72230952Y-119433390D01*
X72230952Y-119433390D02*
X72183333Y-119385771D01*
X72183333Y-119385771D02*
X72135714Y-119290533D01*
X72135714Y-119290533D02*
X72135714Y-119195295D01*
X72135714Y-119195295D02*
X72183333Y-119100057D01*
X72183333Y-119100057D02*
X72230952Y-119052438D01*
X72230952Y-119052438D02*
X72326190Y-119004819D01*
X72326190Y-119004819D02*
X72564285Y-119004819D01*
X72564285Y-119004819D02*
X72707142Y-119052438D01*
X73135714Y-119481009D02*
X73469047Y-119481009D01*
X73611904Y-120004819D02*
X73135714Y-120004819D01*
X73135714Y-120004819D02*
X73135714Y-119004819D01*
X73135714Y-119004819D02*
X73611904Y-119004819D01*
X74611904Y-120004819D02*
X74278571Y-119528628D01*
X74040476Y-120004819D02*
X74040476Y-119004819D01*
X74040476Y-119004819D02*
X74421428Y-119004819D01*
X74421428Y-119004819D02*
X74516666Y-119052438D01*
X74516666Y-119052438D02*
X74564285Y-119100057D01*
X74564285Y-119100057D02*
X74611904Y-119195295D01*
X74611904Y-119195295D02*
X74611904Y-119338152D01*
X74611904Y-119338152D02*
X74564285Y-119433390D01*
X74564285Y-119433390D02*
X74516666Y-119481009D01*
X74516666Y-119481009D02*
X74421428Y-119528628D01*
X74421428Y-119528628D02*
X74040476Y-119528628D01*
X85583333Y-119404819D02*
X85107143Y-119404819D01*
X85107143Y-119404819D02*
X85107143Y-118404819D01*
X85869048Y-118500057D02*
X85916667Y-118452438D01*
X85916667Y-118452438D02*
X86011905Y-118404819D01*
X86011905Y-118404819D02*
X86250000Y-118404819D01*
X86250000Y-118404819D02*
X86345238Y-118452438D01*
X86345238Y-118452438D02*
X86392857Y-118500057D01*
X86392857Y-118500057D02*
X86440476Y-118595295D01*
X86440476Y-118595295D02*
X86440476Y-118690533D01*
X86440476Y-118690533D02*
X86392857Y-118833390D01*
X86392857Y-118833390D02*
X85821429Y-119404819D01*
X85821429Y-119404819D02*
X86440476Y-119404819D01*
X87759580Y-82836666D02*
X87807200Y-82884285D01*
X87807200Y-82884285D02*
X87854819Y-83027142D01*
X87854819Y-83027142D02*
X87854819Y-83122380D01*
X87854819Y-83122380D02*
X87807200Y-83265237D01*
X87807200Y-83265237D02*
X87711961Y-83360475D01*
X87711961Y-83360475D02*
X87616723Y-83408094D01*
X87616723Y-83408094D02*
X87426247Y-83455713D01*
X87426247Y-83455713D02*
X87283390Y-83455713D01*
X87283390Y-83455713D02*
X87092914Y-83408094D01*
X87092914Y-83408094D02*
X86997676Y-83360475D01*
X86997676Y-83360475D02*
X86902438Y-83265237D01*
X86902438Y-83265237D02*
X86854819Y-83122380D01*
X86854819Y-83122380D02*
X86854819Y-83027142D01*
X86854819Y-83027142D02*
X86902438Y-82884285D01*
X86902438Y-82884285D02*
X86950057Y-82836666D01*
X86854819Y-82503332D02*
X86854819Y-81884285D01*
X86854819Y-81884285D02*
X87235771Y-82217618D01*
X87235771Y-82217618D02*
X87235771Y-82074761D01*
X87235771Y-82074761D02*
X87283390Y-81979523D01*
X87283390Y-81979523D02*
X87331009Y-81931904D01*
X87331009Y-81931904D02*
X87426247Y-81884285D01*
X87426247Y-81884285D02*
X87664342Y-81884285D01*
X87664342Y-81884285D02*
X87759580Y-81931904D01*
X87759580Y-81931904D02*
X87807200Y-81979523D01*
X87807200Y-81979523D02*
X87854819Y-82074761D01*
X87854819Y-82074761D02*
X87854819Y-82360475D01*
X87854819Y-82360475D02*
X87807200Y-82455713D01*
X87807200Y-82455713D02*
X87759580Y-82503332D01*
D11*
%TO.C,R7*%
X93112742Y-122977500D02*
X93587258Y-122977500D01*
X93112742Y-124022500D02*
X93587258Y-124022500D01*
%TO.C,R2*%
X69977500Y-85987742D02*
X69977500Y-86462258D01*
X71022500Y-85987742D02*
X71022500Y-86462258D01*
%TO.C,C8*%
X89015000Y-110709420D02*
X89015000Y-110990580D01*
X90035000Y-110709420D02*
X90035000Y-110990580D01*
%TO.C,C16*%
X78315580Y-113196250D02*
X78034420Y-113196250D01*
X78315580Y-114216250D02*
X78034420Y-114216250D01*
%TO.C,C15*%
X78315580Y-114906250D02*
X78034420Y-114906250D01*
X78315580Y-115926250D02*
X78034420Y-115926250D01*
%TO.C,C1*%
X106990000Y-116640580D02*
X106990000Y-116359420D01*
X108010000Y-116640580D02*
X108010000Y-116359420D01*
D12*
%TO.C,U3*%
X74950000Y-87940000D02*
X74950000Y-88340000D01*
D13*
X76750000Y-86340000D02*
X76750000Y-86340000D01*
X76750000Y-86440000D02*
X76750000Y-86440000D01*
D12*
X77050000Y-87940000D02*
X77050000Y-88340000D01*
D13*
X76750000Y-86340000D02*
G75*
G02*
X76750000Y-86440000I0J-50000D01*
G01*
X76750000Y-86440000D02*
G75*
G02*
X76750000Y-86340000I0J50000D01*
G01*
D11*
%TO.C,C6*%
X81752500Y-114990580D02*
X81752500Y-114709420D01*
X82772500Y-114990580D02*
X82772500Y-114709420D01*
%TO.C,Y1*%
X83587500Y-110000000D02*
X80887500Y-110000000D01*
X83587500Y-112300000D02*
X83587500Y-110000000D01*
%TO.C,R3*%
X71677500Y-85987742D02*
X71677500Y-86462258D01*
X72722500Y-85987742D02*
X72722500Y-86462258D01*
%TO.C,C4*%
X76390000Y-82840580D02*
X76390000Y-82559420D01*
X77410000Y-82840580D02*
X77410000Y-82559420D01*
%TO.C,U4*%
X81390000Y-101390000D02*
X81865000Y-101390000D01*
X81390000Y-101865000D02*
X81390000Y-101390000D01*
X81390000Y-108135000D02*
X81390000Y-108610000D01*
X81390000Y-108610000D02*
X81865000Y-108610000D01*
X88135000Y-101390000D02*
X88370000Y-101390000D01*
X88610000Y-101865000D02*
X88610000Y-101690000D01*
X88610000Y-108135000D02*
X88610000Y-108610000D01*
X88610000Y-108610000D02*
X88135000Y-108610000D01*
X88940000Y-101630000D02*
X88610000Y-101390000D01*
X88940000Y-101150000D01*
X88940000Y-101630000D01*
G36*
X88940000Y-101630000D02*
G01*
X88610000Y-101390000D01*
X88940000Y-101150000D01*
X88940000Y-101630000D01*
G37*
%TO.C,R6*%
X97712258Y-126802500D02*
X97237742Y-126802500D01*
X97712258Y-127847500D02*
X97237742Y-127847500D01*
D13*
%TO.C,U2*%
X83675000Y-84675000D02*
X83675000Y-84825000D01*
X83675000Y-84675000D02*
X83825000Y-84675000D01*
X83675000Y-87375000D02*
X83675000Y-87225000D01*
X83825000Y-87375000D02*
X83675000Y-87375000D01*
X86375000Y-84665000D02*
X86225000Y-84665000D01*
X86375000Y-84675000D02*
X86375000Y-84825000D01*
D11*
X86375000Y-87735000D02*
X86375000Y-87375000D01*
X86735000Y-87375000D01*
X86375000Y-87735000D01*
G36*
X86375000Y-87735000D02*
G01*
X86375000Y-87375000D01*
X86735000Y-87375000D01*
X86375000Y-87735000D01*
G37*
%TO.C,C11*%
X82727500Y-98615580D02*
X82727500Y-98334420D01*
X83747500Y-98615580D02*
X83747500Y-98334420D01*
%TO.C,C2*%
X103659420Y-114840000D02*
X103940580Y-114840000D01*
X103659420Y-115860000D02*
X103940580Y-115860000D01*
%TO.C,U1*%
X104262500Y-116740000D02*
X103462500Y-116740000D01*
X104262500Y-116740000D02*
X105062500Y-116740000D01*
X104262500Y-119860000D02*
X103462500Y-119860000D01*
X104262500Y-119860000D02*
X105062500Y-119860000D01*
X105802500Y-120140000D02*
X105322500Y-120140000D01*
X105562500Y-119810000D01*
X105802500Y-120140000D01*
G36*
X105802500Y-120140000D02*
G01*
X105322500Y-120140000D01*
X105562500Y-119810000D01*
X105802500Y-120140000D01*
G37*
%TO.C,C9*%
X90840580Y-99490000D02*
X90559420Y-99490000D01*
X90840580Y-100510000D02*
X90559420Y-100510000D01*
%TO.C,C12*%
X84427500Y-98615580D02*
X84427500Y-98334420D01*
X85447500Y-98615580D02*
X85447500Y-98334420D01*
%TO.C,C10*%
X78315580Y-109783750D02*
X78034420Y-109783750D01*
X78315580Y-110803750D02*
X78034420Y-110803750D01*
%TO.C,TP1*%
X96600000Y-113200000D02*
G75*
G02*
X94200000Y-113200000I-1200000J0D01*
G01*
X94200000Y-113200000D02*
G75*
G02*
X96600000Y-113200000I1200000J0D01*
G01*
%TO.C,J1*%
X101885000Y-92490000D02*
X101885000Y-92425000D01*
X101885000Y-98895000D02*
X101885000Y-98830000D01*
X105415000Y-92425000D02*
X101885000Y-92425000D01*
X105415000Y-92490000D02*
X105415000Y-92425000D01*
X105415000Y-98895000D02*
X101885000Y-98895000D01*
X105415000Y-98895000D02*
X105415000Y-98830000D01*
X106740000Y-98830000D02*
X105415000Y-98830000D01*
%TO.C,R5*%
X81062742Y-121477500D02*
X81537258Y-121477500D01*
X81062742Y-122522500D02*
X81537258Y-122522500D01*
%TO.C,C14*%
X95290000Y-120715580D02*
X95290000Y-120434420D01*
X96310000Y-120715580D02*
X96310000Y-120434420D01*
%TO.C,Q1*%
X97562500Y-122915000D02*
X96762500Y-122915000D01*
X97562500Y-122915000D02*
X98362500Y-122915000D01*
X97562500Y-126035000D02*
X96762500Y-126035000D01*
X97562500Y-126035000D02*
X98362500Y-126035000D01*
X99102500Y-126315000D02*
X98622500Y-126315000D01*
X98862500Y-125985000D01*
X99102500Y-126315000D01*
G36*
X99102500Y-126315000D02*
G01*
X98622500Y-126315000D01*
X98862500Y-125985000D01*
X99102500Y-126315000D01*
G37*
%TO.C,R4*%
X83667500Y-82902258D02*
X83667500Y-82427742D01*
X84712500Y-82902258D02*
X84712500Y-82427742D01*
%TO.C,C13*%
X87215000Y-110709420D02*
X87215000Y-110990580D01*
X88235000Y-110709420D02*
X88235000Y-110990580D01*
%TO.C,L1*%
X97390000Y-118720000D02*
X97390000Y-117980000D01*
X101410000Y-117980000D02*
X101410000Y-118720000D01*
%TO.C,R9*%
X78412258Y-117477500D02*
X77937742Y-117477500D01*
X78412258Y-118522500D02*
X77937742Y-118522500D01*
%TO.C,R8*%
X93587258Y-124827500D02*
X93112742Y-124827500D01*
X93587258Y-125872500D02*
X93112742Y-125872500D01*
%TO.C,C7*%
X78315580Y-111483750D02*
X78034420Y-111483750D01*
X78315580Y-112503750D02*
X78034420Y-112503750D01*
%TO.C,J2*%
X80430000Y-126500000D02*
X80430000Y-127400000D01*
X80430000Y-130100000D02*
X80430000Y-132830000D01*
X80430000Y-132830000D02*
X89620000Y-132830000D01*
X80550000Y-123420000D02*
X89500000Y-123420000D01*
X89620000Y-126500000D02*
X89620000Y-127400000D01*
X89620000Y-130100000D02*
X89620000Y-132830000D01*
%TO.C,R1*%
X68277500Y-85992742D02*
X68277500Y-86467258D01*
X69322500Y-85992742D02*
X69322500Y-86467258D01*
%TO.C,C5*%
X74665000Y-82840580D02*
X74665000Y-82559420D01*
X75685000Y-82840580D02*
X75685000Y-82559420D01*
%TO.C,SW2*%
X69500000Y-123250000D02*
X69500000Y-124750000D01*
X70750000Y-127250000D02*
X75250000Y-127250000D01*
X75250000Y-120750000D02*
X70750000Y-120750000D01*
X76500000Y-124750000D02*
X76500000Y-123250000D01*
%TO.C,L2*%
X85392500Y-113740000D02*
X86132500Y-113740000D01*
X86132500Y-117760000D02*
X85392500Y-117760000D01*
%TO.C,C3*%
X85390000Y-82810580D02*
X85390000Y-82529420D01*
X86410000Y-82810580D02*
X86410000Y-82529420D01*
%TD*%
M02*
