%TF.GenerationSoftware,KiCad,Pcbnew,8.0.7*%
%TF.CreationDate,2025-02-08T02:54:50+13:00*%
%TF.ProjectId,Housens-L,486f7573-656e-4732-9d4c-2e6b69636164,002*%
%TF.SameCoordinates,Original*%
%TF.FileFunction,Copper,L4,Bot*%
%TF.FilePolarity,Positive*%
%FSLAX46Y46*%
G04 Gerber Fmt 4.6, Leading zero omitted, Abs format (unit mm)*
G04 Created by KiCad (PCBNEW 8.0.7) date 2025-02-08 02:54:50*
%MOMM*%
%LPD*%
G01*
G04 APERTURE LIST*
%TA.AperFunction,ComponentPad*%
%ADD10R,0.900000X0.900000*%
%TD*%
%TA.AperFunction,ComponentPad*%
%ADD11C,5.600000*%
%TD*%
%TA.AperFunction,HeatsinkPad*%
%ADD12C,0.500000*%
%TD*%
%TA.AperFunction,ComponentPad*%
%ADD13C,0.700000*%
%TD*%
%TA.AperFunction,ComponentPad*%
%ADD14O,0.900000X2.400000*%
%TD*%
%TA.AperFunction,ComponentPad*%
%ADD15O,0.900000X1.700000*%
%TD*%
%TA.AperFunction,ComponentPad*%
%ADD16C,2.000000*%
%TD*%
%TA.AperFunction,ComponentPad*%
%ADD17C,1.000000*%
%TD*%
%TA.AperFunction,SMDPad,CuDef*%
%ADD18R,5.100000X2.500000*%
%TD*%
%TA.AperFunction,SMDPad,CuDef*%
%ADD19C,17.800000*%
%TD*%
%TA.AperFunction,ConnectorPad*%
%ADD20C,0.787400*%
%TD*%
%TA.AperFunction,ViaPad*%
%ADD21C,0.400000*%
%TD*%
%TA.AperFunction,ViaPad*%
%ADD22C,0.450000*%
%TD*%
%TA.AperFunction,ViaPad*%
%ADD23C,0.500000*%
%TD*%
%TA.AperFunction,Conductor*%
%ADD24C,0.400000*%
%TD*%
%TA.AperFunction,Conductor*%
%ADD25C,0.300000*%
%TD*%
%TA.AperFunction,Conductor*%
%ADD26C,0.200000*%
%TD*%
%TA.AperFunction,Conductor*%
%ADD27C,0.275000*%
%TD*%
G04 APERTURE END LIST*
D10*
%TO.P,AE1,2*%
%TO.N,N/C*%
X65525000Y-108350000D03*
%TD*%
D11*
%TO.P,H2,1,1*%
%TO.N,GND*%
X106000000Y-84000000D03*
%TD*%
D12*
%TO.P,U4,49,VSS*%
%TO.N,GND*%
X87550000Y-102450000D03*
X86275000Y-102450000D03*
X85000000Y-102450000D03*
X83725000Y-102450000D03*
X82450000Y-102450000D03*
X87550000Y-103725000D03*
X86275000Y-103725000D03*
X85000000Y-103725000D03*
X83725000Y-103725000D03*
X82450000Y-103725000D03*
X87550000Y-105000000D03*
X86275000Y-105000000D03*
X85000000Y-105000000D03*
X83725000Y-105000000D03*
X82450000Y-105000000D03*
X87550000Y-106275000D03*
X86275000Y-106275000D03*
X85000000Y-106275000D03*
X83725000Y-106275000D03*
X82450000Y-106275000D03*
X87550000Y-107550000D03*
X86275000Y-107550000D03*
X85000000Y-107550000D03*
X83725000Y-107550000D03*
X82450000Y-107550000D03*
%TD*%
D11*
%TO.P,H3,1,1*%
%TO.N,+BATT*%
X106000000Y-126000000D03*
%TD*%
D13*
%TO.P,J2,A1,GND*%
%TO.N,GND*%
X82050000Y-124100000D03*
%TO.P,J2,A4,VBUS*%
%TO.N,Net-(J2-VBUS-PadA4)*%
X82900000Y-124100000D03*
%TO.P,J2,A5,CC1*%
%TO.N,unconnected-(J2-CC1-PadA5)*%
X83750000Y-124100000D03*
%TO.P,J2,A6,D+*%
%TO.N,/USB_D_P*%
X84600000Y-124100000D03*
%TO.P,J2,A7,D-*%
%TO.N,/USB_D_N*%
X85450000Y-124100000D03*
%TO.P,J2,A8*%
%TO.N,N/C*%
X86300000Y-124100000D03*
%TO.P,J2,A9,VBUS*%
%TO.N,Net-(J2-VBUS-PadA4)*%
X87150000Y-124100000D03*
%TO.P,J2,A12,GND*%
%TO.N,GND*%
X88000000Y-124100000D03*
%TO.P,J2,B1,GND*%
X88000000Y-125450000D03*
%TO.P,J2,B4,VBUS*%
%TO.N,Net-(J2-VBUS-PadA4)*%
X87150000Y-125450000D03*
%TO.P,J2,B5,CC2*%
%TO.N,unconnected-(J2-CC2-PadB5)*%
X86300000Y-125450000D03*
%TO.P,J2,B6,D+*%
%TO.N,/USB_D_P*%
X85450000Y-125450000D03*
%TO.P,J2,B7,D-*%
%TO.N,/USB_D_N*%
X84600000Y-125450000D03*
%TO.P,J2,B8*%
%TO.N,N/C*%
X83750000Y-125450000D03*
%TO.P,J2,B9,VBUS*%
%TO.N,Net-(J2-VBUS-PadA4)*%
X82900000Y-125450000D03*
%TO.P,J2,B12,GND*%
%TO.N,GND*%
X82050000Y-125450000D03*
D14*
%TO.P,J2,S1,SHIELD*%
X80700000Y-125080000D03*
D15*
X80700000Y-128460000D03*
D14*
X89350000Y-125080000D03*
D15*
X89350000Y-128460000D03*
%TD*%
D16*
%TO.P,SW2,1,1*%
%TO.N,GND*%
X76250000Y-126250000D03*
X69750000Y-126250000D03*
%TO.P,SW2,2,2*%
%TO.N,/USER_BTN*%
X76250000Y-121750000D03*
X69750000Y-121750000D03*
%TD*%
D17*
%TO.P,Y2,1*%
%TO.N,Net-(U4-PC14)*%
X88300000Y-100300000D03*
%TO.P,Y2,2*%
%TO.N,Net-(U4-PC15)*%
X90096051Y-98503949D03*
%TD*%
D18*
%TO.P,BT1,1,+*%
%TO.N,+BATT*%
X100400000Y-121100000D03*
X100400000Y-98200000D03*
D19*
%TO.P,BT1,2,-*%
%TO.N,GND*%
X100400000Y-109650000D03*
%TD*%
D16*
%TO.P,SW1,1,1*%
%TO.N,GND*%
X72000000Y-95300000D03*
X72000000Y-101800000D03*
%TO.P,SW1,2,2*%
%TO.N,Net-(U4-NRST)*%
X76500000Y-95300000D03*
X76500000Y-101800000D03*
%TD*%
D20*
%TO.P,J3,1,SWCLK*%
%TO.N,Net-(J1-SWCLK{slash}TCK)*%
X105090000Y-90270000D03*
%TO.P,J3,2,GND*%
%TO.N,GND*%
X105090000Y-89000000D03*
%TO.P,J3,3,SWDIO*%
%TO.N,Net-(J1-SWDIO{slash}TMS)*%
X103820000Y-90270000D03*
%TO.P,J3,4,V_{ref}*%
%TO.N,+1V8*%
X103820000Y-89000000D03*
%TO.P,J3,5,SWO*%
%TO.N,/SWTRACE_JTDO*%
X102550000Y-90270000D03*
%TO.P,J3,6,~{RESET}*%
%TO.N,/JTRST*%
X102550000Y-89000000D03*
%TD*%
D21*
%TO.N,*%
X103797152Y-100180680D03*
%TO.N,+BATT*%
X89263909Y-101463909D03*
X88150000Y-101540000D03*
X90700000Y-107800000D03*
X96628553Y-100078553D03*
D22*
%TO.N,GND*%
X72650000Y-107000000D03*
D21*
X104786658Y-88368329D03*
D22*
X66700000Y-96177778D03*
X79874997Y-104800000D03*
X71808333Y-107000000D03*
D21*
X106000000Y-115900000D03*
X100400000Y-109650000D03*
D22*
X78502778Y-107000000D03*
D21*
X106800000Y-115000000D03*
D23*
X107975000Y-100975000D03*
D22*
X66738889Y-105500000D03*
X66700000Y-94497222D03*
X76850000Y-107000000D03*
X66750000Y-107850000D03*
X66700000Y-99538889D03*
X74301389Y-105500000D03*
X66700000Y-103740278D03*
X75141667Y-105500000D03*
X73488889Y-107000000D03*
X66700000Y-102059722D03*
X76009722Y-107000000D03*
X66700000Y-102900000D03*
X66700000Y-97018056D03*
X79343056Y-107000000D03*
X70940278Y-105500000D03*
X67579167Y-105500000D03*
X70969444Y-107000000D03*
X70129167Y-107000000D03*
D21*
X104800000Y-97711446D03*
D23*
X104975000Y-91975000D03*
D22*
X77662500Y-105500000D03*
X66700000Y-95337500D03*
X80183334Y-107000000D03*
X68419445Y-105500000D03*
X79100000Y-104800000D03*
D23*
X107975000Y-103975000D03*
D22*
X72620834Y-105500000D03*
X66700000Y-101219445D03*
X66700000Y-104580556D03*
X71780556Y-105500000D03*
X68448611Y-107000000D03*
X70100000Y-105500000D03*
X66750000Y-108690278D03*
D23*
X107975000Y-91975000D03*
D22*
X66700000Y-98698611D03*
D23*
X107975000Y-94975000D03*
D22*
X66700000Y-100379167D03*
D23*
X107975000Y-97975000D03*
D22*
X69259723Y-105500000D03*
X67608333Y-107000000D03*
X66700000Y-97858333D03*
X77662500Y-107000000D03*
X76822223Y-105500000D03*
X69288889Y-107000000D03*
X75981945Y-105500000D03*
D23*
X107975000Y-88975000D03*
D22*
X66750000Y-107000000D03*
D21*
X104300000Y-117000000D03*
D22*
X74329167Y-107000000D03*
X73461112Y-105500000D03*
D21*
X92200000Y-111625000D03*
D22*
X78350000Y-105050000D03*
X75169444Y-107000000D03*
D21*
X101950000Y-105100000D03*
%TO.N,+1V8*%
X80500000Y-104800000D03*
X89300000Y-85800000D03*
X89300000Y-90000000D03*
X80700000Y-107500000D03*
X104250000Y-88100000D03*
X80400000Y-108000000D03*
%TO.N,/I2C1_SCL*%
X95700000Y-87700000D03*
X86420315Y-100199785D03*
X72600000Y-90450000D03*
X86420315Y-95800000D03*
%TO.N,/I2C1_SDA*%
X74550000Y-91422917D03*
X89261831Y-102076263D03*
X85129289Y-94636397D03*
X99600000Y-85500000D03*
%TO.N,Net-(U4-NRST)*%
X84400000Y-100400000D03*
%TO.N,Net-(U3-VDD)*%
X78638909Y-88861091D03*
X86900000Y-88324997D03*
%TO.N,/~{ATMO_EN}*%
X91500000Y-87500000D03*
X88400000Y-90800000D03*
%TO.N,/SWDIO_JTMS*%
X96400000Y-99000000D03*
X89987500Y-106750000D03*
%TO.N,/JTDI*%
X89050000Y-105250000D03*
X98800000Y-95190000D03*
%TO.N,/JTRST*%
X89753424Y-103994520D03*
X98665785Y-93920000D03*
%TO.N,/SWCLK_JTCK*%
X90000000Y-105750000D03*
X96970000Y-97737108D03*
%TO.N,/SWTRACE_JTDO*%
X96866446Y-96426446D03*
X89740380Y-104736826D03*
%TO.N,/USB_D_N*%
X89200000Y-108100000D03*
X89000000Y-113000000D03*
X85452599Y-121623377D03*
X88700000Y-118300000D03*
%TO.N,/USB_D_P*%
X88100000Y-118200000D03*
X88299997Y-113000000D03*
X89062500Y-107250000D03*
X84950000Y-121400000D03*
%TO.N,/OPT_INT*%
X73600000Y-90922917D03*
X85820679Y-95200000D03*
X85820679Y-100220679D03*
%TO.N,/USB_DETECT*%
X80950000Y-104250000D03*
X80400000Y-118600000D03*
%TO.N,/USER_BTN*%
X83700000Y-113800000D03*
%TO.N,/~{LIGHT_EN}*%
X92435396Y-95337396D03*
X89802536Y-102402536D03*
%TO.N,/SPI1_SDO*%
X80500000Y-101366139D03*
X80400000Y-103400000D03*
%TO.N,/~{CO2_EN}*%
X92962500Y-89912500D03*
X90050000Y-102950000D03*
X92388611Y-91694553D03*
X93800000Y-94600000D03*
%TO.N,Net-(J1-SWDIO{slash}TMS)*%
X103225000Y-100000000D03*
%TO.N,Net-(J1-SWCLK{slash}TCK)*%
X104300000Y-98900000D03*
%TD*%
D24*
%TO.N,+BATT*%
X91950000Y-105072793D02*
X91400000Y-105622793D01*
D25*
X89263909Y-101463909D02*
X89197818Y-101530000D01*
D24*
X91400000Y-107200000D02*
X90800000Y-107800000D01*
X98300000Y-121100000D02*
X99550000Y-121100000D01*
X96628553Y-100078553D02*
X91950000Y-104757106D01*
X90800000Y-113600000D02*
X98300000Y-121100000D01*
X98507106Y-98200000D02*
X100400000Y-98200000D01*
D25*
X88160000Y-101530000D02*
X88150000Y-101540000D01*
D24*
X91400000Y-105622793D02*
X91400000Y-107200000D01*
X90800000Y-107800000D02*
X90800000Y-113600000D01*
X91950000Y-104757106D02*
X91950000Y-105072793D01*
D25*
X89197818Y-101530000D02*
X88160000Y-101530000D01*
D24*
X96628553Y-100078553D02*
X98507106Y-98200000D01*
%TO.N,+1V8*%
X80900000Y-105200000D02*
X80900000Y-107500000D01*
X89300000Y-90000000D02*
X89300000Y-85800000D01*
D26*
X103820000Y-88530000D02*
X104250000Y-88100000D01*
X103820000Y-89000000D02*
X103820000Y-88530000D01*
X80700000Y-107700000D02*
X80700000Y-107500000D01*
X80700000Y-107500000D02*
X80705307Y-107505307D01*
D24*
X80900000Y-107500000D02*
X80400000Y-108000000D01*
X80500000Y-104800000D02*
X80900000Y-105200000D01*
D26*
X80400000Y-108000000D02*
X80700000Y-107700000D01*
%TO.N,/I2C1_SCL*%
X95700000Y-90800000D02*
X95700000Y-87700000D01*
X86420315Y-100199785D02*
X86420315Y-95800000D01*
X86420315Y-94654629D02*
X82188603Y-90422917D01*
X86420315Y-95800000D02*
X86420315Y-94654629D01*
X86420315Y-100199785D02*
X86420315Y-100079685D01*
X82188603Y-90422917D02*
X72627083Y-90422917D01*
X86420315Y-100079685D02*
X95700000Y-90800000D01*
X72627083Y-90422917D02*
X72600000Y-90450000D01*
%TO.N,/I2C1_SDA*%
X85200000Y-100600000D02*
X86100000Y-101500000D01*
X99600000Y-87465686D02*
X99600000Y-85500000D01*
X90950000Y-96115686D02*
X99600000Y-87465686D01*
X87976263Y-102076263D02*
X89261831Y-102076263D01*
X89261831Y-102076263D02*
X89358662Y-102076263D01*
X85200000Y-94707108D02*
X85129289Y-94636397D01*
X86100000Y-101500000D02*
X87400000Y-101500000D01*
X89773909Y-101661016D02*
X89773909Y-100076091D01*
X85200000Y-95000000D02*
X85200000Y-94707108D01*
X85200000Y-95000000D02*
X85200000Y-100600000D01*
X89358662Y-102076263D02*
X89773909Y-101661016D01*
X82057231Y-91422917D02*
X85200000Y-94565686D01*
X82057231Y-91422917D02*
X74550000Y-91422917D01*
X85200000Y-94565686D02*
X85200000Y-95000000D01*
X90950000Y-98900000D02*
X90950000Y-96115686D01*
X87400000Y-101500000D02*
X87976263Y-102076263D01*
X89773909Y-100076091D02*
X90950000Y-98900000D01*
%TO.N,Net-(U4-NRST)*%
X84400000Y-100400000D02*
X83200000Y-99200000D01*
X76500000Y-95300000D02*
X76500000Y-99200000D01*
X76500000Y-99200000D02*
X76500000Y-101800000D01*
X83200000Y-99200000D02*
X76500000Y-99200000D01*
D24*
%TO.N,Net-(U3-VDD)*%
X86350000Y-88750000D02*
X86350000Y-88747182D01*
X85476120Y-89623880D02*
X86350000Y-88750000D01*
X86350000Y-88747182D02*
X86772185Y-88324997D01*
X78638909Y-88861091D02*
X79401698Y-89623880D01*
X79401698Y-89623880D02*
X85476120Y-89623880D01*
X86772185Y-88324997D02*
X86900000Y-88324997D01*
D26*
%TO.N,/~{ATMO_EN}*%
X89207107Y-90800000D02*
X88400000Y-90800000D01*
X91500000Y-88507107D02*
X89207107Y-90800000D01*
X91500000Y-87500000D02*
X91500000Y-88507107D01*
%TO.N,/SWDIO_JTMS*%
X96400000Y-99000000D02*
X95500000Y-99900000D01*
X92150000Y-103850000D02*
X91450000Y-104550000D01*
X95500000Y-99900000D02*
X95500000Y-100328430D01*
X90500000Y-105815686D02*
X90500000Y-106237500D01*
X92150000Y-103678430D02*
X92150000Y-103850000D01*
X89987500Y-106750000D02*
X89987500Y-106737500D01*
X91450000Y-104865686D02*
X90500000Y-105815686D01*
X95500000Y-100328430D02*
X92150000Y-103678430D01*
X91450000Y-104550000D02*
X91450000Y-104865686D01*
X90500000Y-106237500D02*
X89987500Y-106750000D01*
%TO.N,/JTDI*%
X98800000Y-95190000D02*
X98800000Y-95200000D01*
X91350000Y-103347058D02*
X91350000Y-103518628D01*
X95553554Y-98446446D02*
X95539339Y-98446446D01*
X91350000Y-103518628D02*
X90650000Y-104218628D01*
X94700000Y-99285785D02*
X94700000Y-99997058D01*
X94700000Y-99997058D02*
X91350000Y-103347058D01*
X90650000Y-104534314D02*
X89934314Y-105250000D01*
X98800000Y-95200000D02*
X95553554Y-98446446D01*
X90650000Y-104218628D02*
X90650000Y-104534314D01*
X89934314Y-105250000D02*
X89050000Y-105250000D01*
X95539339Y-98446446D02*
X94700000Y-99285785D01*
%TO.N,/JTRST*%
X90550000Y-103015686D02*
X90550000Y-103157107D01*
X102550000Y-89036397D02*
X102550000Y-89000000D01*
X98665785Y-93920000D02*
X100250000Y-92335785D01*
X101075000Y-89425000D02*
X102161397Y-89425000D01*
X89753424Y-103953683D02*
X89753424Y-103994520D01*
X102161397Y-89425000D02*
X102550000Y-89036397D01*
X100250000Y-92335785D02*
X100250000Y-90250000D01*
X100250000Y-90250000D02*
X101075000Y-89425000D01*
X93900000Y-99665686D02*
X90550000Y-103015686D01*
X90550000Y-103157107D02*
X89753424Y-103953683D01*
X98665785Y-93920000D02*
X93900000Y-98685785D01*
X93900000Y-98685785D02*
X93900000Y-99665686D01*
%TO.N,/SWCLK_JTCK*%
X95100000Y-99592893D02*
X95100000Y-100162744D01*
X96970000Y-97737108D02*
X96955785Y-97737108D01*
X91050000Y-104700000D02*
X90000000Y-105750000D01*
X91050000Y-104384314D02*
X91050000Y-104700000D01*
X91750000Y-103684314D02*
X91050000Y-104384314D01*
X96955785Y-97737108D02*
X95100000Y-99592893D01*
X91750000Y-103512744D02*
X91750000Y-103684314D01*
X95100000Y-100162744D02*
X91750000Y-103512744D01*
%TO.N,/SWTRACE_JTDO*%
X96866446Y-96426446D02*
X94300000Y-98992892D01*
X102550000Y-90742892D02*
X102550000Y-90270000D01*
X98872892Y-94420000D02*
X102550000Y-90742892D01*
X96866446Y-96426446D02*
X96866446Y-96416447D01*
X90950000Y-103352942D02*
X90250000Y-104052942D01*
X90950000Y-103181372D02*
X90950000Y-103352942D01*
X98862893Y-94420000D02*
X98872892Y-94420000D01*
X90250000Y-104052942D02*
X90250000Y-104300000D01*
X96866446Y-96416447D02*
X98862893Y-94420000D01*
X89813174Y-104736826D02*
X89740380Y-104736826D01*
X94300000Y-98992892D02*
X94300000Y-99831372D01*
X90250000Y-104300000D02*
X89813174Y-104736826D01*
X94300000Y-99831372D02*
X90950000Y-103181372D01*
D27*
%TO.N,/USB_D_N*%
X89000000Y-108300000D02*
X89000000Y-113000000D01*
X86997607Y-119882719D02*
X87082461Y-119797868D01*
X88312500Y-118687500D02*
X88700000Y-118300000D01*
X87060076Y-120793717D02*
X87144928Y-120708864D01*
X85452599Y-121623377D02*
X85452599Y-121427731D01*
X87533943Y-119346387D02*
X88192830Y-118687500D01*
X87144928Y-120369452D02*
X86997607Y-120222131D01*
X85452599Y-121427731D02*
X86233933Y-120646397D01*
X89200000Y-108100000D02*
X89000000Y-108300000D01*
X86573344Y-120646397D02*
X86720664Y-120793717D01*
X88192830Y-118687500D02*
X88312500Y-118687500D01*
X87082461Y-119797868D02*
X87533943Y-119346387D01*
X86997607Y-120222131D02*
G75*
G02*
X86997582Y-119882694I169693J169731D01*
G01*
X86720664Y-120793717D02*
G75*
G03*
X87060076Y-120793717I169706J169704D01*
G01*
X87144928Y-120708864D02*
G75*
G03*
X87144886Y-120369494I-169728J169664D01*
G01*
X86233933Y-120646397D02*
G75*
G02*
X86573344Y-120646396I169706J-169707D01*
G01*
D24*
%TO.N,/USB_D_P*%
X84600000Y-124389339D02*
X85450000Y-125239339D01*
D27*
X88624999Y-112674998D02*
X88299997Y-113000000D01*
X88624999Y-107675001D02*
X88624999Y-112674998D01*
X89050000Y-107250000D02*
X88624999Y-107675001D01*
D24*
X85450000Y-125239339D02*
X85450000Y-125450000D01*
D27*
X89062500Y-107250000D02*
X89050000Y-107250000D01*
D24*
X84600000Y-124100000D02*
X84600000Y-124389339D01*
D27*
X88100000Y-118200000D02*
X84950000Y-121350000D01*
X84950000Y-121350000D02*
X84950000Y-121400000D01*
D26*
%TO.N,/OPT_INT*%
X82122917Y-90922917D02*
X73600000Y-90922917D01*
X85820679Y-100220679D02*
X85820679Y-94620679D01*
X85820679Y-94620679D02*
X82122917Y-90922917D01*
%TO.N,/USB_DETECT*%
X81400000Y-104700000D02*
X81400000Y-107900000D01*
X80400000Y-108900000D02*
X80400000Y-118600000D01*
X81400000Y-107900000D02*
X80400000Y-108900000D01*
X80950000Y-104250000D02*
X81400000Y-104700000D01*
D25*
%TO.N,/USER_BTN*%
X83700000Y-116500000D02*
X78450000Y-121750000D01*
X83700000Y-113800000D02*
X83700000Y-116500000D01*
X78450000Y-121750000D02*
X69750000Y-121750000D01*
D26*
%TO.N,/~{LIGHT_EN}*%
X92435396Y-95337396D02*
X92435398Y-95337398D01*
X92435398Y-95337398D02*
X92435398Y-99769674D01*
X92435398Y-99769674D02*
X89802536Y-102402536D01*
%TO.N,/SPI1_SDO*%
X80500000Y-101366139D02*
X80400000Y-101466139D01*
X80400000Y-101466139D02*
X80400000Y-103400000D01*
%TO.N,/~{CO2_EN}*%
X93800000Y-96400000D02*
X93000000Y-97200000D01*
X92962500Y-89912500D02*
X92388611Y-90486389D01*
X93000000Y-100000000D02*
X90050000Y-102950000D01*
X92388611Y-90486389D02*
X92388611Y-91694553D01*
X93800000Y-94600000D02*
X93800000Y-96400000D01*
X93000000Y-97200000D02*
X93000000Y-100000000D01*
%TO.N,Net-(J1-SWDIO{slash}TMS)*%
X103225000Y-100000000D02*
X103820000Y-99405000D01*
X103820000Y-99405000D02*
X103820000Y-90270000D01*
%TO.N,Net-(J1-SWCLK{slash}TCK)*%
X104300000Y-98900000D02*
X104300000Y-91060000D01*
X104300000Y-91060000D02*
X105090000Y-90270000D01*
%TD*%
%TA.AperFunction,Conductor*%
%TO.N,+BATT*%
G36*
X108015677Y-119819685D02*
G01*
X108036319Y-119836319D01*
X109463181Y-121263181D01*
X109496666Y-121324504D01*
X109499500Y-121350862D01*
X109499500Y-125996948D01*
X109499351Y-126003033D01*
X109482947Y-126336928D01*
X109481754Y-126349037D01*
X109433151Y-126676694D01*
X109430777Y-126688630D01*
X109350292Y-127009944D01*
X109346759Y-127021588D01*
X109235170Y-127333459D01*
X109230514Y-127344702D01*
X109088885Y-127644151D01*
X109083148Y-127654883D01*
X108912862Y-127938988D01*
X108906102Y-127949106D01*
X108708775Y-128215170D01*
X108701055Y-128224576D01*
X108478611Y-128470006D01*
X108470006Y-128478611D01*
X108224576Y-128701055D01*
X108215170Y-128708775D01*
X107949106Y-128906102D01*
X107938988Y-128912862D01*
X107654883Y-129083148D01*
X107644151Y-129088885D01*
X107344702Y-129230514D01*
X107333459Y-129235170D01*
X107021588Y-129346759D01*
X107009944Y-129350292D01*
X106688630Y-129430777D01*
X106676694Y-129433151D01*
X106349037Y-129481754D01*
X106336928Y-129482947D01*
X106021989Y-129498419D01*
X106003031Y-129499351D01*
X105996949Y-129499500D01*
X99350862Y-129499500D01*
X99283823Y-129479815D01*
X99263181Y-129463181D01*
X97836319Y-128036319D01*
X97802834Y-127974996D01*
X97800000Y-127948638D01*
X97800000Y-121851362D01*
X97819685Y-121784323D01*
X97836319Y-121763681D01*
X99763681Y-119836319D01*
X99825004Y-119802834D01*
X99851362Y-119800000D01*
X107948638Y-119800000D01*
X108015677Y-119819685D01*
G37*
%TD.AperFunction*%
%TD*%
%TA.AperFunction,Conductor*%
%TO.N,GND*%
G36*
X107838541Y-81949054D02*
G01*
X107905269Y-81969767D01*
X107936460Y-81999482D01*
X108500404Y-82764834D01*
X109275827Y-83817194D01*
X109299747Y-83882841D01*
X109300000Y-83890750D01*
X109300000Y-109600548D01*
X109280315Y-109667587D01*
X109265969Y-109685880D01*
X104913493Y-114274903D01*
X104853077Y-114309998D01*
X104783278Y-114306858D01*
X104726257Y-114266481D01*
X104700117Y-114201685D01*
X104699524Y-114189761D01*
X104692561Y-109650000D01*
X104676339Y-99073524D01*
X104685465Y-99035514D01*
X104682628Y-99034593D01*
X104685643Y-99025309D01*
X104685646Y-99025304D01*
X104705492Y-98900000D01*
X104705492Y-98899996D01*
X104685647Y-98774697D01*
X104682631Y-98765416D01*
X104685154Y-98764595D01*
X104675806Y-98725808D01*
X104664221Y-91172296D01*
X104683802Y-91105232D01*
X104700531Y-91084438D01*
X104892689Y-90892280D01*
X104954010Y-90858797D01*
X104996554Y-90857024D01*
X105089999Y-90869327D01*
X105090000Y-90869327D01*
X105245117Y-90848905D01*
X105389664Y-90789032D01*
X105513788Y-90693788D01*
X105609032Y-90569664D01*
X105668905Y-90425117D01*
X105689327Y-90270000D01*
X105688239Y-90261737D01*
X105699004Y-90192703D01*
X105745383Y-90140446D01*
X105812651Y-90121560D01*
X105879452Y-90142039D01*
X105898859Y-90157870D01*
X105916449Y-90175460D01*
X105916453Y-90175463D01*
X106030408Y-90251606D01*
X106030421Y-90251613D01*
X106074812Y-90270000D01*
X106157043Y-90304061D01*
X106291465Y-90330799D01*
X106291469Y-90330800D01*
X106291470Y-90330800D01*
X106428531Y-90330800D01*
X106428532Y-90330799D01*
X106562957Y-90304061D01*
X106689585Y-90251610D01*
X106803547Y-90175463D01*
X106900463Y-90078547D01*
X106976610Y-89964585D01*
X107029061Y-89837957D01*
X107055800Y-89703530D01*
X107055800Y-89566470D01*
X107029061Y-89432043D01*
X107029059Y-89432038D01*
X106976613Y-89305421D01*
X106976606Y-89305408D01*
X106900463Y-89191453D01*
X106900460Y-89191449D01*
X106803550Y-89094539D01*
X106803546Y-89094536D01*
X106689591Y-89018393D01*
X106689578Y-89018386D01*
X106562961Y-88965940D01*
X106562949Y-88965937D01*
X106428534Y-88939200D01*
X106428530Y-88939200D01*
X106291470Y-88939200D01*
X106291465Y-88939200D01*
X106157050Y-88965937D01*
X106157038Y-88965940D01*
X106030421Y-89018386D01*
X106030408Y-89018393D01*
X105916453Y-89094536D01*
X105916449Y-89094539D01*
X105819539Y-89191449D01*
X105819536Y-89191453D01*
X105743393Y-89305408D01*
X105743386Y-89305421D01*
X105690940Y-89432038D01*
X105690937Y-89432050D01*
X105664200Y-89566465D01*
X105664200Y-89709622D01*
X105661487Y-89709622D01*
X105650607Y-89766788D01*
X105602509Y-89817467D01*
X105534648Y-89834098D01*
X105468568Y-89811400D01*
X105464773Y-89808601D01*
X105389664Y-89750968D01*
X105389662Y-89750966D01*
X105245120Y-89691096D01*
X105245118Y-89691095D01*
X105245117Y-89691095D01*
X105224478Y-89688377D01*
X105197813Y-89684867D01*
X105133917Y-89656600D01*
X105095447Y-89598275D01*
X105090000Y-89561928D01*
X105090000Y-89000000D01*
X104784700Y-89000000D01*
X104717661Y-88980315D01*
X104671906Y-88927511D01*
X104660700Y-88876190D01*
X104650193Y-82026115D01*
X104669775Y-81959046D01*
X104722509Y-81913210D01*
X104776100Y-81901940D01*
X107838541Y-81949054D01*
G37*
%TD.AperFunction*%
%TD*%
%TA.AperFunction,Conductor*%
%TO.N,GND*%
G36*
X87490706Y-102019685D02*
G01*
X87511348Y-102036319D01*
X87735803Y-102260774D01*
X87791752Y-102316723D01*
X87791754Y-102316724D01*
X87791758Y-102316727D01*
X87860267Y-102356280D01*
X87860274Y-102356284D01*
X87908095Y-102369098D01*
X87967754Y-102405463D01*
X87998283Y-102468310D01*
X88000000Y-102488872D01*
X88000000Y-107698638D01*
X87980315Y-107765677D01*
X87963681Y-107786319D01*
X87786319Y-107963681D01*
X87724996Y-107997166D01*
X87698638Y-108000000D01*
X82301362Y-108000000D01*
X82234323Y-107980315D01*
X82213681Y-107963681D01*
X82036319Y-107786319D01*
X82002834Y-107724996D01*
X82000000Y-107698638D01*
X82000000Y-102301362D01*
X82019685Y-102234323D01*
X82036319Y-102213681D01*
X82213681Y-102036319D01*
X82275004Y-102002834D01*
X82301362Y-102000000D01*
X87423667Y-102000000D01*
X87490706Y-102019685D01*
G37*
%TD.AperFunction*%
%TD*%
M02*
