%TF.GenerationSoftware,KiCad,Pcbnew,8.0.7*%
%TF.CreationDate,2025-01-28T02:28:24+13:00*%
%TF.ProjectId,Housens-L,486f7573-656e-4732-9d4c-2e6b69636164,001*%
%TF.SameCoordinates,Original*%
%TF.FileFunction,Copper,L2,Inr*%
%TF.FilePolarity,Positive*%
%FSLAX46Y46*%
G04 Gerber Fmt 4.6, Leading zero omitted, Abs format (unit mm)*
G04 Created by KiCad (PCBNEW 8.0.7) date 2025-01-28 02:28:24*
%MOMM*%
%LPD*%
G01*
G04 APERTURE LIST*
%TA.AperFunction,HeatsinkPad*%
%ADD10C,0.500000*%
%TD*%
%TA.AperFunction,ComponentPad*%
%ADD11C,5.600000*%
%TD*%
%TA.AperFunction,ComponentPad*%
%ADD12C,0.700000*%
%TD*%
%TA.AperFunction,ComponentPad*%
%ADD13O,0.900000X2.400000*%
%TD*%
%TA.AperFunction,ComponentPad*%
%ADD14O,0.900000X1.700000*%
%TD*%
%TA.AperFunction,ComponentPad*%
%ADD15C,2.000000*%
%TD*%
%TA.AperFunction,ComponentPad*%
%ADD16C,1.000000*%
%TD*%
%TA.AperFunction,ViaPad*%
%ADD17C,0.500000*%
%TD*%
%TA.AperFunction,ViaPad*%
%ADD18C,0.450000*%
%TD*%
%TA.AperFunction,ViaPad*%
%ADD19C,0.400000*%
%TD*%
G04 APERTURE END LIST*
D10*
%TO.N,GND*%
%TO.C,U4*%
X87550000Y-102450000D03*
X86275000Y-102450000D03*
X85000000Y-102450000D03*
X83725000Y-102450000D03*
X82450000Y-102450000D03*
X87550000Y-103725000D03*
X86275000Y-103725000D03*
X85000000Y-103725000D03*
X83725000Y-103725000D03*
X82450000Y-103725000D03*
X87550000Y-105000000D03*
X86275000Y-105000000D03*
X85000000Y-105000000D03*
X83725000Y-105000000D03*
X82450000Y-105000000D03*
X87550000Y-106275000D03*
X86275000Y-106275000D03*
X85000000Y-106275000D03*
X83725000Y-106275000D03*
X82450000Y-106275000D03*
X87550000Y-107550000D03*
X86275000Y-107550000D03*
X85000000Y-107550000D03*
X83725000Y-107550000D03*
X82450000Y-107550000D03*
%TD*%
D11*
%TO.N,GND*%
%TO.C,H2*%
X106000000Y-84000000D03*
%TD*%
%TO.N,+BATT*%
%TO.C,H3*%
X106000000Y-126000000D03*
%TD*%
D12*
%TO.N,GND*%
%TO.C,J2*%
X82050000Y-124100000D03*
%TO.N,Net-(J2-VBUS-PadA4)*%
X82900000Y-124100000D03*
%TO.N,unconnected-(J2-CC1-PadA5)*%
X83750000Y-124100000D03*
%TO.N,/USB_D_P*%
X84600000Y-124100000D03*
%TO.N,/USB_D_N*%
X85450000Y-124100000D03*
%TO.N,N/C*%
X86300000Y-124100000D03*
%TO.N,Net-(J2-VBUS-PadA4)*%
X87150000Y-124100000D03*
%TO.N,GND*%
X88000000Y-124100000D03*
X88000000Y-125450000D03*
%TO.N,Net-(J2-VBUS-PadA4)*%
X87150000Y-125450000D03*
%TO.N,unconnected-(J2-CC2-PadB5)*%
X86300000Y-125450000D03*
%TO.N,/USB_D_P*%
X85450000Y-125450000D03*
%TO.N,/USB_D_N*%
X84600000Y-125450000D03*
%TO.N,N/C*%
X83750000Y-125450000D03*
%TO.N,Net-(J2-VBUS-PadA4)*%
X82900000Y-125450000D03*
%TO.N,GND*%
X82050000Y-125450000D03*
D13*
X80700000Y-125080000D03*
D14*
X80700000Y-128460000D03*
D13*
X89350000Y-125080000D03*
D14*
X89350000Y-128460000D03*
%TD*%
D15*
%TO.N,GND*%
%TO.C,SW2*%
X76250000Y-126250000D03*
X69750000Y-126250000D03*
%TO.N,/USER_BTN*%
X76250000Y-121750000D03*
X69750000Y-121750000D03*
%TD*%
D16*
%TO.N,Net-(U4-PC14)*%
%TO.C,Y2*%
X88300000Y-100300000D03*
%TO.N,Net-(U4-PC15)*%
X90096051Y-98503949D03*
%TD*%
D15*
%TO.N,GND*%
%TO.C,SW1*%
X72000000Y-95300000D03*
X72000000Y-101800000D03*
%TO.N,Net-(U4-NRST)*%
X76500000Y-95300000D03*
X76500000Y-101800000D03*
%TD*%
D17*
%TO.N,GND*%
X68975000Y-115975000D03*
D18*
X73461112Y-107000000D03*
D17*
X74975000Y-91975000D03*
X68975000Y-118975000D03*
D18*
X66700000Y-96177778D03*
D17*
X95975000Y-85975000D03*
X101975000Y-85975000D03*
D19*
X79900000Y-118000000D03*
D17*
X86975000Y-127975000D03*
D18*
X80183334Y-105500000D03*
D17*
X77975000Y-97975000D03*
D19*
X106000000Y-115900000D03*
X103980000Y-93120000D03*
D17*
X68975000Y-109975000D03*
X89975000Y-121975000D03*
X77975000Y-103975000D03*
X71975000Y-82975000D03*
X68975000Y-100975000D03*
D18*
X78502778Y-107000000D03*
D19*
X84100000Y-97100000D03*
X106800000Y-115000000D03*
D17*
X68975000Y-82975000D03*
D19*
X85750000Y-110500000D03*
D17*
X107975000Y-100975000D03*
X68975000Y-112975000D03*
D18*
X66738889Y-105500000D03*
D17*
X68975000Y-88975000D03*
D19*
X91900000Y-117900000D03*
D17*
X68975000Y-91975000D03*
D18*
X74301389Y-107000000D03*
X66700000Y-94497222D03*
X66700000Y-107900000D03*
X66700000Y-99538889D03*
D17*
X92975000Y-88975000D03*
D18*
X74301389Y-105500000D03*
X66700000Y-103740278D03*
D17*
X80975000Y-85975000D03*
D18*
X75141667Y-105500000D03*
X75141667Y-107000000D03*
X66700000Y-102059722D03*
D19*
X75650000Y-90500000D03*
X77400000Y-109200000D03*
D17*
X98975000Y-91975000D03*
X71975000Y-91975000D03*
X74975000Y-103975000D03*
D18*
X66700000Y-102900000D03*
D17*
X68975000Y-97975000D03*
X68975000Y-103975000D03*
X83975000Y-94975000D03*
D19*
X83112500Y-113225000D03*
D17*
X71975000Y-103975000D03*
D18*
X66700000Y-97018056D03*
D19*
X84600000Y-96550000D03*
X77400000Y-116500000D03*
D17*
X92975000Y-91975000D03*
D18*
X71780556Y-107000000D03*
D17*
X92975000Y-85975000D03*
X77975000Y-124975000D03*
D18*
X79343056Y-107000000D03*
X70940278Y-105500000D03*
D17*
X74975000Y-112975000D03*
D18*
X67579167Y-105500000D03*
D17*
X98975000Y-82975000D03*
X98975000Y-88975000D03*
D19*
X103960000Y-95660000D03*
D17*
X95975000Y-82975000D03*
D19*
X77400000Y-111150000D03*
D17*
X71975000Y-127975000D03*
X68975000Y-94975000D03*
X80975000Y-88975000D03*
X71975000Y-118975000D03*
D19*
X88119930Y-117419930D03*
D17*
X83975000Y-127975000D03*
D19*
X93300000Y-118200000D03*
D17*
X104975000Y-91975000D03*
D19*
X75250000Y-86500000D03*
D18*
X77662500Y-105500000D03*
X66738889Y-107000000D03*
X76822223Y-107000000D03*
X66700000Y-95337500D03*
X80183334Y-107000000D03*
X70940278Y-107000000D03*
X68419445Y-105500000D03*
D17*
X86975000Y-91975000D03*
X89975000Y-82975000D03*
X77975000Y-88975000D03*
D19*
X76295343Y-91204657D03*
D17*
X71975000Y-97975000D03*
D18*
X79343056Y-105500000D03*
D19*
X103920000Y-96930000D03*
D18*
X67579167Y-107000000D03*
D17*
X107975000Y-103975000D03*
X95975000Y-91975000D03*
X86975000Y-121975000D03*
D19*
X95500000Y-124475000D03*
D17*
X101975000Y-91975000D03*
D19*
X77400000Y-112850000D03*
D18*
X72620834Y-105500000D03*
D19*
X89500000Y-113650000D03*
D17*
X71975000Y-115975000D03*
D18*
X66700000Y-101219445D03*
D19*
X87075000Y-111625000D03*
D18*
X66700000Y-104580556D03*
D17*
X98975000Y-85975000D03*
X71975000Y-109975000D03*
D19*
X85030000Y-81840000D03*
D18*
X71780556Y-105500000D03*
D17*
X92975000Y-82975000D03*
D19*
X86000000Y-86450000D03*
D17*
X74975000Y-118975000D03*
D18*
X70100000Y-105500000D03*
X66700000Y-108740278D03*
D19*
X77400000Y-114550000D03*
D17*
X107975000Y-91975000D03*
D18*
X66700000Y-98698611D03*
D17*
X92975000Y-94975000D03*
X107975000Y-94975000D03*
D19*
X95800000Y-119000000D03*
D18*
X66700000Y-100379167D03*
D19*
X104500000Y-118300000D03*
D17*
X107975000Y-97975000D03*
D18*
X75981945Y-107000000D03*
D19*
X76000000Y-81925000D03*
X88100000Y-112450000D03*
X85350000Y-85650000D03*
D18*
X69259723Y-105500000D03*
D17*
X74975000Y-115975000D03*
X71975000Y-124975000D03*
X101975000Y-82975000D03*
D18*
X66700000Y-97858333D03*
D19*
X80368008Y-104104095D03*
X83593199Y-96550000D03*
X89150000Y-99450000D03*
X76250000Y-86500000D03*
D18*
X77662500Y-107000000D03*
X76822223Y-105500000D03*
D17*
X71975000Y-112975000D03*
D18*
X70100000Y-107000000D03*
D17*
X89975000Y-85975000D03*
X74975000Y-97975000D03*
D19*
X91950000Y-119700000D03*
D18*
X75981945Y-105500000D03*
D17*
X95975000Y-88975000D03*
X68975000Y-127975000D03*
X89975000Y-91975000D03*
D19*
X94850000Y-125350000D03*
X84700000Y-120200000D03*
D17*
X107975000Y-88975000D03*
X86975000Y-88975000D03*
D19*
X82500000Y-100400000D03*
D17*
X80975000Y-91975000D03*
D19*
X104300000Y-117000000D03*
D17*
X101975000Y-88975000D03*
X104975000Y-88975000D03*
X86975000Y-94975000D03*
D18*
X68419445Y-107000000D03*
X73461112Y-105500000D03*
D19*
X90150000Y-111625000D03*
D17*
X74975000Y-127975000D03*
X77975000Y-127975000D03*
D19*
X90576777Y-119083885D03*
D17*
X77975000Y-85975000D03*
D18*
X78502778Y-105500000D03*
D17*
X74975000Y-109975000D03*
D18*
X69259723Y-107000000D03*
D17*
X89975000Y-94975000D03*
X89975000Y-88975000D03*
D19*
X89487503Y-118000000D03*
D18*
X72620834Y-107000000D03*
%TD*%
%TA.AperFunction,Conductor*%
%TO.N,GND*%
G36*
X106003032Y-80500648D02*
G01*
X106336929Y-80517052D01*
X106349037Y-80518245D01*
X106452146Y-80533539D01*
X106676699Y-80566849D01*
X106688617Y-80569219D01*
X107009951Y-80649709D01*
X107021588Y-80653240D01*
X107092806Y-80678722D01*
X107333467Y-80764832D01*
X107344688Y-80769479D01*
X107644163Y-80911120D01*
X107654871Y-80916844D01*
X107938988Y-81087137D01*
X107949106Y-81093897D01*
X108215170Y-81291224D01*
X108224576Y-81298944D01*
X108470013Y-81521395D01*
X108478604Y-81529986D01*
X108665755Y-81736475D01*
X108701055Y-81775423D01*
X108708775Y-81784829D01*
X108906102Y-82050893D01*
X108912862Y-82061011D01*
X109041776Y-82276092D01*
X109083148Y-82345116D01*
X109088885Y-82355848D01*
X109230514Y-82655297D01*
X109235170Y-82666540D01*
X109346759Y-82978411D01*
X109350292Y-82990055D01*
X109430777Y-83311369D01*
X109433151Y-83323305D01*
X109481754Y-83650962D01*
X109482947Y-83663071D01*
X109499351Y-83996966D01*
X109499500Y-84003051D01*
X109499500Y-125996948D01*
X109499351Y-126003033D01*
X109482947Y-126336928D01*
X109481754Y-126349037D01*
X109433151Y-126676694D01*
X109430777Y-126688630D01*
X109350292Y-127009944D01*
X109346759Y-127021588D01*
X109235170Y-127333459D01*
X109230514Y-127344702D01*
X109088885Y-127644151D01*
X109083148Y-127654883D01*
X108912862Y-127938988D01*
X108906102Y-127949106D01*
X108708775Y-128215170D01*
X108701055Y-128224576D01*
X108478611Y-128470006D01*
X108470006Y-128478611D01*
X108224576Y-128701055D01*
X108215170Y-128708775D01*
X107949106Y-128906102D01*
X107938988Y-128912862D01*
X107654883Y-129083148D01*
X107644151Y-129088885D01*
X107344702Y-129230514D01*
X107333459Y-129235170D01*
X107021588Y-129346759D01*
X107009944Y-129350292D01*
X106688630Y-129430777D01*
X106676694Y-129433151D01*
X106349037Y-129481754D01*
X106336928Y-129482947D01*
X106021989Y-129498419D01*
X106003031Y-129499351D01*
X105996949Y-129499500D01*
X90297243Y-129499500D01*
X90230204Y-129479815D01*
X90184449Y-129427011D01*
X90174505Y-129357853D01*
X90190485Y-129316159D01*
X90189006Y-129315369D01*
X90191880Y-129309991D01*
X90263491Y-129137105D01*
X90263493Y-129137097D01*
X90299999Y-128953571D01*
X90300000Y-128953569D01*
X90300000Y-128710000D01*
X89650000Y-128710000D01*
X89650000Y-128210000D01*
X90300000Y-128210000D01*
X90300000Y-127966430D01*
X90299999Y-127966428D01*
X90263493Y-127782902D01*
X90263491Y-127782894D01*
X90191880Y-127610008D01*
X90191875Y-127609999D01*
X90087913Y-127454410D01*
X90087910Y-127454406D01*
X89955593Y-127322089D01*
X89955589Y-127322086D01*
X89800000Y-127218124D01*
X89799991Y-127218119D01*
X89627103Y-127146507D01*
X89627100Y-127146506D01*
X89600000Y-127141115D01*
X89600000Y-127893011D01*
X89590060Y-127875795D01*
X89534205Y-127819940D01*
X89465796Y-127780444D01*
X89389496Y-127760000D01*
X89310504Y-127760000D01*
X89234204Y-127780444D01*
X89165795Y-127819940D01*
X89109940Y-127875795D01*
X89100000Y-127893011D01*
X89100000Y-127141116D01*
X89099999Y-127141115D01*
X89072899Y-127146506D01*
X89072896Y-127146507D01*
X88900008Y-127218119D01*
X88899999Y-127218124D01*
X88744410Y-127322086D01*
X88744406Y-127322089D01*
X88612089Y-127454406D01*
X88612086Y-127454410D01*
X88508124Y-127609999D01*
X88508119Y-127610008D01*
X88436508Y-127782894D01*
X88436506Y-127782902D01*
X88400000Y-127966428D01*
X88400000Y-128210000D01*
X89050000Y-128210000D01*
X89050000Y-128710000D01*
X88400000Y-128710000D01*
X88400000Y-128953571D01*
X88436506Y-129137097D01*
X88436508Y-129137105D01*
X88508119Y-129309991D01*
X88510994Y-129315369D01*
X88508940Y-129316466D01*
X88526737Y-129373263D01*
X88508265Y-129440647D01*
X88456295Y-129487347D01*
X88402757Y-129499500D01*
X81647243Y-129499500D01*
X81580204Y-129479815D01*
X81534449Y-129427011D01*
X81524505Y-129357853D01*
X81540485Y-129316159D01*
X81539006Y-129315369D01*
X81541880Y-129309991D01*
X81613491Y-129137105D01*
X81613493Y-129137097D01*
X81649999Y-128953571D01*
X81650000Y-128953569D01*
X81650000Y-128710000D01*
X81000000Y-128710000D01*
X81000000Y-128210000D01*
X81650000Y-128210000D01*
X81650000Y-127966430D01*
X81649999Y-127966428D01*
X81613493Y-127782902D01*
X81613491Y-127782894D01*
X81541880Y-127610008D01*
X81541875Y-127609999D01*
X81437913Y-127454410D01*
X81437910Y-127454406D01*
X81305593Y-127322089D01*
X81305589Y-127322086D01*
X81150000Y-127218124D01*
X81149991Y-127218119D01*
X80977103Y-127146507D01*
X80977100Y-127146506D01*
X80950000Y-127141115D01*
X80950000Y-127893011D01*
X80940060Y-127875795D01*
X80884205Y-127819940D01*
X80815796Y-127780444D01*
X80739496Y-127760000D01*
X80660504Y-127760000D01*
X80584204Y-127780444D01*
X80515795Y-127819940D01*
X80459940Y-127875795D01*
X80450000Y-127893011D01*
X80450000Y-127141116D01*
X80449999Y-127141115D01*
X80422899Y-127146506D01*
X80422896Y-127146507D01*
X80250008Y-127218119D01*
X80249999Y-127218124D01*
X80094410Y-127322086D01*
X80094406Y-127322089D01*
X79962089Y-127454406D01*
X79962086Y-127454410D01*
X79858124Y-127609999D01*
X79858119Y-127610008D01*
X79786508Y-127782894D01*
X79786506Y-127782902D01*
X79750000Y-127966428D01*
X79750000Y-128210000D01*
X80400000Y-128210000D01*
X80400000Y-128710000D01*
X79750000Y-128710000D01*
X79750000Y-128953571D01*
X79786506Y-129137097D01*
X79786508Y-129137105D01*
X79858119Y-129309991D01*
X79860994Y-129315369D01*
X79858940Y-129316466D01*
X79876737Y-129373263D01*
X79858265Y-129440647D01*
X79806295Y-129487347D01*
X79752757Y-129499500D01*
X66374000Y-129499500D01*
X66306961Y-129479815D01*
X66261206Y-129427011D01*
X66250000Y-129375500D01*
X66250000Y-126249994D01*
X68244859Y-126249994D01*
X68244859Y-126250005D01*
X68265385Y-126497729D01*
X68265387Y-126497738D01*
X68326412Y-126738717D01*
X68426267Y-126966367D01*
X68526562Y-127119881D01*
X69226212Y-126420233D01*
X69237482Y-126462292D01*
X69309890Y-126587708D01*
X69412292Y-126690110D01*
X69537708Y-126762518D01*
X69579766Y-126773787D01*
X68879943Y-127473609D01*
X68926768Y-127510055D01*
X68926771Y-127510057D01*
X69145385Y-127628364D01*
X69145396Y-127628369D01*
X69380506Y-127709083D01*
X69625707Y-127750000D01*
X69874293Y-127750000D01*
X70119493Y-127709083D01*
X70354603Y-127628369D01*
X70354614Y-127628364D01*
X70573230Y-127510056D01*
X70573236Y-127510051D01*
X70620055Y-127473610D01*
X70620056Y-127473609D01*
X69920233Y-126773787D01*
X69962292Y-126762518D01*
X70087708Y-126690110D01*
X70190110Y-126587708D01*
X70262518Y-126462292D01*
X70273787Y-126420233D01*
X70973435Y-127119882D01*
X71073733Y-126966364D01*
X71173587Y-126738717D01*
X71234612Y-126497738D01*
X71234614Y-126497729D01*
X71255141Y-126250005D01*
X71255141Y-126249994D01*
X74744859Y-126249994D01*
X74744859Y-126250005D01*
X74765385Y-126497729D01*
X74765387Y-126497738D01*
X74826412Y-126738717D01*
X74926267Y-126966367D01*
X75026562Y-127119881D01*
X75726212Y-126420233D01*
X75737482Y-126462292D01*
X75809890Y-126587708D01*
X75912292Y-126690110D01*
X76037708Y-126762518D01*
X76079766Y-126773787D01*
X75379943Y-127473609D01*
X75426768Y-127510055D01*
X75426771Y-127510057D01*
X75645385Y-127628364D01*
X75645396Y-127628369D01*
X75880506Y-127709083D01*
X76125707Y-127750000D01*
X76374293Y-127750000D01*
X76619493Y-127709083D01*
X76854603Y-127628369D01*
X76854614Y-127628364D01*
X77073230Y-127510056D01*
X77073236Y-127510051D01*
X77120055Y-127473610D01*
X77120056Y-127473609D01*
X76420233Y-126773787D01*
X76462292Y-126762518D01*
X76587708Y-126690110D01*
X76690110Y-126587708D01*
X76762518Y-126462292D01*
X76773787Y-126420233D01*
X77473435Y-127119882D01*
X77573733Y-126966364D01*
X77673587Y-126738717D01*
X77734612Y-126497738D01*
X77734614Y-126497729D01*
X77755141Y-126250005D01*
X77755141Y-126249994D01*
X77734614Y-126002270D01*
X77734612Y-126002261D01*
X77673587Y-125761282D01*
X77573732Y-125533632D01*
X77473435Y-125380116D01*
X76773787Y-126079765D01*
X76762518Y-126037708D01*
X76690110Y-125912292D01*
X76587708Y-125809890D01*
X76462292Y-125737482D01*
X76420233Y-125726212D01*
X77120055Y-125026389D01*
X77120055Y-125026388D01*
X77073236Y-124989947D01*
X77073231Y-124989944D01*
X76854614Y-124871635D01*
X76854603Y-124871630D01*
X76619493Y-124790916D01*
X76374293Y-124750000D01*
X76125707Y-124750000D01*
X75880506Y-124790916D01*
X75645396Y-124871630D01*
X75645385Y-124871635D01*
X75426770Y-124989943D01*
X75379943Y-125026389D01*
X76079766Y-125726212D01*
X76037708Y-125737482D01*
X75912292Y-125809890D01*
X75809890Y-125912292D01*
X75737482Y-126037708D01*
X75726212Y-126079766D01*
X75026563Y-125380117D01*
X74926267Y-125533633D01*
X74926265Y-125533637D01*
X74826412Y-125761282D01*
X74765387Y-126002261D01*
X74765385Y-126002270D01*
X74744859Y-126249994D01*
X71255141Y-126249994D01*
X71234614Y-126002270D01*
X71234612Y-126002261D01*
X71173587Y-125761282D01*
X71073732Y-125533632D01*
X70973435Y-125380116D01*
X70273787Y-126079765D01*
X70262518Y-126037708D01*
X70190110Y-125912292D01*
X70087708Y-125809890D01*
X69962292Y-125737482D01*
X69920233Y-125726212D01*
X70620055Y-125026389D01*
X70620055Y-125026388D01*
X70573236Y-124989947D01*
X70573231Y-124989944D01*
X70354614Y-124871635D01*
X70354603Y-124871630D01*
X70119493Y-124790916D01*
X69874293Y-124750000D01*
X69625707Y-124750000D01*
X69380506Y-124790916D01*
X69145396Y-124871630D01*
X69145385Y-124871635D01*
X68926770Y-124989943D01*
X68879943Y-125026389D01*
X69579766Y-125726212D01*
X69537708Y-125737482D01*
X69412292Y-125809890D01*
X69309890Y-125912292D01*
X69237482Y-126037708D01*
X69226212Y-126079766D01*
X68526563Y-125380117D01*
X68426267Y-125533633D01*
X68426265Y-125533637D01*
X68326412Y-125761282D01*
X68265387Y-126002261D01*
X68265385Y-126002270D01*
X68244859Y-126249994D01*
X66250000Y-126249994D01*
X66250000Y-124236428D01*
X79750000Y-124236428D01*
X79750000Y-124830000D01*
X80400000Y-124830000D01*
X80400000Y-125330000D01*
X79750000Y-125330000D01*
X79750000Y-125923571D01*
X79786506Y-126107097D01*
X79786508Y-126107105D01*
X79858119Y-126279991D01*
X79858124Y-126280000D01*
X79962086Y-126435589D01*
X79962089Y-126435593D01*
X80094406Y-126567910D01*
X80094410Y-126567913D01*
X80249999Y-126671875D01*
X80250012Y-126671882D01*
X80422889Y-126743489D01*
X80422896Y-126743491D01*
X80450000Y-126748882D01*
X80450000Y-125996988D01*
X80459940Y-126014205D01*
X80515795Y-126070060D01*
X80584204Y-126109556D01*
X80660504Y-126130000D01*
X80739496Y-126130000D01*
X80815796Y-126109556D01*
X80884205Y-126070060D01*
X80940060Y-126014205D01*
X80950000Y-125996988D01*
X80950000Y-126748881D01*
X80977103Y-126743491D01*
X80977110Y-126743489D01*
X81149987Y-126671882D01*
X81150000Y-126671875D01*
X81305589Y-126567913D01*
X81305593Y-126567910D01*
X81437910Y-126435593D01*
X81437913Y-126435589D01*
X81541875Y-126280000D01*
X81541880Y-126279991D01*
X81613491Y-126107105D01*
X81613493Y-126107097D01*
X81649999Y-125923571D01*
X81650000Y-125923569D01*
X81650000Y-125449999D01*
X82344750Y-125449999D01*
X82344750Y-125450000D01*
X82363670Y-125593708D01*
X82363671Y-125593712D01*
X82419137Y-125727622D01*
X82419138Y-125727624D01*
X82419139Y-125727625D01*
X82507379Y-125842621D01*
X82622375Y-125930861D01*
X82756291Y-125986330D01*
X82877297Y-126002261D01*
X82899999Y-126005250D01*
X82900000Y-126005250D01*
X82900001Y-126005250D01*
X82916839Y-126003033D01*
X83043709Y-125986330D01*
X83177625Y-125930861D01*
X83249513Y-125875698D01*
X83314682Y-125850504D01*
X83383127Y-125864542D01*
X83400487Y-125875699D01*
X83472373Y-125930860D01*
X83472374Y-125930860D01*
X83472375Y-125930861D01*
X83606291Y-125986330D01*
X83727297Y-126002261D01*
X83749999Y-126005250D01*
X83750000Y-126005250D01*
X83750001Y-126005250D01*
X83766839Y-126003033D01*
X83893709Y-125986330D01*
X84027625Y-125930861D01*
X84099513Y-125875698D01*
X84164682Y-125850504D01*
X84233127Y-125864542D01*
X84250487Y-125875699D01*
X84322373Y-125930860D01*
X84322374Y-125930860D01*
X84322375Y-125930861D01*
X84456291Y-125986330D01*
X84577297Y-126002261D01*
X84599999Y-126005250D01*
X84600000Y-126005250D01*
X84600001Y-126005250D01*
X84616839Y-126003033D01*
X84743709Y-125986330D01*
X84877625Y-125930861D01*
X84949513Y-125875698D01*
X85014682Y-125850504D01*
X85083127Y-125864542D01*
X85100487Y-125875699D01*
X85172373Y-125930860D01*
X85172374Y-125930860D01*
X85172375Y-125930861D01*
X85306291Y-125986330D01*
X85427297Y-126002261D01*
X85449999Y-126005250D01*
X85450000Y-126005250D01*
X85450001Y-126005250D01*
X85466839Y-126003033D01*
X85593709Y-125986330D01*
X85727625Y-125930861D01*
X85799513Y-125875698D01*
X85864682Y-125850504D01*
X85933127Y-125864542D01*
X85950487Y-125875699D01*
X86022373Y-125930860D01*
X86022374Y-125930860D01*
X86022375Y-125930861D01*
X86156291Y-125986330D01*
X86277297Y-126002261D01*
X86299999Y-126005250D01*
X86300000Y-126005250D01*
X86300001Y-126005250D01*
X86316839Y-126003033D01*
X86443709Y-125986330D01*
X86577625Y-125930861D01*
X86649513Y-125875698D01*
X86714682Y-125850504D01*
X86783127Y-125864542D01*
X86800487Y-125875699D01*
X86872373Y-125930860D01*
X86872374Y-125930860D01*
X86872375Y-125930861D01*
X87006291Y-125986330D01*
X87127297Y-126002261D01*
X87149999Y-126005250D01*
X87150000Y-126005250D01*
X87150001Y-126005250D01*
X87166839Y-126003033D01*
X87293709Y-125986330D01*
X87427625Y-125930861D01*
X87542621Y-125842621D01*
X87630861Y-125727625D01*
X87686330Y-125593709D01*
X87705250Y-125450000D01*
X87686330Y-125306291D01*
X87630861Y-125172375D01*
X87542621Y-125057379D01*
X87427625Y-124969139D01*
X87427624Y-124969138D01*
X87427622Y-124969137D01*
X87293712Y-124913671D01*
X87293710Y-124913670D01*
X87293709Y-124913670D01*
X87174221Y-124897938D01*
X87150283Y-124887348D01*
X87128697Y-124897519D01*
X87125777Y-124897939D01*
X87006291Y-124913670D01*
X87006287Y-124913671D01*
X86872376Y-124969138D01*
X86872374Y-124969139D01*
X86800486Y-125024301D01*
X86735317Y-125049495D01*
X86666872Y-125035456D01*
X86649514Y-125024301D01*
X86577625Y-124969139D01*
X86577623Y-124969138D01*
X86443712Y-124913671D01*
X86443710Y-124913670D01*
X86443709Y-124913670D01*
X86324221Y-124897938D01*
X86300283Y-124887348D01*
X86278697Y-124897519D01*
X86275777Y-124897939D01*
X86156291Y-124913670D01*
X86156287Y-124913671D01*
X86022376Y-124969138D01*
X86022374Y-124969139D01*
X85950486Y-125024301D01*
X85885317Y-125049495D01*
X85816872Y-125035456D01*
X85799514Y-125024301D01*
X85727625Y-124969139D01*
X85727623Y-124969138D01*
X85593712Y-124913671D01*
X85593710Y-124913670D01*
X85593709Y-124913670D01*
X85474221Y-124897938D01*
X85450283Y-124887348D01*
X85428697Y-124897519D01*
X85425777Y-124897939D01*
X85306291Y-124913670D01*
X85306287Y-124913671D01*
X85172376Y-124969138D01*
X85172374Y-124969139D01*
X85100486Y-125024301D01*
X85035317Y-125049495D01*
X84966872Y-125035456D01*
X84949514Y-125024301D01*
X84877625Y-124969139D01*
X84877623Y-124969138D01*
X84743712Y-124913671D01*
X84743710Y-124913670D01*
X84743709Y-124913670D01*
X84624221Y-124897938D01*
X84600283Y-124887348D01*
X84578697Y-124897519D01*
X84575777Y-124897939D01*
X84456291Y-124913670D01*
X84456287Y-124913671D01*
X84322376Y-124969138D01*
X84322374Y-124969139D01*
X84250486Y-125024301D01*
X84185317Y-125049495D01*
X84116872Y-125035456D01*
X84099514Y-125024301D01*
X84027625Y-124969139D01*
X84027623Y-124969138D01*
X83893712Y-124913671D01*
X83893710Y-124913670D01*
X83893709Y-124913670D01*
X83774221Y-124897938D01*
X83750283Y-124887348D01*
X83728697Y-124897519D01*
X83725777Y-124897939D01*
X83606291Y-124913670D01*
X83606287Y-124913671D01*
X83472376Y-124969138D01*
X83472374Y-124969139D01*
X83400486Y-125024301D01*
X83335317Y-125049495D01*
X83266872Y-125035456D01*
X83249514Y-125024301D01*
X83177625Y-124969139D01*
X83177623Y-124969138D01*
X83043712Y-124913671D01*
X83043710Y-124913670D01*
X83043709Y-124913670D01*
X82924221Y-124897938D01*
X82900283Y-124887348D01*
X82878697Y-124897519D01*
X82875777Y-124897939D01*
X82756291Y-124913670D01*
X82756287Y-124913671D01*
X82622377Y-124969137D01*
X82507379Y-125057379D01*
X82419137Y-125172377D01*
X82363671Y-125306287D01*
X82363670Y-125306291D01*
X82344750Y-125449999D01*
X81650000Y-125449999D01*
X81650000Y-125330000D01*
X81000000Y-125330000D01*
X81000000Y-124830000D01*
X81650000Y-124830000D01*
X81650000Y-124236430D01*
X81649999Y-124236428D01*
X81622861Y-124100000D01*
X82344750Y-124100000D01*
X82362711Y-124236428D01*
X82363670Y-124243708D01*
X82363671Y-124243712D01*
X82419137Y-124377622D01*
X82419138Y-124377624D01*
X82419139Y-124377625D01*
X82507379Y-124492621D01*
X82622375Y-124580861D01*
X82756291Y-124636330D01*
X82867167Y-124650927D01*
X82875777Y-124652061D01*
X82899715Y-124662651D01*
X82921302Y-124652481D01*
X82924222Y-124652061D01*
X82931491Y-124651104D01*
X83043709Y-124636330D01*
X83177625Y-124580861D01*
X83249513Y-124525698D01*
X83314682Y-124500504D01*
X83383127Y-124514542D01*
X83400487Y-124525699D01*
X83472373Y-124580860D01*
X83472374Y-124580860D01*
X83472375Y-124580861D01*
X83606291Y-124636330D01*
X83717167Y-124650927D01*
X83725777Y-124652061D01*
X83749715Y-124662651D01*
X83771302Y-124652481D01*
X83774222Y-124652061D01*
X83781491Y-124651104D01*
X83893709Y-124636330D01*
X84027625Y-124580861D01*
X84099513Y-124525698D01*
X84164682Y-124500504D01*
X84233127Y-124514542D01*
X84250487Y-124525699D01*
X84322373Y-124580860D01*
X84322374Y-124580860D01*
X84322375Y-124580861D01*
X84456291Y-124636330D01*
X84567167Y-124650927D01*
X84575777Y-124652061D01*
X84599715Y-124662651D01*
X84621302Y-124652481D01*
X84624222Y-124652061D01*
X84631491Y-124651104D01*
X84743709Y-124636330D01*
X84877625Y-124580861D01*
X84949513Y-124525698D01*
X85014682Y-124500504D01*
X85083127Y-124514542D01*
X85100487Y-124525699D01*
X85172373Y-124580860D01*
X85172374Y-124580860D01*
X85172375Y-124580861D01*
X85306291Y-124636330D01*
X85417167Y-124650927D01*
X85425777Y-124652061D01*
X85449715Y-124662651D01*
X85471302Y-124652481D01*
X85474222Y-124652061D01*
X85481491Y-124651104D01*
X85593709Y-124636330D01*
X85727625Y-124580861D01*
X85799513Y-124525698D01*
X85864682Y-124500504D01*
X85933127Y-124514542D01*
X85950487Y-124525699D01*
X86022373Y-124580860D01*
X86022374Y-124580860D01*
X86022375Y-124580861D01*
X86156291Y-124636330D01*
X86267167Y-124650927D01*
X86275777Y-124652061D01*
X86299715Y-124662651D01*
X86321302Y-124652481D01*
X86324222Y-124652061D01*
X86331491Y-124651104D01*
X86443709Y-124636330D01*
X86577625Y-124580861D01*
X86649513Y-124525698D01*
X86714682Y-124500504D01*
X86783127Y-124514542D01*
X86800487Y-124525699D01*
X86872373Y-124580860D01*
X86872374Y-124580860D01*
X86872375Y-124580861D01*
X87006291Y-124636330D01*
X87117167Y-124650927D01*
X87125777Y-124652061D01*
X87149715Y-124662651D01*
X87171302Y-124652481D01*
X87174222Y-124652061D01*
X87181491Y-124651104D01*
X87293709Y-124636330D01*
X87427625Y-124580861D01*
X87542621Y-124492621D01*
X87630861Y-124377625D01*
X87686330Y-124243709D01*
X87687289Y-124236428D01*
X88400000Y-124236428D01*
X88400000Y-124830000D01*
X89050000Y-124830000D01*
X89050000Y-125330000D01*
X88400000Y-125330000D01*
X88400000Y-125923571D01*
X88436506Y-126107097D01*
X88436508Y-126107105D01*
X88508119Y-126279991D01*
X88508124Y-126280000D01*
X88612086Y-126435589D01*
X88612089Y-126435593D01*
X88744406Y-126567910D01*
X88744410Y-126567913D01*
X88899999Y-126671875D01*
X88900012Y-126671882D01*
X89072889Y-126743489D01*
X89072896Y-126743491D01*
X89100000Y-126748882D01*
X89100000Y-125996988D01*
X89109940Y-126014205D01*
X89165795Y-126070060D01*
X89234204Y-126109556D01*
X89310504Y-126130000D01*
X89389496Y-126130000D01*
X89465796Y-126109556D01*
X89534205Y-126070060D01*
X89590060Y-126014205D01*
X89600000Y-125996988D01*
X89600000Y-126748881D01*
X89627103Y-126743491D01*
X89627110Y-126743489D01*
X89799987Y-126671882D01*
X89800000Y-126671875D01*
X89955589Y-126567913D01*
X89955593Y-126567910D01*
X90087910Y-126435593D01*
X90087913Y-126435589D01*
X90191875Y-126280000D01*
X90191880Y-126279991D01*
X90263491Y-126107105D01*
X90263493Y-126107097D01*
X90284797Y-125999996D01*
X102994415Y-125999996D01*
X102994415Y-126000003D01*
X103014738Y-126348927D01*
X103014739Y-126348938D01*
X103075428Y-126693127D01*
X103075430Y-126693134D01*
X103175674Y-127027972D01*
X103314107Y-127348895D01*
X103314113Y-127348908D01*
X103488870Y-127651597D01*
X103697584Y-127931949D01*
X103697589Y-127931955D01*
X103821463Y-128063253D01*
X103937442Y-128186183D01*
X104113903Y-128334251D01*
X104205186Y-128410847D01*
X104205194Y-128410853D01*
X104497203Y-128602911D01*
X104497207Y-128602913D01*
X104809549Y-128759777D01*
X105137989Y-128879319D01*
X105478086Y-128959923D01*
X105825241Y-129000500D01*
X105825248Y-129000500D01*
X106174752Y-129000500D01*
X106174759Y-129000500D01*
X106521914Y-128959923D01*
X106862011Y-128879319D01*
X107190451Y-128759777D01*
X107502793Y-128602913D01*
X107698004Y-128474520D01*
X107794805Y-128410853D01*
X107794805Y-128410852D01*
X107794811Y-128410849D01*
X108062558Y-128186183D01*
X108302412Y-127931953D01*
X108511130Y-127651596D01*
X108685889Y-127348904D01*
X108824326Y-127027971D01*
X108924569Y-126693136D01*
X108927469Y-126676694D01*
X108985260Y-126348938D01*
X108985259Y-126348938D01*
X108985262Y-126348927D01*
X109005279Y-126005250D01*
X109005585Y-126000003D01*
X109005585Y-125999996D01*
X109001133Y-125923569D01*
X108985262Y-125651073D01*
X108964555Y-125533637D01*
X108924571Y-125306872D01*
X108924569Y-125306865D01*
X108884306Y-125172377D01*
X108824326Y-124972029D01*
X108685889Y-124651096D01*
X108511130Y-124348404D01*
X108511129Y-124348402D01*
X108302415Y-124068050D01*
X108302410Y-124068044D01*
X108125006Y-123880008D01*
X108062558Y-123813817D01*
X107896289Y-123674301D01*
X107794813Y-123589152D01*
X107794805Y-123589146D01*
X107502796Y-123397088D01*
X107190458Y-123240226D01*
X107190452Y-123240223D01*
X106862012Y-123120681D01*
X106862009Y-123120680D01*
X106521915Y-123040077D01*
X106478519Y-123035004D01*
X106174759Y-122999500D01*
X105825241Y-122999500D01*
X105521480Y-123035004D01*
X105478085Y-123040077D01*
X105478083Y-123040077D01*
X105137990Y-123120680D01*
X105137987Y-123120681D01*
X104809547Y-123240223D01*
X104809541Y-123240226D01*
X104497203Y-123397088D01*
X104205194Y-123589146D01*
X104205186Y-123589152D01*
X103937442Y-123813817D01*
X103937440Y-123813819D01*
X103697589Y-124068044D01*
X103697584Y-124068050D01*
X103488870Y-124348402D01*
X103314113Y-124651091D01*
X103314107Y-124651104D01*
X103175674Y-124972027D01*
X103075430Y-125306865D01*
X103075428Y-125306872D01*
X103014739Y-125651061D01*
X103014738Y-125651072D01*
X102994415Y-125999996D01*
X90284797Y-125999996D01*
X90299999Y-125923571D01*
X90300000Y-125923569D01*
X90300000Y-125330000D01*
X89650000Y-125330000D01*
X89650000Y-124830000D01*
X90300000Y-124830000D01*
X90300000Y-124236430D01*
X90299999Y-124236428D01*
X90263493Y-124052902D01*
X90263491Y-124052894D01*
X90191880Y-123880008D01*
X90191875Y-123879999D01*
X90087913Y-123724410D01*
X90087910Y-123724406D01*
X89955593Y-123592089D01*
X89955589Y-123592086D01*
X89800000Y-123488124D01*
X89799991Y-123488119D01*
X89627103Y-123416507D01*
X89627100Y-123416506D01*
X89600000Y-123411115D01*
X89600000Y-124163011D01*
X89590060Y-124145795D01*
X89534205Y-124089940D01*
X89465796Y-124050444D01*
X89389496Y-124030000D01*
X89310504Y-124030000D01*
X89234204Y-124050444D01*
X89165795Y-124089940D01*
X89109940Y-124145795D01*
X89100000Y-124163011D01*
X89100000Y-123411116D01*
X89099999Y-123411115D01*
X89072899Y-123416506D01*
X89072896Y-123416507D01*
X88900008Y-123488119D01*
X88899999Y-123488124D01*
X88744410Y-123592086D01*
X88744406Y-123592089D01*
X88612089Y-123724406D01*
X88612086Y-123724410D01*
X88508124Y-123879999D01*
X88508119Y-123880008D01*
X88436508Y-124052894D01*
X88436506Y-124052902D01*
X88400000Y-124236428D01*
X87687289Y-124236428D01*
X87705250Y-124100000D01*
X87686330Y-123956291D01*
X87630861Y-123822375D01*
X87542621Y-123707379D01*
X87427625Y-123619139D01*
X87427624Y-123619138D01*
X87427622Y-123619137D01*
X87293712Y-123563671D01*
X87293710Y-123563670D01*
X87293709Y-123563670D01*
X87221854Y-123554210D01*
X87150001Y-123544750D01*
X87149999Y-123544750D01*
X87006291Y-123563670D01*
X87006287Y-123563671D01*
X86872376Y-123619138D01*
X86872374Y-123619139D01*
X86800486Y-123674301D01*
X86735317Y-123699495D01*
X86666872Y-123685456D01*
X86649514Y-123674301D01*
X86577625Y-123619139D01*
X86577623Y-123619138D01*
X86443712Y-123563671D01*
X86443710Y-123563670D01*
X86443709Y-123563670D01*
X86371854Y-123554210D01*
X86300001Y-123544750D01*
X86299999Y-123544750D01*
X86156291Y-123563670D01*
X86156287Y-123563671D01*
X86022376Y-123619138D01*
X86022374Y-123619139D01*
X85950486Y-123674301D01*
X85885317Y-123699495D01*
X85816872Y-123685456D01*
X85799514Y-123674301D01*
X85727625Y-123619139D01*
X85727623Y-123619138D01*
X85593712Y-123563671D01*
X85593710Y-123563670D01*
X85593709Y-123563670D01*
X85521854Y-123554210D01*
X85450001Y-123544750D01*
X85449999Y-123544750D01*
X85306291Y-123563670D01*
X85306287Y-123563671D01*
X85172376Y-123619138D01*
X85172374Y-123619139D01*
X85100486Y-123674301D01*
X85035317Y-123699495D01*
X84966872Y-123685456D01*
X84949514Y-123674301D01*
X84877625Y-123619139D01*
X84877623Y-123619138D01*
X84743712Y-123563671D01*
X84743710Y-123563670D01*
X84743709Y-123563670D01*
X84671854Y-123554210D01*
X84600001Y-123544750D01*
X84599999Y-123544750D01*
X84456291Y-123563670D01*
X84456287Y-123563671D01*
X84322376Y-123619138D01*
X84322374Y-123619139D01*
X84250486Y-123674301D01*
X84185317Y-123699495D01*
X84116872Y-123685456D01*
X84099514Y-123674301D01*
X84027625Y-123619139D01*
X84027623Y-123619138D01*
X83893712Y-123563671D01*
X83893710Y-123563670D01*
X83893709Y-123563670D01*
X83821854Y-123554210D01*
X83750001Y-123544750D01*
X83749999Y-123544750D01*
X83606291Y-123563670D01*
X83606287Y-123563671D01*
X83472376Y-123619138D01*
X83472374Y-123619139D01*
X83400486Y-123674301D01*
X83335317Y-123699495D01*
X83266872Y-123685456D01*
X83249514Y-123674301D01*
X83177625Y-123619139D01*
X83177623Y-123619138D01*
X83043712Y-123563671D01*
X83043710Y-123563670D01*
X83043709Y-123563670D01*
X82971854Y-123554210D01*
X82900001Y-123544750D01*
X82899999Y-123544750D01*
X82756291Y-123563670D01*
X82756287Y-123563671D01*
X82622377Y-123619137D01*
X82507379Y-123707379D01*
X82419137Y-123822377D01*
X82363671Y-123956287D01*
X82363670Y-123956291D01*
X82344750Y-124100000D01*
X81622861Y-124100000D01*
X81613493Y-124052902D01*
X81613491Y-124052894D01*
X81541880Y-123880008D01*
X81541875Y-123879999D01*
X81437913Y-123724410D01*
X81437910Y-123724406D01*
X81305593Y-123592089D01*
X81305589Y-123592086D01*
X81150000Y-123488124D01*
X81149991Y-123488119D01*
X80977103Y-123416507D01*
X80977100Y-123416506D01*
X80950000Y-123411115D01*
X80950000Y-124163011D01*
X80940060Y-124145795D01*
X80884205Y-124089940D01*
X80815796Y-124050444D01*
X80739496Y-124030000D01*
X80660504Y-124030000D01*
X80584204Y-124050444D01*
X80515795Y-124089940D01*
X80459940Y-124145795D01*
X80450000Y-124163011D01*
X80450000Y-123411116D01*
X80449999Y-123411115D01*
X80422899Y-123416506D01*
X80422896Y-123416507D01*
X80250008Y-123488119D01*
X80249999Y-123488124D01*
X80094410Y-123592086D01*
X80094406Y-123592089D01*
X79962089Y-123724406D01*
X79962086Y-123724410D01*
X79858124Y-123879999D01*
X79858119Y-123880008D01*
X79786508Y-124052894D01*
X79786506Y-124052902D01*
X79750000Y-124236428D01*
X66250000Y-124236428D01*
X66250000Y-121749999D01*
X68544357Y-121749999D01*
X68544357Y-121750000D01*
X68564884Y-121971535D01*
X68564885Y-121971537D01*
X68625769Y-122185523D01*
X68625775Y-122185538D01*
X68724938Y-122384683D01*
X68724943Y-122384691D01*
X68859020Y-122562238D01*
X69023437Y-122712123D01*
X69023439Y-122712125D01*
X69212595Y-122829245D01*
X69212596Y-122829245D01*
X69212599Y-122829247D01*
X69420060Y-122909618D01*
X69638757Y-122950500D01*
X69638759Y-122950500D01*
X69861241Y-122950500D01*
X69861243Y-122950500D01*
X70079940Y-122909618D01*
X70287401Y-122829247D01*
X70476562Y-122712124D01*
X70640981Y-122562236D01*
X70775058Y-122384689D01*
X70874229Y-122185528D01*
X70935115Y-121971536D01*
X70955643Y-121750000D01*
X70955643Y-121749999D01*
X75044357Y-121749999D01*
X75044357Y-121750000D01*
X75064884Y-121971535D01*
X75064885Y-121971537D01*
X75125769Y-122185523D01*
X75125775Y-122185538D01*
X75224938Y-122384683D01*
X75224943Y-122384691D01*
X75359020Y-122562238D01*
X75523437Y-122712123D01*
X75523439Y-122712125D01*
X75712595Y-122829245D01*
X75712596Y-122829245D01*
X75712599Y-122829247D01*
X75920060Y-122909618D01*
X76138757Y-122950500D01*
X76138759Y-122950500D01*
X76361241Y-122950500D01*
X76361243Y-122950500D01*
X76579940Y-122909618D01*
X76787401Y-122829247D01*
X76976562Y-122712124D01*
X77140981Y-122562236D01*
X77275058Y-122384689D01*
X77374229Y-122185528D01*
X77435115Y-121971536D01*
X77455643Y-121750000D01*
X77435115Y-121528464D01*
X77398563Y-121399997D01*
X84595131Y-121399997D01*
X84595131Y-121400002D01*
X84612498Y-121509658D01*
X84662904Y-121608585D01*
X84662909Y-121608592D01*
X84741407Y-121687090D01*
X84741410Y-121687092D01*
X84741413Y-121687095D01*
X84831576Y-121733035D01*
X84840341Y-121737501D01*
X84949998Y-121754869D01*
X84950000Y-121754869D01*
X84950002Y-121754869D01*
X85024081Y-121743136D01*
X85093374Y-121752091D01*
X85146826Y-121797087D01*
X85153958Y-121809304D01*
X85165503Y-121831962D01*
X85165505Y-121831965D01*
X85165508Y-121831969D01*
X85244006Y-121910467D01*
X85244009Y-121910469D01*
X85244012Y-121910472D01*
X85342938Y-121960877D01*
X85342940Y-121960878D01*
X85452597Y-121978246D01*
X85452599Y-121978246D01*
X85452601Y-121978246D01*
X85562257Y-121960878D01*
X85562258Y-121960877D01*
X85562260Y-121960877D01*
X85661186Y-121910472D01*
X85739694Y-121831964D01*
X85790099Y-121733038D01*
X85790099Y-121733036D01*
X85790100Y-121733035D01*
X85807468Y-121623379D01*
X85807468Y-121623374D01*
X85790100Y-121513718D01*
X85788031Y-121509658D01*
X85739694Y-121414790D01*
X85739691Y-121414787D01*
X85739689Y-121414784D01*
X85661191Y-121336286D01*
X85661187Y-121336283D01*
X85661186Y-121336282D01*
X85618389Y-121314476D01*
X85562257Y-121285875D01*
X85452601Y-121268508D01*
X85452597Y-121268508D01*
X85378518Y-121280241D01*
X85309225Y-121271286D01*
X85255773Y-121226290D01*
X85248640Y-121214072D01*
X85237095Y-121191413D01*
X85237093Y-121191411D01*
X85237090Y-121191407D01*
X85158592Y-121112909D01*
X85158588Y-121112906D01*
X85158587Y-121112905D01*
X85154743Y-121110946D01*
X85059658Y-121062498D01*
X84950002Y-121045131D01*
X84949998Y-121045131D01*
X84840341Y-121062498D01*
X84741414Y-121112904D01*
X84741407Y-121112909D01*
X84662909Y-121191407D01*
X84662904Y-121191414D01*
X84612498Y-121290341D01*
X84595131Y-121399997D01*
X77398563Y-121399997D01*
X77374229Y-121314472D01*
X77373171Y-121312347D01*
X77275061Y-121115316D01*
X77275056Y-121115308D01*
X77140979Y-120937761D01*
X76976562Y-120787876D01*
X76976560Y-120787874D01*
X76787404Y-120670754D01*
X76787398Y-120670752D01*
X76579940Y-120590382D01*
X76361243Y-120549500D01*
X76138757Y-120549500D01*
X75920060Y-120590382D01*
X75788864Y-120641207D01*
X75712601Y-120670752D01*
X75712595Y-120670754D01*
X75523439Y-120787874D01*
X75523437Y-120787876D01*
X75359020Y-120937761D01*
X75224943Y-121115308D01*
X75224938Y-121115316D01*
X75125775Y-121314461D01*
X75125769Y-121314476D01*
X75064885Y-121528462D01*
X75064884Y-121528464D01*
X75044357Y-121749999D01*
X70955643Y-121749999D01*
X70935115Y-121528464D01*
X70874229Y-121314472D01*
X70873171Y-121312347D01*
X70775061Y-121115316D01*
X70775056Y-121115308D01*
X70640979Y-120937761D01*
X70476562Y-120787876D01*
X70476560Y-120787874D01*
X70287404Y-120670754D01*
X70287398Y-120670752D01*
X70079940Y-120590382D01*
X69861243Y-120549500D01*
X69638757Y-120549500D01*
X69420060Y-120590382D01*
X69288864Y-120641207D01*
X69212601Y-120670752D01*
X69212595Y-120670754D01*
X69023439Y-120787874D01*
X69023437Y-120787876D01*
X68859020Y-120937761D01*
X68724943Y-121115308D01*
X68724938Y-121115316D01*
X68625775Y-121314461D01*
X68625769Y-121314476D01*
X68564885Y-121528462D01*
X68564884Y-121528464D01*
X68544357Y-121749999D01*
X66250000Y-121749999D01*
X66250000Y-119049997D01*
X90895131Y-119049997D01*
X90895131Y-119050002D01*
X90912498Y-119159658D01*
X90962904Y-119258585D01*
X90962909Y-119258592D01*
X91041407Y-119337090D01*
X91041410Y-119337092D01*
X91041413Y-119337095D01*
X91140339Y-119387500D01*
X91140341Y-119387501D01*
X91249998Y-119404869D01*
X91250000Y-119404869D01*
X91250002Y-119404869D01*
X91359658Y-119387501D01*
X91359659Y-119387500D01*
X91359661Y-119387500D01*
X91458587Y-119337095D01*
X91537095Y-119258587D01*
X91587500Y-119159661D01*
X91604869Y-119050000D01*
X91604869Y-119049997D01*
X91605069Y-119048736D01*
X91634998Y-118985601D01*
X91694309Y-118948669D01*
X91708144Y-118945660D01*
X91759658Y-118937501D01*
X91759659Y-118937500D01*
X91759661Y-118937500D01*
X91858587Y-118887095D01*
X91937095Y-118808587D01*
X91987500Y-118709661D01*
X91987500Y-118709659D01*
X91987501Y-118709658D01*
X92004869Y-118600002D01*
X92004869Y-118599997D01*
X91989030Y-118499997D01*
X92295131Y-118499997D01*
X92295131Y-118500002D01*
X92312498Y-118609658D01*
X92362904Y-118708585D01*
X92362909Y-118708592D01*
X92441407Y-118787090D01*
X92441410Y-118787092D01*
X92441413Y-118787095D01*
X92483590Y-118808585D01*
X92540341Y-118837501D01*
X92649998Y-118854869D01*
X92650000Y-118854869D01*
X92650002Y-118854869D01*
X92759658Y-118837501D01*
X92759659Y-118837500D01*
X92759661Y-118837500D01*
X92858587Y-118787095D01*
X92937095Y-118708587D01*
X92987500Y-118609661D01*
X92987500Y-118609659D01*
X92987501Y-118609658D01*
X93004869Y-118500002D01*
X93004869Y-118499997D01*
X92987501Y-118390341D01*
X92987500Y-118390339D01*
X92937095Y-118291413D01*
X92937092Y-118291410D01*
X92937090Y-118291407D01*
X92858592Y-118212909D01*
X92858588Y-118212906D01*
X92858587Y-118212905D01*
X92833263Y-118200002D01*
X92759658Y-118162498D01*
X92650002Y-118145131D01*
X92649998Y-118145131D01*
X92540341Y-118162498D01*
X92441414Y-118212904D01*
X92441407Y-118212909D01*
X92362909Y-118291407D01*
X92362904Y-118291414D01*
X92312498Y-118390341D01*
X92295131Y-118499997D01*
X91989030Y-118499997D01*
X91987501Y-118490341D01*
X91985845Y-118487090D01*
X91937095Y-118391413D01*
X91937092Y-118391410D01*
X91937090Y-118391407D01*
X91858592Y-118312909D01*
X91858588Y-118312906D01*
X91858587Y-118312905D01*
X91833263Y-118300002D01*
X91759658Y-118262498D01*
X91650002Y-118245131D01*
X91649998Y-118245131D01*
X91540341Y-118262498D01*
X91441414Y-118312904D01*
X91441407Y-118312909D01*
X91362909Y-118391407D01*
X91362904Y-118391414D01*
X91312498Y-118490341D01*
X91294930Y-118601264D01*
X91265001Y-118664399D01*
X91205689Y-118701330D01*
X91191857Y-118704339D01*
X91140341Y-118712499D01*
X91041414Y-118762904D01*
X91041407Y-118762909D01*
X90962909Y-118841407D01*
X90962904Y-118841414D01*
X90912498Y-118940341D01*
X90895131Y-119049997D01*
X66250000Y-119049997D01*
X66250000Y-118599997D01*
X80045131Y-118599997D01*
X80045131Y-118600002D01*
X80062498Y-118709658D01*
X80112904Y-118808585D01*
X80112909Y-118808592D01*
X80191407Y-118887090D01*
X80191410Y-118887092D01*
X80191413Y-118887095D01*
X80290339Y-118937500D01*
X80290341Y-118937501D01*
X80399998Y-118954869D01*
X80400000Y-118954869D01*
X80400002Y-118954869D01*
X80509658Y-118937501D01*
X80509659Y-118937500D01*
X80509661Y-118937500D01*
X80608587Y-118887095D01*
X80687095Y-118808587D01*
X80737500Y-118709661D01*
X80737500Y-118709659D01*
X80737501Y-118709658D01*
X80754869Y-118600002D01*
X80754869Y-118599997D01*
X80737501Y-118490341D01*
X80735845Y-118487090D01*
X80687095Y-118391413D01*
X80687092Y-118391410D01*
X80687090Y-118391407D01*
X80608592Y-118312909D01*
X80608588Y-118312906D01*
X80608587Y-118312905D01*
X80583263Y-118300002D01*
X80509658Y-118262498D01*
X80400002Y-118245131D01*
X80399998Y-118245131D01*
X80290341Y-118262498D01*
X80191414Y-118312904D01*
X80191407Y-118312909D01*
X80112909Y-118391407D01*
X80112904Y-118391414D01*
X80062498Y-118490341D01*
X80045131Y-118599997D01*
X66250000Y-118599997D01*
X66250000Y-118199997D01*
X87745131Y-118199997D01*
X87745131Y-118200002D01*
X87762498Y-118309658D01*
X87812904Y-118408585D01*
X87812909Y-118408592D01*
X87891407Y-118487090D01*
X87891410Y-118487092D01*
X87891413Y-118487095D01*
X87961569Y-118522841D01*
X87990341Y-118537501D01*
X88099998Y-118554869D01*
X88100000Y-118554869D01*
X88100002Y-118554869D01*
X88209657Y-118537501D01*
X88209658Y-118537500D01*
X88209661Y-118537500D01*
X88283186Y-118500037D01*
X88351851Y-118487141D01*
X88416592Y-118513417D01*
X88427150Y-118522832D01*
X88491413Y-118587095D01*
X88535696Y-118609658D01*
X88590341Y-118637501D01*
X88699998Y-118654869D01*
X88700000Y-118654869D01*
X88700002Y-118654869D01*
X88809658Y-118637501D01*
X88809659Y-118637500D01*
X88809661Y-118637500D01*
X88908587Y-118587095D01*
X88987095Y-118508587D01*
X89037500Y-118409661D01*
X89037500Y-118409659D01*
X89037501Y-118409658D01*
X89054869Y-118300002D01*
X89054869Y-118299997D01*
X89037501Y-118190341D01*
X89023314Y-118162498D01*
X88987095Y-118091413D01*
X88987092Y-118091410D01*
X88987090Y-118091407D01*
X88908592Y-118012909D01*
X88908588Y-118012906D01*
X88908587Y-118012905D01*
X88883185Y-117999962D01*
X88809658Y-117962498D01*
X88700002Y-117945131D01*
X88699998Y-117945131D01*
X88590341Y-117962498D01*
X88516812Y-117999962D01*
X88448143Y-118012857D01*
X88383403Y-117986579D01*
X88372847Y-117977165D01*
X88308587Y-117912905D01*
X88304743Y-117910946D01*
X88209658Y-117862498D01*
X88100002Y-117845131D01*
X88099998Y-117845131D01*
X87990341Y-117862498D01*
X87891414Y-117912904D01*
X87891407Y-117912909D01*
X87812909Y-117991407D01*
X87812904Y-117991414D01*
X87762498Y-118090341D01*
X87745131Y-118199997D01*
X66250000Y-118199997D01*
X66250000Y-113799997D01*
X83345131Y-113799997D01*
X83345131Y-113800002D01*
X83362498Y-113909658D01*
X83412904Y-114008585D01*
X83412909Y-114008592D01*
X83491407Y-114087090D01*
X83491410Y-114087092D01*
X83491413Y-114087095D01*
X83590339Y-114137500D01*
X83590341Y-114137501D01*
X83699998Y-114154869D01*
X83700000Y-114154869D01*
X83700002Y-114154869D01*
X83809658Y-114137501D01*
X83809659Y-114137500D01*
X83809661Y-114137500D01*
X83908587Y-114087095D01*
X83987095Y-114008587D01*
X84037500Y-113909661D01*
X84037500Y-113909659D01*
X84037501Y-113909658D01*
X84054869Y-113800002D01*
X84054869Y-113799997D01*
X84037501Y-113690341D01*
X84037500Y-113690339D01*
X83987095Y-113591413D01*
X83987092Y-113591410D01*
X83987090Y-113591407D01*
X83908592Y-113512909D01*
X83908588Y-113512906D01*
X83908587Y-113512905D01*
X83904743Y-113510946D01*
X83809658Y-113462498D01*
X83700002Y-113445131D01*
X83699998Y-113445131D01*
X83590341Y-113462498D01*
X83491414Y-113512904D01*
X83491407Y-113512909D01*
X83412909Y-113591407D01*
X83412904Y-113591414D01*
X83362498Y-113690341D01*
X83345131Y-113799997D01*
X66250000Y-113799997D01*
X66250000Y-112999997D01*
X87945128Y-112999997D01*
X87945128Y-113000002D01*
X87962495Y-113109658D01*
X88012901Y-113208585D01*
X88012906Y-113208592D01*
X88091404Y-113287090D01*
X88091407Y-113287092D01*
X88091410Y-113287095D01*
X88190336Y-113337500D01*
X88190338Y-113337501D01*
X88299995Y-113354869D01*
X88299997Y-113354869D01*
X88299999Y-113354869D01*
X88409655Y-113337501D01*
X88409656Y-113337500D01*
X88409658Y-113337500D01*
X88508584Y-113287095D01*
X88562318Y-113233360D01*
X88623639Y-113199877D01*
X88693331Y-113204861D01*
X88737679Y-113233362D01*
X88791407Y-113287090D01*
X88791410Y-113287092D01*
X88791413Y-113287095D01*
X88890339Y-113337500D01*
X88890341Y-113337501D01*
X88999998Y-113354869D01*
X89000000Y-113354869D01*
X89000002Y-113354869D01*
X89109658Y-113337501D01*
X89109659Y-113337500D01*
X89109661Y-113337500D01*
X89208587Y-113287095D01*
X89287095Y-113208587D01*
X89337500Y-113109661D01*
X89337500Y-113109659D01*
X89337501Y-113109658D01*
X89354869Y-113000002D01*
X89354869Y-112999997D01*
X89337501Y-112890341D01*
X89288992Y-112795137D01*
X89287095Y-112791413D01*
X89287092Y-112791410D01*
X89287090Y-112791407D01*
X89208592Y-112712909D01*
X89208588Y-112712906D01*
X89208587Y-112712905D01*
X89204743Y-112710946D01*
X89109658Y-112662498D01*
X89000002Y-112645131D01*
X88999998Y-112645131D01*
X88890341Y-112662498D01*
X88791414Y-112712904D01*
X88791410Y-112712906D01*
X88737679Y-112766638D01*
X88676355Y-112800122D01*
X88606663Y-112795137D01*
X88562317Y-112766637D01*
X88508589Y-112712909D01*
X88508585Y-112712906D01*
X88508584Y-112712905D01*
X88504740Y-112710946D01*
X88409655Y-112662498D01*
X88299999Y-112645131D01*
X88299995Y-112645131D01*
X88190338Y-112662498D01*
X88091411Y-112712904D01*
X88091404Y-112712909D01*
X88012906Y-112791407D01*
X88012901Y-112791414D01*
X87962495Y-112890341D01*
X87945128Y-112999997D01*
X66250000Y-112999997D01*
X66250000Y-107999997D01*
X80045131Y-107999997D01*
X80045131Y-108000002D01*
X80062498Y-108109658D01*
X80112904Y-108208585D01*
X80112909Y-108208592D01*
X80191407Y-108287090D01*
X80191410Y-108287092D01*
X80191413Y-108287095D01*
X80233590Y-108308585D01*
X80290341Y-108337501D01*
X80399998Y-108354869D01*
X80400000Y-108354869D01*
X80400002Y-108354869D01*
X80509658Y-108337501D01*
X80509659Y-108337500D01*
X80509661Y-108337500D01*
X80608587Y-108287095D01*
X80665415Y-108230267D01*
X82123284Y-108230267D01*
X82282053Y-108285823D01*
X82282058Y-108285824D01*
X82449996Y-108304746D01*
X82450004Y-108304746D01*
X82617938Y-108285824D01*
X82617943Y-108285823D01*
X82776713Y-108230267D01*
X82776714Y-108230267D01*
X83398284Y-108230267D01*
X83557053Y-108285823D01*
X83557058Y-108285824D01*
X83724996Y-108304746D01*
X83725004Y-108304746D01*
X83892938Y-108285824D01*
X83892943Y-108285823D01*
X84051713Y-108230267D01*
X84051714Y-108230267D01*
X84673284Y-108230267D01*
X84832053Y-108285823D01*
X84832058Y-108285824D01*
X84999996Y-108304746D01*
X85000004Y-108304746D01*
X85167938Y-108285824D01*
X85167943Y-108285823D01*
X85326713Y-108230267D01*
X85326714Y-108230267D01*
X85948284Y-108230267D01*
X86107053Y-108285823D01*
X86107058Y-108285824D01*
X86274996Y-108304746D01*
X86275004Y-108304746D01*
X86442938Y-108285824D01*
X86442943Y-108285823D01*
X86601713Y-108230267D01*
X86601714Y-108230267D01*
X87223284Y-108230267D01*
X87382053Y-108285823D01*
X87382058Y-108285824D01*
X87549996Y-108304746D01*
X87550004Y-108304746D01*
X87717938Y-108285824D01*
X87717943Y-108285823D01*
X87876713Y-108230267D01*
X87876714Y-108230267D01*
X87550001Y-107903554D01*
X87550000Y-107903554D01*
X87223284Y-108230267D01*
X86601714Y-108230267D01*
X86275001Y-107903554D01*
X86275000Y-107903554D01*
X85948284Y-108230267D01*
X85326714Y-108230267D01*
X85000001Y-107903554D01*
X85000000Y-107903554D01*
X84673284Y-108230267D01*
X84051714Y-108230267D01*
X83725001Y-107903554D01*
X83725000Y-107903554D01*
X83398284Y-108230267D01*
X82776714Y-108230267D01*
X82450001Y-107903554D01*
X82450000Y-107903554D01*
X82123284Y-108230267D01*
X80665415Y-108230267D01*
X80687095Y-108208587D01*
X80737500Y-108109661D01*
X80737500Y-108109659D01*
X80737501Y-108109658D01*
X80754869Y-108000002D01*
X80754869Y-107999999D01*
X80749238Y-107964450D01*
X80758192Y-107895157D01*
X80803187Y-107841704D01*
X80815400Y-107834575D01*
X80908587Y-107787095D01*
X80987095Y-107708587D01*
X81037500Y-107609661D01*
X81037500Y-107609659D01*
X81037501Y-107609658D01*
X81046951Y-107549996D01*
X81695254Y-107549996D01*
X81695254Y-107550003D01*
X81714176Y-107717944D01*
X81769731Y-107876713D01*
X82096446Y-107550000D01*
X82066609Y-107520163D01*
X82300000Y-107520163D01*
X82300000Y-107579837D01*
X82322836Y-107634968D01*
X82365032Y-107677164D01*
X82420163Y-107700000D01*
X82479837Y-107700000D01*
X82534968Y-107677164D01*
X82577164Y-107634968D01*
X82600000Y-107579837D01*
X82600000Y-107550000D01*
X82803554Y-107550000D01*
X83087500Y-107833946D01*
X83371446Y-107550000D01*
X83341609Y-107520163D01*
X83575000Y-107520163D01*
X83575000Y-107579837D01*
X83597836Y-107634968D01*
X83640032Y-107677164D01*
X83695163Y-107700000D01*
X83754837Y-107700000D01*
X83809968Y-107677164D01*
X83852164Y-107634968D01*
X83875000Y-107579837D01*
X83875000Y-107550000D01*
X84078554Y-107550000D01*
X84362500Y-107833946D01*
X84646446Y-107550000D01*
X84616609Y-107520163D01*
X84850000Y-107520163D01*
X84850000Y-107579837D01*
X84872836Y-107634968D01*
X84915032Y-107677164D01*
X84970163Y-107700000D01*
X85029837Y-107700000D01*
X85084968Y-107677164D01*
X85127164Y-107634968D01*
X85150000Y-107579837D01*
X85150000Y-107550000D01*
X85353554Y-107550000D01*
X85637500Y-107833946D01*
X85921446Y-107550000D01*
X85891609Y-107520163D01*
X86125000Y-107520163D01*
X86125000Y-107579837D01*
X86147836Y-107634968D01*
X86190032Y-107677164D01*
X86245163Y-107700000D01*
X86304837Y-107700000D01*
X86359968Y-107677164D01*
X86402164Y-107634968D01*
X86425000Y-107579837D01*
X86425000Y-107550000D01*
X86628554Y-107550000D01*
X86912500Y-107833946D01*
X87196446Y-107550000D01*
X87166609Y-107520163D01*
X87400000Y-107520163D01*
X87400000Y-107579837D01*
X87422836Y-107634968D01*
X87465032Y-107677164D01*
X87520163Y-107700000D01*
X87579837Y-107700000D01*
X87634968Y-107677164D01*
X87677164Y-107634968D01*
X87700000Y-107579837D01*
X87700000Y-107549999D01*
X87903554Y-107549999D01*
X87903554Y-107550001D01*
X88230267Y-107876714D01*
X88230267Y-107876713D01*
X88285823Y-107717943D01*
X88285824Y-107717938D01*
X88304746Y-107550003D01*
X88304746Y-107549996D01*
X88285824Y-107382058D01*
X88285823Y-107382053D01*
X88239614Y-107249997D01*
X88707631Y-107249997D01*
X88707631Y-107250002D01*
X88724998Y-107359658D01*
X88775404Y-107458585D01*
X88775409Y-107458592D01*
X88853907Y-107537090D01*
X88853910Y-107537092D01*
X88853913Y-107537095D01*
X88952839Y-107587500D01*
X88952840Y-107587500D01*
X88952842Y-107587501D01*
X88962125Y-107590518D01*
X88960907Y-107594263D01*
X89006652Y-107615931D01*
X89043603Y-107675230D01*
X89042628Y-107745093D01*
X89004038Y-107803339D01*
X88997033Y-107808822D01*
X88991409Y-107812907D01*
X88912909Y-107891407D01*
X88912904Y-107891414D01*
X88862498Y-107990341D01*
X88845131Y-108099997D01*
X88845131Y-108100002D01*
X88862498Y-108209658D01*
X88872902Y-108230076D01*
X88912904Y-108308586D01*
X88912909Y-108308592D01*
X88991407Y-108387090D01*
X88991410Y-108387092D01*
X88991413Y-108387095D01*
X89016741Y-108400000D01*
X89090341Y-108437501D01*
X89199998Y-108454869D01*
X89200000Y-108454869D01*
X89200002Y-108454869D01*
X89309658Y-108437501D01*
X89309659Y-108437500D01*
X89309661Y-108437500D01*
X89383267Y-108399996D01*
X89745131Y-108399996D01*
X89745131Y-108400002D01*
X89762498Y-108509658D01*
X89812904Y-108608585D01*
X89812909Y-108608592D01*
X89891407Y-108687090D01*
X89891410Y-108687092D01*
X89891413Y-108687095D01*
X89990339Y-108737500D01*
X89990341Y-108737501D01*
X90099998Y-108754869D01*
X90100000Y-108754869D01*
X90100002Y-108754869D01*
X90209658Y-108737501D01*
X90209659Y-108737500D01*
X90209661Y-108737500D01*
X90308587Y-108687095D01*
X90387095Y-108608587D01*
X90437500Y-108509661D01*
X90437500Y-108509659D01*
X90437501Y-108509658D01*
X90454869Y-108400002D01*
X90454869Y-108399997D01*
X90437501Y-108290341D01*
X90435256Y-108285935D01*
X90387095Y-108191413D01*
X90387092Y-108191410D01*
X90387090Y-108191407D01*
X90308592Y-108112909D01*
X90308588Y-108112906D01*
X90308587Y-108112905D01*
X90283263Y-108100002D01*
X90209658Y-108062498D01*
X90100002Y-108045131D01*
X90099998Y-108045131D01*
X89990341Y-108062498D01*
X89891414Y-108112904D01*
X89891407Y-108112909D01*
X89812909Y-108191407D01*
X89812906Y-108191412D01*
X89812905Y-108191413D01*
X89793108Y-108230267D01*
X89772902Y-108269924D01*
X89757779Y-108285935D01*
X89760055Y-108305767D01*
X89745131Y-108399996D01*
X89383267Y-108399996D01*
X89408587Y-108387095D01*
X89487095Y-108308587D01*
X89527099Y-108230073D01*
X89542219Y-108214063D01*
X89539944Y-108194230D01*
X89554869Y-108100000D01*
X89554869Y-108099997D01*
X89537501Y-107990341D01*
X89493281Y-107903554D01*
X89487095Y-107891413D01*
X89487092Y-107891410D01*
X89487090Y-107891407D01*
X89408592Y-107812909D01*
X89408588Y-107812906D01*
X89408587Y-107812905D01*
X89309661Y-107762500D01*
X89309660Y-107762499D01*
X89309657Y-107762498D01*
X89300375Y-107759482D01*
X89301580Y-107755771D01*
X89255629Y-107733874D01*
X89218818Y-107674488D01*
X89219957Y-107604627D01*
X89258685Y-107546473D01*
X89265474Y-107541171D01*
X89271076Y-107537100D01*
X89271087Y-107537095D01*
X89349595Y-107458587D01*
X89400000Y-107359661D01*
X89400000Y-107359659D01*
X89400001Y-107359658D01*
X89417369Y-107250002D01*
X89417369Y-107249997D01*
X89400001Y-107140341D01*
X89373077Y-107087500D01*
X89349595Y-107041413D01*
X89349592Y-107041410D01*
X89349590Y-107041407D01*
X89271092Y-106962909D01*
X89271088Y-106962906D01*
X89271087Y-106962905D01*
X89262612Y-106958587D01*
X89172158Y-106912498D01*
X89062502Y-106895131D01*
X89062498Y-106895131D01*
X88952841Y-106912498D01*
X88853914Y-106962904D01*
X88853907Y-106962909D01*
X88775409Y-107041407D01*
X88775404Y-107041414D01*
X88724998Y-107140341D01*
X88707631Y-107249997D01*
X88239614Y-107249997D01*
X88230267Y-107223285D01*
X88230267Y-107223284D01*
X87903554Y-107549999D01*
X87700000Y-107549999D01*
X87700000Y-107520163D01*
X87677164Y-107465032D01*
X87634968Y-107422836D01*
X87579837Y-107400000D01*
X87520163Y-107400000D01*
X87465032Y-107422836D01*
X87422836Y-107465032D01*
X87400000Y-107520163D01*
X87166609Y-107520163D01*
X86912500Y-107266054D01*
X86628554Y-107550000D01*
X86425000Y-107550000D01*
X86425000Y-107520163D01*
X86402164Y-107465032D01*
X86359968Y-107422836D01*
X86304837Y-107400000D01*
X86245163Y-107400000D01*
X86190032Y-107422836D01*
X86147836Y-107465032D01*
X86125000Y-107520163D01*
X85891609Y-107520163D01*
X85637500Y-107266054D01*
X85353554Y-107550000D01*
X85150000Y-107550000D01*
X85150000Y-107520163D01*
X85127164Y-107465032D01*
X85084968Y-107422836D01*
X85029837Y-107400000D01*
X84970163Y-107400000D01*
X84915032Y-107422836D01*
X84872836Y-107465032D01*
X84850000Y-107520163D01*
X84616609Y-107520163D01*
X84362500Y-107266054D01*
X84078554Y-107550000D01*
X83875000Y-107550000D01*
X83875000Y-107520163D01*
X83852164Y-107465032D01*
X83809968Y-107422836D01*
X83754837Y-107400000D01*
X83695163Y-107400000D01*
X83640032Y-107422836D01*
X83597836Y-107465032D01*
X83575000Y-107520163D01*
X83341609Y-107520163D01*
X83087500Y-107266054D01*
X82803554Y-107550000D01*
X82600000Y-107550000D01*
X82600000Y-107520163D01*
X82577164Y-107465032D01*
X82534968Y-107422836D01*
X82479837Y-107400000D01*
X82420163Y-107400000D01*
X82365032Y-107422836D01*
X82322836Y-107465032D01*
X82300000Y-107520163D01*
X82066609Y-107520163D01*
X81769731Y-107223285D01*
X81714176Y-107382055D01*
X81695254Y-107549996D01*
X81046951Y-107549996D01*
X81054869Y-107500002D01*
X81054869Y-107499997D01*
X81037501Y-107390341D01*
X81021867Y-107359658D01*
X80987095Y-107291413D01*
X80987092Y-107291410D01*
X80987090Y-107291407D01*
X80908592Y-107212909D01*
X80908588Y-107212906D01*
X80908587Y-107212905D01*
X80876284Y-107196446D01*
X80809658Y-107162498D01*
X80700002Y-107145131D01*
X80699998Y-107145131D01*
X80590341Y-107162498D01*
X80491414Y-107212904D01*
X80491407Y-107212909D01*
X80412909Y-107291407D01*
X80412904Y-107291414D01*
X80362498Y-107390341D01*
X80345131Y-107499997D01*
X80345131Y-107500003D01*
X80350761Y-107535551D01*
X80341806Y-107604844D01*
X80296810Y-107658296D01*
X80284585Y-107665431D01*
X80191413Y-107712905D01*
X80191412Y-107712906D01*
X80191407Y-107712909D01*
X80112909Y-107791407D01*
X80112904Y-107791414D01*
X80062498Y-107890341D01*
X80045131Y-107999997D01*
X66250000Y-107999997D01*
X66250000Y-106912500D01*
X82166054Y-106912500D01*
X82450000Y-107196446D01*
X82733946Y-106912500D01*
X83441054Y-106912500D01*
X83725000Y-107196446D01*
X84008946Y-106912500D01*
X84716054Y-106912500D01*
X85000000Y-107196446D01*
X85283946Y-106912500D01*
X85991054Y-106912500D01*
X86275000Y-107196446D01*
X86558946Y-106912500D01*
X87266054Y-106912500D01*
X87550000Y-107196446D01*
X87833946Y-106912500D01*
X87671443Y-106749997D01*
X89632631Y-106749997D01*
X89632631Y-106750002D01*
X89649998Y-106859658D01*
X89700404Y-106958585D01*
X89700409Y-106958592D01*
X89778907Y-107037090D01*
X89778910Y-107037092D01*
X89778913Y-107037095D01*
X89787390Y-107041414D01*
X89877841Y-107087501D01*
X89987498Y-107104869D01*
X89987500Y-107104869D01*
X89987502Y-107104869D01*
X90097158Y-107087501D01*
X90097159Y-107087500D01*
X90097161Y-107087500D01*
X90196087Y-107037095D01*
X90274595Y-106958587D01*
X90325000Y-106859661D01*
X90325000Y-106859659D01*
X90325001Y-106859658D01*
X90342369Y-106750002D01*
X90342369Y-106749997D01*
X90325001Y-106640341D01*
X90318995Y-106628554D01*
X90274595Y-106541413D01*
X90274592Y-106541410D01*
X90274590Y-106541407D01*
X90196092Y-106462909D01*
X90196088Y-106462906D01*
X90196087Y-106462905D01*
X90156909Y-106442943D01*
X90097158Y-106412498D01*
X89987502Y-106395131D01*
X89987498Y-106395131D01*
X89877841Y-106412498D01*
X89778914Y-106462904D01*
X89778907Y-106462909D01*
X89700409Y-106541407D01*
X89700404Y-106541414D01*
X89649998Y-106640341D01*
X89632631Y-106749997D01*
X87671443Y-106749997D01*
X87550000Y-106628554D01*
X87266054Y-106912500D01*
X86558946Y-106912500D01*
X86275000Y-106628554D01*
X85991054Y-106912500D01*
X85283946Y-106912500D01*
X85000000Y-106628554D01*
X84716054Y-106912500D01*
X84008946Y-106912500D01*
X83725000Y-106628554D01*
X83441054Y-106912500D01*
X82733946Y-106912500D01*
X82450000Y-106628554D01*
X82166054Y-106912500D01*
X66250000Y-106912500D01*
X66250000Y-106274996D01*
X81695254Y-106274996D01*
X81695254Y-106275003D01*
X81714176Y-106442944D01*
X81769731Y-106601713D01*
X82096446Y-106275000D01*
X82066609Y-106245163D01*
X82300000Y-106245163D01*
X82300000Y-106304837D01*
X82322836Y-106359968D01*
X82365032Y-106402164D01*
X82420163Y-106425000D01*
X82479837Y-106425000D01*
X82534968Y-106402164D01*
X82577164Y-106359968D01*
X82600000Y-106304837D01*
X82600000Y-106275000D01*
X82803554Y-106275000D01*
X83087500Y-106558946D01*
X83371446Y-106275000D01*
X83341609Y-106245163D01*
X83575000Y-106245163D01*
X83575000Y-106304837D01*
X83597836Y-106359968D01*
X83640032Y-106402164D01*
X83695163Y-106425000D01*
X83754837Y-106425000D01*
X83809968Y-106402164D01*
X83852164Y-106359968D01*
X83875000Y-106304837D01*
X83875000Y-106275000D01*
X84078554Y-106275000D01*
X84362500Y-106558946D01*
X84646446Y-106275000D01*
X84616609Y-106245163D01*
X84850000Y-106245163D01*
X84850000Y-106304837D01*
X84872836Y-106359968D01*
X84915032Y-106402164D01*
X84970163Y-106425000D01*
X85029837Y-106425000D01*
X85084968Y-106402164D01*
X85127164Y-106359968D01*
X85150000Y-106304837D01*
X85150000Y-106275000D01*
X85353554Y-106275000D01*
X85637500Y-106558946D01*
X85921446Y-106275000D01*
X85891609Y-106245163D01*
X86125000Y-106245163D01*
X86125000Y-106304837D01*
X86147836Y-106359968D01*
X86190032Y-106402164D01*
X86245163Y-106425000D01*
X86304837Y-106425000D01*
X86359968Y-106402164D01*
X86402164Y-106359968D01*
X86425000Y-106304837D01*
X86425000Y-106275000D01*
X86628554Y-106275000D01*
X86912500Y-106558946D01*
X87196446Y-106275000D01*
X87166609Y-106245163D01*
X87400000Y-106245163D01*
X87400000Y-106304837D01*
X87422836Y-106359968D01*
X87465032Y-106402164D01*
X87520163Y-106425000D01*
X87579837Y-106425000D01*
X87634968Y-106402164D01*
X87677164Y-106359968D01*
X87700000Y-106304837D01*
X87700000Y-106274999D01*
X87903554Y-106274999D01*
X87903554Y-106275001D01*
X88230267Y-106601714D01*
X88230267Y-106601713D01*
X88285823Y-106442943D01*
X88285824Y-106442938D01*
X88304746Y-106275003D01*
X88304746Y-106274996D01*
X88285824Y-106107058D01*
X88285823Y-106107053D01*
X88230267Y-105948285D01*
X88230267Y-105948284D01*
X87903554Y-106274999D01*
X87700000Y-106274999D01*
X87700000Y-106245163D01*
X87677164Y-106190032D01*
X87634968Y-106147836D01*
X87579837Y-106125000D01*
X87520163Y-106125000D01*
X87465032Y-106147836D01*
X87422836Y-106190032D01*
X87400000Y-106245163D01*
X87166609Y-106245163D01*
X86912500Y-105991054D01*
X86628554Y-106275000D01*
X86425000Y-106275000D01*
X86425000Y-106245163D01*
X86402164Y-106190032D01*
X86359968Y-106147836D01*
X86304837Y-106125000D01*
X86245163Y-106125000D01*
X86190032Y-106147836D01*
X86147836Y-106190032D01*
X86125000Y-106245163D01*
X85891609Y-106245163D01*
X85637500Y-105991054D01*
X85353554Y-106275000D01*
X85150000Y-106275000D01*
X85150000Y-106245163D01*
X85127164Y-106190032D01*
X85084968Y-106147836D01*
X85029837Y-106125000D01*
X84970163Y-106125000D01*
X84915032Y-106147836D01*
X84872836Y-106190032D01*
X84850000Y-106245163D01*
X84616609Y-106245163D01*
X84362500Y-105991054D01*
X84078554Y-106275000D01*
X83875000Y-106275000D01*
X83875000Y-106245163D01*
X83852164Y-106190032D01*
X83809968Y-106147836D01*
X83754837Y-106125000D01*
X83695163Y-106125000D01*
X83640032Y-106147836D01*
X83597836Y-106190032D01*
X83575000Y-106245163D01*
X83341609Y-106245163D01*
X83087500Y-105991054D01*
X82803554Y-106275000D01*
X82600000Y-106275000D01*
X82600000Y-106245163D01*
X82577164Y-106190032D01*
X82534968Y-106147836D01*
X82479837Y-106125000D01*
X82420163Y-106125000D01*
X82365032Y-106147836D01*
X82322836Y-106190032D01*
X82300000Y-106245163D01*
X82066609Y-106245163D01*
X81769731Y-105948285D01*
X81714176Y-106107055D01*
X81695254Y-106274996D01*
X66250000Y-106274996D01*
X66250000Y-105637500D01*
X82166054Y-105637500D01*
X82450000Y-105921446D01*
X82733946Y-105637500D01*
X83441054Y-105637500D01*
X83725000Y-105921446D01*
X84008946Y-105637500D01*
X84716054Y-105637500D01*
X85000000Y-105921446D01*
X85283946Y-105637500D01*
X85991054Y-105637500D01*
X86275000Y-105921446D01*
X86558946Y-105637500D01*
X87266054Y-105637500D01*
X87550000Y-105921446D01*
X87721449Y-105749997D01*
X89645131Y-105749997D01*
X89645131Y-105750002D01*
X89662498Y-105859658D01*
X89712904Y-105958585D01*
X89712909Y-105958592D01*
X89791407Y-106037090D01*
X89791410Y-106037092D01*
X89791413Y-106037095D01*
X89890339Y-106087500D01*
X89890341Y-106087501D01*
X89999998Y-106104869D01*
X90000000Y-106104869D01*
X90000002Y-106104869D01*
X90109658Y-106087501D01*
X90109659Y-106087500D01*
X90109661Y-106087500D01*
X90208587Y-106037095D01*
X90287095Y-105958587D01*
X90337500Y-105859661D01*
X90337500Y-105859659D01*
X90337501Y-105859658D01*
X90354869Y-105750002D01*
X90354869Y-105749997D01*
X90337501Y-105640341D01*
X90310577Y-105587500D01*
X90287095Y-105541413D01*
X90287092Y-105541410D01*
X90287090Y-105541407D01*
X90208592Y-105462909D01*
X90208588Y-105462906D01*
X90208587Y-105462905D01*
X90200112Y-105458587D01*
X90109658Y-105412498D01*
X90000002Y-105395131D01*
X89999998Y-105395131D01*
X89890341Y-105412498D01*
X89791414Y-105462904D01*
X89791407Y-105462909D01*
X89712909Y-105541407D01*
X89712904Y-105541414D01*
X89662498Y-105640341D01*
X89645131Y-105749997D01*
X87721449Y-105749997D01*
X87833946Y-105637500D01*
X87550000Y-105353554D01*
X87266054Y-105637500D01*
X86558946Y-105637500D01*
X86275000Y-105353554D01*
X85991054Y-105637500D01*
X85283946Y-105637500D01*
X85000000Y-105353554D01*
X84716054Y-105637500D01*
X84008946Y-105637500D01*
X83725000Y-105353554D01*
X83441054Y-105637500D01*
X82733946Y-105637500D01*
X82450000Y-105353554D01*
X82166054Y-105637500D01*
X66250000Y-105637500D01*
X66250000Y-104799997D01*
X80145131Y-104799997D01*
X80145131Y-104800002D01*
X80162498Y-104909658D01*
X80212904Y-105008585D01*
X80212909Y-105008592D01*
X80291407Y-105087090D01*
X80291410Y-105087092D01*
X80291413Y-105087095D01*
X80390339Y-105137500D01*
X80390341Y-105137501D01*
X80499998Y-105154869D01*
X80500000Y-105154869D01*
X80500002Y-105154869D01*
X80609658Y-105137501D01*
X80609659Y-105137500D01*
X80609661Y-105137500D01*
X80708587Y-105087095D01*
X80787095Y-105008587D01*
X80791472Y-104999996D01*
X81695254Y-104999996D01*
X81695254Y-105000003D01*
X81714176Y-105167944D01*
X81769731Y-105326713D01*
X82096446Y-105000000D01*
X82066609Y-104970163D01*
X82300000Y-104970163D01*
X82300000Y-105029837D01*
X82322836Y-105084968D01*
X82365032Y-105127164D01*
X82420163Y-105150000D01*
X82479837Y-105150000D01*
X82534968Y-105127164D01*
X82577164Y-105084968D01*
X82600000Y-105029837D01*
X82600000Y-105000000D01*
X82803554Y-105000000D01*
X83087500Y-105283946D01*
X83371446Y-105000000D01*
X83341609Y-104970163D01*
X83575000Y-104970163D01*
X83575000Y-105029837D01*
X83597836Y-105084968D01*
X83640032Y-105127164D01*
X83695163Y-105150000D01*
X83754837Y-105150000D01*
X83809968Y-105127164D01*
X83852164Y-105084968D01*
X83875000Y-105029837D01*
X83875000Y-105000000D01*
X84078554Y-105000000D01*
X84362500Y-105283946D01*
X84646446Y-105000000D01*
X84616609Y-104970163D01*
X84850000Y-104970163D01*
X84850000Y-105029837D01*
X84872836Y-105084968D01*
X84915032Y-105127164D01*
X84970163Y-105150000D01*
X85029837Y-105150000D01*
X85084968Y-105127164D01*
X85127164Y-105084968D01*
X85150000Y-105029837D01*
X85150000Y-105000000D01*
X85353554Y-105000000D01*
X85637500Y-105283946D01*
X85921446Y-105000000D01*
X85891609Y-104970163D01*
X86125000Y-104970163D01*
X86125000Y-105029837D01*
X86147836Y-105084968D01*
X86190032Y-105127164D01*
X86245163Y-105150000D01*
X86304837Y-105150000D01*
X86359968Y-105127164D01*
X86402164Y-105084968D01*
X86425000Y-105029837D01*
X86425000Y-105000000D01*
X86628554Y-105000000D01*
X86912500Y-105283946D01*
X87196446Y-105000000D01*
X87166609Y-104970163D01*
X87400000Y-104970163D01*
X87400000Y-105029837D01*
X87422836Y-105084968D01*
X87465032Y-105127164D01*
X87520163Y-105150000D01*
X87579837Y-105150000D01*
X87634968Y-105127164D01*
X87677164Y-105084968D01*
X87700000Y-105029837D01*
X87700000Y-104999999D01*
X87903554Y-104999999D01*
X87903554Y-105000001D01*
X88230267Y-105326714D01*
X88230267Y-105326713D01*
X88257111Y-105249997D01*
X88695131Y-105249997D01*
X88695131Y-105250002D01*
X88712498Y-105359658D01*
X88762904Y-105458585D01*
X88762909Y-105458592D01*
X88841407Y-105537090D01*
X88841410Y-105537092D01*
X88841413Y-105537095D01*
X88849890Y-105541414D01*
X88940341Y-105587501D01*
X89049998Y-105604869D01*
X89050000Y-105604869D01*
X89050002Y-105604869D01*
X89159658Y-105587501D01*
X89159659Y-105587500D01*
X89159661Y-105587500D01*
X89258587Y-105537095D01*
X89337095Y-105458587D01*
X89387500Y-105359661D01*
X89387500Y-105359659D01*
X89387501Y-105359658D01*
X89404869Y-105250002D01*
X89404869Y-105249999D01*
X89390747Y-105160840D01*
X89399701Y-105091546D01*
X89444697Y-105038094D01*
X89493819Y-105018968D01*
X89534661Y-105012500D01*
X89633587Y-104962095D01*
X89712095Y-104883587D01*
X89762500Y-104784661D01*
X89762500Y-104784659D01*
X89762501Y-104784658D01*
X89779869Y-104675002D01*
X89779869Y-104674997D01*
X89762501Y-104565341D01*
X89748109Y-104537095D01*
X89712095Y-104466413D01*
X89712092Y-104466410D01*
X89712090Y-104466407D01*
X89633592Y-104387909D01*
X89633588Y-104387906D01*
X89633587Y-104387905D01*
X89534661Y-104337500D01*
X89534659Y-104337499D01*
X89534656Y-104337498D01*
X89529657Y-104336706D01*
X89466524Y-104306773D01*
X89429596Y-104247459D01*
X89430598Y-104177597D01*
X89469211Y-104119366D01*
X89476185Y-104113910D01*
X89483571Y-104108543D01*
X89483578Y-104108540D01*
X89562086Y-104030032D01*
X89612491Y-103931106D01*
X89612491Y-103931104D01*
X89612492Y-103931103D01*
X89629860Y-103821447D01*
X89629860Y-103821442D01*
X89612492Y-103711786D01*
X89599909Y-103687090D01*
X89562086Y-103612858D01*
X89562083Y-103612855D01*
X89562081Y-103612852D01*
X89483583Y-103534354D01*
X89483579Y-103534351D01*
X89483578Y-103534350D01*
X89435117Y-103509658D01*
X89384649Y-103483943D01*
X89274993Y-103466576D01*
X89274989Y-103466576D01*
X89165332Y-103483943D01*
X89066405Y-103534349D01*
X89066398Y-103534354D01*
X88987900Y-103612852D01*
X88987895Y-103612859D01*
X88937489Y-103711786D01*
X88920122Y-103821442D01*
X88920122Y-103821447D01*
X88937489Y-103931103D01*
X88987895Y-104030030D01*
X88987900Y-104030037D01*
X89066398Y-104108535D01*
X89066401Y-104108537D01*
X89066404Y-104108540D01*
X89165330Y-104158945D01*
X89165331Y-104158945D01*
X89165333Y-104158946D01*
X89165331Y-104158946D01*
X89170326Y-104159737D01*
X89233461Y-104189666D01*
X89270392Y-104248978D01*
X89269394Y-104318841D01*
X89230784Y-104377073D01*
X89223813Y-104382529D01*
X89216408Y-104387908D01*
X89137909Y-104466407D01*
X89137904Y-104466414D01*
X89087498Y-104565341D01*
X89070131Y-104674997D01*
X89070131Y-104675002D01*
X89084252Y-104764160D01*
X89075297Y-104833454D01*
X89030301Y-104886906D01*
X88981177Y-104906031D01*
X88940341Y-104912498D01*
X88841414Y-104962904D01*
X88841407Y-104962909D01*
X88762909Y-105041407D01*
X88762904Y-105041414D01*
X88712498Y-105140341D01*
X88695131Y-105249997D01*
X88257111Y-105249997D01*
X88285823Y-105167943D01*
X88285824Y-105167938D01*
X88304746Y-105000003D01*
X88304746Y-104999996D01*
X88285824Y-104832058D01*
X88285823Y-104832053D01*
X88230267Y-104673285D01*
X88230267Y-104673284D01*
X87903554Y-104999999D01*
X87700000Y-104999999D01*
X87700000Y-104970163D01*
X87677164Y-104915032D01*
X87634968Y-104872836D01*
X87579837Y-104850000D01*
X87520163Y-104850000D01*
X87465032Y-104872836D01*
X87422836Y-104915032D01*
X87400000Y-104970163D01*
X87166609Y-104970163D01*
X86912500Y-104716054D01*
X86628554Y-105000000D01*
X86425000Y-105000000D01*
X86425000Y-104970163D01*
X86402164Y-104915032D01*
X86359968Y-104872836D01*
X86304837Y-104850000D01*
X86245163Y-104850000D01*
X86190032Y-104872836D01*
X86147836Y-104915032D01*
X86125000Y-104970163D01*
X85891609Y-104970163D01*
X85637500Y-104716054D01*
X85353554Y-105000000D01*
X85150000Y-105000000D01*
X85150000Y-104970163D01*
X85127164Y-104915032D01*
X85084968Y-104872836D01*
X85029837Y-104850000D01*
X84970163Y-104850000D01*
X84915032Y-104872836D01*
X84872836Y-104915032D01*
X84850000Y-104970163D01*
X84616609Y-104970163D01*
X84362500Y-104716054D01*
X84078554Y-105000000D01*
X83875000Y-105000000D01*
X83875000Y-104970163D01*
X83852164Y-104915032D01*
X83809968Y-104872836D01*
X83754837Y-104850000D01*
X83695163Y-104850000D01*
X83640032Y-104872836D01*
X83597836Y-104915032D01*
X83575000Y-104970163D01*
X83341609Y-104970163D01*
X83087500Y-104716054D01*
X82803554Y-105000000D01*
X82600000Y-105000000D01*
X82600000Y-104970163D01*
X82577164Y-104915032D01*
X82534968Y-104872836D01*
X82479837Y-104850000D01*
X82420163Y-104850000D01*
X82365032Y-104872836D01*
X82322836Y-104915032D01*
X82300000Y-104970163D01*
X82066609Y-104970163D01*
X81769731Y-104673285D01*
X81714176Y-104832055D01*
X81695254Y-104999996D01*
X80791472Y-104999996D01*
X80837500Y-104909661D01*
X80837500Y-104909659D01*
X80837501Y-104909658D01*
X80854869Y-104800002D01*
X80854869Y-104799999D01*
X80846445Y-104746817D01*
X80855399Y-104677524D01*
X80900394Y-104624071D01*
X80949520Y-104604945D01*
X81059658Y-104587501D01*
X81059659Y-104587500D01*
X81059661Y-104587500D01*
X81158587Y-104537095D01*
X81237095Y-104458587D01*
X81286053Y-104362500D01*
X82166054Y-104362500D01*
X82450000Y-104646446D01*
X82733946Y-104362500D01*
X83441054Y-104362500D01*
X83725000Y-104646446D01*
X84008946Y-104362500D01*
X84716054Y-104362500D01*
X85000000Y-104646446D01*
X85283946Y-104362500D01*
X85991054Y-104362500D01*
X86275000Y-104646446D01*
X86558946Y-104362500D01*
X87266054Y-104362500D01*
X87550000Y-104646446D01*
X87833946Y-104362500D01*
X87550000Y-104078554D01*
X87266054Y-104362500D01*
X86558946Y-104362500D01*
X86275000Y-104078554D01*
X85991054Y-104362500D01*
X85283946Y-104362500D01*
X85000000Y-104078554D01*
X84716054Y-104362500D01*
X84008946Y-104362500D01*
X83725000Y-104078554D01*
X83441054Y-104362500D01*
X82733946Y-104362500D01*
X82450000Y-104078554D01*
X82166054Y-104362500D01*
X81286053Y-104362500D01*
X81287500Y-104359661D01*
X81287500Y-104359659D01*
X81287501Y-104359658D01*
X81304869Y-104250002D01*
X81304869Y-104249997D01*
X81287501Y-104140341D01*
X81256019Y-104078554D01*
X81237095Y-104041413D01*
X81237092Y-104041410D01*
X81237090Y-104041407D01*
X81158592Y-103962909D01*
X81158588Y-103962906D01*
X81158587Y-103962905D01*
X81096172Y-103931103D01*
X81059658Y-103912498D01*
X80950002Y-103895131D01*
X80949998Y-103895131D01*
X80840341Y-103912498D01*
X80741414Y-103962904D01*
X80741407Y-103962909D01*
X80662909Y-104041407D01*
X80662904Y-104041414D01*
X80612498Y-104140341D01*
X80595131Y-104249997D01*
X80595131Y-104250002D01*
X80603554Y-104303183D01*
X80594599Y-104372477D01*
X80549603Y-104425929D01*
X80500480Y-104445054D01*
X80390341Y-104462499D01*
X80291414Y-104512904D01*
X80291407Y-104512909D01*
X80212909Y-104591407D01*
X80212904Y-104591414D01*
X80162498Y-104690341D01*
X80145131Y-104799997D01*
X66250000Y-104799997D01*
X66250000Y-103399997D01*
X80045131Y-103399997D01*
X80045131Y-103400002D01*
X80062498Y-103509658D01*
X80112904Y-103608585D01*
X80112909Y-103608592D01*
X80191407Y-103687090D01*
X80191410Y-103687092D01*
X80191413Y-103687095D01*
X80265806Y-103725000D01*
X80290341Y-103737501D01*
X80399998Y-103754869D01*
X80400000Y-103754869D01*
X80400002Y-103754869D01*
X80509658Y-103737501D01*
X80509659Y-103737500D01*
X80509661Y-103737500D01*
X80534202Y-103724996D01*
X81695254Y-103724996D01*
X81695254Y-103725003D01*
X81714176Y-103892944D01*
X81769731Y-104051713D01*
X82096446Y-103725000D01*
X82066609Y-103695163D01*
X82300000Y-103695163D01*
X82300000Y-103754837D01*
X82322836Y-103809968D01*
X82365032Y-103852164D01*
X82420163Y-103875000D01*
X82479837Y-103875000D01*
X82534968Y-103852164D01*
X82577164Y-103809968D01*
X82600000Y-103754837D01*
X82600000Y-103725000D01*
X82803554Y-103725000D01*
X83087500Y-104008946D01*
X83371446Y-103725000D01*
X83341609Y-103695163D01*
X83575000Y-103695163D01*
X83575000Y-103754837D01*
X83597836Y-103809968D01*
X83640032Y-103852164D01*
X83695163Y-103875000D01*
X83754837Y-103875000D01*
X83809968Y-103852164D01*
X83852164Y-103809968D01*
X83875000Y-103754837D01*
X83875000Y-103725000D01*
X84078554Y-103725000D01*
X84362500Y-104008946D01*
X84646446Y-103725000D01*
X84616609Y-103695163D01*
X84850000Y-103695163D01*
X84850000Y-103754837D01*
X84872836Y-103809968D01*
X84915032Y-103852164D01*
X84970163Y-103875000D01*
X85029837Y-103875000D01*
X85084968Y-103852164D01*
X85127164Y-103809968D01*
X85150000Y-103754837D01*
X85150000Y-103725000D01*
X85353554Y-103725000D01*
X85637500Y-104008946D01*
X85921446Y-103725000D01*
X85891609Y-103695163D01*
X86125000Y-103695163D01*
X86125000Y-103754837D01*
X86147836Y-103809968D01*
X86190032Y-103852164D01*
X86245163Y-103875000D01*
X86304837Y-103875000D01*
X86359968Y-103852164D01*
X86402164Y-103809968D01*
X86425000Y-103754837D01*
X86425000Y-103725000D01*
X86628554Y-103725000D01*
X86912500Y-104008946D01*
X87196446Y-103725000D01*
X87166609Y-103695163D01*
X87400000Y-103695163D01*
X87400000Y-103754837D01*
X87422836Y-103809968D01*
X87465032Y-103852164D01*
X87520163Y-103875000D01*
X87579837Y-103875000D01*
X87634968Y-103852164D01*
X87677164Y-103809968D01*
X87700000Y-103754837D01*
X87700000Y-103724999D01*
X87903554Y-103724999D01*
X87903554Y-103725001D01*
X88230267Y-104051714D01*
X88230267Y-104051713D01*
X88285823Y-103892943D01*
X88285824Y-103892938D01*
X88304746Y-103725003D01*
X88304746Y-103724996D01*
X88285824Y-103557058D01*
X88285823Y-103557053D01*
X88230267Y-103398285D01*
X88230267Y-103398284D01*
X87903554Y-103724999D01*
X87700000Y-103724999D01*
X87700000Y-103695163D01*
X87677164Y-103640032D01*
X87634968Y-103597836D01*
X87579837Y-103575000D01*
X87520163Y-103575000D01*
X87465032Y-103597836D01*
X87422836Y-103640032D01*
X87400000Y-103695163D01*
X87166609Y-103695163D01*
X86912500Y-103441054D01*
X86628554Y-103725000D01*
X86425000Y-103725000D01*
X86425000Y-103695163D01*
X86402164Y-103640032D01*
X86359968Y-103597836D01*
X86304837Y-103575000D01*
X86245163Y-103575000D01*
X86190032Y-103597836D01*
X86147836Y-103640032D01*
X86125000Y-103695163D01*
X85891609Y-103695163D01*
X85637500Y-103441054D01*
X85353554Y-103725000D01*
X85150000Y-103725000D01*
X85150000Y-103695163D01*
X85127164Y-103640032D01*
X85084968Y-103597836D01*
X85029837Y-103575000D01*
X84970163Y-103575000D01*
X84915032Y-103597836D01*
X84872836Y-103640032D01*
X84850000Y-103695163D01*
X84616609Y-103695163D01*
X84362500Y-103441054D01*
X84078554Y-103725000D01*
X83875000Y-103725000D01*
X83875000Y-103695163D01*
X83852164Y-103640032D01*
X83809968Y-103597836D01*
X83754837Y-103575000D01*
X83695163Y-103575000D01*
X83640032Y-103597836D01*
X83597836Y-103640032D01*
X83575000Y-103695163D01*
X83341609Y-103695163D01*
X83087500Y-103441054D01*
X82803554Y-103725000D01*
X82600000Y-103725000D01*
X82600000Y-103695163D01*
X82577164Y-103640032D01*
X82534968Y-103597836D01*
X82479837Y-103575000D01*
X82420163Y-103575000D01*
X82365032Y-103597836D01*
X82322836Y-103640032D01*
X82300000Y-103695163D01*
X82066609Y-103695163D01*
X81769731Y-103398285D01*
X81714176Y-103557055D01*
X81695254Y-103724996D01*
X80534202Y-103724996D01*
X80608587Y-103687095D01*
X80687095Y-103608587D01*
X80737500Y-103509661D01*
X80737500Y-103509659D01*
X80737501Y-103509658D01*
X80754869Y-103400002D01*
X80754869Y-103399997D01*
X80737501Y-103290341D01*
X80721574Y-103259083D01*
X80687095Y-103191413D01*
X80687092Y-103191410D01*
X80687090Y-103191407D01*
X80608592Y-103112909D01*
X80608588Y-103112906D01*
X80608587Y-103112905D01*
X80558727Y-103087500D01*
X82166054Y-103087500D01*
X82450000Y-103371446D01*
X82733946Y-103087500D01*
X83441054Y-103087500D01*
X83725000Y-103371446D01*
X84008946Y-103087500D01*
X84716054Y-103087500D01*
X85000000Y-103371446D01*
X85283946Y-103087500D01*
X85991054Y-103087500D01*
X86275000Y-103371446D01*
X86558946Y-103087500D01*
X87266054Y-103087500D01*
X87550000Y-103371446D01*
X87833946Y-103087500D01*
X87550000Y-102803554D01*
X87266054Y-103087500D01*
X86558946Y-103087500D01*
X86275000Y-102803554D01*
X85991054Y-103087500D01*
X85283946Y-103087500D01*
X85000000Y-102803554D01*
X84716054Y-103087500D01*
X84008946Y-103087500D01*
X83725000Y-102803554D01*
X83441054Y-103087500D01*
X82733946Y-103087500D01*
X82450000Y-102803554D01*
X82166054Y-103087500D01*
X80558727Y-103087500D01*
X80509658Y-103062498D01*
X80400002Y-103045131D01*
X80399998Y-103045131D01*
X80290341Y-103062498D01*
X80191414Y-103112904D01*
X80191407Y-103112909D01*
X80112909Y-103191407D01*
X80112904Y-103191414D01*
X80062498Y-103290341D01*
X80045131Y-103399997D01*
X66250000Y-103399997D01*
X66250000Y-101799994D01*
X70494859Y-101799994D01*
X70494859Y-101800005D01*
X70515385Y-102047729D01*
X70515387Y-102047738D01*
X70576412Y-102288717D01*
X70676267Y-102516367D01*
X70776562Y-102669881D01*
X71476212Y-101970233D01*
X71487482Y-102012292D01*
X71559890Y-102137708D01*
X71662292Y-102240110D01*
X71787708Y-102312518D01*
X71829766Y-102323787D01*
X71129943Y-103023609D01*
X71176768Y-103060055D01*
X71176771Y-103060057D01*
X71395385Y-103178364D01*
X71395396Y-103178369D01*
X71630506Y-103259083D01*
X71875707Y-103300000D01*
X72124293Y-103300000D01*
X72369493Y-103259083D01*
X72604603Y-103178369D01*
X72604614Y-103178364D01*
X72823230Y-103060056D01*
X72823236Y-103060051D01*
X72870055Y-103023610D01*
X72870056Y-103023609D01*
X72170233Y-102323787D01*
X72212292Y-102312518D01*
X72337708Y-102240110D01*
X72440110Y-102137708D01*
X72512518Y-102012292D01*
X72523787Y-101970233D01*
X73223435Y-102669882D01*
X73323733Y-102516364D01*
X73423587Y-102288717D01*
X73484612Y-102047738D01*
X73484614Y-102047729D01*
X73505141Y-101800005D01*
X73505141Y-101799999D01*
X75294357Y-101799999D01*
X75294357Y-101800000D01*
X75314884Y-102021535D01*
X75314885Y-102021537D01*
X75375769Y-102235523D01*
X75375775Y-102235538D01*
X75474938Y-102434683D01*
X75474943Y-102434691D01*
X75609020Y-102612238D01*
X75773437Y-102762123D01*
X75773439Y-102762125D01*
X75962595Y-102879245D01*
X75962596Y-102879245D01*
X75962599Y-102879247D01*
X76170060Y-102959618D01*
X76388757Y-103000500D01*
X76388759Y-103000500D01*
X76611241Y-103000500D01*
X76611243Y-103000500D01*
X76829940Y-102959618D01*
X77037401Y-102879247D01*
X77226562Y-102762124D01*
X77390981Y-102612236D01*
X77513499Y-102449996D01*
X81695254Y-102449996D01*
X81695254Y-102450003D01*
X81714176Y-102617944D01*
X81769731Y-102776713D01*
X82096446Y-102450000D01*
X82066609Y-102420163D01*
X82300000Y-102420163D01*
X82300000Y-102479837D01*
X82322836Y-102534968D01*
X82365032Y-102577164D01*
X82420163Y-102600000D01*
X82479837Y-102600000D01*
X82534968Y-102577164D01*
X82577164Y-102534968D01*
X82600000Y-102479837D01*
X82600000Y-102450000D01*
X82803554Y-102450000D01*
X83087500Y-102733946D01*
X83371446Y-102450000D01*
X83341609Y-102420163D01*
X83575000Y-102420163D01*
X83575000Y-102479837D01*
X83597836Y-102534968D01*
X83640032Y-102577164D01*
X83695163Y-102600000D01*
X83754837Y-102600000D01*
X83809968Y-102577164D01*
X83852164Y-102534968D01*
X83875000Y-102479837D01*
X83875000Y-102450000D01*
X84078554Y-102450000D01*
X84362500Y-102733946D01*
X84646446Y-102450000D01*
X84616609Y-102420163D01*
X84850000Y-102420163D01*
X84850000Y-102479837D01*
X84872836Y-102534968D01*
X84915032Y-102577164D01*
X84970163Y-102600000D01*
X85029837Y-102600000D01*
X85084968Y-102577164D01*
X85127164Y-102534968D01*
X85150000Y-102479837D01*
X85150000Y-102450000D01*
X85353554Y-102450000D01*
X85637500Y-102733946D01*
X85921446Y-102450000D01*
X85891609Y-102420163D01*
X86125000Y-102420163D01*
X86125000Y-102479837D01*
X86147836Y-102534968D01*
X86190032Y-102577164D01*
X86245163Y-102600000D01*
X86304837Y-102600000D01*
X86359968Y-102577164D01*
X86402164Y-102534968D01*
X86425000Y-102479837D01*
X86425000Y-102450000D01*
X86628554Y-102450000D01*
X86912500Y-102733946D01*
X87196446Y-102450000D01*
X87166609Y-102420163D01*
X87400000Y-102420163D01*
X87400000Y-102479837D01*
X87422836Y-102534968D01*
X87465032Y-102577164D01*
X87520163Y-102600000D01*
X87579837Y-102600000D01*
X87634968Y-102577164D01*
X87677164Y-102534968D01*
X87700000Y-102479837D01*
X87700000Y-102420163D01*
X87677164Y-102365032D01*
X87634968Y-102322836D01*
X87579837Y-102300000D01*
X87520163Y-102300000D01*
X87465032Y-102322836D01*
X87422836Y-102365032D01*
X87400000Y-102420163D01*
X87166609Y-102420163D01*
X86912500Y-102166054D01*
X86628554Y-102450000D01*
X86425000Y-102450000D01*
X86425000Y-102420163D01*
X86402164Y-102365032D01*
X86359968Y-102322836D01*
X86304837Y-102300000D01*
X86245163Y-102300000D01*
X86190032Y-102322836D01*
X86147836Y-102365032D01*
X86125000Y-102420163D01*
X85891609Y-102420163D01*
X85637500Y-102166054D01*
X85353554Y-102450000D01*
X85150000Y-102450000D01*
X85150000Y-102420163D01*
X85127164Y-102365032D01*
X85084968Y-102322836D01*
X85029837Y-102300000D01*
X84970163Y-102300000D01*
X84915032Y-102322836D01*
X84872836Y-102365032D01*
X84850000Y-102420163D01*
X84616609Y-102420163D01*
X84362500Y-102166054D01*
X84078554Y-102450000D01*
X83875000Y-102450000D01*
X83875000Y-102420163D01*
X83852164Y-102365032D01*
X83809968Y-102322836D01*
X83754837Y-102300000D01*
X83695163Y-102300000D01*
X83640032Y-102322836D01*
X83597836Y-102365032D01*
X83575000Y-102420163D01*
X83341609Y-102420163D01*
X83087500Y-102166054D01*
X82803554Y-102450000D01*
X82600000Y-102450000D01*
X82600000Y-102420163D01*
X82577164Y-102365032D01*
X82534968Y-102322836D01*
X82479837Y-102300000D01*
X82420163Y-102300000D01*
X82365032Y-102322836D01*
X82322836Y-102365032D01*
X82300000Y-102420163D01*
X82066609Y-102420163D01*
X81769731Y-102123285D01*
X81714176Y-102282055D01*
X81695254Y-102449996D01*
X77513499Y-102449996D01*
X77525058Y-102434689D01*
X77624229Y-102235528D01*
X77685115Y-102021536D01*
X77705643Y-101800000D01*
X77705642Y-101799994D01*
X77685115Y-101578464D01*
X77685114Y-101578462D01*
X77681608Y-101566141D01*
X77681607Y-101566136D01*
X80278992Y-101566136D01*
X80278992Y-101566141D01*
X80296359Y-101675797D01*
X80346765Y-101774724D01*
X80346770Y-101774731D01*
X80425268Y-101853229D01*
X80425271Y-101853231D01*
X80425274Y-101853234D01*
X80506986Y-101894868D01*
X80524202Y-101903640D01*
X80633859Y-101921008D01*
X80633861Y-101921008D01*
X80633863Y-101921008D01*
X80743519Y-101903640D01*
X80743520Y-101903639D01*
X80743522Y-101903639D01*
X80842448Y-101853234D01*
X80920956Y-101774726D01*
X80923501Y-101769731D01*
X82123285Y-101769731D01*
X82450000Y-102096446D01*
X82450001Y-102096446D01*
X82776713Y-101769731D01*
X83398285Y-101769731D01*
X83725000Y-102096446D01*
X83725001Y-102096446D01*
X84051714Y-101769731D01*
X84673285Y-101769731D01*
X85000000Y-102096446D01*
X85000001Y-102096446D01*
X85326714Y-101769731D01*
X85948285Y-101769731D01*
X86275000Y-102096446D01*
X86275001Y-102096446D01*
X86601713Y-101769731D01*
X87223285Y-101769731D01*
X87726777Y-102273223D01*
X88230267Y-102776714D01*
X88230267Y-102776713D01*
X88239615Y-102749997D01*
X88645131Y-102749997D01*
X88645131Y-102750002D01*
X88662498Y-102859658D01*
X88712904Y-102958585D01*
X88712909Y-102958592D01*
X88791407Y-103037090D01*
X88791410Y-103037092D01*
X88791413Y-103037095D01*
X88890339Y-103087500D01*
X88890341Y-103087501D01*
X88999998Y-103104869D01*
X89000000Y-103104869D01*
X89000002Y-103104869D01*
X89109658Y-103087501D01*
X89109659Y-103087500D01*
X89109661Y-103087500D01*
X89208587Y-103037095D01*
X89287095Y-102958587D01*
X89337500Y-102859661D01*
X89337500Y-102859659D01*
X89337501Y-102859658D01*
X89354869Y-102750002D01*
X89354869Y-102749999D01*
X89343559Y-102678595D01*
X89352513Y-102609301D01*
X89397509Y-102555849D01*
X89464260Y-102535209D01*
X89485430Y-102536723D01*
X89599998Y-102554869D01*
X89600000Y-102554869D01*
X89600002Y-102554869D01*
X89709658Y-102537501D01*
X89709659Y-102537500D01*
X89709661Y-102537500D01*
X89808587Y-102487095D01*
X89887095Y-102408587D01*
X89937500Y-102309661D01*
X89937500Y-102309659D01*
X89937501Y-102309658D01*
X89954869Y-102200002D01*
X89954869Y-102199997D01*
X89937501Y-102090341D01*
X89915789Y-102047729D01*
X89887095Y-101991413D01*
X89887092Y-101991410D01*
X89887090Y-101991407D01*
X89808592Y-101912909D01*
X89808588Y-101912906D01*
X89808587Y-101912905D01*
X89804743Y-101910946D01*
X89709658Y-101862498D01*
X89600002Y-101845131D01*
X89599998Y-101845131D01*
X89490341Y-101862498D01*
X89391414Y-101912904D01*
X89391407Y-101912909D01*
X89312909Y-101991407D01*
X89312904Y-101991414D01*
X89262498Y-102090341D01*
X89245131Y-102199997D01*
X89245131Y-102200002D01*
X89256440Y-102271405D01*
X89247485Y-102340699D01*
X89202489Y-102394151D01*
X89135737Y-102414790D01*
X89114570Y-102413276D01*
X89000003Y-102395131D01*
X88999998Y-102395131D01*
X88890341Y-102412498D01*
X88791414Y-102462904D01*
X88791407Y-102462909D01*
X88712909Y-102541407D01*
X88712904Y-102541414D01*
X88662498Y-102640341D01*
X88645131Y-102749997D01*
X88239615Y-102749997D01*
X88285823Y-102617943D01*
X88285824Y-102617938D01*
X88304746Y-102450003D01*
X88304746Y-102449996D01*
X88285824Y-102282058D01*
X88285822Y-102282050D01*
X88230002Y-102122527D01*
X88205337Y-102083272D01*
X88186336Y-102016035D01*
X88206703Y-101949200D01*
X88259971Y-101903985D01*
X88320241Y-101895945D01*
X88320241Y-101894869D01*
X88328312Y-101894869D01*
X88329227Y-101894747D01*
X88329491Y-101894788D01*
X88330000Y-101894869D01*
X88392018Y-101885046D01*
X88439658Y-101877501D01*
X88439659Y-101877500D01*
X88439661Y-101877500D01*
X88538587Y-101827095D01*
X88617095Y-101748587D01*
X88667500Y-101649661D01*
X88667500Y-101649659D01*
X88667501Y-101649658D01*
X88684869Y-101540002D01*
X88684869Y-101539997D01*
X88667501Y-101430341D01*
X88633939Y-101364472D01*
X88617095Y-101331413D01*
X88617092Y-101331410D01*
X88617090Y-101331407D01*
X88538592Y-101252909D01*
X88538588Y-101252906D01*
X88538587Y-101252905D01*
X88451382Y-101208472D01*
X88400586Y-101160499D01*
X88383791Y-101092678D01*
X88406328Y-101026543D01*
X88461043Y-100983091D01*
X88478003Y-100977591D01*
X88550225Y-100959790D01*
X88700849Y-100880736D01*
X88700850Y-100880734D01*
X88700852Y-100880734D01*
X88828183Y-100767929D01*
X88924818Y-100627930D01*
X88985140Y-100468872D01*
X89005645Y-100300000D01*
X88985140Y-100131128D01*
X88924818Y-99972070D01*
X88903477Y-99941153D01*
X88868684Y-99890747D01*
X88828183Y-99832071D01*
X88700852Y-99719266D01*
X88700849Y-99719263D01*
X88550226Y-99640210D01*
X88385056Y-99599500D01*
X88214944Y-99599500D01*
X88049773Y-99640210D01*
X87899150Y-99719263D01*
X87771816Y-99832072D01*
X87675182Y-99972068D01*
X87614860Y-100131125D01*
X87614859Y-100131130D01*
X87594355Y-100300000D01*
X87614859Y-100468869D01*
X87614860Y-100468874D01*
X87675182Y-100627931D01*
X87690417Y-100650002D01*
X87771817Y-100767929D01*
X87850769Y-100837874D01*
X87899150Y-100880736D01*
X88049773Y-100959789D01*
X88049775Y-100959790D01*
X88162436Y-100987558D01*
X88222816Y-101022714D01*
X88254605Y-101084933D01*
X88247709Y-101154462D01*
X88204318Y-101209225D01*
X88189062Y-101218436D01*
X88127114Y-101250000D01*
X88121411Y-101252906D01*
X88121407Y-101252909D01*
X88042909Y-101331407D01*
X88042904Y-101331414D01*
X87992498Y-101430341D01*
X87975131Y-101539997D01*
X87975131Y-101540002D01*
X87986959Y-101614682D01*
X87978004Y-101683976D01*
X87933008Y-101737428D01*
X87866256Y-101758067D01*
X87823532Y-101751122D01*
X87717949Y-101714177D01*
X87717941Y-101714175D01*
X87550004Y-101695254D01*
X87549996Y-101695254D01*
X87382055Y-101714176D01*
X87223285Y-101769731D01*
X86601713Y-101769731D01*
X86442944Y-101714176D01*
X86275004Y-101695254D01*
X86274996Y-101695254D01*
X86107055Y-101714176D01*
X85948285Y-101769731D01*
X85326714Y-101769731D01*
X85167944Y-101714176D01*
X85000004Y-101695254D01*
X84999996Y-101695254D01*
X84832055Y-101714176D01*
X84673285Y-101769731D01*
X84051714Y-101769731D01*
X83892944Y-101714176D01*
X83725004Y-101695254D01*
X83724996Y-101695254D01*
X83557055Y-101714176D01*
X83398285Y-101769731D01*
X82776713Y-101769731D01*
X82617944Y-101714176D01*
X82450004Y-101695254D01*
X82449996Y-101695254D01*
X82282055Y-101714176D01*
X82123285Y-101769731D01*
X80923501Y-101769731D01*
X80971361Y-101675800D01*
X80971361Y-101675798D01*
X80971362Y-101675797D01*
X80988730Y-101566141D01*
X80988730Y-101566136D01*
X80971362Y-101456480D01*
X80966249Y-101446446D01*
X80920956Y-101357552D01*
X80920953Y-101357549D01*
X80920951Y-101357546D01*
X80842453Y-101279048D01*
X80842449Y-101279045D01*
X80842448Y-101279044D01*
X80791147Y-101252905D01*
X80743519Y-101228637D01*
X80633863Y-101211270D01*
X80633859Y-101211270D01*
X80524202Y-101228637D01*
X80425275Y-101279043D01*
X80425268Y-101279048D01*
X80346770Y-101357546D01*
X80346765Y-101357553D01*
X80296359Y-101456480D01*
X80278992Y-101566136D01*
X77681607Y-101566136D01*
X77624229Y-101364472D01*
X77624224Y-101364461D01*
X77525061Y-101165316D01*
X77525056Y-101165308D01*
X77390979Y-100987761D01*
X77226562Y-100837876D01*
X77226560Y-100837874D01*
X77037404Y-100720754D01*
X77037398Y-100720752D01*
X76854759Y-100649997D01*
X81645131Y-100649997D01*
X81645131Y-100650002D01*
X81662498Y-100759658D01*
X81712904Y-100858585D01*
X81712909Y-100858592D01*
X81791407Y-100937090D01*
X81791410Y-100937092D01*
X81791413Y-100937095D01*
X81881686Y-100983091D01*
X81890341Y-100987501D01*
X81999998Y-101004869D01*
X82000000Y-101004869D01*
X82000002Y-101004869D01*
X82109658Y-100987501D01*
X82109659Y-100987500D01*
X82109661Y-100987500D01*
X82208587Y-100937095D01*
X82287095Y-100858587D01*
X82337500Y-100759661D01*
X82337500Y-100759659D01*
X82337501Y-100759658D01*
X82354869Y-100650002D01*
X82354869Y-100649997D01*
X82645131Y-100649997D01*
X82645131Y-100650002D01*
X82662498Y-100759658D01*
X82712904Y-100858585D01*
X82712909Y-100858592D01*
X82791407Y-100937090D01*
X82791410Y-100937092D01*
X82791413Y-100937095D01*
X82881686Y-100983091D01*
X82890341Y-100987501D01*
X82999998Y-101004869D01*
X83000000Y-101004869D01*
X83000002Y-101004869D01*
X83109658Y-100987501D01*
X83109659Y-100987500D01*
X83109661Y-100987500D01*
X83208587Y-100937095D01*
X83287095Y-100858587D01*
X83337500Y-100759661D01*
X83337500Y-100759659D01*
X83337501Y-100759658D01*
X83354869Y-100650002D01*
X83354869Y-100649997D01*
X83337501Y-100540341D01*
X83301084Y-100468869D01*
X83287095Y-100441413D01*
X83287092Y-100441410D01*
X83287090Y-100441407D01*
X83245680Y-100399997D01*
X84045131Y-100399997D01*
X84045131Y-100400002D01*
X84062498Y-100509658D01*
X84112904Y-100608585D01*
X84112909Y-100608592D01*
X84191407Y-100687090D01*
X84191410Y-100687092D01*
X84191413Y-100687095D01*
X84257469Y-100720752D01*
X84290341Y-100737501D01*
X84399998Y-100754869D01*
X84400000Y-100754869D01*
X84400002Y-100754869D01*
X84509658Y-100737501D01*
X84509659Y-100737500D01*
X84509661Y-100737500D01*
X84608587Y-100687095D01*
X84687095Y-100608587D01*
X84737500Y-100509661D01*
X84737500Y-100509659D01*
X84737501Y-100509658D01*
X84754869Y-100400002D01*
X84754869Y-100399997D01*
X84737501Y-100290341D01*
X84737500Y-100290339D01*
X84705862Y-100228246D01*
X85380488Y-100228246D01*
X85380488Y-100228251D01*
X85397855Y-100337907D01*
X85448261Y-100436834D01*
X85448266Y-100436841D01*
X85526764Y-100515339D01*
X85526767Y-100515341D01*
X85526770Y-100515344D01*
X85575826Y-100540339D01*
X85625698Y-100565750D01*
X85735355Y-100583118D01*
X85735357Y-100583118D01*
X85735359Y-100583118D01*
X85845015Y-100565750D01*
X85845016Y-100565749D01*
X85845018Y-100565749D01*
X85943944Y-100515344D01*
X86022452Y-100436836D01*
X86072857Y-100337910D01*
X86072857Y-100337908D01*
X86072858Y-100337907D01*
X86090226Y-100228251D01*
X86090226Y-100228246D01*
X86072858Y-100118590D01*
X86069961Y-100112904D01*
X86022452Y-100019662D01*
X86022449Y-100019659D01*
X86022447Y-100019656D01*
X85943949Y-99941158D01*
X85943945Y-99941155D01*
X85943944Y-99941154D01*
X85940100Y-99939195D01*
X85845015Y-99890747D01*
X85735359Y-99873380D01*
X85735355Y-99873380D01*
X85625698Y-99890747D01*
X85526771Y-99941153D01*
X85526764Y-99941158D01*
X85448266Y-100019656D01*
X85448261Y-100019663D01*
X85397855Y-100118590D01*
X85380488Y-100228246D01*
X84705862Y-100228246D01*
X84687095Y-100191413D01*
X84687092Y-100191410D01*
X84687090Y-100191407D01*
X84608592Y-100112909D01*
X84608588Y-100112906D01*
X84608587Y-100112905D01*
X84557922Y-100087090D01*
X84509658Y-100062498D01*
X84400002Y-100045131D01*
X84399998Y-100045131D01*
X84290341Y-100062498D01*
X84191414Y-100112904D01*
X84191407Y-100112909D01*
X84112909Y-100191407D01*
X84112904Y-100191414D01*
X84062498Y-100290341D01*
X84045131Y-100399997D01*
X83245680Y-100399997D01*
X83208592Y-100362909D01*
X83208588Y-100362906D01*
X83208587Y-100362905D01*
X83165431Y-100340916D01*
X83109658Y-100312498D01*
X83000002Y-100295131D01*
X82999998Y-100295131D01*
X82890341Y-100312498D01*
X82791414Y-100362904D01*
X82791407Y-100362909D01*
X82712909Y-100441407D01*
X82712904Y-100441414D01*
X82662498Y-100540341D01*
X82645131Y-100649997D01*
X82354869Y-100649997D01*
X82337501Y-100540341D01*
X82301084Y-100468869D01*
X82287095Y-100441413D01*
X82287092Y-100441410D01*
X82287090Y-100441407D01*
X82208592Y-100362909D01*
X82208588Y-100362906D01*
X82208587Y-100362905D01*
X82165431Y-100340916D01*
X82109658Y-100312498D01*
X82000002Y-100295131D01*
X81999998Y-100295131D01*
X81890341Y-100312498D01*
X81791414Y-100362904D01*
X81791407Y-100362909D01*
X81712909Y-100441407D01*
X81712904Y-100441414D01*
X81662498Y-100540341D01*
X81645131Y-100649997D01*
X76854759Y-100649997D01*
X76829940Y-100640382D01*
X76611243Y-100599500D01*
X76388757Y-100599500D01*
X76170060Y-100640382D01*
X76049493Y-100687090D01*
X75962601Y-100720752D01*
X75962595Y-100720754D01*
X75773439Y-100837874D01*
X75773437Y-100837876D01*
X75609020Y-100987761D01*
X75474943Y-101165308D01*
X75474938Y-101165316D01*
X75375775Y-101364461D01*
X75375769Y-101364476D01*
X75314885Y-101578462D01*
X75314884Y-101578464D01*
X75294357Y-101799999D01*
X73505141Y-101799999D01*
X73505141Y-101799994D01*
X73484614Y-101552270D01*
X73484612Y-101552261D01*
X73423587Y-101311282D01*
X73323732Y-101083632D01*
X73223435Y-100930116D01*
X72523787Y-101629765D01*
X72512518Y-101587708D01*
X72440110Y-101462292D01*
X72337708Y-101359890D01*
X72212292Y-101287482D01*
X72170233Y-101276212D01*
X72870055Y-100576389D01*
X72870055Y-100576388D01*
X72823236Y-100539947D01*
X72823231Y-100539944D01*
X72604614Y-100421635D01*
X72604603Y-100421630D01*
X72369493Y-100340916D01*
X72124293Y-100300000D01*
X71875707Y-100300000D01*
X71630506Y-100340916D01*
X71395396Y-100421630D01*
X71395385Y-100421635D01*
X71176770Y-100539943D01*
X71129943Y-100576389D01*
X71829766Y-101276212D01*
X71787708Y-101287482D01*
X71662292Y-101359890D01*
X71559890Y-101462292D01*
X71487482Y-101587708D01*
X71476212Y-101629765D01*
X70776563Y-100930117D01*
X70676267Y-101083633D01*
X70676265Y-101083637D01*
X70576412Y-101311282D01*
X70515387Y-101552261D01*
X70515385Y-101552270D01*
X70494859Y-101799994D01*
X66250000Y-101799994D01*
X66250000Y-99799997D01*
X86345131Y-99799997D01*
X86345131Y-99800002D01*
X86362498Y-99909658D01*
X86412904Y-100008585D01*
X86412909Y-100008592D01*
X86491407Y-100087090D01*
X86491410Y-100087092D01*
X86491413Y-100087095D01*
X86553222Y-100118588D01*
X86590341Y-100137501D01*
X86699998Y-100154869D01*
X86700000Y-100154869D01*
X86700002Y-100154869D01*
X86809658Y-100137501D01*
X86809659Y-100137500D01*
X86809661Y-100137500D01*
X86908587Y-100087095D01*
X86987095Y-100008587D01*
X87037500Y-99909661D01*
X87037500Y-99909659D01*
X87037501Y-99909658D01*
X87054869Y-99800002D01*
X87054869Y-99799997D01*
X87037501Y-99690341D01*
X87011958Y-99640210D01*
X86987095Y-99591413D01*
X86987092Y-99591410D01*
X86987090Y-99591407D01*
X86908592Y-99512909D01*
X86908588Y-99512906D01*
X86908587Y-99512905D01*
X86904743Y-99510946D01*
X86809658Y-99462498D01*
X86700002Y-99445131D01*
X86699998Y-99445131D01*
X86590341Y-99462498D01*
X86491414Y-99512904D01*
X86491407Y-99512909D01*
X86412909Y-99591407D01*
X86412904Y-99591414D01*
X86362498Y-99690341D01*
X86345131Y-99799997D01*
X66250000Y-99799997D01*
X66250000Y-98503949D01*
X89390406Y-98503949D01*
X89410910Y-98672818D01*
X89410911Y-98672823D01*
X89471233Y-98831880D01*
X89533526Y-98922126D01*
X89567868Y-98971878D01*
X89661546Y-99054869D01*
X89695201Y-99084685D01*
X89845824Y-99163738D01*
X89845826Y-99163739D01*
X90010995Y-99204449D01*
X90181107Y-99204449D01*
X90346276Y-99163739D01*
X90449318Y-99109658D01*
X90496900Y-99084685D01*
X90496901Y-99084683D01*
X90496903Y-99084683D01*
X90624234Y-98971878D01*
X90720869Y-98831879D01*
X90770885Y-98699997D01*
X94945131Y-98699997D01*
X94945131Y-98700002D01*
X94962498Y-98809658D01*
X95012904Y-98908585D01*
X95012909Y-98908592D01*
X95091407Y-98987090D01*
X95091410Y-98987092D01*
X95091413Y-98987095D01*
X95116741Y-99000000D01*
X95190341Y-99037501D01*
X95299998Y-99054869D01*
X95300000Y-99054869D01*
X95300002Y-99054869D01*
X95409658Y-99037501D01*
X95409659Y-99037500D01*
X95409661Y-99037500D01*
X95483265Y-98999997D01*
X96045131Y-98999997D01*
X96045131Y-99000002D01*
X96062498Y-99109658D01*
X96112904Y-99208585D01*
X96112909Y-99208592D01*
X96191407Y-99287090D01*
X96191410Y-99287092D01*
X96191413Y-99287095D01*
X96290339Y-99337500D01*
X96290341Y-99337501D01*
X96399998Y-99354869D01*
X96400000Y-99354869D01*
X96400002Y-99354869D01*
X96509658Y-99337501D01*
X96509659Y-99337500D01*
X96509661Y-99337500D01*
X96608587Y-99287095D01*
X96687095Y-99208587D01*
X96737500Y-99109661D01*
X96737500Y-99109659D01*
X96737501Y-99109658D01*
X96754869Y-99000002D01*
X96754869Y-98999997D01*
X96737501Y-98890341D01*
X96707713Y-98831879D01*
X96687095Y-98791413D01*
X96687092Y-98791410D01*
X96687090Y-98791407D01*
X96608592Y-98712909D01*
X96608588Y-98712906D01*
X96608587Y-98712905D01*
X96583263Y-98700002D01*
X96509658Y-98662498D01*
X96400002Y-98645131D01*
X96399998Y-98645131D01*
X96290341Y-98662498D01*
X96191414Y-98712904D01*
X96191407Y-98712909D01*
X96112909Y-98791407D01*
X96112904Y-98791414D01*
X96062498Y-98890341D01*
X96045131Y-98999997D01*
X95483265Y-98999997D01*
X95508587Y-98987095D01*
X95587095Y-98908587D01*
X95637500Y-98809661D01*
X95637500Y-98809659D01*
X95637501Y-98809658D01*
X95654869Y-98700002D01*
X95654869Y-98699997D01*
X95637501Y-98590341D01*
X95593482Y-98503949D01*
X95587095Y-98491413D01*
X95587092Y-98491410D01*
X95587090Y-98491407D01*
X95508592Y-98412909D01*
X95508588Y-98412906D01*
X95508587Y-98412905D01*
X95504743Y-98410946D01*
X95409658Y-98362498D01*
X95300002Y-98345131D01*
X95299998Y-98345131D01*
X95190341Y-98362498D01*
X95091414Y-98412904D01*
X95091407Y-98412909D01*
X95012909Y-98491407D01*
X95012904Y-98491414D01*
X94962498Y-98590341D01*
X94945131Y-98699997D01*
X90770885Y-98699997D01*
X90781191Y-98672821D01*
X90801696Y-98503949D01*
X90781191Y-98335077D01*
X90720869Y-98176019D01*
X90624234Y-98036020D01*
X90513029Y-97937501D01*
X90496900Y-97923212D01*
X90346277Y-97844159D01*
X90181107Y-97803449D01*
X90010995Y-97803449D01*
X89845824Y-97844159D01*
X89695201Y-97923212D01*
X89567867Y-98036021D01*
X89471233Y-98176017D01*
X89410911Y-98335074D01*
X89410910Y-98335079D01*
X89390406Y-98503949D01*
X66250000Y-98503949D01*
X66250000Y-97599997D01*
X94945131Y-97599997D01*
X94945131Y-97600002D01*
X94962498Y-97709658D01*
X95012904Y-97808585D01*
X95012909Y-97808592D01*
X95091407Y-97887090D01*
X95091410Y-97887092D01*
X95091413Y-97887095D01*
X95162297Y-97923212D01*
X95190341Y-97937501D01*
X95299998Y-97954869D01*
X95300000Y-97954869D01*
X95300002Y-97954869D01*
X95409658Y-97937501D01*
X95409659Y-97937500D01*
X95409661Y-97937500D01*
X95508587Y-97887095D01*
X95587095Y-97808587D01*
X95637500Y-97709661D01*
X95637500Y-97709659D01*
X95637501Y-97709658D01*
X95654869Y-97600002D01*
X95654869Y-97599997D01*
X95637501Y-97490341D01*
X95637500Y-97490339D01*
X95587095Y-97391413D01*
X95587092Y-97391410D01*
X95587090Y-97391407D01*
X95508592Y-97312909D01*
X95508588Y-97312906D01*
X95508587Y-97312905D01*
X95504743Y-97310946D01*
X95409658Y-97262498D01*
X95300002Y-97245131D01*
X95299998Y-97245131D01*
X95190341Y-97262498D01*
X95091414Y-97312904D01*
X95091407Y-97312909D01*
X95012909Y-97391407D01*
X95012904Y-97391414D01*
X94962498Y-97490341D01*
X94945131Y-97599997D01*
X66250000Y-97599997D01*
X66250000Y-95299994D01*
X70494859Y-95299994D01*
X70494859Y-95300005D01*
X70515385Y-95547729D01*
X70515387Y-95547738D01*
X70576412Y-95788717D01*
X70676267Y-96016367D01*
X70776562Y-96169881D01*
X71476212Y-95470233D01*
X71487482Y-95512292D01*
X71559890Y-95637708D01*
X71662292Y-95740110D01*
X71787708Y-95812518D01*
X71829766Y-95823787D01*
X71129943Y-96523609D01*
X71176768Y-96560055D01*
X71176771Y-96560057D01*
X71395385Y-96678364D01*
X71395396Y-96678369D01*
X71630506Y-96759083D01*
X71875707Y-96800000D01*
X72124293Y-96800000D01*
X72369493Y-96759083D01*
X72395959Y-96749997D01*
X95495131Y-96749997D01*
X95495131Y-96750002D01*
X95512498Y-96859658D01*
X95562904Y-96958585D01*
X95562909Y-96958592D01*
X95641407Y-97037090D01*
X95641410Y-97037092D01*
X95641413Y-97037095D01*
X95740339Y-97087500D01*
X95740341Y-97087501D01*
X95849998Y-97104869D01*
X95850000Y-97104869D01*
X95850002Y-97104869D01*
X95959658Y-97087501D01*
X95959659Y-97087500D01*
X95959661Y-97087500D01*
X96058587Y-97037095D01*
X96137095Y-96958587D01*
X96187500Y-96859661D01*
X96187500Y-96859659D01*
X96187501Y-96859658D01*
X96204869Y-96750002D01*
X96204869Y-96749997D01*
X96187501Y-96640341D01*
X96187500Y-96640339D01*
X96137095Y-96541413D01*
X96137092Y-96541410D01*
X96137090Y-96541407D01*
X96058592Y-96462909D01*
X96058588Y-96462906D01*
X96058587Y-96462905D01*
X96052134Y-96459617D01*
X95959658Y-96412498D01*
X95850002Y-96395131D01*
X95849998Y-96395131D01*
X95740341Y-96412498D01*
X95641414Y-96462904D01*
X95641407Y-96462909D01*
X95562909Y-96541407D01*
X95562904Y-96541414D01*
X95512498Y-96640341D01*
X95495131Y-96749997D01*
X72395959Y-96749997D01*
X72604603Y-96678369D01*
X72604614Y-96678364D01*
X72823230Y-96560056D01*
X72823236Y-96560051D01*
X72870055Y-96523610D01*
X72870056Y-96523609D01*
X72170233Y-95823787D01*
X72212292Y-95812518D01*
X72337708Y-95740110D01*
X72440110Y-95637708D01*
X72512518Y-95512292D01*
X72523787Y-95470233D01*
X73223435Y-96169882D01*
X73323733Y-96016364D01*
X73423587Y-95788717D01*
X73484612Y-95547738D01*
X73484614Y-95547729D01*
X73505141Y-95300005D01*
X73505141Y-95299999D01*
X75294357Y-95299999D01*
X75294357Y-95300000D01*
X75314884Y-95521535D01*
X75314885Y-95521537D01*
X75375769Y-95735523D01*
X75375775Y-95735538D01*
X75474938Y-95934683D01*
X75474943Y-95934691D01*
X75609020Y-96112238D01*
X75773437Y-96262123D01*
X75773439Y-96262125D01*
X75962595Y-96379245D01*
X75962596Y-96379245D01*
X75962599Y-96379247D01*
X76170060Y-96459618D01*
X76388757Y-96500500D01*
X76388759Y-96500500D01*
X76611241Y-96500500D01*
X76611243Y-96500500D01*
X76829940Y-96459618D01*
X77037401Y-96379247D01*
X77226562Y-96262124D01*
X77390981Y-96112236D01*
X77518865Y-95942890D01*
X94795131Y-95942890D01*
X94795131Y-95942895D01*
X94812498Y-96052551D01*
X94862904Y-96151478D01*
X94862909Y-96151485D01*
X94941407Y-96229983D01*
X94941410Y-96229985D01*
X94941413Y-96229988D01*
X95004482Y-96262123D01*
X95040341Y-96280394D01*
X95149998Y-96297762D01*
X95150000Y-96297762D01*
X95150002Y-96297762D01*
X95259658Y-96280394D01*
X95259659Y-96280393D01*
X95259661Y-96280393D01*
X95358587Y-96229988D01*
X95437095Y-96151480D01*
X95487500Y-96052554D01*
X95487500Y-96052552D01*
X95487501Y-96052551D01*
X95504869Y-95942895D01*
X95504869Y-95942890D01*
X95487501Y-95833234D01*
X95476946Y-95812518D01*
X95437095Y-95734306D01*
X95437092Y-95734303D01*
X95437090Y-95734300D01*
X95358592Y-95655802D01*
X95358588Y-95655799D01*
X95358587Y-95655798D01*
X95323083Y-95637708D01*
X95259658Y-95605391D01*
X95150002Y-95588024D01*
X95149998Y-95588024D01*
X95040341Y-95605391D01*
X94941414Y-95655797D01*
X94941407Y-95655802D01*
X94862909Y-95734300D01*
X94862904Y-95734307D01*
X94812498Y-95833234D01*
X94795131Y-95942890D01*
X77518865Y-95942890D01*
X77525058Y-95934689D01*
X77624229Y-95735528D01*
X77685115Y-95521536D01*
X77705643Y-95300000D01*
X77705642Y-95299994D01*
X77685115Y-95078464D01*
X77685114Y-95078462D01*
X77677659Y-95052261D01*
X77624229Y-94864472D01*
X77624224Y-94864461D01*
X77525061Y-94665316D01*
X77525056Y-94665308D01*
X77390979Y-94487761D01*
X77226562Y-94337876D01*
X77226560Y-94337874D01*
X77037404Y-94220754D01*
X77037398Y-94220752D01*
X76829940Y-94140382D01*
X76611243Y-94099500D01*
X76388757Y-94099500D01*
X76170060Y-94140382D01*
X76038864Y-94191207D01*
X75962601Y-94220752D01*
X75962595Y-94220754D01*
X75773439Y-94337874D01*
X75773437Y-94337876D01*
X75609020Y-94487761D01*
X75474943Y-94665308D01*
X75474938Y-94665316D01*
X75375775Y-94864461D01*
X75375769Y-94864476D01*
X75314885Y-95078462D01*
X75314884Y-95078464D01*
X75294357Y-95299999D01*
X73505141Y-95299999D01*
X73505141Y-95299994D01*
X73484614Y-95052270D01*
X73484612Y-95052261D01*
X73423587Y-94811282D01*
X73323732Y-94583632D01*
X73223435Y-94430116D01*
X72523787Y-95129765D01*
X72512518Y-95087708D01*
X72440110Y-94962292D01*
X72337708Y-94859890D01*
X72212292Y-94787482D01*
X72170233Y-94776212D01*
X72870055Y-94076389D01*
X72870055Y-94076388D01*
X72823236Y-94039947D01*
X72823231Y-94039944D01*
X72604614Y-93921635D01*
X72604603Y-93921630D01*
X72369493Y-93840916D01*
X72124293Y-93800000D01*
X71875707Y-93800000D01*
X71630506Y-93840916D01*
X71395396Y-93921630D01*
X71395385Y-93921635D01*
X71176770Y-94039943D01*
X71129943Y-94076389D01*
X71829766Y-94776212D01*
X71787708Y-94787482D01*
X71662292Y-94859890D01*
X71559890Y-94962292D01*
X71487482Y-95087708D01*
X71476212Y-95129765D01*
X70776563Y-94430117D01*
X70676267Y-94583633D01*
X70676265Y-94583637D01*
X70576412Y-94811282D01*
X70515387Y-95052261D01*
X70515385Y-95052270D01*
X70494859Y-95299994D01*
X66250000Y-95299994D01*
X66250000Y-91659311D01*
X76395131Y-91659311D01*
X76395131Y-91659316D01*
X76412498Y-91768972D01*
X76462904Y-91867899D01*
X76462909Y-91867906D01*
X76541407Y-91946404D01*
X76541410Y-91946406D01*
X76541413Y-91946409D01*
X76640339Y-91996814D01*
X76640341Y-91996815D01*
X76749998Y-92014183D01*
X76750000Y-92014183D01*
X76750002Y-92014183D01*
X76859658Y-91996815D01*
X76859659Y-91996814D01*
X76859661Y-91996814D01*
X76958587Y-91946409D01*
X77037095Y-91867901D01*
X77087500Y-91768975D01*
X77087500Y-91768973D01*
X77087501Y-91768972D01*
X77104869Y-91659316D01*
X77104869Y-91659311D01*
X77087501Y-91549655D01*
X77087500Y-91549653D01*
X77037095Y-91450727D01*
X77037092Y-91450724D01*
X77037090Y-91450721D01*
X76958592Y-91372223D01*
X76958588Y-91372220D01*
X76958587Y-91372219D01*
X76954743Y-91370260D01*
X76859658Y-91321812D01*
X76750002Y-91304445D01*
X76749998Y-91304445D01*
X76640341Y-91321812D01*
X76541414Y-91372218D01*
X76541407Y-91372223D01*
X76462909Y-91450721D01*
X76462904Y-91450728D01*
X76412498Y-91549655D01*
X76395131Y-91659311D01*
X66250000Y-91659311D01*
X66250000Y-90522914D01*
X75895131Y-90522914D01*
X75895131Y-90522919D01*
X75912498Y-90632575D01*
X75962904Y-90731502D01*
X75962909Y-90731509D01*
X76041407Y-90810007D01*
X76041410Y-90810009D01*
X76041413Y-90810012D01*
X76140339Y-90860417D01*
X76140341Y-90860418D01*
X76249998Y-90877786D01*
X76250000Y-90877786D01*
X76250002Y-90877786D01*
X76359658Y-90860418D01*
X76359659Y-90860417D01*
X76359661Y-90860417D01*
X76458587Y-90810012D01*
X76537095Y-90731504D01*
X76587500Y-90632578D01*
X76587500Y-90632576D01*
X76587501Y-90632575D01*
X76604869Y-90522919D01*
X76604869Y-90522914D01*
X76587501Y-90413258D01*
X76548694Y-90337095D01*
X76537095Y-90314330D01*
X76537092Y-90314327D01*
X76537090Y-90314324D01*
X76458592Y-90235826D01*
X76458588Y-90235823D01*
X76458587Y-90235822D01*
X76454743Y-90233863D01*
X76359658Y-90185415D01*
X76250002Y-90168048D01*
X76249998Y-90168048D01*
X76140341Y-90185415D01*
X76041414Y-90235821D01*
X76041407Y-90235826D01*
X75962909Y-90314324D01*
X75962904Y-90314331D01*
X75912498Y-90413258D01*
X75895131Y-90522914D01*
X66250000Y-90522914D01*
X66250000Y-90049997D01*
X74895131Y-90049997D01*
X74895131Y-90050002D01*
X74912498Y-90159658D01*
X74962904Y-90258585D01*
X74962909Y-90258592D01*
X75041407Y-90337090D01*
X75041410Y-90337092D01*
X75041413Y-90337095D01*
X75140339Y-90387500D01*
X75140341Y-90387501D01*
X75249998Y-90404869D01*
X75250000Y-90404869D01*
X75250002Y-90404869D01*
X75359658Y-90387501D01*
X75359659Y-90387500D01*
X75359661Y-90387500D01*
X75458587Y-90337095D01*
X75537095Y-90258587D01*
X75587500Y-90159661D01*
X75587500Y-90159659D01*
X75587501Y-90159658D01*
X75604869Y-90050002D01*
X75604869Y-90049997D01*
X75587501Y-89940341D01*
X75587500Y-89940339D01*
X75537095Y-89841413D01*
X75537092Y-89841410D01*
X75537090Y-89841407D01*
X75458592Y-89762909D01*
X75458588Y-89762906D01*
X75458587Y-89762905D01*
X75454743Y-89760946D01*
X75359658Y-89712498D01*
X75250002Y-89695131D01*
X75249998Y-89695131D01*
X75140341Y-89712498D01*
X75041414Y-89762904D01*
X75041407Y-89762909D01*
X74962909Y-89841407D01*
X74962904Y-89841414D01*
X74912498Y-89940341D01*
X74895131Y-90049997D01*
X66250000Y-90049997D01*
X66250000Y-80624500D01*
X66269685Y-80557461D01*
X66322489Y-80511706D01*
X66374000Y-80500500D01*
X105934108Y-80500500D01*
X105996949Y-80500500D01*
X106003032Y-80500648D01*
G37*
%TD.AperFunction*%
%TD*%
M02*
