%TF.GenerationSoftware,KiCad,Pcbnew,8.0.7*%
%TF.CreationDate,2025-02-06T19:44:26+13:00*%
%TF.ProjectId,Housens-L,486f7573-656e-4732-9d4c-2e6b69636164,001*%
%TF.SameCoordinates,Original*%
%TF.FileFunction,Copper,L1,Top*%
%TF.FilePolarity,Positive*%
%FSLAX46Y46*%
G04 Gerber Fmt 4.6, Leading zero omitted, Abs format (unit mm)*
G04 Created by KiCad (PCBNEW 8.0.7) date 2025-02-06 19:44:26*
%MOMM*%
%LPD*%
G01*
G04 APERTURE LIST*
G04 Aperture macros list*
%AMRoundRect*
0 Rectangle with rounded corners*
0 $1 Rounding radius*
0 $2 $3 $4 $5 $6 $7 $8 $9 X,Y pos of 4 corners*
0 Add a 4 corners polygon primitive as box body*
4,1,4,$2,$3,$4,$5,$6,$7,$8,$9,$2,$3,0*
0 Add four circle primitives for the rounded corners*
1,1,$1+$1,$2,$3*
1,1,$1+$1,$4,$5*
1,1,$1+$1,$6,$7*
1,1,$1+$1,$8,$9*
0 Add four rect primitives between the rounded corners*
20,1,$1+$1,$2,$3,$4,$5,0*
20,1,$1+$1,$4,$5,$6,$7,0*
20,1,$1+$1,$6,$7,$8,$9,0*
20,1,$1+$1,$8,$9,$2,$3,0*%
G04 Aperture macros list end*
%TA.AperFunction,EtchedComponent*%
%ADD10C,0.000000*%
%TD*%
%TA.AperFunction,SMDPad,CuDef*%
%ADD11RoundRect,0.200000X-0.200000X-0.275000X0.200000X-0.275000X0.200000X0.275000X-0.200000X0.275000X0*%
%TD*%
%TA.AperFunction,SMDPad,CuDef*%
%ADD12RoundRect,0.200000X-0.275000X0.200000X-0.275000X-0.200000X0.275000X-0.200000X0.275000X0.200000X0*%
%TD*%
%TA.AperFunction,ConnectorPad*%
%ADD13R,0.500000X0.500000*%
%TD*%
%TA.AperFunction,ComponentPad*%
%ADD14R,0.900000X0.900000*%
%TD*%
%TA.AperFunction,SMDPad,CuDef*%
%ADD15RoundRect,0.225000X-0.250000X0.225000X-0.250000X-0.225000X0.250000X-0.225000X0.250000X0.225000X0*%
%TD*%
%TA.AperFunction,SMDPad,CuDef*%
%ADD16RoundRect,0.225000X0.225000X0.250000X-0.225000X0.250000X-0.225000X-0.250000X0.225000X-0.250000X0*%
%TD*%
%TA.AperFunction,ComponentPad*%
%ADD17C,5.600000*%
%TD*%
%TA.AperFunction,SMDPad,CuDef*%
%ADD18RoundRect,0.225000X0.250000X-0.225000X0.250000X0.225000X-0.250000X0.225000X-0.250000X-0.225000X0*%
%TD*%
%TA.AperFunction,SMDPad,CuDef*%
%ADD19R,0.300000X0.720000*%
%TD*%
%TA.AperFunction,SMDPad,CuDef*%
%ADD20R,0.900000X0.800000*%
%TD*%
%TA.AperFunction,SMDPad,CuDef*%
%ADD21RoundRect,0.062500X-0.062500X0.375000X-0.062500X-0.375000X0.062500X-0.375000X0.062500X0.375000X0*%
%TD*%
%TA.AperFunction,SMDPad,CuDef*%
%ADD22RoundRect,0.062500X-0.375000X0.062500X-0.375000X-0.062500X0.375000X-0.062500X0.375000X0.062500X0*%
%TD*%
%TA.AperFunction,HeatsinkPad*%
%ADD23C,0.500000*%
%TD*%
%TA.AperFunction,HeatsinkPad*%
%ADD24R,5.600000X5.600000*%
%TD*%
%TA.AperFunction,SMDPad,CuDef*%
%ADD25RoundRect,0.200000X0.200000X0.275000X-0.200000X0.275000X-0.200000X-0.275000X0.200000X-0.275000X0*%
%TD*%
%TA.AperFunction,SMDPad,CuDef*%
%ADD26R,0.350000X0.500000*%
%TD*%
%TA.AperFunction,SMDPad,CuDef*%
%ADD27RoundRect,0.225000X-0.225000X-0.250000X0.225000X-0.250000X0.225000X0.250000X-0.225000X0.250000X0*%
%TD*%
%TA.AperFunction,SMDPad,CuDef*%
%ADD28RoundRect,0.150000X0.512500X0.150000X-0.512500X0.150000X-0.512500X-0.150000X0.512500X-0.150000X0*%
%TD*%
%TA.AperFunction,SMDPad,CuDef*%
%ADD29C,2.000000*%
%TD*%
%TA.AperFunction,SMDPad,CuDef*%
%ADD30R,2.400000X0.740000*%
%TD*%
%TA.AperFunction,SMDPad,CuDef*%
%ADD31RoundRect,0.200000X0.275000X-0.200000X0.275000X0.200000X-0.275000X0.200000X-0.275000X-0.200000X0*%
%TD*%
%TA.AperFunction,SMDPad,CuDef*%
%ADD32R,3.200000X1.000000*%
%TD*%
%TA.AperFunction,ComponentPad*%
%ADD33C,0.700000*%
%TD*%
%TA.AperFunction,ComponentPad*%
%ADD34O,0.900000X2.400000*%
%TD*%
%TA.AperFunction,ComponentPad*%
%ADD35O,0.900000X1.700000*%
%TD*%
%TA.AperFunction,ComponentPad*%
%ADD36C,2.000000*%
%TD*%
%TA.AperFunction,SMDPad,CuDef*%
%ADD37R,1.000000X3.200000*%
%TD*%
%TA.AperFunction,ComponentPad*%
%ADD38C,1.000000*%
%TD*%
%TA.AperFunction,ViaPad*%
%ADD39C,0.400000*%
%TD*%
%TA.AperFunction,ViaPad*%
%ADD40C,0.450000*%
%TD*%
%TA.AperFunction,Conductor*%
%ADD41C,0.300000*%
%TD*%
%TA.AperFunction,Conductor*%
%ADD42C,0.400000*%
%TD*%
%TA.AperFunction,Conductor*%
%ADD43C,0.200000*%
%TD*%
%TA.AperFunction,Conductor*%
%ADD44C,0.600000*%
%TD*%
%TA.AperFunction,Conductor*%
%ADD45C,0.800000*%
%TD*%
%TA.AperFunction,Conductor*%
%ADD46C,0.250000*%
%TD*%
%TA.AperFunction,Conductor*%
%ADD47C,0.500000*%
%TD*%
%TA.AperFunction,Conductor*%
%ADD48C,0.275000*%
%TD*%
G04 APERTURE END LIST*
D10*
%TA.AperFunction,EtchedComponent*%
%TO.C,AE1*%
G36*
X65015000Y-94900000D02*
G01*
X61075000Y-94900000D01*
X61075000Y-96600000D01*
X63715000Y-96600000D01*
X63715000Y-99600000D01*
X61075000Y-99600000D01*
X61075000Y-101300000D01*
X63715000Y-101300000D01*
X63715000Y-104300000D01*
X61075000Y-104300000D01*
X61075000Y-106000000D01*
X65975000Y-106000000D01*
X65975000Y-106500000D01*
X61075000Y-106500000D01*
X61075000Y-107900000D01*
X65975000Y-107900000D01*
X65975000Y-108800000D01*
X65731785Y-108800000D01*
X60575000Y-108800000D01*
X60575000Y-108357267D01*
X65577018Y-108357267D01*
X65584908Y-108405353D01*
X65601814Y-108438245D01*
X65638584Y-108473185D01*
X65683378Y-108492847D01*
X65731785Y-108497583D01*
X65779395Y-108487742D01*
X65821797Y-108463674D01*
X65854581Y-108425731D01*
X65858935Y-108417819D01*
X65871043Y-108375156D01*
X65870300Y-108326637D01*
X65857400Y-108281122D01*
X65846787Y-108262511D01*
X65811553Y-108228868D01*
X65766368Y-108208309D01*
X65716842Y-108201778D01*
X65668583Y-108210218D01*
X65636357Y-108227112D01*
X65603687Y-108262372D01*
X65583592Y-108307682D01*
X65577018Y-108357267D01*
X60575000Y-108357267D01*
X60575000Y-103800000D01*
X63215000Y-103800000D01*
X63215000Y-101800000D01*
X60575000Y-101800000D01*
X60575000Y-99100000D01*
X63215000Y-99100000D01*
X63215000Y-97100000D01*
X60575000Y-97100000D01*
X60575000Y-94400000D01*
X65015000Y-94400000D01*
X65015000Y-94900000D01*
G37*
%TD.AperFunction*%
%TD*%
D11*
%TO.P,R7,1*%
%TO.N,/FUEL_ADC*%
X92525000Y-123500000D03*
%TO.P,R7,2*%
%TO.N,Net-(Q1B-D)*%
X94175000Y-123500000D03*
%TD*%
D12*
%TO.P,R2,1*%
%TO.N,+1V8*%
X70500000Y-85400000D03*
%TO.P,R2,2*%
%TO.N,/I2C1_SDA*%
X70500000Y-87050000D03*
%TD*%
D13*
%TO.P,AE1,1,A*%
%TO.N,Net-(AE1-A)*%
X65725000Y-106250000D03*
D14*
%TO.P,AE1,2*%
%TO.N,N/C*%
X65525000Y-108350000D03*
%TD*%
D15*
%TO.P,C8,1*%
%TO.N,+1V8*%
X89525000Y-110075000D03*
%TO.P,C8,2*%
%TO.N,GND*%
X89525000Y-111625000D03*
%TD*%
D16*
%TO.P,C16,1*%
%TO.N,+1V8*%
X78950000Y-113706250D03*
%TO.P,C16,2*%
%TO.N,GND*%
X77400000Y-113706250D03*
%TD*%
D17*
%TO.P,H2,1,1*%
%TO.N,GND*%
X106000000Y-84000000D03*
%TD*%
D16*
%TO.P,C15,1*%
%TO.N,+1V8*%
X78950000Y-115416250D03*
%TO.P,C15,2*%
%TO.N,GND*%
X77400000Y-115416250D03*
%TD*%
D18*
%TO.P,C1,1*%
%TO.N,+BATT*%
X107500000Y-117275000D03*
%TO.P,C1,2*%
%TO.N,GND*%
X107500000Y-115725000D03*
%TD*%
D19*
%TO.P,U3,1,VDD*%
%TO.N,+1V8*%
X76750000Y-87280000D03*
%TO.P,U3,2,ADDR*%
%TO.N,GND*%
X76250000Y-87280000D03*
%TO.P,U3,3*%
%TO.N,N/C*%
X75750000Y-87280000D03*
%TO.P,U3,4,GND*%
%TO.N,GND*%
X75250000Y-87280000D03*
%TO.P,U3,5,SCL*%
%TO.N,/I2C1_SCL*%
X75250000Y-89000000D03*
%TO.P,U3,6*%
%TO.N,N/C*%
X75750000Y-89000000D03*
%TO.P,U3,7,INT*%
%TO.N,/OPT_INT*%
X76250000Y-89000000D03*
%TO.P,U3,8,SDA*%
%TO.N,/I2C1_SDA*%
X76750000Y-89000000D03*
%TD*%
D18*
%TO.P,C6,1*%
%TO.N,Net-(U4-VFBSMPS)*%
X82262500Y-115625000D03*
%TO.P,C6,2*%
%TO.N,GND*%
X82262500Y-114075000D03*
%TD*%
D20*
%TO.P,Y1,1,1*%
%TO.N,Net-(U4-OSC_IN)*%
X82937500Y-110600000D03*
%TO.P,Y1,2,2*%
%TO.N,GND*%
X81537500Y-110600000D03*
%TO.P,Y1,3,3*%
%TO.N,Net-(U4-OSC_OUT)*%
X81537500Y-111700000D03*
%TO.P,Y1,4,4*%
%TO.N,GND*%
X82937500Y-111700000D03*
%TD*%
D12*
%TO.P,R3,1*%
%TO.N,+1V8*%
X72200000Y-85400000D03*
%TO.P,R3,2*%
%TO.N,/OPT_INT*%
X72200000Y-87050000D03*
%TD*%
D18*
%TO.P,C4,1*%
%TO.N,+1V8*%
X76900000Y-83475000D03*
%TO.P,C4,2*%
%TO.N,GND*%
X76900000Y-81925000D03*
%TD*%
D21*
%TO.P,U4,1,VBAT*%
%TO.N,+BATT*%
X87750000Y-101562500D03*
%TO.P,U4,2,PC14*%
%TO.N,Net-(U4-PC14)*%
X87250000Y-101562500D03*
%TO.P,U4,3,PC15*%
%TO.N,Net-(U4-PC15)*%
X86750000Y-101562500D03*
%TO.P,U4,4,PH3*%
%TO.N,GND*%
X86250000Y-101562500D03*
%TO.P,U4,5,PB8*%
%TO.N,/I2C1_SCL*%
X85750000Y-101562500D03*
%TO.P,U4,6,PB9*%
%TO.N,/OPT_INT*%
X85250000Y-101562500D03*
%TO.P,U4,7,NRST*%
%TO.N,Net-(U4-NRST)*%
X84750000Y-101562500D03*
%TO.P,U4,8,VDDA*%
%TO.N,+1V8*%
X84250000Y-101562500D03*
%TO.P,U4,9,PA0*%
%TO.N,unconnected-(U4-PA0-Pad9)*%
X83750000Y-101562500D03*
%TO.P,U4,10,PA1*%
%TO.N,unconnected-(U4-PA1-Pad10)*%
X83250000Y-101562500D03*
%TO.P,U4,11,PA2*%
%TO.N,/FUEL_ADC*%
X82750000Y-101562500D03*
%TO.P,U4,12,PA3*%
%TO.N,/FUEL_CTL*%
X82250000Y-101562500D03*
D22*
%TO.P,U4,13,PA4*%
%TO.N,/SPI1_CS*%
X81562500Y-102250000D03*
%TO.P,U4,14,PA5*%
%TO.N,/SPI1_CLK*%
X81562500Y-102750000D03*
%TO.P,U4,15,PA6*%
%TO.N,/SPI1_SDI*%
X81562500Y-103250000D03*
%TO.P,U4,16,PA7*%
%TO.N,/SPI1_SDO*%
X81562500Y-103750000D03*
%TO.P,U4,17,PA8*%
%TO.N,/USB_DETECT*%
X81562500Y-104250000D03*
%TO.P,U4,18,PA9*%
%TO.N,unconnected-(U4-PA9-Pad18)*%
X81562500Y-104750000D03*
%TO.P,U4,19,PB2*%
%TO.N,unconnected-(U4-PB2-Pad19)*%
X81562500Y-105250000D03*
%TO.P,U4,20,VDD*%
%TO.N,+1V8*%
X81562500Y-105750000D03*
%TO.P,U4,21,RF1*%
%TO.N,Net-(AE1-A)*%
X81562500Y-106250000D03*
%TO.P,U4,22,VSSRF*%
%TO.N,GND*%
X81562500Y-106750000D03*
%TO.P,U4,23,VDDRF*%
%TO.N,+1V8*%
X81562500Y-107250000D03*
%TO.P,U4,24,OSC_OUT*%
%TO.N,Net-(U4-OSC_OUT)*%
X81562500Y-107750000D03*
D21*
%TO.P,U4,25,OSC_IN*%
%TO.N,Net-(U4-OSC_IN)*%
X82250000Y-108437500D03*
%TO.P,U4,26,AT0*%
%TO.N,unconnected-(U4-AT0-Pad26)*%
X82750000Y-108437500D03*
%TO.P,U4,27,AT1*%
%TO.N,unconnected-(U4-AT1-Pad27)*%
X83250000Y-108437500D03*
%TO.P,U4,28,PB0*%
%TO.N,/USER_BTN*%
X83750000Y-108437500D03*
%TO.P,U4,29,PB1*%
%TO.N,unconnected-(U4-PB1-Pad29)*%
X84250000Y-108437500D03*
%TO.P,U4,30,PE4*%
%TO.N,unconnected-(U4-PE4-Pad30)*%
X84750000Y-108437500D03*
%TO.P,U4,31,VFBSMPS*%
%TO.N,Net-(U4-VFBSMPS)*%
X85250000Y-108437500D03*
%TO.P,U4,32,VSSSMPS*%
%TO.N,GND*%
X85750000Y-108437500D03*
%TO.P,U4,33,VLXSMPS*%
%TO.N,Net-(U4-VLXSMPS)*%
X86250000Y-108437500D03*
%TO.P,U4,34,VDDSMPS*%
%TO.N,+1V8*%
X86750000Y-108437500D03*
%TO.P,U4,35,VDD*%
X87250000Y-108437500D03*
%TO.P,U4,36,PA10*%
%TO.N,unconnected-(U4-PA10-Pad36)*%
X87750000Y-108437500D03*
D22*
%TO.P,U4,37,PA11*%
%TO.N,/USB_D_N*%
X88437500Y-107750000D03*
%TO.P,U4,38,PA12*%
%TO.N,/USB_D_P*%
X88437500Y-107250000D03*
%TO.P,U4,39,PA13*%
%TO.N,/SWDIO_JTMS*%
X88437500Y-106750000D03*
%TO.P,U4,40,VDDUSB*%
%TO.N,+BATT*%
X88437500Y-106250000D03*
%TO.P,U4,41,PA14*%
%TO.N,/SWCLK_JTCK*%
X88437500Y-105750000D03*
%TO.P,U4,42,PA15*%
%TO.N,/JTDI*%
X88437500Y-105250000D03*
%TO.P,U4,43,PB3*%
%TO.N,/SWTRACE_JTDO*%
X88437500Y-104750000D03*
%TO.P,U4,44,PB4*%
%TO.N,/JTRST*%
X88437500Y-104250000D03*
%TO.P,U4,45,PB5*%
%TO.N,unconnected-(U4-PB5-Pad45)*%
X88437500Y-103750000D03*
%TO.P,U4,46,PB6*%
%TO.N,unconnected-(U4-PB6-Pad46)*%
X88437500Y-103250000D03*
%TO.P,U4,47,PB7*%
%TO.N,/I2C1_SDA*%
X88437500Y-102750000D03*
%TO.P,U4,48,VDD*%
%TO.N,+1V8*%
X88437500Y-102250000D03*
D23*
%TO.P,U4,49,VSS*%
%TO.N,GND*%
X87550000Y-102450000D03*
X86275000Y-102450000D03*
X85000000Y-102450000D03*
X83725000Y-102450000D03*
X82450000Y-102450000D03*
X87550000Y-103725000D03*
X86275000Y-103725000D03*
X85000000Y-103725000D03*
X83725000Y-103725000D03*
X82450000Y-103725000D03*
X87550000Y-105000000D03*
X86275000Y-105000000D03*
X85000000Y-105000000D03*
D24*
X85000000Y-105000000D03*
D23*
X83725000Y-105000000D03*
X82450000Y-105000000D03*
X87550000Y-106275000D03*
X86275000Y-106275000D03*
X85000000Y-106275000D03*
X83725000Y-106275000D03*
X82450000Y-106275000D03*
X87550000Y-107550000D03*
X86275000Y-107550000D03*
X85000000Y-107550000D03*
X83725000Y-107550000D03*
X82450000Y-107550000D03*
%TD*%
D17*
%TO.P,H3,1,1*%
%TO.N,+BATT*%
X106000000Y-126000000D03*
%TD*%
D25*
%TO.P,R6,1*%
%TO.N,+BATT*%
X98300000Y-127325000D03*
%TO.P,R6,2*%
%TO.N,Net-(Q1A-D)*%
X96650000Y-127325000D03*
%TD*%
D26*
%TO.P,U2,1,GND*%
%TO.N,GND*%
X86000000Y-87050000D03*
%TO.P,U2,2,CSB*%
%TO.N,/SPI1_CS*%
X85350000Y-87050000D03*
%TO.P,U2,3,SDI*%
%TO.N,/SPI1_SDO*%
X84700000Y-87050000D03*
%TO.P,U2,4,SCK*%
%TO.N,/SPI1_CLK*%
X84050000Y-87050000D03*
%TO.P,U2,5,SDO*%
%TO.N,/SPI1_SDI*%
X84050000Y-85000000D03*
%TO.P,U2,6,VDDIO*%
%TO.N,+1V8*%
X84700000Y-85000000D03*
%TO.P,U2,7,GND*%
%TO.N,GND*%
X85350000Y-85000000D03*
%TO.P,U2,8,VDD*%
%TO.N,+1V8*%
X86000000Y-85000000D03*
%TD*%
D18*
%TO.P,C11,1*%
%TO.N,+1V8*%
X83237500Y-99250000D03*
%TO.P,C11,2*%
%TO.N,GND*%
X83237500Y-97700000D03*
%TD*%
D27*
%TO.P,C2,1*%
%TO.N,+1V8*%
X103025000Y-115350000D03*
%TO.P,C2,2*%
%TO.N,GND*%
X104575000Y-115350000D03*
%TD*%
D28*
%TO.P,U1,1,V_{IN}*%
%TO.N,+BATT*%
X105400000Y-119250000D03*
%TO.P,U1,2,GND*%
%TO.N,GND*%
X105400000Y-118300000D03*
%TO.P,U1,3,~{SHDN}*%
%TO.N,+BATT*%
X105400000Y-117350000D03*
%TO.P,U1,4,V_{FB}*%
%TO.N,+1V8*%
X103125000Y-117350000D03*
%TO.P,U1,5,L_{X}*%
%TO.N,Net-(U1-L_{X})*%
X103125000Y-119250000D03*
%TD*%
D16*
%TO.P,C9,1*%
%TO.N,+1V8*%
X91475000Y-100000000D03*
%TO.P,C9,2*%
%TO.N,GND*%
X89925000Y-100000000D03*
%TD*%
D18*
%TO.P,C12,1*%
%TO.N,+1V8*%
X84937500Y-99250000D03*
%TO.P,C12,2*%
%TO.N,GND*%
X84937500Y-97700000D03*
%TD*%
D16*
%TO.P,C10,1*%
%TO.N,+1V8*%
X78950000Y-110293750D03*
%TO.P,C10,2*%
%TO.N,GND*%
X77400000Y-110293750D03*
%TD*%
D29*
%TO.P,TP1,1,1*%
%TO.N,+1V8*%
X95400000Y-113200000D03*
%TD*%
D30*
%TO.P,J1,1,VTref*%
%TO.N,+1V8*%
X105600000Y-98200000D03*
%TO.P,J1,2,SWDIO/TMS*%
%TO.N,/SWDIO_JTMS*%
X101700000Y-98200000D03*
%TO.P,J1,3,GND*%
%TO.N,GND*%
X105600000Y-96930000D03*
%TO.P,J1,4,SWCLK/TCK*%
%TO.N,/SWCLK_JTCK*%
X101700000Y-96930000D03*
%TO.P,J1,5,GND*%
%TO.N,GND*%
X105600000Y-95660000D03*
%TO.P,J1,6,SWO/TDO*%
%TO.N,/SWTRACE_JTDO*%
X101700000Y-95660000D03*
%TO.P,J1,7,KEY*%
%TO.N,unconnected-(J1-KEY-Pad7)*%
X105600000Y-94390000D03*
%TO.P,J1,8,NC/TDI*%
%TO.N,/JTDI*%
X101700000Y-94390000D03*
%TO.P,J1,9,GNDDetect*%
%TO.N,GND*%
X105600000Y-93120000D03*
%TO.P,J1,10,~{RESET}*%
%TO.N,/JTRST*%
X101700000Y-93120000D03*
%TD*%
D11*
%TO.P,R5,1*%
%TO.N,/USB_DETECT*%
X80475000Y-122000000D03*
%TO.P,R5,2*%
%TO.N,Net-(J2-VBUS-PadA4)*%
X82125000Y-122000000D03*
%TD*%
D18*
%TO.P,C14,1*%
%TO.N,+BATT*%
X95800000Y-121350000D03*
%TO.P,C14,2*%
%TO.N,GND*%
X95800000Y-119800000D03*
%TD*%
D28*
%TO.P,Q1,1,G*%
%TO.N,/FUEL_CTL*%
X98700000Y-125425000D03*
%TO.P,Q1,2,S*%
%TO.N,+BATT*%
X98700000Y-124475000D03*
%TO.P,Q1,3,G*%
%TO.N,Net-(Q1A-D)*%
X98700000Y-123525000D03*
%TO.P,Q1,4,D*%
%TO.N,Net-(Q1B-D)*%
X96425000Y-123525000D03*
%TO.P,Q1,5,S*%
%TO.N,GND*%
X96425000Y-124475000D03*
%TO.P,Q1,6,D*%
%TO.N,Net-(Q1A-D)*%
X96425000Y-125425000D03*
%TD*%
D31*
%TO.P,R4,1*%
%TO.N,/SPI1_SDI*%
X84190000Y-83490000D03*
%TO.P,R4,2*%
%TO.N,GND*%
X84190000Y-81840000D03*
%TD*%
D15*
%TO.P,C13,1*%
%TO.N,+1V8*%
X87725000Y-110075000D03*
%TO.P,C13,2*%
%TO.N,GND*%
X87725000Y-111625000D03*
%TD*%
D32*
%TO.P,L1,1,1*%
%TO.N,Net-(U1-L_{X})*%
X99400000Y-119450000D03*
%TO.P,L1,2,2*%
%TO.N,+1V8*%
X99400000Y-117250000D03*
%TD*%
D25*
%TO.P,R9,1*%
%TO.N,+1V8*%
X79000000Y-118000000D03*
%TO.P,R9,2*%
%TO.N,/USER_BTN*%
X77350000Y-118000000D03*
%TD*%
%TO.P,R8,1*%
%TO.N,GND*%
X94175000Y-125350000D03*
%TO.P,R8,2*%
%TO.N,/FUEL_ADC*%
X92525000Y-125350000D03*
%TD*%
D16*
%TO.P,C7,1*%
%TO.N,+1V8*%
X78950000Y-111993750D03*
%TO.P,C7,2*%
%TO.N,GND*%
X77400000Y-111993750D03*
%TD*%
D33*
%TO.P,J2,A1,GND*%
%TO.N,GND*%
X82050000Y-124100000D03*
%TO.P,J2,A4,VBUS*%
%TO.N,Net-(J2-VBUS-PadA4)*%
X82900000Y-124100000D03*
%TO.P,J2,A5,CC1*%
%TO.N,unconnected-(J2-CC1-PadA5)*%
X83750000Y-124100000D03*
%TO.P,J2,A6,D+*%
%TO.N,/USB_D_P*%
X84600000Y-124100000D03*
%TO.P,J2,A7,D-*%
%TO.N,/USB_D_N*%
X85450000Y-124100000D03*
%TO.P,J2,A8*%
%TO.N,N/C*%
X86300000Y-124100000D03*
%TO.P,J2,A9,VBUS*%
%TO.N,Net-(J2-VBUS-PadA4)*%
X87150000Y-124100000D03*
%TO.P,J2,A12,GND*%
%TO.N,GND*%
X88000000Y-124100000D03*
%TO.P,J2,B1,GND*%
X88000000Y-125450000D03*
%TO.P,J2,B4,VBUS*%
%TO.N,Net-(J2-VBUS-PadA4)*%
X87150000Y-125450000D03*
%TO.P,J2,B5,CC2*%
%TO.N,unconnected-(J2-CC2-PadB5)*%
X86300000Y-125450000D03*
%TO.P,J2,B6,D+*%
%TO.N,/USB_D_P*%
X85450000Y-125450000D03*
%TO.P,J2,B7,D-*%
%TO.N,/USB_D_N*%
X84600000Y-125450000D03*
%TO.P,J2,B8*%
%TO.N,N/C*%
X83750000Y-125450000D03*
%TO.P,J2,B9,VBUS*%
%TO.N,Net-(J2-VBUS-PadA4)*%
X82900000Y-125450000D03*
%TO.P,J2,B12,GND*%
%TO.N,GND*%
X82050000Y-125450000D03*
D34*
%TO.P,J2,S1,SHIELD*%
X80700000Y-125080000D03*
D35*
X80700000Y-128460000D03*
D34*
X89350000Y-125080000D03*
D35*
X89350000Y-128460000D03*
%TD*%
D12*
%TO.P,R1,1*%
%TO.N,+1V8*%
X68800000Y-85405000D03*
%TO.P,R1,2*%
%TO.N,/I2C1_SCL*%
X68800000Y-87055000D03*
%TD*%
D18*
%TO.P,C5,1*%
%TO.N,+1V8*%
X75175000Y-83475000D03*
%TO.P,C5,2*%
%TO.N,GND*%
X75175000Y-81925000D03*
%TD*%
D36*
%TO.P,SW2,1,1*%
%TO.N,GND*%
X76250000Y-126250000D03*
X69750000Y-126250000D03*
%TO.P,SW2,2,2*%
%TO.N,/USER_BTN*%
X76250000Y-121750000D03*
X69750000Y-121750000D03*
%TD*%
D37*
%TO.P,L2,1,1*%
%TO.N,Net-(U4-VFBSMPS)*%
X84662500Y-115750000D03*
%TO.P,L2,2,2*%
%TO.N,Net-(U4-VLXSMPS)*%
X86862500Y-115750000D03*
%TD*%
D18*
%TO.P,C3,1*%
%TO.N,+1V8*%
X85900000Y-83445000D03*
%TO.P,C3,2*%
%TO.N,GND*%
X85900000Y-81895000D03*
%TD*%
D38*
%TO.P,Y2,1*%
%TO.N,Net-(U4-PC14)*%
X88300000Y-100300000D03*
%TO.P,Y2,2*%
%TO.N,Net-(U4-PC15)*%
X90096051Y-98503949D03*
%TD*%
D36*
%TO.P,SW1,1,1*%
%TO.N,GND*%
X72000000Y-95300000D03*
X72000000Y-101800000D03*
%TO.P,SW1,2,2*%
%TO.N,Net-(U4-NRST)*%
X76500000Y-95300000D03*
X76500000Y-101800000D03*
%TD*%
D39*
%TO.N,+BATT*%
X89600000Y-102200000D03*
X92650000Y-118500000D03*
X88330000Y-101540000D03*
X90100000Y-108400000D03*
D40*
%TO.N,GND*%
X73461112Y-107000000D03*
X66700000Y-96177778D03*
X80183334Y-105500000D03*
D39*
X106000000Y-115900000D03*
X103980000Y-93120000D03*
D40*
X78502778Y-107000000D03*
D39*
X84100000Y-97100000D03*
X106800000Y-115000000D03*
X85750000Y-110500000D03*
D40*
X66738889Y-105500000D03*
X74301389Y-107000000D03*
X66700000Y-94497222D03*
X66700000Y-107900000D03*
X66700000Y-99538889D03*
X74301389Y-105500000D03*
X66700000Y-103740278D03*
X75141667Y-105500000D03*
X75141667Y-107000000D03*
X66700000Y-102059722D03*
D39*
X77400000Y-109200000D03*
D40*
X66700000Y-102900000D03*
D39*
X83112500Y-113225000D03*
D40*
X66700000Y-97018056D03*
D39*
X84600000Y-96550000D03*
X77400000Y-116500000D03*
D40*
X71780556Y-107000000D03*
X79343056Y-107000000D03*
X70940278Y-105500000D03*
X67579167Y-105500000D03*
D39*
X103960000Y-95660000D03*
X77400000Y-111150000D03*
X75250000Y-86500000D03*
D40*
X77662500Y-105500000D03*
X66738889Y-107000000D03*
X76822223Y-107000000D03*
X66700000Y-95337500D03*
X80183334Y-107000000D03*
X70940278Y-107000000D03*
X68419445Y-105500000D03*
X79343056Y-105500000D03*
D39*
X103920000Y-96930000D03*
D40*
X67579167Y-107000000D03*
D39*
X95500000Y-124475000D03*
X77400000Y-112850000D03*
D40*
X72620834Y-105500000D03*
X66700000Y-101219445D03*
D39*
X87075000Y-111625000D03*
D40*
X66700000Y-104580556D03*
D39*
X85030000Y-81840000D03*
D40*
X71780556Y-105500000D03*
D39*
X86000000Y-86450000D03*
D40*
X70100000Y-105500000D03*
X66700000Y-108740278D03*
D39*
X77400000Y-114550000D03*
D40*
X66700000Y-98698611D03*
D39*
X95800000Y-119000000D03*
D40*
X66700000Y-100379167D03*
D39*
X104500000Y-118300000D03*
D40*
X75981945Y-107000000D03*
D39*
X76000000Y-81925000D03*
X85350000Y-85650000D03*
D40*
X69259723Y-105500000D03*
X66700000Y-97858333D03*
D39*
X83593199Y-96550000D03*
X89150000Y-99450000D03*
X76250000Y-86500000D03*
D40*
X77662500Y-107000000D03*
X76822223Y-105500000D03*
X70100000Y-107000000D03*
X75981945Y-105500000D03*
D39*
X94850000Y-125350000D03*
X104300000Y-117000000D03*
D40*
X68419445Y-107000000D03*
X73461112Y-105500000D03*
D39*
X90150000Y-111625000D03*
D40*
X78502778Y-105500000D03*
X69259723Y-107000000D03*
X72620834Y-107000000D03*
D39*
%TO.N,+1V8*%
X80500000Y-104800000D03*
X80700000Y-107500000D03*
X80400000Y-108000000D03*
%TO.N,/I2C1_SCL*%
X86700000Y-99800000D03*
X75250000Y-90050000D03*
%TO.N,/I2C1_SDA*%
X76750000Y-91659314D03*
X89000000Y-102750000D03*
%TO.N,Net-(U4-NRST)*%
X84400000Y-100400000D03*
%TO.N,/SPI1_SDO*%
X80633861Y-101566139D03*
X80400000Y-103400000D03*
%TO.N,/FUEL_CTL*%
X91250000Y-119050000D03*
X82000000Y-100650000D03*
%TO.N,/SWDIO_JTMS*%
X96400000Y-99000000D03*
X89987500Y-106750000D03*
%TO.N,/JTDI*%
X89050000Y-105250000D03*
X95300000Y-97600000D03*
%TO.N,/JTRST*%
X89274991Y-103821445D03*
X95150000Y-95942893D03*
%TO.N,/SWCLK_JTCK*%
X90000000Y-105750000D03*
X95300000Y-98700000D03*
%TO.N,/SWTRACE_JTDO*%
X95850000Y-96750000D03*
X89425000Y-104675000D03*
%TO.N,/USB_D_N*%
X89200000Y-108100000D03*
X89000000Y-113000000D03*
X85452599Y-121623377D03*
X88700000Y-118300000D03*
%TO.N,/USB_D_P*%
X88100000Y-118200000D03*
X88299997Y-113000000D03*
X89062500Y-107250000D03*
X84950000Y-121400000D03*
%TO.N,/OPT_INT*%
X76250000Y-90522917D03*
X85735357Y-100228249D03*
%TO.N,/USB_DETECT*%
X80950000Y-104250000D03*
X80400000Y-118600000D03*
%TO.N,/FUEL_ADC*%
X83000000Y-100650000D03*
X91650000Y-118600000D03*
%TO.N,/USER_BTN*%
X83700000Y-113800000D03*
%TD*%
D41*
%TO.N,+BATT*%
X90600000Y-103200000D02*
X89600000Y-102200000D01*
D42*
X105400000Y-120850000D02*
X105400000Y-119250000D01*
D41*
X90100000Y-108400000D02*
X90600000Y-107900000D01*
D42*
X92650000Y-118500000D02*
X95450000Y-121300000D01*
D43*
X90600000Y-106250000D02*
X88437500Y-106250000D01*
D42*
X95450000Y-121300000D02*
X104950000Y-121300000D01*
D41*
X88330000Y-101540000D02*
X87772500Y-101540000D01*
X90600000Y-107900000D02*
X90600000Y-103200000D01*
D42*
X104950000Y-121300000D02*
X105400000Y-120850000D01*
%TO.N,GND*%
X77400000Y-110293750D02*
X77400000Y-115416250D01*
D41*
X87075000Y-111625000D02*
X87725000Y-111625000D01*
D42*
X86000000Y-86380000D02*
X85350000Y-85730000D01*
X88912500Y-111625000D02*
X87725000Y-111625000D01*
D43*
X83112500Y-111800000D02*
X83112500Y-111850000D01*
D42*
X84190000Y-81840000D02*
X85845000Y-81840000D01*
X95150000Y-125050000D02*
X95150000Y-124825000D01*
D43*
X104300000Y-117000000D02*
X104300000Y-116500000D01*
D42*
X85350000Y-85730000D02*
X85350000Y-85650000D01*
X96425000Y-124475000D02*
X95500000Y-124475000D01*
D43*
X83250000Y-106750000D02*
X85000000Y-105000000D01*
X89525000Y-111625000D02*
X89400000Y-111625000D01*
D42*
X77400000Y-115416250D02*
X77400000Y-116500000D01*
X95800000Y-119000000D02*
X95800000Y-119800000D01*
X75175000Y-81925000D02*
X76900000Y-81925000D01*
D44*
X103920000Y-96930000D02*
X105600000Y-96930000D01*
D43*
X81562500Y-106750000D02*
X81512500Y-106800000D01*
D44*
X103960000Y-95660000D02*
X105600000Y-95660000D01*
D42*
X105400000Y-118300000D02*
X104500000Y-118300000D01*
D44*
X105600000Y-96930000D02*
X105600000Y-95660000D01*
D43*
X85750000Y-108437500D02*
X85750000Y-105750000D01*
D42*
X104500000Y-118300000D02*
X104300000Y-118100000D01*
X88912500Y-111625000D02*
X90150000Y-111625000D01*
X104300000Y-118100000D02*
X104300000Y-115625000D01*
D43*
X86300000Y-101512500D02*
X86250000Y-101562500D01*
X80545833Y-106800000D02*
X80345833Y-107000000D01*
D42*
X95150000Y-124825000D02*
X95500000Y-124475000D01*
D41*
X89150000Y-99450000D02*
X89700000Y-100000000D01*
D42*
X103980000Y-93120000D02*
X105600000Y-93120000D01*
X86000000Y-86450000D02*
X86000000Y-87050000D01*
D43*
X85750000Y-105750000D02*
X85000000Y-105000000D01*
D42*
X86000000Y-86450000D02*
X86000000Y-86380000D01*
X83112500Y-113225000D02*
X83112500Y-111850000D01*
D43*
X85750000Y-108437500D02*
X85750000Y-110500000D01*
X87725000Y-111625000D02*
X87725000Y-111650000D01*
D42*
X94850000Y-125350000D02*
X94175000Y-125350000D01*
X85845000Y-81840000D02*
X85900000Y-81895000D01*
X94850000Y-125350000D02*
X95150000Y-125050000D01*
X83112500Y-113225000D02*
X82262500Y-114075000D01*
X89525000Y-111625000D02*
X88912500Y-111625000D01*
D43*
X86250000Y-101562500D02*
X86250000Y-102425000D01*
D42*
X104300000Y-115625000D02*
X104575000Y-115350000D01*
D41*
X76250000Y-87280000D02*
X76250000Y-86500000D01*
X75250000Y-87280000D02*
X75250000Y-86500000D01*
D43*
X86250000Y-102425000D02*
X86275000Y-102450000D01*
D42*
X77400000Y-110293750D02*
X77400000Y-109200000D01*
X85350000Y-85650000D02*
X85350000Y-85000000D01*
D43*
X81512500Y-106800000D02*
X80545833Y-106800000D01*
D41*
X89700000Y-100000000D02*
X89925000Y-100000000D01*
D43*
X81562500Y-106750000D02*
X83250000Y-106750000D01*
D45*
%TO.N,+1V8*%
X89300000Y-119300000D02*
X82833750Y-119300000D01*
D42*
X85900000Y-83445000D02*
X85095000Y-82640000D01*
D45*
X92475000Y-110075000D02*
X95600000Y-113200000D01*
X95400000Y-113200000D02*
X105600000Y-103000000D01*
D43*
X80800000Y-105439386D02*
X81110614Y-105750000D01*
D45*
X78950000Y-109410614D02*
X80525000Y-107835614D01*
X90500000Y-97100000D02*
X88880000Y-97100000D01*
D42*
X76900000Y-87180000D02*
X76800000Y-87280000D01*
D45*
X88880000Y-97100000D02*
X88000000Y-97100000D01*
X90600000Y-110075000D02*
X92475000Y-110075000D01*
D41*
X79000000Y-118000000D02*
X80266875Y-116733125D01*
D45*
X84100000Y-99250000D02*
X83600000Y-99750000D01*
D42*
X86000000Y-85000000D02*
X86000000Y-85070000D01*
X85890000Y-84480000D02*
X86000000Y-84590000D01*
D45*
X78950000Y-110293750D02*
X78950000Y-109410614D01*
D42*
X85095000Y-82640000D02*
X77735000Y-82640000D01*
X85760000Y-84350000D02*
X86000000Y-84590000D01*
D45*
X80266875Y-116733125D02*
X78950000Y-115416250D01*
D43*
X81110614Y-105750000D02*
X81562500Y-105750000D01*
D41*
X80950000Y-107250000D02*
X80700000Y-107500000D01*
D45*
X78950000Y-115416250D02*
X78950000Y-110293750D01*
X88000000Y-97100000D02*
X85850000Y-99250000D01*
D41*
X81562500Y-107250000D02*
X80950000Y-107250000D01*
D42*
X88880000Y-87950000D02*
X88880000Y-97100000D01*
X85760000Y-84350000D02*
X84960000Y-84350000D01*
X84700000Y-85000000D02*
X84700000Y-84610000D01*
D43*
X80800000Y-105100000D02*
X80800000Y-105439386D01*
D45*
X91500000Y-98100000D02*
X90500000Y-97100000D01*
D46*
X81110614Y-107250000D02*
X81562500Y-107250000D01*
D42*
X75175000Y-83475000D02*
X76900000Y-83475000D01*
D45*
X95600000Y-113200000D02*
X99400000Y-117000000D01*
D42*
X77735000Y-82640000D02*
X76900000Y-83475000D01*
D45*
X105600000Y-103000000D02*
X105600000Y-98200000D01*
D42*
X86000000Y-85070000D02*
X88880000Y-87950000D01*
D45*
X95400000Y-113200000D02*
X89300000Y-119300000D01*
X83600000Y-99750000D02*
X83600000Y-100118629D01*
X82833750Y-119300000D02*
X80266875Y-116733125D01*
X89525000Y-110075000D02*
X90600000Y-110075000D01*
D42*
X85890000Y-83445000D02*
X85890000Y-84480000D01*
D43*
X80500000Y-104800000D02*
X80800000Y-105100000D01*
D45*
X84100000Y-99250000D02*
X83237500Y-99250000D01*
X91500000Y-109175000D02*
X91500000Y-98100000D01*
X85850000Y-99250000D02*
X84100000Y-99250000D01*
X90600000Y-110075000D02*
X91500000Y-109175000D01*
X99400000Y-117000000D02*
X99400000Y-117250000D01*
D42*
X76900000Y-83475000D02*
X76900000Y-85400000D01*
X84700000Y-84610000D02*
X84960000Y-84350000D01*
X76900000Y-85400000D02*
X76900000Y-87180000D01*
X86000000Y-84590000D02*
X86000000Y-85000000D01*
D41*
X88437500Y-102250000D02*
X89287500Y-101400000D01*
D42*
X76900000Y-85400000D02*
X68850000Y-85400000D01*
D41*
X89287500Y-101400000D02*
X91425000Y-101400000D01*
D42*
%TO.N,Net-(U4-VFBSMPS)*%
X85250000Y-108975000D02*
X85250000Y-109375000D01*
X84137500Y-115625000D02*
X82262500Y-115625000D01*
X85000000Y-109625000D02*
X85000000Y-114762500D01*
X85250000Y-109375000D02*
X85000000Y-109625000D01*
X85000000Y-114762500D02*
X84137500Y-115625000D01*
%TO.N,Net-(U4-VLXSMPS)*%
X86400000Y-109525000D02*
X86250000Y-109375000D01*
X86400000Y-115287500D02*
X86400000Y-109525000D01*
X86862500Y-115750000D02*
X86400000Y-115287500D01*
X86250000Y-109375000D02*
X86250000Y-109030806D01*
D43*
%TO.N,/I2C1_SCL*%
X85750000Y-101011522D02*
X85750000Y-101562500D01*
X75250000Y-90050000D02*
X75250000Y-89000000D01*
X86700000Y-100061522D02*
X85750000Y-101011522D01*
X70745000Y-89000000D02*
X68800000Y-87055000D01*
X86700000Y-99800000D02*
X86700000Y-100061522D01*
X75250000Y-89000000D02*
X70745000Y-89000000D01*
%TO.N,/I2C1_SDA*%
X76750000Y-89000000D02*
X76750000Y-88390000D01*
X74840000Y-87940000D02*
X73250000Y-86350000D01*
X76750000Y-91659314D02*
X76750000Y-89000000D01*
X76750000Y-88390000D02*
X76300000Y-87940000D01*
X76300000Y-87940000D02*
X74840000Y-87940000D01*
X73250000Y-86350000D02*
X71200000Y-86350000D01*
X71200000Y-86350000D02*
X70500000Y-87050000D01*
X89000000Y-102750000D02*
X88437500Y-102750000D01*
%TO.N,Net-(U4-NRST)*%
X84750000Y-100750000D02*
X84750000Y-101562500D01*
X84400000Y-100400000D02*
X84750000Y-100750000D01*
%TO.N,/SPI1_SDI*%
X81562500Y-103250000D02*
X81044928Y-103250000D01*
X81044928Y-103250000D02*
X79600000Y-101805072D01*
D42*
X84050000Y-85000000D02*
X84050000Y-83620000D01*
D43*
X83351472Y-91551471D02*
X83351472Y-85698528D01*
X79600000Y-101805072D02*
X79600000Y-95302943D01*
X83351472Y-85698528D02*
X84050000Y-85000000D01*
X79600000Y-95302943D02*
X83351472Y-91551471D01*
D42*
X84050000Y-83620000D02*
X84180000Y-83490000D01*
D43*
%TO.N,/SPI1_CS*%
X81562500Y-102250000D02*
X81437501Y-102125001D01*
X85350000Y-91250000D02*
X85350000Y-87050000D01*
X81437501Y-102125001D02*
X81437501Y-95162499D01*
X81437501Y-95162499D02*
X85350000Y-91250000D01*
%TO.N,/SPI1_CLK*%
X81562500Y-102750000D02*
X81110614Y-102750000D01*
X80000000Y-95468629D02*
X84050000Y-91418629D01*
X84050000Y-91418629D02*
X84050000Y-87050000D01*
X80000000Y-101639386D02*
X80000000Y-95468629D01*
X81110614Y-102750000D02*
X80000000Y-101639386D01*
%TO.N,/SPI1_SDO*%
X80750000Y-103750000D02*
X81562500Y-103750000D01*
X80600000Y-101532278D02*
X80600000Y-95434314D01*
X80600000Y-95434314D02*
X81037501Y-94996813D01*
X80633861Y-101566139D02*
X80600000Y-101532278D01*
X84700000Y-91334315D02*
X84700000Y-87050000D01*
X81984315Y-94050000D02*
X84700000Y-91334315D01*
X80400000Y-103400000D02*
X80750000Y-103750000D01*
X81037501Y-94996813D02*
X81984315Y-94050000D01*
%TO.N,Net-(U4-PC15)*%
X88823259Y-98503949D02*
X90096051Y-98503949D01*
X86750000Y-101562500D02*
X86750000Y-100577208D01*
X86750000Y-100577208D02*
X88823259Y-98503949D01*
D42*
%TO.N,Net-(Q1A-D)*%
X96650000Y-125650000D02*
X96425000Y-125425000D01*
X96919474Y-125425000D02*
X97550000Y-124794474D01*
X97550000Y-124180526D02*
X98205526Y-123525000D01*
X96650000Y-127325000D02*
X96650000Y-125650000D01*
X96425000Y-125425000D02*
X96919474Y-125425000D01*
X98205526Y-123525000D02*
X98700000Y-123525000D01*
X97550000Y-124794474D02*
X97550000Y-124180526D01*
D43*
%TO.N,Net-(U4-PC14)*%
X87250000Y-101562500D02*
X87250000Y-100642894D01*
X87592894Y-100300000D02*
X88300000Y-100300000D01*
X87250000Y-100642894D02*
X87592894Y-100300000D01*
%TO.N,Net-(AE1-A)*%
X81562500Y-106250000D02*
X80850000Y-106250000D01*
D47*
X80850000Y-106250000D02*
X65725000Y-106250000D01*
D43*
%TO.N,Net-(U4-OSC_IN)*%
X82250000Y-109912500D02*
X82937500Y-110600000D01*
X82750000Y-110812500D02*
X83112500Y-110450000D01*
X82250000Y-108437500D02*
X82250000Y-109912500D01*
%TO.N,Net-(U4-OSC_OUT)*%
X80787500Y-108612500D02*
X81562500Y-107837500D01*
X81187500Y-111700000D02*
X80787500Y-111300000D01*
X81537500Y-111700000D02*
X81187500Y-111700000D01*
X80787500Y-111300000D02*
X80787500Y-108612500D01*
X81562500Y-107837500D02*
X81562500Y-107750000D01*
D42*
%TO.N,/FUEL_CTL*%
X91400000Y-126200000D02*
X93450000Y-128250000D01*
X97200000Y-128250000D02*
X97450000Y-128000000D01*
X97450000Y-126675000D02*
X98700000Y-125425000D01*
D41*
X82250000Y-100900000D02*
X82000000Y-100650000D01*
X82250000Y-101562500D02*
X82250000Y-100900000D01*
D42*
X91250000Y-119050000D02*
X91400000Y-119200000D01*
X91400000Y-119200000D02*
X91400000Y-126200000D01*
X97450000Y-128000000D02*
X97450000Y-126675000D01*
X93450000Y-128250000D02*
X97200000Y-128250000D01*
%TO.N,Net-(Q1B-D)*%
X94200000Y-123525000D02*
X94175000Y-123500000D01*
X96425000Y-123525000D02*
X94200000Y-123525000D01*
D41*
%TO.N,/SWDIO_JTMS*%
X96400000Y-99000000D02*
X96400000Y-98800000D01*
X97000000Y-98200000D02*
X101700000Y-98200000D01*
D43*
X88437500Y-106750000D02*
X89987500Y-106750000D01*
D41*
X96400000Y-98800000D02*
X97000000Y-98200000D01*
%TO.N,/JTDI*%
X102325000Y-91475000D02*
X103250000Y-92400000D01*
X94573652Y-96873652D02*
X94573652Y-95715075D01*
X95300000Y-97600000D02*
X94573652Y-96873652D01*
D43*
X88437500Y-105250000D02*
X89050000Y-105250000D01*
D41*
X103250000Y-92400000D02*
X103250000Y-93840000D01*
X97668727Y-92620000D02*
X99930000Y-92620000D01*
X101075000Y-91475000D02*
X102325000Y-91475000D01*
X103250000Y-93840000D02*
X102700000Y-94390000D01*
X102700000Y-94390000D02*
X101700000Y-94390000D01*
X99930000Y-92620000D02*
X101075000Y-91475000D01*
X94573652Y-95715075D02*
X97668727Y-92620000D01*
D43*
%TO.N,/JTRST*%
X88889386Y-104250000D02*
X88437500Y-104250000D01*
D41*
X97972893Y-93120000D02*
X101700000Y-93120000D01*
D43*
X89274991Y-103821445D02*
X89175000Y-103921436D01*
D41*
X95150000Y-95942893D02*
X97972893Y-93120000D01*
D43*
X89175000Y-103964386D02*
X88889386Y-104250000D01*
X89175000Y-103921436D02*
X89175000Y-103964386D01*
%TO.N,/SWCLK_JTCK*%
X88437500Y-105750000D02*
X90000000Y-105750000D01*
D41*
X95300000Y-98700000D02*
X97070000Y-96930000D01*
X97070000Y-96930000D02*
X101700000Y-96930000D01*
D43*
%TO.N,/SWTRACE_JTDO*%
X88437500Y-104750000D02*
X89350000Y-104750000D01*
D41*
X95850000Y-96750000D02*
X96940000Y-95660000D01*
D43*
X89350000Y-104750000D02*
X89425000Y-104675000D01*
D41*
X96940000Y-95660000D02*
X101700000Y-95660000D01*
D42*
%TO.N,Net-(J2-VBUS-PadA4)*%
X82900000Y-122775000D02*
X82125000Y-122000000D01*
X82900000Y-124100000D02*
X82900000Y-122775000D01*
X83439339Y-126200000D02*
X86610661Y-126200000D01*
X87150000Y-124100000D02*
X87150000Y-125450000D01*
X82900000Y-125390000D02*
X82900000Y-125600661D01*
X87150000Y-125600661D02*
X87150000Y-125390000D01*
X82900000Y-125660661D02*
X83439339Y-126200000D01*
X82900000Y-124100000D02*
X82900000Y-125450000D01*
X86610661Y-126200000D02*
X87150000Y-125660661D01*
D48*
%TO.N,/USB_D_N*%
X85325000Y-121750976D02*
X85325000Y-123975000D01*
X89000003Y-117999997D02*
X89000003Y-113325006D01*
X89000000Y-113325003D02*
X89000000Y-113000000D01*
X89000003Y-113325006D02*
X89000000Y-113325003D01*
X85452599Y-121623377D02*
X85325000Y-121750976D01*
D42*
X84600000Y-125450000D02*
X84600000Y-125160661D01*
D48*
X88700000Y-118300000D02*
X89000003Y-117999997D01*
D43*
X88850000Y-107750000D02*
X89200000Y-108100000D01*
X88437500Y-107750000D02*
X88850000Y-107750000D01*
D48*
X85325000Y-123975000D02*
X85450000Y-124100000D01*
D42*
X84600000Y-125160661D02*
X85450000Y-124310661D01*
X85450000Y-124310661D02*
X85450000Y-124100000D01*
D43*
%TO.N,/USB_D_P*%
X88437500Y-107250000D02*
X89062500Y-107250000D01*
D48*
X84950000Y-123750000D02*
X84600000Y-124100000D01*
X88625002Y-113325005D02*
X88299997Y-113000000D01*
X88625002Y-117674998D02*
X88625002Y-113325005D01*
X84950000Y-121400000D02*
X84950000Y-123750000D01*
X88100000Y-118200000D02*
X88625002Y-117674998D01*
D43*
%TO.N,/OPT_INT*%
X76250000Y-89000000D02*
X76250000Y-88550000D01*
X85735357Y-100228249D02*
X85250000Y-100713606D01*
X85250000Y-100713606D02*
X85250000Y-101562500D01*
X76250000Y-90522917D02*
X76250000Y-89000000D01*
X76250000Y-88550000D02*
X76040000Y-88340000D01*
X76040000Y-88340000D02*
X73490000Y-88340000D01*
X73490000Y-88340000D02*
X72200000Y-87050000D01*
%TO.N,/USB_DETECT*%
X80400000Y-121925000D02*
X80475000Y-122000000D01*
X81562500Y-104250000D02*
X80950000Y-104250000D01*
X80400000Y-118600000D02*
X80400000Y-121925000D01*
D42*
%TO.N,/FUEL_ADC*%
X92525000Y-119475000D02*
X92525000Y-123500000D01*
D41*
X82750000Y-100900000D02*
X82750000Y-101562500D01*
D42*
X91650000Y-118600000D02*
X92525000Y-119475000D01*
X92525000Y-125350000D02*
X92525000Y-123500000D01*
D41*
X83000000Y-100650000D02*
X82750000Y-100900000D01*
%TO.N,/USER_BTN*%
X84100000Y-113400000D02*
X84100000Y-109662500D01*
X84100000Y-109662500D02*
X83750000Y-109312500D01*
X83750000Y-109312500D02*
X83750000Y-108437500D01*
X83700000Y-113800000D02*
X84100000Y-113400000D01*
X76250000Y-121750000D02*
X77350000Y-120650000D01*
X77350000Y-120650000D02*
X77350000Y-118000000D01*
%TD*%
%TA.AperFunction,Conductor*%
%TO.N,GND*%
G36*
X85340677Y-96269685D02*
G01*
X85361319Y-96286319D01*
X85538681Y-96463681D01*
X85572166Y-96525004D01*
X85575000Y-96551362D01*
X85575000Y-98198638D01*
X85555315Y-98265677D01*
X85538681Y-98286319D01*
X85361319Y-98463681D01*
X85299996Y-98497166D01*
X85273638Y-98500000D01*
X82901362Y-98500000D01*
X82834323Y-98480315D01*
X82813681Y-98463681D01*
X82636319Y-98286319D01*
X82602834Y-98224996D01*
X82600000Y-98198638D01*
X82600000Y-96551362D01*
X82619685Y-96484323D01*
X82636319Y-96463681D01*
X82813681Y-96286319D01*
X82875004Y-96252834D01*
X82901362Y-96250000D01*
X85273638Y-96250000D01*
X85340677Y-96269685D01*
G37*
%TD.AperFunction*%
%TD*%
%TA.AperFunction,Conductor*%
%TO.N,GND*%
G36*
X80550000Y-107126936D02*
G01*
X80461657Y-107171950D01*
X80461656Y-107171950D01*
X80404616Y-107228989D01*
X80349033Y-107261080D01*
X80293219Y-107276036D01*
X80293215Y-107276038D01*
X80280485Y-107283387D01*
X80218487Y-107300000D01*
X67499999Y-107300000D01*
X67250000Y-107549999D01*
X67250000Y-109198638D01*
X67230315Y-109265677D01*
X67213681Y-109286319D01*
X67036319Y-109463681D01*
X66974996Y-109497166D01*
X66948638Y-109500000D01*
X66551362Y-109500000D01*
X66484323Y-109480315D01*
X66463681Y-109463681D01*
X66286319Y-109286319D01*
X66252834Y-109224996D01*
X66250000Y-109198638D01*
X66250000Y-107001362D01*
X66269685Y-106934323D01*
X66286319Y-106913681D01*
X66463181Y-106736819D01*
X66524504Y-106703334D01*
X66550862Y-106700500D01*
X80550000Y-106700500D01*
X80550000Y-107126936D01*
G37*
%TD.AperFunction*%
%TD*%
%TA.AperFunction,Conductor*%
%TO.N,GND*%
G36*
X67015677Y-94019685D02*
G01*
X67036319Y-94036319D01*
X67213681Y-94213681D01*
X67247166Y-94275004D01*
X67250000Y-94301362D01*
X67250000Y-104950000D01*
X67500000Y-105200000D01*
X80375500Y-105200000D01*
X80442539Y-105219685D01*
X80488294Y-105272489D01*
X80499500Y-105324000D01*
X80499500Y-105478948D01*
X80504776Y-105498638D01*
X80519979Y-105555376D01*
X80519982Y-105555381D01*
X80553537Y-105613501D01*
X80570010Y-105681401D01*
X80547157Y-105747428D01*
X80492236Y-105790618D01*
X80446150Y-105799500D01*
X66550862Y-105799500D01*
X66483823Y-105779815D01*
X66463181Y-105763181D01*
X66286319Y-105586319D01*
X66252834Y-105524996D01*
X66250000Y-105498638D01*
X66250000Y-94301362D01*
X66269685Y-94234323D01*
X66286319Y-94213681D01*
X66463681Y-94036319D01*
X66525004Y-94002834D01*
X66551362Y-94000000D01*
X66948638Y-94000000D01*
X67015677Y-94019685D01*
G37*
%TD.AperFunction*%
%TD*%
%TA.AperFunction,Conductor*%
%TO.N,+BATT*%
G36*
X107992148Y-116718954D02*
G01*
X108072930Y-116772930D01*
X108427070Y-117127070D01*
X108481046Y-117207852D01*
X108500000Y-117303140D01*
X108500000Y-124896860D01*
X108481046Y-124992148D01*
X108427070Y-125072930D01*
X108072930Y-125427070D01*
X107992148Y-125481046D01*
X107896860Y-125500000D01*
X105200000Y-125500000D01*
X105200000Y-124025000D01*
X104500000Y-124025000D01*
X104500000Y-119085659D01*
X104518954Y-118990371D01*
X104572930Y-118909589D01*
X104653712Y-118855613D01*
X104749000Y-118836659D01*
X104787944Y-118839724D01*
X104855981Y-118850500D01*
X105944018Y-118850499D01*
X106037804Y-118835646D01*
X106150842Y-118778050D01*
X106240550Y-118688342D01*
X106298146Y-118575304D01*
X106313000Y-118481519D01*
X106312999Y-118118482D01*
X106298146Y-118024696D01*
X106240550Y-117911658D01*
X106150842Y-117821950D01*
X106150839Y-117821948D01*
X106037803Y-117764353D01*
X106037799Y-117764352D01*
X105944030Y-117749501D01*
X105944021Y-117749500D01*
X105944019Y-117749500D01*
X105944015Y-117749500D01*
X104999500Y-117749500D01*
X104904212Y-117730546D01*
X104823430Y-117676570D01*
X104769454Y-117595788D01*
X104750500Y-117500500D01*
X104750500Y-117052640D01*
X104769454Y-116957352D01*
X104823430Y-116876570D01*
X104927070Y-116772930D01*
X105007852Y-116718954D01*
X105103140Y-116700000D01*
X107896860Y-116700000D01*
X107992148Y-116718954D01*
G37*
%TD.AperFunction*%
%TD*%
%TA.AperFunction,Conductor*%
%TO.N,Net-(U1-L_{X})*%
G36*
X103415677Y-118619685D02*
G01*
X103436319Y-118636319D01*
X103863681Y-119063681D01*
X103897166Y-119125004D01*
X103900000Y-119151362D01*
X103900000Y-120248638D01*
X103880315Y-120315677D01*
X103863681Y-120336319D01*
X103436319Y-120763681D01*
X103374996Y-120797166D01*
X103348638Y-120800000D01*
X97551362Y-120800000D01*
X97484323Y-120780315D01*
X97463681Y-120763681D01*
X97036319Y-120336319D01*
X97002834Y-120274996D01*
X97000000Y-120248638D01*
X97000000Y-119151362D01*
X97019685Y-119084323D01*
X97036319Y-119063681D01*
X97463681Y-118636319D01*
X97525004Y-118602834D01*
X97551362Y-118600000D01*
X103348638Y-118600000D01*
X103415677Y-118619685D01*
G37*
%TD.AperFunction*%
%TD*%
%TA.AperFunction,Conductor*%
%TO.N,+1V8*%
G36*
X103315677Y-114619685D02*
G01*
X103336319Y-114636319D01*
X103763681Y-115063681D01*
X103797166Y-115125004D01*
X103800000Y-115151362D01*
X103800000Y-117548638D01*
X103780315Y-117615677D01*
X103763681Y-117636319D01*
X103336319Y-118063681D01*
X103274996Y-118097166D01*
X103248638Y-118100000D01*
X97551362Y-118100000D01*
X97484323Y-118080315D01*
X97463681Y-118063681D01*
X97036319Y-117636319D01*
X97002834Y-117574996D01*
X97000000Y-117548638D01*
X97000000Y-115151362D01*
X97019685Y-115084323D01*
X97036319Y-115063681D01*
X97463681Y-114636319D01*
X97525004Y-114602834D01*
X97551362Y-114600000D01*
X103248638Y-114600000D01*
X103315677Y-114619685D01*
G37*
%TD.AperFunction*%
%TD*%
%TA.AperFunction,Conductor*%
%TO.N,+1V8*%
G36*
X87367539Y-108020185D02*
G01*
X87413294Y-108072989D01*
X87424500Y-108124500D01*
X87424500Y-108838397D01*
X87439760Y-108915118D01*
X87439761Y-108915120D01*
X87474668Y-108967361D01*
X87497888Y-109002112D01*
X87550037Y-109036956D01*
X87584882Y-109060240D01*
X87588825Y-109061873D01*
X87643231Y-109105711D01*
X87655939Y-109128983D01*
X87675000Y-109175000D01*
X88097487Y-109350000D01*
X89973638Y-109350000D01*
X90040677Y-109369685D01*
X90061319Y-109386319D01*
X90238681Y-109563681D01*
X90272166Y-109625004D01*
X90275000Y-109651362D01*
X90275000Y-110423638D01*
X90255315Y-110490677D01*
X90238681Y-110511319D01*
X90061319Y-110688681D01*
X89999996Y-110722166D01*
X89973638Y-110725000D01*
X87463448Y-110725000D01*
X87396409Y-110705315D01*
X87393296Y-110703248D01*
X87116735Y-110513501D01*
X87072592Y-110459343D01*
X87071195Y-110455877D01*
X86808808Y-109775613D01*
X86800500Y-109730989D01*
X86800500Y-109472275D01*
X86800500Y-109472273D01*
X86773207Y-109370413D01*
X86773207Y-109370412D01*
X86720480Y-109279087D01*
X86686819Y-109245426D01*
X86653334Y-109184103D01*
X86650500Y-109157745D01*
X86650500Y-108978081D01*
X86650500Y-108978079D01*
X86623207Y-108876219D01*
X86592111Y-108822360D01*
X86575499Y-108760361D01*
X86575499Y-108124500D01*
X86595184Y-108057461D01*
X86647988Y-108011706D01*
X86699499Y-108000500D01*
X87300500Y-108000500D01*
X87367539Y-108020185D01*
G37*
%TD.AperFunction*%
%TD*%
%TA.AperFunction,Conductor*%
%TO.N,GND*%
G36*
X108015677Y-114619685D02*
G01*
X108036319Y-114636319D01*
X108463681Y-115063681D01*
X108497166Y-115125004D01*
X108500000Y-115151362D01*
X108500000Y-115748638D01*
X108480315Y-115815677D01*
X108463681Y-115836319D01*
X108036319Y-116263681D01*
X107974996Y-116297166D01*
X107948638Y-116300000D01*
X104651362Y-116300000D01*
X104584323Y-116280315D01*
X104563681Y-116263681D01*
X104136319Y-115836319D01*
X104102834Y-115774996D01*
X104100000Y-115748638D01*
X104100000Y-115151362D01*
X104119685Y-115084323D01*
X104136319Y-115063681D01*
X104563681Y-114636319D01*
X104625004Y-114602834D01*
X104651362Y-114600000D01*
X107948638Y-114600000D01*
X108015677Y-114619685D01*
G37*
%TD.AperFunction*%
%TD*%
%TA.AperFunction,Conductor*%
%TO.N,GND*%
G36*
X82020124Y-110215812D02*
G01*
X82258719Y-110403279D01*
X82286473Y-110452650D01*
X82287000Y-110461467D01*
X82287000Y-111019746D01*
X82298633Y-111078232D01*
X82320618Y-111111133D01*
X82342948Y-111144552D01*
X82387060Y-111174027D01*
X82409267Y-111188866D01*
X82409268Y-111188866D01*
X82409269Y-111188867D01*
X82467752Y-111200500D01*
X82467754Y-111200500D01*
X83247771Y-111200500D01*
X83293488Y-111216312D01*
X83300431Y-111221767D01*
X83371719Y-111277779D01*
X83399473Y-111327149D01*
X83400000Y-111335966D01*
X83400000Y-112026000D01*
X83378326Y-112078326D01*
X83326000Y-112100000D01*
X82525595Y-112100000D01*
X82479876Y-112084187D01*
X82216281Y-111877076D01*
X82188527Y-111827706D01*
X82188000Y-111818889D01*
X82188000Y-111280253D01*
X82187508Y-111277779D01*
X82176367Y-111221769D01*
X82132052Y-111155448D01*
X82109843Y-111140608D01*
X82065732Y-111111133D01*
X82065733Y-111111133D01*
X82036489Y-111105316D01*
X82007248Y-111099500D01*
X82007246Y-111099500D01*
X81252229Y-111099500D01*
X81206511Y-111083687D01*
X81173571Y-111057806D01*
X81128281Y-111022220D01*
X81100527Y-110972849D01*
X81100000Y-110964033D01*
X81100000Y-110274000D01*
X81121674Y-110221674D01*
X81174000Y-110200000D01*
X81974405Y-110200000D01*
X82020124Y-110215812D01*
G37*
%TD.AperFunction*%
%TD*%
%TA.AperFunction,Conductor*%
%TO.N,+1V8*%
G36*
X83988394Y-100108392D02*
G01*
X83990205Y-100108624D01*
X83997975Y-100113074D01*
X84000408Y-100119745D01*
X84005909Y-100252527D01*
X84005910Y-100252538D01*
X84011229Y-100291216D01*
X84011194Y-100294640D01*
X83994508Y-100399999D01*
X83994508Y-100400000D01*
X84014353Y-100525302D01*
X84014353Y-100525303D01*
X84014354Y-100525304D01*
X84071950Y-100638342D01*
X84161658Y-100728050D01*
X84164783Y-100729642D01*
X84169392Y-100733865D01*
X84215406Y-100807478D01*
X84215414Y-100807508D01*
X84215422Y-100807504D01*
X84265119Y-100887448D01*
X84265336Y-100887812D01*
X84315074Y-100974692D01*
X84315411Y-100975325D01*
X84362773Y-101071239D01*
X84363982Y-101076419D01*
X84363982Y-101504578D01*
X84360555Y-101512851D01*
X84358322Y-101514599D01*
X84259512Y-101574154D01*
X84252258Y-101575770D01*
X84135487Y-101563593D01*
X84127614Y-101559326D01*
X84125001Y-101551956D01*
X84125001Y-101125002D01*
X84114688Y-101071239D01*
X84099100Y-100989971D01*
X84028800Y-100887587D01*
X83925200Y-100808399D01*
X83799400Y-100742958D01*
X83662642Y-100681879D01*
X83662340Y-100681738D01*
X83572722Y-100638342D01*
X83526237Y-100615832D01*
X83525008Y-100615143D01*
X83455135Y-100570214D01*
X83400885Y-100535331D01*
X83398893Y-100533715D01*
X83382283Y-100516889D01*
X83380192Y-100513993D01*
X83328050Y-100411658D01*
X83246044Y-100329652D01*
X83243888Y-100326681D01*
X83226775Y-100292982D01*
X83225627Y-100289347D01*
X83201677Y-100121626D01*
X83203900Y-100112954D01*
X83211606Y-100108392D01*
X83211611Y-100108391D01*
X83598517Y-100058819D01*
X83601483Y-100058819D01*
X83988394Y-100108392D01*
G37*
%TD.AperFunction*%
%TD*%
%TA.AperFunction,Conductor*%
%TO.N,GND*%
G36*
X80805026Y-106720185D02*
G01*
X80850781Y-106772989D01*
X80860725Y-106842147D01*
X80831700Y-106905703D01*
X80799989Y-106931886D01*
X80734791Y-106969529D01*
X80734788Y-106969531D01*
X80618360Y-107085956D01*
X80582407Y-107107994D01*
X80583390Y-107109924D01*
X80550000Y-107126937D01*
X80550000Y-106700500D01*
X80737987Y-106700500D01*
X80805026Y-106720185D01*
G37*
%TD.AperFunction*%
%TA.AperFunction,Conductor*%
G36*
X82261971Y-106602381D02*
G01*
X82302346Y-106610412D01*
X82347043Y-106628927D01*
X82370913Y-106644877D01*
X82405122Y-106679086D01*
X82421072Y-106702956D01*
X82439588Y-106747656D01*
X82445188Y-106775808D01*
X82445188Y-106824193D01*
X82439588Y-106852344D01*
X82421072Y-106897043D01*
X82405122Y-106920913D01*
X82370913Y-106955122D01*
X82347043Y-106971072D01*
X82302344Y-106989588D01*
X82285841Y-106992870D01*
X82261978Y-106997617D01*
X82237789Y-107000000D01*
X82167887Y-107000000D01*
X82100848Y-106980315D01*
X82099029Y-106979124D01*
X82040117Y-106939760D01*
X82040115Y-106939759D01*
X82040112Y-106939758D01*
X81963404Y-106924500D01*
X81963401Y-106924500D01*
X81718270Y-106924500D01*
X81686178Y-106920275D01*
X81608644Y-106899500D01*
X81088806Y-106899500D01*
X81021767Y-106879815D01*
X80976012Y-106827011D01*
X80966068Y-106757853D01*
X80995093Y-106694297D01*
X81026806Y-106668113D01*
X81116006Y-106616613D01*
X81178006Y-106600000D01*
X82237789Y-106600000D01*
X82261971Y-106602381D01*
G37*
%TD.AperFunction*%
%TD*%
%TA.AperFunction,Conductor*%
%TO.N,+BATT*%
G36*
X105200000Y-125799999D02*
G01*
X105200000Y-127573638D01*
X105180315Y-127640677D01*
X105163681Y-127661319D01*
X104936319Y-127888681D01*
X104874996Y-127922166D01*
X104848638Y-127925000D01*
X98251362Y-127925000D01*
X98184323Y-127905315D01*
X98163681Y-127888681D01*
X97936319Y-127661319D01*
X97902834Y-127599996D01*
X97900000Y-127573638D01*
X97900000Y-126842755D01*
X97919685Y-126775716D01*
X97936319Y-126755074D01*
X98729574Y-125961819D01*
X98790897Y-125928334D01*
X98817255Y-125925500D01*
X99245761Y-125925500D01*
X99268471Y-125922191D01*
X99313893Y-125915573D01*
X99418983Y-125864198D01*
X99501698Y-125781483D01*
X99553073Y-125676393D01*
X99563000Y-125608260D01*
X99563000Y-125241740D01*
X99553073Y-125173607D01*
X99501698Y-125068517D01*
X99501696Y-125068515D01*
X99501696Y-125068514D01*
X99418985Y-124985803D01*
X99313891Y-124934426D01*
X99245761Y-124924500D01*
X99245760Y-124924500D01*
X98154240Y-124924500D01*
X98123880Y-124928923D01*
X98092376Y-124933513D01*
X98023199Y-124923698D01*
X97970310Y-124878042D01*
X97950500Y-124811039D01*
X97950500Y-124397780D01*
X97970185Y-124330741D01*
X97986819Y-124310099D01*
X98235099Y-124061819D01*
X98296422Y-124028334D01*
X98322780Y-124025500D01*
X99245761Y-124025500D01*
X99248174Y-124025325D01*
X99257142Y-124025000D01*
X104200000Y-124025000D01*
X105200000Y-124025000D01*
X105200000Y-125799999D01*
G37*
%TD.AperFunction*%
%TD*%
%TA.AperFunction,Conductor*%
%TO.N,Net-(AE1-A)*%
G36*
X80882677Y-106003413D02*
G01*
X80884744Y-106003772D01*
X80918127Y-106012731D01*
X80920064Y-106013439D01*
X80948164Y-106026639D01*
X80949642Y-106027469D01*
X80974174Y-106043708D01*
X80975016Y-106044321D01*
X80997614Y-106062463D01*
X80997712Y-106062545D01*
X81019538Y-106081000D01*
X81041734Y-106097999D01*
X81065723Y-106112000D01*
X81065725Y-106112001D01*
X81092979Y-106121498D01*
X81092986Y-106121500D01*
X81125000Y-106125000D01*
X81552120Y-106125000D01*
X81560393Y-106128427D01*
X81563737Y-106135306D01*
X81577332Y-106248606D01*
X81577332Y-106251394D01*
X81563737Y-106364694D01*
X81559349Y-106372500D01*
X81552120Y-106375000D01*
X81125000Y-106375000D01*
X81113688Y-106376236D01*
X81092986Y-106378499D01*
X81092979Y-106378501D01*
X81065725Y-106387998D01*
X81041733Y-106402000D01*
X81019532Y-106419004D01*
X81019524Y-106419010D01*
X80997779Y-106437398D01*
X80997568Y-106437572D01*
X80975042Y-106455658D01*
X80974175Y-106456290D01*
X80949642Y-106472528D01*
X80948159Y-106473362D01*
X80920065Y-106486560D01*
X80918122Y-106487270D01*
X80884746Y-106496226D01*
X80882675Y-106496586D01*
X80852539Y-106499069D01*
X80844012Y-106496334D01*
X80839956Y-106488747D01*
X80812653Y-106251330D01*
X80812653Y-106248669D01*
X80839956Y-106011250D01*
X80844304Y-106003426D01*
X80852538Y-106000930D01*
X80882677Y-106003413D01*
G37*
%TD.AperFunction*%
%TD*%
M02*
