%TF.GenerationSoftware,KiCad,Pcbnew,8.0.7*%
%TF.CreationDate,2025-02-03T23:56:31+13:00*%
%TF.ProjectId,Housens-L,486f7573-656e-4732-9d4c-2e6b69636164,002*%
%TF.SameCoordinates,Original*%
%TF.FileFunction,Copper,L1,Top*%
%TF.FilePolarity,Positive*%
%FSLAX46Y46*%
G04 Gerber Fmt 4.6, Leading zero omitted, Abs format (unit mm)*
G04 Created by KiCad (PCBNEW 8.0.7) date 2025-02-03 23:56:31*
%MOMM*%
%LPD*%
G01*
G04 APERTURE LIST*
G04 Aperture macros list*
%AMRoundRect*
0 Rectangle with rounded corners*
0 $1 Rounding radius*
0 $2 $3 $4 $5 $6 $7 $8 $9 X,Y pos of 4 corners*
0 Add a 4 corners polygon primitive as box body*
4,1,4,$2,$3,$4,$5,$6,$7,$8,$9,$2,$3,0*
0 Add four circle primitives for the rounded corners*
1,1,$1+$1,$2,$3*
1,1,$1+$1,$4,$5*
1,1,$1+$1,$6,$7*
1,1,$1+$1,$8,$9*
0 Add four rect primitives between the rounded corners*
20,1,$1+$1,$2,$3,$4,$5,0*
20,1,$1+$1,$4,$5,$6,$7,0*
20,1,$1+$1,$6,$7,$8,$9,0*
20,1,$1+$1,$8,$9,$2,$3,0*%
%AMOutline5P*
0 Free polygon, 5 corners , with rotation*
0 The origin of the aperture is its center*
0 number of corners: always 5*
0 $1 to $10 corner X, Y*
0 $11 Rotation angle, in degrees counterclockwise*
0 create outline with 5 corners*
4,1,5,$1,$2,$3,$4,$5,$6,$7,$8,$9,$10,$1,$2,$11*%
%AMOutline6P*
0 Free polygon, 6 corners , with rotation*
0 The origin of the aperture is its center*
0 number of corners: always 6*
0 $1 to $12 corner X, Y*
0 $13 Rotation angle, in degrees counterclockwise*
0 create outline with 6 corners*
4,1,6,$1,$2,$3,$4,$5,$6,$7,$8,$9,$10,$11,$12,$1,$2,$13*%
%AMOutline7P*
0 Free polygon, 7 corners , with rotation*
0 The origin of the aperture is its center*
0 number of corners: always 7*
0 $1 to $14 corner X, Y*
0 $15 Rotation angle, in degrees counterclockwise*
0 create outline with 7 corners*
4,1,7,$1,$2,$3,$4,$5,$6,$7,$8,$9,$10,$11,$12,$13,$14,$1,$2,$15*%
%AMOutline8P*
0 Free polygon, 8 corners , with rotation*
0 The origin of the aperture is its center*
0 number of corners: always 8*
0 $1 to $16 corner X, Y*
0 $17 Rotation angle, in degrees counterclockwise*
0 create outline with 8 corners*
4,1,8,$1,$2,$3,$4,$5,$6,$7,$8,$9,$10,$11,$12,$13,$14,$15,$16,$1,$2,$17*%
G04 Aperture macros list end*
%TA.AperFunction,EtchedComponent*%
%ADD10C,0.000000*%
%TD*%
%TA.AperFunction,SMDPad,CuDef*%
%ADD11R,0.450000X0.245000*%
%TD*%
%TA.AperFunction,SMDPad,CuDef*%
%ADD12R,0.275000X0.700000*%
%TD*%
%TA.AperFunction,SMDPad,CuDef*%
%ADD13RoundRect,0.225000X-0.225000X-0.250000X0.225000X-0.250000X0.225000X0.250000X-0.225000X0.250000X0*%
%TD*%
%TA.AperFunction,SMDPad,CuDef*%
%ADD14RoundRect,0.200000X0.200000X0.275000X-0.200000X0.275000X-0.200000X-0.275000X0.200000X-0.275000X0*%
%TD*%
%TA.AperFunction,ComponentPad*%
%ADD15R,0.900000X0.900000*%
%TD*%
%TA.AperFunction,ConnectorPad*%
%ADD16R,0.500000X0.500000*%
%TD*%
%TA.AperFunction,SMDPad,CuDef*%
%ADD17RoundRect,0.225000X-0.250000X0.225000X-0.250000X-0.225000X0.250000X-0.225000X0.250000X0.225000X0*%
%TD*%
%TA.AperFunction,SMDPad,CuDef*%
%ADD18RoundRect,0.225000X0.225000X0.250000X-0.225000X0.250000X-0.225000X-0.250000X0.225000X-0.250000X0*%
%TD*%
%TA.AperFunction,ComponentPad*%
%ADD19C,5.600000*%
%TD*%
%TA.AperFunction,SMDPad,CuDef*%
%ADD20R,0.500000X0.325000*%
%TD*%
%TA.AperFunction,SMDPad,CuDef*%
%ADD21R,0.500000X0.250000*%
%TD*%
%TA.AperFunction,SMDPad,CuDef*%
%ADD22Outline5P,-0.475000X1.085000X-0.285000X1.275000X0.475000X1.275000X0.475000X-1.275000X-0.475000X-1.275000X180.000000*%
%TD*%
%TA.AperFunction,SMDPad,CuDef*%
%ADD23RoundRect,0.150000X-0.150000X0.512500X-0.150000X-0.512500X0.150000X-0.512500X0.150000X0.512500X0*%
%TD*%
%TA.AperFunction,SMDPad,CuDef*%
%ADD24RoundRect,0.225000X0.250000X-0.225000X0.250000X0.225000X-0.250000X0.225000X-0.250000X-0.225000X0*%
%TD*%
%TA.AperFunction,SMDPad,CuDef*%
%ADD25R,0.300000X0.550000*%
%TD*%
%TA.AperFunction,SMDPad,CuDef*%
%ADD26R,0.550000X0.300000*%
%TD*%
%TA.AperFunction,SMDPad,CuDef*%
%ADD27R,0.300000X0.720000*%
%TD*%
%TA.AperFunction,SMDPad,CuDef*%
%ADD28RoundRect,0.218750X0.218750X0.256250X-0.218750X0.256250X-0.218750X-0.256250X0.218750X-0.256250X0*%
%TD*%
%TA.AperFunction,SMDPad,CuDef*%
%ADD29R,0.900000X0.800000*%
%TD*%
%TA.AperFunction,HeatsinkPad*%
%ADD30C,0.500000*%
%TD*%
%TA.AperFunction,HeatsinkPad*%
%ADD31R,5.600000X5.600000*%
%TD*%
%TA.AperFunction,SMDPad,CuDef*%
%ADD32RoundRect,0.062500X-0.375000X0.062500X-0.375000X-0.062500X0.375000X-0.062500X0.375000X0.062500X0*%
%TD*%
%TA.AperFunction,SMDPad,CuDef*%
%ADD33RoundRect,0.062500X-0.062500X0.375000X-0.062500X-0.375000X0.062500X-0.375000X0.062500X0.375000X0*%
%TD*%
%TA.AperFunction,SMDPad,CuDef*%
%ADD34R,0.350000X0.500000*%
%TD*%
%TA.AperFunction,SMDPad,CuDef*%
%ADD35RoundRect,0.150000X0.512500X0.150000X-0.512500X0.150000X-0.512500X-0.150000X0.512500X-0.150000X0*%
%TD*%
%TA.AperFunction,SMDPad,CuDef*%
%ADD36C,2.000000*%
%TD*%
%TA.AperFunction,SMDPad,CuDef*%
%ADD37R,2.400000X0.740000*%
%TD*%
%TA.AperFunction,SMDPad,CuDef*%
%ADD38RoundRect,0.200000X-0.200000X-0.275000X0.200000X-0.275000X0.200000X0.275000X-0.200000X0.275000X0*%
%TD*%
%TA.AperFunction,SMDPad,CuDef*%
%ADD39RoundRect,0.200000X0.275000X-0.200000X0.275000X0.200000X-0.275000X0.200000X-0.275000X-0.200000X0*%
%TD*%
%TA.AperFunction,SMDPad,CuDef*%
%ADD40R,3.200000X1.000000*%
%TD*%
%TA.AperFunction,ComponentPad*%
%ADD41O,0.900000X1.700000*%
%TD*%
%TA.AperFunction,ComponentPad*%
%ADD42O,0.900000X2.400000*%
%TD*%
%TA.AperFunction,ComponentPad*%
%ADD43C,0.700000*%
%TD*%
%TA.AperFunction,ComponentPad*%
%ADD44C,2.000000*%
%TD*%
%TA.AperFunction,SMDPad,CuDef*%
%ADD45R,1.000000X3.200000*%
%TD*%
%TA.AperFunction,ComponentPad*%
%ADD46C,1.000000*%
%TD*%
%TA.AperFunction,ViaPad*%
%ADD47C,0.400000*%
%TD*%
%TA.AperFunction,ViaPad*%
%ADD48C,0.450000*%
%TD*%
%TA.AperFunction,ViaPad*%
%ADD49C,0.500000*%
%TD*%
%TA.AperFunction,Conductor*%
%ADD50C,0.300000*%
%TD*%
%TA.AperFunction,Conductor*%
%ADD51C,0.200000*%
%TD*%
%TA.AperFunction,Conductor*%
%ADD52C,0.400000*%
%TD*%
%TA.AperFunction,Conductor*%
%ADD53C,0.600000*%
%TD*%
%TA.AperFunction,Conductor*%
%ADD54C,0.800000*%
%TD*%
%TA.AperFunction,Conductor*%
%ADD55C,0.250000*%
%TD*%
%TA.AperFunction,Conductor*%
%ADD56C,0.275000*%
%TD*%
%TA.AperFunction,Conductor*%
%ADD57C,0.500000*%
%TD*%
G04 APERTURE END LIST*
D10*
%TA.AperFunction,EtchedComponent*%
%TO.C,AE1*%
G36*
X65015000Y-94900000D02*
G01*
X61075000Y-94900000D01*
X61075000Y-96600000D01*
X63715000Y-96600000D01*
X63715000Y-99600000D01*
X61075000Y-99600000D01*
X61075000Y-101300000D01*
X63715000Y-101300000D01*
X63715000Y-104300000D01*
X61075000Y-104300000D01*
X61075000Y-106000000D01*
X65975000Y-106000000D01*
X65975000Y-106500000D01*
X61075000Y-106500000D01*
X61075000Y-107900000D01*
X65975000Y-107900000D01*
X65975000Y-108800000D01*
X65731785Y-108800000D01*
X60575000Y-108800000D01*
X60575000Y-108357267D01*
X65577018Y-108357267D01*
X65584908Y-108405353D01*
X65601814Y-108438245D01*
X65638584Y-108473185D01*
X65683378Y-108492847D01*
X65731785Y-108497583D01*
X65779395Y-108487742D01*
X65821797Y-108463674D01*
X65854581Y-108425731D01*
X65858935Y-108417819D01*
X65871043Y-108375156D01*
X65870300Y-108326637D01*
X65857400Y-108281122D01*
X65846787Y-108262511D01*
X65811553Y-108228868D01*
X65766368Y-108208309D01*
X65716842Y-108201778D01*
X65668583Y-108210218D01*
X65636357Y-108227112D01*
X65603687Y-108262372D01*
X65583592Y-108307682D01*
X65577018Y-108357267D01*
X60575000Y-108357267D01*
X60575000Y-103800000D01*
X63215000Y-103800000D01*
X63215000Y-101800000D01*
X60575000Y-101800000D01*
X60575000Y-99100000D01*
X63215000Y-99100000D01*
X63215000Y-97100000D01*
X60575000Y-97100000D01*
X60575000Y-94400000D01*
X65015000Y-94400000D01*
X65015000Y-94900000D01*
G37*
%TD.AperFunction*%
%TD*%
D11*
%TO.P,FL1,4,GND*%
%TO.N,GND*%
X67150000Y-106050000D03*
D12*
%TO.P,FL1,3,OUT*%
%TO.N,Net-(AE1-A)*%
X66537500Y-106265000D03*
D11*
%TO.P,FL1,2,GND*%
%TO.N,GND*%
X67150000Y-106480000D03*
D12*
%TO.P,FL1,1,IN*%
%TO.N,Net-(FL1-IN)*%
X67762500Y-106265000D03*
%TD*%
D13*
%TO.P,C20,2*%
%TO.N,GND*%
X99075000Y-88800000D03*
%TO.P,C20,1*%
%TO.N,Net-(U5-VDD)*%
X97525000Y-88800000D03*
%TD*%
D14*
%TO.P,R2,2*%
%TO.N,/I2C1_SDA*%
X87650000Y-92200000D03*
%TO.P,R2,1*%
%TO.N,+1V8*%
X89300000Y-92200000D03*
%TD*%
D15*
%TO.P,AE1,2*%
%TO.N,N/C*%
X65525000Y-108350000D03*
D16*
%TO.P,AE1,1,A*%
%TO.N,Net-(AE1-A)*%
X65725000Y-106250000D03*
%TD*%
D17*
%TO.P,C8,2*%
%TO.N,GND*%
X89525000Y-111625000D03*
%TO.P,C8,1*%
%TO.N,+1V8*%
X89525000Y-110075000D03*
%TD*%
D18*
%TO.P,C16,2*%
%TO.N,GND*%
X77400000Y-113706250D03*
%TO.P,C16,1*%
%TO.N,+1V8*%
X78950000Y-113706250D03*
%TD*%
D19*
%TO.P,H2,1,1*%
%TO.N,GND*%
X106000000Y-84000000D03*
%TD*%
D20*
%TO.P,U7,1,V_{IN1}*%
%TO.N,+1V8*%
X89300000Y-88600000D03*
%TO.P,U7,2,V_{IN1}*%
X89300000Y-88275000D03*
D21*
%TO.P,U7,3,~{EN_{1}}*%
%TO.N,/~{LIGHT_EN}*%
X89300000Y-87837500D03*
%TO.P,U7,4,V_{BIAS}*%
%TO.N,+BATT*%
X89300000Y-87437500D03*
%TO.P,U7,5,~{EN_{2}}*%
%TO.N,/~{ATMO_EN}*%
X89300000Y-87037500D03*
D20*
%TO.P,U7,6,V_{IN2}*%
%TO.N,+1V8*%
X89300000Y-86600000D03*
%TO.P,U7,7,V_{IN2}*%
X89300000Y-86275000D03*
%TO.P,U7,8,V_{OUT2}*%
%TO.N,Net-(U2-VDD)*%
X87600000Y-86275000D03*
%TO.P,U7,9,V_{OUT2}*%
X87600000Y-86600000D03*
D21*
%TO.P,U7,10,SS_{2}*%
%TO.N,GND*%
X87600000Y-87037500D03*
%TO.P,U7,11,GND*%
X87600000Y-87437500D03*
%TO.P,U7,12,SS_{1}*%
X87600000Y-87837500D03*
D20*
%TO.P,U7,13,V_{OUT1}*%
%TO.N,Net-(U3-VDD)*%
X87600000Y-88275000D03*
%TO.P,U7,14,V_{OUT1}*%
X87600000Y-88600000D03*
D22*
%TO.P,U7,15,GND*%
%TO.N,GND*%
X88450000Y-87437500D03*
%TD*%
D18*
%TO.P,C15,2*%
%TO.N,GND*%
X77400000Y-115416250D03*
%TO.P,C15,1*%
%TO.N,+1V8*%
X78950000Y-115416250D03*
%TD*%
D23*
%TO.P,U6,6,C_{pump+}*%
%TO.N,Net-(U6-C_{pump+})*%
X95750000Y-91300000D03*
%TO.P,U6,5,V_{in}*%
%TO.N,+BATT*%
X94800000Y-91300000D03*
%TO.P,U6,4,C_{pump-}*%
%TO.N,Net-(U6-C_{pump-})*%
X93850000Y-91300000D03*
%TO.P,U6,3,~{EN}*%
%TO.N,/~{CO2_EN}*%
X93850000Y-89025000D03*
%TO.P,U6,2,GND*%
%TO.N,GND*%
X94800000Y-89025000D03*
%TO.P,U6,1,V_{out}*%
%TO.N,Net-(U5-VDD)*%
X95750000Y-89025000D03*
%TD*%
D24*
%TO.P,C1,2*%
%TO.N,GND*%
X107500000Y-115725000D03*
%TO.P,C1,1*%
%TO.N,+BATT*%
X107500000Y-117275000D03*
%TD*%
D25*
%TO.P,U5,12*%
%TO.N,N/C*%
X95700000Y-82700000D03*
%TO.P,U5,11,GND*%
%TO.N,GND*%
X96500000Y-82700000D03*
%TO.P,U5,10*%
%TO.N,N/C*%
X97300000Y-82700000D03*
D26*
%TO.P,U5,9,GND*%
%TO.N,GND*%
X98000000Y-83900000D03*
%TO.P,U5,8*%
%TO.N,N/C*%
X98000000Y-84700000D03*
%TO.P,U5,7,SDA*%
%TO.N,/I2C1_SDA*%
X98000000Y-85500000D03*
D25*
%TO.P,U5,6,VDD*%
%TO.N,Net-(U5-VDD)*%
X97300000Y-86700000D03*
%TO.P,U5,5,GND*%
%TO.N,GND*%
X96500000Y-86700000D03*
%TO.P,U5,4,SCL*%
%TO.N,/I2C1_SCL*%
X95700000Y-86700000D03*
D26*
%TO.P,U5,3,ADDR*%
%TO.N,GND*%
X95000000Y-85500000D03*
%TO.P,U5,2*%
%TO.N,N/C*%
X95000000Y-84700000D03*
%TO.P,U5,1,GND*%
%TO.N,GND*%
X95000000Y-83900000D03*
%TD*%
D27*
%TO.P,U3,8,SDA*%
%TO.N,/I2C1_SDA*%
X71850000Y-87150000D03*
%TO.P,U3,7,INT*%
%TO.N,/OPT_INT*%
X71350000Y-87150000D03*
%TO.P,U3,6*%
%TO.N,N/C*%
X70850000Y-87150000D03*
%TO.P,U3,5,SCL*%
%TO.N,/I2C1_SCL*%
X70350000Y-87150000D03*
%TO.P,U3,4,GND*%
%TO.N,GND*%
X70350000Y-85430000D03*
%TO.P,U3,3*%
%TO.N,N/C*%
X70850000Y-85430000D03*
%TO.P,U3,2,ADDR*%
%TO.N,GND*%
X71350000Y-85430000D03*
%TO.P,U3,1,VDD*%
%TO.N,Net-(U3-VDD)*%
X71850000Y-85430000D03*
%TD*%
D24*
%TO.P,C6,2*%
%TO.N,GND*%
X82262500Y-114075000D03*
%TO.P,C6,1*%
%TO.N,Net-(U4-VFBSMPS)*%
X82262500Y-115625000D03*
%TD*%
%TO.P,C17,2*%
%TO.N,Net-(U4-RF1)*%
X73600000Y-106300000D03*
%TO.P,C17,1*%
%TO.N,GND*%
X73600000Y-107850000D03*
%TD*%
D28*
%TO.P,L3,2,2*%
%TO.N,Net-(FL1-IN)*%
X70512500Y-106350000D03*
%TO.P,L3,1,1*%
%TO.N,Net-(U4-RF1)*%
X72087500Y-106350000D03*
%TD*%
D29*
%TO.P,Y1,4,4*%
%TO.N,GND*%
X82937500Y-111700000D03*
%TO.P,Y1,3,3*%
%TO.N,Net-(U4-OSC_OUT)*%
X81537500Y-111700000D03*
%TO.P,Y1,2,2*%
%TO.N,GND*%
X81537500Y-110600000D03*
%TO.P,Y1,1,1*%
%TO.N,Net-(U4-OSC_IN)*%
X82937500Y-110600000D03*
%TD*%
D14*
%TO.P,R3,2*%
%TO.N,/OPT_INT*%
X87650000Y-94000000D03*
%TO.P,R3,1*%
%TO.N,+1V8*%
X89300000Y-94000000D03*
%TD*%
D24*
%TO.P,C4,2*%
%TO.N,GND*%
X75900000Y-83000000D03*
%TO.P,C4,1*%
%TO.N,Net-(U3-VDD)*%
X75900000Y-84550000D03*
%TD*%
D30*
%TO.P,U4,49,VSS*%
%TO.N,GND*%
X82450000Y-107550000D03*
X83725000Y-107550000D03*
X85000000Y-107550000D03*
X86275000Y-107550000D03*
X87550000Y-107550000D03*
X82450000Y-106275000D03*
X83725000Y-106275000D03*
X85000000Y-106275000D03*
X86275000Y-106275000D03*
X87550000Y-106275000D03*
X82450000Y-105000000D03*
X83725000Y-105000000D03*
D31*
X85000000Y-105000000D03*
D30*
X85000000Y-105000000D03*
X86275000Y-105000000D03*
X87550000Y-105000000D03*
X82450000Y-103725000D03*
X83725000Y-103725000D03*
X85000000Y-103725000D03*
X86275000Y-103725000D03*
X87550000Y-103725000D03*
X82450000Y-102450000D03*
X83725000Y-102450000D03*
X85000000Y-102450000D03*
X86275000Y-102450000D03*
X87550000Y-102450000D03*
D32*
%TO.P,U4,48,VDD*%
%TO.N,+1V8*%
X88437500Y-102250000D03*
%TO.P,U4,47,PB7*%
%TO.N,/I2C1_SDA*%
X88437500Y-102750000D03*
%TO.P,U4,46,PB6*%
%TO.N,/~{LIGHT_EN}*%
X88437500Y-103250000D03*
%TO.P,U4,45,PB5*%
%TO.N,/~{CO2_EN}*%
X88437500Y-103750000D03*
%TO.P,U4,44,PB4*%
%TO.N,/JTRST*%
X88437500Y-104250000D03*
%TO.P,U4,43,PB3*%
%TO.N,/SWTRACE_JTDO*%
X88437500Y-104750000D03*
%TO.P,U4,42,PA15*%
%TO.N,/JTDI*%
X88437500Y-105250000D03*
%TO.P,U4,41,PA14*%
%TO.N,/SWCLK_JTCK*%
X88437500Y-105750000D03*
%TO.P,U4,40,VDDUSB*%
%TO.N,+BATT*%
X88437500Y-106250000D03*
%TO.P,U4,39,PA13*%
%TO.N,/SWDIO_JTMS*%
X88437500Y-106750000D03*
%TO.P,U4,38,PA12*%
%TO.N,/USB_D_P*%
X88437500Y-107250000D03*
%TO.P,U4,37,PA11*%
%TO.N,/USB_D_N*%
X88437500Y-107750000D03*
D33*
%TO.P,U4,36,PA10*%
%TO.N,unconnected-(U4-PA10-Pad36)*%
X87750000Y-108437500D03*
%TO.P,U4,35,VDD*%
%TO.N,+1V8*%
X87250000Y-108437500D03*
%TO.P,U4,34,VDDSMPS*%
X86750000Y-108437500D03*
%TO.P,U4,33,VLXSMPS*%
%TO.N,Net-(U4-VLXSMPS)*%
X86250000Y-108437500D03*
%TO.P,U4,32,VSSSMPS*%
%TO.N,GND*%
X85750000Y-108437500D03*
%TO.P,U4,31,VFBSMPS*%
%TO.N,Net-(U4-VFBSMPS)*%
X85250000Y-108437500D03*
%TO.P,U4,30,PE4*%
%TO.N,unconnected-(U4-PE4-Pad30)*%
X84750000Y-108437500D03*
%TO.P,U4,29,PB1*%
%TO.N,unconnected-(U4-PB1-Pad29)*%
X84250000Y-108437500D03*
%TO.P,U4,28,PB0*%
%TO.N,/USER_BTN*%
X83750000Y-108437500D03*
%TO.P,U4,27,AT1*%
%TO.N,unconnected-(U4-AT1-Pad27)*%
X83250000Y-108437500D03*
%TO.P,U4,26,AT0*%
%TO.N,unconnected-(U4-AT0-Pad26)*%
X82750000Y-108437500D03*
%TO.P,U4,25,OSC_IN*%
%TO.N,Net-(U4-OSC_IN)*%
X82250000Y-108437500D03*
D32*
%TO.P,U4,24,OSC_OUT*%
%TO.N,Net-(U4-OSC_OUT)*%
X81562500Y-107750000D03*
%TO.P,U4,23,VDDRF*%
%TO.N,+1V8*%
X81562500Y-107250000D03*
%TO.P,U4,22,VSSRF*%
%TO.N,GND*%
X81562500Y-106750000D03*
%TO.P,U4,21,RF1*%
%TO.N,Net-(U4-RF1)*%
X81562500Y-106250000D03*
%TO.P,U4,20,VDD*%
%TO.N,+1V8*%
X81562500Y-105750000D03*
%TO.P,U4,19,PB2*%
%TO.N,unconnected-(U4-PB2-Pad19)*%
X81562500Y-105250000D03*
%TO.P,U4,18,PA9*%
%TO.N,unconnected-(U4-PA9-Pad18)*%
X81562500Y-104750000D03*
%TO.P,U4,17,PA8*%
%TO.N,/USB_DETECT*%
X81562500Y-104250000D03*
%TO.P,U4,16,PA7*%
%TO.N,/SPI1_SDO*%
X81562500Y-103750000D03*
%TO.P,U4,15,PA6*%
%TO.N,/SPI1_SDI*%
X81562500Y-103250000D03*
%TO.P,U4,14,PA5*%
%TO.N,/SPI1_CLK*%
X81562500Y-102750000D03*
%TO.P,U4,13,PA4*%
%TO.N,/SPI1_CS*%
X81562500Y-102250000D03*
D33*
%TO.P,U4,12,PA3*%
%TO.N,/FUEL_CTL*%
X82250000Y-101562500D03*
%TO.P,U4,11,PA2*%
%TO.N,/FUEL_ADC*%
X82750000Y-101562500D03*
%TO.P,U4,10,PA1*%
%TO.N,/~{ATMO_EN}*%
X83250000Y-101562500D03*
%TO.P,U4,9,PA0*%
%TO.N,unconnected-(U4-PA0-Pad9)*%
X83750000Y-101562500D03*
%TO.P,U4,8,VDDA*%
%TO.N,+1V8*%
X84250000Y-101562500D03*
%TO.P,U4,7,NRST*%
%TO.N,Net-(U4-NRST)*%
X84750000Y-101562500D03*
%TO.P,U4,6,PB9*%
%TO.N,/OPT_INT*%
X85250000Y-101562500D03*
%TO.P,U4,5,PB8*%
%TO.N,/I2C1_SCL*%
X85750000Y-101562500D03*
%TO.P,U4,4,PH3*%
%TO.N,GND*%
X86250000Y-101562500D03*
%TO.P,U4,3,PC15*%
%TO.N,Net-(U4-PC15)*%
X86750000Y-101562500D03*
%TO.P,U4,2,PC14*%
%TO.N,Net-(U4-PC14)*%
X87250000Y-101562500D03*
%TO.P,U4,1,VBAT*%
%TO.N,+BATT*%
X87750000Y-101562500D03*
%TD*%
D19*
%TO.P,H3,1,1*%
%TO.N,+BATT*%
X106000000Y-126000000D03*
%TD*%
D24*
%TO.P,C21,2*%
%TO.N,Net-(FL1-IN)*%
X68990000Y-106350000D03*
%TO.P,C21,1*%
%TO.N,GND*%
X68990000Y-107900000D03*
%TD*%
D34*
%TO.P,U2,8,VDD*%
%TO.N,Net-(U2-VDD)*%
X81967461Y-86155648D03*
%TO.P,U2,7,GND*%
%TO.N,GND*%
X81317461Y-86155648D03*
%TO.P,U2,6,VDDIO*%
%TO.N,Net-(U2-VDD)*%
X80667461Y-86155648D03*
%TO.P,U2,5,SDO*%
%TO.N,/SPI1_SDI*%
X80017461Y-86155648D03*
%TO.P,U2,4,SCK*%
%TO.N,/SPI1_CLK*%
X80017461Y-88205648D03*
%TO.P,U2,3,SDI*%
%TO.N,/SPI1_SDO*%
X80667461Y-88205648D03*
%TO.P,U2,2,CSB*%
%TO.N,/SPI1_CS*%
X81317461Y-88205648D03*
%TO.P,U2,1,GND*%
%TO.N,GND*%
X81967461Y-88205648D03*
%TD*%
D24*
%TO.P,C11,2*%
%TO.N,GND*%
X83237500Y-97700000D03*
%TO.P,C11,1*%
%TO.N,+1V8*%
X83237500Y-99250000D03*
%TD*%
D13*
%TO.P,C2,2*%
%TO.N,GND*%
X104575000Y-115350000D03*
%TO.P,C2,1*%
%TO.N,+1V8*%
X103025000Y-115350000D03*
%TD*%
D35*
%TO.P,U1,5,L_{X}*%
%TO.N,Net-(U1-L_{X})*%
X103125000Y-119250000D03*
%TO.P,U1,4,V_{FB}*%
%TO.N,+1V8*%
X103125000Y-117350000D03*
%TO.P,U1,3,~{SHDN}*%
%TO.N,+BATT*%
X105400000Y-117350000D03*
%TO.P,U1,2,GND*%
%TO.N,GND*%
X105400000Y-118300000D03*
%TO.P,U1,1,V_{IN}*%
%TO.N,+BATT*%
X105400000Y-119250000D03*
%TD*%
D24*
%TO.P,C9,2*%
%TO.N,GND*%
X91450000Y-96325000D03*
%TO.P,C9,1*%
%TO.N,+1V8*%
X91450000Y-97875000D03*
%TD*%
%TO.P,C12,2*%
%TO.N,GND*%
X84937500Y-97700000D03*
%TO.P,C12,1*%
%TO.N,+1V8*%
X84937500Y-99250000D03*
%TD*%
D18*
%TO.P,C10,2*%
%TO.N,GND*%
X77400000Y-110293750D03*
%TO.P,C10,1*%
%TO.N,+1V8*%
X78950000Y-110293750D03*
%TD*%
D13*
%TO.P,C19,2*%
%TO.N,GND*%
X99075000Y-91000000D03*
%TO.P,C19,1*%
%TO.N,+BATT*%
X97525000Y-91000000D03*
%TD*%
D36*
%TO.P,TP1,1,1*%
%TO.N,+1V8*%
X95400000Y-113200000D03*
%TD*%
D37*
%TO.P,J1,10,~{RESET}*%
%TO.N,/JTRST*%
X102300000Y-93920000D03*
%TO.P,J1,9,GNDDetect*%
%TO.N,GND*%
X106200000Y-93920000D03*
%TO.P,J1,8,NC/TDI*%
%TO.N,/JTDI*%
X102300000Y-95190000D03*
%TO.P,J1,7,KEY*%
%TO.N,unconnected-(J1-KEY-Pad7)*%
X106200000Y-95190000D03*
%TO.P,J1,6,SWO/TDO*%
%TO.N,/SWTRACE_JTDO*%
X102300000Y-96460000D03*
%TO.P,J1,5,GND*%
%TO.N,GND*%
X106200000Y-96460000D03*
%TO.P,J1,4,SWCLK/TCK*%
%TO.N,/SWCLK_JTCK*%
X102300000Y-97730000D03*
%TO.P,J1,3,GND*%
%TO.N,GND*%
X106200000Y-97730000D03*
%TO.P,J1,2,SWDIO/TMS*%
%TO.N,/SWDIO_JTMS*%
X102300000Y-99000000D03*
%TO.P,J1,1,VTref*%
%TO.N,+1V8*%
X106200000Y-99000000D03*
%TD*%
D38*
%TO.P,R5,2*%
%TO.N,Net-(J2-VBUS-PadA4)*%
X82125000Y-122000000D03*
%TO.P,R5,1*%
%TO.N,/USB_DETECT*%
X80475000Y-122000000D03*
%TD*%
D24*
%TO.P,C14,2*%
%TO.N,GND*%
X90400000Y-100100000D03*
%TO.P,C14,1*%
%TO.N,+BATT*%
X90400000Y-101650000D03*
%TD*%
D39*
%TO.P,R4,2*%
%TO.N,GND*%
X80157461Y-82995648D03*
%TO.P,R4,1*%
%TO.N,/SPI1_SDI*%
X80157461Y-84645648D03*
%TD*%
D17*
%TO.P,C13,2*%
%TO.N,GND*%
X87725000Y-111625000D03*
%TO.P,C13,1*%
%TO.N,+1V8*%
X87725000Y-110075000D03*
%TD*%
D40*
%TO.P,L1,2,2*%
%TO.N,+1V8*%
X99400000Y-117250000D03*
%TO.P,L1,1,1*%
%TO.N,Net-(U1-L_{X})*%
X99400000Y-119450000D03*
%TD*%
D14*
%TO.P,R9,2*%
%TO.N,/USER_BTN*%
X77350000Y-118000000D03*
%TO.P,R9,1*%
%TO.N,+1V8*%
X79000000Y-118000000D03*
%TD*%
D13*
%TO.P,C18,2*%
%TO.N,Net-(U6-C_{pump+})*%
X95600000Y-93250000D03*
%TO.P,C18,1*%
%TO.N,Net-(U6-C_{pump-})*%
X94050000Y-93250000D03*
%TD*%
D18*
%TO.P,C7,2*%
%TO.N,GND*%
X77400000Y-111993750D03*
%TO.P,C7,1*%
%TO.N,+1V8*%
X78950000Y-111993750D03*
%TD*%
D41*
%TO.P,J2,S1,SHIELD*%
%TO.N,GND*%
X89350000Y-128460000D03*
D42*
X89350000Y-125080000D03*
D41*
X80700000Y-128460000D03*
D42*
X80700000Y-125080000D03*
D43*
%TO.P,J2,B12,GND*%
X82050000Y-125450000D03*
%TO.P,J2,B9,VBUS*%
%TO.N,Net-(J2-VBUS-PadA4)*%
X82900000Y-125450000D03*
%TO.P,J2,B8*%
%TO.N,N/C*%
X83750000Y-125450000D03*
%TO.P,J2,B7,D-*%
%TO.N,/USB_D_N*%
X84600000Y-125450000D03*
%TO.P,J2,B6,D+*%
%TO.N,/USB_D_P*%
X85450000Y-125450000D03*
%TO.P,J2,B5,CC2*%
%TO.N,unconnected-(J2-CC2-PadB5)*%
X86300000Y-125450000D03*
%TO.P,J2,B4,VBUS*%
%TO.N,Net-(J2-VBUS-PadA4)*%
X87150000Y-125450000D03*
%TO.P,J2,B1,GND*%
%TO.N,GND*%
X88000000Y-125450000D03*
%TO.P,J2,A12,GND*%
X88000000Y-124100000D03*
%TO.P,J2,A9,VBUS*%
%TO.N,Net-(J2-VBUS-PadA4)*%
X87150000Y-124100000D03*
%TO.P,J2,A8*%
%TO.N,N/C*%
X86300000Y-124100000D03*
%TO.P,J2,A7,D-*%
%TO.N,/USB_D_N*%
X85450000Y-124100000D03*
%TO.P,J2,A6,D+*%
%TO.N,/USB_D_P*%
X84600000Y-124100000D03*
%TO.P,J2,A5,CC1*%
%TO.N,unconnected-(J2-CC1-PadA5)*%
X83750000Y-124100000D03*
%TO.P,J2,A4,VBUS*%
%TO.N,Net-(J2-VBUS-PadA4)*%
X82900000Y-124100000D03*
%TO.P,J2,A1,GND*%
%TO.N,GND*%
X82050000Y-124100000D03*
%TD*%
D14*
%TO.P,R1,2*%
%TO.N,/I2C1_SCL*%
X87650000Y-95800000D03*
%TO.P,R1,1*%
%TO.N,+1V8*%
X89300000Y-95800000D03*
%TD*%
D24*
%TO.P,C5,2*%
%TO.N,GND*%
X74175000Y-83000000D03*
%TO.P,C5,1*%
%TO.N,Net-(U3-VDD)*%
X74175000Y-84550000D03*
%TD*%
D44*
%TO.P,SW2,2,2*%
%TO.N,/USER_BTN*%
X69750000Y-121750000D03*
X76250000Y-121750000D03*
%TO.P,SW2,1,1*%
%TO.N,GND*%
X69750000Y-126250000D03*
X76250000Y-126250000D03*
%TD*%
D45*
%TO.P,L2,2,2*%
%TO.N,Net-(U4-VLXSMPS)*%
X86862500Y-115750000D03*
%TO.P,L2,1,1*%
%TO.N,Net-(U4-VFBSMPS)*%
X84662500Y-115750000D03*
%TD*%
D24*
%TO.P,C3,2*%
%TO.N,GND*%
X81867461Y-83050648D03*
%TO.P,C3,1*%
%TO.N,Net-(U2-VDD)*%
X81867461Y-84600648D03*
%TD*%
D46*
%TO.P,Y2,2*%
%TO.N,Net-(U4-PC15)*%
X90096051Y-98503949D03*
%TO.P,Y2,1*%
%TO.N,Net-(U4-PC14)*%
X88300000Y-100300000D03*
%TD*%
D44*
%TO.P,SW1,2,2*%
%TO.N,Net-(U4-NRST)*%
X76500000Y-101800000D03*
X76500000Y-95300000D03*
%TO.P,SW1,1,1*%
%TO.N,GND*%
X72000000Y-101800000D03*
X72000000Y-95300000D03*
%TD*%
D47*
%TO.N,GND*%
X81500000Y-87200000D03*
%TO.N,+BATT*%
X89263909Y-101463909D03*
X97900000Y-90200000D03*
X88150000Y-101540000D03*
X90700000Y-107800000D03*
D48*
%TO.N,GND*%
X71800000Y-109000000D03*
X66700000Y-96177778D03*
X80183334Y-105500000D03*
X70958333Y-109000000D03*
D47*
X106000000Y-115900000D03*
D48*
X78502778Y-107000000D03*
D47*
X84100000Y-97100000D03*
X106800000Y-115000000D03*
X85750000Y-110500000D03*
D49*
X81000000Y-83000000D03*
D47*
X80300000Y-87200000D03*
D48*
X66738889Y-105500000D03*
X66700000Y-94497222D03*
X76000000Y-109000000D03*
X66750000Y-107300000D03*
X66700000Y-99538889D03*
X74301389Y-105500000D03*
X66700000Y-103740278D03*
X75141667Y-105500000D03*
X72638889Y-109000000D03*
D47*
X86850000Y-87450000D03*
D48*
X66700000Y-102059722D03*
D47*
X77400000Y-109200000D03*
D48*
X75159722Y-109000000D03*
D49*
X98975000Y-91975000D03*
D48*
X66700000Y-102900000D03*
D47*
X83112500Y-113225000D03*
D48*
X66700000Y-97018056D03*
D47*
X84600000Y-96550000D03*
X77400000Y-116500000D03*
D48*
X79343056Y-107000000D03*
X70940278Y-105500000D03*
X67579167Y-105500000D03*
D47*
X96500000Y-83900000D03*
D48*
X70119444Y-109000000D03*
D47*
X77400000Y-111150000D03*
D48*
X69279167Y-109000000D03*
X77662500Y-105500000D03*
X77200000Y-107600000D03*
X66700000Y-95337500D03*
X80183334Y-107000000D03*
X68419445Y-105500000D03*
D49*
X75000000Y-83000000D03*
D48*
X79343056Y-105500000D03*
D47*
X77400000Y-112850000D03*
D48*
X72620834Y-105500000D03*
X66700000Y-101219445D03*
D47*
X87075000Y-111625000D03*
D48*
X66700000Y-104580556D03*
D47*
X98975000Y-85975000D03*
D48*
X71780556Y-105500000D03*
X67598611Y-109000000D03*
X70100000Y-105500000D03*
X66750000Y-108140278D03*
D47*
X77400000Y-114550000D03*
D48*
X66700000Y-98698611D03*
D49*
X107975000Y-94975000D03*
D48*
X66700000Y-100379167D03*
D47*
X104500000Y-118300000D03*
D49*
X107975000Y-97975000D03*
D48*
X76600000Y-108250000D03*
X69259723Y-105500000D03*
X66758333Y-109000000D03*
X66700000Y-97858333D03*
D47*
X83593199Y-96550000D03*
X96500000Y-87700000D03*
D48*
X77662500Y-107000000D03*
X76822223Y-105500000D03*
X68438889Y-109000000D03*
D47*
X98600000Y-90000000D03*
D48*
X75981945Y-105500000D03*
D47*
X104300000Y-117000000D03*
X92900000Y-96592894D03*
D48*
X73479167Y-109000000D03*
X73461112Y-105500000D03*
D47*
X92200000Y-111625000D03*
X89300000Y-100100000D03*
X96500000Y-85500000D03*
D49*
X68974152Y-85971317D03*
D48*
X78502778Y-105500000D03*
X74319444Y-109000000D03*
D47*
%TO.N,+1V8*%
X80500000Y-104800000D03*
X89300000Y-85800000D03*
X89300000Y-90000000D03*
X80700000Y-107500000D03*
X80400000Y-108000000D03*
%TO.N,/I2C1_SCL*%
X95700000Y-87700000D03*
X86420315Y-100199785D03*
X72600000Y-90450000D03*
X86420315Y-95800000D03*
%TO.N,/I2C1_SDA*%
X74550000Y-91422917D03*
X89261831Y-102076263D03*
X85129289Y-94636397D03*
X99600000Y-85500000D03*
%TO.N,Net-(U4-NRST)*%
X84400000Y-100400000D03*
%TO.N,Net-(U3-VDD)*%
X78638909Y-88861091D03*
X86900000Y-88324997D03*
%TO.N,/~{ATMO_EN}*%
X91500000Y-87500000D03*
X88400000Y-90800000D03*
%TO.N,/SWDIO_JTMS*%
X96400000Y-99000000D03*
X89987500Y-106750000D03*
%TO.N,/JTDI*%
X89050000Y-105250000D03*
X98800000Y-95190000D03*
%TO.N,/JTRST*%
X89753424Y-103994520D03*
X98700000Y-93920000D03*
%TO.N,/SWCLK_JTCK*%
X90000000Y-105750000D03*
X96970000Y-97737108D03*
%TO.N,/SWTRACE_JTDO*%
X96866446Y-96426446D03*
X89740380Y-104736826D03*
%TO.N,/USB_D_N*%
X89200000Y-108100000D03*
X89000000Y-113000000D03*
X85452599Y-121623377D03*
X88700000Y-118300000D03*
%TO.N,/USB_D_P*%
X88100000Y-118200000D03*
X88299997Y-113000000D03*
X89062500Y-107250000D03*
X84950000Y-121400000D03*
%TO.N,/OPT_INT*%
X73600000Y-90922917D03*
X85820679Y-95200000D03*
X85820679Y-100220679D03*
%TO.N,/USB_DETECT*%
X80950000Y-104250000D03*
X80400000Y-118600000D03*
%TO.N,/USER_BTN*%
X83700000Y-113800000D03*
%TO.N,/~{LIGHT_EN}*%
X92435396Y-95337396D03*
X89802536Y-102402536D03*
%TO.N,/SPI1_SDO*%
X80500000Y-101366139D03*
X80400000Y-103400000D03*
%TO.N,/~{CO2_EN}*%
X92962500Y-89912500D03*
X90050000Y-102950000D03*
X92388611Y-91694553D03*
X93800000Y-94600000D03*
%TD*%
D50*
%TO.N,Net-(U2-VDD)*%
X80667461Y-86155648D02*
X80667461Y-85605648D01*
X80667461Y-85605648D02*
X80723109Y-85550000D01*
X80723109Y-85550000D02*
X87150000Y-85550000D01*
X87150000Y-85550000D02*
X87600000Y-86000000D01*
X87600000Y-86000000D02*
X87600000Y-86275000D01*
X81967461Y-86155648D02*
X81967461Y-84700648D01*
X81967461Y-84700648D02*
X81867461Y-84600648D01*
D51*
%TO.N,/I2C1_SDA*%
X74550000Y-91422917D02*
X74550000Y-90718628D01*
X74550000Y-90718628D02*
X71850000Y-88018628D01*
X71850000Y-88018628D02*
X71850000Y-87150000D01*
%TO.N,/OPT_INT*%
X73600000Y-90922917D02*
X73600000Y-90334314D01*
X73600000Y-90334314D02*
X71350000Y-88084314D01*
X71350000Y-88084314D02*
X71350000Y-87150000D01*
%TO.N,/I2C1_SCL*%
X72600000Y-90450000D02*
X72600000Y-89900000D01*
X72600000Y-89900000D02*
X70350000Y-87650000D01*
X70350000Y-87650000D02*
X70350000Y-87150000D01*
%TO.N,/SPI1_CS*%
X81562500Y-102250000D02*
X81437501Y-102125001D01*
X81437501Y-102125001D02*
X81437501Y-88325688D01*
X81437501Y-88325688D02*
X81317461Y-88205648D01*
%TO.N,/SPI1_SDO*%
X80500000Y-101366139D02*
X80525000Y-101341139D01*
X80525000Y-88348109D02*
X80667461Y-88205648D01*
X80525000Y-101341139D02*
X80525000Y-88348109D01*
%TO.N,/SPI1_SDI*%
X81562500Y-103250000D02*
X81044928Y-103250000D01*
X81044928Y-103250000D02*
X79600000Y-101805072D01*
X79600000Y-101805072D02*
X79600000Y-89000000D01*
X79600000Y-89000000D02*
X79318933Y-88718933D01*
X79318933Y-88718933D02*
X79318933Y-86854176D01*
X79318933Y-86854176D02*
X80017461Y-86155648D01*
%TO.N,/SPI1_CLK*%
X81562500Y-102750000D02*
X81110614Y-102750000D01*
X81110614Y-102750000D02*
X80000000Y-101639386D01*
X80000000Y-101639386D02*
X80000000Y-88223109D01*
X80000000Y-88223109D02*
X80017461Y-88205648D01*
D52*
%TO.N,Net-(U3-VDD)*%
X78638909Y-88861091D02*
X75900000Y-86122182D01*
X75900000Y-86122182D02*
X75900000Y-84550000D01*
D50*
%TO.N,+BATT*%
X92712500Y-90462500D02*
X92050000Y-89800000D01*
X95476238Y-90200000D02*
X93452818Y-90200000D01*
X88150000Y-101540000D02*
X87772500Y-101540000D01*
X92050000Y-89112500D02*
X90450000Y-87512500D01*
X97900000Y-90200000D02*
X95476238Y-90200000D01*
D51*
X90600000Y-106250000D02*
X88437500Y-106250000D01*
X90450000Y-87512500D02*
X90387500Y-87450000D01*
D50*
X90600000Y-107700000D02*
X90600000Y-102000000D01*
X94800000Y-90876238D02*
X94800000Y-91300000D01*
X90063909Y-101463909D02*
X89263909Y-101463909D01*
X93452818Y-90200000D02*
X93190318Y-90462500D01*
X92050000Y-89800000D02*
X92050000Y-89112500D01*
X93190318Y-90462500D02*
X92712500Y-90462500D01*
X90600000Y-102000000D02*
X90063909Y-101463909D01*
X90700000Y-107800000D02*
X90600000Y-107700000D01*
X95476238Y-90200000D02*
X94800000Y-90876238D01*
D51*
X90387500Y-87450000D02*
X89478186Y-87450000D01*
D52*
%TO.N,GND*%
X77400000Y-110293750D02*
X77400000Y-115416250D01*
D50*
X87075000Y-111625000D02*
X87725000Y-111625000D01*
X92632106Y-96325000D02*
X92900000Y-96592894D01*
D52*
X88912500Y-111625000D02*
X87725000Y-111625000D01*
D51*
X83112500Y-111800000D02*
X83112500Y-111850000D01*
D52*
X80157461Y-82995648D02*
X81812461Y-82995648D01*
D51*
X104300000Y-117000000D02*
X104300000Y-116500000D01*
X83250000Y-106750000D02*
X85000000Y-105000000D01*
X89525000Y-111625000D02*
X89400000Y-111625000D01*
D52*
X77400000Y-115416250D02*
X77400000Y-116500000D01*
X74175000Y-83000000D02*
X75900000Y-83000000D01*
D51*
X81562500Y-106750000D02*
X81512500Y-106800000D01*
D52*
X105400000Y-118300000D02*
X104500000Y-118300000D01*
D53*
X106200000Y-97730000D02*
X106200000Y-96460000D01*
D51*
X85750000Y-108437500D02*
X85750000Y-105750000D01*
D52*
X104500000Y-118300000D02*
X104300000Y-118100000D01*
X104300000Y-118100000D02*
X104300000Y-115625000D01*
D51*
X86300000Y-101512500D02*
X86250000Y-101562500D01*
X80545833Y-106800000D02*
X80345833Y-107000000D01*
X85750000Y-105750000D02*
X85000000Y-105000000D01*
D52*
X83112500Y-113225000D02*
X83112500Y-111850000D01*
D51*
X85750000Y-108437500D02*
X85750000Y-110500000D01*
X87725000Y-111625000D02*
X87725000Y-111650000D01*
D52*
X81812461Y-82995648D02*
X81867461Y-83050648D01*
X83112500Y-113225000D02*
X82262500Y-114075000D01*
X89525000Y-111625000D02*
X88912500Y-111625000D01*
D51*
X86250000Y-101562500D02*
X86250000Y-102425000D01*
D52*
X104300000Y-115625000D02*
X104575000Y-115350000D01*
D51*
X90400000Y-100100000D02*
X89300000Y-100100000D01*
X86250000Y-102425000D02*
X86275000Y-102450000D01*
D50*
X91450000Y-96325000D02*
X92632106Y-96325000D01*
D52*
X77400000Y-110293750D02*
X77400000Y-109200000D01*
D51*
X81512500Y-106800000D02*
X80545833Y-106800000D01*
D52*
X88912500Y-111625000D02*
X92200000Y-111625000D01*
D51*
X81562500Y-106750000D02*
X83250000Y-106750000D01*
D54*
%TO.N,+1V8*%
X89300000Y-119300000D02*
X82833750Y-119300000D01*
X92475000Y-110075000D02*
X95600000Y-113200000D01*
D51*
X80800000Y-105439386D02*
X81110614Y-105750000D01*
D54*
X90600000Y-110075000D02*
X91500000Y-110075000D01*
X78950000Y-109410614D02*
X80525000Y-107835614D01*
X90500000Y-97100000D02*
X88880000Y-97100000D01*
X88880000Y-97100000D02*
X88000000Y-97100000D01*
X90600000Y-110075000D02*
X92475000Y-110075000D01*
D50*
X79000000Y-118000000D02*
X80266875Y-116733125D01*
D52*
X89325000Y-85925000D02*
X89325000Y-86275000D01*
D50*
X88437500Y-102030318D02*
X88700000Y-101767818D01*
D54*
X84100000Y-99250000D02*
X83600000Y-99750000D01*
X91500000Y-100850000D02*
X91500000Y-98100000D01*
X78950000Y-110293750D02*
X78950000Y-109410614D01*
X80266875Y-116733125D02*
X78950000Y-115416250D01*
D52*
X89300000Y-85900000D02*
X89325000Y-85925000D01*
D51*
X81110614Y-105750000D02*
X81562500Y-105750000D01*
D50*
X80950000Y-107250000D02*
X80700000Y-107500000D01*
D54*
X78950000Y-115416250D02*
X78950000Y-110293750D01*
X88000000Y-97100000D02*
X85850000Y-99250000D01*
D52*
X89300000Y-90000000D02*
X89300000Y-88763186D01*
D50*
X81562500Y-107250000D02*
X80950000Y-107250000D01*
D52*
X89300000Y-96680000D02*
X89300000Y-90000000D01*
D51*
X80800000Y-105100000D02*
X80800000Y-105439386D01*
D54*
X91500000Y-98100000D02*
X90500000Y-97100000D01*
D55*
X81110614Y-107250000D02*
X81562500Y-107250000D01*
D50*
X88437500Y-102250000D02*
X88437500Y-102030318D01*
D54*
X95600000Y-113200000D02*
X99400000Y-117000000D01*
D50*
X88700000Y-101250000D02*
X89100000Y-100850000D01*
D54*
X95400000Y-113200000D02*
X89300000Y-119300000D01*
X83600000Y-99750000D02*
X83600000Y-100118629D01*
X82833750Y-119300000D02*
X80266875Y-116733125D01*
X95400000Y-113200000D02*
X106200000Y-102400000D01*
X91500000Y-110075000D02*
X91500000Y-100850000D01*
X89525000Y-110075000D02*
X90600000Y-110075000D01*
D50*
X89100000Y-100850000D02*
X91500000Y-100850000D01*
D51*
X80500000Y-104800000D02*
X80800000Y-105100000D01*
D54*
X84100000Y-99250000D02*
X83237500Y-99250000D01*
D50*
X88700000Y-101767818D02*
X88700000Y-101250000D01*
D54*
X85850000Y-99250000D02*
X84100000Y-99250000D01*
X99400000Y-117000000D02*
X99400000Y-117250000D01*
X106200000Y-102400000D02*
X106200000Y-99000000D01*
D52*
X89300000Y-85800000D02*
X89300000Y-85900000D01*
%TO.N,Net-(U4-VFBSMPS)*%
X85250000Y-108975000D02*
X85250000Y-109375000D01*
X84137500Y-115625000D02*
X82262500Y-115625000D01*
X85000000Y-109625000D02*
X85000000Y-114762500D01*
X85250000Y-109375000D02*
X85000000Y-109625000D01*
X85000000Y-114762500D02*
X84137500Y-115625000D01*
%TO.N,Net-(U4-VLXSMPS)*%
X86400000Y-109525000D02*
X86250000Y-109375000D01*
X86400000Y-115287500D02*
X86400000Y-109525000D01*
X86862500Y-115750000D02*
X86400000Y-115287500D01*
X86250000Y-109375000D02*
X86250000Y-109030806D01*
D51*
%TO.N,/I2C1_SCL*%
X95700000Y-87700000D02*
X95700000Y-86700000D01*
X87375000Y-95800000D02*
X86420315Y-95800000D01*
X86420315Y-100199785D02*
X86420315Y-100341207D01*
X85750000Y-101011522D02*
X85750000Y-101562500D01*
X86420315Y-100341207D02*
X85750000Y-101011522D01*
%TO.N,/I2C1_SDA*%
X86800000Y-92200000D02*
X85129289Y-93870711D01*
X87375000Y-92200000D02*
X86800000Y-92200000D01*
X88889386Y-102750000D02*
X88437500Y-102750000D01*
X85129289Y-93870711D02*
X85129289Y-94636397D01*
X89261831Y-102076263D02*
X89175000Y-102163094D01*
X89175000Y-102163094D02*
X89175000Y-102464386D01*
X89175000Y-102464386D02*
X88889386Y-102750000D01*
X99600000Y-85500000D02*
X98000000Y-85500000D01*
%TO.N,Net-(U4-NRST)*%
X84750000Y-100750000D02*
X84750000Y-101562500D01*
X84400000Y-100400000D02*
X84750000Y-100750000D01*
D52*
%TO.N,Net-(U3-VDD)*%
X75900000Y-84550000D02*
X74175000Y-84550000D01*
X87575000Y-88575000D02*
X87575000Y-88600000D01*
X87324997Y-88324997D02*
X87575000Y-88575000D01*
X74175000Y-84550000D02*
X73295000Y-85430000D01*
X86900000Y-88324997D02*
X87324997Y-88324997D01*
X73295000Y-85430000D02*
X71900000Y-85430000D01*
D50*
%TO.N,Net-(U5-VDD)*%
X97300000Y-88675000D02*
X97325000Y-88700000D01*
X95600000Y-89025000D02*
X97000000Y-89025000D01*
X97300000Y-86700000D02*
X97300000Y-88675000D01*
X97000000Y-89025000D02*
X97325000Y-88700000D01*
D51*
%TO.N,Net-(U4-PC15)*%
X88823259Y-98503949D02*
X90096051Y-98503949D01*
X86750000Y-101562500D02*
X86750000Y-100577208D01*
X86750000Y-100577208D02*
X88823259Y-98503949D01*
%TO.N,Net-(U4-PC14)*%
X87250000Y-101562500D02*
X87250000Y-100642894D01*
X87592894Y-100300000D02*
X88300000Y-100300000D01*
X87250000Y-100642894D02*
X87592894Y-100300000D01*
D50*
%TO.N,Net-(U6-C_{pump-})*%
X93850000Y-91300000D02*
X93850000Y-93050000D01*
X93850000Y-93050000D02*
X94050000Y-93250000D01*
%TO.N,Net-(U6-C_{pump+})*%
X95750000Y-91300000D02*
X95750000Y-93100000D01*
X95750000Y-93100000D02*
X95600000Y-93250000D01*
D51*
%TO.N,Net-(U4-OSC_IN)*%
X82250000Y-109912500D02*
X82937500Y-110600000D01*
X82750000Y-110812500D02*
X83112500Y-110450000D01*
X82250000Y-108437500D02*
X82250000Y-109912500D01*
%TO.N,Net-(U4-OSC_OUT)*%
X80787500Y-108612500D02*
X81562500Y-107837500D01*
X81187500Y-111700000D02*
X80787500Y-111300000D01*
X81537500Y-111700000D02*
X81187500Y-111700000D01*
X80787500Y-111300000D02*
X80787500Y-108612500D01*
X81562500Y-107837500D02*
X81562500Y-107750000D01*
%TO.N,/~{ATMO_EN}*%
X83250000Y-101562500D02*
X83250000Y-101110614D01*
X91000000Y-87000000D02*
X89362500Y-87000000D01*
X87800000Y-90800000D02*
X88400000Y-90800000D01*
X87000000Y-90800000D02*
X87800000Y-90800000D01*
X91500000Y-87500000D02*
X91000000Y-87000000D01*
X82000000Y-95800000D02*
X87000000Y-90800000D01*
X83250000Y-101110614D02*
X82000000Y-99860614D01*
X89362500Y-87000000D02*
X89300000Y-87062500D01*
X82000000Y-99860614D02*
X82000000Y-95800000D01*
%TO.N,/SWDIO_JTMS*%
X96400000Y-99000000D02*
X102300000Y-99000000D01*
X88437500Y-106750000D02*
X89987500Y-106750000D01*
%TO.N,/JTDI*%
X98800000Y-95190000D02*
X102300000Y-95190000D01*
X88437500Y-105250000D02*
X89050000Y-105250000D01*
%TO.N,/JTRST*%
X89497944Y-104250000D02*
X88437500Y-104250000D01*
X89753424Y-103994520D02*
X89497944Y-104250000D01*
X98700000Y-93920000D02*
X102300000Y-93920000D01*
%TO.N,/SWCLK_JTCK*%
X88437500Y-105750000D02*
X90000000Y-105750000D01*
X96970000Y-97737108D02*
X96977108Y-97730000D01*
X96977108Y-97730000D02*
X102300000Y-97730000D01*
%TO.N,/SWTRACE_JTDO*%
X96866446Y-96426446D02*
X96900000Y-96460000D01*
X96900000Y-96460000D02*
X102300000Y-96460000D01*
X89740380Y-104736826D02*
X89727206Y-104750000D01*
X89727206Y-104750000D02*
X88437500Y-104750000D01*
D52*
%TO.N,Net-(J2-VBUS-PadA4)*%
X82900000Y-122775000D02*
X82125000Y-122000000D01*
X82900000Y-124100000D02*
X82900000Y-122775000D01*
X83439339Y-126200000D02*
X86610661Y-126200000D01*
X87150000Y-124100000D02*
X87150000Y-125450000D01*
X82900000Y-125390000D02*
X82900000Y-125600661D01*
X87150000Y-125600661D02*
X87150000Y-125390000D01*
X82900000Y-125660661D02*
X83439339Y-126200000D01*
X82900000Y-124100000D02*
X82900000Y-125450000D01*
X86610661Y-126200000D02*
X87150000Y-125660661D01*
D56*
%TO.N,/USB_D_N*%
X85325000Y-121750976D02*
X85325000Y-123975000D01*
X89000003Y-117999997D02*
X89000003Y-113325006D01*
X89000000Y-113325003D02*
X89000000Y-113000000D01*
X89000003Y-113325006D02*
X89000000Y-113325003D01*
X85452599Y-121623377D02*
X85325000Y-121750976D01*
D52*
X84600000Y-125450000D02*
X84600000Y-125160661D01*
D56*
X88700000Y-118300000D02*
X89000003Y-117999997D01*
D51*
X88850000Y-107750000D02*
X89200000Y-108100000D01*
X88437500Y-107750000D02*
X88850000Y-107750000D01*
D56*
X85325000Y-123975000D02*
X85450000Y-124100000D01*
D52*
X84600000Y-125160661D02*
X85450000Y-124310661D01*
X85450000Y-124310661D02*
X85450000Y-124100000D01*
D51*
%TO.N,/USB_D_P*%
X88437500Y-107250000D02*
X89062500Y-107250000D01*
D56*
X84950000Y-123750000D02*
X84600000Y-124100000D01*
X88625002Y-113325005D02*
X88299997Y-113000000D01*
X88625002Y-117674998D02*
X88625002Y-113325005D01*
X84950000Y-121400000D02*
X84950000Y-123750000D01*
X88100000Y-118200000D02*
X88625002Y-117674998D01*
D51*
%TO.N,/OPT_INT*%
X85250000Y-100791358D02*
X85250000Y-101562500D01*
X85820679Y-94779321D02*
X85820679Y-95200000D01*
X86600000Y-94000000D02*
X85820679Y-94779321D01*
X87375000Y-94000000D02*
X86600000Y-94000000D01*
X85820679Y-100220679D02*
X85250000Y-100791358D01*
%TO.N,/USB_DETECT*%
X80400000Y-121925000D02*
X80475000Y-122000000D01*
X81562500Y-104250000D02*
X80950000Y-104250000D01*
X80400000Y-118600000D02*
X80400000Y-121925000D01*
D50*
%TO.N,/USER_BTN*%
X84100000Y-113400000D02*
X84100000Y-109662500D01*
X84100000Y-109662500D02*
X83750000Y-109312500D01*
X83750000Y-109312500D02*
X83750000Y-108437500D01*
X83700000Y-113800000D02*
X84100000Y-113400000D01*
X76250000Y-121750000D02*
X77350000Y-120650000D01*
X77350000Y-120650000D02*
X77350000Y-118000000D01*
D51*
%TO.N,/~{LIGHT_EN}*%
X89312500Y-87850000D02*
X89300000Y-87837500D01*
X89850000Y-87850000D02*
X89312500Y-87850000D01*
X92435396Y-95035396D02*
X91600000Y-94200000D01*
X88955072Y-103250000D02*
X88437500Y-103250000D01*
X89802536Y-102402536D02*
X88955072Y-103250000D01*
X91600000Y-94200000D02*
X91600000Y-89600000D01*
X91600000Y-89600000D02*
X89850000Y-87850000D01*
X92435396Y-95337396D02*
X92435396Y-95035396D01*
D52*
%TO.N,/SPI1_SDI*%
X80017461Y-86155648D02*
X80017461Y-84775648D01*
X80017461Y-84775648D02*
X80147461Y-84645648D01*
D51*
%TO.N,/SPI1_SDO*%
X80750000Y-103750000D02*
X81562500Y-103750000D01*
X80400000Y-103400000D02*
X80750000Y-103750000D01*
%TO.N,/~{CO2_EN}*%
X92962500Y-89912500D02*
X93850000Y-89025000D01*
X89250000Y-103750000D02*
X88437500Y-103750000D01*
X92525000Y-93325000D02*
X92388611Y-93188611D01*
X92388611Y-93188611D02*
X92388611Y-91694553D01*
X93800000Y-94600000D02*
X92525000Y-93325000D01*
X90050000Y-102950000D02*
X89250000Y-103750000D01*
D57*
%TO.N,Net-(U4-RF1)*%
X80850000Y-106250000D02*
X72187500Y-106250000D01*
%TO.N,Net-(FL1-IN)*%
X70548514Y-106250000D02*
X68200000Y-106250000D01*
%TD*%
%TA.AperFunction,Conductor*%
%TO.N,GND*%
G36*
X88443333Y-86209180D02*
G01*
X88487681Y-86237681D01*
X88863681Y-86613681D01*
X88897166Y-86675004D01*
X88900000Y-86701362D01*
X88900000Y-88198638D01*
X88880315Y-88265677D01*
X88863681Y-88286319D01*
X88487681Y-88662319D01*
X88426358Y-88695804D01*
X88356666Y-88690820D01*
X88312319Y-88662319D01*
X87986818Y-88336818D01*
X87953333Y-88275495D01*
X87950499Y-88249137D01*
X87950499Y-88102605D01*
X87950498Y-88102597D01*
X87944669Y-88073287D01*
X87922457Y-88040042D01*
X87889214Y-88017832D01*
X87889215Y-88017832D01*
X87889213Y-88017831D01*
X87889211Y-88017830D01*
X87889208Y-88017829D01*
X87859901Y-88012000D01*
X87859899Y-88012000D01*
X87703635Y-88012000D01*
X87656181Y-88002561D01*
X87650001Y-88000001D01*
X87650000Y-88000000D01*
X87649998Y-88000000D01*
X87596313Y-88000000D01*
X87534313Y-87983387D01*
X87479588Y-87951791D01*
X87479585Y-87951790D01*
X87377724Y-87924497D01*
X87377723Y-87924497D01*
X87075859Y-87924497D01*
X87008820Y-87904812D01*
X86988178Y-87888178D01*
X86637681Y-87537681D01*
X86604196Y-87476358D01*
X86609180Y-87406666D01*
X86637681Y-87362319D01*
X87063681Y-86936319D01*
X87125004Y-86902834D01*
X87151362Y-86900000D01*
X87650000Y-86900000D01*
X87650682Y-86899318D01*
X87712005Y-86865833D01*
X87738360Y-86862999D01*
X87859898Y-86862999D01*
X87889213Y-86857169D01*
X87922457Y-86834957D01*
X87944669Y-86801713D01*
X87950500Y-86772399D01*
X87950499Y-86650861D01*
X87970183Y-86583824D01*
X87986816Y-86563183D01*
X88000000Y-86550000D01*
X88312319Y-86237681D01*
X88373642Y-86204196D01*
X88443333Y-86209180D01*
G37*
%TD.AperFunction*%
%TD*%
%TA.AperFunction,Conductor*%
%TO.N,GND*%
G36*
X85340677Y-96269685D02*
G01*
X85361319Y-96286319D01*
X85538681Y-96463681D01*
X85572166Y-96525004D01*
X85575000Y-96551362D01*
X85575000Y-98198638D01*
X85555315Y-98265677D01*
X85538681Y-98286319D01*
X85361319Y-98463681D01*
X85299996Y-98497166D01*
X85273638Y-98500000D01*
X82901362Y-98500000D01*
X82834323Y-98480315D01*
X82813681Y-98463681D01*
X82636319Y-98286319D01*
X82602834Y-98224996D01*
X82600000Y-98198638D01*
X82600000Y-96551362D01*
X82619685Y-96484323D01*
X82636319Y-96463681D01*
X82813681Y-96286319D01*
X82875004Y-96252834D01*
X82901362Y-96250000D01*
X85273638Y-96250000D01*
X85340677Y-96269685D01*
G37*
%TD.AperFunction*%
%TD*%
%TA.AperFunction,Conductor*%
%TO.N,GND*%
G36*
X71437035Y-106719685D02*
G01*
X71480478Y-106767702D01*
X71511317Y-106828225D01*
X71525343Y-106855752D01*
X71525346Y-106855756D01*
X71619243Y-106949653D01*
X71619245Y-106949654D01*
X71619249Y-106949658D01*
X71737580Y-107009951D01*
X71737581Y-107009951D01*
X71737583Y-107009952D01*
X71737582Y-107009952D01*
X71835749Y-107025500D01*
X71835754Y-107025500D01*
X72339251Y-107025500D01*
X72437417Y-107009952D01*
X72437418Y-107009951D01*
X72437420Y-107009951D01*
X72555751Y-106949658D01*
X72649658Y-106855751D01*
X72694266Y-106768202D01*
X72742238Y-106717409D01*
X72804749Y-106700500D01*
X72885885Y-106700500D01*
X72952924Y-106720185D01*
X72996370Y-106768206D01*
X73001471Y-106778219D01*
X73001476Y-106778225D01*
X73096774Y-106873523D01*
X73096778Y-106873526D01*
X73096780Y-106873528D01*
X73216874Y-106934719D01*
X73216876Y-106934719D01*
X73216878Y-106934720D01*
X73316507Y-106950500D01*
X73316512Y-106950500D01*
X73883493Y-106950500D01*
X73983121Y-106934720D01*
X73983121Y-106934719D01*
X73983126Y-106934719D01*
X74103220Y-106873528D01*
X74198528Y-106778220D01*
X74203630Y-106768205D01*
X74251604Y-106717410D01*
X74314115Y-106700500D01*
X80550000Y-106700500D01*
X80550000Y-107126936D01*
X80461657Y-107171950D01*
X80461656Y-107171950D01*
X80404616Y-107228989D01*
X80349033Y-107261080D01*
X80293219Y-107276036D01*
X80293215Y-107276038D01*
X80280485Y-107283387D01*
X80218487Y-107300000D01*
X78250000Y-107300000D01*
X77834173Y-107487087D01*
X77834171Y-107487088D01*
X76233477Y-109292999D01*
X76191559Y-109323831D01*
X75824267Y-109489082D01*
X75773390Y-109500000D01*
X66551362Y-109500000D01*
X66484323Y-109480315D01*
X66463681Y-109463681D01*
X66286319Y-109286319D01*
X66252834Y-109224996D01*
X66250000Y-109198638D01*
X66250000Y-107001362D01*
X66269685Y-106934323D01*
X66286319Y-106913681D01*
X66348181Y-106851819D01*
X66409504Y-106818334D01*
X66435862Y-106815500D01*
X66694750Y-106815500D01*
X66694751Y-106815499D01*
X66717120Y-106811050D01*
X66753229Y-106803868D01*
X66753229Y-106803867D01*
X66753231Y-106803867D01*
X66800000Y-106772616D01*
X66800000Y-106850000D01*
X67500000Y-106850000D01*
X67500000Y-106772616D01*
X67546769Y-106803867D01*
X67546770Y-106803868D01*
X67605247Y-106815499D01*
X67605250Y-106815500D01*
X67605252Y-106815500D01*
X67748206Y-106815500D01*
X67772396Y-106817882D01*
X67784519Y-106820294D01*
X67911254Y-106820294D01*
X67926517Y-106819801D01*
X67926527Y-106820126D01*
X67939107Y-106818498D01*
X67939119Y-106818497D01*
X67941122Y-106818237D01*
X67945254Y-106817702D01*
X67945255Y-106817703D01*
X67969628Y-106814549D01*
X67989171Y-106811053D01*
X67989171Y-106811052D01*
X67989182Y-106811051D01*
X67989182Y-106811050D01*
X67990425Y-106810765D01*
X67991353Y-106810553D01*
X67991358Y-106810551D01*
X67991374Y-106810548D01*
X68010524Y-106805170D01*
X68027783Y-106799408D01*
X68036346Y-106796551D01*
X68036352Y-106796548D01*
X68036363Y-106796545D01*
X68052247Y-106790502D01*
X68054018Y-106789743D01*
X68069250Y-106782461D01*
X68092536Y-106770128D01*
X68102059Y-106764755D01*
X68103141Y-106764106D01*
X68112616Y-106758065D01*
X68134932Y-106742962D01*
X68138486Y-106740502D01*
X68138866Y-106740233D01*
X68142001Y-106737969D01*
X68155428Y-106728079D01*
X68204094Y-106708121D01*
X68203761Y-106706604D01*
X68208792Y-106705500D01*
X68218444Y-106703381D01*
X68245023Y-106700500D01*
X68250408Y-106700500D01*
X68317447Y-106720185D01*
X68360892Y-106768205D01*
X68391469Y-106828216D01*
X68391476Y-106828225D01*
X68486774Y-106923523D01*
X68486778Y-106923526D01*
X68486780Y-106923528D01*
X68606874Y-106984719D01*
X68606876Y-106984719D01*
X68606878Y-106984720D01*
X68706507Y-107000500D01*
X68706512Y-107000500D01*
X69273493Y-107000500D01*
X69373121Y-106984720D01*
X69373121Y-106984719D01*
X69373126Y-106984719D01*
X69493220Y-106923528D01*
X69588528Y-106828220D01*
X69597530Y-106810553D01*
X69619108Y-106768205D01*
X69667082Y-106717409D01*
X69729592Y-106700500D01*
X69795251Y-106700500D01*
X69862290Y-106720185D01*
X69905733Y-106768202D01*
X69936317Y-106828225D01*
X69950343Y-106855752D01*
X69950346Y-106855756D01*
X70044243Y-106949653D01*
X70044245Y-106949654D01*
X70044249Y-106949658D01*
X70162580Y-107009951D01*
X70162581Y-107009951D01*
X70162583Y-107009952D01*
X70162582Y-107009952D01*
X70260749Y-107025500D01*
X70260754Y-107025500D01*
X70764251Y-107025500D01*
X70862417Y-107009952D01*
X70862418Y-107009951D01*
X70862420Y-107009951D01*
X70980751Y-106949658D01*
X71074658Y-106855751D01*
X71119521Y-106767702D01*
X71167494Y-106716909D01*
X71230004Y-106700000D01*
X71369996Y-106700000D01*
X71437035Y-106719685D01*
G37*
%TD.AperFunction*%
%TD*%
%TA.AperFunction,Conductor*%
%TO.N,+BATT*%
G36*
X97865677Y-90019685D02*
G01*
X97886319Y-90036319D01*
X98063681Y-90213681D01*
X98097166Y-90275004D01*
X98100000Y-90301362D01*
X98100000Y-91198638D01*
X98080315Y-91265677D01*
X98063681Y-91286319D01*
X97886319Y-91463681D01*
X97824996Y-91497166D01*
X97798638Y-91500000D01*
X96374500Y-91500000D01*
X96307461Y-91480315D01*
X96261706Y-91427511D01*
X96250500Y-91376000D01*
X96250500Y-90754239D01*
X96240573Y-90686108D01*
X96240573Y-90686107D01*
X96189198Y-90581017D01*
X96189196Y-90581015D01*
X96189196Y-90581014D01*
X96106485Y-90498303D01*
X96001391Y-90446926D01*
X95933261Y-90437000D01*
X95933260Y-90437000D01*
X95566740Y-90437000D01*
X95566739Y-90437000D01*
X95498608Y-90446926D01*
X95393514Y-90498303D01*
X95310803Y-90581014D01*
X95259426Y-90686108D01*
X95249500Y-90754239D01*
X95249500Y-91376000D01*
X95229815Y-91443039D01*
X95177011Y-91488794D01*
X95125500Y-91500000D01*
X94801362Y-91500000D01*
X94734323Y-91480315D01*
X94713681Y-91463681D01*
X94536319Y-91286319D01*
X94502834Y-91224996D01*
X94500000Y-91198638D01*
X94500000Y-90301362D01*
X94519685Y-90234323D01*
X94536319Y-90213681D01*
X94713681Y-90036319D01*
X94775004Y-90002834D01*
X94801362Y-90000000D01*
X97798638Y-90000000D01*
X97865677Y-90019685D01*
G37*
%TD.AperFunction*%
%TD*%
%TA.AperFunction,Conductor*%
%TO.N,GND*%
G36*
X67500000Y-105757382D02*
G01*
X67480447Y-105770447D01*
X67436132Y-105836769D01*
X67436131Y-105836770D01*
X67424500Y-105895247D01*
X67424500Y-106634752D01*
X67436131Y-106693229D01*
X67436132Y-106693230D01*
X67480447Y-106759552D01*
X67492211Y-106767412D01*
X67500000Y-106772616D01*
X67500000Y-106850000D01*
X66800000Y-106850000D01*
X66800000Y-106772616D01*
X66819552Y-106759552D01*
X66863867Y-106693231D01*
X66863867Y-106693229D01*
X66863868Y-106693229D01*
X66875499Y-106634752D01*
X66875500Y-106634750D01*
X66875500Y-105895249D01*
X66875499Y-105895247D01*
X66863868Y-105836770D01*
X66863867Y-105836769D01*
X66819552Y-105770447D01*
X66800000Y-105757382D01*
X66800000Y-105650000D01*
X67500000Y-105650000D01*
X67500000Y-105757382D01*
G37*
%TD.AperFunction*%
%TD*%
%TA.AperFunction,Conductor*%
%TO.N,GND*%
G36*
X95306271Y-82219685D02*
G01*
X95352026Y-82272489D01*
X95361970Y-82341647D01*
X95360850Y-82348190D01*
X95349500Y-82405252D01*
X95349500Y-82994752D01*
X95361131Y-83053229D01*
X95361132Y-83053230D01*
X95405447Y-83119552D01*
X95471769Y-83163867D01*
X95471770Y-83163868D01*
X95530247Y-83175499D01*
X95530250Y-83175500D01*
X95530252Y-83175500D01*
X95869750Y-83175500D01*
X95869751Y-83175499D01*
X95884568Y-83172552D01*
X95928229Y-83163868D01*
X95928229Y-83163867D01*
X95928231Y-83163867D01*
X95994552Y-83119552D01*
X96038867Y-83053231D01*
X96038867Y-83053229D01*
X96038868Y-83053229D01*
X96050499Y-82994752D01*
X96050500Y-82994750D01*
X96050500Y-82405252D01*
X96039150Y-82348190D01*
X96045379Y-82278599D01*
X96088242Y-82223422D01*
X96154132Y-82200178D01*
X96160768Y-82200000D01*
X96839232Y-82200000D01*
X96906271Y-82219685D01*
X96952026Y-82272489D01*
X96961970Y-82341647D01*
X96960850Y-82348190D01*
X96949500Y-82405252D01*
X96949500Y-82994752D01*
X96961131Y-83053229D01*
X96961132Y-83053230D01*
X97005447Y-83119552D01*
X97071769Y-83163867D01*
X97071770Y-83163868D01*
X97130247Y-83175499D01*
X97130250Y-83175500D01*
X97130252Y-83175500D01*
X97469750Y-83175500D01*
X97469751Y-83175499D01*
X97484568Y-83172552D01*
X97528229Y-83163868D01*
X97528229Y-83163867D01*
X97528231Y-83163867D01*
X97594552Y-83119552D01*
X97638867Y-83053231D01*
X97638867Y-83053229D01*
X97638868Y-83053229D01*
X97650499Y-82994752D01*
X97650500Y-82994750D01*
X97650500Y-82405252D01*
X97639150Y-82348190D01*
X97645379Y-82278599D01*
X97688242Y-82223422D01*
X97754132Y-82200178D01*
X97760768Y-82200000D01*
X97948638Y-82200000D01*
X98015677Y-82219685D01*
X98036319Y-82236319D01*
X98463681Y-82663681D01*
X98497166Y-82725004D01*
X98500000Y-82751362D01*
X98500000Y-84239232D01*
X98480315Y-84306271D01*
X98427511Y-84352026D01*
X98358353Y-84361970D01*
X98351810Y-84360850D01*
X98294748Y-84349500D01*
X97705252Y-84349500D01*
X97705247Y-84349500D01*
X97646770Y-84361131D01*
X97646769Y-84361132D01*
X97580447Y-84405447D01*
X97536132Y-84471769D01*
X97536131Y-84471770D01*
X97524500Y-84530247D01*
X97524500Y-84869752D01*
X97536131Y-84928229D01*
X97536132Y-84928230D01*
X97580448Y-84994553D01*
X97583959Y-84996899D01*
X97628764Y-85050512D01*
X97637470Y-85119837D01*
X97607314Y-85182864D01*
X97583959Y-85203101D01*
X97580448Y-85205446D01*
X97536132Y-85271769D01*
X97536131Y-85271770D01*
X97524500Y-85330247D01*
X97524500Y-85669752D01*
X97536131Y-85728229D01*
X97536132Y-85728230D01*
X97580447Y-85794552D01*
X97646769Y-85838867D01*
X97646770Y-85838868D01*
X97705247Y-85850499D01*
X97705250Y-85850500D01*
X97705252Y-85850500D01*
X98294750Y-85850500D01*
X98294751Y-85850499D01*
X98314418Y-85846587D01*
X98353228Y-85838868D01*
X98353228Y-85838867D01*
X98353231Y-85838867D01*
X98379375Y-85821397D01*
X98446052Y-85800520D01*
X98448266Y-85800500D01*
X98949138Y-85800500D01*
X99016177Y-85820185D01*
X99036819Y-85836819D01*
X99463681Y-86263681D01*
X99497166Y-86325004D01*
X99500000Y-86351362D01*
X99500000Y-91648638D01*
X99480315Y-91715677D01*
X99463681Y-91736319D01*
X99036319Y-92163681D01*
X98974996Y-92197166D01*
X98948638Y-92200000D01*
X98851362Y-92200000D01*
X98784323Y-92180315D01*
X98763681Y-92163681D01*
X98336319Y-91736319D01*
X98302834Y-91674996D01*
X98300000Y-91648638D01*
X98300000Y-91245759D01*
X98301262Y-91228111D01*
X98305500Y-91198636D01*
X98305500Y-90301361D01*
X98305429Y-90300041D01*
X98304322Y-90279393D01*
X98301488Y-90253035D01*
X98301486Y-90253029D01*
X98301471Y-90252888D01*
X98302287Y-90220227D01*
X98305492Y-90200000D01*
X98301527Y-90174965D01*
X98300000Y-90155567D01*
X98300000Y-87700000D01*
X97800000Y-87200000D01*
X97774500Y-87200000D01*
X97707461Y-87180315D01*
X97661706Y-87127511D01*
X97650500Y-87076000D01*
X97650500Y-86405249D01*
X97650499Y-86405247D01*
X97638868Y-86346770D01*
X97638867Y-86346769D01*
X97594552Y-86280447D01*
X97528230Y-86236132D01*
X97528229Y-86236131D01*
X97469752Y-86224500D01*
X97469748Y-86224500D01*
X97130252Y-86224500D01*
X97130247Y-86224500D01*
X97071770Y-86236131D01*
X97071769Y-86236132D01*
X97005447Y-86280447D01*
X96961132Y-86346769D01*
X96961131Y-86346770D01*
X96949500Y-86405247D01*
X96949500Y-87699138D01*
X96929815Y-87766177D01*
X96913181Y-87786819D01*
X96587681Y-88112319D01*
X96526358Y-88145804D01*
X96456666Y-88140820D01*
X96412319Y-88112319D01*
X96135744Y-87835744D01*
X96102259Y-87774421D01*
X96100952Y-87728664D01*
X96105492Y-87700000D01*
X96105492Y-87699996D01*
X96085647Y-87574699D01*
X96085647Y-87574698D01*
X96078124Y-87559934D01*
X96028050Y-87461658D01*
X96028047Y-87461655D01*
X96028046Y-87461653D01*
X96024179Y-87456329D01*
X96000702Y-87390522D01*
X96000500Y-87383448D01*
X96000500Y-87148266D01*
X96020185Y-87081227D01*
X96021398Y-87079374D01*
X96038867Y-87053231D01*
X96050500Y-86994748D01*
X96050500Y-86405252D01*
X96050500Y-86405249D01*
X96050499Y-86405247D01*
X96038868Y-86346770D01*
X96038867Y-86346769D01*
X95994552Y-86280447D01*
X95928230Y-86236132D01*
X95928229Y-86236131D01*
X95869752Y-86224500D01*
X95869748Y-86224500D01*
X95530252Y-86224500D01*
X95530247Y-86224500D01*
X95471770Y-86236131D01*
X95471769Y-86236132D01*
X95405447Y-86280447D01*
X95361132Y-86346769D01*
X95361131Y-86346770D01*
X95349500Y-86405247D01*
X95349500Y-86994752D01*
X95361131Y-87053228D01*
X95378602Y-87079374D01*
X95399480Y-87146052D01*
X95399500Y-87148266D01*
X95399500Y-87383448D01*
X95379815Y-87450487D01*
X95375819Y-87456333D01*
X95371947Y-87461661D01*
X95337865Y-87528551D01*
X95315065Y-87559934D01*
X95300000Y-87574999D01*
X95300000Y-87655567D01*
X95298473Y-87674965D01*
X95294508Y-87699998D01*
X95294508Y-87700000D01*
X95298473Y-87725033D01*
X95300000Y-87744432D01*
X95300000Y-88299424D01*
X95287401Y-88353883D01*
X95259426Y-88411106D01*
X95259426Y-88411107D01*
X95249500Y-88479239D01*
X95249500Y-89299138D01*
X95229815Y-89366177D01*
X95213181Y-89386819D01*
X94987681Y-89612319D01*
X94926358Y-89645804D01*
X94856666Y-89640820D01*
X94812319Y-89612319D01*
X94536319Y-89336319D01*
X94502834Y-89274996D01*
X94500000Y-89248638D01*
X94500000Y-85160767D01*
X94519685Y-85093728D01*
X94572489Y-85047973D01*
X94641647Y-85038029D01*
X94648192Y-85039150D01*
X94705250Y-85050500D01*
X94705252Y-85050500D01*
X95294750Y-85050500D01*
X95294751Y-85050499D01*
X95309568Y-85047552D01*
X95353229Y-85038868D01*
X95353229Y-85038867D01*
X95353231Y-85038867D01*
X95419552Y-84994552D01*
X95463867Y-84928231D01*
X95463867Y-84928229D01*
X95463868Y-84928229D01*
X95475499Y-84869752D01*
X95475500Y-84869750D01*
X95475500Y-84530249D01*
X95475499Y-84530247D01*
X95463868Y-84471770D01*
X95463867Y-84471769D01*
X95419552Y-84405447D01*
X95353230Y-84361132D01*
X95353229Y-84361131D01*
X95294752Y-84349500D01*
X95294748Y-84349500D01*
X94705252Y-84349500D01*
X94648190Y-84360850D01*
X94578599Y-84354621D01*
X94523422Y-84311758D01*
X94500178Y-84245868D01*
X94500000Y-84239232D01*
X94500000Y-82751362D01*
X94519685Y-82684323D01*
X94536319Y-82663681D01*
X94963681Y-82236319D01*
X95025004Y-82202834D01*
X95051362Y-82200000D01*
X95239232Y-82200000D01*
X95306271Y-82219685D01*
G37*
%TD.AperFunction*%
%TD*%
%TA.AperFunction,Conductor*%
%TO.N,Net-(FL1-IN)*%
G36*
X67900414Y-105915030D02*
G01*
X67932026Y-105917317D01*
X67933733Y-105917570D01*
X67960939Y-105923675D01*
X67962377Y-105924098D01*
X67984219Y-105932093D01*
X67987188Y-105933180D01*
X67988150Y-105933582D01*
X68004851Y-105941446D01*
X68012043Y-105944833D01*
X68012375Y-105944996D01*
X68036634Y-105957500D01*
X68062220Y-105970080D01*
X68090305Y-105981640D01*
X68109962Y-105987505D01*
X68122190Y-105991155D01*
X68122196Y-105991156D01*
X68122208Y-105991160D01*
X68159250Y-105997620D01*
X68193127Y-105999473D01*
X68201200Y-106003347D01*
X68204076Y-106009545D01*
X68237276Y-106248389D01*
X68237276Y-106251611D01*
X68204053Y-106490623D01*
X68199519Y-106498345D01*
X68193308Y-106500682D01*
X68175985Y-106501934D01*
X68159791Y-106503105D01*
X68159788Y-106503105D01*
X68159783Y-106503106D01*
X68123745Y-106511550D01*
X68123734Y-106511553D01*
X68093154Y-106524038D01*
X68066630Y-106539244D01*
X68042700Y-106555883D01*
X68020132Y-106572505D01*
X68019752Y-106572774D01*
X67997436Y-106587877D01*
X67996354Y-106588526D01*
X67973068Y-106600859D01*
X67971297Y-106601618D01*
X67945458Y-106610243D01*
X67943255Y-106610748D01*
X67918882Y-106613902D01*
X67912740Y-106614697D01*
X67911241Y-106614794D01*
X67784519Y-106614794D01*
X67776246Y-106611367D01*
X67772957Y-106604885D01*
X67720770Y-106268023D01*
X67720715Y-106264847D01*
X67761268Y-105925312D01*
X67765651Y-105917505D01*
X67772885Y-105915001D01*
X67899571Y-105915001D01*
X67900414Y-105915030D01*
G37*
%TD.AperFunction*%
%TD*%
%TA.AperFunction,Conductor*%
%TO.N,GND*%
G36*
X67015677Y-94019685D02*
G01*
X67036319Y-94036319D01*
X67213681Y-94213681D01*
X67247166Y-94275004D01*
X67250000Y-94301362D01*
X67250000Y-104950000D01*
X67500000Y-105200000D01*
X80375500Y-105200000D01*
X80442539Y-105219685D01*
X80488294Y-105272489D01*
X80499500Y-105324000D01*
X80499500Y-105478948D01*
X80504776Y-105498638D01*
X80519979Y-105555376D01*
X80519982Y-105555381D01*
X80553537Y-105613501D01*
X80570010Y-105681401D01*
X80547157Y-105747428D01*
X80492236Y-105790618D01*
X80446150Y-105799500D01*
X74227610Y-105799500D01*
X74160571Y-105779815D01*
X74139928Y-105763180D01*
X74103224Y-105726475D01*
X74103221Y-105726473D01*
X74103220Y-105726472D01*
X73983126Y-105665281D01*
X73983124Y-105665280D01*
X73983121Y-105665279D01*
X73883493Y-105649500D01*
X73883488Y-105649500D01*
X73316512Y-105649500D01*
X73316507Y-105649500D01*
X73216878Y-105665279D01*
X73096778Y-105726473D01*
X73096775Y-105726475D01*
X73060072Y-105763180D01*
X72998749Y-105796666D01*
X72972390Y-105799500D01*
X72656272Y-105799500D01*
X72589233Y-105779815D01*
X72568591Y-105763181D01*
X72555756Y-105750346D01*
X72555753Y-105750344D01*
X72555751Y-105750342D01*
X72437420Y-105690049D01*
X72437419Y-105690048D01*
X72437416Y-105690047D01*
X72437417Y-105690047D01*
X72339251Y-105674500D01*
X72339246Y-105674500D01*
X71835754Y-105674500D01*
X71835749Y-105674500D01*
X71737582Y-105690047D01*
X71666096Y-105726472D01*
X71619249Y-105750342D01*
X71619248Y-105750343D01*
X71619243Y-105750346D01*
X71605909Y-105763681D01*
X71544586Y-105797166D01*
X71518228Y-105800000D01*
X71081772Y-105800000D01*
X71014733Y-105780315D01*
X70994091Y-105763681D01*
X70980756Y-105750346D01*
X70980753Y-105750344D01*
X70980751Y-105750342D01*
X70862420Y-105690049D01*
X70862419Y-105690048D01*
X70862416Y-105690047D01*
X70862417Y-105690047D01*
X70764251Y-105674500D01*
X70764246Y-105674500D01*
X70260754Y-105674500D01*
X70260749Y-105674500D01*
X70162582Y-105690047D01*
X70091096Y-105726472D01*
X70044249Y-105750342D01*
X70044248Y-105750343D01*
X70044243Y-105750346D01*
X70031409Y-105763181D01*
X69970086Y-105796666D01*
X69943728Y-105799500D01*
X69565205Y-105799500D01*
X69498166Y-105779815D01*
X69493444Y-105776587D01*
X69493221Y-105776473D01*
X69493220Y-105776472D01*
X69373126Y-105715281D01*
X69373124Y-105715280D01*
X69373121Y-105715279D01*
X69273493Y-105699500D01*
X69273488Y-105699500D01*
X68706512Y-105699500D01*
X68706507Y-105699500D01*
X68606878Y-105715279D01*
X68606874Y-105715280D01*
X68606874Y-105715281D01*
X68486780Y-105776472D01*
X68486778Y-105776473D01*
X68478085Y-105780903D01*
X68477368Y-105779497D01*
X68421872Y-105799298D01*
X68414795Y-105799500D01*
X68240354Y-105799500D01*
X68209552Y-105795613D01*
X68204352Y-105794279D01*
X68204347Y-105794278D01*
X68191496Y-105793575D01*
X68151178Y-105784468D01*
X68150877Y-105784344D01*
X68150663Y-105784256D01*
X68143058Y-105780829D01*
X68130061Y-105774439D01*
X68128011Y-105773406D01*
X68106526Y-105762333D01*
X68102941Y-105760529D01*
X68102925Y-105760521D01*
X68102667Y-105760394D01*
X68099561Y-105758900D01*
X68091652Y-105755176D01*
X68091652Y-105755175D01*
X68091623Y-105755162D01*
X68075685Y-105747657D01*
X68067413Y-105743983D01*
X68066399Y-105743559D01*
X68057849Y-105740211D01*
X68057839Y-105740207D01*
X68054870Y-105739120D01*
X68054390Y-105738944D01*
X68054318Y-105738918D01*
X68033010Y-105731118D01*
X68020376Y-105726952D01*
X68018914Y-105726522D01*
X68005957Y-105723166D01*
X67978724Y-105717055D01*
X67963847Y-105714288D01*
X67962151Y-105714037D01*
X67946868Y-105712354D01*
X67915211Y-105710063D01*
X67907496Y-105709651D01*
X67906665Y-105709623D01*
X67906636Y-105709622D01*
X67899571Y-105709501D01*
X67772885Y-105709501D01*
X67753370Y-105712783D01*
X67732805Y-105714500D01*
X67605247Y-105714500D01*
X67546770Y-105726131D01*
X67546769Y-105726132D01*
X67500000Y-105757382D01*
X67500000Y-105650000D01*
X66800000Y-105650000D01*
X66800000Y-105757382D01*
X66753230Y-105726132D01*
X66753229Y-105726131D01*
X66694752Y-105714500D01*
X66694748Y-105714500D01*
X66465862Y-105714500D01*
X66398823Y-105694815D01*
X66378181Y-105678181D01*
X66286319Y-105586319D01*
X66252834Y-105524996D01*
X66250000Y-105498638D01*
X66250000Y-94301362D01*
X66269685Y-94234323D01*
X66286319Y-94213681D01*
X66463681Y-94036319D01*
X66525004Y-94002834D01*
X66551362Y-94000000D01*
X66948638Y-94000000D01*
X67015677Y-94019685D01*
G37*
%TD.AperFunction*%
%TD*%
%TA.AperFunction,Conductor*%
%TO.N,GND*%
G36*
X81535000Y-85920185D02*
G01*
X81580755Y-85972989D01*
X81591961Y-86024500D01*
X81591961Y-86425400D01*
X81603592Y-86483877D01*
X81603593Y-86483878D01*
X81647908Y-86550200D01*
X81714230Y-86594515D01*
X81714231Y-86594516D01*
X81772708Y-86606147D01*
X81772711Y-86606148D01*
X81772713Y-86606148D01*
X82162211Y-86606148D01*
X82162212Y-86606147D01*
X82181879Y-86602235D01*
X82220689Y-86594516D01*
X82220690Y-86594515D01*
X82220692Y-86594515D01*
X82220692Y-86594514D01*
X82228543Y-86591263D01*
X82298012Y-86583791D01*
X82360493Y-86615064D01*
X82396147Y-86675152D01*
X82400000Y-86705822D01*
X82400000Y-88576000D01*
X82380315Y-88643039D01*
X82327511Y-88688794D01*
X82276000Y-88700000D01*
X81862001Y-88700000D01*
X81794962Y-88680315D01*
X81749207Y-88627511D01*
X81738001Y-88576000D01*
X81738001Y-88286127D01*
X81717521Y-88209697D01*
X81717518Y-88209692D01*
X81709572Y-88195927D01*
X81692961Y-88133931D01*
X81692961Y-87935897D01*
X81692960Y-87935895D01*
X81681329Y-87877418D01*
X81681328Y-87877417D01*
X81637013Y-87811095D01*
X81570691Y-87766780D01*
X81570690Y-87766779D01*
X81512213Y-87755148D01*
X81512209Y-87755148D01*
X81122713Y-87755148D01*
X81122708Y-87755148D01*
X81064231Y-87766779D01*
X81064229Y-87766780D01*
X81061348Y-87768706D01*
X81054116Y-87770970D01*
X81052948Y-87771454D01*
X81052904Y-87771349D01*
X80994670Y-87789581D01*
X80927290Y-87771094D01*
X80923574Y-87768706D01*
X80920692Y-87766780D01*
X80920690Y-87766779D01*
X80862213Y-87755148D01*
X80862209Y-87755148D01*
X80472713Y-87755148D01*
X80472708Y-87755148D01*
X80414231Y-87766779D01*
X80414229Y-87766780D01*
X80411348Y-87768706D01*
X80404116Y-87770970D01*
X80402948Y-87771454D01*
X80402904Y-87771349D01*
X80344670Y-87789581D01*
X80277290Y-87771094D01*
X80273574Y-87768706D01*
X80270692Y-87766780D01*
X80270690Y-87766779D01*
X80212213Y-87755148D01*
X80212209Y-87755148D01*
X79822713Y-87755148D01*
X79822708Y-87755148D01*
X79767624Y-87766105D01*
X79698032Y-87759878D01*
X79642855Y-87717014D01*
X79619611Y-87651125D01*
X79619433Y-87644488D01*
X79619433Y-87030009D01*
X79639118Y-86962970D01*
X79655752Y-86942328D01*
X79955613Y-86642467D01*
X80016936Y-86608982D01*
X80043294Y-86606148D01*
X80212211Y-86606148D01*
X80212212Y-86606147D01*
X80227029Y-86603200D01*
X80270690Y-86594516D01*
X80270692Y-86594515D01*
X80273569Y-86592593D01*
X80280796Y-86590329D01*
X80281974Y-86589842D01*
X80282017Y-86589947D01*
X80340246Y-86571714D01*
X80407626Y-86590198D01*
X80411353Y-86592593D01*
X80414229Y-86594515D01*
X80414231Y-86594516D01*
X80472708Y-86606147D01*
X80472711Y-86606148D01*
X80472713Y-86606148D01*
X80862211Y-86606148D01*
X80862212Y-86606147D01*
X80877029Y-86603200D01*
X80920690Y-86594516D01*
X80920690Y-86594515D01*
X80920692Y-86594515D01*
X80987013Y-86550200D01*
X81031328Y-86483879D01*
X81031328Y-86483877D01*
X81031329Y-86483877D01*
X81042960Y-86425400D01*
X81042961Y-86425398D01*
X81042961Y-86024500D01*
X81062646Y-85957461D01*
X81115450Y-85911706D01*
X81166961Y-85900500D01*
X81467961Y-85900500D01*
X81535000Y-85920185D01*
G37*
%TD.AperFunction*%
%TD*%
%TA.AperFunction,Conductor*%
%TO.N,+BATT*%
G36*
X107992148Y-116718954D02*
G01*
X108072930Y-116772930D01*
X108427070Y-117127070D01*
X108481046Y-117207852D01*
X108500000Y-117303140D01*
X108500000Y-124896860D01*
X108481046Y-124992148D01*
X108427070Y-125072930D01*
X108072930Y-125427070D01*
X107992148Y-125481046D01*
X107896860Y-125500000D01*
X105103140Y-125500000D01*
X105007852Y-125481046D01*
X104927070Y-125427070D01*
X104572930Y-125072930D01*
X104518954Y-124992148D01*
X104500000Y-124896860D01*
X104500000Y-119085659D01*
X104518954Y-118990371D01*
X104572930Y-118909589D01*
X104653712Y-118855613D01*
X104749000Y-118836659D01*
X104787944Y-118839724D01*
X104855981Y-118850500D01*
X105944018Y-118850499D01*
X106037804Y-118835646D01*
X106150842Y-118778050D01*
X106240550Y-118688342D01*
X106298146Y-118575304D01*
X106313000Y-118481519D01*
X106312999Y-118118482D01*
X106298146Y-118024696D01*
X106240550Y-117911658D01*
X106150842Y-117821950D01*
X106150839Y-117821948D01*
X106037803Y-117764353D01*
X106037799Y-117764352D01*
X105944030Y-117749501D01*
X105944021Y-117749500D01*
X105944019Y-117749500D01*
X105944015Y-117749500D01*
X104999500Y-117749500D01*
X104904212Y-117730546D01*
X104823430Y-117676570D01*
X104769454Y-117595788D01*
X104750500Y-117500500D01*
X104750500Y-117052640D01*
X104769454Y-116957352D01*
X104823430Y-116876570D01*
X104927070Y-116772930D01*
X105007852Y-116718954D01*
X105103140Y-116700000D01*
X107896860Y-116700000D01*
X107992148Y-116718954D01*
G37*
%TD.AperFunction*%
%TD*%
%TA.AperFunction,Conductor*%
%TO.N,GND*%
G36*
X107915677Y-93319685D02*
G01*
X107936319Y-93336319D01*
X108363681Y-93763681D01*
X108397166Y-93825004D01*
X108400000Y-93851362D01*
X108400000Y-97848638D01*
X108380315Y-97915677D01*
X108363681Y-97936319D01*
X107936319Y-98363681D01*
X107874996Y-98397166D01*
X107848638Y-98400000D01*
X106290981Y-98400000D01*
X106283352Y-98399500D01*
X106279057Y-98399500D01*
X106120943Y-98399500D01*
X106116648Y-98399500D01*
X106109019Y-98400000D01*
X105351362Y-98400000D01*
X105284323Y-98380315D01*
X105263681Y-98363681D01*
X104836319Y-97936319D01*
X104802834Y-97874996D01*
X104800000Y-97848638D01*
X104800000Y-95875740D01*
X104819685Y-95808701D01*
X104872489Y-95762946D01*
X104941647Y-95753002D01*
X104948192Y-95754123D01*
X104980250Y-95760500D01*
X104980252Y-95760500D01*
X107419750Y-95760500D01*
X107419751Y-95760499D01*
X107434568Y-95757552D01*
X107478229Y-95748868D01*
X107478229Y-95748867D01*
X107478231Y-95748867D01*
X107544552Y-95704552D01*
X107588867Y-95638231D01*
X107588867Y-95638229D01*
X107588868Y-95638229D01*
X107600499Y-95579752D01*
X107600500Y-95579750D01*
X107600500Y-94800249D01*
X107600499Y-94800247D01*
X107588868Y-94741770D01*
X107588867Y-94741769D01*
X107544552Y-94675447D01*
X107478230Y-94631132D01*
X107478229Y-94631131D01*
X107419752Y-94619500D01*
X107419748Y-94619500D01*
X104980252Y-94619500D01*
X104980251Y-94619500D01*
X104948189Y-94625877D01*
X104878598Y-94619648D01*
X104823421Y-94576784D01*
X104800178Y-94510894D01*
X104800000Y-94504259D01*
X104800000Y-93851362D01*
X104819685Y-93784323D01*
X104836319Y-93763681D01*
X105263681Y-93336319D01*
X105325004Y-93302834D01*
X105351362Y-93300000D01*
X107848638Y-93300000D01*
X107915677Y-93319685D01*
G37*
%TD.AperFunction*%
%TD*%
%TA.AperFunction,Conductor*%
%TO.N,Net-(U4-RF1)*%
G36*
X80882677Y-106003413D02*
G01*
X80884744Y-106003772D01*
X80918127Y-106012731D01*
X80920064Y-106013439D01*
X80948164Y-106026639D01*
X80949642Y-106027469D01*
X80974174Y-106043708D01*
X80975016Y-106044321D01*
X80997614Y-106062463D01*
X80997712Y-106062545D01*
X81019538Y-106081000D01*
X81041734Y-106097999D01*
X81065723Y-106112000D01*
X81065725Y-106112001D01*
X81092979Y-106121498D01*
X81092986Y-106121500D01*
X81125000Y-106125000D01*
X81552120Y-106125000D01*
X81560393Y-106128427D01*
X81563737Y-106135306D01*
X81577332Y-106248606D01*
X81577332Y-106251394D01*
X81563737Y-106364694D01*
X81559349Y-106372500D01*
X81552120Y-106375000D01*
X81125000Y-106375000D01*
X81113688Y-106376236D01*
X81092986Y-106378499D01*
X81092979Y-106378501D01*
X81065725Y-106387998D01*
X81041733Y-106402000D01*
X81019532Y-106419004D01*
X81019524Y-106419010D01*
X80997779Y-106437398D01*
X80997568Y-106437572D01*
X80975042Y-106455658D01*
X80974175Y-106456290D01*
X80949642Y-106472528D01*
X80948159Y-106473362D01*
X80920065Y-106486560D01*
X80918122Y-106487270D01*
X80884746Y-106496226D01*
X80882675Y-106496586D01*
X80852539Y-106499069D01*
X80844012Y-106496334D01*
X80839956Y-106488747D01*
X80812653Y-106251330D01*
X80812653Y-106248669D01*
X80839956Y-106011250D01*
X80844304Y-106003426D01*
X80852538Y-106000930D01*
X80882677Y-106003413D01*
G37*
%TD.AperFunction*%
%TD*%
%TA.AperFunction,Conductor*%
%TO.N,Net-(U1-L_{X})*%
G36*
X103415677Y-118619685D02*
G01*
X103436319Y-118636319D01*
X103863681Y-119063681D01*
X103897166Y-119125004D01*
X103900000Y-119151362D01*
X103900000Y-120248638D01*
X103880315Y-120315677D01*
X103863681Y-120336319D01*
X103436319Y-120763681D01*
X103374996Y-120797166D01*
X103348638Y-120800000D01*
X97551362Y-120800000D01*
X97484323Y-120780315D01*
X97463681Y-120763681D01*
X97036319Y-120336319D01*
X97002834Y-120274996D01*
X97000000Y-120248638D01*
X97000000Y-119151362D01*
X97019685Y-119084323D01*
X97036319Y-119063681D01*
X97463681Y-118636319D01*
X97525004Y-118602834D01*
X97551362Y-118600000D01*
X103348638Y-118600000D01*
X103415677Y-118619685D01*
G37*
%TD.AperFunction*%
%TD*%
%TA.AperFunction,Conductor*%
%TO.N,+1V8*%
G36*
X103315677Y-114619685D02*
G01*
X103336319Y-114636319D01*
X103763681Y-115063681D01*
X103797166Y-115125004D01*
X103800000Y-115151362D01*
X103800000Y-117548638D01*
X103780315Y-117615677D01*
X103763681Y-117636319D01*
X103336319Y-118063681D01*
X103274996Y-118097166D01*
X103248638Y-118100000D01*
X97551362Y-118100000D01*
X97484323Y-118080315D01*
X97463681Y-118063681D01*
X97036319Y-117636319D01*
X97002834Y-117574996D01*
X97000000Y-117548638D01*
X97000000Y-115151362D01*
X97019685Y-115084323D01*
X97036319Y-115063681D01*
X97463681Y-114636319D01*
X97525004Y-114602834D01*
X97551362Y-114600000D01*
X103248638Y-114600000D01*
X103315677Y-114619685D01*
G37*
%TD.AperFunction*%
%TD*%
%TA.AperFunction,Conductor*%
%TO.N,+1V8*%
G36*
X87367539Y-108020185D02*
G01*
X87413294Y-108072989D01*
X87424500Y-108124500D01*
X87424500Y-108838397D01*
X87439760Y-108915118D01*
X87439761Y-108915120D01*
X87474668Y-108967361D01*
X87497888Y-109002112D01*
X87550037Y-109036956D01*
X87584882Y-109060240D01*
X87588825Y-109061873D01*
X87643231Y-109105711D01*
X87655939Y-109128983D01*
X87675000Y-109175000D01*
X88097487Y-109350000D01*
X89973638Y-109350000D01*
X90040677Y-109369685D01*
X90061319Y-109386319D01*
X90238681Y-109563681D01*
X90272166Y-109625004D01*
X90275000Y-109651362D01*
X90275000Y-110423638D01*
X90255315Y-110490677D01*
X90238681Y-110511319D01*
X90061319Y-110688681D01*
X89999996Y-110722166D01*
X89973638Y-110725000D01*
X87463448Y-110725000D01*
X87396409Y-110705315D01*
X87393296Y-110703248D01*
X87116735Y-110513501D01*
X87072592Y-110459343D01*
X87071195Y-110455877D01*
X86808808Y-109775613D01*
X86800500Y-109730989D01*
X86800500Y-109472275D01*
X86800500Y-109472273D01*
X86773207Y-109370413D01*
X86773207Y-109370412D01*
X86720480Y-109279087D01*
X86686819Y-109245426D01*
X86653334Y-109184103D01*
X86650500Y-109157745D01*
X86650500Y-108978081D01*
X86650500Y-108978079D01*
X86623207Y-108876219D01*
X86592111Y-108822360D01*
X86575499Y-108760361D01*
X86575499Y-108124500D01*
X86595184Y-108057461D01*
X86647988Y-108011706D01*
X86699499Y-108000500D01*
X87300500Y-108000500D01*
X87367539Y-108020185D01*
G37*
%TD.AperFunction*%
%TD*%
%TA.AperFunction,Conductor*%
%TO.N,Net-(AE1-A)*%
G36*
X66435245Y-105924172D02*
G01*
X66439856Y-105931669D01*
X66440000Y-105933486D01*
X66440000Y-106595695D01*
X66436632Y-106603827D01*
X66428500Y-106607195D01*
X66426029Y-106606926D01*
X65949029Y-106501986D01*
X65941811Y-106496950D01*
X65940000Y-106490755D01*
X65940000Y-106009806D01*
X65943368Y-106001674D01*
X65949680Y-105998451D01*
X66426684Y-105922130D01*
X66435245Y-105924172D01*
G37*
%TD.AperFunction*%
%TD*%
%TA.AperFunction,Conductor*%
%TO.N,GND*%
G36*
X108015677Y-114619685D02*
G01*
X108036319Y-114636319D01*
X108463681Y-115063681D01*
X108497166Y-115125004D01*
X108500000Y-115151362D01*
X108500000Y-115748638D01*
X108480315Y-115815677D01*
X108463681Y-115836319D01*
X108036319Y-116263681D01*
X107974996Y-116297166D01*
X107948638Y-116300000D01*
X104651362Y-116300000D01*
X104584323Y-116280315D01*
X104563681Y-116263681D01*
X104136319Y-115836319D01*
X104102834Y-115774996D01*
X104100000Y-115748638D01*
X104100000Y-115151362D01*
X104119685Y-115084323D01*
X104136319Y-115063681D01*
X104563681Y-114636319D01*
X104625004Y-114602834D01*
X104651362Y-114600000D01*
X107948638Y-114600000D01*
X108015677Y-114619685D01*
G37*
%TD.AperFunction*%
%TD*%
%TA.AperFunction,Conductor*%
%TO.N,+BATT*%
G36*
X90171109Y-87350349D02*
G01*
X90171258Y-87350352D01*
X90207239Y-87351297D01*
X90207386Y-87351302D01*
X90237577Y-87352696D01*
X90237789Y-87352708D01*
X90264114Y-87354400D01*
X90288625Y-87356250D01*
X90313137Y-87358100D01*
X90313142Y-87358100D01*
X90313151Y-87358101D01*
X90316401Y-87358309D01*
X90339589Y-87359800D01*
X90369923Y-87361200D01*
X90406080Y-87362150D01*
X90445209Y-87362462D01*
X90453388Y-87365889D01*
X90463397Y-87375898D01*
X90466600Y-87381894D01*
X90501269Y-87556644D01*
X90499518Y-87565426D01*
X90494869Y-87569463D01*
X90367322Y-87630873D01*
X90358381Y-87631374D01*
X90353973Y-87628604D01*
X90343954Y-87618585D01*
X90321397Y-87597109D01*
X90301453Y-87580580D01*
X90301442Y-87580571D01*
X90283176Y-87568322D01*
X90283173Y-87568321D01*
X90283174Y-87568321D01*
X90283172Y-87568320D01*
X90265676Y-87559718D01*
X90255958Y-87556644D01*
X90248074Y-87554150D01*
X90229484Y-87550994D01*
X90229468Y-87550992D01*
X90208985Y-87549623D01*
X90185681Y-87549415D01*
X90158814Y-87549749D01*
X90158762Y-87549750D01*
X90127251Y-87550000D01*
X90037478Y-87550000D01*
X90029205Y-87546573D01*
X90025883Y-87539865D01*
X90013963Y-87451565D01*
X90013963Y-87448435D01*
X90025883Y-87360135D01*
X90030386Y-87352394D01*
X90037478Y-87350000D01*
X90127251Y-87350000D01*
X90171109Y-87350349D01*
G37*
%TD.AperFunction*%
%TD*%
%TA.AperFunction,Conductor*%
%TO.N,GND*%
G36*
X82020124Y-110215812D02*
G01*
X82258719Y-110403279D01*
X82286473Y-110452650D01*
X82287000Y-110461467D01*
X82287000Y-111019746D01*
X82298633Y-111078232D01*
X82320618Y-111111133D01*
X82342948Y-111144552D01*
X82387060Y-111174027D01*
X82409267Y-111188866D01*
X82409268Y-111188866D01*
X82409269Y-111188867D01*
X82467752Y-111200500D01*
X82467754Y-111200500D01*
X83247771Y-111200500D01*
X83293488Y-111216312D01*
X83300431Y-111221767D01*
X83371719Y-111277779D01*
X83399473Y-111327149D01*
X83400000Y-111335966D01*
X83400000Y-112026000D01*
X83378326Y-112078326D01*
X83326000Y-112100000D01*
X82525595Y-112100000D01*
X82479876Y-112084187D01*
X82216281Y-111877076D01*
X82188527Y-111827706D01*
X82188000Y-111818889D01*
X82188000Y-111280253D01*
X82187508Y-111277779D01*
X82176367Y-111221769D01*
X82132052Y-111155448D01*
X82109843Y-111140608D01*
X82065732Y-111111133D01*
X82065733Y-111111133D01*
X82036489Y-111105316D01*
X82007248Y-111099500D01*
X82007246Y-111099500D01*
X81252229Y-111099500D01*
X81206511Y-111083687D01*
X81173571Y-111057806D01*
X81128281Y-111022220D01*
X81100527Y-110972849D01*
X81100000Y-110964033D01*
X81100000Y-110274000D01*
X81121674Y-110221674D01*
X81174000Y-110200000D01*
X81974405Y-110200000D01*
X82020124Y-110215812D01*
G37*
%TD.AperFunction*%
%TD*%
%TA.AperFunction,Conductor*%
%TO.N,+1V8*%
G36*
X83988394Y-100108392D02*
G01*
X83990205Y-100108624D01*
X83997975Y-100113074D01*
X84000408Y-100119745D01*
X84005909Y-100252527D01*
X84005910Y-100252538D01*
X84011229Y-100291216D01*
X84011194Y-100294640D01*
X83994508Y-100399999D01*
X83994508Y-100400000D01*
X84014353Y-100525302D01*
X84014353Y-100525303D01*
X84014354Y-100525304D01*
X84071950Y-100638342D01*
X84161658Y-100728050D01*
X84164783Y-100729642D01*
X84169392Y-100733865D01*
X84215406Y-100807478D01*
X84215414Y-100807508D01*
X84215422Y-100807504D01*
X84265119Y-100887448D01*
X84265336Y-100887812D01*
X84315074Y-100974692D01*
X84315411Y-100975325D01*
X84362773Y-101071239D01*
X84363982Y-101076419D01*
X84363982Y-101504578D01*
X84360555Y-101512851D01*
X84358322Y-101514599D01*
X84259512Y-101574154D01*
X84252258Y-101575770D01*
X84135487Y-101563593D01*
X84127614Y-101559326D01*
X84125001Y-101551956D01*
X84125001Y-101125002D01*
X84114688Y-101071239D01*
X84099100Y-100989971D01*
X84028800Y-100887587D01*
X83925200Y-100808399D01*
X83799400Y-100742958D01*
X83662642Y-100681879D01*
X83662340Y-100681738D01*
X83572722Y-100638342D01*
X83526237Y-100615832D01*
X83525008Y-100615143D01*
X83455135Y-100570214D01*
X83400885Y-100535331D01*
X83398893Y-100533715D01*
X83340301Y-100474365D01*
X83297481Y-100430991D01*
X83295375Y-100428069D01*
X83226777Y-100292986D01*
X83225626Y-100289342D01*
X83201677Y-100121626D01*
X83203900Y-100112954D01*
X83211606Y-100108392D01*
X83211611Y-100108391D01*
X83598517Y-100058819D01*
X83601483Y-100058819D01*
X83988394Y-100108392D01*
G37*
%TD.AperFunction*%
%TD*%
%TA.AperFunction,Conductor*%
%TO.N,GND*%
G36*
X80805026Y-106720185D02*
G01*
X80850781Y-106772989D01*
X80860725Y-106842147D01*
X80831700Y-106905703D01*
X80799989Y-106931886D01*
X80734791Y-106969529D01*
X80734788Y-106969531D01*
X80618360Y-107085956D01*
X80582407Y-107107994D01*
X80583390Y-107109924D01*
X80550000Y-107126937D01*
X80550000Y-106700500D01*
X80737987Y-106700500D01*
X80805026Y-106720185D01*
G37*
%TD.AperFunction*%
%TA.AperFunction,Conductor*%
G36*
X82261971Y-106602381D02*
G01*
X82302346Y-106610412D01*
X82347043Y-106628927D01*
X82370913Y-106644877D01*
X82405122Y-106679086D01*
X82421072Y-106702956D01*
X82439588Y-106747656D01*
X82445188Y-106775808D01*
X82445188Y-106824193D01*
X82439588Y-106852344D01*
X82421072Y-106897043D01*
X82405122Y-106920913D01*
X82370913Y-106955122D01*
X82347043Y-106971072D01*
X82302344Y-106989588D01*
X82285841Y-106992870D01*
X82261978Y-106997617D01*
X82237789Y-107000000D01*
X82167887Y-107000000D01*
X82100848Y-106980315D01*
X82099029Y-106979124D01*
X82040117Y-106939760D01*
X82040115Y-106939759D01*
X82040112Y-106939758D01*
X81963404Y-106924500D01*
X81963401Y-106924500D01*
X81718270Y-106924500D01*
X81686178Y-106920275D01*
X81608644Y-106899500D01*
X81088806Y-106899500D01*
X81021767Y-106879815D01*
X80976012Y-106827011D01*
X80966068Y-106757853D01*
X80995093Y-106694297D01*
X81026806Y-106668113D01*
X81116006Y-106616613D01*
X81178006Y-106600000D01*
X82237789Y-106600000D01*
X82261971Y-106602381D01*
G37*
%TD.AperFunction*%
%TD*%
%TA.AperFunction,Conductor*%
%TO.N,GND*%
G36*
X70442539Y-85069685D02*
G01*
X70488294Y-85122489D01*
X70499500Y-85174000D01*
X70499500Y-85809752D01*
X70511131Y-85868229D01*
X70511132Y-85868230D01*
X70555447Y-85934552D01*
X70621769Y-85978867D01*
X70621770Y-85978868D01*
X70680247Y-85990499D01*
X70680250Y-85990500D01*
X70680252Y-85990500D01*
X71019750Y-85990500D01*
X71019751Y-85990499D01*
X71034568Y-85987552D01*
X71078229Y-85978868D01*
X71078229Y-85978867D01*
X71078231Y-85978867D01*
X71144552Y-85934552D01*
X71188867Y-85868231D01*
X71188867Y-85868229D01*
X71188868Y-85868229D01*
X71200499Y-85809752D01*
X71200500Y-85809750D01*
X71200500Y-85174000D01*
X71220185Y-85106961D01*
X71272989Y-85061206D01*
X71324500Y-85050000D01*
X71375500Y-85050000D01*
X71442539Y-85069685D01*
X71488294Y-85122489D01*
X71499500Y-85174000D01*
X71499500Y-85809752D01*
X71511131Y-85868229D01*
X71511132Y-85868230D01*
X71555447Y-85934552D01*
X71621769Y-85978867D01*
X71621770Y-85978868D01*
X71680247Y-85990499D01*
X71680250Y-85990500D01*
X72010138Y-85990500D01*
X72077177Y-86010185D01*
X72122932Y-86062989D01*
X72132876Y-86132147D01*
X72103851Y-86195703D01*
X72097819Y-86202181D01*
X71744609Y-86555390D01*
X71683286Y-86588875D01*
X71681123Y-86589326D01*
X71657556Y-86594014D01*
X71639442Y-86597617D01*
X71615253Y-86600000D01*
X71584747Y-86600000D01*
X71560555Y-86597617D01*
X71519750Y-86589500D01*
X71519748Y-86589500D01*
X71180252Y-86589500D01*
X71180250Y-86589500D01*
X71139445Y-86597617D01*
X71115253Y-86600000D01*
X71084747Y-86600000D01*
X71060555Y-86597617D01*
X71019750Y-86589500D01*
X71019748Y-86589500D01*
X70680252Y-86589500D01*
X70680250Y-86589500D01*
X70639445Y-86597617D01*
X70615253Y-86600000D01*
X70584747Y-86600000D01*
X70560555Y-86597617D01*
X70519750Y-86589500D01*
X70519748Y-86589500D01*
X70180252Y-86589500D01*
X70180250Y-86589500D01*
X70139445Y-86597617D01*
X70115253Y-86600000D01*
X69301362Y-86600000D01*
X69234323Y-86580315D01*
X69213681Y-86563681D01*
X68786319Y-86136319D01*
X68752834Y-86074996D01*
X68750000Y-86048638D01*
X68750000Y-85601362D01*
X68769685Y-85534323D01*
X68786319Y-85513681D01*
X69213681Y-85086319D01*
X69275004Y-85052834D01*
X69301362Y-85050000D01*
X70375500Y-85050000D01*
X70442539Y-85069685D01*
G37*
%TD.AperFunction*%
%TD*%
M02*
