%TF.GenerationSoftware,KiCad,Pcbnew,8.0.7*%
%TF.CreationDate,2025-01-28T02:45:22+13:00*%
%TF.ProjectId,Housens-L,486f7573-656e-4732-9d4c-2e6b69636164,001*%
%TF.SameCoordinates,Original*%
%TF.FileFunction,Legend,Bot*%
%TF.FilePolarity,Positive*%
%FSLAX46Y46*%
G04 Gerber Fmt 4.6, Leading zero omitted, Abs format (unit mm)*
G04 Created by KiCad (PCBNEW 8.0.7) date 2025-01-28 02:45:22*
%MOMM*%
%LPD*%
G01*
G04 APERTURE LIST*
%ADD10C,0.200000*%
%ADD11C,0.100000*%
%ADD12C,0.480000*%
%ADD13C,0.500000*%
%ADD14C,0.000000*%
%ADD15C,0.150000*%
%ADD16C,0.010000*%
%ADD17C,0.120000*%
G04 APERTURE END LIST*
D10*
X101968422Y-123778876D02*
X101968422Y-124750305D01*
X101968422Y-124750305D02*
X102025564Y-124864591D01*
X102025564Y-124864591D02*
X102082707Y-124921734D01*
X102082707Y-124921734D02*
X102196993Y-124978876D01*
X102196993Y-124978876D02*
X102368422Y-124978876D01*
X102368422Y-124978876D02*
X102482707Y-124921734D01*
X101968422Y-124521734D02*
X102082707Y-124578876D01*
X102082707Y-124578876D02*
X102311279Y-124578876D01*
X102311279Y-124578876D02*
X102425564Y-124521734D01*
X102425564Y-124521734D02*
X102482707Y-124464591D01*
X102482707Y-124464591D02*
X102539850Y-124350305D01*
X102539850Y-124350305D02*
X102539850Y-124007448D01*
X102539850Y-124007448D02*
X102482707Y-123893162D01*
X102482707Y-123893162D02*
X102425564Y-123836019D01*
X102425564Y-123836019D02*
X102311279Y-123778876D01*
X102311279Y-123778876D02*
X102082707Y-123778876D01*
X102082707Y-123778876D02*
X101968422Y-123836019D01*
X101396993Y-124578876D02*
X101396993Y-123778876D01*
X101396993Y-123378876D02*
X101454136Y-123436019D01*
X101454136Y-123436019D02*
X101396993Y-123493162D01*
X101396993Y-123493162D02*
X101339850Y-123436019D01*
X101339850Y-123436019D02*
X101396993Y-123378876D01*
X101396993Y-123378876D02*
X101396993Y-123493162D01*
X100996993Y-123778876D02*
X100539850Y-123778876D01*
X100825564Y-123378876D02*
X100825564Y-124407448D01*
X100825564Y-124407448D02*
X100768421Y-124521734D01*
X100768421Y-124521734D02*
X100654136Y-124578876D01*
X100654136Y-124578876D02*
X100539850Y-124578876D01*
X100139850Y-124578876D02*
X100139850Y-123378876D01*
X99625565Y-124578876D02*
X99625565Y-123950305D01*
X99625565Y-123950305D02*
X99682707Y-123836019D01*
X99682707Y-123836019D02*
X99796993Y-123778876D01*
X99796993Y-123778876D02*
X99968422Y-123778876D01*
X99968422Y-123778876D02*
X100082707Y-123836019D01*
X100082707Y-123836019D02*
X100139850Y-123893162D01*
X98539851Y-123778876D02*
X98539851Y-124578876D01*
X99054136Y-123778876D02*
X99054136Y-124407448D01*
X99054136Y-124407448D02*
X98996993Y-124521734D01*
X98996993Y-124521734D02*
X98882708Y-124578876D01*
X98882708Y-124578876D02*
X98711279Y-124578876D01*
X98711279Y-124578876D02*
X98596993Y-124521734D01*
X98596993Y-124521734D02*
X98539851Y-124464591D01*
X97968422Y-124578876D02*
X97968422Y-123378876D01*
X97968422Y-123836019D02*
X97854137Y-123778876D01*
X97854137Y-123778876D02*
X97625565Y-123778876D01*
X97625565Y-123778876D02*
X97511279Y-123836019D01*
X97511279Y-123836019D02*
X97454137Y-123893162D01*
X97454137Y-123893162D02*
X97396994Y-124007448D01*
X97396994Y-124007448D02*
X97396994Y-124350305D01*
X97396994Y-124350305D02*
X97454137Y-124464591D01*
X97454137Y-124464591D02*
X97511279Y-124521734D01*
X97511279Y-124521734D02*
X97625565Y-124578876D01*
X97625565Y-124578876D02*
X97854137Y-124578876D01*
X97854137Y-124578876D02*
X97968422Y-124521734D01*
X96882708Y-124464591D02*
X96825565Y-124521734D01*
X96825565Y-124521734D02*
X96882708Y-124578876D01*
X96882708Y-124578876D02*
X96939851Y-124521734D01*
X96939851Y-124521734D02*
X96882708Y-124464591D01*
X96882708Y-124464591D02*
X96882708Y-124578876D01*
X96882708Y-123836019D02*
X96825565Y-123893162D01*
X96825565Y-123893162D02*
X96882708Y-123950305D01*
X96882708Y-123950305D02*
X96939851Y-123893162D01*
X96939851Y-123893162D02*
X96882708Y-123836019D01*
X96882708Y-123836019D02*
X96882708Y-123950305D01*
X102482707Y-125710809D02*
X102482707Y-126910809D01*
X102482707Y-125767952D02*
X102368422Y-125710809D01*
X102368422Y-125710809D02*
X102139850Y-125710809D01*
X102139850Y-125710809D02*
X102025564Y-125767952D01*
X102025564Y-125767952D02*
X101968422Y-125825095D01*
X101968422Y-125825095D02*
X101911279Y-125939381D01*
X101911279Y-125939381D02*
X101911279Y-126282238D01*
X101911279Y-126282238D02*
X101968422Y-126396524D01*
X101968422Y-126396524D02*
X102025564Y-126453667D01*
X102025564Y-126453667D02*
X102139850Y-126510809D01*
X102139850Y-126510809D02*
X102368422Y-126510809D01*
X102368422Y-126510809D02*
X102482707Y-126453667D01*
X100882708Y-126510809D02*
X100882708Y-125882238D01*
X100882708Y-125882238D02*
X100939850Y-125767952D01*
X100939850Y-125767952D02*
X101054136Y-125710809D01*
X101054136Y-125710809D02*
X101282708Y-125710809D01*
X101282708Y-125710809D02*
X101396993Y-125767952D01*
X100882708Y-126453667D02*
X100996993Y-126510809D01*
X100996993Y-126510809D02*
X101282708Y-126510809D01*
X101282708Y-126510809D02*
X101396993Y-126453667D01*
X101396993Y-126453667D02*
X101454136Y-126339381D01*
X101454136Y-126339381D02*
X101454136Y-126225095D01*
X101454136Y-126225095D02*
X101396993Y-126110809D01*
X101396993Y-126110809D02*
X101282708Y-126053667D01*
X101282708Y-126053667D02*
X100996993Y-126053667D01*
X100996993Y-126053667D02*
X100882708Y-125996524D01*
X100368422Y-126453667D02*
X100254136Y-126510809D01*
X100254136Y-126510809D02*
X100025565Y-126510809D01*
X100025565Y-126510809D02*
X99911279Y-126453667D01*
X99911279Y-126453667D02*
X99854136Y-126339381D01*
X99854136Y-126339381D02*
X99854136Y-126282238D01*
X99854136Y-126282238D02*
X99911279Y-126167952D01*
X99911279Y-126167952D02*
X100025565Y-126110809D01*
X100025565Y-126110809D02*
X100196994Y-126110809D01*
X100196994Y-126110809D02*
X100311279Y-126053667D01*
X100311279Y-126053667D02*
X100368422Y-125939381D01*
X100368422Y-125939381D02*
X100368422Y-125882238D01*
X100368422Y-125882238D02*
X100311279Y-125767952D01*
X100311279Y-125767952D02*
X100196994Y-125710809D01*
X100196994Y-125710809D02*
X100025565Y-125710809D01*
X100025565Y-125710809D02*
X99911279Y-125767952D01*
X99396993Y-126453667D02*
X99282707Y-126510809D01*
X99282707Y-126510809D02*
X99054136Y-126510809D01*
X99054136Y-126510809D02*
X98939850Y-126453667D01*
X98939850Y-126453667D02*
X98882707Y-126339381D01*
X98882707Y-126339381D02*
X98882707Y-126282238D01*
X98882707Y-126282238D02*
X98939850Y-126167952D01*
X98939850Y-126167952D02*
X99054136Y-126110809D01*
X99054136Y-126110809D02*
X99225565Y-126110809D01*
X99225565Y-126110809D02*
X99339850Y-126053667D01*
X99339850Y-126053667D02*
X99396993Y-125939381D01*
X99396993Y-125939381D02*
X99396993Y-125882238D01*
X99396993Y-125882238D02*
X99339850Y-125767952D01*
X99339850Y-125767952D02*
X99225565Y-125710809D01*
X99225565Y-125710809D02*
X99054136Y-125710809D01*
X99054136Y-125710809D02*
X98939850Y-125767952D01*
X97854136Y-126453667D02*
X97968421Y-126510809D01*
X97968421Y-126510809D02*
X98196993Y-126510809D01*
X98196993Y-126510809D02*
X98311278Y-126453667D01*
X98311278Y-126453667D02*
X98368421Y-126396524D01*
X98368421Y-126396524D02*
X98425564Y-126282238D01*
X98425564Y-126282238D02*
X98425564Y-125939381D01*
X98425564Y-125939381D02*
X98368421Y-125825095D01*
X98368421Y-125825095D02*
X98311278Y-125767952D01*
X98311278Y-125767952D02*
X98196993Y-125710809D01*
X98196993Y-125710809D02*
X97968421Y-125710809D01*
X97968421Y-125710809D02*
X97854136Y-125767952D01*
X97168422Y-126510809D02*
X97282707Y-126453667D01*
X97282707Y-126453667D02*
X97339850Y-126396524D01*
X97339850Y-126396524D02*
X97396993Y-126282238D01*
X97396993Y-126282238D02*
X97396993Y-125939381D01*
X97396993Y-125939381D02*
X97339850Y-125825095D01*
X97339850Y-125825095D02*
X97282707Y-125767952D01*
X97282707Y-125767952D02*
X97168422Y-125710809D01*
X97168422Y-125710809D02*
X96996993Y-125710809D01*
X96996993Y-125710809D02*
X96882707Y-125767952D01*
X96882707Y-125767952D02*
X96825565Y-125825095D01*
X96825565Y-125825095D02*
X96768422Y-125939381D01*
X96768422Y-125939381D02*
X96768422Y-126282238D01*
X96768422Y-126282238D02*
X96825565Y-126396524D01*
X96825565Y-126396524D02*
X96882707Y-126453667D01*
X96882707Y-126453667D02*
X96996993Y-126510809D01*
X96996993Y-126510809D02*
X97168422Y-126510809D01*
X95739851Y-126510809D02*
X95739851Y-125310809D01*
X95739851Y-126453667D02*
X95854136Y-126510809D01*
X95854136Y-126510809D02*
X96082708Y-126510809D01*
X96082708Y-126510809D02*
X96196993Y-126453667D01*
X96196993Y-126453667D02*
X96254136Y-126396524D01*
X96254136Y-126396524D02*
X96311279Y-126282238D01*
X96311279Y-126282238D02*
X96311279Y-125939381D01*
X96311279Y-125939381D02*
X96254136Y-125825095D01*
X96254136Y-125825095D02*
X96196993Y-125767952D01*
X96196993Y-125767952D02*
X96082708Y-125710809D01*
X96082708Y-125710809D02*
X95854136Y-125710809D01*
X95854136Y-125710809D02*
X95739851Y-125767952D01*
X94311279Y-125253667D02*
X95339851Y-126796524D01*
X102482707Y-128442742D02*
X102482707Y-127242742D01*
X102482707Y-127814171D02*
X101796993Y-127814171D01*
X101796993Y-128442742D02*
X101796993Y-127242742D01*
X101054136Y-128442742D02*
X101168421Y-128385600D01*
X101168421Y-128385600D02*
X101225564Y-128328457D01*
X101225564Y-128328457D02*
X101282707Y-128214171D01*
X101282707Y-128214171D02*
X101282707Y-127871314D01*
X101282707Y-127871314D02*
X101225564Y-127757028D01*
X101225564Y-127757028D02*
X101168421Y-127699885D01*
X101168421Y-127699885D02*
X101054136Y-127642742D01*
X101054136Y-127642742D02*
X100882707Y-127642742D01*
X100882707Y-127642742D02*
X100768421Y-127699885D01*
X100768421Y-127699885D02*
X100711279Y-127757028D01*
X100711279Y-127757028D02*
X100654136Y-127871314D01*
X100654136Y-127871314D02*
X100654136Y-128214171D01*
X100654136Y-128214171D02*
X100711279Y-128328457D01*
X100711279Y-128328457D02*
X100768421Y-128385600D01*
X100768421Y-128385600D02*
X100882707Y-128442742D01*
X100882707Y-128442742D02*
X101054136Y-128442742D01*
X99625565Y-127642742D02*
X99625565Y-128442742D01*
X100139850Y-127642742D02*
X100139850Y-128271314D01*
X100139850Y-128271314D02*
X100082707Y-128385600D01*
X100082707Y-128385600D02*
X99968422Y-128442742D01*
X99968422Y-128442742D02*
X99796993Y-128442742D01*
X99796993Y-128442742D02*
X99682707Y-128385600D01*
X99682707Y-128385600D02*
X99625565Y-128328457D01*
X99111279Y-128385600D02*
X98996993Y-128442742D01*
X98996993Y-128442742D02*
X98768422Y-128442742D01*
X98768422Y-128442742D02*
X98654136Y-128385600D01*
X98654136Y-128385600D02*
X98596993Y-128271314D01*
X98596993Y-128271314D02*
X98596993Y-128214171D01*
X98596993Y-128214171D02*
X98654136Y-128099885D01*
X98654136Y-128099885D02*
X98768422Y-128042742D01*
X98768422Y-128042742D02*
X98939851Y-128042742D01*
X98939851Y-128042742D02*
X99054136Y-127985600D01*
X99054136Y-127985600D02*
X99111279Y-127871314D01*
X99111279Y-127871314D02*
X99111279Y-127814171D01*
X99111279Y-127814171D02*
X99054136Y-127699885D01*
X99054136Y-127699885D02*
X98939851Y-127642742D01*
X98939851Y-127642742D02*
X98768422Y-127642742D01*
X98768422Y-127642742D02*
X98654136Y-127699885D01*
X97625564Y-128385600D02*
X97739850Y-128442742D01*
X97739850Y-128442742D02*
X97968422Y-128442742D01*
X97968422Y-128442742D02*
X98082707Y-128385600D01*
X98082707Y-128385600D02*
X98139850Y-128271314D01*
X98139850Y-128271314D02*
X98139850Y-127814171D01*
X98139850Y-127814171D02*
X98082707Y-127699885D01*
X98082707Y-127699885D02*
X97968422Y-127642742D01*
X97968422Y-127642742D02*
X97739850Y-127642742D01*
X97739850Y-127642742D02*
X97625564Y-127699885D01*
X97625564Y-127699885D02*
X97568422Y-127814171D01*
X97568422Y-127814171D02*
X97568422Y-127928457D01*
X97568422Y-127928457D02*
X98139850Y-128042742D01*
X97054136Y-127642742D02*
X97054136Y-128442742D01*
X97054136Y-127757028D02*
X96996993Y-127699885D01*
X96996993Y-127699885D02*
X96882708Y-127642742D01*
X96882708Y-127642742D02*
X96711279Y-127642742D01*
X96711279Y-127642742D02*
X96596993Y-127699885D01*
X96596993Y-127699885D02*
X96539851Y-127814171D01*
X96539851Y-127814171D02*
X96539851Y-128442742D01*
X96025565Y-128385600D02*
X95911279Y-128442742D01*
X95911279Y-128442742D02*
X95682708Y-128442742D01*
X95682708Y-128442742D02*
X95568422Y-128385600D01*
X95568422Y-128385600D02*
X95511279Y-128271314D01*
X95511279Y-128271314D02*
X95511279Y-128214171D01*
X95511279Y-128214171D02*
X95568422Y-128099885D01*
X95568422Y-128099885D02*
X95682708Y-128042742D01*
X95682708Y-128042742D02*
X95854137Y-128042742D01*
X95854137Y-128042742D02*
X95968422Y-127985600D01*
X95968422Y-127985600D02*
X96025565Y-127871314D01*
X96025565Y-127871314D02*
X96025565Y-127814171D01*
X96025565Y-127814171D02*
X95968422Y-127699885D01*
X95968422Y-127699885D02*
X95854137Y-127642742D01*
X95854137Y-127642742D02*
X95682708Y-127642742D01*
X95682708Y-127642742D02*
X95568422Y-127699885D01*
D11*
X69500000Y-84000000D02*
X74500000Y-84000000D01*
X74500000Y-89000000D01*
X69500000Y-89000000D01*
X69500000Y-84000000D01*
G36*
X69500000Y-84000000D02*
G01*
X74500000Y-84000000D01*
X74500000Y-89000000D01*
X69500000Y-89000000D01*
X69500000Y-84000000D01*
G37*
D10*
X63806028Y-103349999D02*
X62306028Y-103349999D01*
X101835712Y-91448885D02*
X101764284Y-91377457D01*
X101764284Y-91377457D02*
X101621427Y-91306028D01*
X101621427Y-91306028D02*
X101264284Y-91306028D01*
X101264284Y-91306028D02*
X101121427Y-91377457D01*
X101121427Y-91377457D02*
X101049998Y-91448885D01*
X101049998Y-91448885D02*
X100978569Y-91591742D01*
X100978569Y-91591742D02*
X100978569Y-91734600D01*
X100978569Y-91734600D02*
X101049998Y-91948885D01*
X101049998Y-91948885D02*
X101907141Y-92806028D01*
X101907141Y-92806028D02*
X100978569Y-92806028D01*
X100049998Y-91306028D02*
X99907141Y-91306028D01*
X99907141Y-91306028D02*
X99764284Y-91377457D01*
X99764284Y-91377457D02*
X99692856Y-91448885D01*
X99692856Y-91448885D02*
X99621427Y-91591742D01*
X99621427Y-91591742D02*
X99549998Y-91877457D01*
X99549998Y-91877457D02*
X99549998Y-92234600D01*
X99549998Y-92234600D02*
X99621427Y-92520314D01*
X99621427Y-92520314D02*
X99692856Y-92663171D01*
X99692856Y-92663171D02*
X99764284Y-92734600D01*
X99764284Y-92734600D02*
X99907141Y-92806028D01*
X99907141Y-92806028D02*
X100049998Y-92806028D01*
X100049998Y-92806028D02*
X100192856Y-92734600D01*
X100192856Y-92734600D02*
X100264284Y-92663171D01*
X100264284Y-92663171D02*
X100335713Y-92520314D01*
X100335713Y-92520314D02*
X100407141Y-92234600D01*
X100407141Y-92234600D02*
X100407141Y-91877457D01*
X100407141Y-91877457D02*
X100335713Y-91591742D01*
X100335713Y-91591742D02*
X100264284Y-91448885D01*
X100264284Y-91448885D02*
X100192856Y-91377457D01*
X100192856Y-91377457D02*
X100049998Y-91306028D01*
X98978570Y-91448885D02*
X98907142Y-91377457D01*
X98907142Y-91377457D02*
X98764285Y-91306028D01*
X98764285Y-91306028D02*
X98407142Y-91306028D01*
X98407142Y-91306028D02*
X98264285Y-91377457D01*
X98264285Y-91377457D02*
X98192856Y-91448885D01*
X98192856Y-91448885D02*
X98121427Y-91591742D01*
X98121427Y-91591742D02*
X98121427Y-91734600D01*
X98121427Y-91734600D02*
X98192856Y-91948885D01*
X98192856Y-91948885D02*
X99049999Y-92806028D01*
X99049999Y-92806028D02*
X98121427Y-92806028D01*
X96764285Y-91306028D02*
X97478571Y-91306028D01*
X97478571Y-91306028D02*
X97549999Y-92020314D01*
X97549999Y-92020314D02*
X97478571Y-91948885D01*
X97478571Y-91948885D02*
X97335714Y-91877457D01*
X97335714Y-91877457D02*
X96978571Y-91877457D01*
X96978571Y-91877457D02*
X96835714Y-91948885D01*
X96835714Y-91948885D02*
X96764285Y-92020314D01*
X96764285Y-92020314D02*
X96692856Y-92163171D01*
X96692856Y-92163171D02*
X96692856Y-92520314D01*
X96692856Y-92520314D02*
X96764285Y-92663171D01*
X96764285Y-92663171D02*
X96835714Y-92734600D01*
X96835714Y-92734600D02*
X96978571Y-92806028D01*
X96978571Y-92806028D02*
X97335714Y-92806028D01*
X97335714Y-92806028D02*
X97478571Y-92734600D01*
X97478571Y-92734600D02*
X97549999Y-92663171D01*
X96050000Y-92234600D02*
X94907143Y-92234600D01*
X93907142Y-91306028D02*
X93764285Y-91306028D01*
X93764285Y-91306028D02*
X93621428Y-91377457D01*
X93621428Y-91377457D02*
X93550000Y-91448885D01*
X93550000Y-91448885D02*
X93478571Y-91591742D01*
X93478571Y-91591742D02*
X93407142Y-91877457D01*
X93407142Y-91877457D02*
X93407142Y-92234600D01*
X93407142Y-92234600D02*
X93478571Y-92520314D01*
X93478571Y-92520314D02*
X93550000Y-92663171D01*
X93550000Y-92663171D02*
X93621428Y-92734600D01*
X93621428Y-92734600D02*
X93764285Y-92806028D01*
X93764285Y-92806028D02*
X93907142Y-92806028D01*
X93907142Y-92806028D02*
X94050000Y-92734600D01*
X94050000Y-92734600D02*
X94121428Y-92663171D01*
X94121428Y-92663171D02*
X94192857Y-92520314D01*
X94192857Y-92520314D02*
X94264285Y-92234600D01*
X94264285Y-92234600D02*
X94264285Y-91877457D01*
X94264285Y-91877457D02*
X94192857Y-91591742D01*
X94192857Y-91591742D02*
X94121428Y-91448885D01*
X94121428Y-91448885D02*
X94050000Y-91377457D01*
X94050000Y-91377457D02*
X93907142Y-91306028D01*
X91978571Y-92806028D02*
X92835714Y-92806028D01*
X92407143Y-92806028D02*
X92407143Y-91306028D01*
X92407143Y-91306028D02*
X92550000Y-91520314D01*
X92550000Y-91520314D02*
X92692857Y-91663171D01*
X92692857Y-91663171D02*
X92835714Y-91734600D01*
X91335715Y-92234600D02*
X90192858Y-92234600D01*
X89550000Y-91448885D02*
X89478572Y-91377457D01*
X89478572Y-91377457D02*
X89335715Y-91306028D01*
X89335715Y-91306028D02*
X88978572Y-91306028D01*
X88978572Y-91306028D02*
X88835715Y-91377457D01*
X88835715Y-91377457D02*
X88764286Y-91448885D01*
X88764286Y-91448885D02*
X88692857Y-91591742D01*
X88692857Y-91591742D02*
X88692857Y-91734600D01*
X88692857Y-91734600D02*
X88764286Y-91948885D01*
X88764286Y-91948885D02*
X89621429Y-92806028D01*
X89621429Y-92806028D02*
X88692857Y-92806028D01*
X87835715Y-91948885D02*
X87978572Y-91877457D01*
X87978572Y-91877457D02*
X88050001Y-91806028D01*
X88050001Y-91806028D02*
X88121429Y-91663171D01*
X88121429Y-91663171D02*
X88121429Y-91591742D01*
X88121429Y-91591742D02*
X88050001Y-91448885D01*
X88050001Y-91448885D02*
X87978572Y-91377457D01*
X87978572Y-91377457D02*
X87835715Y-91306028D01*
X87835715Y-91306028D02*
X87550001Y-91306028D01*
X87550001Y-91306028D02*
X87407144Y-91377457D01*
X87407144Y-91377457D02*
X87335715Y-91448885D01*
X87335715Y-91448885D02*
X87264286Y-91591742D01*
X87264286Y-91591742D02*
X87264286Y-91663171D01*
X87264286Y-91663171D02*
X87335715Y-91806028D01*
X87335715Y-91806028D02*
X87407144Y-91877457D01*
X87407144Y-91877457D02*
X87550001Y-91948885D01*
X87550001Y-91948885D02*
X87835715Y-91948885D01*
X87835715Y-91948885D02*
X87978572Y-92020314D01*
X87978572Y-92020314D02*
X88050001Y-92091742D01*
X88050001Y-92091742D02*
X88121429Y-92234600D01*
X88121429Y-92234600D02*
X88121429Y-92520314D01*
X88121429Y-92520314D02*
X88050001Y-92663171D01*
X88050001Y-92663171D02*
X87978572Y-92734600D01*
X87978572Y-92734600D02*
X87835715Y-92806028D01*
X87835715Y-92806028D02*
X87550001Y-92806028D01*
X87550001Y-92806028D02*
X87407144Y-92734600D01*
X87407144Y-92734600D02*
X87335715Y-92663171D01*
X87335715Y-92663171D02*
X87264286Y-92520314D01*
X87264286Y-92520314D02*
X87264286Y-92234600D01*
X87264286Y-92234600D02*
X87335715Y-92091742D01*
X87335715Y-92091742D02*
X87407144Y-92020314D01*
X87407144Y-92020314D02*
X87550001Y-91948885D01*
D12*
X100207142Y-89481325D02*
X100207142Y-87081325D01*
X100207142Y-88224182D02*
X98835713Y-88224182D01*
X98835713Y-89481325D02*
X98835713Y-87081325D01*
X97692856Y-89481325D02*
X97692856Y-87081325D01*
X97692856Y-87081325D02*
X96778570Y-87081325D01*
X96778570Y-87081325D02*
X96549999Y-87195611D01*
X96549999Y-87195611D02*
X96435713Y-87309897D01*
X96435713Y-87309897D02*
X96321427Y-87538468D01*
X96321427Y-87538468D02*
X96321427Y-87881325D01*
X96321427Y-87881325D02*
X96435713Y-88109897D01*
X96435713Y-88109897D02*
X96549999Y-88224182D01*
X96549999Y-88224182D02*
X96778570Y-88338468D01*
X96778570Y-88338468D02*
X97692856Y-88338468D01*
X95635713Y-87081325D02*
X94264285Y-87081325D01*
X94949999Y-89481325D02*
X94949999Y-87081325D01*
X93464285Y-88567040D02*
X91635714Y-88567040D01*
X89349999Y-89481325D02*
X90492856Y-89481325D01*
X90492856Y-89481325D02*
X90492856Y-87081325D01*
D13*
G36*
X92877945Y-83780909D02*
G01*
X92928571Y-83882159D01*
X92928571Y-83975334D01*
X92301802Y-83849980D01*
X92336338Y-83780909D01*
X92437588Y-83730285D01*
X92776696Y-83730285D01*
X92877945Y-83780909D01*
G37*
G36*
X99087622Y-83800033D02*
G01*
X99144536Y-83856947D01*
X99214286Y-83996445D01*
X99214286Y-84564125D01*
X99144537Y-84703623D01*
X99087623Y-84760536D01*
X98948126Y-84830285D01*
X98723303Y-84830285D01*
X98583803Y-84760535D01*
X98526894Y-84703626D01*
X98457143Y-84564124D01*
X98457143Y-83996445D01*
X98526892Y-83856946D01*
X98583803Y-83800034D01*
X98723303Y-83730285D01*
X98948125Y-83730285D01*
X99087622Y-83800033D01*
G37*
G36*
X102380953Y-85596952D02*
G01*
X87404760Y-85596952D01*
X87404760Y-84623142D01*
X87671427Y-84623142D01*
X87671427Y-84737428D01*
X87676231Y-84786201D01*
X87679668Y-84794499D01*
X87680305Y-84803459D01*
X87697820Y-84849231D01*
X87812106Y-85077803D01*
X87817240Y-85085959D01*
X87818523Y-85089807D01*
X87822679Y-85094599D01*
X87838215Y-85119279D01*
X87861895Y-85139817D01*
X87882434Y-85163498D01*
X87907113Y-85179033D01*
X87911906Y-85183190D01*
X87915753Y-85184472D01*
X87923910Y-85189607D01*
X88152481Y-85303892D01*
X88198253Y-85321407D01*
X88207212Y-85322043D01*
X88215511Y-85325481D01*
X88264284Y-85330285D01*
X88721427Y-85330285D01*
X88770200Y-85325481D01*
X88778498Y-85322043D01*
X88787457Y-85321407D01*
X88833230Y-85303892D01*
X89061802Y-85189607D01*
X89103277Y-85163498D01*
X89167189Y-85089808D01*
X89198036Y-84997270D01*
X89191121Y-84899970D01*
X89147498Y-84812722D01*
X89073807Y-84748810D01*
X88981269Y-84717963D01*
X88883969Y-84724878D01*
X88838197Y-84742393D01*
X88662411Y-84830285D01*
X88323301Y-84830285D01*
X88222052Y-84779661D01*
X88172364Y-84680285D01*
X88222051Y-84580910D01*
X88323301Y-84530285D01*
X88607142Y-84530285D01*
X88655915Y-84525481D01*
X88664213Y-84522043D01*
X88673173Y-84521407D01*
X88718945Y-84503892D01*
X88947516Y-84389607D01*
X88955669Y-84384474D01*
X88959520Y-84383191D01*
X88964315Y-84379031D01*
X88988992Y-84363498D01*
X89009528Y-84339818D01*
X89033211Y-84319279D01*
X89048746Y-84294599D01*
X89052903Y-84289807D01*
X89054185Y-84285959D01*
X89059320Y-84277803D01*
X89173606Y-84049232D01*
X89191121Y-84003459D01*
X89191757Y-83994499D01*
X89195195Y-83986201D01*
X89199999Y-83937428D01*
X89199999Y-83823142D01*
X89728571Y-83823142D01*
X89728571Y-85080285D01*
X89733375Y-85129058D01*
X89770704Y-85219178D01*
X89839678Y-85288152D01*
X89929798Y-85325481D01*
X90027344Y-85325481D01*
X90117464Y-85288152D01*
X90186438Y-85219178D01*
X90223767Y-85129058D01*
X90228571Y-85080285D01*
X90228571Y-83882158D01*
X90279195Y-83780909D01*
X90380445Y-83730285D01*
X90605267Y-83730285D01*
X90744764Y-83800033D01*
X90757142Y-83812411D01*
X90757142Y-85080285D01*
X90761946Y-85129058D01*
X90799275Y-85219178D01*
X90868249Y-85288152D01*
X90958369Y-85325481D01*
X91055915Y-85325481D01*
X91146035Y-85288152D01*
X91215009Y-85219178D01*
X91252338Y-85129058D01*
X91257142Y-85080285D01*
X91257142Y-83823142D01*
X91785714Y-83823142D01*
X91785714Y-84051714D01*
X91790518Y-84100487D01*
X91799891Y-84123116D01*
X91804645Y-84147144D01*
X91818374Y-84167738D01*
X91827847Y-84190607D01*
X91845166Y-84207926D01*
X91858752Y-84228305D01*
X91879317Y-84242077D01*
X91896821Y-84259581D01*
X91919450Y-84268954D01*
X91939801Y-84282583D01*
X91986685Y-84296859D01*
X92928571Y-84485235D01*
X92928571Y-84678411D01*
X92877946Y-84779660D01*
X92776697Y-84830285D01*
X92437588Y-84830285D01*
X92261802Y-84742393D01*
X92216029Y-84724878D01*
X92118729Y-84717963D01*
X92026191Y-84748810D01*
X91952500Y-84812722D01*
X91908877Y-84899970D01*
X91901962Y-84997270D01*
X91932809Y-85089808D01*
X91996721Y-85163499D01*
X92038196Y-85189607D01*
X92266769Y-85303892D01*
X92312541Y-85321407D01*
X92321499Y-85322043D01*
X92329798Y-85325481D01*
X92378571Y-85330285D01*
X92835714Y-85330285D01*
X92884487Y-85325481D01*
X92892785Y-85322043D01*
X92901745Y-85321407D01*
X92947517Y-85303892D01*
X93176088Y-85189607D01*
X93184241Y-85184474D01*
X93188092Y-85183191D01*
X93192887Y-85179031D01*
X93217564Y-85163498D01*
X93238100Y-85139818D01*
X93261783Y-85119279D01*
X93277318Y-85094599D01*
X93281475Y-85089807D01*
X93282757Y-85085959D01*
X93287892Y-85077803D01*
X93402178Y-84849232D01*
X93419693Y-84803459D01*
X93420329Y-84794499D01*
X93423767Y-84786201D01*
X93428571Y-84737428D01*
X93428571Y-84623142D01*
X93842856Y-84623142D01*
X93842856Y-84737428D01*
X93847660Y-84786201D01*
X93851097Y-84794499D01*
X93851734Y-84803459D01*
X93869249Y-84849231D01*
X93983535Y-85077803D01*
X93988669Y-85085959D01*
X93989952Y-85089807D01*
X93994108Y-85094599D01*
X94009644Y-85119279D01*
X94033324Y-85139817D01*
X94053863Y-85163498D01*
X94078542Y-85179033D01*
X94083335Y-85183190D01*
X94087182Y-85184472D01*
X94095339Y-85189607D01*
X94323910Y-85303892D01*
X94369682Y-85321407D01*
X94378641Y-85322043D01*
X94386940Y-85325481D01*
X94435713Y-85330285D01*
X94892856Y-85330285D01*
X94941629Y-85325481D01*
X94949927Y-85322043D01*
X94958886Y-85321407D01*
X95004659Y-85303892D01*
X95233231Y-85189607D01*
X95274706Y-85163498D01*
X95338618Y-85089808D01*
X95369465Y-84997270D01*
X95362550Y-84899970D01*
X95318927Y-84812722D01*
X95245236Y-84748810D01*
X95152698Y-84717963D01*
X95055398Y-84724878D01*
X95009626Y-84742393D01*
X94833840Y-84830285D01*
X94494730Y-84830285D01*
X94393481Y-84779661D01*
X94343793Y-84680285D01*
X94393480Y-84580910D01*
X94494730Y-84530285D01*
X94778571Y-84530285D01*
X94827344Y-84525481D01*
X94835642Y-84522043D01*
X94844602Y-84521407D01*
X94890374Y-84503892D01*
X95118945Y-84389607D01*
X95127098Y-84384474D01*
X95130949Y-84383191D01*
X95135744Y-84379031D01*
X95160421Y-84363498D01*
X95180957Y-84339818D01*
X95204640Y-84319279D01*
X95220175Y-84294599D01*
X95224332Y-84289807D01*
X95225614Y-84285959D01*
X95230749Y-84277803D01*
X95345035Y-84049232D01*
X95362550Y-84003459D01*
X95363186Y-83994499D01*
X95366624Y-83986201D01*
X95371428Y-83937428D01*
X95371428Y-83823142D01*
X95366624Y-83774369D01*
X95363186Y-83766070D01*
X95362550Y-83757110D01*
X95345034Y-83711338D01*
X95230749Y-83482767D01*
X95229186Y-83480285D01*
X95900000Y-83480285D01*
X95900000Y-85080285D01*
X95904804Y-85129058D01*
X95942133Y-85219178D01*
X96011107Y-85288152D01*
X96101227Y-85325481D01*
X96198773Y-85325481D01*
X96288893Y-85288152D01*
X96309120Y-85267924D01*
X96381055Y-85303892D01*
X96426827Y-85321407D01*
X96435785Y-85322043D01*
X96444084Y-85325481D01*
X96492857Y-85330285D01*
X96835714Y-85330285D01*
X96884487Y-85325481D01*
X96892785Y-85322043D01*
X96901745Y-85321407D01*
X96947517Y-85303892D01*
X97176088Y-85189607D01*
X97184241Y-85184474D01*
X97188092Y-85183191D01*
X97192887Y-85179031D01*
X97217564Y-85163498D01*
X97238100Y-85139818D01*
X97261783Y-85119279D01*
X97277318Y-85094599D01*
X97281475Y-85089807D01*
X97282757Y-85085959D01*
X97287892Y-85077803D01*
X97402178Y-84849232D01*
X97419693Y-84803459D01*
X97420329Y-84794499D01*
X97423767Y-84786201D01*
X97428571Y-84737428D01*
X97428571Y-83937428D01*
X97957143Y-83937428D01*
X97957143Y-84623142D01*
X97961947Y-84671915D01*
X97965384Y-84680213D01*
X97966021Y-84689173D01*
X97983536Y-84734945D01*
X98097822Y-84963517D01*
X98111035Y-84984506D01*
X98113561Y-84990605D01*
X98119196Y-84997472D01*
X98123931Y-85004993D01*
X98128918Y-85009318D01*
X98144652Y-85028490D01*
X98258936Y-85142776D01*
X98278111Y-85158512D01*
X98282436Y-85163499D01*
X98289954Y-85168231D01*
X98296821Y-85173867D01*
X98302919Y-85176393D01*
X98323911Y-85189607D01*
X98552484Y-85303892D01*
X98598256Y-85321407D01*
X98607214Y-85322043D01*
X98615513Y-85325481D01*
X98664286Y-85330285D01*
X99007143Y-85330285D01*
X99055916Y-85325481D01*
X99064214Y-85322043D01*
X99073174Y-85321407D01*
X99118946Y-85303892D01*
X99347517Y-85189607D01*
X99368509Y-85176392D01*
X99374606Y-85173867D01*
X99381472Y-85168232D01*
X99388993Y-85163498D01*
X99393318Y-85158511D01*
X99412491Y-85142777D01*
X99526777Y-85028491D01*
X99542512Y-85009316D01*
X99547498Y-85004993D01*
X99552229Y-84997476D01*
X99557868Y-84990606D01*
X99560394Y-84984505D01*
X99573607Y-84963517D01*
X99687893Y-84734946D01*
X99705408Y-84689173D01*
X99706044Y-84680213D01*
X99709482Y-84671915D01*
X99714286Y-84623142D01*
X99714286Y-83937428D01*
X99709482Y-83888655D01*
X99706044Y-83880356D01*
X99705408Y-83871396D01*
X99687892Y-83825624D01*
X99573607Y-83597053D01*
X99560394Y-83576064D01*
X99557868Y-83569965D01*
X99552230Y-83563095D01*
X99547498Y-83555578D01*
X99542512Y-83551254D01*
X99526777Y-83532080D01*
X99412491Y-83417794D01*
X99393318Y-83402060D01*
X99388993Y-83397073D01*
X99381472Y-83392338D01*
X99374606Y-83386704D01*
X99368509Y-83384178D01*
X99347517Y-83370964D01*
X99118947Y-83256678D01*
X99073175Y-83239163D01*
X99064214Y-83238526D01*
X99055916Y-83235089D01*
X99007143Y-83230285D01*
X98664286Y-83230285D01*
X98615513Y-83235089D01*
X98607214Y-83238526D01*
X98598255Y-83239163D01*
X98552482Y-83256678D01*
X98323911Y-83370964D01*
X98302920Y-83384177D01*
X98296821Y-83386704D01*
X98289952Y-83392340D01*
X98282435Y-83397073D01*
X98278110Y-83402058D01*
X98258936Y-83417795D01*
X98144652Y-83532081D01*
X98128919Y-83551251D01*
X98123931Y-83555578D01*
X98119196Y-83563098D01*
X98113561Y-83569966D01*
X98111035Y-83576064D01*
X98097822Y-83597054D01*
X97983536Y-83825624D01*
X97966021Y-83871396D01*
X97965384Y-83880356D01*
X97961947Y-83888655D01*
X97957143Y-83937428D01*
X97428571Y-83937428D01*
X97428571Y-83480285D01*
X97423767Y-83431512D01*
X97386438Y-83341392D01*
X97317464Y-83272418D01*
X97227344Y-83235089D01*
X97129798Y-83235089D01*
X97039678Y-83272418D01*
X96970704Y-83341392D01*
X96933375Y-83431512D01*
X96928571Y-83480285D01*
X96928571Y-84678411D01*
X96877946Y-84779660D01*
X96776697Y-84830285D01*
X96551874Y-84830285D01*
X96412374Y-84760535D01*
X96400000Y-84748161D01*
X96400000Y-83480285D01*
X96395196Y-83431512D01*
X96357867Y-83341392D01*
X96288893Y-83272418D01*
X96198773Y-83235089D01*
X96101227Y-83235089D01*
X96011107Y-83272418D01*
X95942133Y-83341392D01*
X95904804Y-83431512D01*
X95900000Y-83480285D01*
X95229186Y-83480285D01*
X95225615Y-83474612D01*
X95224333Y-83470764D01*
X95220174Y-83465969D01*
X95204640Y-83441292D01*
X95180959Y-83420753D01*
X95160421Y-83397073D01*
X95135744Y-83381539D01*
X95130949Y-83377380D01*
X95127098Y-83376096D01*
X95118945Y-83370964D01*
X94890375Y-83256678D01*
X94844603Y-83239163D01*
X94835642Y-83238526D01*
X94827344Y-83235089D01*
X94778571Y-83230285D01*
X94435713Y-83230285D01*
X94386940Y-83235089D01*
X94378641Y-83238526D01*
X94369681Y-83239163D01*
X94323909Y-83256679D01*
X94095338Y-83370964D01*
X94053863Y-83397073D01*
X93989951Y-83470764D01*
X93959105Y-83563303D01*
X93966020Y-83660603D01*
X94009644Y-83747850D01*
X94083335Y-83811762D01*
X94175874Y-83842608D01*
X94273174Y-83835693D01*
X94318946Y-83818178D01*
X94494730Y-83730285D01*
X94719553Y-83730285D01*
X94820802Y-83780909D01*
X94870490Y-83880285D01*
X94820803Y-83979660D01*
X94719554Y-84030285D01*
X94435713Y-84030285D01*
X94386940Y-84035089D01*
X94378641Y-84038526D01*
X94369681Y-84039163D01*
X94323909Y-84056679D01*
X94095338Y-84170964D01*
X94087183Y-84176097D01*
X94083335Y-84177380D01*
X94078540Y-84181538D01*
X94053863Y-84197073D01*
X94033324Y-84220753D01*
X94009644Y-84241292D01*
X93994110Y-84265968D01*
X93989951Y-84270764D01*
X93988667Y-84274614D01*
X93983535Y-84282768D01*
X93869249Y-84511338D01*
X93851734Y-84557110D01*
X93851097Y-84566070D01*
X93847660Y-84574369D01*
X93842856Y-84623142D01*
X93428571Y-84623142D01*
X93428571Y-83823142D01*
X93423767Y-83774369D01*
X93420329Y-83766070D01*
X93419693Y-83757110D01*
X93402177Y-83711338D01*
X93287892Y-83482767D01*
X93282758Y-83474612D01*
X93281476Y-83470764D01*
X93277317Y-83465969D01*
X93261783Y-83441292D01*
X93238102Y-83420753D01*
X93217564Y-83397073D01*
X93192887Y-83381539D01*
X93188092Y-83377380D01*
X93184241Y-83376096D01*
X93176088Y-83370964D01*
X92947518Y-83256678D01*
X92901746Y-83239163D01*
X92892785Y-83238526D01*
X92884487Y-83235089D01*
X92835714Y-83230285D01*
X92378571Y-83230285D01*
X92329798Y-83235089D01*
X92321499Y-83238526D01*
X92312540Y-83239163D01*
X92266767Y-83256678D01*
X92038196Y-83370964D01*
X92030039Y-83376098D01*
X92026192Y-83377381D01*
X92021399Y-83381537D01*
X91996720Y-83397073D01*
X91976180Y-83420755D01*
X91952501Y-83441292D01*
X91936967Y-83465968D01*
X91932808Y-83470764D01*
X91931524Y-83474614D01*
X91926392Y-83482768D01*
X91812107Y-83711339D01*
X91794592Y-83757111D01*
X91793955Y-83766070D01*
X91790518Y-83774369D01*
X91785714Y-83823142D01*
X91257142Y-83823142D01*
X91257142Y-83480285D01*
X91252338Y-83431512D01*
X91215009Y-83341392D01*
X91146035Y-83272418D01*
X91055915Y-83235089D01*
X90958369Y-83235089D01*
X90868249Y-83272418D01*
X90848022Y-83292644D01*
X90776089Y-83256678D01*
X90730317Y-83239163D01*
X90721356Y-83238526D01*
X90713058Y-83235089D01*
X90664285Y-83230285D01*
X90321428Y-83230285D01*
X90272655Y-83235089D01*
X90264356Y-83238526D01*
X90255397Y-83239163D01*
X90209624Y-83256678D01*
X89981053Y-83370964D01*
X89972896Y-83376098D01*
X89969049Y-83377381D01*
X89964256Y-83381537D01*
X89939577Y-83397073D01*
X89919037Y-83420755D01*
X89895358Y-83441292D01*
X89879824Y-83465968D01*
X89875665Y-83470764D01*
X89874381Y-83474614D01*
X89869249Y-83482768D01*
X89754964Y-83711339D01*
X89737449Y-83757111D01*
X89736812Y-83766070D01*
X89733375Y-83774369D01*
X89728571Y-83823142D01*
X89199999Y-83823142D01*
X89195195Y-83774369D01*
X89191757Y-83766070D01*
X89191121Y-83757110D01*
X89173605Y-83711338D01*
X89059320Y-83482767D01*
X89054186Y-83474612D01*
X89052904Y-83470764D01*
X89048745Y-83465969D01*
X89033211Y-83441292D01*
X89009530Y-83420753D01*
X88988992Y-83397073D01*
X88964315Y-83381539D01*
X88959520Y-83377380D01*
X88955669Y-83376096D01*
X88947516Y-83370964D01*
X88718946Y-83256678D01*
X88673174Y-83239163D01*
X88664213Y-83238526D01*
X88655915Y-83235089D01*
X88607142Y-83230285D01*
X88264284Y-83230285D01*
X88215511Y-83235089D01*
X88207212Y-83238526D01*
X88198252Y-83239163D01*
X88152480Y-83256679D01*
X87923909Y-83370964D01*
X87882434Y-83397073D01*
X87818522Y-83470764D01*
X87787676Y-83563303D01*
X87794591Y-83660603D01*
X87838215Y-83747850D01*
X87911906Y-83811762D01*
X88004445Y-83842608D01*
X88101745Y-83835693D01*
X88147517Y-83818178D01*
X88323301Y-83730285D01*
X88548124Y-83730285D01*
X88649373Y-83780909D01*
X88699061Y-83880285D01*
X88649374Y-83979660D01*
X88548125Y-84030285D01*
X88264284Y-84030285D01*
X88215511Y-84035089D01*
X88207212Y-84038526D01*
X88198252Y-84039163D01*
X88152480Y-84056679D01*
X87923909Y-84170964D01*
X87915754Y-84176097D01*
X87911906Y-84177380D01*
X87907111Y-84181538D01*
X87882434Y-84197073D01*
X87861895Y-84220753D01*
X87838215Y-84241292D01*
X87822681Y-84265968D01*
X87818522Y-84270764D01*
X87817238Y-84274614D01*
X87812106Y-84282768D01*
X87697820Y-84511338D01*
X87680305Y-84557110D01*
X87679668Y-84566070D01*
X87676231Y-84574369D01*
X87671427Y-84623142D01*
X87404760Y-84623142D01*
X87404760Y-82680285D01*
X100242857Y-82680285D01*
X100242857Y-85080285D01*
X100247661Y-85129058D01*
X100284990Y-85219178D01*
X100353964Y-85288152D01*
X100444084Y-85325481D01*
X100541630Y-85325481D01*
X100631750Y-85288152D01*
X100700724Y-85219178D01*
X100738053Y-85129058D01*
X100742857Y-85080285D01*
X100742857Y-84073142D01*
X101614286Y-84073142D01*
X101614286Y-85080285D01*
X101619090Y-85129058D01*
X101656419Y-85219178D01*
X101725393Y-85288152D01*
X101815513Y-85325481D01*
X101913059Y-85325481D01*
X102003179Y-85288152D01*
X102072153Y-85219178D01*
X102109482Y-85129058D01*
X102114286Y-85080285D01*
X102114286Y-82680285D01*
X102109482Y-82631512D01*
X102072153Y-82541392D01*
X102003179Y-82472418D01*
X101913059Y-82435089D01*
X101815513Y-82435089D01*
X101725393Y-82472418D01*
X101656419Y-82541392D01*
X101619090Y-82631512D01*
X101614286Y-82680285D01*
X101614286Y-83573142D01*
X100742857Y-83573142D01*
X100742857Y-82680285D01*
X100738053Y-82631512D01*
X100700724Y-82541392D01*
X100631750Y-82472418D01*
X100541630Y-82435089D01*
X100444084Y-82435089D01*
X100353964Y-82472418D01*
X100284990Y-82541392D01*
X100247661Y-82631512D01*
X100242857Y-82680285D01*
X87404760Y-82680285D01*
X87404760Y-82168422D01*
X102380953Y-82168422D01*
X102380953Y-85596952D01*
G37*
D10*
X63020314Y-97178571D02*
X63091742Y-97392857D01*
X63091742Y-97392857D02*
X63163171Y-97464286D01*
X63163171Y-97464286D02*
X63306028Y-97535714D01*
X63306028Y-97535714D02*
X63520314Y-97535714D01*
X63520314Y-97535714D02*
X63663171Y-97464286D01*
X63663171Y-97464286D02*
X63734600Y-97392857D01*
X63734600Y-97392857D02*
X63806028Y-97250000D01*
X63806028Y-97250000D02*
X63806028Y-96678571D01*
X63806028Y-96678571D02*
X62306028Y-96678571D01*
X62306028Y-96678571D02*
X62306028Y-97178571D01*
X62306028Y-97178571D02*
X62377457Y-97321429D01*
X62377457Y-97321429D02*
X62448885Y-97392857D01*
X62448885Y-97392857D02*
X62591742Y-97464286D01*
X62591742Y-97464286D02*
X62734600Y-97464286D01*
X62734600Y-97464286D02*
X62877457Y-97392857D01*
X62877457Y-97392857D02*
X62948885Y-97321429D01*
X62948885Y-97321429D02*
X63020314Y-97178571D01*
X63020314Y-97178571D02*
X63020314Y-96678571D01*
X63806028Y-98892857D02*
X63806028Y-98178571D01*
X63806028Y-98178571D02*
X62306028Y-98178571D01*
X63020314Y-99392857D02*
X63020314Y-99892857D01*
X63806028Y-100107143D02*
X63806028Y-99392857D01*
X63806028Y-99392857D02*
X62306028Y-99392857D01*
X62306028Y-99392857D02*
X62306028Y-100107143D01*
X63091742Y-103321429D02*
X63806028Y-103321429D01*
X62306028Y-102821429D02*
X63091742Y-103321429D01*
X63091742Y-103321429D02*
X62306028Y-103821429D01*
X62306028Y-106392857D02*
X62306028Y-107250000D01*
X63806028Y-106821428D02*
X62306028Y-106821428D01*
X63806028Y-107749999D02*
X62306028Y-107749999D01*
X63806028Y-108392857D02*
X63020314Y-108392857D01*
X63020314Y-108392857D02*
X62877457Y-108321428D01*
X62877457Y-108321428D02*
X62806028Y-108178571D01*
X62806028Y-108178571D02*
X62806028Y-107964285D01*
X62806028Y-107964285D02*
X62877457Y-107821428D01*
X62877457Y-107821428D02*
X62948885Y-107749999D01*
X63806028Y-109107142D02*
X62806028Y-109107142D01*
X63091742Y-109107142D02*
X62948885Y-109178571D01*
X62948885Y-109178571D02*
X62877457Y-109250000D01*
X62877457Y-109250000D02*
X62806028Y-109392857D01*
X62806028Y-109392857D02*
X62806028Y-109535714D01*
X63734600Y-110607142D02*
X63806028Y-110464285D01*
X63806028Y-110464285D02*
X63806028Y-110178571D01*
X63806028Y-110178571D02*
X63734600Y-110035713D01*
X63734600Y-110035713D02*
X63591742Y-109964285D01*
X63591742Y-109964285D02*
X63020314Y-109964285D01*
X63020314Y-109964285D02*
X62877457Y-110035713D01*
X62877457Y-110035713D02*
X62806028Y-110178571D01*
X62806028Y-110178571D02*
X62806028Y-110464285D01*
X62806028Y-110464285D02*
X62877457Y-110607142D01*
X62877457Y-110607142D02*
X63020314Y-110678571D01*
X63020314Y-110678571D02*
X63163171Y-110678571D01*
X63163171Y-110678571D02*
X63306028Y-109964285D01*
X63806028Y-111964285D02*
X63020314Y-111964285D01*
X63020314Y-111964285D02*
X62877457Y-111892856D01*
X62877457Y-111892856D02*
X62806028Y-111749999D01*
X62806028Y-111749999D02*
X62806028Y-111464285D01*
X62806028Y-111464285D02*
X62877457Y-111321427D01*
X63734600Y-111964285D02*
X63806028Y-111821427D01*
X63806028Y-111821427D02*
X63806028Y-111464285D01*
X63806028Y-111464285D02*
X63734600Y-111321427D01*
X63734600Y-111321427D02*
X63591742Y-111249999D01*
X63591742Y-111249999D02*
X63448885Y-111249999D01*
X63448885Y-111249999D02*
X63306028Y-111321427D01*
X63306028Y-111321427D02*
X63234600Y-111464285D01*
X63234600Y-111464285D02*
X63234600Y-111821427D01*
X63234600Y-111821427D02*
X63163171Y-111964285D01*
X63806028Y-113321428D02*
X62306028Y-113321428D01*
X63734600Y-113321428D02*
X63806028Y-113178570D01*
X63806028Y-113178570D02*
X63806028Y-112892856D01*
X63806028Y-112892856D02*
X63734600Y-112749999D01*
X63734600Y-112749999D02*
X63663171Y-112678570D01*
X63663171Y-112678570D02*
X63520314Y-112607142D01*
X63520314Y-112607142D02*
X63091742Y-112607142D01*
X63091742Y-112607142D02*
X62948885Y-112678570D01*
X62948885Y-112678570D02*
X62877457Y-112749999D01*
X62877457Y-112749999D02*
X62806028Y-112892856D01*
X62806028Y-112892856D02*
X62806028Y-113178570D01*
X62806028Y-113178570D02*
X62877457Y-113321428D01*
D14*
G36*
X102624998Y-165231252D02*
G01*
X102624998Y-166554168D01*
X101302080Y-166554168D01*
X101302080Y-167877086D01*
X101302080Y-169200000D01*
X101302080Y-170522918D01*
X99979162Y-170522918D01*
X99979162Y-169200000D01*
X99979162Y-167877086D01*
X99979162Y-166554168D01*
X99979162Y-165231252D01*
X101302080Y-165231252D01*
X101302080Y-163908336D01*
X102624998Y-163908336D01*
X102624998Y-165231252D01*
G37*
G36*
X64260416Y-157293752D02*
G01*
X62937499Y-157293752D01*
X62937499Y-155970836D01*
X64260416Y-155970836D01*
X64260416Y-157293752D01*
G37*
G36*
X58968750Y-153325002D02*
G01*
X58968750Y-154647920D01*
X58968750Y-155970836D01*
X60291666Y-155970836D01*
X60291666Y-157293752D01*
X58968750Y-157293752D01*
X58968750Y-158616668D01*
X57645833Y-158616668D01*
X57645833Y-159939586D01*
X56322916Y-159939586D01*
X55000000Y-159939586D01*
X55000000Y-161262502D01*
X55000000Y-162585418D01*
X53677083Y-162585418D01*
X53677083Y-161262502D01*
X53677083Y-159939586D01*
X53677083Y-158616668D01*
X55000000Y-158616668D01*
X55000000Y-157293752D01*
X56322916Y-157293752D01*
X57645833Y-157293752D01*
X57645833Y-155970836D01*
X57645833Y-154647920D01*
X56322916Y-154647920D01*
X56322916Y-155970836D01*
X56322916Y-157293752D01*
X55000000Y-157293752D01*
X53677083Y-157293752D01*
X53677083Y-155970836D01*
X55000000Y-155970836D01*
X55000000Y-154647920D01*
X56322916Y-154647920D01*
X56322916Y-153325002D01*
X56322916Y-152002086D01*
X57645833Y-152002086D01*
X58968750Y-152002086D01*
X58968750Y-153325002D01*
G37*
G36*
X62937499Y-142741670D02*
G01*
X62937499Y-144064586D01*
X62937499Y-145387503D01*
X62937499Y-146710420D01*
X62937499Y-148033336D01*
X62937499Y-149356253D01*
X62937499Y-150679169D01*
X61614583Y-150679169D01*
X60291666Y-150679169D01*
X58968750Y-150679169D01*
X57645833Y-150679169D01*
X56322916Y-150679169D01*
X55000000Y-150679169D01*
X53677083Y-150679169D01*
X53677083Y-149356253D01*
X53677083Y-148033336D01*
X53677083Y-146710420D01*
X53677083Y-145387503D01*
X55000000Y-145387503D01*
X55000000Y-146710420D01*
X55000000Y-148033336D01*
X55000000Y-149356253D01*
X56322916Y-149356253D01*
X57645833Y-149356253D01*
X58968750Y-149356253D01*
X60291666Y-149356253D01*
X61614583Y-149356253D01*
X61614583Y-148033336D01*
X61614583Y-146710420D01*
X61614583Y-145387503D01*
X61614583Y-144064586D01*
X61614583Y-142741670D01*
X60291666Y-142741670D01*
X58968750Y-142741670D01*
X57645833Y-142741670D01*
X56322916Y-142741670D01*
X55000000Y-142741670D01*
X55000000Y-144064586D01*
X55000000Y-145387503D01*
X53677083Y-145387503D01*
X53677083Y-144064586D01*
X53677083Y-142741670D01*
X53677083Y-141418753D01*
X55000000Y-141418753D01*
X56322916Y-141418753D01*
X57645833Y-141418753D01*
X58968750Y-141418753D01*
X60291666Y-141418753D01*
X61614583Y-141418753D01*
X62937499Y-141418753D01*
X62937499Y-142741670D01*
G37*
G36*
X102624998Y-173168750D02*
G01*
X101302080Y-173168750D01*
X101302080Y-171845836D01*
X102624998Y-171845836D01*
X102624998Y-173168750D01*
G37*
G36*
X65583332Y-165231252D02*
G01*
X64260416Y-165231252D01*
X62937499Y-165231252D01*
X62937499Y-163908336D01*
X64260416Y-163908336D01*
X65583332Y-163908336D01*
X65583332Y-165231252D01*
G37*
G36*
X60291666Y-185075000D02*
G01*
X60291666Y-186397918D01*
X60291666Y-187720832D01*
X58968750Y-187720832D01*
X57645833Y-187720832D01*
X56322916Y-187720832D01*
X56322916Y-186397918D01*
X56322916Y-185075000D01*
X56322916Y-183752086D01*
X57645833Y-183752086D01*
X58968750Y-183752086D01*
X60291666Y-183752086D01*
X60291666Y-185075000D01*
G37*
G36*
X74843748Y-178460418D02*
G01*
X73520832Y-178460418D01*
X73520832Y-177137500D01*
X74843748Y-177137500D01*
X74843748Y-178460418D01*
G37*
G36*
X62937499Y-166554168D02*
G01*
X61614583Y-166554168D01*
X61614583Y-165231252D01*
X62937499Y-165231252D01*
X62937499Y-166554168D01*
G37*
G36*
X66906250Y-163908336D02*
G01*
X65583332Y-163908336D01*
X65583332Y-162585418D01*
X66906250Y-162585418D01*
X66906250Y-163908336D01*
G37*
G36*
X61614583Y-167877086D02*
G01*
X62937499Y-167877086D01*
X62937499Y-169200000D01*
X61614583Y-169200000D01*
X60291666Y-169200000D01*
X60291666Y-167877086D01*
X60291666Y-166554168D01*
X61614583Y-166554168D01*
X61614583Y-167877086D01*
G37*
G36*
X78812498Y-150679169D02*
G01*
X77489582Y-150679169D01*
X77489582Y-149356253D01*
X78812498Y-149356253D01*
X78812498Y-150679169D01*
G37*
G36*
X89395830Y-149356253D02*
G01*
X89395830Y-150679169D01*
X90718748Y-150679169D01*
X90718748Y-149356253D01*
X92041666Y-149356253D01*
X92041666Y-150679169D01*
X92041666Y-152002086D01*
X90718748Y-152002086D01*
X90718748Y-153325002D01*
X90718748Y-154647920D01*
X89395830Y-154647920D01*
X89395830Y-153325002D01*
X88072916Y-153325002D01*
X88072916Y-154647920D01*
X88072916Y-155970836D01*
X89395830Y-155970836D01*
X89395830Y-157293752D01*
X90718748Y-157293752D01*
X90718748Y-158616668D01*
X92041666Y-158616668D01*
X92041666Y-159939586D01*
X93364580Y-159939586D01*
X93364580Y-158616668D01*
X92041666Y-158616668D01*
X92041666Y-157293752D01*
X93364580Y-157293752D01*
X94687498Y-157293752D01*
X94687498Y-158616668D01*
X96010416Y-158616668D01*
X96010416Y-157293752D01*
X96010416Y-155970836D01*
X97333330Y-155970836D01*
X97333330Y-157293752D01*
X98656248Y-157293752D01*
X99979162Y-157293752D01*
X99979162Y-158616668D01*
X101302080Y-158616668D01*
X101302080Y-157293752D01*
X99979162Y-157293752D01*
X98656248Y-157293752D01*
X98656248Y-155970836D01*
X97333330Y-155970836D01*
X97333330Y-154647920D01*
X96010416Y-154647920D01*
X94687498Y-154647920D01*
X93364580Y-154647920D01*
X93364580Y-153325002D01*
X92041666Y-153325002D01*
X92041666Y-152002086D01*
X93364580Y-152002086D01*
X94687498Y-152002086D01*
X94687498Y-153325002D01*
X96010416Y-153325002D01*
X96010416Y-152002086D01*
X97333330Y-152002086D01*
X97333330Y-153325002D01*
X98656248Y-153325002D01*
X98656248Y-154647920D01*
X99979162Y-154647920D01*
X99979162Y-155970836D01*
X101302080Y-155970836D01*
X102624998Y-155970836D01*
X102624998Y-157293752D01*
X102624998Y-158616668D01*
X102624998Y-159939586D01*
X101302080Y-159939586D01*
X101302080Y-161262502D01*
X99979162Y-161262502D01*
X98656248Y-161262502D01*
X98656248Y-159939586D01*
X98656248Y-158616668D01*
X97333330Y-158616668D01*
X97333330Y-159939586D01*
X97333330Y-161262502D01*
X97333330Y-162585418D01*
X96010416Y-162585418D01*
X94687498Y-162585418D01*
X94687498Y-161262502D01*
X96010416Y-161262502D01*
X96010416Y-159939586D01*
X94687498Y-159939586D01*
X94687498Y-161262502D01*
X93364580Y-161262502D01*
X92041666Y-161262502D01*
X90718748Y-161262502D01*
X90718748Y-162585418D01*
X90718748Y-163908336D01*
X90718748Y-165231252D01*
X93364580Y-165231252D01*
X93364580Y-163908336D01*
X94687498Y-163908336D01*
X96010416Y-163908336D01*
X96010416Y-165231252D01*
X94687498Y-165231252D01*
X94687498Y-166554168D01*
X93364580Y-166554168D01*
X93364580Y-167877086D01*
X92041666Y-167877086D01*
X92041666Y-169200000D01*
X90718748Y-169200000D01*
X89395830Y-169200000D01*
X89395830Y-170522918D01*
X89395830Y-171845836D01*
X90718748Y-171845836D01*
X92041666Y-171845836D01*
X92041666Y-170522918D01*
X93364580Y-170522918D01*
X93364580Y-171845836D01*
X93364580Y-173168750D01*
X92041666Y-173168750D01*
X90718748Y-173168750D01*
X89395830Y-173168750D01*
X88072916Y-173168750D01*
X86749998Y-173168750D01*
X85427080Y-173168750D01*
X85427080Y-171845836D01*
X85427080Y-170522918D01*
X86749998Y-170522918D01*
X86749998Y-171845836D01*
X88072916Y-171845836D01*
X88072916Y-170522918D01*
X88072916Y-169200000D01*
X88072916Y-167877086D01*
X89395830Y-167877086D01*
X89395830Y-166554168D01*
X88072916Y-166554168D01*
X88072916Y-165231252D01*
X86749998Y-165231252D01*
X86749998Y-163908336D01*
X86749998Y-162585418D01*
X88072916Y-162585418D01*
X88072916Y-163908336D01*
X89395830Y-163908336D01*
X89395830Y-162585418D01*
X88072916Y-162585418D01*
X88072916Y-161262502D01*
X88072916Y-159939586D01*
X89395830Y-159939586D01*
X89395830Y-161262502D01*
X90718748Y-161262502D01*
X90718748Y-159939586D01*
X89395830Y-159939586D01*
X88072916Y-159939586D01*
X86749998Y-159939586D01*
X86749998Y-158616668D01*
X86749998Y-157293752D01*
X86749998Y-155970836D01*
X86749998Y-154647920D01*
X86749998Y-153325002D01*
X85427080Y-153325002D01*
X85427080Y-152002086D01*
X86749998Y-152002086D01*
X86749998Y-150679169D01*
X88072916Y-150679169D01*
X88072916Y-149356253D01*
X88072916Y-148033336D01*
X89395830Y-148033336D01*
X89395830Y-149356253D01*
G37*
G36*
X60291666Y-159939586D02*
G01*
X61614583Y-159939586D01*
X62937499Y-159939586D01*
X62937499Y-161262502D01*
X61614583Y-161262502D01*
X60291666Y-161262502D01*
X58968750Y-161262502D01*
X58968750Y-159939586D01*
X58968750Y-158616668D01*
X60291666Y-158616668D01*
X60291666Y-159939586D01*
G37*
G36*
X84104166Y-145387503D02*
G01*
X82781248Y-145387503D01*
X82781248Y-144064586D01*
X84104166Y-144064586D01*
X84104166Y-145387503D01*
G37*
G36*
X81458330Y-167877086D02*
G01*
X80135416Y-167877086D01*
X80135416Y-166554168D01*
X81458330Y-166554168D01*
X81458330Y-167877086D01*
G37*
G36*
X85427080Y-159939586D02*
G01*
X85427080Y-161262502D01*
X84104166Y-161262502D01*
X84104166Y-159939586D01*
X84104166Y-158616668D01*
X85427080Y-158616668D01*
X85427080Y-159939586D01*
G37*
G36*
X65583332Y-181106250D02*
G01*
X66906250Y-181106250D01*
X68229166Y-181106250D01*
X68229166Y-182429168D01*
X68229166Y-183752086D01*
X66906250Y-183752086D01*
X66906250Y-185075000D01*
X65583332Y-185075000D01*
X65583332Y-183752086D01*
X65583332Y-182429168D01*
X64260416Y-182429168D01*
X64260416Y-181106250D01*
X64260416Y-179783336D01*
X65583332Y-179783336D01*
X65583332Y-181106250D01*
G37*
G36*
X80135416Y-169200000D02*
G01*
X80135416Y-170522918D01*
X78812498Y-170522918D01*
X78812498Y-169200000D01*
X78812498Y-167877086D01*
X80135416Y-167877086D01*
X80135416Y-169200000D01*
G37*
G36*
X73520832Y-142741670D02*
G01*
X73520832Y-144064586D01*
X73520832Y-145387503D01*
X72197916Y-145387503D01*
X72197916Y-146710420D01*
X70874998Y-146710420D01*
X70874998Y-148033336D01*
X72197916Y-148033336D01*
X72197916Y-149356253D01*
X70874998Y-149356253D01*
X70874998Y-150679169D01*
X72197916Y-150679169D01*
X72197916Y-152002086D01*
X73520832Y-152002086D01*
X74843748Y-152002086D01*
X74843748Y-153325002D01*
X74843748Y-154647920D01*
X73520832Y-154647920D01*
X72197916Y-154647920D01*
X72197916Y-153325002D01*
X70874998Y-153325002D01*
X69552082Y-153325002D01*
X69552082Y-154647920D01*
X70874998Y-154647920D01*
X70874998Y-155970836D01*
X70874998Y-157293752D01*
X72197916Y-157293752D01*
X72197916Y-158616668D01*
X72197916Y-159939586D01*
X73520832Y-159939586D01*
X73520832Y-158616668D01*
X74843748Y-158616668D01*
X74843748Y-159939586D01*
X76166666Y-159939586D01*
X77489582Y-159939586D01*
X77489582Y-161262502D01*
X76166666Y-161262502D01*
X76166666Y-162585418D01*
X74843748Y-162585418D01*
X74843748Y-161262502D01*
X73520832Y-161262502D01*
X73520832Y-162585418D01*
X73520832Y-163908336D01*
X72197916Y-163908336D01*
X70874998Y-163908336D01*
X69552082Y-163908336D01*
X69552082Y-165231252D01*
X68229166Y-165231252D01*
X68229166Y-166554168D01*
X66906250Y-166554168D01*
X66906250Y-165231252D01*
X66906250Y-163908336D01*
X68229166Y-163908336D01*
X68229166Y-162585418D01*
X68229166Y-161262502D01*
X66906250Y-161262502D01*
X66906250Y-159939586D01*
X66906250Y-158616668D01*
X68229166Y-158616668D01*
X68229166Y-159939586D01*
X69552082Y-159939586D01*
X70874998Y-159939586D01*
X70874998Y-161262502D01*
X72197916Y-161262502D01*
X72197916Y-159939586D01*
X70874998Y-159939586D01*
X69552082Y-159939586D01*
X69552082Y-158616668D01*
X68229166Y-158616668D01*
X66906250Y-158616668D01*
X65583332Y-158616668D01*
X65583332Y-157293752D01*
X66906250Y-157293752D01*
X66906250Y-155970836D01*
X68229166Y-155970836D01*
X68229166Y-157293752D01*
X69552082Y-157293752D01*
X69552082Y-155970836D01*
X68229166Y-155970836D01*
X66906250Y-155970836D01*
X65583332Y-155970836D01*
X65583332Y-154647920D01*
X66906250Y-154647920D01*
X66906250Y-153325002D01*
X65583332Y-153325002D01*
X65583332Y-154647920D01*
X64260416Y-154647920D01*
X62937499Y-154647920D01*
X62937499Y-153325002D01*
X61614583Y-153325002D01*
X61614583Y-152002086D01*
X62937499Y-152002086D01*
X64260416Y-152002086D01*
X64260416Y-150679169D01*
X64260416Y-149356253D01*
X65583332Y-149356253D01*
X65583332Y-150679169D01*
X66906250Y-150679169D01*
X66906250Y-152002086D01*
X68229166Y-152002086D01*
X68229166Y-153325002D01*
X69552082Y-153325002D01*
X69552082Y-152002086D01*
X69552082Y-150679169D01*
X69552082Y-149356253D01*
X68229166Y-149356253D01*
X68229166Y-150679169D01*
X66906250Y-150679169D01*
X66906250Y-149356253D01*
X65583332Y-149356253D01*
X65583332Y-148033336D01*
X64260416Y-148033336D01*
X64260416Y-146710420D01*
X65583332Y-146710420D01*
X66906250Y-146710420D01*
X66906250Y-148033336D01*
X68229166Y-148033336D01*
X69552082Y-148033336D01*
X69552082Y-146710420D01*
X69552082Y-145387503D01*
X69552082Y-144064586D01*
X69552082Y-142741670D01*
X70874998Y-142741670D01*
X70874998Y-144064586D01*
X72197916Y-144064586D01*
X72197916Y-142741670D01*
X70874998Y-142741670D01*
X70874998Y-141418753D01*
X72197916Y-141418753D01*
X73520832Y-141418753D01*
X73520832Y-142741670D01*
G37*
G36*
X69552082Y-181106250D02*
G01*
X68229166Y-181106250D01*
X68229166Y-179783336D01*
X69552082Y-179783336D01*
X69552082Y-181106250D01*
G37*
G36*
X82781248Y-142741670D02*
G01*
X81458330Y-142741670D01*
X80135416Y-142741670D01*
X78812498Y-142741670D01*
X78812498Y-141418753D01*
X80135416Y-141418753D01*
X81458330Y-141418753D01*
X82781248Y-141418753D01*
X82781248Y-142741670D01*
G37*
G36*
X55000000Y-178460418D02*
G01*
X53677083Y-178460418D01*
X53677083Y-177137500D01*
X55000000Y-177137500D01*
X55000000Y-178460418D01*
G37*
G36*
X86749998Y-150679169D02*
G01*
X85427080Y-150679169D01*
X85427080Y-149356253D01*
X86749998Y-149356253D01*
X86749998Y-150679169D01*
G37*
G36*
X93364580Y-190366668D02*
G01*
X92041666Y-190366668D01*
X92041666Y-189043750D01*
X93364580Y-189043750D01*
X93364580Y-190366668D01*
G37*
G36*
X84104166Y-148033336D02*
G01*
X85427080Y-148033336D01*
X85427080Y-149356253D01*
X84104166Y-149356253D01*
X84104166Y-150679169D01*
X82781248Y-150679169D01*
X82781248Y-149356253D01*
X82781248Y-148033336D01*
X82781248Y-146710420D01*
X84104166Y-146710420D01*
X84104166Y-148033336D01*
G37*
G36*
X98656248Y-166554168D02*
G01*
X98656248Y-167877086D01*
X98656248Y-169200000D01*
X98656248Y-170522918D01*
X99979162Y-170522918D01*
X99979162Y-171845836D01*
X99979162Y-173168750D01*
X101302080Y-173168750D01*
X101302080Y-174491668D01*
X99979162Y-174491668D01*
X99979162Y-175814586D01*
X101302080Y-175814586D01*
X101302080Y-177137500D01*
X102624998Y-177137500D01*
X102624998Y-178460418D01*
X101302080Y-178460418D01*
X101302080Y-179783336D01*
X102624998Y-179783336D01*
X102624998Y-181106250D01*
X102624998Y-182429168D01*
X101302080Y-182429168D01*
X99979162Y-182429168D01*
X99979162Y-181106250D01*
X98656248Y-181106250D01*
X98656248Y-182429168D01*
X98656248Y-183752086D01*
X98656248Y-185075000D01*
X97333330Y-185075000D01*
X97333330Y-186397918D01*
X98656248Y-186397918D01*
X98656248Y-187720832D01*
X99979162Y-187720832D01*
X99979162Y-189043750D01*
X101302080Y-189043750D01*
X102624998Y-189043750D01*
X102624998Y-190366668D01*
X101302080Y-190366668D01*
X99979162Y-190366668D01*
X98656248Y-190366668D01*
X97333330Y-190366668D01*
X97333330Y-189043750D01*
X96010416Y-189043750D01*
X96010416Y-187720832D01*
X94687498Y-187720832D01*
X93364580Y-187720832D01*
X93364580Y-186397918D01*
X93364580Y-185075000D01*
X94687498Y-185075000D01*
X94687498Y-186397918D01*
X96010416Y-186397918D01*
X96010416Y-185075000D01*
X94687498Y-185075000D01*
X93364580Y-185075000D01*
X92041666Y-185075000D01*
X92041666Y-186397918D01*
X92041666Y-187720832D01*
X90718748Y-187720832D01*
X89395830Y-187720832D01*
X89395830Y-189043750D01*
X89395830Y-190366668D01*
X88072916Y-190366668D01*
X86749998Y-190366668D01*
X85427080Y-190366668D01*
X84104166Y-190366668D01*
X82781248Y-190366668D01*
X82781248Y-189043750D01*
X84104166Y-189043750D01*
X84104166Y-187720832D01*
X85427080Y-187720832D01*
X86749998Y-187720832D01*
X86749998Y-186397918D01*
X88072916Y-186397918D01*
X89395830Y-186397918D01*
X90718748Y-186397918D01*
X90718748Y-185075000D01*
X90718748Y-183752086D01*
X89395830Y-183752086D01*
X89395830Y-185075000D01*
X88072916Y-185075000D01*
X88072916Y-183752086D01*
X88072916Y-182429168D01*
X89395830Y-182429168D01*
X92041666Y-182429168D01*
X92041666Y-183752086D01*
X93364580Y-183752086D01*
X94687498Y-183752086D01*
X96010416Y-183752086D01*
X96010416Y-182429168D01*
X96010416Y-181106250D01*
X96010416Y-179783336D01*
X97333330Y-179783336D01*
X98656248Y-179783336D01*
X99979162Y-179783336D01*
X99979162Y-178460418D01*
X99979162Y-177137500D01*
X98656248Y-177137500D01*
X97333330Y-177137500D01*
X97333330Y-178460418D01*
X97333330Y-179783336D01*
X96010416Y-179783336D01*
X94687498Y-179783336D01*
X93364580Y-179783336D01*
X92041666Y-179783336D01*
X92041666Y-181106250D01*
X92041666Y-182429168D01*
X89395830Y-182429168D01*
X89395830Y-181106250D01*
X90718748Y-181106250D01*
X90718748Y-179783336D01*
X89395830Y-179783336D01*
X89395830Y-178460418D01*
X90718748Y-178460418D01*
X90718748Y-177137500D01*
X89395830Y-177137500D01*
X89395830Y-178460418D01*
X88072916Y-178460418D01*
X88072916Y-177137500D01*
X88072916Y-175814586D01*
X89395830Y-175814586D01*
X90718748Y-175814586D01*
X90718748Y-174491668D01*
X92041666Y-174491668D01*
X92041666Y-175814586D01*
X92041666Y-177137500D01*
X93364580Y-177137500D01*
X93364580Y-178460418D01*
X94687498Y-178460418D01*
X94687498Y-177137500D01*
X94687498Y-175814586D01*
X96010416Y-175814586D01*
X96010416Y-177137500D01*
X97333330Y-177137500D01*
X97333330Y-175814586D01*
X96010416Y-175814586D01*
X96010416Y-174491668D01*
X97333330Y-174491668D01*
X97333330Y-173168750D01*
X97333330Y-171845836D01*
X96010416Y-171845836D01*
X96010416Y-170522918D01*
X97333330Y-170522918D01*
X97333330Y-169200000D01*
X96010416Y-169200000D01*
X96010416Y-167877086D01*
X96010416Y-166554168D01*
X96010416Y-165231252D01*
X97333330Y-165231252D01*
X98656248Y-165231252D01*
X98656248Y-166554168D01*
G37*
G36*
X80135416Y-182429168D02*
G01*
X78812498Y-182429168D01*
X78812498Y-183752086D01*
X77489582Y-183752086D01*
X77489582Y-185075000D01*
X76166666Y-185075000D01*
X74843748Y-185075000D01*
X74843748Y-183752086D01*
X74843748Y-182429168D01*
X76166666Y-182429168D01*
X77489582Y-182429168D01*
X77489582Y-181106250D01*
X78812498Y-181106250D01*
X80135416Y-181106250D01*
X80135416Y-182429168D01*
G37*
G36*
X96010416Y-170522918D02*
G01*
X94687498Y-170522918D01*
X94687498Y-169200000D01*
X96010416Y-169200000D01*
X96010416Y-170522918D01*
G37*
G36*
X66906250Y-142741670D02*
G01*
X66906250Y-144064586D01*
X66906250Y-145387503D01*
X65583332Y-145387503D01*
X65583332Y-144064586D01*
X65583332Y-142741670D01*
X65583332Y-141418753D01*
X66906250Y-141418753D01*
X66906250Y-142741670D01*
G37*
G36*
X64260416Y-179783336D02*
G01*
X62937499Y-179783336D01*
X61614583Y-179783336D01*
X61614583Y-178460418D01*
X62937499Y-178460418D01*
X64260416Y-178460418D01*
X64260416Y-179783336D01*
G37*
G36*
X94687498Y-174491668D02*
G01*
X93364580Y-174491668D01*
X93364580Y-173168750D01*
X94687498Y-173168750D01*
X94687498Y-174491668D01*
G37*
G36*
X80135416Y-165231252D02*
G01*
X78812498Y-165231252D01*
X78812498Y-163908336D01*
X80135416Y-163908336D01*
X80135416Y-165231252D01*
G37*
G36*
X76166666Y-150679169D02*
G01*
X77489582Y-150679169D01*
X77489582Y-152002086D01*
X76166666Y-152002086D01*
X74843748Y-152002086D01*
X74843748Y-150679169D01*
X74843748Y-149356253D01*
X76166666Y-149356253D01*
X76166666Y-150679169D01*
G37*
G36*
X73520832Y-150679169D02*
G01*
X72197916Y-150679169D01*
X72197916Y-149356253D01*
X73520832Y-149356253D01*
X73520832Y-150679169D01*
G37*
G36*
X62937499Y-182429168D02*
G01*
X62937499Y-183752086D01*
X62937499Y-185075000D01*
X62937499Y-186397918D01*
X62937499Y-187720832D01*
X62937499Y-189043750D01*
X62937499Y-190366668D01*
X61614583Y-190366668D01*
X60291666Y-190366668D01*
X58968750Y-190366668D01*
X57645833Y-190366668D01*
X56322916Y-190366668D01*
X55000000Y-190366668D01*
X53677083Y-190366668D01*
X53677083Y-189043750D01*
X53677083Y-187720832D01*
X53677083Y-186397918D01*
X53677083Y-185075000D01*
X55000000Y-185075000D01*
X55000000Y-186397918D01*
X55000000Y-187720832D01*
X55000000Y-189043750D01*
X61614583Y-189043750D01*
X61614583Y-187720832D01*
X61614583Y-186397918D01*
X61614583Y-185075000D01*
X61614583Y-183752086D01*
X61614583Y-182429168D01*
X60291666Y-182429168D01*
X58968750Y-182429168D01*
X57645833Y-182429168D01*
X56322916Y-182429168D01*
X55000000Y-182429168D01*
X55000000Y-183752086D01*
X55000000Y-185075000D01*
X53677083Y-185075000D01*
X53677083Y-183752086D01*
X53677083Y-182429168D01*
X53677083Y-181106250D01*
X55000000Y-181106250D01*
X56322916Y-181106250D01*
X57645833Y-181106250D01*
X58968750Y-181106250D01*
X60291666Y-181106250D01*
X61614583Y-181106250D01*
X62937499Y-181106250D01*
X62937499Y-182429168D01*
G37*
G36*
X70874998Y-185075000D02*
G01*
X69552082Y-185075000D01*
X69552082Y-186397918D01*
X70874998Y-186397918D01*
X72197916Y-186397918D01*
X73520832Y-186397918D01*
X73520832Y-187720832D01*
X74843748Y-187720832D01*
X76166666Y-187720832D01*
X76166666Y-186397918D01*
X77489582Y-186397918D01*
X77489582Y-187720832D01*
X81458330Y-187720832D01*
X81458330Y-186397918D01*
X82781248Y-186397918D01*
X82781248Y-187720832D01*
X82781248Y-189043750D01*
X81458330Y-189043750D01*
X80135416Y-189043750D01*
X78812498Y-189043750D01*
X78812498Y-190366668D01*
X77489582Y-190366668D01*
X77489582Y-189043750D01*
X76166666Y-189043750D01*
X74843748Y-189043750D01*
X74843748Y-190366668D01*
X73520832Y-190366668D01*
X73520832Y-189043750D01*
X72197916Y-189043750D01*
X72197916Y-187720832D01*
X70874998Y-187720832D01*
X69552082Y-187720832D01*
X69552082Y-189043750D01*
X70874998Y-189043750D01*
X70874998Y-190366668D01*
X69552082Y-190366668D01*
X68229166Y-190366668D01*
X66906250Y-190366668D01*
X66906250Y-189043750D01*
X66906250Y-187720832D01*
X66906250Y-186397918D01*
X68229166Y-186397918D01*
X68229166Y-185075000D01*
X68229166Y-183752086D01*
X69552082Y-183752086D01*
X70874998Y-183752086D01*
X70874998Y-185075000D01*
G37*
G36*
X94687498Y-182429168D02*
G01*
X93364580Y-182429168D01*
X93364580Y-181106250D01*
X94687498Y-181106250D01*
X94687498Y-182429168D01*
G37*
G36*
X65583332Y-186397918D02*
G01*
X65583332Y-187720832D01*
X64260416Y-187720832D01*
X64260416Y-186397918D01*
X64260416Y-185075000D01*
X65583332Y-185075000D01*
X65583332Y-186397918D01*
G37*
G36*
X101302080Y-187720832D02*
G01*
X99979162Y-187720832D01*
X99979162Y-186397918D01*
X101302080Y-186397918D01*
X101302080Y-187720832D01*
G37*
G36*
X80135416Y-185075000D02*
G01*
X81458330Y-185075000D01*
X81458330Y-186397918D01*
X80135416Y-186397918D01*
X78812498Y-186397918D01*
X78812498Y-185075000D01*
X78812498Y-183752086D01*
X80135416Y-183752086D01*
X80135416Y-185075000D01*
G37*
G36*
X84104166Y-185075000D02*
G01*
X84104166Y-186397918D01*
X82781248Y-186397918D01*
X82781248Y-185075000D01*
X82781248Y-183752086D01*
X84104166Y-183752086D01*
X84104166Y-185075000D01*
G37*
G36*
X73520832Y-185075000D02*
G01*
X72197916Y-185075000D01*
X72197916Y-183752086D01*
X73520832Y-183752086D01*
X73520832Y-185075000D01*
G37*
G36*
X102624998Y-185075000D02*
G01*
X101302080Y-185075000D01*
X101302080Y-183752086D01*
X102624998Y-183752086D01*
X102624998Y-185075000D01*
G37*
G36*
X86749998Y-183752086D02*
G01*
X85427080Y-183752086D01*
X84104166Y-183752086D01*
X84104166Y-182429168D01*
X85427080Y-182429168D01*
X86749998Y-182429168D01*
X86749998Y-183752086D01*
G37*
G36*
X76166666Y-181106250D02*
G01*
X74843748Y-181106250D01*
X73520832Y-181106250D01*
X72197916Y-181106250D01*
X72197916Y-182429168D01*
X70874998Y-182429168D01*
X69552082Y-182429168D01*
X69552082Y-181106250D01*
X70874998Y-181106250D01*
X70874998Y-179783336D01*
X72197916Y-179783336D01*
X73520832Y-179783336D01*
X74843748Y-179783336D01*
X76166666Y-179783336D01*
X76166666Y-181106250D01*
G37*
G36*
X69552082Y-167877086D02*
G01*
X69552082Y-169200000D01*
X70874998Y-169200000D01*
X70874998Y-167877086D01*
X72197916Y-167877086D01*
X72197916Y-166554168D01*
X73520832Y-166554168D01*
X73520832Y-167877086D01*
X74843748Y-167877086D01*
X74843748Y-166554168D01*
X76166666Y-166554168D01*
X77489582Y-166554168D01*
X78812498Y-166554168D01*
X78812498Y-167877086D01*
X77489582Y-167877086D01*
X77489582Y-169200000D01*
X76166666Y-169200000D01*
X74843748Y-169200000D01*
X73520832Y-169200000D01*
X73520832Y-170522918D01*
X73520832Y-171845836D01*
X74843748Y-171845836D01*
X74843748Y-170522918D01*
X76166666Y-170522918D01*
X77489582Y-170522918D01*
X78812498Y-170522918D01*
X78812498Y-171845836D01*
X80135416Y-171845836D01*
X80135416Y-170522918D01*
X81458330Y-170522918D01*
X81458330Y-171845836D01*
X81458330Y-173168750D01*
X81458330Y-174491668D01*
X82781248Y-174491668D01*
X82781248Y-173168750D01*
X82781248Y-171845836D01*
X82781248Y-170522918D01*
X84104166Y-170522918D01*
X84104166Y-171845836D01*
X84104166Y-173168750D01*
X84104166Y-174491668D01*
X85427080Y-174491668D01*
X85427080Y-175814586D01*
X84104166Y-175814586D01*
X82781248Y-175814586D01*
X82781248Y-177137500D01*
X84104166Y-177137500D01*
X84104166Y-178460418D01*
X82781248Y-178460418D01*
X82781248Y-179783336D01*
X82781248Y-181106250D01*
X82781248Y-182429168D01*
X81458330Y-182429168D01*
X81458330Y-181106250D01*
X81458330Y-179783336D01*
X81458330Y-178460418D01*
X80135416Y-178460418D01*
X80135416Y-179783336D01*
X78812498Y-179783336D01*
X77489582Y-179783336D01*
X77489582Y-178460418D01*
X77489582Y-177137500D01*
X76166666Y-177137500D01*
X76166666Y-175814586D01*
X74843748Y-175814586D01*
X74843748Y-174491668D01*
X76166666Y-174491668D01*
X77489582Y-174491668D01*
X77489582Y-175814586D01*
X78812498Y-175814586D01*
X80135416Y-175814586D01*
X80135416Y-177137500D01*
X81458330Y-177137500D01*
X81458330Y-175814586D01*
X80135416Y-175814586D01*
X80135416Y-174491668D01*
X78812498Y-174491668D01*
X78812498Y-173168750D01*
X77489582Y-173168750D01*
X77489582Y-171845836D01*
X76166666Y-171845836D01*
X74843748Y-171845836D01*
X74843748Y-173168750D01*
X73520832Y-173168750D01*
X72197916Y-173168750D01*
X70874998Y-173168750D01*
X70874998Y-174491668D01*
X69552082Y-174491668D01*
X68229166Y-174491668D01*
X68229166Y-173168750D01*
X66906250Y-173168750D01*
X66906250Y-171845836D01*
X66906250Y-170522918D01*
X65583332Y-170522918D01*
X65583332Y-169200000D01*
X68229166Y-169200000D01*
X68229166Y-170522918D01*
X69552082Y-170522918D01*
X70874998Y-170522918D01*
X70874998Y-171845836D01*
X72197916Y-171845836D01*
X72197916Y-170522918D01*
X70874998Y-170522918D01*
X69552082Y-170522918D01*
X69552082Y-169200000D01*
X68229166Y-169200000D01*
X65583332Y-169200000D01*
X64260416Y-169200000D01*
X64260416Y-167877086D01*
X65583332Y-167877086D01*
X66906250Y-167877086D01*
X68229166Y-167877086D01*
X68229166Y-166554168D01*
X69552082Y-166554168D01*
X69552082Y-167877086D01*
G37*
G36*
X85427080Y-179783336D02*
G01*
X86749998Y-179783336D01*
X86749998Y-178460418D01*
X88072916Y-178460418D01*
X88072916Y-179783336D01*
X88072916Y-181106250D01*
X86749998Y-181106250D01*
X85427080Y-181106250D01*
X84104166Y-181106250D01*
X84104166Y-179783336D01*
X84104166Y-178460418D01*
X85427080Y-178460418D01*
X85427080Y-179783336D01*
G37*
G36*
X60291666Y-179783336D02*
G01*
X58968750Y-179783336D01*
X57645833Y-179783336D01*
X56322916Y-179783336D01*
X56322916Y-178460418D01*
X57645833Y-178460418D01*
X58968750Y-178460418D01*
X60291666Y-178460418D01*
X60291666Y-179783336D01*
G37*
G36*
X73520832Y-175814586D02*
G01*
X73520832Y-177137500D01*
X72197916Y-177137500D01*
X70874998Y-177137500D01*
X70874998Y-178460418D01*
X69552082Y-178460418D01*
X69552082Y-177137500D01*
X68229166Y-177137500D01*
X68229166Y-178460418D01*
X68229166Y-179783336D01*
X66906250Y-179783336D01*
X66906250Y-178460418D01*
X65583332Y-178460418D01*
X65583332Y-177137500D01*
X66906250Y-177137500D01*
X66906250Y-175814586D01*
X68229166Y-175814586D01*
X69552082Y-175814586D01*
X70874998Y-175814586D01*
X70874998Y-174491668D01*
X72197916Y-174491668D01*
X73520832Y-174491668D01*
X73520832Y-175814586D01*
G37*
G36*
X86749998Y-177137500D02*
G01*
X86749998Y-178460418D01*
X85427080Y-178460418D01*
X85427080Y-177137500D01*
X85427080Y-175814586D01*
X86749998Y-175814586D01*
X86749998Y-177137500D01*
G37*
G36*
X66906250Y-174491668D02*
G01*
X66906250Y-175814586D01*
X65583332Y-175814586D01*
X65583332Y-177137500D01*
X64260416Y-177137500D01*
X62937499Y-177137500D01*
X61614583Y-177137500D01*
X60291666Y-177137500D01*
X58968750Y-177137500D01*
X57645833Y-177137500D01*
X57645833Y-175814586D01*
X56322916Y-175814586D01*
X56322916Y-177137500D01*
X55000000Y-177137500D01*
X55000000Y-175814586D01*
X55000000Y-174491668D01*
X56322916Y-174491668D01*
X57645833Y-174491668D01*
X58968750Y-174491668D01*
X58968750Y-175814586D01*
X60291666Y-175814586D01*
X61614583Y-175814586D01*
X62937499Y-175814586D01*
X64260416Y-175814586D01*
X64260416Y-174491668D01*
X65583332Y-174491668D01*
X65583332Y-173168750D01*
X66906250Y-173168750D01*
X66906250Y-174491668D01*
G37*
G36*
X102624998Y-175814586D02*
G01*
X101302080Y-175814586D01*
X101302080Y-174491668D01*
X102624998Y-174491668D01*
X102624998Y-175814586D01*
G37*
G36*
X62937499Y-171845836D02*
G01*
X61614583Y-171845836D01*
X61614583Y-173168750D01*
X62937499Y-173168750D01*
X62937499Y-174491668D01*
X61614583Y-174491668D01*
X60291666Y-174491668D01*
X60291666Y-173168750D01*
X60291666Y-171845836D01*
X60291666Y-170522918D01*
X61614583Y-170522918D01*
X62937499Y-170522918D01*
X62937499Y-171845836D01*
G37*
G36*
X55000000Y-173168750D02*
G01*
X53677083Y-173168750D01*
X53677083Y-171845836D01*
X55000000Y-171845836D01*
X55000000Y-173168750D01*
G37*
G36*
X58968750Y-171845836D02*
G01*
X58968750Y-173168750D01*
X57645833Y-173168750D01*
X56322916Y-173168750D01*
X56322916Y-171845836D01*
X56322916Y-170522918D01*
X57645833Y-170522918D01*
X58968750Y-170522918D01*
X58968750Y-171845836D01*
G37*
G36*
X64260416Y-173168750D02*
G01*
X62937499Y-173168750D01*
X62937499Y-171845836D01*
X64260416Y-171845836D01*
X64260416Y-173168750D01*
G37*
G36*
X55000000Y-169200000D02*
G01*
X55000000Y-170522918D01*
X53677083Y-170522918D01*
X53677083Y-169200000D01*
X53677083Y-167877086D01*
X55000000Y-167877086D01*
X55000000Y-169200000D01*
G37*
G36*
X86749998Y-166554168D02*
G01*
X86749998Y-167877086D01*
X86749998Y-169200000D01*
X85427080Y-169200000D01*
X84104166Y-169200000D01*
X82781248Y-169200000D01*
X82781248Y-167877086D01*
X84104166Y-167877086D01*
X84104166Y-166554168D01*
X85427080Y-166554168D01*
X85427080Y-165231252D01*
X86749998Y-165231252D01*
X86749998Y-166554168D01*
G37*
G36*
X56322916Y-163908336D02*
G01*
X57645833Y-163908336D01*
X58968750Y-163908336D01*
X58968750Y-162585418D01*
X60291666Y-162585418D01*
X61614583Y-162585418D01*
X62937499Y-162585418D01*
X62937499Y-163908336D01*
X61614583Y-163908336D01*
X61614583Y-165231252D01*
X60291666Y-165231252D01*
X60291666Y-163908336D01*
X58968750Y-163908336D01*
X58968750Y-165231252D01*
X57645833Y-165231252D01*
X57645833Y-166554168D01*
X56322916Y-166554168D01*
X55000000Y-166554168D01*
X55000000Y-165231252D01*
X55000000Y-163908336D01*
X55000000Y-162585418D01*
X56322916Y-162585418D01*
X56322916Y-163908336D01*
G37*
G36*
X80135416Y-161262502D02*
G01*
X81458330Y-161262502D01*
X82781248Y-161262502D01*
X84104166Y-161262502D01*
X84104166Y-162585418D01*
X85427080Y-162585418D01*
X85427080Y-163908336D01*
X85427080Y-165231252D01*
X84104166Y-165231252D01*
X84104166Y-166554168D01*
X82781248Y-166554168D01*
X82781248Y-165231252D01*
X82781248Y-163908336D01*
X81458330Y-163908336D01*
X80135416Y-163908336D01*
X80135416Y-162585418D01*
X78812498Y-162585418D01*
X78812498Y-163908336D01*
X77489582Y-163908336D01*
X77489582Y-165231252D01*
X76166666Y-165231252D01*
X74843748Y-165231252D01*
X74843748Y-163908336D01*
X76166666Y-163908336D01*
X76166666Y-162585418D01*
X77489582Y-162585418D01*
X77489582Y-161262502D01*
X78812498Y-161262502D01*
X78812498Y-159939586D01*
X80135416Y-159939586D01*
X80135416Y-161262502D01*
G37*
G36*
X99979162Y-163908336D02*
G01*
X98656248Y-163908336D01*
X97333330Y-163908336D01*
X97333330Y-162585418D01*
X98656248Y-162585418D01*
X99979162Y-162585418D01*
X99979162Y-163908336D01*
G37*
G36*
X57645833Y-162585418D02*
G01*
X56322916Y-162585418D01*
X56322916Y-161262502D01*
X57645833Y-161262502D01*
X57645833Y-162585418D01*
G37*
G36*
X102624998Y-162585418D02*
G01*
X101302080Y-162585418D01*
X101302080Y-161262502D01*
X102624998Y-161262502D01*
X102624998Y-162585418D01*
G37*
G36*
X65583332Y-159939586D02*
G01*
X65583332Y-161262502D01*
X64260416Y-161262502D01*
X64260416Y-159939586D01*
X64260416Y-158616668D01*
X65583332Y-158616668D01*
X65583332Y-159939586D01*
G37*
G36*
X62937499Y-158616668D02*
G01*
X61614583Y-158616668D01*
X60291666Y-158616668D01*
X60291666Y-157293752D01*
X61614583Y-157293752D01*
X62937499Y-157293752D01*
X62937499Y-158616668D01*
G37*
G36*
X77489582Y-142741670D02*
G01*
X78812498Y-142741670D01*
X78812498Y-144064586D01*
X78812498Y-145387503D01*
X78812498Y-146710420D01*
X80135416Y-146710420D01*
X81458330Y-146710420D01*
X81458330Y-148033336D01*
X81458330Y-149356253D01*
X81458330Y-150679169D01*
X82781248Y-150679169D01*
X82781248Y-152002086D01*
X84104166Y-152002086D01*
X84104166Y-153325002D01*
X84104166Y-154647920D01*
X84104166Y-155970836D01*
X82781248Y-155970836D01*
X82781248Y-154647920D01*
X81458330Y-154647920D01*
X81458330Y-155970836D01*
X82781248Y-155970836D01*
X82781248Y-157293752D01*
X82781248Y-158616668D01*
X81458330Y-158616668D01*
X80135416Y-158616668D01*
X78812498Y-158616668D01*
X77489582Y-158616668D01*
X76166666Y-158616668D01*
X74843748Y-158616668D01*
X74843748Y-157293752D01*
X76166666Y-157293752D01*
X76166666Y-155970836D01*
X77489582Y-155970836D01*
X77489582Y-157293752D01*
X78812498Y-157293752D01*
X78812498Y-155970836D01*
X77489582Y-155970836D01*
X76166666Y-155970836D01*
X74843748Y-155970836D01*
X74843748Y-154647920D01*
X76166666Y-154647920D01*
X76166666Y-153325002D01*
X77489582Y-153325002D01*
X77489582Y-154647920D01*
X78812498Y-154647920D01*
X80135416Y-154647920D01*
X81458330Y-154647920D01*
X81458330Y-153325002D01*
X81458330Y-152002086D01*
X80135416Y-152002086D01*
X78812498Y-152002086D01*
X78812498Y-150679169D01*
X80135416Y-150679169D01*
X80135416Y-149356253D01*
X80135416Y-148033336D01*
X78812498Y-148033336D01*
X77489582Y-148033336D01*
X76166666Y-148033336D01*
X74843748Y-148033336D01*
X74843748Y-146710420D01*
X76166666Y-146710420D01*
X77489582Y-146710420D01*
X77489582Y-145387503D01*
X76166666Y-145387503D01*
X74843748Y-145387503D01*
X74843748Y-144064586D01*
X76166666Y-144064586D01*
X76166666Y-142741670D01*
X74843748Y-142741670D01*
X74843748Y-141418753D01*
X76166666Y-141418753D01*
X77489582Y-141418753D01*
X77489582Y-142741670D01*
G37*
G36*
X74843748Y-157293752D02*
G01*
X73520832Y-157293752D01*
X73520832Y-155970836D01*
X74843748Y-155970836D01*
X74843748Y-157293752D01*
G37*
G36*
X93364580Y-155970836D02*
G01*
X92041666Y-155970836D01*
X92041666Y-157293752D01*
X90718748Y-157293752D01*
X90718748Y-155970836D01*
X90718748Y-154647920D01*
X92041666Y-154647920D01*
X93364580Y-154647920D01*
X93364580Y-155970836D01*
G37*
G36*
X62937499Y-155970836D02*
G01*
X61614583Y-155970836D01*
X61614583Y-154647920D01*
X62937499Y-154647920D01*
X62937499Y-155970836D01*
G37*
G36*
X101302080Y-154647920D02*
G01*
X99979162Y-154647920D01*
X99979162Y-153325002D01*
X101302080Y-153325002D01*
X101302080Y-154647920D01*
G37*
G36*
X60291666Y-145387503D02*
G01*
X60291666Y-146710420D01*
X60291666Y-148033336D01*
X58968750Y-148033336D01*
X57645833Y-148033336D01*
X56322916Y-148033336D01*
X56322916Y-146710420D01*
X56322916Y-145387503D01*
X56322916Y-144064586D01*
X57645833Y-144064586D01*
X58968750Y-144064586D01*
X60291666Y-144064586D01*
X60291666Y-145387503D01*
G37*
G36*
X99979162Y-145387503D02*
G01*
X99979162Y-146710420D01*
X99979162Y-148033336D01*
X98656248Y-148033336D01*
X97333330Y-148033336D01*
X96010416Y-148033336D01*
X96010416Y-146710420D01*
X96010416Y-145387503D01*
X96010416Y-144064586D01*
X97333330Y-144064586D01*
X98656248Y-144064586D01*
X99979162Y-144064586D01*
X99979162Y-145387503D01*
G37*
G36*
X102624998Y-142741670D02*
G01*
X102624998Y-144064586D01*
X102624998Y-145387503D01*
X102624998Y-146710420D01*
X102624998Y-148033336D01*
X102624998Y-149356253D01*
X102624998Y-150679169D01*
X101302080Y-150679169D01*
X99979162Y-150679169D01*
X98656248Y-150679169D01*
X97333330Y-150679169D01*
X96010416Y-150679169D01*
X94687498Y-150679169D01*
X93364580Y-150679169D01*
X93364580Y-149356253D01*
X93364580Y-148033336D01*
X93364580Y-146710420D01*
X93364580Y-145387503D01*
X94687498Y-145387503D01*
X94687498Y-146710420D01*
X94687498Y-148033336D01*
X94687498Y-149356253D01*
X96010416Y-149356253D01*
X97333330Y-149356253D01*
X98656248Y-149356253D01*
X99979162Y-149356253D01*
X101302080Y-149356253D01*
X101302080Y-148033336D01*
X101302080Y-146710420D01*
X101302080Y-145387503D01*
X101302080Y-144064586D01*
X101302080Y-142741670D01*
X99979162Y-142741670D01*
X98656248Y-142741670D01*
X97333330Y-142741670D01*
X96010416Y-142741670D01*
X94687498Y-142741670D01*
X94687498Y-144064586D01*
X94687498Y-145387503D01*
X93364580Y-145387503D01*
X93364580Y-144064586D01*
X93364580Y-142741670D01*
X93364580Y-141418753D01*
X94687498Y-141418753D01*
X96010416Y-141418753D01*
X97333330Y-141418753D01*
X98656248Y-141418753D01*
X99979162Y-141418753D01*
X101302080Y-141418753D01*
X102624998Y-141418753D01*
X102624998Y-142741670D01*
G37*
G36*
X74843748Y-149356253D02*
G01*
X73520832Y-149356253D01*
X73520832Y-148033336D01*
X74843748Y-148033336D01*
X74843748Y-149356253D01*
G37*
G36*
X88072916Y-142741670D02*
G01*
X88072916Y-144064586D01*
X89395830Y-144064586D01*
X89395830Y-145387503D01*
X89395830Y-146710420D01*
X88072916Y-146710420D01*
X88072916Y-148033336D01*
X86749998Y-148033336D01*
X86749998Y-146710420D01*
X85427080Y-146710420D01*
X85427080Y-145387503D01*
X86749998Y-145387503D01*
X86749998Y-144064586D01*
X86749998Y-142741670D01*
X85427080Y-142741670D01*
X85427080Y-141418753D01*
X86749998Y-141418753D01*
X88072916Y-141418753D01*
X88072916Y-142741670D01*
G37*
G36*
X90718748Y-148033336D02*
G01*
X89395830Y-148033336D01*
X89395830Y-146710420D01*
X90718748Y-146710420D01*
X90718748Y-148033336D01*
G37*
G36*
X82781248Y-146710420D02*
G01*
X81458330Y-146710420D01*
X81458330Y-145387503D01*
X82781248Y-145387503D01*
X82781248Y-146710420D01*
G37*
G36*
X92041666Y-144064586D02*
G01*
X90718748Y-144064586D01*
X90718748Y-142741670D01*
X92041666Y-142741670D01*
X92041666Y-144064586D01*
G37*
D15*
X85293072Y-99737722D02*
X84956354Y-100074440D01*
X85899163Y-99603035D02*
X85293072Y-99737722D01*
X85293072Y-99737722D02*
X85427759Y-99131631D01*
X85158385Y-98996944D02*
X85158385Y-98929600D01*
X85158385Y-98929600D02*
X85124713Y-98828585D01*
X85124713Y-98828585D02*
X84956354Y-98660226D01*
X84956354Y-98660226D02*
X84855339Y-98626554D01*
X84855339Y-98626554D02*
X84787996Y-98626554D01*
X84787996Y-98626554D02*
X84686980Y-98660226D01*
X84686980Y-98660226D02*
X84619637Y-98727570D01*
X84619637Y-98727570D02*
X84552293Y-98862257D01*
X84552293Y-98862257D02*
X84552293Y-99670379D01*
X84552293Y-99670379D02*
X84114561Y-99232646D01*
X90731009Y-118014285D02*
X90778628Y-118157142D01*
X90778628Y-118157142D02*
X90826247Y-118204761D01*
X90826247Y-118204761D02*
X90921485Y-118252380D01*
X90921485Y-118252380D02*
X91064342Y-118252380D01*
X91064342Y-118252380D02*
X91159580Y-118204761D01*
X91159580Y-118204761D02*
X91207200Y-118157142D01*
X91207200Y-118157142D02*
X91254819Y-118061904D01*
X91254819Y-118061904D02*
X91254819Y-117680952D01*
X91254819Y-117680952D02*
X90254819Y-117680952D01*
X90254819Y-117680952D02*
X90254819Y-118014285D01*
X90254819Y-118014285D02*
X90302438Y-118109523D01*
X90302438Y-118109523D02*
X90350057Y-118157142D01*
X90350057Y-118157142D02*
X90445295Y-118204761D01*
X90445295Y-118204761D02*
X90540533Y-118204761D01*
X90540533Y-118204761D02*
X90635771Y-118157142D01*
X90635771Y-118157142D02*
X90683390Y-118109523D01*
X90683390Y-118109523D02*
X90731009Y-118014285D01*
X90731009Y-118014285D02*
X90731009Y-117680952D01*
X90254819Y-118538095D02*
X90254819Y-119109523D01*
X91254819Y-118823809D02*
X90254819Y-118823809D01*
X91254819Y-119966666D02*
X91254819Y-119395238D01*
X91254819Y-119680952D02*
X90254819Y-119680952D01*
X90254819Y-119680952D02*
X90397676Y-119585714D01*
X90397676Y-119585714D02*
X90492914Y-119490476D01*
X90492914Y-119490476D02*
X90540533Y-119395238D01*
X75833332Y-93407200D02*
X75690475Y-93454819D01*
X75690475Y-93454819D02*
X75452380Y-93454819D01*
X75452380Y-93454819D02*
X75357142Y-93407200D01*
X75357142Y-93407200D02*
X75309523Y-93359580D01*
X75309523Y-93359580D02*
X75261904Y-93264342D01*
X75261904Y-93264342D02*
X75261904Y-93169104D01*
X75261904Y-93169104D02*
X75309523Y-93073866D01*
X75309523Y-93073866D02*
X75357142Y-93026247D01*
X75357142Y-93026247D02*
X75452380Y-92978628D01*
X75452380Y-92978628D02*
X75642856Y-92931009D01*
X75642856Y-92931009D02*
X75738094Y-92883390D01*
X75738094Y-92883390D02*
X75785713Y-92835771D01*
X75785713Y-92835771D02*
X75833332Y-92740533D01*
X75833332Y-92740533D02*
X75833332Y-92645295D01*
X75833332Y-92645295D02*
X75785713Y-92550057D01*
X75785713Y-92550057D02*
X75738094Y-92502438D01*
X75738094Y-92502438D02*
X75642856Y-92454819D01*
X75642856Y-92454819D02*
X75404761Y-92454819D01*
X75404761Y-92454819D02*
X75261904Y-92502438D01*
X74928570Y-92454819D02*
X74690475Y-93454819D01*
X74690475Y-93454819D02*
X74499999Y-92740533D01*
X74499999Y-92740533D02*
X74309523Y-93454819D01*
X74309523Y-93454819D02*
X74071428Y-92454819D01*
X73166666Y-93454819D02*
X73738094Y-93454819D01*
X73452380Y-93454819D02*
X73452380Y-92454819D01*
X73452380Y-92454819D02*
X73547618Y-92597676D01*
X73547618Y-92597676D02*
X73642856Y-92692914D01*
X73642856Y-92692914D02*
X73738094Y-92740533D01*
X75952381Y-104654819D02*
X76285714Y-104178628D01*
X76523809Y-104654819D02*
X76523809Y-103654819D01*
X76523809Y-103654819D02*
X76142857Y-103654819D01*
X76142857Y-103654819D02*
X76047619Y-103702438D01*
X76047619Y-103702438D02*
X76000000Y-103750057D01*
X76000000Y-103750057D02*
X75952381Y-103845295D01*
X75952381Y-103845295D02*
X75952381Y-103988152D01*
X75952381Y-103988152D02*
X76000000Y-104083390D01*
X76000000Y-104083390D02*
X76047619Y-104131009D01*
X76047619Y-104131009D02*
X76142857Y-104178628D01*
X76142857Y-104178628D02*
X76523809Y-104178628D01*
X75523809Y-104131009D02*
X75190476Y-104131009D01*
X75047619Y-104654819D02*
X75523809Y-104654819D01*
X75523809Y-104654819D02*
X75523809Y-103654819D01*
X75523809Y-103654819D02*
X75047619Y-103654819D01*
X74666666Y-104607200D02*
X74523809Y-104654819D01*
X74523809Y-104654819D02*
X74285714Y-104654819D01*
X74285714Y-104654819D02*
X74190476Y-104607200D01*
X74190476Y-104607200D02*
X74142857Y-104559580D01*
X74142857Y-104559580D02*
X74095238Y-104464342D01*
X74095238Y-104464342D02*
X74095238Y-104369104D01*
X74095238Y-104369104D02*
X74142857Y-104273866D01*
X74142857Y-104273866D02*
X74190476Y-104226247D01*
X74190476Y-104226247D02*
X74285714Y-104178628D01*
X74285714Y-104178628D02*
X74476190Y-104131009D01*
X74476190Y-104131009D02*
X74571428Y-104083390D01*
X74571428Y-104083390D02*
X74619047Y-104035771D01*
X74619047Y-104035771D02*
X74666666Y-103940533D01*
X74666666Y-103940533D02*
X74666666Y-103845295D01*
X74666666Y-103845295D02*
X74619047Y-103750057D01*
X74619047Y-103750057D02*
X74571428Y-103702438D01*
X74571428Y-103702438D02*
X74476190Y-103654819D01*
X74476190Y-103654819D02*
X74238095Y-103654819D01*
X74238095Y-103654819D02*
X74095238Y-103702438D01*
X73666666Y-104131009D02*
X73333333Y-104131009D01*
X73190476Y-104654819D02*
X73666666Y-104654819D01*
X73666666Y-104654819D02*
X73666666Y-103654819D01*
X73666666Y-103654819D02*
X73190476Y-103654819D01*
X72904761Y-103654819D02*
X72333333Y-103654819D01*
X72619047Y-104654819D02*
X72619047Y-103654819D01*
D16*
%TO.C,REF\u002A\u002A*%
X69723684Y-115932216D02*
X69764650Y-115945005D01*
X69815099Y-115966261D01*
X69839526Y-115977684D01*
X69857155Y-115979749D01*
X69861053Y-115963916D01*
X69861057Y-115963468D01*
X69869312Y-115948351D01*
X69897781Y-115940603D01*
X69952961Y-115938421D01*
X70044869Y-115938421D01*
X70044869Y-116740526D01*
X69861053Y-116740526D01*
X69861053Y-116187483D01*
X69815358Y-116145134D01*
X69801082Y-116133098D01*
X69758558Y-116112534D01*
X69706192Y-116111710D01*
X69634889Y-116129856D01*
X69610852Y-116131005D01*
X69582656Y-116113402D01*
X69545126Y-116071562D01*
X69526921Y-116048419D01*
X69505391Y-116015742D01*
X69502073Y-115994942D01*
X69514128Y-115977395D01*
X69551135Y-115955206D01*
X69608612Y-115937645D01*
X69670972Y-115928938D01*
X69723684Y-115932216D01*
G36*
X69723684Y-115932216D02*
G01*
X69764650Y-115945005D01*
X69815099Y-115966261D01*
X69839526Y-115977684D01*
X69857155Y-115979749D01*
X69861053Y-115963916D01*
X69861057Y-115963468D01*
X69869312Y-115948351D01*
X69897781Y-115940603D01*
X69952961Y-115938421D01*
X70044869Y-115938421D01*
X70044869Y-116740526D01*
X69861053Y-116740526D01*
X69861053Y-116187483D01*
X69815358Y-116145134D01*
X69801082Y-116133098D01*
X69758558Y-116112534D01*
X69706192Y-116111710D01*
X69634889Y-116129856D01*
X69610852Y-116131005D01*
X69582656Y-116113402D01*
X69545126Y-116071562D01*
X69526921Y-116048419D01*
X69505391Y-116015742D01*
X69502073Y-115994942D01*
X69514128Y-115977395D01*
X69551135Y-115955206D01*
X69608612Y-115937645D01*
X69670972Y-115928938D01*
X69723684Y-115932216D01*
G37*
X69967063Y-117202716D02*
X70017550Y-117226344D01*
X70061579Y-117260978D01*
X70061579Y-117226344D01*
X70062676Y-117213194D01*
X70072885Y-117199252D01*
X70100493Y-117193094D01*
X70153487Y-117191710D01*
X70245395Y-117191710D01*
X70245395Y-118010526D01*
X70061579Y-118010526D01*
X70061579Y-117743944D01*
X70061557Y-117728640D01*
X70059989Y-117621060D01*
X70056141Y-117533427D01*
X70050287Y-117470224D01*
X70042701Y-117435929D01*
X70035736Y-117422982D01*
X69992860Y-117382378D01*
X69934458Y-117364404D01*
X69870686Y-117372789D01*
X69855044Y-117378472D01*
X69821721Y-117388517D01*
X69798947Y-117385398D01*
X69776031Y-117364979D01*
X69742283Y-117323127D01*
X69687547Y-117254017D01*
X69726020Y-117222864D01*
X69762592Y-117204112D01*
X69826833Y-117191447D01*
X69899240Y-117191033D01*
X69967063Y-117202716D01*
G36*
X69967063Y-117202716D02*
G01*
X70017550Y-117226344D01*
X70061579Y-117260978D01*
X70061579Y-117226344D01*
X70062676Y-117213194D01*
X70072885Y-117199252D01*
X70100493Y-117193094D01*
X70153487Y-117191710D01*
X70245395Y-117191710D01*
X70245395Y-118010526D01*
X70061579Y-118010526D01*
X70061579Y-117743944D01*
X70061557Y-117728640D01*
X70059989Y-117621060D01*
X70056141Y-117533427D01*
X70050287Y-117470224D01*
X70042701Y-117435929D01*
X70035736Y-117422982D01*
X69992860Y-117382378D01*
X69934458Y-117364404D01*
X69870686Y-117372789D01*
X69855044Y-117378472D01*
X69821721Y-117388517D01*
X69798947Y-117385398D01*
X69776031Y-117364979D01*
X69742283Y-117323127D01*
X69687547Y-117254017D01*
X69726020Y-117222864D01*
X69762592Y-117204112D01*
X69826833Y-117191447D01*
X69899240Y-117191033D01*
X69967063Y-117202716D01*
G37*
X73453816Y-118010526D02*
X73286711Y-118010526D01*
X73286711Y-117752601D01*
X73286526Y-117692605D01*
X73284626Y-117593237D01*
X73279816Y-117519673D01*
X73271052Y-117466827D01*
X73257290Y-117429614D01*
X73237487Y-117402949D01*
X73210600Y-117381746D01*
X73181248Y-117365947D01*
X73146491Y-117361467D01*
X73097058Y-117371429D01*
X73081173Y-117375576D01*
X73041520Y-117381818D01*
X73013167Y-117372875D01*
X72980306Y-117345195D01*
X72974070Y-117339175D01*
X72939594Y-117301937D01*
X72917361Y-117271660D01*
X72914311Y-117264366D01*
X72920354Y-117237432D01*
X72950998Y-117215898D01*
X72999363Y-117200786D01*
X73058566Y-117193114D01*
X73121728Y-117193904D01*
X73181967Y-117204175D01*
X73232402Y-117224948D01*
X73248388Y-117234648D01*
X73275302Y-117248845D01*
X73285264Y-117245594D01*
X73286711Y-117224886D01*
X73287050Y-117217451D01*
X73295112Y-117200982D01*
X73320119Y-117193486D01*
X73370264Y-117191710D01*
X73453816Y-117191710D01*
X73453816Y-118010526D01*
G36*
X73453816Y-118010526D02*
G01*
X73286711Y-118010526D01*
X73286711Y-117752601D01*
X73286526Y-117692605D01*
X73284626Y-117593237D01*
X73279816Y-117519673D01*
X73271052Y-117466827D01*
X73257290Y-117429614D01*
X73237487Y-117402949D01*
X73210600Y-117381746D01*
X73181248Y-117365947D01*
X73146491Y-117361467D01*
X73097058Y-117371429D01*
X73081173Y-117375576D01*
X73041520Y-117381818D01*
X73013167Y-117372875D01*
X72980306Y-117345195D01*
X72974070Y-117339175D01*
X72939594Y-117301937D01*
X72917361Y-117271660D01*
X72914311Y-117264366D01*
X72920354Y-117237432D01*
X72950998Y-117215898D01*
X72999363Y-117200786D01*
X73058566Y-117193114D01*
X73121728Y-117193904D01*
X73181967Y-117204175D01*
X73232402Y-117224948D01*
X73248388Y-117234648D01*
X73275302Y-117248845D01*
X73285264Y-117245594D01*
X73286711Y-117224886D01*
X73287050Y-117217451D01*
X73295112Y-117200982D01*
X73320119Y-117193486D01*
X73370264Y-117191710D01*
X73453816Y-117191710D01*
X73453816Y-118010526D01*
G37*
X70379079Y-116198533D02*
X70380489Y-116315550D01*
X70386007Y-116410058D01*
X70397185Y-116478751D01*
X70415572Y-116525478D01*
X70442717Y-116554089D01*
X70480168Y-116568432D01*
X70529474Y-116572358D01*
X70576552Y-116568854D01*
X70614574Y-116555139D01*
X70642210Y-116527355D01*
X70661009Y-116481651D01*
X70672519Y-116414179D01*
X70678290Y-116321089D01*
X70679869Y-116198533D01*
X70679869Y-115938421D01*
X70846974Y-115938421D01*
X70846974Y-116252004D01*
X70846688Y-116335705D01*
X70844459Y-116443943D01*
X70838869Y-116526489D01*
X70828561Y-116588068D01*
X70812183Y-116633405D01*
X70788379Y-116667226D01*
X70755796Y-116694257D01*
X70713079Y-116719221D01*
X70623377Y-116750825D01*
X70529761Y-116752887D01*
X70441496Y-116723783D01*
X70402986Y-116704917D01*
X70383880Y-116702097D01*
X70379079Y-116715428D01*
X70371109Y-116730396D01*
X70342578Y-116738281D01*
X70287172Y-116740526D01*
X70195264Y-116740526D01*
X70195264Y-115938421D01*
X70379079Y-115938421D01*
X70379079Y-116198533D01*
G36*
X70379079Y-116198533D02*
G01*
X70380489Y-116315550D01*
X70386007Y-116410058D01*
X70397185Y-116478751D01*
X70415572Y-116525478D01*
X70442717Y-116554089D01*
X70480168Y-116568432D01*
X70529474Y-116572358D01*
X70576552Y-116568854D01*
X70614574Y-116555139D01*
X70642210Y-116527355D01*
X70661009Y-116481651D01*
X70672519Y-116414179D01*
X70678290Y-116321089D01*
X70679869Y-116198533D01*
X70679869Y-115938421D01*
X70846974Y-115938421D01*
X70846974Y-116252004D01*
X70846688Y-116335705D01*
X70844459Y-116443943D01*
X70838869Y-116526489D01*
X70828561Y-116588068D01*
X70812183Y-116633405D01*
X70788379Y-116667226D01*
X70755796Y-116694257D01*
X70713079Y-116719221D01*
X70623377Y-116750825D01*
X70529761Y-116752887D01*
X70441496Y-116723783D01*
X70402986Y-116704917D01*
X70383880Y-116702097D01*
X70379079Y-116715428D01*
X70371109Y-116730396D01*
X70342578Y-116738281D01*
X70287172Y-116740526D01*
X70195264Y-116740526D01*
X70195264Y-115938421D01*
X70379079Y-115938421D01*
X70379079Y-116198533D01*
G37*
X73172937Y-115936840D02*
X73249112Y-115960773D01*
X73282699Y-115977040D01*
X73299592Y-115978720D01*
X73303422Y-115963916D01*
X73303425Y-115963468D01*
X73311680Y-115948351D01*
X73340149Y-115940603D01*
X73395329Y-115938421D01*
X73487237Y-115938421D01*
X73487237Y-116740526D01*
X73303422Y-116740526D01*
X73303422Y-116464043D01*
X73303296Y-116370680D01*
X73302436Y-116293988D01*
X73300137Y-116240322D01*
X73295690Y-116204212D01*
X73288390Y-116180191D01*
X73277530Y-116162791D01*
X73262405Y-116146543D01*
X73241801Y-116129261D01*
X73182555Y-116106042D01*
X73120366Y-116112857D01*
X73063398Y-116149581D01*
X73047115Y-116166673D01*
X73035426Y-116183971D01*
X73027586Y-116206990D01*
X73022827Y-116241271D01*
X73020379Y-116292353D01*
X73019473Y-116365777D01*
X73019343Y-116467081D01*
X73019343Y-116740526D01*
X72835527Y-116740526D01*
X72835894Y-116443914D01*
X72835919Y-116430702D01*
X72837513Y-116304535D01*
X72842408Y-116206528D01*
X72851864Y-116131915D01*
X72867139Y-116075931D01*
X72889490Y-116033809D01*
X72920175Y-116000784D01*
X72960454Y-115972090D01*
X73002043Y-115952226D01*
X73085800Y-115934178D01*
X73172937Y-115936840D01*
G36*
X73172937Y-115936840D02*
G01*
X73249112Y-115960773D01*
X73282699Y-115977040D01*
X73299592Y-115978720D01*
X73303422Y-115963916D01*
X73303425Y-115963468D01*
X73311680Y-115948351D01*
X73340149Y-115940603D01*
X73395329Y-115938421D01*
X73487237Y-115938421D01*
X73487237Y-116740526D01*
X73303422Y-116740526D01*
X73303422Y-116464043D01*
X73303296Y-116370680D01*
X73302436Y-116293988D01*
X73300137Y-116240322D01*
X73295690Y-116204212D01*
X73288390Y-116180191D01*
X73277530Y-116162791D01*
X73262405Y-116146543D01*
X73241801Y-116129261D01*
X73182555Y-116106042D01*
X73120366Y-116112857D01*
X73063398Y-116149581D01*
X73047115Y-116166673D01*
X73035426Y-116183971D01*
X73027586Y-116206990D01*
X73022827Y-116241271D01*
X73020379Y-116292353D01*
X73019473Y-116365777D01*
X73019343Y-116467081D01*
X73019343Y-116740526D01*
X72835527Y-116740526D01*
X72835894Y-116443914D01*
X72835919Y-116430702D01*
X72837513Y-116304535D01*
X72842408Y-116206528D01*
X72851864Y-116131915D01*
X72867139Y-116075931D01*
X72889490Y-116033809D01*
X72920175Y-116000784D01*
X72960454Y-115972090D01*
X73002043Y-115952226D01*
X73085800Y-115934178D01*
X73172937Y-115936840D01*
G37*
X69253610Y-115942247D02*
X69344791Y-115977771D01*
X69421907Y-116036413D01*
X69478864Y-116116956D01*
X69482710Y-116125169D01*
X69507130Y-116205267D01*
X69519330Y-116300948D01*
X69519234Y-116400569D01*
X69506764Y-116492488D01*
X69481843Y-116565066D01*
X69451073Y-116615650D01*
X69383344Y-116687310D01*
X69298657Y-116732862D01*
X69226202Y-116751282D01*
X69115875Y-116753293D01*
X69010302Y-116725513D01*
X68916682Y-116669142D01*
X68856088Y-116619196D01*
X68910664Y-116562887D01*
X68945144Y-116529530D01*
X68976332Y-116510958D01*
X69005250Y-116515047D01*
X69042237Y-116540000D01*
X69056985Y-116549768D01*
X69119291Y-116569762D01*
X69190903Y-116569749D01*
X69257950Y-116549143D01*
X69283196Y-116532595D01*
X69320228Y-116483730D01*
X69338792Y-116411958D01*
X69339987Y-116314136D01*
X69339983Y-116314081D01*
X69326171Y-116226562D01*
X69295744Y-116165881D01*
X69245676Y-116128345D01*
X69172941Y-116110261D01*
X69127137Y-116107829D01*
X69087116Y-116117789D01*
X69046070Y-116146642D01*
X68992954Y-116191336D01*
X68925688Y-116137279D01*
X68901113Y-116116570D01*
X68870416Y-116086899D01*
X68858422Y-116069413D01*
X68862669Y-116061533D01*
X68887135Y-116037340D01*
X68926110Y-116006571D01*
X68956605Y-115986549D01*
X69053424Y-115945419D01*
X69154457Y-115931057D01*
X69253610Y-115942247D01*
G36*
X69253610Y-115942247D02*
G01*
X69344791Y-115977771D01*
X69421907Y-116036413D01*
X69478864Y-116116956D01*
X69482710Y-116125169D01*
X69507130Y-116205267D01*
X69519330Y-116300948D01*
X69519234Y-116400569D01*
X69506764Y-116492488D01*
X69481843Y-116565066D01*
X69451073Y-116615650D01*
X69383344Y-116687310D01*
X69298657Y-116732862D01*
X69226202Y-116751282D01*
X69115875Y-116753293D01*
X69010302Y-116725513D01*
X68916682Y-116669142D01*
X68856088Y-116619196D01*
X68910664Y-116562887D01*
X68945144Y-116529530D01*
X68976332Y-116510958D01*
X69005250Y-116515047D01*
X69042237Y-116540000D01*
X69056985Y-116549768D01*
X69119291Y-116569762D01*
X69190903Y-116569749D01*
X69257950Y-116549143D01*
X69283196Y-116532595D01*
X69320228Y-116483730D01*
X69338792Y-116411958D01*
X69339987Y-116314136D01*
X69339983Y-116314081D01*
X69326171Y-116226562D01*
X69295744Y-116165881D01*
X69245676Y-116128345D01*
X69172941Y-116110261D01*
X69127137Y-116107829D01*
X69087116Y-116117789D01*
X69046070Y-116146642D01*
X68992954Y-116191336D01*
X68925688Y-116137279D01*
X68901113Y-116116570D01*
X68870416Y-116086899D01*
X68858422Y-116069413D01*
X68862669Y-116061533D01*
X68887135Y-116037340D01*
X68926110Y-116006571D01*
X68956605Y-115986549D01*
X69053424Y-115945419D01*
X69154457Y-115931057D01*
X69253610Y-115942247D01*
G37*
X71644982Y-116397116D02*
X71640320Y-116450001D01*
X71619714Y-116550965D01*
X71582857Y-116628007D01*
X71526761Y-116686201D01*
X71448434Y-116730617D01*
X71418023Y-116741188D01*
X71339263Y-116754377D01*
X71256384Y-116754018D01*
X71186450Y-116739531D01*
X71185076Y-116739005D01*
X71128718Y-116705852D01*
X71071780Y-116654530D01*
X71024535Y-116595840D01*
X70997255Y-116540584D01*
X70989169Y-116500193D01*
X70982246Y-116424569D01*
X70981085Y-116357161D01*
X71149442Y-116357161D01*
X71159507Y-116438014D01*
X71183151Y-116504451D01*
X71218973Y-116547862D01*
X71232551Y-116555316D01*
X71284327Y-116568864D01*
X71344213Y-116571651D01*
X71394596Y-116562237D01*
X71414260Y-116548736D01*
X71441862Y-116501523D01*
X71459230Y-116427630D01*
X71465264Y-116330663D01*
X71465167Y-116302750D01*
X71463071Y-116246190D01*
X71456100Y-116209294D01*
X71441475Y-116182031D01*
X71416418Y-116154372D01*
X71368736Y-116120849D01*
X71306663Y-116107143D01*
X71246689Y-116120197D01*
X71196891Y-116157951D01*
X71165345Y-116218349D01*
X71154358Y-116270502D01*
X71149442Y-116357161D01*
X70981085Y-116357161D01*
X70980763Y-116338442D01*
X70984478Y-116252719D01*
X70993145Y-116178305D01*
X71006522Y-116126106D01*
X71037679Y-116067006D01*
X71103808Y-115994340D01*
X71188331Y-115948310D01*
X71288734Y-115930090D01*
X71402505Y-115940858D01*
X71421435Y-115945445D01*
X71509595Y-115985000D01*
X71576028Y-116049941D01*
X71620735Y-116140271D01*
X71643718Y-116255994D01*
X71644387Y-116330663D01*
X71644982Y-116397116D01*
G36*
X71644982Y-116397116D02*
G01*
X71640320Y-116450001D01*
X71619714Y-116550965D01*
X71582857Y-116628007D01*
X71526761Y-116686201D01*
X71448434Y-116730617D01*
X71418023Y-116741188D01*
X71339263Y-116754377D01*
X71256384Y-116754018D01*
X71186450Y-116739531D01*
X71185076Y-116739005D01*
X71128718Y-116705852D01*
X71071780Y-116654530D01*
X71024535Y-116595840D01*
X70997255Y-116540584D01*
X70989169Y-116500193D01*
X70982246Y-116424569D01*
X70981085Y-116357161D01*
X71149442Y-116357161D01*
X71159507Y-116438014D01*
X71183151Y-116504451D01*
X71218973Y-116547862D01*
X71232551Y-116555316D01*
X71284327Y-116568864D01*
X71344213Y-116571651D01*
X71394596Y-116562237D01*
X71414260Y-116548736D01*
X71441862Y-116501523D01*
X71459230Y-116427630D01*
X71465264Y-116330663D01*
X71465167Y-116302750D01*
X71463071Y-116246190D01*
X71456100Y-116209294D01*
X71441475Y-116182031D01*
X71416418Y-116154372D01*
X71368736Y-116120849D01*
X71306663Y-116107143D01*
X71246689Y-116120197D01*
X71196891Y-116157951D01*
X71165345Y-116218349D01*
X71154358Y-116270502D01*
X71149442Y-116357161D01*
X70981085Y-116357161D01*
X70980763Y-116338442D01*
X70984478Y-116252719D01*
X70993145Y-116178305D01*
X71006522Y-116126106D01*
X71037679Y-116067006D01*
X71103808Y-115994340D01*
X71188331Y-115948310D01*
X71288734Y-115930090D01*
X71402505Y-115940858D01*
X71421435Y-115945445D01*
X71509595Y-115985000D01*
X71576028Y-116049941D01*
X71620735Y-116140271D01*
X71643718Y-116255994D01*
X71644387Y-116330663D01*
X71644982Y-116397116D01*
G37*
X71778063Y-117454107D02*
X71800655Y-117521510D01*
X71827379Y-117596127D01*
X71849696Y-117652654D01*
X71865759Y-117686486D01*
X71873724Y-117693016D01*
X71875646Y-117687337D01*
X71886049Y-117652507D01*
X71902619Y-117594335D01*
X71923516Y-117519333D01*
X71946900Y-117434013D01*
X72010518Y-117200066D01*
X72107655Y-117194990D01*
X72115854Y-117194584D01*
X72168235Y-117194046D01*
X72193406Y-117199423D01*
X72196612Y-117211701D01*
X72192562Y-117223692D01*
X72179241Y-117264734D01*
X72158384Y-117329736D01*
X72131479Y-117414048D01*
X72100012Y-117513022D01*
X72065469Y-117622006D01*
X71942505Y-118010526D01*
X71788689Y-118010526D01*
X71716213Y-117764046D01*
X71702830Y-117718785D01*
X71678096Y-117636502D01*
X71656962Y-117567940D01*
X71641329Y-117519225D01*
X71633102Y-117496483D01*
X71630758Y-117494787D01*
X71619351Y-117509456D01*
X71603065Y-117548248D01*
X71584606Y-117605102D01*
X71583631Y-117608441D01*
X71558917Y-117692347D01*
X71530641Y-117787351D01*
X71504730Y-117873528D01*
X71462714Y-118012253D01*
X71307750Y-118002171D01*
X71235987Y-117776579D01*
X71204480Y-117677454D01*
X71169187Y-117566281D01*
X71135393Y-117459704D01*
X71107418Y-117371349D01*
X71050613Y-117191710D01*
X71240656Y-117191710D01*
X71286720Y-117362993D01*
X71298965Y-117408251D01*
X71322125Y-117492625D01*
X71343572Y-117569384D01*
X71359876Y-117626184D01*
X71386969Y-117718092D01*
X71473374Y-117459079D01*
X71559780Y-117200066D01*
X71625870Y-117195104D01*
X71691959Y-117190143D01*
X71778063Y-117454107D01*
G36*
X71778063Y-117454107D02*
G01*
X71800655Y-117521510D01*
X71827379Y-117596127D01*
X71849696Y-117652654D01*
X71865759Y-117686486D01*
X71873724Y-117693016D01*
X71875646Y-117687337D01*
X71886049Y-117652507D01*
X71902619Y-117594335D01*
X71923516Y-117519333D01*
X71946900Y-117434013D01*
X72010518Y-117200066D01*
X72107655Y-117194990D01*
X72115854Y-117194584D01*
X72168235Y-117194046D01*
X72193406Y-117199423D01*
X72196612Y-117211701D01*
X72192562Y-117223692D01*
X72179241Y-117264734D01*
X72158384Y-117329736D01*
X72131479Y-117414048D01*
X72100012Y-117513022D01*
X72065469Y-117622006D01*
X71942505Y-118010526D01*
X71788689Y-118010526D01*
X71716213Y-117764046D01*
X71702830Y-117718785D01*
X71678096Y-117636502D01*
X71656962Y-117567940D01*
X71641329Y-117519225D01*
X71633102Y-117496483D01*
X71630758Y-117494787D01*
X71619351Y-117509456D01*
X71603065Y-117548248D01*
X71584606Y-117605102D01*
X71583631Y-117608441D01*
X71558917Y-117692347D01*
X71530641Y-117787351D01*
X71504730Y-117873528D01*
X71462714Y-118012253D01*
X71307750Y-118002171D01*
X71235987Y-117776579D01*
X71204480Y-117677454D01*
X71169187Y-117566281D01*
X71135393Y-117459704D01*
X71107418Y-117371349D01*
X71050613Y-117191710D01*
X71240656Y-117191710D01*
X71286720Y-117362993D01*
X71298965Y-117408251D01*
X71322125Y-117492625D01*
X71343572Y-117569384D01*
X71359876Y-117626184D01*
X71386969Y-117718092D01*
X71473374Y-117459079D01*
X71559780Y-117200066D01*
X71625870Y-117195104D01*
X71691959Y-117190143D01*
X71778063Y-117454107D01*
G37*
X75807431Y-116385368D02*
X75805273Y-116437701D01*
X75800376Y-116501519D01*
X75792033Y-116546752D01*
X75778256Y-116582593D01*
X75757057Y-116618236D01*
X75756154Y-116619587D01*
X75703953Y-116677335D01*
X75640083Y-116721380D01*
X75565813Y-116747517D01*
X75468110Y-116756003D01*
X75372350Y-116739316D01*
X75286755Y-116699106D01*
X75219545Y-116637022D01*
X75200250Y-116607688D01*
X75164216Y-116516496D01*
X75146344Y-116403984D01*
X75146650Y-116375524D01*
X75326249Y-116375524D01*
X75326588Y-116428750D01*
X75332231Y-116464284D01*
X75345089Y-116491589D01*
X75367072Y-116520124D01*
X75397579Y-116548440D01*
X75458592Y-116573710D01*
X75524106Y-116569016D01*
X75586719Y-116533896D01*
X75604381Y-116517122D01*
X75623239Y-116488407D01*
X75633696Y-116448046D01*
X75639624Y-116385154D01*
X75641257Y-116337910D01*
X75632311Y-116241428D01*
X75604860Y-116172352D01*
X75558781Y-116130301D01*
X75504766Y-116110165D01*
X75440349Y-116111860D01*
X75380637Y-116145855D01*
X75366361Y-116158797D01*
X75348347Y-116181440D01*
X75337659Y-116211064D01*
X75331729Y-116256482D01*
X75327988Y-116326506D01*
X75326249Y-116375524D01*
X75146650Y-116375524D01*
X75147723Y-116275624D01*
X75149482Y-116257418D01*
X75174024Y-116140812D01*
X75219430Y-116050290D01*
X75285795Y-115985754D01*
X75373216Y-115947104D01*
X75481791Y-115934243D01*
X75522811Y-115935450D01*
X75606934Y-115950220D01*
X75675722Y-115985474D01*
X75739854Y-116045828D01*
X75750110Y-116057942D01*
X75777774Y-116098737D01*
X75795955Y-116144930D01*
X75806036Y-116203468D01*
X75809401Y-116281299D01*
X75808329Y-116337910D01*
X75807431Y-116385368D01*
G36*
X75807431Y-116385368D02*
G01*
X75805273Y-116437701D01*
X75800376Y-116501519D01*
X75792033Y-116546752D01*
X75778256Y-116582593D01*
X75757057Y-116618236D01*
X75756154Y-116619587D01*
X75703953Y-116677335D01*
X75640083Y-116721380D01*
X75565813Y-116747517D01*
X75468110Y-116756003D01*
X75372350Y-116739316D01*
X75286755Y-116699106D01*
X75219545Y-116637022D01*
X75200250Y-116607688D01*
X75164216Y-116516496D01*
X75146344Y-116403984D01*
X75146650Y-116375524D01*
X75326249Y-116375524D01*
X75326588Y-116428750D01*
X75332231Y-116464284D01*
X75345089Y-116491589D01*
X75367072Y-116520124D01*
X75397579Y-116548440D01*
X75458592Y-116573710D01*
X75524106Y-116569016D01*
X75586719Y-116533896D01*
X75604381Y-116517122D01*
X75623239Y-116488407D01*
X75633696Y-116448046D01*
X75639624Y-116385154D01*
X75641257Y-116337910D01*
X75632311Y-116241428D01*
X75604860Y-116172352D01*
X75558781Y-116130301D01*
X75504766Y-116110165D01*
X75440349Y-116111860D01*
X75380637Y-116145855D01*
X75366361Y-116158797D01*
X75348347Y-116181440D01*
X75337659Y-116211064D01*
X75331729Y-116256482D01*
X75327988Y-116326506D01*
X75326249Y-116375524D01*
X75146650Y-116375524D01*
X75147723Y-116275624D01*
X75149482Y-116257418D01*
X75174024Y-116140812D01*
X75219430Y-116050290D01*
X75285795Y-115985754D01*
X75373216Y-115947104D01*
X75481791Y-115934243D01*
X75522811Y-115935450D01*
X75606934Y-115950220D01*
X75675722Y-115985474D01*
X75739854Y-116045828D01*
X75750110Y-116057942D01*
X75777774Y-116098737D01*
X75795955Y-116144930D01*
X75806036Y-116203468D01*
X75809401Y-116281299D01*
X75808329Y-116337910D01*
X75807431Y-116385368D01*
G37*
X72917986Y-117663659D02*
X72915868Y-117735101D01*
X72911608Y-117784866D01*
X72910878Y-117789427D01*
X72882206Y-117871004D01*
X72829846Y-117940165D01*
X72761158Y-117987021D01*
X72687396Y-118006416D01*
X72596668Y-118004911D01*
X72513205Y-117978906D01*
X72491465Y-117967932D01*
X72463510Y-117956174D01*
X72452872Y-117959832D01*
X72451185Y-117978906D01*
X72450410Y-117988418D01*
X72440407Y-118002485D01*
X72412623Y-118008962D01*
X72359277Y-118010526D01*
X72267369Y-118010526D01*
X72267369Y-117609328D01*
X72451185Y-117609328D01*
X72452502Y-117678832D01*
X72457848Y-117725106D01*
X72469262Y-117756807D01*
X72488783Y-117783373D01*
X72540329Y-117822873D01*
X72600650Y-117836115D01*
X72659144Y-117819740D01*
X72708410Y-117774060D01*
X72721432Y-117740634D01*
X72731051Y-117681441D01*
X72735280Y-117609626D01*
X72733948Y-117535967D01*
X72726884Y-117471239D01*
X72713917Y-117426222D01*
X72709774Y-117418840D01*
X72669840Y-117381738D01*
X72615722Y-117365301D01*
X72557600Y-117369124D01*
X72505653Y-117392802D01*
X72470063Y-117435929D01*
X72468592Y-117439556D01*
X72459767Y-117480026D01*
X72453542Y-117540499D01*
X72451185Y-117609328D01*
X72267369Y-117609328D01*
X72267369Y-116874210D01*
X72451185Y-116874210D01*
X72451185Y-117263732D01*
X72485232Y-117232920D01*
X72518014Y-117213769D01*
X72580059Y-117197760D01*
X72652589Y-117192602D01*
X72723419Y-117198935D01*
X72780368Y-117217400D01*
X72821128Y-117243666D01*
X72863113Y-117288412D01*
X72891370Y-117348588D01*
X72908355Y-117429988D01*
X72916528Y-117538405D01*
X72917729Y-117582230D01*
X72917816Y-117609626D01*
X72917986Y-117663659D01*
G36*
X72917986Y-117663659D02*
G01*
X72915868Y-117735101D01*
X72911608Y-117784866D01*
X72910878Y-117789427D01*
X72882206Y-117871004D01*
X72829846Y-117940165D01*
X72761158Y-117987021D01*
X72687396Y-118006416D01*
X72596668Y-118004911D01*
X72513205Y-117978906D01*
X72491465Y-117967932D01*
X72463510Y-117956174D01*
X72452872Y-117959832D01*
X72451185Y-117978906D01*
X72450410Y-117988418D01*
X72440407Y-118002485D01*
X72412623Y-118008962D01*
X72359277Y-118010526D01*
X72267369Y-118010526D01*
X72267369Y-117609328D01*
X72451185Y-117609328D01*
X72452502Y-117678832D01*
X72457848Y-117725106D01*
X72469262Y-117756807D01*
X72488783Y-117783373D01*
X72540329Y-117822873D01*
X72600650Y-117836115D01*
X72659144Y-117819740D01*
X72708410Y-117774060D01*
X72721432Y-117740634D01*
X72731051Y-117681441D01*
X72735280Y-117609626D01*
X72733948Y-117535967D01*
X72726884Y-117471239D01*
X72713917Y-117426222D01*
X72709774Y-117418840D01*
X72669840Y-117381738D01*
X72615722Y-117365301D01*
X72557600Y-117369124D01*
X72505653Y-117392802D01*
X72470063Y-117435929D01*
X72468592Y-117439556D01*
X72459767Y-117480026D01*
X72453542Y-117540499D01*
X72451185Y-117609328D01*
X72267369Y-117609328D01*
X72267369Y-116874210D01*
X72451185Y-116874210D01*
X72451185Y-117263732D01*
X72485232Y-117232920D01*
X72518014Y-117213769D01*
X72580059Y-117197760D01*
X72652589Y-117192602D01*
X72723419Y-117198935D01*
X72780368Y-117217400D01*
X72821128Y-117243666D01*
X72863113Y-117288412D01*
X72891370Y-117348588D01*
X72908355Y-117429988D01*
X72916528Y-117538405D01*
X72917729Y-117582230D01*
X72917816Y-117609626D01*
X72917986Y-117663659D01*
G37*
X68836367Y-116285627D02*
X68834216Y-116413529D01*
X68833936Y-116416044D01*
X68809909Y-116533405D01*
X68766499Y-116624652D01*
X68702353Y-116691791D01*
X68616119Y-116736824D01*
X68600289Y-116741974D01*
X68502173Y-116757151D01*
X68400698Y-116748688D01*
X68306359Y-116718445D01*
X68229649Y-116668285D01*
X68172190Y-116615197D01*
X68233266Y-116566904D01*
X68294341Y-116518611D01*
X68367947Y-116554371D01*
X68453115Y-116583347D01*
X68528301Y-116584215D01*
X68589816Y-116557592D01*
X68634083Y-116504155D01*
X68649952Y-116472136D01*
X68658811Y-116444771D01*
X68653685Y-116426285D01*
X68630687Y-116414938D01*
X68585931Y-116408987D01*
X68515529Y-116406693D01*
X68415593Y-116406316D01*
X68173290Y-116406316D01*
X68173290Y-116290430D01*
X68175100Y-116239555D01*
X68345706Y-116239555D01*
X68353900Y-116248912D01*
X68378160Y-116253783D01*
X68424272Y-116255630D01*
X68498019Y-116255921D01*
X68537566Y-116255457D01*
X68599971Y-116252388D01*
X68642303Y-116247013D01*
X68657895Y-116239997D01*
X68653906Y-116214108D01*
X68625788Y-116164570D01*
X68578932Y-116123875D01*
X68523074Y-116099295D01*
X68467951Y-116098105D01*
X68426458Y-116117815D01*
X68379440Y-116162668D01*
X68349545Y-116218322D01*
X68347794Y-116224245D01*
X68345706Y-116239555D01*
X68175100Y-116239555D01*
X68175471Y-116229138D01*
X68181876Y-116168496D01*
X68191025Y-116127502D01*
X68197695Y-116111852D01*
X68246243Y-116042149D01*
X68316391Y-115984013D01*
X68398426Y-115945949D01*
X68441216Y-115935554D01*
X68543170Y-115930822D01*
X68634015Y-115954893D01*
X68711253Y-116005088D01*
X68772389Y-116078727D01*
X68814926Y-116173133D01*
X68827671Y-116239997D01*
X68836367Y-116285627D01*
G36*
X68836367Y-116285627D02*
G01*
X68834216Y-116413529D01*
X68833936Y-116416044D01*
X68809909Y-116533405D01*
X68766499Y-116624652D01*
X68702353Y-116691791D01*
X68616119Y-116736824D01*
X68600289Y-116741974D01*
X68502173Y-116757151D01*
X68400698Y-116748688D01*
X68306359Y-116718445D01*
X68229649Y-116668285D01*
X68172190Y-116615197D01*
X68233266Y-116566904D01*
X68294341Y-116518611D01*
X68367947Y-116554371D01*
X68453115Y-116583347D01*
X68528301Y-116584215D01*
X68589816Y-116557592D01*
X68634083Y-116504155D01*
X68649952Y-116472136D01*
X68658811Y-116444771D01*
X68653685Y-116426285D01*
X68630687Y-116414938D01*
X68585931Y-116408987D01*
X68515529Y-116406693D01*
X68415593Y-116406316D01*
X68173290Y-116406316D01*
X68173290Y-116290430D01*
X68175100Y-116239555D01*
X68345706Y-116239555D01*
X68353900Y-116248912D01*
X68378160Y-116253783D01*
X68424272Y-116255630D01*
X68498019Y-116255921D01*
X68537566Y-116255457D01*
X68599971Y-116252388D01*
X68642303Y-116247013D01*
X68657895Y-116239997D01*
X68653906Y-116214108D01*
X68625788Y-116164570D01*
X68578932Y-116123875D01*
X68523074Y-116099295D01*
X68467951Y-116098105D01*
X68426458Y-116117815D01*
X68379440Y-116162668D01*
X68349545Y-116218322D01*
X68347794Y-116224245D01*
X68345706Y-116239555D01*
X68175100Y-116239555D01*
X68175471Y-116229138D01*
X68181876Y-116168496D01*
X68191025Y-116127502D01*
X68197695Y-116111852D01*
X68246243Y-116042149D01*
X68316391Y-115984013D01*
X68398426Y-115945949D01*
X68441216Y-115935554D01*
X68543170Y-115930822D01*
X68634015Y-115954893D01*
X68711253Y-116005088D01*
X68772389Y-116078727D01*
X68814926Y-116173133D01*
X68827671Y-116239997D01*
X68836367Y-116285627D01*
G37*
X72131399Y-115937879D02*
X72227909Y-115962068D01*
X72298411Y-116006902D01*
X72343307Y-116072681D01*
X72362999Y-116159707D01*
X72359012Y-116243023D01*
X72330235Y-116313297D01*
X72275048Y-116365254D01*
X72192348Y-116399910D01*
X72081026Y-116418279D01*
X72008692Y-116427906D01*
X71942670Y-116448737D01*
X71908583Y-116478904D01*
X71906526Y-116518352D01*
X71920243Y-116542949D01*
X71962726Y-116572101D01*
X72023117Y-116585889D01*
X72093889Y-116584004D01*
X72167512Y-116566133D01*
X72236457Y-116531967D01*
X72305197Y-116486477D01*
X72426119Y-116608835D01*
X72375987Y-116649755D01*
X72356494Y-116663973D01*
X72301650Y-116696275D01*
X72242303Y-116724109D01*
X72195335Y-116740083D01*
X72126562Y-116751654D01*
X72041777Y-116751807D01*
X71937806Y-116739067D01*
X71844145Y-116706777D01*
X71777849Y-116655486D01*
X71738760Y-116585065D01*
X71726722Y-116495387D01*
X71735436Y-116416497D01*
X71763408Y-116351907D01*
X71813768Y-116305651D01*
X71889703Y-116274888D01*
X71994400Y-116256778D01*
X72006425Y-116255467D01*
X72071611Y-116247106D01*
X72124490Y-116238357D01*
X72154573Y-116230913D01*
X72164612Y-116224920D01*
X72181584Y-116194013D01*
X72178828Y-116154450D01*
X72156146Y-116120105D01*
X72144236Y-116112615D01*
X72094606Y-116100613D01*
X72030500Y-116101420D01*
X71963653Y-116114192D01*
X71905799Y-116138086D01*
X71845008Y-116173954D01*
X71797854Y-116118852D01*
X71786412Y-116104853D01*
X71760634Y-116067353D01*
X71750022Y-116041937D01*
X71761166Y-116026353D01*
X71795644Y-116002026D01*
X71845428Y-115975848D01*
X71852443Y-115972648D01*
X71918092Y-115947548D01*
X71981372Y-115935547D01*
X72059900Y-115933137D01*
X72131399Y-115937879D01*
G36*
X72131399Y-115937879D02*
G01*
X72227909Y-115962068D01*
X72298411Y-116006902D01*
X72343307Y-116072681D01*
X72362999Y-116159707D01*
X72359012Y-116243023D01*
X72330235Y-116313297D01*
X72275048Y-116365254D01*
X72192348Y-116399910D01*
X72081026Y-116418279D01*
X72008692Y-116427906D01*
X71942670Y-116448737D01*
X71908583Y-116478904D01*
X71906526Y-116518352D01*
X71920243Y-116542949D01*
X71962726Y-116572101D01*
X72023117Y-116585889D01*
X72093889Y-116584004D01*
X72167512Y-116566133D01*
X72236457Y-116531967D01*
X72305197Y-116486477D01*
X72426119Y-116608835D01*
X72375987Y-116649755D01*
X72356494Y-116663973D01*
X72301650Y-116696275D01*
X72242303Y-116724109D01*
X72195335Y-116740083D01*
X72126562Y-116751654D01*
X72041777Y-116751807D01*
X71937806Y-116739067D01*
X71844145Y-116706777D01*
X71777849Y-116655486D01*
X71738760Y-116585065D01*
X71726722Y-116495387D01*
X71735436Y-116416497D01*
X71763408Y-116351907D01*
X71813768Y-116305651D01*
X71889703Y-116274888D01*
X71994400Y-116256778D01*
X72006425Y-116255467D01*
X72071611Y-116247106D01*
X72124490Y-116238357D01*
X72154573Y-116230913D01*
X72164612Y-116224920D01*
X72181584Y-116194013D01*
X72178828Y-116154450D01*
X72156146Y-116120105D01*
X72144236Y-116112615D01*
X72094606Y-116100613D01*
X72030500Y-116101420D01*
X71963653Y-116114192D01*
X71905799Y-116138086D01*
X71845008Y-116173954D01*
X71797854Y-116118852D01*
X71786412Y-116104853D01*
X71760634Y-116067353D01*
X71750022Y-116041937D01*
X71761166Y-116026353D01*
X71795644Y-116002026D01*
X71845428Y-115975848D01*
X71852443Y-115972648D01*
X71918092Y-115947548D01*
X71981372Y-115935547D01*
X72059900Y-115933137D01*
X72131399Y-115937879D01*
G37*
X69693418Y-117601118D02*
X69691245Y-117663498D01*
X69671455Y-117782794D01*
X69630734Y-117876598D01*
X69568724Y-117945581D01*
X69485066Y-117990412D01*
X69458037Y-117998332D01*
X69361524Y-118009395D01*
X69259615Y-118000059D01*
X69167566Y-117971246D01*
X69135138Y-117954892D01*
X69088643Y-117926878D01*
X69060465Y-117903827D01*
X69056305Y-117898560D01*
X69048522Y-117879299D01*
X69059736Y-117858361D01*
X69093886Y-117826650D01*
X69110367Y-117812845D01*
X69142832Y-117787583D01*
X69159855Y-117777258D01*
X69164732Y-117778321D01*
X69192681Y-117789819D01*
X69234408Y-117810000D01*
X69248013Y-117816638D01*
X69328271Y-117841289D01*
X69397997Y-117834935D01*
X69459140Y-117797467D01*
X69466255Y-117790544D01*
X69500268Y-117747178D01*
X69519702Y-117705559D01*
X69530466Y-117659605D01*
X69025527Y-117659605D01*
X69025620Y-117571875D01*
X69025673Y-117563150D01*
X69032490Y-117492763D01*
X69209343Y-117492763D01*
X69211431Y-117507361D01*
X69222152Y-117517422D01*
X69247707Y-117523006D01*
X69294289Y-117525408D01*
X69368093Y-117525921D01*
X69409124Y-117525389D01*
X69469688Y-117522280D01*
X69511345Y-117517012D01*
X69526843Y-117510298D01*
X69513626Y-117455033D01*
X69474930Y-117403452D01*
X69419121Y-117367666D01*
X69354651Y-117355288D01*
X69307185Y-117369242D01*
X69259738Y-117403353D01*
X69223669Y-117447796D01*
X69209343Y-117492763D01*
X69032490Y-117492763D01*
X69036127Y-117455216D01*
X69066555Y-117367413D01*
X69119649Y-117291723D01*
X69152038Y-117259705D01*
X69218932Y-117216845D01*
X69298807Y-117196078D01*
X69399700Y-117194618D01*
X69448435Y-117200343D01*
X69538396Y-117230071D01*
X69607271Y-117284178D01*
X69655664Y-117363498D01*
X69684179Y-117468866D01*
X69687074Y-117510298D01*
X69693418Y-117601118D01*
G36*
X69693418Y-117601118D02*
G01*
X69691245Y-117663498D01*
X69671455Y-117782794D01*
X69630734Y-117876598D01*
X69568724Y-117945581D01*
X69485066Y-117990412D01*
X69458037Y-117998332D01*
X69361524Y-118009395D01*
X69259615Y-118000059D01*
X69167566Y-117971246D01*
X69135138Y-117954892D01*
X69088643Y-117926878D01*
X69060465Y-117903827D01*
X69056305Y-117898560D01*
X69048522Y-117879299D01*
X69059736Y-117858361D01*
X69093886Y-117826650D01*
X69110367Y-117812845D01*
X69142832Y-117787583D01*
X69159855Y-117777258D01*
X69164732Y-117778321D01*
X69192681Y-117789819D01*
X69234408Y-117810000D01*
X69248013Y-117816638D01*
X69328271Y-117841289D01*
X69397997Y-117834935D01*
X69459140Y-117797467D01*
X69466255Y-117790544D01*
X69500268Y-117747178D01*
X69519702Y-117705559D01*
X69530466Y-117659605D01*
X69025527Y-117659605D01*
X69025620Y-117571875D01*
X69025673Y-117563150D01*
X69032490Y-117492763D01*
X69209343Y-117492763D01*
X69211431Y-117507361D01*
X69222152Y-117517422D01*
X69247707Y-117523006D01*
X69294289Y-117525408D01*
X69368093Y-117525921D01*
X69409124Y-117525389D01*
X69469688Y-117522280D01*
X69511345Y-117517012D01*
X69526843Y-117510298D01*
X69513626Y-117455033D01*
X69474930Y-117403452D01*
X69419121Y-117367666D01*
X69354651Y-117355288D01*
X69307185Y-117369242D01*
X69259738Y-117403353D01*
X69223669Y-117447796D01*
X69209343Y-117492763D01*
X69032490Y-117492763D01*
X69036127Y-117455216D01*
X69066555Y-117367413D01*
X69119649Y-117291723D01*
X69152038Y-117259705D01*
X69218932Y-117216845D01*
X69298807Y-117196078D01*
X69399700Y-117194618D01*
X69448435Y-117200343D01*
X69538396Y-117230071D01*
X69607271Y-117284178D01*
X69655664Y-117363498D01*
X69684179Y-117468866D01*
X69687074Y-117510298D01*
X69693418Y-117601118D01*
G37*
X74268543Y-116239091D02*
X74274389Y-116356138D01*
X74272928Y-116407216D01*
X74256454Y-116518843D01*
X74220151Y-116606856D01*
X74162120Y-116674884D01*
X74080461Y-116726551D01*
X74001246Y-116750670D01*
X73901871Y-116755285D01*
X73801607Y-116737537D01*
X73712172Y-116698327D01*
X73679030Y-116676515D01*
X73642515Y-116648556D01*
X73625853Y-116630158D01*
X73626798Y-116622567D01*
X73645448Y-116596703D01*
X73680498Y-116565367D01*
X73741241Y-116519036D01*
X73812418Y-116554584D01*
X73831665Y-116563383D01*
X73888323Y-116582506D01*
X73935811Y-116590131D01*
X73970828Y-116583848D01*
X74025778Y-116553591D01*
X74071967Y-116506620D01*
X74098387Y-116452270D01*
X74109150Y-116406316D01*
X73604211Y-116406316D01*
X73604304Y-116318585D01*
X73605069Y-116290781D01*
X73610649Y-116231119D01*
X73788027Y-116231119D01*
X73788352Y-116234537D01*
X73797540Y-116245181D01*
X73823504Y-116251720D01*
X73871779Y-116255014D01*
X73947903Y-116255921D01*
X73972923Y-116255910D01*
X74037902Y-116255310D01*
X74076964Y-116252715D01*
X74095903Y-116246662D01*
X74100511Y-116235686D01*
X74096581Y-116218322D01*
X74095981Y-116216353D01*
X74062127Y-116155930D01*
X74008757Y-116114329D01*
X73945115Y-116098842D01*
X73921591Y-116100080D01*
X73877928Y-116114896D01*
X73836041Y-116152579D01*
X73824758Y-116165903D01*
X73798513Y-116203956D01*
X73788027Y-116231119D01*
X73610649Y-116231119D01*
X73611366Y-116223449D01*
X73621926Y-116167734D01*
X73633501Y-116136543D01*
X73674195Y-116068700D01*
X73728695Y-116007086D01*
X73786330Y-115964866D01*
X73802982Y-115957027D01*
X73899945Y-115931021D01*
X73998960Y-115933762D01*
X74092052Y-115964092D01*
X74171244Y-116020848D01*
X74214078Y-116073190D01*
X74249101Y-116146928D01*
X74267825Y-116235686D01*
X74268543Y-116239091D01*
G36*
X74268543Y-116239091D02*
G01*
X74274389Y-116356138D01*
X74272928Y-116407216D01*
X74256454Y-116518843D01*
X74220151Y-116606856D01*
X74162120Y-116674884D01*
X74080461Y-116726551D01*
X74001246Y-116750670D01*
X73901871Y-116755285D01*
X73801607Y-116737537D01*
X73712172Y-116698327D01*
X73679030Y-116676515D01*
X73642515Y-116648556D01*
X73625853Y-116630158D01*
X73626798Y-116622567D01*
X73645448Y-116596703D01*
X73680498Y-116565367D01*
X73741241Y-116519036D01*
X73812418Y-116554584D01*
X73831665Y-116563383D01*
X73888323Y-116582506D01*
X73935811Y-116590131D01*
X73970828Y-116583848D01*
X74025778Y-116553591D01*
X74071967Y-116506620D01*
X74098387Y-116452270D01*
X74109150Y-116406316D01*
X73604211Y-116406316D01*
X73604304Y-116318585D01*
X73605069Y-116290781D01*
X73610649Y-116231119D01*
X73788027Y-116231119D01*
X73788352Y-116234537D01*
X73797540Y-116245181D01*
X73823504Y-116251720D01*
X73871779Y-116255014D01*
X73947903Y-116255921D01*
X73972923Y-116255910D01*
X74037902Y-116255310D01*
X74076964Y-116252715D01*
X74095903Y-116246662D01*
X74100511Y-116235686D01*
X74096581Y-116218322D01*
X74095981Y-116216353D01*
X74062127Y-116155930D01*
X74008757Y-116114329D01*
X73945115Y-116098842D01*
X73921591Y-116100080D01*
X73877928Y-116114896D01*
X73836041Y-116152579D01*
X73824758Y-116165903D01*
X73798513Y-116203956D01*
X73788027Y-116231119D01*
X73610649Y-116231119D01*
X73611366Y-116223449D01*
X73621926Y-116167734D01*
X73633501Y-116136543D01*
X73674195Y-116068700D01*
X73728695Y-116007086D01*
X73786330Y-115964866D01*
X73802982Y-115957027D01*
X73899945Y-115931021D01*
X73998960Y-115933762D01*
X74092052Y-115964092D01*
X74171244Y-116020848D01*
X74214078Y-116073190D01*
X74249101Y-116146928D01*
X74267825Y-116235686D01*
X74268543Y-116239091D01*
G37*
X71055668Y-117790600D02*
X71035509Y-117866464D01*
X70991698Y-117931365D01*
X70925241Y-117978051D01*
X70918719Y-117980889D01*
X70846005Y-118001330D01*
X70764071Y-118009299D01*
X70686172Y-118004427D01*
X70625560Y-117986348D01*
X70601348Y-117974554D01*
X70583580Y-117971741D01*
X70579606Y-117986451D01*
X70572078Y-118000055D01*
X70542953Y-118008156D01*
X70486420Y-118010526D01*
X70393235Y-118010526D01*
X70398690Y-117688849D01*
X70399273Y-117659605D01*
X70579606Y-117659605D01*
X70579606Y-117718092D01*
X70585900Y-117761806D01*
X70613027Y-117810000D01*
X70623040Y-117818858D01*
X70664081Y-117837494D01*
X70725823Y-117842290D01*
X70762871Y-117840417D01*
X70832195Y-117826309D01*
X70875163Y-117800024D01*
X70889655Y-117763344D01*
X70873551Y-117718052D01*
X70864154Y-117706200D01*
X70822187Y-117679613D01*
X70755766Y-117664432D01*
X70661070Y-117659605D01*
X70579606Y-117659605D01*
X70399273Y-117659605D01*
X70400172Y-117614462D01*
X70404076Y-117503099D01*
X70410657Y-117417946D01*
X70421214Y-117354360D01*
X70437048Y-117307699D01*
X70459459Y-117273321D01*
X70489747Y-117246583D01*
X70529213Y-117222844D01*
X70549573Y-117213780D01*
X70620008Y-117196673D01*
X70704959Y-117189600D01*
X70792788Y-117192432D01*
X70871857Y-117205041D01*
X70930527Y-117227297D01*
X70950935Y-117240219D01*
X70997921Y-117278519D01*
X71013824Y-117310589D01*
X71009962Y-117316786D01*
X70985894Y-117338432D01*
X70947039Y-117367308D01*
X70927174Y-117380824D01*
X70893346Y-117399974D01*
X70871363Y-117401803D01*
X70850953Y-117388585D01*
X70800086Y-117361816D01*
X70731640Y-117350808D01*
X70661694Y-117359236D01*
X70660370Y-117359618D01*
X70611036Y-117381052D01*
X70586616Y-117414603D01*
X70579862Y-117470091D01*
X70579606Y-117522879D01*
X70754010Y-117528577D01*
X70781796Y-117529515D01*
X70851848Y-117532775D01*
X70898809Y-117537897D01*
X70930552Y-117546798D01*
X70954948Y-117561397D01*
X70979869Y-117583612D01*
X71021015Y-117634995D01*
X71051171Y-117711026D01*
X71054128Y-117763344D01*
X71055668Y-117790600D01*
G36*
X71055668Y-117790600D02*
G01*
X71035509Y-117866464D01*
X70991698Y-117931365D01*
X70925241Y-117978051D01*
X70918719Y-117980889D01*
X70846005Y-118001330D01*
X70764071Y-118009299D01*
X70686172Y-118004427D01*
X70625560Y-117986348D01*
X70601348Y-117974554D01*
X70583580Y-117971741D01*
X70579606Y-117986451D01*
X70572078Y-118000055D01*
X70542953Y-118008156D01*
X70486420Y-118010526D01*
X70393235Y-118010526D01*
X70398690Y-117688849D01*
X70399273Y-117659605D01*
X70579606Y-117659605D01*
X70579606Y-117718092D01*
X70585900Y-117761806D01*
X70613027Y-117810000D01*
X70623040Y-117818858D01*
X70664081Y-117837494D01*
X70725823Y-117842290D01*
X70762871Y-117840417D01*
X70832195Y-117826309D01*
X70875163Y-117800024D01*
X70889655Y-117763344D01*
X70873551Y-117718052D01*
X70864154Y-117706200D01*
X70822187Y-117679613D01*
X70755766Y-117664432D01*
X70661070Y-117659605D01*
X70579606Y-117659605D01*
X70399273Y-117659605D01*
X70400172Y-117614462D01*
X70404076Y-117503099D01*
X70410657Y-117417946D01*
X70421214Y-117354360D01*
X70437048Y-117307699D01*
X70459459Y-117273321D01*
X70489747Y-117246583D01*
X70529213Y-117222844D01*
X70549573Y-117213780D01*
X70620008Y-117196673D01*
X70704959Y-117189600D01*
X70792788Y-117192432D01*
X70871857Y-117205041D01*
X70930527Y-117227297D01*
X70950935Y-117240219D01*
X70997921Y-117278519D01*
X71013824Y-117310589D01*
X71009962Y-117316786D01*
X70985894Y-117338432D01*
X70947039Y-117367308D01*
X70927174Y-117380824D01*
X70893346Y-117399974D01*
X70871363Y-117401803D01*
X70850953Y-117388585D01*
X70800086Y-117361816D01*
X70731640Y-117350808D01*
X70661694Y-117359236D01*
X70660370Y-117359618D01*
X70611036Y-117381052D01*
X70586616Y-117414603D01*
X70579862Y-117470091D01*
X70579606Y-117522879D01*
X70754010Y-117528577D01*
X70781796Y-117529515D01*
X70851848Y-117532775D01*
X70898809Y-117537897D01*
X70930552Y-117546798D01*
X70954948Y-117561397D01*
X70979869Y-117583612D01*
X71021015Y-117634995D01*
X71051171Y-117711026D01*
X71054128Y-117763344D01*
X71055668Y-117790600D01*
G37*
X74268912Y-117787796D02*
X74268722Y-117790000D01*
X74248360Y-117875846D01*
X74203067Y-117940412D01*
X74130593Y-117986937D01*
X74093140Y-117998256D01*
X74028990Y-118007078D01*
X73958840Y-118009185D01*
X73895548Y-118004330D01*
X73851976Y-117992268D01*
X73825512Y-117982606D01*
X73799601Y-117992268D01*
X73790123Y-117997866D01*
X73752294Y-118006943D01*
X73701132Y-118010526D01*
X73620922Y-118010526D01*
X73620922Y-117687142D01*
X73620928Y-117659605D01*
X73804737Y-117659605D01*
X73804737Y-117723857D01*
X73810915Y-117772753D01*
X73835297Y-117815765D01*
X73849249Y-117825074D01*
X73899051Y-117839583D01*
X73961225Y-117843205D01*
X74022196Y-117835845D01*
X74068388Y-117817408D01*
X74091399Y-117793030D01*
X74105527Y-117749713D01*
X74092998Y-117715376D01*
X74051582Y-117685520D01*
X73985005Y-117666366D01*
X73897182Y-117659605D01*
X73804737Y-117659605D01*
X73620928Y-117659605D01*
X73620928Y-117659176D01*
X73621232Y-117553767D01*
X73622376Y-117475401D01*
X73624877Y-117418871D01*
X73629256Y-117378970D01*
X73636032Y-117350492D01*
X73645725Y-117328230D01*
X73658853Y-117306978D01*
X73701084Y-117257180D01*
X73760930Y-117219160D01*
X73839543Y-117198184D01*
X73943136Y-117191736D01*
X73946503Y-117191743D01*
X74018513Y-117194995D01*
X74082966Y-117203103D01*
X74126952Y-117214470D01*
X74139010Y-117220166D01*
X74177391Y-117244289D01*
X74212124Y-117272960D01*
X74234977Y-117298760D01*
X74237716Y-117314273D01*
X74232370Y-117318465D01*
X74174127Y-117363218D01*
X74135181Y-117389613D01*
X74109431Y-117400262D01*
X74090772Y-117397780D01*
X74073101Y-117384782D01*
X74040490Y-117368556D01*
X73985533Y-117357737D01*
X73923420Y-117354931D01*
X73867217Y-117360642D01*
X73829984Y-117375376D01*
X73828025Y-117377169D01*
X73811294Y-117410850D01*
X73804737Y-117461125D01*
X73804737Y-117525921D01*
X73959310Y-117525983D01*
X74030314Y-117527107D01*
X74090082Y-117531996D01*
X74132837Y-117542055D01*
X74167380Y-117558665D01*
X74175419Y-117563767D01*
X74233576Y-117619847D01*
X74264510Y-117694004D01*
X74267125Y-117749713D01*
X74268912Y-117787796D01*
G36*
X74268912Y-117787796D02*
G01*
X74268722Y-117790000D01*
X74248360Y-117875846D01*
X74203067Y-117940412D01*
X74130593Y-117986937D01*
X74093140Y-117998256D01*
X74028990Y-118007078D01*
X73958840Y-118009185D01*
X73895548Y-118004330D01*
X73851976Y-117992268D01*
X73825512Y-117982606D01*
X73799601Y-117992268D01*
X73790123Y-117997866D01*
X73752294Y-118006943D01*
X73701132Y-118010526D01*
X73620922Y-118010526D01*
X73620922Y-117687142D01*
X73620928Y-117659605D01*
X73804737Y-117659605D01*
X73804737Y-117723857D01*
X73810915Y-117772753D01*
X73835297Y-117815765D01*
X73849249Y-117825074D01*
X73899051Y-117839583D01*
X73961225Y-117843205D01*
X74022196Y-117835845D01*
X74068388Y-117817408D01*
X74091399Y-117793030D01*
X74105527Y-117749713D01*
X74092998Y-117715376D01*
X74051582Y-117685520D01*
X73985005Y-117666366D01*
X73897182Y-117659605D01*
X73804737Y-117659605D01*
X73620928Y-117659605D01*
X73620928Y-117659176D01*
X73621232Y-117553767D01*
X73622376Y-117475401D01*
X73624877Y-117418871D01*
X73629256Y-117378970D01*
X73636032Y-117350492D01*
X73645725Y-117328230D01*
X73658853Y-117306978D01*
X73701084Y-117257180D01*
X73760930Y-117219160D01*
X73839543Y-117198184D01*
X73943136Y-117191736D01*
X73946503Y-117191743D01*
X74018513Y-117194995D01*
X74082966Y-117203103D01*
X74126952Y-117214470D01*
X74139010Y-117220166D01*
X74177391Y-117244289D01*
X74212124Y-117272960D01*
X74234977Y-117298760D01*
X74237716Y-117314273D01*
X74232370Y-117318465D01*
X74174127Y-117363218D01*
X74135181Y-117389613D01*
X74109431Y-117400262D01*
X74090772Y-117397780D01*
X74073101Y-117384782D01*
X74040490Y-117368556D01*
X73985533Y-117357737D01*
X73923420Y-117354931D01*
X73867217Y-117360642D01*
X73829984Y-117375376D01*
X73828025Y-117377169D01*
X73811294Y-117410850D01*
X73804737Y-117461125D01*
X73804737Y-117525921D01*
X73959310Y-117525983D01*
X74030314Y-117527107D01*
X74090082Y-117531996D01*
X74132837Y-117542055D01*
X74167380Y-117558665D01*
X74175419Y-117563767D01*
X74233576Y-117619847D01*
X74264510Y-117694004D01*
X74267125Y-117749713D01*
X74268912Y-117787796D01*
G37*
X75024606Y-118012273D02*
X74936875Y-118007222D01*
X74849145Y-118002171D01*
X74844974Y-117734802D01*
X74843740Y-117669788D01*
X74840237Y-117572111D01*
X74834224Y-117500434D01*
X74824597Y-117449940D01*
X74810249Y-117415810D01*
X74790075Y-117393227D01*
X74762970Y-117377372D01*
X74712112Y-117361180D01*
X74661534Y-117367472D01*
X74608125Y-117402077D01*
X74556711Y-117445339D01*
X74556711Y-118010526D01*
X74372895Y-118010526D01*
X74372895Y-117704010D01*
X74373072Y-117607935D01*
X74374049Y-117522562D01*
X74376399Y-117460071D01*
X74380691Y-117414794D01*
X74387495Y-117381068D01*
X74397378Y-117353227D01*
X74410910Y-117325605D01*
X74414119Y-117319741D01*
X74456792Y-117262627D01*
X74506735Y-117222714D01*
X74566948Y-117201756D01*
X74646680Y-117192427D01*
X74726527Y-117197480D01*
X74791488Y-117217205D01*
X74840790Y-117242700D01*
X74840790Y-116690931D01*
X74773237Y-116726142D01*
X74745019Y-116738934D01*
X74655950Y-116757023D01*
X74567434Y-116744521D01*
X74485381Y-116702952D01*
X74415704Y-116633843D01*
X74404789Y-116617600D01*
X74394298Y-116593790D01*
X74387455Y-116561418D01*
X74383504Y-116514271D01*
X74381688Y-116446135D01*
X74381362Y-116375142D01*
X74557891Y-116375142D01*
X74558040Y-116434431D01*
X74562573Y-116473969D01*
X74572760Y-116502189D01*
X74589872Y-116527519D01*
X74611610Y-116551069D01*
X74646372Y-116568892D01*
X74698750Y-116573421D01*
X74745020Y-116569480D01*
X74790817Y-116549759D01*
X74820312Y-116509809D01*
X74836104Y-116445600D01*
X74840790Y-116353101D01*
X74839578Y-116303894D01*
X74827481Y-116211006D01*
X74802523Y-116148196D01*
X74764844Y-116115906D01*
X74726789Y-116106822D01*
X74660513Y-116111081D01*
X74604516Y-116137452D01*
X74591114Y-116149545D01*
X74576913Y-116170467D01*
X74568133Y-116201611D01*
X74562919Y-116250710D01*
X74559416Y-116325498D01*
X74557891Y-116375142D01*
X74381362Y-116375142D01*
X74381250Y-116350797D01*
X74381400Y-116307296D01*
X74383962Y-116206111D01*
X74391097Y-116130522D01*
X74404606Y-116074817D01*
X74426294Y-116033283D01*
X74457960Y-116000206D01*
X74501408Y-115969874D01*
X74536640Y-115952468D01*
X74620173Y-115933271D01*
X74708222Y-115935887D01*
X74786481Y-115960772D01*
X74820067Y-115977039D01*
X74836960Y-115978720D01*
X74840790Y-115963916D01*
X74840794Y-115963468D01*
X74849048Y-115948351D01*
X74877517Y-115940603D01*
X74932698Y-115938421D01*
X75024606Y-115938421D01*
X75024606Y-116353101D01*
X75024606Y-118012273D01*
G36*
X75024606Y-118012273D02*
G01*
X74936875Y-118007222D01*
X74849145Y-118002171D01*
X74844974Y-117734802D01*
X74843740Y-117669788D01*
X74840237Y-117572111D01*
X74834224Y-117500434D01*
X74824597Y-117449940D01*
X74810249Y-117415810D01*
X74790075Y-117393227D01*
X74762970Y-117377372D01*
X74712112Y-117361180D01*
X74661534Y-117367472D01*
X74608125Y-117402077D01*
X74556711Y-117445339D01*
X74556711Y-118010526D01*
X74372895Y-118010526D01*
X74372895Y-117704010D01*
X74373072Y-117607935D01*
X74374049Y-117522562D01*
X74376399Y-117460071D01*
X74380691Y-117414794D01*
X74387495Y-117381068D01*
X74397378Y-117353227D01*
X74410910Y-117325605D01*
X74414119Y-117319741D01*
X74456792Y-117262627D01*
X74506735Y-117222714D01*
X74566948Y-117201756D01*
X74646680Y-117192427D01*
X74726527Y-117197480D01*
X74791488Y-117217205D01*
X74840790Y-117242700D01*
X74840790Y-116690931D01*
X74773237Y-116726142D01*
X74745019Y-116738934D01*
X74655950Y-116757023D01*
X74567434Y-116744521D01*
X74485381Y-116702952D01*
X74415704Y-116633843D01*
X74404789Y-116617600D01*
X74394298Y-116593790D01*
X74387455Y-116561418D01*
X74383504Y-116514271D01*
X74381688Y-116446135D01*
X74381362Y-116375142D01*
X74557891Y-116375142D01*
X74558040Y-116434431D01*
X74562573Y-116473969D01*
X74572760Y-116502189D01*
X74589872Y-116527519D01*
X74611610Y-116551069D01*
X74646372Y-116568892D01*
X74698750Y-116573421D01*
X74745020Y-116569480D01*
X74790817Y-116549759D01*
X74820312Y-116509809D01*
X74836104Y-116445600D01*
X74840790Y-116353101D01*
X74839578Y-116303894D01*
X74827481Y-116211006D01*
X74802523Y-116148196D01*
X74764844Y-116115906D01*
X74726789Y-116106822D01*
X74660513Y-116111081D01*
X74604516Y-116137452D01*
X74591114Y-116149545D01*
X74576913Y-116170467D01*
X74568133Y-116201611D01*
X74562919Y-116250710D01*
X74559416Y-116325498D01*
X74557891Y-116375142D01*
X74381362Y-116375142D01*
X74381250Y-116350797D01*
X74381400Y-116307296D01*
X74383962Y-116206111D01*
X74391097Y-116130522D01*
X74404606Y-116074817D01*
X74426294Y-116033283D01*
X74457960Y-116000206D01*
X74501408Y-115969874D01*
X74536640Y-115952468D01*
X74620173Y-115933271D01*
X74708222Y-115935887D01*
X74786481Y-115960772D01*
X74820067Y-115977039D01*
X74836960Y-115978720D01*
X74840790Y-115963916D01*
X74840794Y-115963468D01*
X74849048Y-115948351D01*
X74877517Y-115940603D01*
X74932698Y-115938421D01*
X75024606Y-115938421D01*
X75024606Y-116353101D01*
X75024606Y-118012273D01*
G37*
X72484254Y-110398576D02*
X72559803Y-110799322D01*
X72838567Y-110914238D01*
X73117332Y-111029154D01*
X73451756Y-110801748D01*
X73517946Y-110756917D01*
X73605693Y-110698071D01*
X73681663Y-110647810D01*
X73741911Y-110608715D01*
X73782491Y-110583365D01*
X73799457Y-110574342D01*
X73809877Y-110580759D01*
X73841025Y-110607647D01*
X73888161Y-110651774D01*
X73947293Y-110709087D01*
X74014426Y-110775535D01*
X74085566Y-110847065D01*
X74156719Y-110919626D01*
X74223892Y-110989167D01*
X74283090Y-111051635D01*
X74330319Y-111102978D01*
X74361586Y-111139145D01*
X74372895Y-111156083D01*
X74370264Y-111163361D01*
X74352048Y-111195824D01*
X74318782Y-111249249D01*
X74273164Y-111319449D01*
X74217890Y-111402236D01*
X74155658Y-111493421D01*
X74121506Y-111543152D01*
X74062757Y-111629731D01*
X74012388Y-111705291D01*
X73973086Y-111765733D01*
X73947535Y-111806961D01*
X73938422Y-111824876D01*
X73938571Y-111825869D01*
X73946611Y-111848580D01*
X73965054Y-111894955D01*
X73991331Y-111958937D01*
X74022871Y-112034468D01*
X74057102Y-112115489D01*
X74091454Y-112195943D01*
X74123355Y-112269772D01*
X74150235Y-112330918D01*
X74169522Y-112373322D01*
X74178646Y-112390926D01*
X74184045Y-112392488D01*
X74216846Y-112399531D01*
X74275306Y-112411199D01*
X74354746Y-112426580D01*
X74450486Y-112444760D01*
X74557846Y-112464830D01*
X74614431Y-112475471D01*
X74718289Y-112495773D01*
X74809097Y-112514522D01*
X74881891Y-112530642D01*
X74931708Y-112543056D01*
X74953586Y-112550686D01*
X74957516Y-112558250D01*
X74964034Y-112595209D01*
X74969156Y-112656765D01*
X74972884Y-112737127D01*
X74975223Y-112830503D01*
X74976177Y-112931101D01*
X74975749Y-113033128D01*
X74973945Y-113130793D01*
X74970766Y-113218304D01*
X74966219Y-113289869D01*
X74960306Y-113339696D01*
X74953031Y-113361993D01*
X74948617Y-113364508D01*
X74915694Y-113375296D01*
X74858582Y-113389569D01*
X74783882Y-113405764D01*
X74698196Y-113422319D01*
X74669285Y-113427592D01*
X74535755Y-113452113D01*
X74430813Y-113471821D01*
X74350820Y-113487531D01*
X74292139Y-113500062D01*
X74251132Y-113510229D01*
X74224161Y-113518851D01*
X74207588Y-113526745D01*
X74197775Y-113534727D01*
X74196635Y-113536067D01*
X74180588Y-113563997D01*
X74156843Y-113615104D01*
X74127701Y-113683392D01*
X74095463Y-113762866D01*
X74062430Y-113847529D01*
X74030904Y-113931387D01*
X74003186Y-114008444D01*
X73981577Y-114072704D01*
X73968379Y-114118172D01*
X73965893Y-114138852D01*
X73967555Y-114141535D01*
X73984765Y-114167484D01*
X74017130Y-114215345D01*
X74061650Y-114280710D01*
X74115323Y-114359170D01*
X74175149Y-114446315D01*
X74191567Y-114470292D01*
X74249303Y-114556295D01*
X74299200Y-114633211D01*
X74338409Y-114696477D01*
X74364083Y-114741532D01*
X74373374Y-114763815D01*
X74371372Y-114769673D01*
X74350503Y-114798541D01*
X74309331Y-114845680D01*
X74250803Y-114907920D01*
X74177867Y-114982087D01*
X74093473Y-115065008D01*
X74045234Y-115111421D01*
X73968962Y-115183708D01*
X73902205Y-115245624D01*
X73848546Y-115293911D01*
X73811570Y-115325307D01*
X73794863Y-115336554D01*
X73783385Y-115332384D01*
X73748045Y-115312663D01*
X73696723Y-115280410D01*
X73636113Y-115239711D01*
X73593020Y-115210011D01*
X73506987Y-115151030D01*
X73415179Y-115088390D01*
X73331323Y-115031469D01*
X73167053Y-114920359D01*
X73029160Y-114994916D01*
X72996690Y-115012125D01*
X72937642Y-115041560D01*
X72891979Y-115061883D01*
X72867574Y-115069460D01*
X72859588Y-115059730D01*
X72839756Y-115022679D01*
X72810462Y-114961593D01*
X72773338Y-114880349D01*
X72730013Y-114782823D01*
X72682118Y-114672891D01*
X72631281Y-114554432D01*
X72579133Y-114431321D01*
X72527304Y-114307435D01*
X72477424Y-114186650D01*
X72431123Y-114072844D01*
X72390031Y-113969893D01*
X72355778Y-113881673D01*
X72329993Y-113812062D01*
X72314308Y-113764936D01*
X72310351Y-113744172D01*
X72310619Y-113743565D01*
X72329050Y-113724370D01*
X72367602Y-113694306D01*
X72418316Y-113659609D01*
X72434324Y-113649014D01*
X72556125Y-113548498D01*
X72656929Y-113428777D01*
X72734351Y-113294834D01*
X72786004Y-113151653D01*
X72809500Y-113004216D01*
X72802454Y-112857507D01*
X72773910Y-112727020D01*
X72722659Y-112595257D01*
X72647945Y-112477706D01*
X72545414Y-112366042D01*
X72505127Y-112330369D01*
X72374889Y-112242480D01*
X72234197Y-112183288D01*
X72087127Y-112152265D01*
X71937758Y-112148879D01*
X71790167Y-112172602D01*
X71648429Y-112222904D01*
X71516623Y-112299255D01*
X71398826Y-112401125D01*
X71299114Y-112527984D01*
X71279943Y-112559400D01*
X71214783Y-112702992D01*
X71180177Y-112852517D01*
X71175218Y-113004105D01*
X71199001Y-113153882D01*
X71250619Y-113297976D01*
X71329166Y-113432515D01*
X71433736Y-113553625D01*
X71563422Y-113657434D01*
X71567634Y-113660232D01*
X71617810Y-113695590D01*
X71655417Y-113725653D01*
X71672594Y-113744172D01*
X71670426Y-113758690D01*
X71656951Y-113800965D01*
X71633058Y-113866486D01*
X71600375Y-113951377D01*
X71560533Y-114051759D01*
X71515160Y-114163757D01*
X71465887Y-114283491D01*
X71414341Y-114407084D01*
X71362154Y-114530659D01*
X71310953Y-114650339D01*
X71262368Y-114762245D01*
X71218030Y-114862500D01*
X71179566Y-114947227D01*
X71148606Y-115012547D01*
X71126779Y-115054584D01*
X71115716Y-115069460D01*
X71106516Y-115067446D01*
X71070371Y-115052966D01*
X71016951Y-115027578D01*
X70954131Y-114994916D01*
X70816238Y-114920359D01*
X70651968Y-115031469D01*
X70603436Y-115064370D01*
X70513166Y-115125845D01*
X70423171Y-115187418D01*
X70347177Y-115239711D01*
X70305237Y-115268209D01*
X70250726Y-115303616D01*
X70210309Y-115327855D01*
X70190568Y-115336842D01*
X70182087Y-115333026D01*
X70151429Y-115309656D01*
X70104168Y-115268510D01*
X70044416Y-115213635D01*
X69976288Y-115149077D01*
X69903896Y-115078885D01*
X69831356Y-115007106D01*
X69762780Y-114937786D01*
X69702282Y-114874973D01*
X69653976Y-114822714D01*
X69621976Y-114785057D01*
X69610395Y-114766048D01*
X69611063Y-114762431D01*
X69624847Y-114732993D01*
X69654292Y-114682062D01*
X69696553Y-114614238D01*
X69748785Y-114534123D01*
X69808142Y-114446315D01*
X69824789Y-114422096D01*
X69883244Y-114336868D01*
X69934733Y-114261521D01*
X69976256Y-114200463D01*
X70004811Y-114158104D01*
X70017398Y-114138852D01*
X70017707Y-114138027D01*
X70013993Y-114114473D01*
X69999807Y-114066759D01*
X69977451Y-114000879D01*
X69949227Y-113922830D01*
X69917435Y-113838607D01*
X69884378Y-113754205D01*
X69852356Y-113675621D01*
X69823671Y-113608850D01*
X69800623Y-113559886D01*
X69785515Y-113534727D01*
X69784002Y-113533165D01*
X69773185Y-113525263D01*
X69754915Y-113517294D01*
X69725556Y-113508441D01*
X69681470Y-113497887D01*
X69619018Y-113484815D01*
X69534564Y-113468408D01*
X69424469Y-113447848D01*
X69285095Y-113422319D01*
X69256187Y-113416946D01*
X69173377Y-113400337D01*
X69103718Y-113384600D01*
X69053812Y-113371298D01*
X69030259Y-113361993D01*
X69026319Y-113354230D01*
X69019750Y-113316942D01*
X69014544Y-113255125D01*
X69010706Y-113174572D01*
X69008239Y-113081075D01*
X69007147Y-112980426D01*
X69007435Y-112878417D01*
X69009107Y-112780839D01*
X69012165Y-112693485D01*
X69016615Y-112622147D01*
X69022460Y-112572617D01*
X69029704Y-112550686D01*
X69037101Y-112547446D01*
X69073896Y-112537233D01*
X69136091Y-112522789D01*
X69218723Y-112505189D01*
X69316828Y-112485510D01*
X69425444Y-112464830D01*
X69484750Y-112453781D01*
X69586398Y-112434621D01*
X69673890Y-112417844D01*
X69742549Y-112404361D01*
X69787693Y-112395084D01*
X69804644Y-112390926D01*
X69805281Y-112390069D01*
X69816077Y-112368293D01*
X69836657Y-112322671D01*
X69864449Y-112259258D01*
X69896882Y-112184107D01*
X69931382Y-112103270D01*
X69965378Y-112022799D01*
X69996297Y-111948749D01*
X70021566Y-111887172D01*
X70038615Y-111844121D01*
X70044869Y-111825650D01*
X70042110Y-111819150D01*
X70023750Y-111788222D01*
X69990446Y-111736163D01*
X69944874Y-111667059D01*
X69889711Y-111584993D01*
X69827632Y-111494052D01*
X69793573Y-111444248D01*
X69734797Y-111356931D01*
X69684403Y-111280298D01*
X69645080Y-111218531D01*
X69619514Y-111175806D01*
X69610395Y-111156305D01*
X69616732Y-111145727D01*
X69643237Y-111114119D01*
X69686720Y-111066283D01*
X69743189Y-111006273D01*
X69808653Y-110938142D01*
X69879121Y-110865945D01*
X69950601Y-110793733D01*
X70019100Y-110725562D01*
X70080629Y-110665483D01*
X70131194Y-110617551D01*
X70166805Y-110585820D01*
X70183470Y-110574342D01*
X70192720Y-110578805D01*
X70226689Y-110599502D01*
X70281505Y-110634727D01*
X70353218Y-110681896D01*
X70437878Y-110738431D01*
X70531535Y-110801748D01*
X70865959Y-111029154D01*
X71423487Y-110799322D01*
X71499036Y-110398576D01*
X71574585Y-109997829D01*
X72408706Y-109997829D01*
X72484254Y-110398576D01*
G36*
X72484254Y-110398576D02*
G01*
X72559803Y-110799322D01*
X72838567Y-110914238D01*
X73117332Y-111029154D01*
X73451756Y-110801748D01*
X73517946Y-110756917D01*
X73605693Y-110698071D01*
X73681663Y-110647810D01*
X73741911Y-110608715D01*
X73782491Y-110583365D01*
X73799457Y-110574342D01*
X73809877Y-110580759D01*
X73841025Y-110607647D01*
X73888161Y-110651774D01*
X73947293Y-110709087D01*
X74014426Y-110775535D01*
X74085566Y-110847065D01*
X74156719Y-110919626D01*
X74223892Y-110989167D01*
X74283090Y-111051635D01*
X74330319Y-111102978D01*
X74361586Y-111139145D01*
X74372895Y-111156083D01*
X74370264Y-111163361D01*
X74352048Y-111195824D01*
X74318782Y-111249249D01*
X74273164Y-111319449D01*
X74217890Y-111402236D01*
X74155658Y-111493421D01*
X74121506Y-111543152D01*
X74062757Y-111629731D01*
X74012388Y-111705291D01*
X73973086Y-111765733D01*
X73947535Y-111806961D01*
X73938422Y-111824876D01*
X73938571Y-111825869D01*
X73946611Y-111848580D01*
X73965054Y-111894955D01*
X73991331Y-111958937D01*
X74022871Y-112034468D01*
X74057102Y-112115489D01*
X74091454Y-112195943D01*
X74123355Y-112269772D01*
X74150235Y-112330918D01*
X74169522Y-112373322D01*
X74178646Y-112390926D01*
X74184045Y-112392488D01*
X74216846Y-112399531D01*
X74275306Y-112411199D01*
X74354746Y-112426580D01*
X74450486Y-112444760D01*
X74557846Y-112464830D01*
X74614431Y-112475471D01*
X74718289Y-112495773D01*
X74809097Y-112514522D01*
X74881891Y-112530642D01*
X74931708Y-112543056D01*
X74953586Y-112550686D01*
X74957516Y-112558250D01*
X74964034Y-112595209D01*
X74969156Y-112656765D01*
X74972884Y-112737127D01*
X74975223Y-112830503D01*
X74976177Y-112931101D01*
X74975749Y-113033128D01*
X74973945Y-113130793D01*
X74970766Y-113218304D01*
X74966219Y-113289869D01*
X74960306Y-113339696D01*
X74953031Y-113361993D01*
X74948617Y-113364508D01*
X74915694Y-113375296D01*
X74858582Y-113389569D01*
X74783882Y-113405764D01*
X74698196Y-113422319D01*
X74669285Y-113427592D01*
X74535755Y-113452113D01*
X74430813Y-113471821D01*
X74350820Y-113487531D01*
X74292139Y-113500062D01*
X74251132Y-113510229D01*
X74224161Y-113518851D01*
X74207588Y-113526745D01*
X74197775Y-113534727D01*
X74196635Y-113536067D01*
X74180588Y-113563997D01*
X74156843Y-113615104D01*
X74127701Y-113683392D01*
X74095463Y-113762866D01*
X74062430Y-113847529D01*
X74030904Y-113931387D01*
X74003186Y-114008444D01*
X73981577Y-114072704D01*
X73968379Y-114118172D01*
X73965893Y-114138852D01*
X73967555Y-114141535D01*
X73984765Y-114167484D01*
X74017130Y-114215345D01*
X74061650Y-114280710D01*
X74115323Y-114359170D01*
X74175149Y-114446315D01*
X74191567Y-114470292D01*
X74249303Y-114556295D01*
X74299200Y-114633211D01*
X74338409Y-114696477D01*
X74364083Y-114741532D01*
X74373374Y-114763815D01*
X74371372Y-114769673D01*
X74350503Y-114798541D01*
X74309331Y-114845680D01*
X74250803Y-114907920D01*
X74177867Y-114982087D01*
X74093473Y-115065008D01*
X74045234Y-115111421D01*
X73968962Y-115183708D01*
X73902205Y-115245624D01*
X73848546Y-115293911D01*
X73811570Y-115325307D01*
X73794863Y-115336554D01*
X73783385Y-115332384D01*
X73748045Y-115312663D01*
X73696723Y-115280410D01*
X73636113Y-115239711D01*
X73593020Y-115210011D01*
X73506987Y-115151030D01*
X73415179Y-115088390D01*
X73331323Y-115031469D01*
X73167053Y-114920359D01*
X73029160Y-114994916D01*
X72996690Y-115012125D01*
X72937642Y-115041560D01*
X72891979Y-115061883D01*
X72867574Y-115069460D01*
X72859588Y-115059730D01*
X72839756Y-115022679D01*
X72810462Y-114961593D01*
X72773338Y-114880349D01*
X72730013Y-114782823D01*
X72682118Y-114672891D01*
X72631281Y-114554432D01*
X72579133Y-114431321D01*
X72527304Y-114307435D01*
X72477424Y-114186650D01*
X72431123Y-114072844D01*
X72390031Y-113969893D01*
X72355778Y-113881673D01*
X72329993Y-113812062D01*
X72314308Y-113764936D01*
X72310351Y-113744172D01*
X72310619Y-113743565D01*
X72329050Y-113724370D01*
X72367602Y-113694306D01*
X72418316Y-113659609D01*
X72434324Y-113649014D01*
X72556125Y-113548498D01*
X72656929Y-113428777D01*
X72734351Y-113294834D01*
X72786004Y-113151653D01*
X72809500Y-113004216D01*
X72802454Y-112857507D01*
X72773910Y-112727020D01*
X72722659Y-112595257D01*
X72647945Y-112477706D01*
X72545414Y-112366042D01*
X72505127Y-112330369D01*
X72374889Y-112242480D01*
X72234197Y-112183288D01*
X72087127Y-112152265D01*
X71937758Y-112148879D01*
X71790167Y-112172602D01*
X71648429Y-112222904D01*
X71516623Y-112299255D01*
X71398826Y-112401125D01*
X71299114Y-112527984D01*
X71279943Y-112559400D01*
X71214783Y-112702992D01*
X71180177Y-112852517D01*
X71175218Y-113004105D01*
X71199001Y-113153882D01*
X71250619Y-113297976D01*
X71329166Y-113432515D01*
X71433736Y-113553625D01*
X71563422Y-113657434D01*
X71567634Y-113660232D01*
X71617810Y-113695590D01*
X71655417Y-113725653D01*
X71672594Y-113744172D01*
X71670426Y-113758690D01*
X71656951Y-113800965D01*
X71633058Y-113866486D01*
X71600375Y-113951377D01*
X71560533Y-114051759D01*
X71515160Y-114163757D01*
X71465887Y-114283491D01*
X71414341Y-114407084D01*
X71362154Y-114530659D01*
X71310953Y-114650339D01*
X71262368Y-114762245D01*
X71218030Y-114862500D01*
X71179566Y-114947227D01*
X71148606Y-115012547D01*
X71126779Y-115054584D01*
X71115716Y-115069460D01*
X71106516Y-115067446D01*
X71070371Y-115052966D01*
X71016951Y-115027578D01*
X70954131Y-114994916D01*
X70816238Y-114920359D01*
X70651968Y-115031469D01*
X70603436Y-115064370D01*
X70513166Y-115125845D01*
X70423171Y-115187418D01*
X70347177Y-115239711D01*
X70305237Y-115268209D01*
X70250726Y-115303616D01*
X70210309Y-115327855D01*
X70190568Y-115336842D01*
X70182087Y-115333026D01*
X70151429Y-115309656D01*
X70104168Y-115268510D01*
X70044416Y-115213635D01*
X69976288Y-115149077D01*
X69903896Y-115078885D01*
X69831356Y-115007106D01*
X69762780Y-114937786D01*
X69702282Y-114874973D01*
X69653976Y-114822714D01*
X69621976Y-114785057D01*
X69610395Y-114766048D01*
X69611063Y-114762431D01*
X69624847Y-114732993D01*
X69654292Y-114682062D01*
X69696553Y-114614238D01*
X69748785Y-114534123D01*
X69808142Y-114446315D01*
X69824789Y-114422096D01*
X69883244Y-114336868D01*
X69934733Y-114261521D01*
X69976256Y-114200463D01*
X70004811Y-114158104D01*
X70017398Y-114138852D01*
X70017707Y-114138027D01*
X70013993Y-114114473D01*
X69999807Y-114066759D01*
X69977451Y-114000879D01*
X69949227Y-113922830D01*
X69917435Y-113838607D01*
X69884378Y-113754205D01*
X69852356Y-113675621D01*
X69823671Y-113608850D01*
X69800623Y-113559886D01*
X69785515Y-113534727D01*
X69784002Y-113533165D01*
X69773185Y-113525263D01*
X69754915Y-113517294D01*
X69725556Y-113508441D01*
X69681470Y-113497887D01*
X69619018Y-113484815D01*
X69534564Y-113468408D01*
X69424469Y-113447848D01*
X69285095Y-113422319D01*
X69256187Y-113416946D01*
X69173377Y-113400337D01*
X69103718Y-113384600D01*
X69053812Y-113371298D01*
X69030259Y-113361993D01*
X69026319Y-113354230D01*
X69019750Y-113316942D01*
X69014544Y-113255125D01*
X69010706Y-113174572D01*
X69008239Y-113081075D01*
X69007147Y-112980426D01*
X69007435Y-112878417D01*
X69009107Y-112780839D01*
X69012165Y-112693485D01*
X69016615Y-112622147D01*
X69022460Y-112572617D01*
X69029704Y-112550686D01*
X69037101Y-112547446D01*
X69073896Y-112537233D01*
X69136091Y-112522789D01*
X69218723Y-112505189D01*
X69316828Y-112485510D01*
X69425444Y-112464830D01*
X69484750Y-112453781D01*
X69586398Y-112434621D01*
X69673890Y-112417844D01*
X69742549Y-112404361D01*
X69787693Y-112395084D01*
X69804644Y-112390926D01*
X69805281Y-112390069D01*
X69816077Y-112368293D01*
X69836657Y-112322671D01*
X69864449Y-112259258D01*
X69896882Y-112184107D01*
X69931382Y-112103270D01*
X69965378Y-112022799D01*
X69996297Y-111948749D01*
X70021566Y-111887172D01*
X70038615Y-111844121D01*
X70044869Y-111825650D01*
X70042110Y-111819150D01*
X70023750Y-111788222D01*
X69990446Y-111736163D01*
X69944874Y-111667059D01*
X69889711Y-111584993D01*
X69827632Y-111494052D01*
X69793573Y-111444248D01*
X69734797Y-111356931D01*
X69684403Y-111280298D01*
X69645080Y-111218531D01*
X69619514Y-111175806D01*
X69610395Y-111156305D01*
X69616732Y-111145727D01*
X69643237Y-111114119D01*
X69686720Y-111066283D01*
X69743189Y-111006273D01*
X69808653Y-110938142D01*
X69879121Y-110865945D01*
X69950601Y-110793733D01*
X70019100Y-110725562D01*
X70080629Y-110665483D01*
X70131194Y-110617551D01*
X70166805Y-110585820D01*
X70183470Y-110574342D01*
X70192720Y-110578805D01*
X70226689Y-110599502D01*
X70281505Y-110634727D01*
X70353218Y-110681896D01*
X70437878Y-110738431D01*
X70531535Y-110801748D01*
X70865959Y-111029154D01*
X71423487Y-110799322D01*
X71499036Y-110398576D01*
X71574585Y-109997829D01*
X72408706Y-109997829D01*
X72484254Y-110398576D01*
G37*
D17*
%TO.C,Y2*%
X78308581Y-90916693D02*
X86016045Y-98624157D01*
X80712744Y-88512530D02*
X78308581Y-90916693D01*
X86016045Y-98624157D02*
X88420208Y-96219994D01*
X87310051Y-99310051D02*
X86793863Y-97846339D01*
X87805025Y-99805025D02*
X87310051Y-99310051D01*
X88420208Y-96219994D02*
X80712744Y-88512530D01*
X89106102Y-97513999D02*
X87642391Y-96997811D01*
X89601076Y-98008974D02*
X89106102Y-97513999D01*
%TO.C,BT1*%
X88650000Y-113150000D02*
X93450000Y-120000000D01*
X93450000Y-98450000D02*
X88650000Y-105250000D01*
X96750000Y-96200000D02*
X96750000Y-98450000D01*
X96750000Y-119950000D02*
X96750000Y-122200000D01*
X96750000Y-122200000D02*
X102250000Y-122200000D01*
X102250000Y-96200000D02*
X96750000Y-96200000D01*
X102250000Y-98450000D02*
X102250000Y-96200000D01*
X102250000Y-122200000D02*
X102250000Y-119950000D01*
X109000000Y-105350000D02*
G75*
G02*
X109001464Y-113046385I-9500000J-3850000D01*
G01*
%TO.C,SW1*%
X71000000Y-96300000D02*
X71000000Y-100800000D01*
X73500000Y-102050000D02*
X75000000Y-102050000D01*
X75000000Y-95050000D02*
X73500000Y-95050000D01*
X77500000Y-100800000D02*
X77500000Y-96300000D01*
%TD*%
M02*
