%TF.GenerationSoftware,KiCad,Pcbnew,8.0.7*%
%TF.CreationDate,2025-02-03T22:45:03+13:00*%
%TF.ProjectId,Housens-L,486f7573-656e-4732-9d4c-2e6b69636164,002*%
%TF.SameCoordinates,Original*%
%TF.FileFunction,Soldermask,Bot*%
%TF.FilePolarity,Negative*%
%FSLAX46Y46*%
G04 Gerber Fmt 4.6, Leading zero omitted, Abs format (unit mm)*
G04 Created by KiCad (PCBNEW 8.0.7) date 2025-02-03 22:45:03*
%MOMM*%
%LPD*%
G01*
G04 APERTURE LIST*
%ADD10C,3.200000*%
%ADD11C,5.600000*%
%ADD12C,0.700000*%
%ADD13O,0.900000X2.400000*%
%ADD14O,0.900000X1.700000*%
%ADD15C,2.000000*%
%ADD16C,1.000000*%
%ADD17R,5.100000X2.500000*%
%ADD18C,17.800000*%
G04 APERTURE END LIST*
D10*
%TO.C,H1*%
X64000000Y-84000000D03*
%TD*%
D11*
%TO.C,H2*%
X106000000Y-84000000D03*
%TD*%
%TO.C,H3*%
X106000000Y-126000000D03*
%TD*%
D10*
%TO.C,H4*%
X64000000Y-126000000D03*
%TD*%
D12*
%TO.C,J2*%
X82050000Y-124100000D03*
X82900000Y-124100000D03*
X83750000Y-124100000D03*
X84600000Y-124100000D03*
X85450000Y-124100000D03*
X86300000Y-124100000D03*
X87150000Y-124100000D03*
X88000000Y-124100000D03*
X88000000Y-125450000D03*
X87150000Y-125450000D03*
X86300000Y-125450000D03*
X85450000Y-125450000D03*
X84600000Y-125450000D03*
X83750000Y-125450000D03*
X82900000Y-125450000D03*
X82050000Y-125450000D03*
D13*
X80700000Y-125080000D03*
D14*
X80700000Y-128460000D03*
D13*
X89350000Y-125080000D03*
D14*
X89350000Y-128460000D03*
%TD*%
D15*
%TO.C,SW2*%
X76250000Y-126250000D03*
X69750000Y-126250000D03*
X76250000Y-121750000D03*
X69750000Y-121750000D03*
%TD*%
D16*
%TO.C,Y2*%
X88300000Y-100300000D03*
X90096051Y-98503949D03*
%TD*%
D17*
%TO.C,BT1*%
X100400000Y-121100000D03*
X100400000Y-98200000D03*
D18*
X100400000Y-109650000D03*
%TD*%
D15*
%TO.C,SW1*%
X72000000Y-95300000D03*
X72000000Y-101800000D03*
X76500000Y-95300000D03*
X76500000Y-101800000D03*
%TD*%
G36*
X83915677Y-102219685D02*
G01*
X83936319Y-102236319D01*
X83963681Y-102263681D01*
X83997166Y-102325004D01*
X84000000Y-102351362D01*
X84000000Y-107648638D01*
X83980315Y-107715677D01*
X83963681Y-107736319D01*
X83936319Y-107763681D01*
X83874996Y-107797166D01*
X83848638Y-107800000D01*
X83551362Y-107800000D01*
X83484323Y-107780315D01*
X83463681Y-107763681D01*
X83436319Y-107736319D01*
X83402834Y-107674996D01*
X83400000Y-107648638D01*
X83400000Y-102351362D01*
X83419685Y-102284323D01*
X83436319Y-102263681D01*
X83463681Y-102236319D01*
X83525004Y-102202834D01*
X83551362Y-102200000D01*
X83848638Y-102200000D01*
X83915677Y-102219685D01*
G37*
G36*
X87715677Y-102219685D02*
G01*
X87736319Y-102236319D01*
X87763681Y-102263681D01*
X87797166Y-102325004D01*
X87800000Y-102351362D01*
X87800000Y-107648638D01*
X87780315Y-107715677D01*
X87763681Y-107736319D01*
X87736319Y-107763681D01*
X87674996Y-107797166D01*
X87648638Y-107800000D01*
X84851362Y-107800000D01*
X84784323Y-107780315D01*
X84763681Y-107763681D01*
X84736319Y-107736319D01*
X84702834Y-107674996D01*
X84700000Y-107648638D01*
X84700000Y-102351362D01*
X84719685Y-102284323D01*
X84736319Y-102263681D01*
X84763681Y-102236319D01*
X84825004Y-102202834D01*
X84851362Y-102200000D01*
X87648638Y-102200000D01*
X87715677Y-102219685D01*
G37*
G36*
X82615677Y-102219685D02*
G01*
X82636319Y-102236319D01*
X82663681Y-102263681D01*
X82697166Y-102325004D01*
X82700000Y-102351362D01*
X82700000Y-107648638D01*
X82680315Y-107715677D01*
X82663681Y-107736319D01*
X82636319Y-107763681D01*
X82574996Y-107797166D01*
X82548638Y-107800000D01*
X82351362Y-107800000D01*
X82284323Y-107780315D01*
X82263681Y-107763681D01*
X82236319Y-107736319D01*
X82202834Y-107674996D01*
X82200000Y-107648638D01*
X82200000Y-102351362D01*
X82219685Y-102284323D01*
X82236319Y-102263681D01*
X82263681Y-102236319D01*
X82325004Y-102202834D01*
X82351362Y-102200000D01*
X82548638Y-102200000D01*
X82615677Y-102219685D01*
G37*
M02*
