%TF.GenerationSoftware,KiCad,Pcbnew,8.0.7*%
%TF.CreationDate,2025-02-03T19:04:14+13:00*%
%TF.ProjectId,Housens-L,486f7573-656e-4732-9d4c-2e6b69636164,002*%
%TF.SameCoordinates,Original*%
%TF.FileFunction,Soldermask,Top*%
%TF.FilePolarity,Negative*%
%FSLAX46Y46*%
G04 Gerber Fmt 4.6, Leading zero omitted, Abs format (unit mm)*
G04 Created by KiCad (PCBNEW 8.0.7) date 2025-02-03 19:04:14*
%MOMM*%
%LPD*%
G01*
G04 APERTURE LIST*
G04 Aperture macros list*
%AMRoundRect*
0 Rectangle with rounded corners*
0 $1 Rounding radius*
0 $2 $3 $4 $5 $6 $7 $8 $9 X,Y pos of 4 corners*
0 Add a 4 corners polygon primitive as box body*
4,1,4,$2,$3,$4,$5,$6,$7,$8,$9,$2,$3,0*
0 Add four circle primitives for the rounded corners*
1,1,$1+$1,$2,$3*
1,1,$1+$1,$4,$5*
1,1,$1+$1,$6,$7*
1,1,$1+$1,$8,$9*
0 Add four rect primitives between the rounded corners*
20,1,$1+$1,$2,$3,$4,$5,0*
20,1,$1+$1,$4,$5,$6,$7,0*
20,1,$1+$1,$6,$7,$8,$9,0*
20,1,$1+$1,$8,$9,$2,$3,0*%
%AMOutline5P*
0 Free polygon, 5 corners , with rotation*
0 The origin of the aperture is its center*
0 number of corners: always 5*
0 $1 to $10 corner X, Y*
0 $11 Rotation angle, in degrees counterclockwise*
0 create outline with 5 corners*
4,1,5,$1,$2,$3,$4,$5,$6,$7,$8,$9,$10,$1,$2,$11*%
%AMOutline6P*
0 Free polygon, 6 corners , with rotation*
0 The origin of the aperture is its center*
0 number of corners: always 6*
0 $1 to $12 corner X, Y*
0 $13 Rotation angle, in degrees counterclockwise*
0 create outline with 6 corners*
4,1,6,$1,$2,$3,$4,$5,$6,$7,$8,$9,$10,$11,$12,$1,$2,$13*%
%AMOutline7P*
0 Free polygon, 7 corners , with rotation*
0 The origin of the aperture is its center*
0 number of corners: always 7*
0 $1 to $14 corner X, Y*
0 $15 Rotation angle, in degrees counterclockwise*
0 create outline with 7 corners*
4,1,7,$1,$2,$3,$4,$5,$6,$7,$8,$9,$10,$11,$12,$13,$14,$1,$2,$15*%
%AMOutline8P*
0 Free polygon, 8 corners , with rotation*
0 The origin of the aperture is its center*
0 number of corners: always 8*
0 $1 to $16 corner X, Y*
0 $17 Rotation angle, in degrees counterclockwise*
0 create outline with 8 corners*
4,1,8,$1,$2,$3,$4,$5,$6,$7,$8,$9,$10,$11,$12,$13,$14,$15,$16,$1,$2,$17*%
G04 Aperture macros list end*
%ADD10R,0.500000X0.325000*%
%ADD11R,0.500000X0.250000*%
%ADD12Outline5P,-0.475000X1.085000X-0.285000X1.275000X0.475000X1.275000X0.475000X-1.275000X-0.475000X-1.275000X180.000000*%
%ADD13RoundRect,0.225000X-0.225000X-0.250000X0.225000X-0.250000X0.225000X0.250000X-0.225000X0.250000X0*%
%ADD14C,3.200000*%
%ADD15RoundRect,0.200000X0.200000X0.275000X-0.200000X0.275000X-0.200000X-0.275000X0.200000X-0.275000X0*%
%ADD16RoundRect,0.225000X-0.250000X0.225000X-0.250000X-0.225000X0.250000X-0.225000X0.250000X0.225000X0*%
%ADD17RoundRect,0.225000X0.225000X0.250000X-0.225000X0.250000X-0.225000X-0.250000X0.225000X-0.250000X0*%
%ADD18C,5.600000*%
%ADD19RoundRect,0.150000X-0.150000X0.512500X-0.150000X-0.512500X0.150000X-0.512500X0.150000X0.512500X0*%
%ADD20RoundRect,0.225000X0.250000X-0.225000X0.250000X0.225000X-0.250000X0.225000X-0.250000X-0.225000X0*%
%ADD21R,0.550000X0.300000*%
%ADD22R,0.300000X0.550000*%
%ADD23R,0.300000X0.720000*%
%ADD24R,0.900000X0.800000*%
%ADD25RoundRect,0.062500X-0.062500X0.375000X-0.062500X-0.375000X0.062500X-0.375000X0.062500X0.375000X0*%
%ADD26RoundRect,0.062500X-0.375000X0.062500X-0.375000X-0.062500X0.375000X-0.062500X0.375000X0.062500X0*%
%ADD27R,5.600000X5.600000*%
%ADD28R,0.350000X0.500000*%
%ADD29RoundRect,0.150000X0.512500X0.150000X-0.512500X0.150000X-0.512500X-0.150000X0.512500X-0.150000X0*%
%ADD30C,2.000000*%
%ADD31R,2.400000X0.740000*%
%ADD32RoundRect,0.200000X-0.200000X-0.275000X0.200000X-0.275000X0.200000X0.275000X-0.200000X0.275000X0*%
%ADD33RoundRect,0.200000X0.275000X-0.200000X0.275000X0.200000X-0.275000X0.200000X-0.275000X-0.200000X0*%
%ADD34R,3.200000X1.000000*%
%ADD35C,0.700000*%
%ADD36O,0.900000X2.400000*%
%ADD37O,0.900000X1.700000*%
%ADD38R,1.000000X3.200000*%
%ADD39C,1.000000*%
G04 APERTURE END LIST*
D10*
%TO.C,U7*%
X89300000Y-88600000D03*
X89300000Y-88275000D03*
D11*
X89300000Y-87837500D03*
X89300000Y-87437500D03*
X89300000Y-87037500D03*
D10*
X89300000Y-86600000D03*
X89300000Y-86275000D03*
X87600000Y-86275000D03*
X87600000Y-86600000D03*
D11*
X87600000Y-87037500D03*
X87600000Y-87437500D03*
X87600000Y-87837500D03*
D10*
X87600000Y-88275000D03*
X87600000Y-88600000D03*
D12*
X88450000Y-87437500D03*
%TD*%
D13*
%TO.C,C20*%
X97525000Y-88800000D03*
X99075000Y-88800000D03*
%TD*%
D14*
%TO.C,H1*%
X64000000Y-84000000D03*
%TD*%
D15*
%TO.C,R2*%
X89300000Y-92200000D03*
X87650000Y-92200000D03*
%TD*%
D16*
%TO.C,C8*%
X89525000Y-110075000D03*
X89525000Y-111625000D03*
%TD*%
D17*
%TO.C,C16*%
X78950000Y-113706250D03*
X77400000Y-113706250D03*
%TD*%
D18*
%TO.C,H2*%
X106000000Y-84000000D03*
%TD*%
D17*
%TO.C,C15*%
X78950000Y-115416250D03*
X77400000Y-115416250D03*
%TD*%
D19*
%TO.C,U6*%
X95750000Y-89025000D03*
X94800000Y-89025000D03*
X93850000Y-89025000D03*
X93850000Y-91300000D03*
X94800000Y-91300000D03*
X95750000Y-91300000D03*
%TD*%
D20*
%TO.C,C1*%
X107500000Y-117275000D03*
X107500000Y-115725000D03*
%TD*%
D21*
%TO.C,U5*%
X95000000Y-83900000D03*
X95000000Y-84700000D03*
X95000000Y-85500000D03*
D22*
X95700000Y-86700000D03*
X96500000Y-86700000D03*
X97300000Y-86700000D03*
D21*
X98000000Y-85500000D03*
X98000000Y-84700000D03*
X98000000Y-83900000D03*
D22*
X97300000Y-82700000D03*
X96500000Y-82700000D03*
X95700000Y-82700000D03*
%TD*%
D23*
%TO.C,U3*%
X76750000Y-87280000D03*
X76250000Y-87280000D03*
X75750000Y-87280000D03*
X75250000Y-87280000D03*
X75250000Y-89000000D03*
X75750000Y-89000000D03*
X76250000Y-89000000D03*
X76750000Y-89000000D03*
%TD*%
D20*
%TO.C,C6*%
X82262500Y-115625000D03*
X82262500Y-114075000D03*
%TD*%
D24*
%TO.C,Y1*%
X82937500Y-110600000D03*
X81537500Y-110600000D03*
X81537500Y-111700000D03*
X82937500Y-111700000D03*
%TD*%
D15*
%TO.C,R3*%
X89300000Y-94000000D03*
X87650000Y-94000000D03*
%TD*%
D20*
%TO.C,C4*%
X80800000Y-86400000D03*
X80800000Y-84850000D03*
%TD*%
D25*
%TO.C,U4*%
X87750000Y-101562500D03*
X87250000Y-101562500D03*
X86750000Y-101562500D03*
X86250000Y-101562500D03*
X85750000Y-101562500D03*
X85250000Y-101562500D03*
X84750000Y-101562500D03*
X84250000Y-101562500D03*
X83750000Y-101562500D03*
X83250000Y-101562500D03*
X82750000Y-101562500D03*
X82250000Y-101562500D03*
D26*
X81562500Y-102250000D03*
X81562500Y-102750000D03*
X81562500Y-103250000D03*
X81562500Y-103750000D03*
X81562500Y-104250000D03*
X81562500Y-104750000D03*
X81562500Y-105250000D03*
X81562500Y-105750000D03*
X81562500Y-106250000D03*
X81562500Y-106750000D03*
X81562500Y-107250000D03*
X81562500Y-107750000D03*
D25*
X82250000Y-108437500D03*
X82750000Y-108437500D03*
X83250000Y-108437500D03*
X83750000Y-108437500D03*
X84250000Y-108437500D03*
X84750000Y-108437500D03*
X85250000Y-108437500D03*
X85750000Y-108437500D03*
X86250000Y-108437500D03*
X86750000Y-108437500D03*
X87250000Y-108437500D03*
X87750000Y-108437500D03*
D26*
X88437500Y-107750000D03*
X88437500Y-107250000D03*
X88437500Y-106750000D03*
X88437500Y-106250000D03*
X88437500Y-105750000D03*
X88437500Y-105250000D03*
X88437500Y-104750000D03*
X88437500Y-104250000D03*
X88437500Y-103750000D03*
X88437500Y-103250000D03*
X88437500Y-102750000D03*
X88437500Y-102250000D03*
D27*
X85000000Y-105000000D03*
%TD*%
D18*
%TO.C,H3*%
X106000000Y-126000000D03*
%TD*%
D28*
%TO.C,U2*%
X86000000Y-87050000D03*
X85350000Y-87050000D03*
X84700000Y-87050000D03*
X84050000Y-87050000D03*
X84050000Y-85000000D03*
X84700000Y-85000000D03*
X85350000Y-85000000D03*
X86000000Y-85000000D03*
%TD*%
D20*
%TO.C,C11*%
X83237500Y-99250000D03*
X83237500Y-97700000D03*
%TD*%
D13*
%TO.C,C2*%
X103025000Y-115350000D03*
X104575000Y-115350000D03*
%TD*%
D14*
%TO.C,H4*%
X64000000Y-126000000D03*
%TD*%
D29*
%TO.C,U1*%
X105400000Y-119250000D03*
X105400000Y-118300000D03*
X105400000Y-117350000D03*
X103125000Y-117350000D03*
X103125000Y-119250000D03*
%TD*%
D20*
%TO.C,C9*%
X91450000Y-97875000D03*
X91450000Y-96325000D03*
%TD*%
%TO.C,C12*%
X84937500Y-99250000D03*
X84937500Y-97700000D03*
%TD*%
D17*
%TO.C,C10*%
X78950000Y-110293750D03*
X77400000Y-110293750D03*
%TD*%
D13*
%TO.C,C19*%
X97525000Y-91000000D03*
X99075000Y-91000000D03*
%TD*%
D30*
%TO.C,TP1*%
X95400000Y-113200000D03*
%TD*%
D31*
%TO.C,J1*%
X106200000Y-99000000D03*
X102300000Y-99000000D03*
X106200000Y-97730000D03*
X102300000Y-97730000D03*
X106200000Y-96460000D03*
X102300000Y-96460000D03*
X106200000Y-95190000D03*
X102300000Y-95190000D03*
X106200000Y-93920000D03*
X102300000Y-93920000D03*
%TD*%
D32*
%TO.C,R5*%
X80475000Y-122000000D03*
X82125000Y-122000000D03*
%TD*%
D20*
%TO.C,C14*%
X90400000Y-101650000D03*
X90400000Y-100100000D03*
%TD*%
D33*
%TO.C,R4*%
X84190000Y-83490000D03*
X84190000Y-81840000D03*
%TD*%
D16*
%TO.C,C13*%
X87725000Y-110075000D03*
X87725000Y-111625000D03*
%TD*%
D34*
%TO.C,L1*%
X99400000Y-119450000D03*
X99400000Y-117250000D03*
%TD*%
D15*
%TO.C,R9*%
X79000000Y-118000000D03*
X77350000Y-118000000D03*
%TD*%
D13*
%TO.C,C18*%
X94050000Y-93250000D03*
X95600000Y-93250000D03*
%TD*%
D17*
%TO.C,C7*%
X78950000Y-111993750D03*
X77400000Y-111993750D03*
%TD*%
D35*
%TO.C,J2*%
X82050000Y-124100000D03*
X82900000Y-124100000D03*
X83750000Y-124100000D03*
X84600000Y-124100000D03*
X85450000Y-124100000D03*
X86300000Y-124100000D03*
X87150000Y-124100000D03*
X88000000Y-124100000D03*
X88000000Y-125450000D03*
X87150000Y-125450000D03*
X86300000Y-125450000D03*
X85450000Y-125450000D03*
X84600000Y-125450000D03*
X83750000Y-125450000D03*
X82900000Y-125450000D03*
X82050000Y-125450000D03*
D36*
X80700000Y-125080000D03*
D37*
X80700000Y-128460000D03*
D36*
X89350000Y-125080000D03*
D37*
X89350000Y-128460000D03*
%TD*%
D15*
%TO.C,R1*%
X89300000Y-95800000D03*
X87650000Y-95800000D03*
%TD*%
D20*
%TO.C,C5*%
X79075000Y-86400000D03*
X79075000Y-84850000D03*
%TD*%
D30*
%TO.C,SW2*%
X76250000Y-126250000D03*
X69750000Y-126250000D03*
X76250000Y-121750000D03*
X69750000Y-121750000D03*
%TD*%
D38*
%TO.C,L2*%
X84662500Y-115750000D03*
X86862500Y-115750000D03*
%TD*%
D20*
%TO.C,C3*%
X85900000Y-83445000D03*
X85900000Y-81895000D03*
%TD*%
D39*
%TO.C,Y2*%
X88300000Y-100300000D03*
X90096051Y-98503949D03*
%TD*%
D30*
%TO.C,SW1*%
X72000000Y-95300000D03*
X72000000Y-101800000D03*
X76500000Y-95300000D03*
X76500000Y-101800000D03*
%TD*%
M02*
