%TF.GenerationSoftware,KiCad,Pcbnew,8.0.7*%
%TF.CreationDate,2025-02-06T19:50:52+13:00*%
%TF.ProjectId,Housens-L,486f7573-656e-4732-9d4c-2e6b69636164,002*%
%TF.SameCoordinates,Original*%
%TF.FileFunction,Legend,Top*%
%TF.FilePolarity,Positive*%
%FSLAX46Y46*%
G04 Gerber Fmt 4.6, Leading zero omitted, Abs format (unit mm)*
G04 Created by KiCad (PCBNEW 8.0.7) date 2025-02-06 19:50:52*
%MOMM*%
%LPD*%
G01*
G04 APERTURE LIST*
%ADD10C,0.150000*%
%ADD11C,0.120000*%
%ADD12C,0.100000*%
%ADD13C,0.200000*%
G04 APERTURE END LIST*
D10*
X100757142Y-89159580D02*
X100709523Y-89207200D01*
X100709523Y-89207200D02*
X100566666Y-89254819D01*
X100566666Y-89254819D02*
X100471428Y-89254819D01*
X100471428Y-89254819D02*
X100328571Y-89207200D01*
X100328571Y-89207200D02*
X100233333Y-89111961D01*
X100233333Y-89111961D02*
X100185714Y-89016723D01*
X100185714Y-89016723D02*
X100138095Y-88826247D01*
X100138095Y-88826247D02*
X100138095Y-88683390D01*
X100138095Y-88683390D02*
X100185714Y-88492914D01*
X100185714Y-88492914D02*
X100233333Y-88397676D01*
X100233333Y-88397676D02*
X100328571Y-88302438D01*
X100328571Y-88302438D02*
X100471428Y-88254819D01*
X100471428Y-88254819D02*
X100566666Y-88254819D01*
X100566666Y-88254819D02*
X100709523Y-88302438D01*
X100709523Y-88302438D02*
X100757142Y-88350057D01*
X101138095Y-88350057D02*
X101185714Y-88302438D01*
X101185714Y-88302438D02*
X101280952Y-88254819D01*
X101280952Y-88254819D02*
X101519047Y-88254819D01*
X101519047Y-88254819D02*
X101614285Y-88302438D01*
X101614285Y-88302438D02*
X101661904Y-88350057D01*
X101661904Y-88350057D02*
X101709523Y-88445295D01*
X101709523Y-88445295D02*
X101709523Y-88540533D01*
X101709523Y-88540533D02*
X101661904Y-88683390D01*
X101661904Y-88683390D02*
X101090476Y-89254819D01*
X101090476Y-89254819D02*
X101709523Y-89254819D01*
X102328571Y-88254819D02*
X102423809Y-88254819D01*
X102423809Y-88254819D02*
X102519047Y-88302438D01*
X102519047Y-88302438D02*
X102566666Y-88350057D01*
X102566666Y-88350057D02*
X102614285Y-88445295D01*
X102614285Y-88445295D02*
X102661904Y-88635771D01*
X102661904Y-88635771D02*
X102661904Y-88873866D01*
X102661904Y-88873866D02*
X102614285Y-89064342D01*
X102614285Y-89064342D02*
X102566666Y-89159580D01*
X102566666Y-89159580D02*
X102519047Y-89207200D01*
X102519047Y-89207200D02*
X102423809Y-89254819D01*
X102423809Y-89254819D02*
X102328571Y-89254819D01*
X102328571Y-89254819D02*
X102233333Y-89207200D01*
X102233333Y-89207200D02*
X102185714Y-89159580D01*
X102185714Y-89159580D02*
X102138095Y-89064342D01*
X102138095Y-89064342D02*
X102090476Y-88873866D01*
X102090476Y-88873866D02*
X102090476Y-88635771D01*
X102090476Y-88635771D02*
X102138095Y-88445295D01*
X102138095Y-88445295D02*
X102185714Y-88350057D01*
X102185714Y-88350057D02*
X102233333Y-88302438D01*
X102233333Y-88302438D02*
X102328571Y-88254819D01*
X90783333Y-92704819D02*
X90450000Y-92228628D01*
X90211905Y-92704819D02*
X90211905Y-91704819D01*
X90211905Y-91704819D02*
X90592857Y-91704819D01*
X90592857Y-91704819D02*
X90688095Y-91752438D01*
X90688095Y-91752438D02*
X90735714Y-91800057D01*
X90735714Y-91800057D02*
X90783333Y-91895295D01*
X90783333Y-91895295D02*
X90783333Y-92038152D01*
X90783333Y-92038152D02*
X90735714Y-92133390D01*
X90735714Y-92133390D02*
X90688095Y-92181009D01*
X90688095Y-92181009D02*
X90592857Y-92228628D01*
X90592857Y-92228628D02*
X90211905Y-92228628D01*
X91164286Y-91800057D02*
X91211905Y-91752438D01*
X91211905Y-91752438D02*
X91307143Y-91704819D01*
X91307143Y-91704819D02*
X91545238Y-91704819D01*
X91545238Y-91704819D02*
X91640476Y-91752438D01*
X91640476Y-91752438D02*
X91688095Y-91800057D01*
X91688095Y-91800057D02*
X91735714Y-91895295D01*
X91735714Y-91895295D02*
X91735714Y-91990533D01*
X91735714Y-91990533D02*
X91688095Y-92133390D01*
X91688095Y-92133390D02*
X91116667Y-92704819D01*
X91116667Y-92704819D02*
X91735714Y-92704819D01*
X91359580Y-111016666D02*
X91407200Y-111064285D01*
X91407200Y-111064285D02*
X91454819Y-111207142D01*
X91454819Y-111207142D02*
X91454819Y-111302380D01*
X91454819Y-111302380D02*
X91407200Y-111445237D01*
X91407200Y-111445237D02*
X91311961Y-111540475D01*
X91311961Y-111540475D02*
X91216723Y-111588094D01*
X91216723Y-111588094D02*
X91026247Y-111635713D01*
X91026247Y-111635713D02*
X90883390Y-111635713D01*
X90883390Y-111635713D02*
X90692914Y-111588094D01*
X90692914Y-111588094D02*
X90597676Y-111540475D01*
X90597676Y-111540475D02*
X90502438Y-111445237D01*
X90502438Y-111445237D02*
X90454819Y-111302380D01*
X90454819Y-111302380D02*
X90454819Y-111207142D01*
X90454819Y-111207142D02*
X90502438Y-111064285D01*
X90502438Y-111064285D02*
X90550057Y-111016666D01*
X90883390Y-110445237D02*
X90835771Y-110540475D01*
X90835771Y-110540475D02*
X90788152Y-110588094D01*
X90788152Y-110588094D02*
X90692914Y-110635713D01*
X90692914Y-110635713D02*
X90645295Y-110635713D01*
X90645295Y-110635713D02*
X90550057Y-110588094D01*
X90550057Y-110588094D02*
X90502438Y-110540475D01*
X90502438Y-110540475D02*
X90454819Y-110445237D01*
X90454819Y-110445237D02*
X90454819Y-110254761D01*
X90454819Y-110254761D02*
X90502438Y-110159523D01*
X90502438Y-110159523D02*
X90550057Y-110111904D01*
X90550057Y-110111904D02*
X90645295Y-110064285D01*
X90645295Y-110064285D02*
X90692914Y-110064285D01*
X90692914Y-110064285D02*
X90788152Y-110111904D01*
X90788152Y-110111904D02*
X90835771Y-110159523D01*
X90835771Y-110159523D02*
X90883390Y-110254761D01*
X90883390Y-110254761D02*
X90883390Y-110445237D01*
X90883390Y-110445237D02*
X90931009Y-110540475D01*
X90931009Y-110540475D02*
X90978628Y-110588094D01*
X90978628Y-110588094D02*
X91073866Y-110635713D01*
X91073866Y-110635713D02*
X91264342Y-110635713D01*
X91264342Y-110635713D02*
X91359580Y-110588094D01*
X91359580Y-110588094D02*
X91407200Y-110540475D01*
X91407200Y-110540475D02*
X91454819Y-110445237D01*
X91454819Y-110445237D02*
X91454819Y-110254761D01*
X91454819Y-110254761D02*
X91407200Y-110159523D01*
X91407200Y-110159523D02*
X91359580Y-110111904D01*
X91359580Y-110111904D02*
X91264342Y-110064285D01*
X91264342Y-110064285D02*
X91073866Y-110064285D01*
X91073866Y-110064285D02*
X90978628Y-110111904D01*
X90978628Y-110111904D02*
X90931009Y-110159523D01*
X90931009Y-110159523D02*
X90883390Y-110254761D01*
X74507142Y-114065830D02*
X74459523Y-114113450D01*
X74459523Y-114113450D02*
X74316666Y-114161069D01*
X74316666Y-114161069D02*
X74221428Y-114161069D01*
X74221428Y-114161069D02*
X74078571Y-114113450D01*
X74078571Y-114113450D02*
X73983333Y-114018211D01*
X73983333Y-114018211D02*
X73935714Y-113922973D01*
X73935714Y-113922973D02*
X73888095Y-113732497D01*
X73888095Y-113732497D02*
X73888095Y-113589640D01*
X73888095Y-113589640D02*
X73935714Y-113399164D01*
X73935714Y-113399164D02*
X73983333Y-113303926D01*
X73983333Y-113303926D02*
X74078571Y-113208688D01*
X74078571Y-113208688D02*
X74221428Y-113161069D01*
X74221428Y-113161069D02*
X74316666Y-113161069D01*
X74316666Y-113161069D02*
X74459523Y-113208688D01*
X74459523Y-113208688D02*
X74507142Y-113256307D01*
X75459523Y-114161069D02*
X74888095Y-114161069D01*
X75173809Y-114161069D02*
X75173809Y-113161069D01*
X75173809Y-113161069D02*
X75078571Y-113303926D01*
X75078571Y-113303926D02*
X74983333Y-113399164D01*
X74983333Y-113399164D02*
X74888095Y-113446783D01*
X76316666Y-113161069D02*
X76126190Y-113161069D01*
X76126190Y-113161069D02*
X76030952Y-113208688D01*
X76030952Y-113208688D02*
X75983333Y-113256307D01*
X75983333Y-113256307D02*
X75888095Y-113399164D01*
X75888095Y-113399164D02*
X75840476Y-113589640D01*
X75840476Y-113589640D02*
X75840476Y-113970592D01*
X75840476Y-113970592D02*
X75888095Y-114065830D01*
X75888095Y-114065830D02*
X75935714Y-114113450D01*
X75935714Y-114113450D02*
X76030952Y-114161069D01*
X76030952Y-114161069D02*
X76221428Y-114161069D01*
X76221428Y-114161069D02*
X76316666Y-114113450D01*
X76316666Y-114113450D02*
X76364285Y-114065830D01*
X76364285Y-114065830D02*
X76411904Y-113970592D01*
X76411904Y-113970592D02*
X76411904Y-113732497D01*
X76411904Y-113732497D02*
X76364285Y-113637259D01*
X76364285Y-113637259D02*
X76316666Y-113589640D01*
X76316666Y-113589640D02*
X76221428Y-113542021D01*
X76221428Y-113542021D02*
X76030952Y-113542021D01*
X76030952Y-113542021D02*
X75935714Y-113589640D01*
X75935714Y-113589640D02*
X75888095Y-113637259D01*
X75888095Y-113637259D02*
X75840476Y-113732497D01*
X87538095Y-89704819D02*
X87538095Y-90514342D01*
X87538095Y-90514342D02*
X87585714Y-90609580D01*
X87585714Y-90609580D02*
X87633333Y-90657200D01*
X87633333Y-90657200D02*
X87728571Y-90704819D01*
X87728571Y-90704819D02*
X87919047Y-90704819D01*
X87919047Y-90704819D02*
X88014285Y-90657200D01*
X88014285Y-90657200D02*
X88061904Y-90609580D01*
X88061904Y-90609580D02*
X88109523Y-90514342D01*
X88109523Y-90514342D02*
X88109523Y-89704819D01*
X88490476Y-89704819D02*
X89157142Y-89704819D01*
X89157142Y-89704819D02*
X88728571Y-90704819D01*
X74507142Y-115609580D02*
X74459523Y-115657200D01*
X74459523Y-115657200D02*
X74316666Y-115704819D01*
X74316666Y-115704819D02*
X74221428Y-115704819D01*
X74221428Y-115704819D02*
X74078571Y-115657200D01*
X74078571Y-115657200D02*
X73983333Y-115561961D01*
X73983333Y-115561961D02*
X73935714Y-115466723D01*
X73935714Y-115466723D02*
X73888095Y-115276247D01*
X73888095Y-115276247D02*
X73888095Y-115133390D01*
X73888095Y-115133390D02*
X73935714Y-114942914D01*
X73935714Y-114942914D02*
X73983333Y-114847676D01*
X73983333Y-114847676D02*
X74078571Y-114752438D01*
X74078571Y-114752438D02*
X74221428Y-114704819D01*
X74221428Y-114704819D02*
X74316666Y-114704819D01*
X74316666Y-114704819D02*
X74459523Y-114752438D01*
X74459523Y-114752438D02*
X74507142Y-114800057D01*
X75459523Y-115704819D02*
X74888095Y-115704819D01*
X75173809Y-115704819D02*
X75173809Y-114704819D01*
X75173809Y-114704819D02*
X75078571Y-114847676D01*
X75078571Y-114847676D02*
X74983333Y-114942914D01*
X74983333Y-114942914D02*
X74888095Y-114990533D01*
X76364285Y-114704819D02*
X75888095Y-114704819D01*
X75888095Y-114704819D02*
X75840476Y-115181009D01*
X75840476Y-115181009D02*
X75888095Y-115133390D01*
X75888095Y-115133390D02*
X75983333Y-115085771D01*
X75983333Y-115085771D02*
X76221428Y-115085771D01*
X76221428Y-115085771D02*
X76316666Y-115133390D01*
X76316666Y-115133390D02*
X76364285Y-115181009D01*
X76364285Y-115181009D02*
X76411904Y-115276247D01*
X76411904Y-115276247D02*
X76411904Y-115514342D01*
X76411904Y-115514342D02*
X76364285Y-115609580D01*
X76364285Y-115609580D02*
X76316666Y-115657200D01*
X76316666Y-115657200D02*
X76221428Y-115704819D01*
X76221428Y-115704819D02*
X75983333Y-115704819D01*
X75983333Y-115704819D02*
X75888095Y-115657200D01*
X75888095Y-115657200D02*
X75840476Y-115609580D01*
X96788095Y-90604819D02*
X96788095Y-91414342D01*
X96788095Y-91414342D02*
X96835714Y-91509580D01*
X96835714Y-91509580D02*
X96883333Y-91557200D01*
X96883333Y-91557200D02*
X96978571Y-91604819D01*
X96978571Y-91604819D02*
X97169047Y-91604819D01*
X97169047Y-91604819D02*
X97264285Y-91557200D01*
X97264285Y-91557200D02*
X97311904Y-91509580D01*
X97311904Y-91509580D02*
X97359523Y-91414342D01*
X97359523Y-91414342D02*
X97359523Y-90604819D01*
X98264285Y-90604819D02*
X98073809Y-90604819D01*
X98073809Y-90604819D02*
X97978571Y-90652438D01*
X97978571Y-90652438D02*
X97930952Y-90700057D01*
X97930952Y-90700057D02*
X97835714Y-90842914D01*
X97835714Y-90842914D02*
X97788095Y-91033390D01*
X97788095Y-91033390D02*
X97788095Y-91414342D01*
X97788095Y-91414342D02*
X97835714Y-91509580D01*
X97835714Y-91509580D02*
X97883333Y-91557200D01*
X97883333Y-91557200D02*
X97978571Y-91604819D01*
X97978571Y-91604819D02*
X98169047Y-91604819D01*
X98169047Y-91604819D02*
X98264285Y-91557200D01*
X98264285Y-91557200D02*
X98311904Y-91509580D01*
X98311904Y-91509580D02*
X98359523Y-91414342D01*
X98359523Y-91414342D02*
X98359523Y-91176247D01*
X98359523Y-91176247D02*
X98311904Y-91081009D01*
X98311904Y-91081009D02*
X98264285Y-91033390D01*
X98264285Y-91033390D02*
X98169047Y-90985771D01*
X98169047Y-90985771D02*
X97978571Y-90985771D01*
X97978571Y-90985771D02*
X97883333Y-91033390D01*
X97883333Y-91033390D02*
X97835714Y-91081009D01*
X97835714Y-91081009D02*
X97788095Y-91176247D01*
X107333333Y-114609580D02*
X107285714Y-114657200D01*
X107285714Y-114657200D02*
X107142857Y-114704819D01*
X107142857Y-114704819D02*
X107047619Y-114704819D01*
X107047619Y-114704819D02*
X106904762Y-114657200D01*
X106904762Y-114657200D02*
X106809524Y-114561961D01*
X106809524Y-114561961D02*
X106761905Y-114466723D01*
X106761905Y-114466723D02*
X106714286Y-114276247D01*
X106714286Y-114276247D02*
X106714286Y-114133390D01*
X106714286Y-114133390D02*
X106761905Y-113942914D01*
X106761905Y-113942914D02*
X106809524Y-113847676D01*
X106809524Y-113847676D02*
X106904762Y-113752438D01*
X106904762Y-113752438D02*
X107047619Y-113704819D01*
X107047619Y-113704819D02*
X107142857Y-113704819D01*
X107142857Y-113704819D02*
X107285714Y-113752438D01*
X107285714Y-113752438D02*
X107333333Y-113800057D01*
X108285714Y-114704819D02*
X107714286Y-114704819D01*
X108000000Y-114704819D02*
X108000000Y-113704819D01*
X108000000Y-113704819D02*
X107904762Y-113847676D01*
X107904762Y-113847676D02*
X107809524Y-113942914D01*
X107809524Y-113942914D02*
X107714286Y-113990533D01*
X99438095Y-86154819D02*
X99438095Y-86964342D01*
X99438095Y-86964342D02*
X99485714Y-87059580D01*
X99485714Y-87059580D02*
X99533333Y-87107200D01*
X99533333Y-87107200D02*
X99628571Y-87154819D01*
X99628571Y-87154819D02*
X99819047Y-87154819D01*
X99819047Y-87154819D02*
X99914285Y-87107200D01*
X99914285Y-87107200D02*
X99961904Y-87059580D01*
X99961904Y-87059580D02*
X100009523Y-86964342D01*
X100009523Y-86964342D02*
X100009523Y-86154819D01*
X100961904Y-86154819D02*
X100485714Y-86154819D01*
X100485714Y-86154819D02*
X100438095Y-86631009D01*
X100438095Y-86631009D02*
X100485714Y-86583390D01*
X100485714Y-86583390D02*
X100580952Y-86535771D01*
X100580952Y-86535771D02*
X100819047Y-86535771D01*
X100819047Y-86535771D02*
X100914285Y-86583390D01*
X100914285Y-86583390D02*
X100961904Y-86631009D01*
X100961904Y-86631009D02*
X101009523Y-86726247D01*
X101009523Y-86726247D02*
X101009523Y-86964342D01*
X101009523Y-86964342D02*
X100961904Y-87059580D01*
X100961904Y-87059580D02*
X100914285Y-87107200D01*
X100914285Y-87107200D02*
X100819047Y-87154819D01*
X100819047Y-87154819D02*
X100580952Y-87154819D01*
X100580952Y-87154819D02*
X100485714Y-87107200D01*
X100485714Y-87107200D02*
X100438095Y-87059580D01*
X70338095Y-88504819D02*
X70338095Y-89314342D01*
X70338095Y-89314342D02*
X70385714Y-89409580D01*
X70385714Y-89409580D02*
X70433333Y-89457200D01*
X70433333Y-89457200D02*
X70528571Y-89504819D01*
X70528571Y-89504819D02*
X70719047Y-89504819D01*
X70719047Y-89504819D02*
X70814285Y-89457200D01*
X70814285Y-89457200D02*
X70861904Y-89409580D01*
X70861904Y-89409580D02*
X70909523Y-89314342D01*
X70909523Y-89314342D02*
X70909523Y-88504819D01*
X71290476Y-88504819D02*
X71909523Y-88504819D01*
X71909523Y-88504819D02*
X71576190Y-88885771D01*
X71576190Y-88885771D02*
X71719047Y-88885771D01*
X71719047Y-88885771D02*
X71814285Y-88933390D01*
X71814285Y-88933390D02*
X71861904Y-88981009D01*
X71861904Y-88981009D02*
X71909523Y-89076247D01*
X71909523Y-89076247D02*
X71909523Y-89314342D01*
X71909523Y-89314342D02*
X71861904Y-89409580D01*
X71861904Y-89409580D02*
X71814285Y-89457200D01*
X71814285Y-89457200D02*
X71719047Y-89504819D01*
X71719047Y-89504819D02*
X71433333Y-89504819D01*
X71433333Y-89504819D02*
X71338095Y-89457200D01*
X71338095Y-89457200D02*
X71290476Y-89409580D01*
X82622080Y-117616666D02*
X82669700Y-117664285D01*
X82669700Y-117664285D02*
X82717319Y-117807142D01*
X82717319Y-117807142D02*
X82717319Y-117902380D01*
X82717319Y-117902380D02*
X82669700Y-118045237D01*
X82669700Y-118045237D02*
X82574461Y-118140475D01*
X82574461Y-118140475D02*
X82479223Y-118188094D01*
X82479223Y-118188094D02*
X82288747Y-118235713D01*
X82288747Y-118235713D02*
X82145890Y-118235713D01*
X82145890Y-118235713D02*
X81955414Y-118188094D01*
X81955414Y-118188094D02*
X81860176Y-118140475D01*
X81860176Y-118140475D02*
X81764938Y-118045237D01*
X81764938Y-118045237D02*
X81717319Y-117902380D01*
X81717319Y-117902380D02*
X81717319Y-117807142D01*
X81717319Y-117807142D02*
X81764938Y-117664285D01*
X81764938Y-117664285D02*
X81812557Y-117616666D01*
X81717319Y-116759523D02*
X81717319Y-116949999D01*
X81717319Y-116949999D02*
X81764938Y-117045237D01*
X81764938Y-117045237D02*
X81812557Y-117092856D01*
X81812557Y-117092856D02*
X81955414Y-117188094D01*
X81955414Y-117188094D02*
X82145890Y-117235713D01*
X82145890Y-117235713D02*
X82526842Y-117235713D01*
X82526842Y-117235713D02*
X82622080Y-117188094D01*
X82622080Y-117188094D02*
X82669700Y-117140475D01*
X82669700Y-117140475D02*
X82717319Y-117045237D01*
X82717319Y-117045237D02*
X82717319Y-116854761D01*
X82717319Y-116854761D02*
X82669700Y-116759523D01*
X82669700Y-116759523D02*
X82622080Y-116711904D01*
X82622080Y-116711904D02*
X82526842Y-116664285D01*
X82526842Y-116664285D02*
X82288747Y-116664285D01*
X82288747Y-116664285D02*
X82193509Y-116711904D01*
X82193509Y-116711904D02*
X82145890Y-116759523D01*
X82145890Y-116759523D02*
X82098271Y-116854761D01*
X82098271Y-116854761D02*
X82098271Y-117045237D01*
X82098271Y-117045237D02*
X82145890Y-117140475D01*
X82145890Y-117140475D02*
X82193509Y-117188094D01*
X82193509Y-117188094D02*
X82288747Y-117235713D01*
X80223809Y-113178628D02*
X80223809Y-113654819D01*
X79890476Y-112654819D02*
X80223809Y-113178628D01*
X80223809Y-113178628D02*
X80557142Y-112654819D01*
X81414285Y-113654819D02*
X80842857Y-113654819D01*
X81128571Y-113654819D02*
X81128571Y-112654819D01*
X81128571Y-112654819D02*
X81033333Y-112797676D01*
X81033333Y-112797676D02*
X80938095Y-112892914D01*
X80938095Y-112892914D02*
X80842857Y-112940533D01*
X90733333Y-94504819D02*
X90400000Y-94028628D01*
X90161905Y-94504819D02*
X90161905Y-93504819D01*
X90161905Y-93504819D02*
X90542857Y-93504819D01*
X90542857Y-93504819D02*
X90638095Y-93552438D01*
X90638095Y-93552438D02*
X90685714Y-93600057D01*
X90685714Y-93600057D02*
X90733333Y-93695295D01*
X90733333Y-93695295D02*
X90733333Y-93838152D01*
X90733333Y-93838152D02*
X90685714Y-93933390D01*
X90685714Y-93933390D02*
X90638095Y-93981009D01*
X90638095Y-93981009D02*
X90542857Y-94028628D01*
X90542857Y-94028628D02*
X90161905Y-94028628D01*
X91066667Y-93504819D02*
X91685714Y-93504819D01*
X91685714Y-93504819D02*
X91352381Y-93885771D01*
X91352381Y-93885771D02*
X91495238Y-93885771D01*
X91495238Y-93885771D02*
X91590476Y-93933390D01*
X91590476Y-93933390D02*
X91638095Y-93981009D01*
X91638095Y-93981009D02*
X91685714Y-94076247D01*
X91685714Y-94076247D02*
X91685714Y-94314342D01*
X91685714Y-94314342D02*
X91638095Y-94409580D01*
X91638095Y-94409580D02*
X91590476Y-94457200D01*
X91590476Y-94457200D02*
X91495238Y-94504819D01*
X91495238Y-94504819D02*
X91209524Y-94504819D01*
X91209524Y-94504819D02*
X91114286Y-94457200D01*
X91114286Y-94457200D02*
X91066667Y-94409580D01*
X76159580Y-86666666D02*
X76207200Y-86714285D01*
X76207200Y-86714285D02*
X76254819Y-86857142D01*
X76254819Y-86857142D02*
X76254819Y-86952380D01*
X76254819Y-86952380D02*
X76207200Y-87095237D01*
X76207200Y-87095237D02*
X76111961Y-87190475D01*
X76111961Y-87190475D02*
X76016723Y-87238094D01*
X76016723Y-87238094D02*
X75826247Y-87285713D01*
X75826247Y-87285713D02*
X75683390Y-87285713D01*
X75683390Y-87285713D02*
X75492914Y-87238094D01*
X75492914Y-87238094D02*
X75397676Y-87190475D01*
X75397676Y-87190475D02*
X75302438Y-87095237D01*
X75302438Y-87095237D02*
X75254819Y-86952380D01*
X75254819Y-86952380D02*
X75254819Y-86857142D01*
X75254819Y-86857142D02*
X75302438Y-86714285D01*
X75302438Y-86714285D02*
X75350057Y-86666666D01*
X75588152Y-85809523D02*
X76254819Y-85809523D01*
X75207200Y-86047618D02*
X75921485Y-86285713D01*
X75921485Y-86285713D02*
X75921485Y-85666666D01*
X89338095Y-108054819D02*
X89338095Y-108864342D01*
X89338095Y-108864342D02*
X89385714Y-108959580D01*
X89385714Y-108959580D02*
X89433333Y-109007200D01*
X89433333Y-109007200D02*
X89528571Y-109054819D01*
X89528571Y-109054819D02*
X89719047Y-109054819D01*
X89719047Y-109054819D02*
X89814285Y-109007200D01*
X89814285Y-109007200D02*
X89861904Y-108959580D01*
X89861904Y-108959580D02*
X89909523Y-108864342D01*
X89909523Y-108864342D02*
X89909523Y-108054819D01*
X90814285Y-108388152D02*
X90814285Y-109054819D01*
X90576190Y-108007200D02*
X90338095Y-108721485D01*
X90338095Y-108721485D02*
X90957142Y-108721485D01*
X80238095Y-89454819D02*
X80238095Y-90264342D01*
X80238095Y-90264342D02*
X80285714Y-90359580D01*
X80285714Y-90359580D02*
X80333333Y-90407200D01*
X80333333Y-90407200D02*
X80428571Y-90454819D01*
X80428571Y-90454819D02*
X80619047Y-90454819D01*
X80619047Y-90454819D02*
X80714285Y-90407200D01*
X80714285Y-90407200D02*
X80761904Y-90359580D01*
X80761904Y-90359580D02*
X80809523Y-90264342D01*
X80809523Y-90264342D02*
X80809523Y-89454819D01*
X81238095Y-89550057D02*
X81285714Y-89502438D01*
X81285714Y-89502438D02*
X81380952Y-89454819D01*
X81380952Y-89454819D02*
X81619047Y-89454819D01*
X81619047Y-89454819D02*
X81714285Y-89502438D01*
X81714285Y-89502438D02*
X81761904Y-89550057D01*
X81761904Y-89550057D02*
X81809523Y-89645295D01*
X81809523Y-89645295D02*
X81809523Y-89740533D01*
X81809523Y-89740533D02*
X81761904Y-89883390D01*
X81761904Y-89883390D02*
X81190476Y-90454819D01*
X81190476Y-90454819D02*
X81809523Y-90454819D01*
X83597080Y-95567857D02*
X83644700Y-95615476D01*
X83644700Y-95615476D02*
X83692319Y-95758333D01*
X83692319Y-95758333D02*
X83692319Y-95853571D01*
X83692319Y-95853571D02*
X83644700Y-95996428D01*
X83644700Y-95996428D02*
X83549461Y-96091666D01*
X83549461Y-96091666D02*
X83454223Y-96139285D01*
X83454223Y-96139285D02*
X83263747Y-96186904D01*
X83263747Y-96186904D02*
X83120890Y-96186904D01*
X83120890Y-96186904D02*
X82930414Y-96139285D01*
X82930414Y-96139285D02*
X82835176Y-96091666D01*
X82835176Y-96091666D02*
X82739938Y-95996428D01*
X82739938Y-95996428D02*
X82692319Y-95853571D01*
X82692319Y-95853571D02*
X82692319Y-95758333D01*
X82692319Y-95758333D02*
X82739938Y-95615476D01*
X82739938Y-95615476D02*
X82787557Y-95567857D01*
X83692319Y-94615476D02*
X83692319Y-95186904D01*
X83692319Y-94901190D02*
X82692319Y-94901190D01*
X82692319Y-94901190D02*
X82835176Y-94996428D01*
X82835176Y-94996428D02*
X82930414Y-95091666D01*
X82930414Y-95091666D02*
X82978033Y-95186904D01*
X83692319Y-93663095D02*
X83692319Y-94234523D01*
X83692319Y-93948809D02*
X82692319Y-93948809D01*
X82692319Y-93948809D02*
X82835176Y-94044047D01*
X82835176Y-94044047D02*
X82930414Y-94139285D01*
X82930414Y-94139285D02*
X82978033Y-94234523D01*
X103633333Y-114109580D02*
X103585714Y-114157200D01*
X103585714Y-114157200D02*
X103442857Y-114204819D01*
X103442857Y-114204819D02*
X103347619Y-114204819D01*
X103347619Y-114204819D02*
X103204762Y-114157200D01*
X103204762Y-114157200D02*
X103109524Y-114061961D01*
X103109524Y-114061961D02*
X103061905Y-113966723D01*
X103061905Y-113966723D02*
X103014286Y-113776247D01*
X103014286Y-113776247D02*
X103014286Y-113633390D01*
X103014286Y-113633390D02*
X103061905Y-113442914D01*
X103061905Y-113442914D02*
X103109524Y-113347676D01*
X103109524Y-113347676D02*
X103204762Y-113252438D01*
X103204762Y-113252438D02*
X103347619Y-113204819D01*
X103347619Y-113204819D02*
X103442857Y-113204819D01*
X103442857Y-113204819D02*
X103585714Y-113252438D01*
X103585714Y-113252438D02*
X103633333Y-113300057D01*
X104014286Y-113300057D02*
X104061905Y-113252438D01*
X104061905Y-113252438D02*
X104157143Y-113204819D01*
X104157143Y-113204819D02*
X104395238Y-113204819D01*
X104395238Y-113204819D02*
X104490476Y-113252438D01*
X104490476Y-113252438D02*
X104538095Y-113300057D01*
X104538095Y-113300057D02*
X104585714Y-113395295D01*
X104585714Y-113395295D02*
X104585714Y-113490533D01*
X104585714Y-113490533D02*
X104538095Y-113633390D01*
X104538095Y-113633390D02*
X103966667Y-114204819D01*
X103966667Y-114204819D02*
X104585714Y-114204819D01*
X103500595Y-120154819D02*
X103500595Y-120964342D01*
X103500595Y-120964342D02*
X103548214Y-121059580D01*
X103548214Y-121059580D02*
X103595833Y-121107200D01*
X103595833Y-121107200D02*
X103691071Y-121154819D01*
X103691071Y-121154819D02*
X103881547Y-121154819D01*
X103881547Y-121154819D02*
X103976785Y-121107200D01*
X103976785Y-121107200D02*
X104024404Y-121059580D01*
X104024404Y-121059580D02*
X104072023Y-120964342D01*
X104072023Y-120964342D02*
X104072023Y-120154819D01*
X105072023Y-121154819D02*
X104500595Y-121154819D01*
X104786309Y-121154819D02*
X104786309Y-120154819D01*
X104786309Y-120154819D02*
X104691071Y-120297676D01*
X104691071Y-120297676D02*
X104595833Y-120392914D01*
X104595833Y-120392914D02*
X104500595Y-120440533D01*
X91809580Y-99766666D02*
X91857200Y-99814285D01*
X91857200Y-99814285D02*
X91904819Y-99957142D01*
X91904819Y-99957142D02*
X91904819Y-100052380D01*
X91904819Y-100052380D02*
X91857200Y-100195237D01*
X91857200Y-100195237D02*
X91761961Y-100290475D01*
X91761961Y-100290475D02*
X91666723Y-100338094D01*
X91666723Y-100338094D02*
X91476247Y-100385713D01*
X91476247Y-100385713D02*
X91333390Y-100385713D01*
X91333390Y-100385713D02*
X91142914Y-100338094D01*
X91142914Y-100338094D02*
X91047676Y-100290475D01*
X91047676Y-100290475D02*
X90952438Y-100195237D01*
X90952438Y-100195237D02*
X90904819Y-100052380D01*
X90904819Y-100052380D02*
X90904819Y-99957142D01*
X90904819Y-99957142D02*
X90952438Y-99814285D01*
X90952438Y-99814285D02*
X91000057Y-99766666D01*
X91904819Y-99290475D02*
X91904819Y-99099999D01*
X91904819Y-99099999D02*
X91857200Y-99004761D01*
X91857200Y-99004761D02*
X91809580Y-98957142D01*
X91809580Y-98957142D02*
X91666723Y-98861904D01*
X91666723Y-98861904D02*
X91476247Y-98814285D01*
X91476247Y-98814285D02*
X91095295Y-98814285D01*
X91095295Y-98814285D02*
X91000057Y-98861904D01*
X91000057Y-98861904D02*
X90952438Y-98909523D01*
X90952438Y-98909523D02*
X90904819Y-99004761D01*
X90904819Y-99004761D02*
X90904819Y-99195237D01*
X90904819Y-99195237D02*
X90952438Y-99290475D01*
X90952438Y-99290475D02*
X91000057Y-99338094D01*
X91000057Y-99338094D02*
X91095295Y-99385713D01*
X91095295Y-99385713D02*
X91333390Y-99385713D01*
X91333390Y-99385713D02*
X91428628Y-99338094D01*
X91428628Y-99338094D02*
X91476247Y-99290475D01*
X91476247Y-99290475D02*
X91523866Y-99195237D01*
X91523866Y-99195237D02*
X91523866Y-99004761D01*
X91523866Y-99004761D02*
X91476247Y-98909523D01*
X91476247Y-98909523D02*
X91428628Y-98861904D01*
X91428628Y-98861904D02*
X91333390Y-98814285D01*
X85297080Y-95567857D02*
X85344700Y-95615476D01*
X85344700Y-95615476D02*
X85392319Y-95758333D01*
X85392319Y-95758333D02*
X85392319Y-95853571D01*
X85392319Y-95853571D02*
X85344700Y-95996428D01*
X85344700Y-95996428D02*
X85249461Y-96091666D01*
X85249461Y-96091666D02*
X85154223Y-96139285D01*
X85154223Y-96139285D02*
X84963747Y-96186904D01*
X84963747Y-96186904D02*
X84820890Y-96186904D01*
X84820890Y-96186904D02*
X84630414Y-96139285D01*
X84630414Y-96139285D02*
X84535176Y-96091666D01*
X84535176Y-96091666D02*
X84439938Y-95996428D01*
X84439938Y-95996428D02*
X84392319Y-95853571D01*
X84392319Y-95853571D02*
X84392319Y-95758333D01*
X84392319Y-95758333D02*
X84439938Y-95615476D01*
X84439938Y-95615476D02*
X84487557Y-95567857D01*
X85392319Y-94615476D02*
X85392319Y-95186904D01*
X85392319Y-94901190D02*
X84392319Y-94901190D01*
X84392319Y-94901190D02*
X84535176Y-94996428D01*
X84535176Y-94996428D02*
X84630414Y-95091666D01*
X84630414Y-95091666D02*
X84678033Y-95186904D01*
X84487557Y-94234523D02*
X84439938Y-94186904D01*
X84439938Y-94186904D02*
X84392319Y-94091666D01*
X84392319Y-94091666D02*
X84392319Y-93853571D01*
X84392319Y-93853571D02*
X84439938Y-93758333D01*
X84439938Y-93758333D02*
X84487557Y-93710714D01*
X84487557Y-93710714D02*
X84582795Y-93663095D01*
X84582795Y-93663095D02*
X84678033Y-93663095D01*
X84678033Y-93663095D02*
X84820890Y-93710714D01*
X84820890Y-93710714D02*
X85392319Y-94282142D01*
X85392319Y-94282142D02*
X85392319Y-93663095D01*
X74532142Y-110653330D02*
X74484523Y-110700950D01*
X74484523Y-110700950D02*
X74341666Y-110748569D01*
X74341666Y-110748569D02*
X74246428Y-110748569D01*
X74246428Y-110748569D02*
X74103571Y-110700950D01*
X74103571Y-110700950D02*
X74008333Y-110605711D01*
X74008333Y-110605711D02*
X73960714Y-110510473D01*
X73960714Y-110510473D02*
X73913095Y-110319997D01*
X73913095Y-110319997D02*
X73913095Y-110177140D01*
X73913095Y-110177140D02*
X73960714Y-109986664D01*
X73960714Y-109986664D02*
X74008333Y-109891426D01*
X74008333Y-109891426D02*
X74103571Y-109796188D01*
X74103571Y-109796188D02*
X74246428Y-109748569D01*
X74246428Y-109748569D02*
X74341666Y-109748569D01*
X74341666Y-109748569D02*
X74484523Y-109796188D01*
X74484523Y-109796188D02*
X74532142Y-109843807D01*
X75484523Y-110748569D02*
X74913095Y-110748569D01*
X75198809Y-110748569D02*
X75198809Y-109748569D01*
X75198809Y-109748569D02*
X75103571Y-109891426D01*
X75103571Y-109891426D02*
X75008333Y-109986664D01*
X75008333Y-109986664D02*
X74913095Y-110034283D01*
X76103571Y-109748569D02*
X76198809Y-109748569D01*
X76198809Y-109748569D02*
X76294047Y-109796188D01*
X76294047Y-109796188D02*
X76341666Y-109843807D01*
X76341666Y-109843807D02*
X76389285Y-109939045D01*
X76389285Y-109939045D02*
X76436904Y-110129521D01*
X76436904Y-110129521D02*
X76436904Y-110367616D01*
X76436904Y-110367616D02*
X76389285Y-110558092D01*
X76389285Y-110558092D02*
X76341666Y-110653330D01*
X76341666Y-110653330D02*
X76294047Y-110700950D01*
X76294047Y-110700950D02*
X76198809Y-110748569D01*
X76198809Y-110748569D02*
X76103571Y-110748569D01*
X76103571Y-110748569D02*
X76008333Y-110700950D01*
X76008333Y-110700950D02*
X75960714Y-110653330D01*
X75960714Y-110653330D02*
X75913095Y-110558092D01*
X75913095Y-110558092D02*
X75865476Y-110367616D01*
X75865476Y-110367616D02*
X75865476Y-110129521D01*
X75865476Y-110129521D02*
X75913095Y-109939045D01*
X75913095Y-109939045D02*
X75960714Y-109843807D01*
X75960714Y-109843807D02*
X76008333Y-109796188D01*
X76008333Y-109796188D02*
X76103571Y-109748569D01*
X97657142Y-89929580D02*
X97609523Y-89977200D01*
X97609523Y-89977200D02*
X97466666Y-90024819D01*
X97466666Y-90024819D02*
X97371428Y-90024819D01*
X97371428Y-90024819D02*
X97228571Y-89977200D01*
X97228571Y-89977200D02*
X97133333Y-89881961D01*
X97133333Y-89881961D02*
X97085714Y-89786723D01*
X97085714Y-89786723D02*
X97038095Y-89596247D01*
X97038095Y-89596247D02*
X97038095Y-89453390D01*
X97038095Y-89453390D02*
X97085714Y-89262914D01*
X97085714Y-89262914D02*
X97133333Y-89167676D01*
X97133333Y-89167676D02*
X97228571Y-89072438D01*
X97228571Y-89072438D02*
X97371428Y-89024819D01*
X97371428Y-89024819D02*
X97466666Y-89024819D01*
X97466666Y-89024819D02*
X97609523Y-89072438D01*
X97609523Y-89072438D02*
X97657142Y-89120057D01*
X98609523Y-90024819D02*
X98038095Y-90024819D01*
X98323809Y-90024819D02*
X98323809Y-89024819D01*
X98323809Y-89024819D02*
X98228571Y-89167676D01*
X98228571Y-89167676D02*
X98133333Y-89262914D01*
X98133333Y-89262914D02*
X98038095Y-89310533D01*
X99085714Y-90024819D02*
X99276190Y-90024819D01*
X99276190Y-90024819D02*
X99371428Y-89977200D01*
X99371428Y-89977200D02*
X99419047Y-89929580D01*
X99419047Y-89929580D02*
X99514285Y-89786723D01*
X99514285Y-89786723D02*
X99561904Y-89596247D01*
X99561904Y-89596247D02*
X99561904Y-89215295D01*
X99561904Y-89215295D02*
X99514285Y-89120057D01*
X99514285Y-89120057D02*
X99466666Y-89072438D01*
X99466666Y-89072438D02*
X99371428Y-89024819D01*
X99371428Y-89024819D02*
X99180952Y-89024819D01*
X99180952Y-89024819D02*
X99085714Y-89072438D01*
X99085714Y-89072438D02*
X99038095Y-89120057D01*
X99038095Y-89120057D02*
X98990476Y-89215295D01*
X98990476Y-89215295D02*
X98990476Y-89453390D01*
X98990476Y-89453390D02*
X99038095Y-89548628D01*
X99038095Y-89548628D02*
X99085714Y-89596247D01*
X99085714Y-89596247D02*
X99180952Y-89643866D01*
X99180952Y-89643866D02*
X99371428Y-89643866D01*
X99371428Y-89643866D02*
X99466666Y-89596247D01*
X99466666Y-89596247D02*
X99514285Y-89548628D01*
X99514285Y-89548628D02*
X99561904Y-89453390D01*
X94138095Y-110656819D02*
X94709523Y-110656819D01*
X94423809Y-111656819D02*
X94423809Y-110656819D01*
X95042857Y-111656819D02*
X95042857Y-110656819D01*
X95042857Y-110656819D02*
X95423809Y-110656819D01*
X95423809Y-110656819D02*
X95519047Y-110704438D01*
X95519047Y-110704438D02*
X95566666Y-110752057D01*
X95566666Y-110752057D02*
X95614285Y-110847295D01*
X95614285Y-110847295D02*
X95614285Y-110990152D01*
X95614285Y-110990152D02*
X95566666Y-111085390D01*
X95566666Y-111085390D02*
X95519047Y-111133009D01*
X95519047Y-111133009D02*
X95423809Y-111180628D01*
X95423809Y-111180628D02*
X95042857Y-111180628D01*
X96566666Y-111656819D02*
X95995238Y-111656819D01*
X96280952Y-111656819D02*
X96280952Y-110656819D01*
X96280952Y-110656819D02*
X96185714Y-110799676D01*
X96185714Y-110799676D02*
X96090476Y-110894914D01*
X96090476Y-110894914D02*
X95995238Y-110942533D01*
X103916666Y-100504819D02*
X103916666Y-101219104D01*
X103916666Y-101219104D02*
X103869047Y-101361961D01*
X103869047Y-101361961D02*
X103773809Y-101457200D01*
X103773809Y-101457200D02*
X103630952Y-101504819D01*
X103630952Y-101504819D02*
X103535714Y-101504819D01*
X104916666Y-101504819D02*
X104345238Y-101504819D01*
X104630952Y-101504819D02*
X104630952Y-100504819D01*
X104630952Y-100504819D02*
X104535714Y-100647676D01*
X104535714Y-100647676D02*
X104440476Y-100742914D01*
X104440476Y-100742914D02*
X104345238Y-100790533D01*
X101011904Y-91304819D02*
X101011904Y-92019104D01*
X101011904Y-92019104D02*
X100964285Y-92161961D01*
X100964285Y-92161961D02*
X100869047Y-92257200D01*
X100869047Y-92257200D02*
X100726190Y-92304819D01*
X100726190Y-92304819D02*
X100630952Y-92304819D01*
X101345238Y-91304819D02*
X101916666Y-91304819D01*
X101630952Y-92304819D02*
X101630952Y-91304819D01*
X102202381Y-92019104D02*
X102678571Y-92019104D01*
X102107143Y-92304819D02*
X102440476Y-91304819D01*
X102440476Y-91304819D02*
X102773809Y-92304819D01*
X103630952Y-91352438D02*
X103535714Y-91304819D01*
X103535714Y-91304819D02*
X103392857Y-91304819D01*
X103392857Y-91304819D02*
X103250000Y-91352438D01*
X103250000Y-91352438D02*
X103154762Y-91447676D01*
X103154762Y-91447676D02*
X103107143Y-91542914D01*
X103107143Y-91542914D02*
X103059524Y-91733390D01*
X103059524Y-91733390D02*
X103059524Y-91876247D01*
X103059524Y-91876247D02*
X103107143Y-92066723D01*
X103107143Y-92066723D02*
X103154762Y-92161961D01*
X103154762Y-92161961D02*
X103250000Y-92257200D01*
X103250000Y-92257200D02*
X103392857Y-92304819D01*
X103392857Y-92304819D02*
X103488095Y-92304819D01*
X103488095Y-92304819D02*
X103630952Y-92257200D01*
X103630952Y-92257200D02*
X103678571Y-92209580D01*
X103678571Y-92209580D02*
X103678571Y-91876247D01*
X103678571Y-91876247D02*
X103488095Y-91876247D01*
X104821428Y-91257200D02*
X103964286Y-92542914D01*
X105107143Y-92257200D02*
X105250000Y-92304819D01*
X105250000Y-92304819D02*
X105488095Y-92304819D01*
X105488095Y-92304819D02*
X105583333Y-92257200D01*
X105583333Y-92257200D02*
X105630952Y-92209580D01*
X105630952Y-92209580D02*
X105678571Y-92114342D01*
X105678571Y-92114342D02*
X105678571Y-92019104D01*
X105678571Y-92019104D02*
X105630952Y-91923866D01*
X105630952Y-91923866D02*
X105583333Y-91876247D01*
X105583333Y-91876247D02*
X105488095Y-91828628D01*
X105488095Y-91828628D02*
X105297619Y-91781009D01*
X105297619Y-91781009D02*
X105202381Y-91733390D01*
X105202381Y-91733390D02*
X105154762Y-91685771D01*
X105154762Y-91685771D02*
X105107143Y-91590533D01*
X105107143Y-91590533D02*
X105107143Y-91495295D01*
X105107143Y-91495295D02*
X105154762Y-91400057D01*
X105154762Y-91400057D02*
X105202381Y-91352438D01*
X105202381Y-91352438D02*
X105297619Y-91304819D01*
X105297619Y-91304819D02*
X105535714Y-91304819D01*
X105535714Y-91304819D02*
X105678571Y-91352438D01*
X106011905Y-91304819D02*
X106250000Y-92304819D01*
X106250000Y-92304819D02*
X106440476Y-91590533D01*
X106440476Y-91590533D02*
X106630952Y-92304819D01*
X106630952Y-92304819D02*
X106869048Y-91304819D01*
X107250000Y-92304819D02*
X107250000Y-91304819D01*
X107250000Y-91304819D02*
X107488095Y-91304819D01*
X107488095Y-91304819D02*
X107630952Y-91352438D01*
X107630952Y-91352438D02*
X107726190Y-91447676D01*
X107726190Y-91447676D02*
X107773809Y-91542914D01*
X107773809Y-91542914D02*
X107821428Y-91733390D01*
X107821428Y-91733390D02*
X107821428Y-91876247D01*
X107821428Y-91876247D02*
X107773809Y-92066723D01*
X107773809Y-92066723D02*
X107726190Y-92161961D01*
X107726190Y-92161961D02*
X107630952Y-92257200D01*
X107630952Y-92257200D02*
X107488095Y-92304819D01*
X107488095Y-92304819D02*
X107250000Y-92304819D01*
X78558333Y-122479819D02*
X78225000Y-122003628D01*
X77986905Y-122479819D02*
X77986905Y-121479819D01*
X77986905Y-121479819D02*
X78367857Y-121479819D01*
X78367857Y-121479819D02*
X78463095Y-121527438D01*
X78463095Y-121527438D02*
X78510714Y-121575057D01*
X78510714Y-121575057D02*
X78558333Y-121670295D01*
X78558333Y-121670295D02*
X78558333Y-121813152D01*
X78558333Y-121813152D02*
X78510714Y-121908390D01*
X78510714Y-121908390D02*
X78463095Y-121956009D01*
X78463095Y-121956009D02*
X78367857Y-122003628D01*
X78367857Y-122003628D02*
X77986905Y-122003628D01*
X79463095Y-121479819D02*
X78986905Y-121479819D01*
X78986905Y-121479819D02*
X78939286Y-121956009D01*
X78939286Y-121956009D02*
X78986905Y-121908390D01*
X78986905Y-121908390D02*
X79082143Y-121860771D01*
X79082143Y-121860771D02*
X79320238Y-121860771D01*
X79320238Y-121860771D02*
X79415476Y-121908390D01*
X79415476Y-121908390D02*
X79463095Y-121956009D01*
X79463095Y-121956009D02*
X79510714Y-122051247D01*
X79510714Y-122051247D02*
X79510714Y-122289342D01*
X79510714Y-122289342D02*
X79463095Y-122384580D01*
X79463095Y-122384580D02*
X79415476Y-122432200D01*
X79415476Y-122432200D02*
X79320238Y-122479819D01*
X79320238Y-122479819D02*
X79082143Y-122479819D01*
X79082143Y-122479819D02*
X78986905Y-122432200D01*
X78986905Y-122432200D02*
X78939286Y-122384580D01*
X92107142Y-102059580D02*
X92059523Y-102107200D01*
X92059523Y-102107200D02*
X91916666Y-102154819D01*
X91916666Y-102154819D02*
X91821428Y-102154819D01*
X91821428Y-102154819D02*
X91678571Y-102107200D01*
X91678571Y-102107200D02*
X91583333Y-102011961D01*
X91583333Y-102011961D02*
X91535714Y-101916723D01*
X91535714Y-101916723D02*
X91488095Y-101726247D01*
X91488095Y-101726247D02*
X91488095Y-101583390D01*
X91488095Y-101583390D02*
X91535714Y-101392914D01*
X91535714Y-101392914D02*
X91583333Y-101297676D01*
X91583333Y-101297676D02*
X91678571Y-101202438D01*
X91678571Y-101202438D02*
X91821428Y-101154819D01*
X91821428Y-101154819D02*
X91916666Y-101154819D01*
X91916666Y-101154819D02*
X92059523Y-101202438D01*
X92059523Y-101202438D02*
X92107142Y-101250057D01*
X93059523Y-102154819D02*
X92488095Y-102154819D01*
X92773809Y-102154819D02*
X92773809Y-101154819D01*
X92773809Y-101154819D02*
X92678571Y-101297676D01*
X92678571Y-101297676D02*
X92583333Y-101392914D01*
X92583333Y-101392914D02*
X92488095Y-101440533D01*
X93916666Y-101488152D02*
X93916666Y-102154819D01*
X93678571Y-101107200D02*
X93440476Y-101821485D01*
X93440476Y-101821485D02*
X94059523Y-101821485D01*
X78512095Y-103404819D02*
X78512095Y-104214342D01*
X78512095Y-104214342D02*
X78559714Y-104309580D01*
X78559714Y-104309580D02*
X78607333Y-104357200D01*
X78607333Y-104357200D02*
X78702571Y-104404819D01*
X78702571Y-104404819D02*
X78893047Y-104404819D01*
X78893047Y-104404819D02*
X78988285Y-104357200D01*
X78988285Y-104357200D02*
X79035904Y-104309580D01*
X79035904Y-104309580D02*
X79083523Y-104214342D01*
X79083523Y-104214342D02*
X79083523Y-103404819D01*
X79702571Y-103833390D02*
X79607333Y-103785771D01*
X79607333Y-103785771D02*
X79559714Y-103738152D01*
X79559714Y-103738152D02*
X79512095Y-103642914D01*
X79512095Y-103642914D02*
X79512095Y-103595295D01*
X79512095Y-103595295D02*
X79559714Y-103500057D01*
X79559714Y-103500057D02*
X79607333Y-103452438D01*
X79607333Y-103452438D02*
X79702571Y-103404819D01*
X79702571Y-103404819D02*
X79893047Y-103404819D01*
X79893047Y-103404819D02*
X79988285Y-103452438D01*
X79988285Y-103452438D02*
X80035904Y-103500057D01*
X80035904Y-103500057D02*
X80083523Y-103595295D01*
X80083523Y-103595295D02*
X80083523Y-103642914D01*
X80083523Y-103642914D02*
X80035904Y-103738152D01*
X80035904Y-103738152D02*
X79988285Y-103785771D01*
X79988285Y-103785771D02*
X79893047Y-103833390D01*
X79893047Y-103833390D02*
X79702571Y-103833390D01*
X79702571Y-103833390D02*
X79607333Y-103881009D01*
X79607333Y-103881009D02*
X79559714Y-103928628D01*
X79559714Y-103928628D02*
X79512095Y-104023866D01*
X79512095Y-104023866D02*
X79512095Y-104214342D01*
X79512095Y-104214342D02*
X79559714Y-104309580D01*
X79559714Y-104309580D02*
X79607333Y-104357200D01*
X79607333Y-104357200D02*
X79702571Y-104404819D01*
X79702571Y-104404819D02*
X79893047Y-104404819D01*
X79893047Y-104404819D02*
X79988285Y-104357200D01*
X79988285Y-104357200D02*
X80035904Y-104309580D01*
X80035904Y-104309580D02*
X80083523Y-104214342D01*
X80083523Y-104214342D02*
X80083523Y-104023866D01*
X80083523Y-104023866D02*
X80035904Y-103928628D01*
X80035904Y-103928628D02*
X79988285Y-103881009D01*
X79988285Y-103881009D02*
X79893047Y-103833390D01*
X79182280Y-83987314D02*
X78706089Y-84320647D01*
X79182280Y-84558742D02*
X78182280Y-84558742D01*
X78182280Y-84558742D02*
X78182280Y-84177790D01*
X78182280Y-84177790D02*
X78229899Y-84082552D01*
X78229899Y-84082552D02*
X78277518Y-84034933D01*
X78277518Y-84034933D02*
X78372756Y-83987314D01*
X78372756Y-83987314D02*
X78515613Y-83987314D01*
X78515613Y-83987314D02*
X78610851Y-84034933D01*
X78610851Y-84034933D02*
X78658470Y-84082552D01*
X78658470Y-84082552D02*
X78706089Y-84177790D01*
X78706089Y-84177790D02*
X78706089Y-84558742D01*
X78515613Y-83130171D02*
X79182280Y-83130171D01*
X78134661Y-83368266D02*
X78848946Y-83606361D01*
X78848946Y-83606361D02*
X78848946Y-82987314D01*
X86409580Y-111692857D02*
X86457200Y-111740476D01*
X86457200Y-111740476D02*
X86504819Y-111883333D01*
X86504819Y-111883333D02*
X86504819Y-111978571D01*
X86504819Y-111978571D02*
X86457200Y-112121428D01*
X86457200Y-112121428D02*
X86361961Y-112216666D01*
X86361961Y-112216666D02*
X86266723Y-112264285D01*
X86266723Y-112264285D02*
X86076247Y-112311904D01*
X86076247Y-112311904D02*
X85933390Y-112311904D01*
X85933390Y-112311904D02*
X85742914Y-112264285D01*
X85742914Y-112264285D02*
X85647676Y-112216666D01*
X85647676Y-112216666D02*
X85552438Y-112121428D01*
X85552438Y-112121428D02*
X85504819Y-111978571D01*
X85504819Y-111978571D02*
X85504819Y-111883333D01*
X85504819Y-111883333D02*
X85552438Y-111740476D01*
X85552438Y-111740476D02*
X85600057Y-111692857D01*
X86504819Y-110740476D02*
X86504819Y-111311904D01*
X86504819Y-111026190D02*
X85504819Y-111026190D01*
X85504819Y-111026190D02*
X85647676Y-111121428D01*
X85647676Y-111121428D02*
X85742914Y-111216666D01*
X85742914Y-111216666D02*
X85790533Y-111311904D01*
X85504819Y-110407142D02*
X85504819Y-109788095D01*
X85504819Y-109788095D02*
X85885771Y-110121428D01*
X85885771Y-110121428D02*
X85885771Y-109978571D01*
X85885771Y-109978571D02*
X85933390Y-109883333D01*
X85933390Y-109883333D02*
X85981009Y-109835714D01*
X85981009Y-109835714D02*
X86076247Y-109788095D01*
X86076247Y-109788095D02*
X86314342Y-109788095D01*
X86314342Y-109788095D02*
X86409580Y-109835714D01*
X86409580Y-109835714D02*
X86457200Y-109883333D01*
X86457200Y-109883333D02*
X86504819Y-109978571D01*
X86504819Y-109978571D02*
X86504819Y-110264285D01*
X86504819Y-110264285D02*
X86457200Y-110359523D01*
X86457200Y-110359523D02*
X86409580Y-110407142D01*
X99233333Y-121804819D02*
X98757143Y-121804819D01*
X98757143Y-121804819D02*
X98757143Y-120804819D01*
X100090476Y-121804819D02*
X99519048Y-121804819D01*
X99804762Y-121804819D02*
X99804762Y-120804819D01*
X99804762Y-120804819D02*
X99709524Y-120947676D01*
X99709524Y-120947676D02*
X99614286Y-121042914D01*
X99614286Y-121042914D02*
X99519048Y-121090533D01*
X75433333Y-118454819D02*
X75100000Y-117978628D01*
X74861905Y-118454819D02*
X74861905Y-117454819D01*
X74861905Y-117454819D02*
X75242857Y-117454819D01*
X75242857Y-117454819D02*
X75338095Y-117502438D01*
X75338095Y-117502438D02*
X75385714Y-117550057D01*
X75385714Y-117550057D02*
X75433333Y-117645295D01*
X75433333Y-117645295D02*
X75433333Y-117788152D01*
X75433333Y-117788152D02*
X75385714Y-117883390D01*
X75385714Y-117883390D02*
X75338095Y-117931009D01*
X75338095Y-117931009D02*
X75242857Y-117978628D01*
X75242857Y-117978628D02*
X74861905Y-117978628D01*
X75909524Y-118454819D02*
X76100000Y-118454819D01*
X76100000Y-118454819D02*
X76195238Y-118407200D01*
X76195238Y-118407200D02*
X76242857Y-118359580D01*
X76242857Y-118359580D02*
X76338095Y-118216723D01*
X76338095Y-118216723D02*
X76385714Y-118026247D01*
X76385714Y-118026247D02*
X76385714Y-117645295D01*
X76385714Y-117645295D02*
X76338095Y-117550057D01*
X76338095Y-117550057D02*
X76290476Y-117502438D01*
X76290476Y-117502438D02*
X76195238Y-117454819D01*
X76195238Y-117454819D02*
X76004762Y-117454819D01*
X76004762Y-117454819D02*
X75909524Y-117502438D01*
X75909524Y-117502438D02*
X75861905Y-117550057D01*
X75861905Y-117550057D02*
X75814286Y-117645295D01*
X75814286Y-117645295D02*
X75814286Y-117883390D01*
X75814286Y-117883390D02*
X75861905Y-117978628D01*
X75861905Y-117978628D02*
X75909524Y-118026247D01*
X75909524Y-118026247D02*
X76004762Y-118073866D01*
X76004762Y-118073866D02*
X76195238Y-118073866D01*
X76195238Y-118073866D02*
X76290476Y-118026247D01*
X76290476Y-118026247D02*
X76338095Y-117978628D01*
X76338095Y-117978628D02*
X76385714Y-117883390D01*
X97257142Y-93609580D02*
X97209523Y-93657200D01*
X97209523Y-93657200D02*
X97066666Y-93704819D01*
X97066666Y-93704819D02*
X96971428Y-93704819D01*
X96971428Y-93704819D02*
X96828571Y-93657200D01*
X96828571Y-93657200D02*
X96733333Y-93561961D01*
X96733333Y-93561961D02*
X96685714Y-93466723D01*
X96685714Y-93466723D02*
X96638095Y-93276247D01*
X96638095Y-93276247D02*
X96638095Y-93133390D01*
X96638095Y-93133390D02*
X96685714Y-92942914D01*
X96685714Y-92942914D02*
X96733333Y-92847676D01*
X96733333Y-92847676D02*
X96828571Y-92752438D01*
X96828571Y-92752438D02*
X96971428Y-92704819D01*
X96971428Y-92704819D02*
X97066666Y-92704819D01*
X97066666Y-92704819D02*
X97209523Y-92752438D01*
X97209523Y-92752438D02*
X97257142Y-92800057D01*
X98209523Y-93704819D02*
X97638095Y-93704819D01*
X97923809Y-93704819D02*
X97923809Y-92704819D01*
X97923809Y-92704819D02*
X97828571Y-92847676D01*
X97828571Y-92847676D02*
X97733333Y-92942914D01*
X97733333Y-92942914D02*
X97638095Y-92990533D01*
X98780952Y-93133390D02*
X98685714Y-93085771D01*
X98685714Y-93085771D02*
X98638095Y-93038152D01*
X98638095Y-93038152D02*
X98590476Y-92942914D01*
X98590476Y-92942914D02*
X98590476Y-92895295D01*
X98590476Y-92895295D02*
X98638095Y-92800057D01*
X98638095Y-92800057D02*
X98685714Y-92752438D01*
X98685714Y-92752438D02*
X98780952Y-92704819D01*
X98780952Y-92704819D02*
X98971428Y-92704819D01*
X98971428Y-92704819D02*
X99066666Y-92752438D01*
X99066666Y-92752438D02*
X99114285Y-92800057D01*
X99114285Y-92800057D02*
X99161904Y-92895295D01*
X99161904Y-92895295D02*
X99161904Y-92942914D01*
X99161904Y-92942914D02*
X99114285Y-93038152D01*
X99114285Y-93038152D02*
X99066666Y-93085771D01*
X99066666Y-93085771D02*
X98971428Y-93133390D01*
X98971428Y-93133390D02*
X98780952Y-93133390D01*
X98780952Y-93133390D02*
X98685714Y-93181009D01*
X98685714Y-93181009D02*
X98638095Y-93228628D01*
X98638095Y-93228628D02*
X98590476Y-93323866D01*
X98590476Y-93323866D02*
X98590476Y-93514342D01*
X98590476Y-93514342D02*
X98638095Y-93609580D01*
X98638095Y-93609580D02*
X98685714Y-93657200D01*
X98685714Y-93657200D02*
X98780952Y-93704819D01*
X98780952Y-93704819D02*
X98971428Y-93704819D01*
X98971428Y-93704819D02*
X99066666Y-93657200D01*
X99066666Y-93657200D02*
X99114285Y-93609580D01*
X99114285Y-93609580D02*
X99161904Y-93514342D01*
X99161904Y-93514342D02*
X99161904Y-93323866D01*
X99161904Y-93323866D02*
X99114285Y-93228628D01*
X99114285Y-93228628D02*
X99066666Y-93181009D01*
X99066666Y-93181009D02*
X98971428Y-93133390D01*
X75408333Y-112353330D02*
X75360714Y-112400950D01*
X75360714Y-112400950D02*
X75217857Y-112448569D01*
X75217857Y-112448569D02*
X75122619Y-112448569D01*
X75122619Y-112448569D02*
X74979762Y-112400950D01*
X74979762Y-112400950D02*
X74884524Y-112305711D01*
X74884524Y-112305711D02*
X74836905Y-112210473D01*
X74836905Y-112210473D02*
X74789286Y-112019997D01*
X74789286Y-112019997D02*
X74789286Y-111877140D01*
X74789286Y-111877140D02*
X74836905Y-111686664D01*
X74836905Y-111686664D02*
X74884524Y-111591426D01*
X74884524Y-111591426D02*
X74979762Y-111496188D01*
X74979762Y-111496188D02*
X75122619Y-111448569D01*
X75122619Y-111448569D02*
X75217857Y-111448569D01*
X75217857Y-111448569D02*
X75360714Y-111496188D01*
X75360714Y-111496188D02*
X75408333Y-111543807D01*
X75741667Y-111448569D02*
X76408333Y-111448569D01*
X76408333Y-111448569D02*
X75979762Y-112448569D01*
X84691666Y-121754819D02*
X84691666Y-122469104D01*
X84691666Y-122469104D02*
X84644047Y-122611961D01*
X84644047Y-122611961D02*
X84548809Y-122707200D01*
X84548809Y-122707200D02*
X84405952Y-122754819D01*
X84405952Y-122754819D02*
X84310714Y-122754819D01*
X85120238Y-121850057D02*
X85167857Y-121802438D01*
X85167857Y-121802438D02*
X85263095Y-121754819D01*
X85263095Y-121754819D02*
X85501190Y-121754819D01*
X85501190Y-121754819D02*
X85596428Y-121802438D01*
X85596428Y-121802438D02*
X85644047Y-121850057D01*
X85644047Y-121850057D02*
X85691666Y-121945295D01*
X85691666Y-121945295D02*
X85691666Y-122040533D01*
X85691666Y-122040533D02*
X85644047Y-122183390D01*
X85644047Y-122183390D02*
X85072619Y-122754819D01*
X85072619Y-122754819D02*
X85691666Y-122754819D01*
X90783333Y-96254819D02*
X90450000Y-95778628D01*
X90211905Y-96254819D02*
X90211905Y-95254819D01*
X90211905Y-95254819D02*
X90592857Y-95254819D01*
X90592857Y-95254819D02*
X90688095Y-95302438D01*
X90688095Y-95302438D02*
X90735714Y-95350057D01*
X90735714Y-95350057D02*
X90783333Y-95445295D01*
X90783333Y-95445295D02*
X90783333Y-95588152D01*
X90783333Y-95588152D02*
X90735714Y-95683390D01*
X90735714Y-95683390D02*
X90688095Y-95731009D01*
X90688095Y-95731009D02*
X90592857Y-95778628D01*
X90592857Y-95778628D02*
X90211905Y-95778628D01*
X91735714Y-96254819D02*
X91164286Y-96254819D01*
X91450000Y-96254819D02*
X91450000Y-95254819D01*
X91450000Y-95254819D02*
X91354762Y-95397676D01*
X91354762Y-95397676D02*
X91259524Y-95492914D01*
X91259524Y-95492914D02*
X91164286Y-95540533D01*
X74559580Y-86666666D02*
X74607200Y-86714285D01*
X74607200Y-86714285D02*
X74654819Y-86857142D01*
X74654819Y-86857142D02*
X74654819Y-86952380D01*
X74654819Y-86952380D02*
X74607200Y-87095237D01*
X74607200Y-87095237D02*
X74511961Y-87190475D01*
X74511961Y-87190475D02*
X74416723Y-87238094D01*
X74416723Y-87238094D02*
X74226247Y-87285713D01*
X74226247Y-87285713D02*
X74083390Y-87285713D01*
X74083390Y-87285713D02*
X73892914Y-87238094D01*
X73892914Y-87238094D02*
X73797676Y-87190475D01*
X73797676Y-87190475D02*
X73702438Y-87095237D01*
X73702438Y-87095237D02*
X73654819Y-86952380D01*
X73654819Y-86952380D02*
X73654819Y-86857142D01*
X73654819Y-86857142D02*
X73702438Y-86714285D01*
X73702438Y-86714285D02*
X73750057Y-86666666D01*
X73654819Y-85761904D02*
X73654819Y-86238094D01*
X73654819Y-86238094D02*
X74131009Y-86285713D01*
X74131009Y-86285713D02*
X74083390Y-86238094D01*
X74083390Y-86238094D02*
X74035771Y-86142856D01*
X74035771Y-86142856D02*
X74035771Y-85904761D01*
X74035771Y-85904761D02*
X74083390Y-85809523D01*
X74083390Y-85809523D02*
X74131009Y-85761904D01*
X74131009Y-85761904D02*
X74226247Y-85714285D01*
X74226247Y-85714285D02*
X74464342Y-85714285D01*
X74464342Y-85714285D02*
X74559580Y-85761904D01*
X74559580Y-85761904D02*
X74607200Y-85809523D01*
X74607200Y-85809523D02*
X74654819Y-85904761D01*
X74654819Y-85904761D02*
X74654819Y-86142856D01*
X74654819Y-86142856D02*
X74607200Y-86238094D01*
X74607200Y-86238094D02*
X74559580Y-86285713D01*
X71666667Y-128657200D02*
X71809524Y-128704819D01*
X71809524Y-128704819D02*
X72047619Y-128704819D01*
X72047619Y-128704819D02*
X72142857Y-128657200D01*
X72142857Y-128657200D02*
X72190476Y-128609580D01*
X72190476Y-128609580D02*
X72238095Y-128514342D01*
X72238095Y-128514342D02*
X72238095Y-128419104D01*
X72238095Y-128419104D02*
X72190476Y-128323866D01*
X72190476Y-128323866D02*
X72142857Y-128276247D01*
X72142857Y-128276247D02*
X72047619Y-128228628D01*
X72047619Y-128228628D02*
X71857143Y-128181009D01*
X71857143Y-128181009D02*
X71761905Y-128133390D01*
X71761905Y-128133390D02*
X71714286Y-128085771D01*
X71714286Y-128085771D02*
X71666667Y-127990533D01*
X71666667Y-127990533D02*
X71666667Y-127895295D01*
X71666667Y-127895295D02*
X71714286Y-127800057D01*
X71714286Y-127800057D02*
X71761905Y-127752438D01*
X71761905Y-127752438D02*
X71857143Y-127704819D01*
X71857143Y-127704819D02*
X72095238Y-127704819D01*
X72095238Y-127704819D02*
X72238095Y-127752438D01*
X72571429Y-127704819D02*
X72809524Y-128704819D01*
X72809524Y-128704819D02*
X73000000Y-127990533D01*
X73000000Y-127990533D02*
X73190476Y-128704819D01*
X73190476Y-128704819D02*
X73428572Y-127704819D01*
X73761905Y-127800057D02*
X73809524Y-127752438D01*
X73809524Y-127752438D02*
X73904762Y-127704819D01*
X73904762Y-127704819D02*
X74142857Y-127704819D01*
X74142857Y-127704819D02*
X74238095Y-127752438D01*
X74238095Y-127752438D02*
X74285714Y-127800057D01*
X74285714Y-127800057D02*
X74333333Y-127895295D01*
X74333333Y-127895295D02*
X74333333Y-127990533D01*
X74333333Y-127990533D02*
X74285714Y-128133390D01*
X74285714Y-128133390D02*
X73714286Y-128704819D01*
X73714286Y-128704819D02*
X74333333Y-128704819D01*
X71135714Y-119004819D02*
X71135714Y-119814342D01*
X71135714Y-119814342D02*
X71183333Y-119909580D01*
X71183333Y-119909580D02*
X71230952Y-119957200D01*
X71230952Y-119957200D02*
X71326190Y-120004819D01*
X71326190Y-120004819D02*
X71516666Y-120004819D01*
X71516666Y-120004819D02*
X71611904Y-119957200D01*
X71611904Y-119957200D02*
X71659523Y-119909580D01*
X71659523Y-119909580D02*
X71707142Y-119814342D01*
X71707142Y-119814342D02*
X71707142Y-119004819D01*
X72135714Y-119957200D02*
X72278571Y-120004819D01*
X72278571Y-120004819D02*
X72516666Y-120004819D01*
X72516666Y-120004819D02*
X72611904Y-119957200D01*
X72611904Y-119957200D02*
X72659523Y-119909580D01*
X72659523Y-119909580D02*
X72707142Y-119814342D01*
X72707142Y-119814342D02*
X72707142Y-119719104D01*
X72707142Y-119719104D02*
X72659523Y-119623866D01*
X72659523Y-119623866D02*
X72611904Y-119576247D01*
X72611904Y-119576247D02*
X72516666Y-119528628D01*
X72516666Y-119528628D02*
X72326190Y-119481009D01*
X72326190Y-119481009D02*
X72230952Y-119433390D01*
X72230952Y-119433390D02*
X72183333Y-119385771D01*
X72183333Y-119385771D02*
X72135714Y-119290533D01*
X72135714Y-119290533D02*
X72135714Y-119195295D01*
X72135714Y-119195295D02*
X72183333Y-119100057D01*
X72183333Y-119100057D02*
X72230952Y-119052438D01*
X72230952Y-119052438D02*
X72326190Y-119004819D01*
X72326190Y-119004819D02*
X72564285Y-119004819D01*
X72564285Y-119004819D02*
X72707142Y-119052438D01*
X73135714Y-119481009D02*
X73469047Y-119481009D01*
X73611904Y-120004819D02*
X73135714Y-120004819D01*
X73135714Y-120004819D02*
X73135714Y-119004819D01*
X73135714Y-119004819D02*
X73611904Y-119004819D01*
X74611904Y-120004819D02*
X74278571Y-119528628D01*
X74040476Y-120004819D02*
X74040476Y-119004819D01*
X74040476Y-119004819D02*
X74421428Y-119004819D01*
X74421428Y-119004819D02*
X74516666Y-119052438D01*
X74516666Y-119052438D02*
X74564285Y-119100057D01*
X74564285Y-119100057D02*
X74611904Y-119195295D01*
X74611904Y-119195295D02*
X74611904Y-119338152D01*
X74611904Y-119338152D02*
X74564285Y-119433390D01*
X74564285Y-119433390D02*
X74516666Y-119481009D01*
X74516666Y-119481009D02*
X74421428Y-119528628D01*
X74421428Y-119528628D02*
X74040476Y-119528628D01*
X85583333Y-119404819D02*
X85107143Y-119404819D01*
X85107143Y-119404819D02*
X85107143Y-118404819D01*
X85869048Y-118500057D02*
X85916667Y-118452438D01*
X85916667Y-118452438D02*
X86011905Y-118404819D01*
X86011905Y-118404819D02*
X86250000Y-118404819D01*
X86250000Y-118404819D02*
X86345238Y-118452438D01*
X86345238Y-118452438D02*
X86392857Y-118500057D01*
X86392857Y-118500057D02*
X86440476Y-118595295D01*
X86440476Y-118595295D02*
X86440476Y-118690533D01*
X86440476Y-118690533D02*
X86392857Y-118833390D01*
X86392857Y-118833390D02*
X85821429Y-119404819D01*
X85821429Y-119404819D02*
X86440476Y-119404819D01*
X83727041Y-83992314D02*
X83774661Y-84039933D01*
X83774661Y-84039933D02*
X83822280Y-84182790D01*
X83822280Y-84182790D02*
X83822280Y-84278028D01*
X83822280Y-84278028D02*
X83774661Y-84420885D01*
X83774661Y-84420885D02*
X83679422Y-84516123D01*
X83679422Y-84516123D02*
X83584184Y-84563742D01*
X83584184Y-84563742D02*
X83393708Y-84611361D01*
X83393708Y-84611361D02*
X83250851Y-84611361D01*
X83250851Y-84611361D02*
X83060375Y-84563742D01*
X83060375Y-84563742D02*
X82965137Y-84516123D01*
X82965137Y-84516123D02*
X82869899Y-84420885D01*
X82869899Y-84420885D02*
X82822280Y-84278028D01*
X82822280Y-84278028D02*
X82822280Y-84182790D01*
X82822280Y-84182790D02*
X82869899Y-84039933D01*
X82869899Y-84039933D02*
X82917518Y-83992314D01*
X82822280Y-83658980D02*
X82822280Y-83039933D01*
X82822280Y-83039933D02*
X83203232Y-83373266D01*
X83203232Y-83373266D02*
X83203232Y-83230409D01*
X83203232Y-83230409D02*
X83250851Y-83135171D01*
X83250851Y-83135171D02*
X83298470Y-83087552D01*
X83298470Y-83087552D02*
X83393708Y-83039933D01*
X83393708Y-83039933D02*
X83631803Y-83039933D01*
X83631803Y-83039933D02*
X83727041Y-83087552D01*
X83727041Y-83087552D02*
X83774661Y-83135171D01*
X83774661Y-83135171D02*
X83822280Y-83230409D01*
X83822280Y-83230409D02*
X83822280Y-83516123D01*
X83822280Y-83516123D02*
X83774661Y-83611361D01*
X83774661Y-83611361D02*
X83727041Y-83658980D01*
D11*
%TO.C,C20*%
X98159420Y-88290000D02*
X98440580Y-88290000D01*
X98159420Y-89310000D02*
X98440580Y-89310000D01*
%TO.C,R2*%
X88712258Y-91677500D02*
X88237742Y-91677500D01*
X88712258Y-92722500D02*
X88237742Y-92722500D01*
%TO.C,C8*%
X89015000Y-110709420D02*
X89015000Y-110990580D01*
X90035000Y-110709420D02*
X90035000Y-110990580D01*
%TO.C,C16*%
X78315580Y-113196250D02*
X78034420Y-113196250D01*
X78315580Y-114216250D02*
X78034420Y-114216250D01*
%TO.C,U7*%
X89650000Y-85827500D02*
X87250000Y-85827500D01*
X89650000Y-89037500D02*
X87250000Y-89037500D01*
X89960000Y-89427500D02*
X89960000Y-88947500D01*
X90440000Y-88947500D01*
X89960000Y-89427500D01*
G36*
X89960000Y-89427500D02*
G01*
X89960000Y-88947500D01*
X90440000Y-88947500D01*
X89960000Y-89427500D01*
G37*
%TO.C,C15*%
X78315580Y-114906250D02*
X78034420Y-114906250D01*
X78315580Y-115926250D02*
X78034420Y-115926250D01*
%TO.C,U6*%
X93240000Y-90162500D02*
X93240000Y-89362500D01*
X93240000Y-90162500D02*
X93240000Y-90962500D01*
X96360000Y-90162500D02*
X96360000Y-89362500D01*
X96360000Y-90162500D02*
X96360000Y-90962500D01*
X96640000Y-89102500D02*
X96310000Y-88862500D01*
X96640000Y-88622500D01*
X96640000Y-89102500D01*
G36*
X96640000Y-89102500D02*
G01*
X96310000Y-88862500D01*
X96640000Y-88622500D01*
X96640000Y-89102500D01*
G37*
%TO.C,C1*%
X106990000Y-116640580D02*
X106990000Y-116359420D01*
X108010000Y-116640580D02*
X108010000Y-116359420D01*
D12*
%TO.C,U5*%
X94500000Y-82800000D02*
X94500000Y-87200000D01*
X94500000Y-87200000D02*
X98500000Y-87200000D01*
X95100000Y-82200000D02*
X94500000Y-82800000D01*
X98500000Y-82200000D02*
X95100000Y-82200000D01*
X98500000Y-87200000D02*
X98500000Y-82200000D01*
D10*
X94175000Y-83700000D02*
G75*
G02*
X94025000Y-83700000I-75000J0D01*
G01*
X94025000Y-83700000D02*
G75*
G02*
X94175000Y-83700000I75000J0D01*
G01*
D13*
%TO.C,U3*%
X70050000Y-86090000D02*
X70050000Y-86490000D01*
D12*
X71850000Y-84490000D02*
X71850000Y-84490000D01*
X71850000Y-84590000D02*
X71850000Y-84590000D01*
D13*
X72150000Y-86090000D02*
X72150000Y-86490000D01*
D12*
X71850000Y-84490000D02*
G75*
G02*
X71850000Y-84590000I0J-50000D01*
G01*
X71850000Y-84590000D02*
G75*
G02*
X71850000Y-84490000I0J50000D01*
G01*
D11*
%TO.C,C6*%
X81752500Y-114990580D02*
X81752500Y-114709420D01*
X82772500Y-114990580D02*
X82772500Y-114709420D01*
%TO.C,Y1*%
X83587500Y-110000000D02*
X80887500Y-110000000D01*
X83587500Y-112300000D02*
X83587500Y-110000000D01*
%TO.C,R3*%
X88712258Y-93477500D02*
X88237742Y-93477500D01*
X88712258Y-94522500D02*
X88237742Y-94522500D01*
%TO.C,C4*%
X75390000Y-83915580D02*
X75390000Y-83634420D01*
X76410000Y-83915580D02*
X76410000Y-83634420D01*
%TO.C,U4*%
X81390000Y-101390000D02*
X81865000Y-101390000D01*
X81390000Y-101865000D02*
X81390000Y-101390000D01*
X81390000Y-108135000D02*
X81390000Y-108610000D01*
X81390000Y-108610000D02*
X81865000Y-108610000D01*
X88135000Y-101390000D02*
X88370000Y-101390000D01*
X88610000Y-101865000D02*
X88610000Y-101690000D01*
X88610000Y-108135000D02*
X88610000Y-108610000D01*
X88610000Y-108610000D02*
X88135000Y-108610000D01*
X88940000Y-101630000D02*
X88610000Y-101390000D01*
X88940000Y-101150000D01*
X88940000Y-101630000D01*
G36*
X88940000Y-101630000D02*
G01*
X88610000Y-101390000D01*
X88940000Y-101150000D01*
X88940000Y-101630000D01*
G37*
D12*
%TO.C,U2*%
X79642461Y-85830648D02*
X79642461Y-85980648D01*
X79642461Y-85830648D02*
X79792461Y-85830648D01*
X79642461Y-88530648D02*
X79642461Y-88380648D01*
X79792461Y-88530648D02*
X79642461Y-88530648D01*
X82342461Y-85820648D02*
X82192461Y-85820648D01*
X82342461Y-85830648D02*
X82342461Y-85980648D01*
D11*
X82342461Y-88890648D02*
X82342461Y-88530648D01*
X82702461Y-88530648D01*
X82342461Y-88890648D01*
G36*
X82342461Y-88890648D02*
G01*
X82342461Y-88530648D01*
X82702461Y-88530648D01*
X82342461Y-88890648D01*
G37*
%TO.C,C11*%
X82727500Y-98615580D02*
X82727500Y-98334420D01*
X83747500Y-98615580D02*
X83747500Y-98334420D01*
%TO.C,C2*%
X103659420Y-114840000D02*
X103940580Y-114840000D01*
X103659420Y-115860000D02*
X103940580Y-115860000D01*
%TO.C,U1*%
X104262500Y-116740000D02*
X103462500Y-116740000D01*
X104262500Y-116740000D02*
X105062500Y-116740000D01*
X104262500Y-119860000D02*
X103462500Y-119860000D01*
X104262500Y-119860000D02*
X105062500Y-119860000D01*
X105802500Y-120140000D02*
X105322500Y-120140000D01*
X105562500Y-119810000D01*
X105802500Y-120140000D01*
G36*
X105802500Y-120140000D02*
G01*
X105322500Y-120140000D01*
X105562500Y-119810000D01*
X105802500Y-120140000D01*
G37*
%TO.C,C9*%
X90940000Y-97240580D02*
X90940000Y-96959420D01*
X91960000Y-97240580D02*
X91960000Y-96959420D01*
%TO.C,C12*%
X84427500Y-98615580D02*
X84427500Y-98334420D01*
X85447500Y-98615580D02*
X85447500Y-98334420D01*
%TO.C,C10*%
X78315580Y-109783750D02*
X78034420Y-109783750D01*
X78315580Y-110803750D02*
X78034420Y-110803750D01*
%TO.C,C19*%
X98159420Y-90490000D02*
X98440580Y-90490000D01*
X98159420Y-91510000D02*
X98440580Y-91510000D01*
%TO.C,TP1*%
X96600000Y-113200000D02*
G75*
G02*
X94200000Y-113200000I-1200000J0D01*
G01*
X94200000Y-113200000D02*
G75*
G02*
X96600000Y-113200000I1200000J0D01*
G01*
%TO.C,J1*%
X102485000Y-93290000D02*
X102485000Y-93225000D01*
X102485000Y-99695000D02*
X102485000Y-99630000D01*
X106015000Y-93225000D02*
X102485000Y-93225000D01*
X106015000Y-93290000D02*
X106015000Y-93225000D01*
X106015000Y-99695000D02*
X102485000Y-99695000D01*
X106015000Y-99695000D02*
X106015000Y-99630000D01*
X107340000Y-99630000D02*
X106015000Y-99630000D01*
%TO.C,R5*%
X81062742Y-121477500D02*
X81537258Y-121477500D01*
X81062742Y-122522500D02*
X81537258Y-122522500D01*
%TO.C,C14*%
X89890000Y-101015580D02*
X89890000Y-100734420D01*
X90910000Y-101015580D02*
X90910000Y-100734420D01*
D12*
%TO.C,U8*%
X78837000Y-105350000D02*
X79087000Y-105350000D01*
X78862000Y-106650000D02*
X79112000Y-106650000D01*
X79462000Y-105350000D02*
X79712000Y-105350000D01*
X79462000Y-106650000D02*
X79712000Y-106650000D01*
D11*
%TO.C,R4*%
X79634961Y-84057906D02*
X79634961Y-83583390D01*
X80679961Y-84057906D02*
X80679961Y-83583390D01*
%TO.C,C13*%
X87215000Y-110709420D02*
X87215000Y-110990580D01*
X88235000Y-110709420D02*
X88235000Y-110990580D01*
%TO.C,L1*%
X97390000Y-118720000D02*
X97390000Y-117980000D01*
X101410000Y-117980000D02*
X101410000Y-118720000D01*
%TO.C,R9*%
X78412258Y-117477500D02*
X77937742Y-117477500D01*
X78412258Y-118522500D02*
X77937742Y-118522500D01*
%TO.C,C18*%
X94684420Y-92740000D02*
X94965580Y-92740000D01*
X94684420Y-93760000D02*
X94965580Y-93760000D01*
%TO.C,C7*%
X78315580Y-111483750D02*
X78034420Y-111483750D01*
X78315580Y-112503750D02*
X78034420Y-112503750D01*
%TO.C,J2*%
X80430000Y-126500000D02*
X80430000Y-127400000D01*
X80430000Y-130100000D02*
X80430000Y-132830000D01*
X80430000Y-132830000D02*
X89620000Y-132830000D01*
X80550000Y-123420000D02*
X89500000Y-123420000D01*
X89620000Y-126500000D02*
X89620000Y-127400000D01*
X89620000Y-130100000D02*
X89620000Y-132830000D01*
%TO.C,R1*%
X88712258Y-95277500D02*
X88237742Y-95277500D01*
X88712258Y-96322500D02*
X88237742Y-96322500D01*
%TO.C,C5*%
X73665000Y-83915580D02*
X73665000Y-83634420D01*
X74685000Y-83915580D02*
X74685000Y-83634420D01*
%TO.C,SW2*%
X69500000Y-123250000D02*
X69500000Y-124750000D01*
X70750000Y-127250000D02*
X75250000Y-127250000D01*
X75250000Y-120750000D02*
X70750000Y-120750000D01*
X76500000Y-124750000D02*
X76500000Y-123250000D01*
%TO.C,L2*%
X85392500Y-113740000D02*
X86132500Y-113740000D01*
X86132500Y-117760000D02*
X85392500Y-117760000D01*
%TO.C,C3*%
X81357461Y-83966228D02*
X81357461Y-83685068D01*
X82377461Y-83966228D02*
X82377461Y-83685068D01*
%TD*%
M02*
