%TF.GenerationSoftware,KiCad,Pcbnew,8.0.7*%
%TF.CreationDate,2025-02-06T19:44:26+13:00*%
%TF.ProjectId,Housens-L,486f7573-656e-4732-9d4c-2e6b69636164,001*%
%TF.SameCoordinates,Original*%
%TF.FileFunction,Copper,L4,Bot*%
%TF.FilePolarity,Positive*%
%FSLAX46Y46*%
G04 Gerber Fmt 4.6, Leading zero omitted, Abs format (unit mm)*
G04 Created by KiCad (PCBNEW 8.0.7) date 2025-02-06 19:44:26*
%MOMM*%
%LPD*%
G01*
G04 APERTURE LIST*
%TA.AperFunction,ComponentPad*%
%ADD10R,0.900000X0.900000*%
%TD*%
%TA.AperFunction,ComponentPad*%
%ADD11C,5.600000*%
%TD*%
%TA.AperFunction,HeatsinkPad*%
%ADD12C,0.500000*%
%TD*%
%TA.AperFunction,ComponentPad*%
%ADD13C,0.700000*%
%TD*%
%TA.AperFunction,ComponentPad*%
%ADD14O,0.900000X2.400000*%
%TD*%
%TA.AperFunction,ComponentPad*%
%ADD15O,0.900000X1.700000*%
%TD*%
%TA.AperFunction,ComponentPad*%
%ADD16C,2.000000*%
%TD*%
%TA.AperFunction,ComponentPad*%
%ADD17C,1.000000*%
%TD*%
%TA.AperFunction,SMDPad,CuDef*%
%ADD18R,5.100000X2.500000*%
%TD*%
%TA.AperFunction,SMDPad,CuDef*%
%ADD19C,17.800000*%
%TD*%
%TA.AperFunction,ViaPad*%
%ADD20C,0.400000*%
%TD*%
%TA.AperFunction,ViaPad*%
%ADD21C,0.450000*%
%TD*%
%TA.AperFunction,ViaPad*%
%ADD22C,0.500000*%
%TD*%
%TA.AperFunction,Conductor*%
%ADD23C,0.400000*%
%TD*%
%TA.AperFunction,Conductor*%
%ADD24C,0.300000*%
%TD*%
%TA.AperFunction,Conductor*%
%ADD25C,0.200000*%
%TD*%
%TA.AperFunction,Conductor*%
%ADD26C,0.275000*%
%TD*%
G04 APERTURE END LIST*
D10*
%TO.P,AE1,2*%
%TO.N,N/C*%
X65525000Y-108350000D03*
%TD*%
D11*
%TO.P,H2,1,1*%
%TO.N,GND*%
X106000000Y-84000000D03*
%TD*%
D12*
%TO.P,U4,49,VSS*%
%TO.N,GND*%
X87550000Y-102450000D03*
X86275000Y-102450000D03*
X85000000Y-102450000D03*
X83725000Y-102450000D03*
X82450000Y-102450000D03*
X87550000Y-103725000D03*
X86275000Y-103725000D03*
X85000000Y-103725000D03*
X83725000Y-103725000D03*
X82450000Y-103725000D03*
X87550000Y-105000000D03*
X86275000Y-105000000D03*
X85000000Y-105000000D03*
X83725000Y-105000000D03*
X82450000Y-105000000D03*
X87550000Y-106275000D03*
X86275000Y-106275000D03*
X85000000Y-106275000D03*
X83725000Y-106275000D03*
X82450000Y-106275000D03*
X87550000Y-107550000D03*
X86275000Y-107550000D03*
X85000000Y-107550000D03*
X83725000Y-107550000D03*
X82450000Y-107550000D03*
%TD*%
D11*
%TO.P,H3,1,1*%
%TO.N,+BATT*%
X106000000Y-126000000D03*
%TD*%
D13*
%TO.P,J2,A1,GND*%
%TO.N,GND*%
X82050000Y-124100000D03*
%TO.P,J2,A4,VBUS*%
%TO.N,Net-(J2-VBUS-PadA4)*%
X82900000Y-124100000D03*
%TO.P,J2,A5,CC1*%
%TO.N,unconnected-(J2-CC1-PadA5)*%
X83750000Y-124100000D03*
%TO.P,J2,A6,D+*%
%TO.N,/USB_D_P*%
X84600000Y-124100000D03*
%TO.P,J2,A7,D-*%
%TO.N,/USB_D_N*%
X85450000Y-124100000D03*
%TO.P,J2,A8*%
%TO.N,N/C*%
X86300000Y-124100000D03*
%TO.P,J2,A9,VBUS*%
%TO.N,Net-(J2-VBUS-PadA4)*%
X87150000Y-124100000D03*
%TO.P,J2,A12,GND*%
%TO.N,GND*%
X88000000Y-124100000D03*
%TO.P,J2,B1,GND*%
X88000000Y-125450000D03*
%TO.P,J2,B4,VBUS*%
%TO.N,Net-(J2-VBUS-PadA4)*%
X87150000Y-125450000D03*
%TO.P,J2,B5,CC2*%
%TO.N,unconnected-(J2-CC2-PadB5)*%
X86300000Y-125450000D03*
%TO.P,J2,B6,D+*%
%TO.N,/USB_D_P*%
X85450000Y-125450000D03*
%TO.P,J2,B7,D-*%
%TO.N,/USB_D_N*%
X84600000Y-125450000D03*
%TO.P,J2,B8*%
%TO.N,N/C*%
X83750000Y-125450000D03*
%TO.P,J2,B9,VBUS*%
%TO.N,Net-(J2-VBUS-PadA4)*%
X82900000Y-125450000D03*
%TO.P,J2,B12,GND*%
%TO.N,GND*%
X82050000Y-125450000D03*
D14*
%TO.P,J2,S1,SHIELD*%
X80700000Y-125080000D03*
D15*
X80700000Y-128460000D03*
D14*
X89350000Y-125080000D03*
D15*
X89350000Y-128460000D03*
%TD*%
D16*
%TO.P,SW2,1,1*%
%TO.N,GND*%
X76250000Y-126250000D03*
X69750000Y-126250000D03*
%TO.P,SW2,2,2*%
%TO.N,/USER_BTN*%
X76250000Y-121750000D03*
X69750000Y-121750000D03*
%TD*%
D17*
%TO.P,Y2,1*%
%TO.N,Net-(U4-PC14)*%
X88300000Y-100300000D03*
%TO.P,Y2,2*%
%TO.N,Net-(U4-PC15)*%
X90096051Y-98503949D03*
%TD*%
D18*
%TO.P,BT1,1,+*%
%TO.N,+BATT*%
X99500000Y-120650000D03*
D19*
%TO.P,BT1,2,-*%
%TO.N,GND*%
X99500000Y-109200000D03*
D18*
%TO.P,BT1,3*%
%TO.N,N/C*%
X99500000Y-97750000D03*
%TD*%
D16*
%TO.P,SW1,1,1*%
%TO.N,GND*%
X72000000Y-95300000D03*
X72000000Y-101800000D03*
%TO.P,SW1,2,2*%
%TO.N,Net-(U4-NRST)*%
X76500000Y-95300000D03*
X76500000Y-101800000D03*
%TD*%
D20*
%TO.N,+BATT*%
X89600000Y-102200000D03*
X92650000Y-118500000D03*
X88330000Y-101540000D03*
X90100000Y-108400000D03*
D21*
%TO.N,GND*%
X73461112Y-107000000D03*
X66700000Y-96177778D03*
X80183334Y-105500000D03*
D20*
X103980000Y-93120000D03*
D21*
X78502778Y-107000000D03*
D22*
X107975000Y-100975000D03*
D21*
X66738889Y-105500000D03*
X74301389Y-107000000D03*
X66700000Y-94497222D03*
X66700000Y-107900000D03*
X66700000Y-99538889D03*
X74301389Y-105500000D03*
X66700000Y-103740278D03*
X75141667Y-105500000D03*
X75141667Y-107000000D03*
X66700000Y-102059722D03*
X66700000Y-102900000D03*
X66700000Y-97018056D03*
X71780556Y-107000000D03*
X79343056Y-107000000D03*
X70940278Y-105500000D03*
X67579167Y-105500000D03*
D20*
X103960000Y-95660000D03*
D22*
X104975000Y-91975000D03*
D21*
X77662500Y-105500000D03*
X66738889Y-107000000D03*
X76822223Y-107000000D03*
X66700000Y-95337500D03*
X80183334Y-107000000D03*
X70940278Y-107000000D03*
X68419445Y-105500000D03*
X79343056Y-105500000D03*
D20*
X103920000Y-96930000D03*
D21*
X67579167Y-107000000D03*
D22*
X107975000Y-103975000D03*
D21*
X72620834Y-105500000D03*
X66700000Y-101219445D03*
X66700000Y-104580556D03*
X71780556Y-105500000D03*
X70100000Y-105500000D03*
X66700000Y-108740278D03*
D22*
X107975000Y-91975000D03*
D21*
X66700000Y-98698611D03*
D22*
X107975000Y-94975000D03*
D21*
X66700000Y-100379167D03*
D22*
X107975000Y-97975000D03*
D21*
X75981945Y-107000000D03*
X69259723Y-105500000D03*
X66700000Y-97858333D03*
X77662500Y-107000000D03*
X76822223Y-105500000D03*
X70100000Y-107000000D03*
X75981945Y-105500000D03*
D22*
X107975000Y-88975000D03*
X104975000Y-88975000D03*
D21*
X68419445Y-107000000D03*
X73461112Y-105500000D03*
X78502778Y-105500000D03*
X69259723Y-107000000D03*
X72620834Y-107000000D03*
D20*
%TO.N,+1V8*%
X80500000Y-104800000D03*
X80700000Y-107500000D03*
X80400000Y-108000000D03*
%TO.N,/I2C1_SCL*%
X86700000Y-99800000D03*
X75250000Y-90050000D03*
%TO.N,/I2C1_SDA*%
X76750000Y-91659314D03*
X89000000Y-102750000D03*
%TO.N,Net-(U4-NRST)*%
X84400000Y-100400000D03*
%TO.N,/SPI1_SDO*%
X80633861Y-101566139D03*
X80400000Y-103400000D03*
%TO.N,/FUEL_CTL*%
X91250000Y-119050000D03*
X82000000Y-100650000D03*
%TO.N,/SWDIO_JTMS*%
X96400000Y-99000000D03*
X89987500Y-106750000D03*
%TO.N,/JTDI*%
X89050000Y-105250000D03*
X95300000Y-97600000D03*
%TO.N,/JTRST*%
X89274991Y-103821445D03*
X95150000Y-95942893D03*
%TO.N,/SWCLK_JTCK*%
X90000000Y-105750000D03*
X95300000Y-98700000D03*
%TO.N,/SWTRACE_JTDO*%
X95850000Y-96750000D03*
X89425000Y-104675000D03*
%TO.N,/USB_D_N*%
X89200000Y-108100000D03*
X89000000Y-113000000D03*
X85452599Y-121623377D03*
X88700000Y-118300000D03*
%TO.N,/USB_D_P*%
X88100000Y-118200000D03*
X88299997Y-113000000D03*
X89062500Y-107250000D03*
X84950000Y-121400000D03*
%TO.N,/OPT_INT*%
X76250000Y-90522917D03*
X85735357Y-100228249D03*
%TO.N,/USB_DETECT*%
X80950000Y-104250000D03*
X80400000Y-118600000D03*
%TO.N,/FUEL_ADC*%
X83000000Y-100650000D03*
X91650000Y-118600000D03*
%TO.N,/USER_BTN*%
X83700000Y-113800000D03*
%TD*%
D23*
%TO.N,+BATT*%
X89600000Y-112952187D02*
X92650000Y-116002187D01*
X90100000Y-108400000D02*
X89600000Y-108900000D01*
X92650000Y-116002187D02*
X92650000Y-118500000D01*
D24*
X89600000Y-102200000D02*
X88930000Y-101530000D01*
D23*
X89600000Y-108900000D02*
X89600000Y-112952187D01*
D24*
X88930000Y-101530000D02*
X88340000Y-101530000D01*
X88340000Y-101530000D02*
X88330000Y-101540000D01*
D23*
%TO.N,+1V8*%
X80900000Y-105200000D02*
X80900000Y-107500000D01*
D25*
X80700000Y-107700000D02*
X80700000Y-107500000D01*
X80700000Y-107500000D02*
X80705307Y-107505307D01*
D23*
X80900000Y-107500000D02*
X80400000Y-108000000D01*
X80500000Y-104800000D02*
X80900000Y-105200000D01*
D25*
X80400000Y-108000000D02*
X80700000Y-107700000D01*
%TO.N,/I2C1_SCL*%
X82534190Y-96100000D02*
X76457107Y-90022917D01*
X86700000Y-99800000D02*
X86700000Y-98013603D01*
X75277083Y-90022917D02*
X75250000Y-90050000D01*
X86700000Y-98013603D02*
X84786397Y-96100000D01*
X76457107Y-90022917D02*
X75277083Y-90022917D01*
X84786397Y-96100000D02*
X82534190Y-96100000D01*
%TO.N,/I2C1_SDA*%
X76750000Y-91950000D02*
X76750000Y-91659314D01*
X88650000Y-102750000D02*
X87400000Y-101500000D01*
X86300000Y-101500000D02*
X76750000Y-91950000D01*
X87400000Y-101500000D02*
X86300000Y-101500000D01*
X89000000Y-102750000D02*
X88650000Y-102750000D01*
%TO.N,Net-(U4-NRST)*%
X84400000Y-100400000D02*
X83200000Y-99200000D01*
X76500000Y-95300000D02*
X76500000Y-99200000D01*
X76500000Y-99200000D02*
X76500000Y-101800000D01*
X83200000Y-99200000D02*
X76500000Y-99200000D01*
%TO.N,/SPI1_SDO*%
X80400000Y-101800000D02*
X80400000Y-103400000D01*
X80633861Y-101566139D02*
X80400000Y-101800000D01*
D24*
%TO.N,/FUEL_CTL*%
X83075000Y-101725000D02*
X82000000Y-100650000D01*
X83075000Y-110875000D02*
X83075000Y-101725000D01*
X91250000Y-119050000D02*
X83075000Y-110875000D01*
D25*
%TO.N,/SWDIO_JTMS*%
X91700000Y-103900000D02*
X91700000Y-104300000D01*
X96400000Y-99000000D02*
X96400000Y-99200000D01*
X96400000Y-99200000D02*
X91700000Y-103900000D01*
X89987500Y-106750000D02*
X89987500Y-106737500D01*
X90900000Y-105100000D02*
X90900000Y-105837500D01*
X90900000Y-105837500D02*
X89987500Y-106750000D01*
X91700000Y-104300000D02*
X90900000Y-105100000D01*
%TO.N,/JTDI*%
X90900000Y-103968628D02*
X90100000Y-104768628D01*
X90100000Y-104800000D02*
X89650000Y-105250000D01*
X89650000Y-105250000D02*
X89050000Y-105250000D01*
X90900000Y-103568628D02*
X90900000Y-103968628D01*
X94700000Y-98200000D02*
X94700000Y-99768628D01*
X94700000Y-99768628D02*
X90900000Y-103568628D01*
X95300000Y-97600000D02*
X94700000Y-98200000D01*
X90100000Y-104768628D02*
X90100000Y-104800000D01*
%TO.N,/JTRST*%
X93550000Y-99546436D02*
X89274991Y-103821445D01*
X95150000Y-95942893D02*
X95123652Y-95942893D01*
X95123652Y-95942893D02*
X93550000Y-97516545D01*
X93550000Y-97516545D02*
X93550000Y-99546436D01*
%TO.N,/SWCLK_JTCK*%
X95300000Y-98700000D02*
X95300000Y-99734314D01*
X95300000Y-99734314D02*
X91300000Y-103734314D01*
X91300000Y-103734314D02*
X91300000Y-104134314D01*
X90500000Y-105250000D02*
X90000000Y-105750000D01*
X91300000Y-104134314D02*
X90500000Y-104934314D01*
X90500000Y-104934314D02*
X90500000Y-105250000D01*
%TO.N,/SWTRACE_JTDO*%
X94100000Y-97800000D02*
X94100000Y-99802942D01*
X95850000Y-96750000D02*
X95150000Y-96750000D01*
X90500000Y-103802942D02*
X89700000Y-104602942D01*
X90500000Y-103402942D02*
X90500000Y-103802942D01*
X94100000Y-99802942D02*
X90500000Y-103402942D01*
X89700000Y-104634314D02*
X89659314Y-104675000D01*
X89700000Y-104602942D02*
X89700000Y-104634314D01*
X89659314Y-104675000D02*
X89425000Y-104675000D01*
X95150000Y-96750000D02*
X94100000Y-97800000D01*
D26*
%TO.N,/USB_D_N*%
X89000000Y-108300000D02*
X89000000Y-113000000D01*
X86997607Y-119882719D02*
X87082461Y-119797868D01*
X88312500Y-118687500D02*
X88700000Y-118300000D01*
X87060076Y-120793717D02*
X87144928Y-120708864D01*
X85452599Y-121623377D02*
X85452599Y-121427731D01*
X87533943Y-119346387D02*
X88192830Y-118687500D01*
X87144928Y-120369452D02*
X86997607Y-120222131D01*
X85452599Y-121427731D02*
X86233933Y-120646397D01*
X89200000Y-108100000D02*
X89000000Y-108300000D01*
X86573344Y-120646397D02*
X86720664Y-120793717D01*
X88192830Y-118687500D02*
X88312500Y-118687500D01*
X87082461Y-119797868D02*
X87533943Y-119346387D01*
X86997607Y-120222131D02*
G75*
G02*
X86997582Y-119882694I169693J169731D01*
G01*
X86720664Y-120793717D02*
G75*
G03*
X87060076Y-120793717I169706J169704D01*
G01*
X87144928Y-120708864D02*
G75*
G03*
X87144886Y-120369494I-169728J169664D01*
G01*
X86233933Y-120646397D02*
G75*
G02*
X86573344Y-120646396I169706J-169707D01*
G01*
D23*
%TO.N,/USB_D_P*%
X84600000Y-124389339D02*
X85450000Y-125239339D01*
D26*
X88624999Y-112674998D02*
X88299997Y-113000000D01*
X88624999Y-107675001D02*
X88624999Y-112674998D01*
X89050000Y-107250000D02*
X88624999Y-107675001D01*
D23*
X85450000Y-125239339D02*
X85450000Y-125450000D01*
D26*
X89062500Y-107250000D02*
X89050000Y-107250000D01*
D23*
X84600000Y-124100000D02*
X84600000Y-124389339D01*
D26*
X88100000Y-118200000D02*
X84950000Y-121350000D01*
X84950000Y-121350000D02*
X84950000Y-121400000D01*
D25*
%TO.N,/OPT_INT*%
X76320710Y-90522917D02*
X76250000Y-90522917D01*
X85735357Y-100228249D02*
X85735357Y-99937564D01*
X85735357Y-99937564D02*
X76320710Y-90522917D01*
%TO.N,/USB_DETECT*%
X81400000Y-104700000D02*
X81400000Y-107900000D01*
X80400000Y-108900000D02*
X80400000Y-118600000D01*
X81400000Y-107900000D02*
X80400000Y-108900000D01*
X80950000Y-104250000D02*
X81400000Y-104700000D01*
D24*
%TO.N,/FUEL_ADC*%
X91650000Y-118600000D02*
X84350000Y-111300000D01*
X84350000Y-111300000D02*
X84350000Y-102000000D01*
X84350000Y-102000000D02*
X83000000Y-100650000D01*
%TO.N,/USER_BTN*%
X83700000Y-116500000D02*
X78450000Y-121750000D01*
X83700000Y-113800000D02*
X83700000Y-116500000D01*
X78450000Y-121750000D02*
X69750000Y-121750000D01*
%TD*%
%TA.AperFunction,Conductor*%
%TO.N,+BATT*%
G36*
X107948975Y-119484283D02*
G01*
X108015861Y-119504480D01*
X108036041Y-119520934D01*
X109463517Y-120959390D01*
X109496766Y-121020841D01*
X109499500Y-121046735D01*
X109499500Y-125996948D01*
X109499351Y-126003033D01*
X109482947Y-126336928D01*
X109481754Y-126349037D01*
X109433151Y-126676694D01*
X109430777Y-126688630D01*
X109350292Y-127009944D01*
X109346759Y-127021588D01*
X109235170Y-127333459D01*
X109230514Y-127344702D01*
X109088885Y-127644151D01*
X109083148Y-127654883D01*
X108912862Y-127938988D01*
X108906102Y-127949106D01*
X108708775Y-128215170D01*
X108701055Y-128224576D01*
X108478611Y-128470006D01*
X108470006Y-128478611D01*
X108224576Y-128701055D01*
X108215170Y-128708775D01*
X107949106Y-128906102D01*
X107938988Y-128912862D01*
X107654883Y-129083148D01*
X107644151Y-129088885D01*
X107344702Y-129230514D01*
X107333459Y-129235170D01*
X107021588Y-129346759D01*
X107009944Y-129350292D01*
X106688630Y-129430777D01*
X106676694Y-129433151D01*
X106349037Y-129481754D01*
X106336928Y-129482947D01*
X106021989Y-129498419D01*
X106003031Y-129499351D01*
X105996949Y-129499500D01*
X98548325Y-129499500D01*
X98481286Y-129479815D01*
X98460851Y-129463388D01*
X97026849Y-128036134D01*
X96993219Y-127974890D01*
X96990324Y-127948836D01*
X96959678Y-121451787D01*
X96979047Y-121384657D01*
X96996121Y-121363398D01*
X98913250Y-119451907D01*
X98974622Y-119418513D01*
X99001751Y-119415722D01*
X107948975Y-119484283D01*
G37*
%TD.AperFunction*%
%TD*%
%TA.AperFunction,Conductor*%
%TO.N,GND*%
G36*
X106003032Y-80500648D02*
G01*
X106336929Y-80517052D01*
X106349037Y-80518245D01*
X106452146Y-80533539D01*
X106676699Y-80566849D01*
X106688617Y-80569219D01*
X107009951Y-80649709D01*
X107021588Y-80653240D01*
X107092806Y-80678722D01*
X107333467Y-80764832D01*
X107344688Y-80769479D01*
X107644163Y-80911120D01*
X107654871Y-80916844D01*
X107938988Y-81087137D01*
X107949106Y-81093897D01*
X108215170Y-81291224D01*
X108224576Y-81298944D01*
X108470013Y-81521395D01*
X108478604Y-81529986D01*
X108663804Y-81734323D01*
X108701055Y-81775423D01*
X108708775Y-81784829D01*
X108906102Y-82050893D01*
X108912862Y-82061011D01*
X109041776Y-82276092D01*
X109083148Y-82345116D01*
X109088883Y-82355844D01*
X109222096Y-82637500D01*
X109230514Y-82655297D01*
X109235170Y-82666540D01*
X109346759Y-82978411D01*
X109350292Y-82990055D01*
X109430777Y-83311369D01*
X109433151Y-83323305D01*
X109481754Y-83650962D01*
X109482947Y-83663071D01*
X109499351Y-83996966D01*
X109499500Y-84003051D01*
X109499500Y-110949138D01*
X109479815Y-111016177D01*
X109463181Y-111036819D01*
X107036319Y-113463681D01*
X106974996Y-113497166D01*
X106948638Y-113500000D01*
X105551362Y-113500000D01*
X105484323Y-113480315D01*
X105463681Y-113463681D01*
X102536319Y-110536319D01*
X102502834Y-110474996D01*
X102500000Y-110448638D01*
X102500000Y-81801362D01*
X102519685Y-81734323D01*
X102536319Y-81713681D01*
X103713181Y-80536819D01*
X103774504Y-80503334D01*
X103800862Y-80500500D01*
X105934108Y-80500500D01*
X105996949Y-80500500D01*
X106003032Y-80500648D01*
G37*
%TD.AperFunction*%
%TD*%
%TA.AperFunction,Conductor*%
%TO.N,GND*%
G36*
X82667539Y-102019685D02*
G01*
X82713294Y-102072489D01*
X82724500Y-102124000D01*
X82724500Y-107876000D01*
X82704815Y-107943039D01*
X82652011Y-107988794D01*
X82600500Y-108000000D01*
X82301362Y-108000000D01*
X82234323Y-107980315D01*
X82213681Y-107963681D01*
X82036319Y-107786319D01*
X82002834Y-107724996D01*
X82000000Y-107698638D01*
X82000000Y-102301362D01*
X82019685Y-102234323D01*
X82036319Y-102213681D01*
X82213681Y-102036319D01*
X82275004Y-102002834D01*
X82301362Y-102000000D01*
X82600500Y-102000000D01*
X82667539Y-102019685D01*
G37*
%TD.AperFunction*%
%TA.AperFunction,Conductor*%
G36*
X83869996Y-102019685D02*
G01*
X83890638Y-102036319D01*
X83963181Y-102108862D01*
X83996666Y-102170185D01*
X83999500Y-102196543D01*
X83999500Y-107876000D01*
X83979815Y-107943039D01*
X83927011Y-107988794D01*
X83875500Y-108000000D01*
X83549500Y-108000000D01*
X83482461Y-107980315D01*
X83436706Y-107927511D01*
X83425500Y-107876000D01*
X83425500Y-102124000D01*
X83445185Y-102056961D01*
X83497989Y-102011206D01*
X83549500Y-102000000D01*
X83802957Y-102000000D01*
X83869996Y-102019685D01*
G37*
%TD.AperFunction*%
%TA.AperFunction,Conductor*%
G36*
X87490706Y-102019685D02*
G01*
X87511348Y-102036319D01*
X87963681Y-102488652D01*
X87997166Y-102549975D01*
X88000000Y-102576333D01*
X88000000Y-107698638D01*
X87980315Y-107765677D01*
X87963681Y-107786319D01*
X87786319Y-107963681D01*
X87724996Y-107997166D01*
X87698638Y-108000000D01*
X84824500Y-108000000D01*
X84757461Y-107980315D01*
X84711706Y-107927511D01*
X84700500Y-107876000D01*
X84700500Y-102124000D01*
X84720185Y-102056961D01*
X84772989Y-102011206D01*
X84824500Y-102000000D01*
X87423667Y-102000000D01*
X87490706Y-102019685D01*
G37*
%TD.AperFunction*%
%TD*%
M02*
